<svg xmlns="http://www.w3.org/2000/svg" version="1.1" xmlns:xlink="http://www.w3.org/1999/xlink" xmlns:svgjs="http://svgjs.dev/svgjs" viewBox="0 0 800 800"><defs><linearGradient x1="50%" y1="0%" x2="50%" y2="100%" id="ccchaos-grad"><stop stop-color="hsl(105, 7%, 72%)" stop-opacity="1" offset="0%"></stop><stop stop-color="hsl(105, 48%, 37%)" stop-opacity="1" offset="100%"></stop></linearGradient></defs><g stroke-width="2" stroke="url(#ccchaos-grad)" fill="none" stroke-linecap="round"><path d="M382.98 122.82C382.23 107.67 401.22 103.37 415.74 115.32Q425.01 122.74 434.16 130.16 442.96 137.58 451.19 145.01 458.63 152.45 465.12 159.91 474.21 174.94 479.82 190.09 480.27 205.5 478.54 221.11 475.54 237.1 473.36 253.35 475.01 270.08 480.09 287.11 484.88 295.81 490.99 304.62 498.35 313.53 506.83 322.56 516.24 331.7 526.35 340.94 536.88 350.29 547.55 359.75 558.05 369.31 568.08 378.97 577.35 388.72 585.61 398.56 592.65 408.49 598.33 418.5 602.54 428.58 605.28 438.73 606.58 448.94 606.56 459.2 605.4 469.51 603.34 479.85 600.66 490.22 597.68 500.6 594.73 511 592.15 521.39 590.26 531.77 589.37 542.13 589.71 552.46 591.5 562.74 594.86 572.98 599.85 583.15 606.46 593.25 614.59 603.27 624.07 613.2 634.68 623.03 646.11 632.75 658.05 642.36 670.12 651.84 681.96 661.19 693.21 670.4 703.53 679.46 712.6 688.38 720.19 697.14C728.17 709.46 716.15 724.57 701.9 723.66Q684.34 720.25 666.77 714.56 649.21 707 631.64 698.12 614.08 688.56 596.51 679.02 578.95 670.18 561.38 662.68 543.82 657.07 526.26 653.75 508.69 652.97 491.13 654.77 473.56 659.03 456 665.45 438.43 673.54 420.87 682.74 403.31 692.38 385.74 701.75 368.18 710.18 350.61 717.05 333.05 721.88 315.48 724.32 297.92 724.17 280.36 721.47 262.79 716.39 245.23 709.32 227.66 700.75 210.1 691.32 192.54 681.7 174.97 672.59 157.41 664.65 139.84 658.45C125.6 655.02 116.8 639.91 122.83 629.03Q129.84 614.45 135.87 600.23 140.75 586.55 145.38 573.12 150.5 560.02 156.47 547.06 164.52 534.23 174.03 521.4 179.63 514.97 185.64 508.52 191.99 502.03 198.6 495.49 205.35 488.91 212.12 482.26 218.78 475.54 225.21 468.75 231.3 461.88 236.93 454.91 246.19 440.65 253.56 426.08 257.94 410.96 260.93 395.5 262.83 379.46 264.97 363.08 266.56 354.69 268.68 346.19 271.43 337.59 274.91 328.88 279.16 320.08 284.21 311.18 290.03 302.2 296.57 293.13 303.73 283.98 311.38 274.76 319.38 265.48 327.53 256.13 335.67 246.73 343.59 237.29 351.12 227.8 358.09 218.29 364.34 208.75 369.77 199.19 374.29 189.61 377.86 180.04 380.51 170.46 382.27 160.89 383.24 151.34 383.57 141.81 383.2 127.56 382.98 122.82" stroke-dasharray="11 4" transform="rotate(0, 400, 400)" opacity="0.96"></path><path d="M389.5 133.42C388.74 118.82 407.28 114.55 421.46 126Q430.14 133.11 438.45 140.22 446.2 147.33 453.21 154.44 463.94 168.73 471.56 183.08 474.05 197.62 473.99 212.3 471.45 227.27 468.72 242.45 468 258.02 469.75 273.85 472.44 281.93 476.33 290.1 481.44 298.37 487.74 306.74 495.14 315.21 503.52 323.78 512.7 332.46 522.47 341.24 532.58 350.12 542.77 359.11 552.77 368.19 562.32 377.37 571.17 386.64 579.1 396 585.92 405.45 591.5 414.99 595.74 424.6 598.63 434.28 600.2 444.03 600.52 453.83 599.75 463.69 598.08 473.6 595.76 483.55 593.03 493.53 590.21 503.53 587.58 513.54 585.44 523.57 584.06 533.58 583.69 543.59 584.53 553.58 586.75 563.54 590.43 573.46 595.61 583.33 602.25 593.15 610.27 602.9 619.49 612.57 629.72 622.17 640.69 631.67 652.11 641.08 663.66 650.37 675 659.56 685.83 668.62 695.84 677.56 704.75 686.36C715.21 698.79 707.29 712.46 693.54 710.35Q676.59 705.78 659.65 699.32 642.7 691.42 625.75 682.59 608.81 673.43 591.86 664.55 574.91 656.54 557.96 649.95 541.02 645.21 524.07 642.64 507.12 642.42 490.18 644.55 473.23 648.9 456.28 655.17 439.33 662.94 422.39 671.7 405.44 680.86 388.49 689.8 371.55 697.92 354.6 704.69 337.65 709.65 320.7 712.46 303.76 712.94 286.81 711.06 269.86 706.94 252.91 700.86 235.97 693.23 219.02 684.55 202.07 675.4 185.12 666.41 168.18 658.17 151.23 651.23C137.48 646.88 128.32 631.54 133.48 621.59Q139.39 608.18 144.5 595.06 148.85 582.32 153.22 569.76 158.48 557.4 164.72 545.1 173.12 532.82 182.91 520.5 188.57 514.29 194.59 508.03 200.89 501.74 207.38 495.38 213.96 488.96 220.51 482.48 226.92 475.91 233.06 469.27 243.93 455.68 253.23 441.79 259.58 427.41 264.22 412.7 266.68 397.46 268.48 381.89 270.52 365.79 273.54 349.38 275.92 341.01 278.96 332.54 282.72 323.99 287.22 315.35 292.46 306.63 298.42 297.83 305.01 288.97 312.14 280.04 319.68 271.06 327.5 262.02 335.42 252.94 343.28 243.81 350.91 234.65 358.13 225.47 364.81 216.26 370.81 207.04 376.02 197.81 380.38 188.57 383.86 179.34 386.46 170.12 388.23 160.91 389.24 151.72 389.56 137.99 389.5 133.42" stroke-dasharray="6 5" transform="rotate(4.04, 400, 400)" opacity="0.60"></path><path d="M395.66 144.02C395.43 129.95 413.49 125.74 426.74 136.7Q441.75 150.3 453.97 163.91 462.57 177.55 467.29 191.29 468.48 205.15 467.08 219.17 464.47 233.41 462.29 247.9 462.15 262.67 465.37 277.75 472.8 293.18 484.59 308.96 500.24 325.12 518.57 341.66 537.95 358.59 556.55 375.9 572.58 393.57 584.63 411.58 591.92 429.91 594.36 448.52 592.69 467.37 588.3 486.42 583.07 505.61 579.05 524.88 578.17 544.17 581.87 563.42 590.93 582.57 605.25 601.55 623.9 620.3 645.24 638.76 667.15 656.86 687.36 674.55C699.69 687.01 695.42 699.32 682.22 696.2Q665.97 690.71 649.71 683.73 633.45 675.68 617.19 667.07 600.93 658.43 584.68 650.29 568.42 643.15 552.16 637.45 535.9 633.55 519.64 631.68 503.39 631.96 487.13 634.38 470.87 638.78 454.61 644.89 438.35 652.34 422.09 660.66 405.84 669.35 389.58 677.86 373.32 685.67 357.06 692.3 340.8 697.34 324.55 700.48 308.29 701.52 292.03 700.4 275.77 697.19 259.51 692.09 243.25 685.41 227 677.57 210.74 669.04 194.48 660.36 178.22 652.06 161.96 644.65C148.77 639.61 139.22 624.17 143.54 615.04Q148.57 602.63 152.81 590.49 156.79 578.55 161.14 566.75 166.45 555.02 173.23 543.29 181.74 531.49 192 519.58 203.69 507.48 216.25 495.15 228.94 482.55 240.92 469.62 251.45 456.35 259.96 442.7 266.2 428.66 270.29 414.22 272.69 399.37 274.21 384.12 275.81 368.48 278.5 352.46 283.17 336.11 290.42 319.43 300.45 302.47 313.01 285.27 327.43 267.87 342.71 250.3 357.64 232.62 371.03 214.87 381.9 197.1 389.62 179.34 394.08 161.63 395.66 144.02 395.66 144.02 395.66 144.02" stroke-dasharray="1 1" transform="rotate(8.08, 400, 400)" opacity="0.33"></path><path d="M401.01 154.6C401.76 141.09 419.32 136.94 431.13 147.39Q443.78 160.39 453.37 173.38 459.46 186.4 462.14 199.51 461.99 212.72 460.05 226.08 457.64 239.63 456.21 253.4 457.09 267.43 461.33 281.74 469.49 296.35 481.56 311.29 496.99 326.58 514.66 342.22 533.13 358.21 550.77 374.57 566.06 391.27 577.76 408.32 585.14 425.67 588.09 443.32 587.15 461.22 583.46 479.35 578.58 497.65 574.3 516.08 572.35 534.6 574.17 553.14 580.67 571.65 592.1 590.08 607.98 608.36 627.17 626.44 647.99 644.27 668.52 661.78C682 674.16 680.72 685.24 668.15 681.31Q652.64 675.16 637.13 667.88 621.62 659.91 606.12 651.67 590.61 643.65 575.1 636.3 559.59 630.03 544.09 625.2 528.58 622.09 513.07 620.86 497.56 621.6 482.05 624.25 466.55 628.68 451.04 634.61 435.53 641.73 420.02 649.63 404.52 657.85 389.01 665.94 373.5 673.43 357.99 679.9 342.48 684.98 326.98 688.39 311.47 689.92 295.96 689.5 280.45 687.15 264.94 683 249.44 677.28 233.93 670.33 218.42 662.52 202.91 654.32 187.4 646.18 171.89 638.56C159.32 633.07 149.45 617.67 152.99 609.25Q157.17 597.74 160.89 586.4 164.71 575.16 169.19 563.98 174.83 552.78 182.01 541.51 190.86 530.13 201.28 518.57 212.91 506.79 225.18 494.75 237.38 482.42 248.77 469.77 258.68 456.77 266.67 443.4 272.52 429.67 276.35 415.55 278.6 401.05 279.96 386.19 281.31 370.98 283.56 355.43 287.52 339.57 293.8 323.43 302.68 307.05 314.04 290.44 327.4 273.67 341.96 256.76 356.68 239.75 370.49 222.68 382.38 205.59 391.61 188.53 397.8 171.52 401.01 154.6 401.01 154.6 401.01 154.6" stroke-dasharray="3 6" transform="rotate(12.12, 400, 400)" opacity="0.80"></path><path d="M405.21 165.17C407.25 152.23 424.26 148.14 434.26 158.1Q444.36 170.48 451.38 182.86 455.22 195.27 456.24 207.75 455.16 220.32 453.03 233.03 451.07 245.9 450.51 258.96 452.43 272.25 457.61 285.8 466.38 299.61 478.63 313.73 493.75 328.15 510.73 342.9 528.28 357.98 544.99 373.39 559.55 389.14 570.87 405.21 578.3 421.58 581.71 438.25 581.47 455.18 578.5 472.35 574.07 489.73 569.72 507.27 566.99 524.94 567.24 542.68 571.47 560.47 580.14 578.24 593.15 595.94 609.79 613.52 628.86 630.94 648.78 648.15C662.69 660.36 663.6 670.32 651.67 665.79Q636.96 659.22 622.25 651.88 607.55 644.14 592.84 636.41 578.13 629.1 563.42 622.57 548.71 617.17 534 613.18 519.29 610.81 504.58 610.17 489.87 611.31 475.17 614.16 460.46 618.58 445.75 624.33 431.04 631.12 416.33 638.59 401.62 646.36 386.91 654.03 372.21 661.19 357.5 667.48 342.79 672.56 328.08 676.18 313.37 678.14 298.66 678.35 283.95 676.79 269.25 673.54 254.54 668.78 239.83 662.75 225.12 655.76 210.41 648.18 195.7 640.4 181 632.82C169.07 627.09 159.02 611.88 161.89 604.06Q165.43 593.32 168.87 582.64 172.72 571.99 177.48 561.32 183.53 550.57 191.11 539.69 200.26 528.65 210.78 517.4 222.27 505.9 234.17 494.13 245.83 482.07 256.6 469.68 265.91 456.95 273.37 443.88 278.83 430.45 282.41 416.68 284.51 402.56 285.74 388.11 286.87 373.34 288.71 358.27 292.02 342.93 297.39 327.34 305.14 311.54 315.27 295.55 327.48 279.42 341.13 263.17 355.39 246.83 369.29 230.46 381.89 214.07 392.38 197.71 402.71 173.28 405.21 165.17" stroke-dasharray="7 4" transform="rotate(16.16, 400, 400)" opacity="0.44"></path><path d="M407.98 175.74C411.47 163.34 427.86 159.34 435.86 168.82Q443.38 180.6 448.04 192.37 449.99 204.17 449.77 216.03 448.16 227.96 446.16 240.02 444.85 252.22 445.25 264.59 448.18 277.15 454.19 289.94 463.47 302.98 475.78 316.28 490.53 329.86 506.78 343.73 523.41 357.91 539.21 372.39 553.03 387.19 563.96 402.28 571.41 417.68 575.21 433.35 575.63 449.3 573.38 465.49 569.5 481.9 565.27 498.51 562.03 515.27 561.03 532.16 563.28 549.13 569.41 566.15 579.58 583.17 593.46 600.14 610.25 617.03 628.78 633.78C642.4 645.73 644.66 654.71 633.4 649.8Q619.52 643.06 605.64 635.85 591.76 628.51 577.88 621.39 564 614.84 550.12 609.15 536.24 604.61 522.36 601.41 508.49 599.72 494.61 599.62 480.73 601.11 466.85 604.11 452.97 608.49 439.09 614.04 425.21 620.5 411.33 627.56 397.45 634.89 383.57 642.14 369.69 648.96 355.82 655.04 341.94 660.09 328.06 663.87 314.18 666.19 300.3 666.96 286.42 666.13 272.54 663.74 258.66 659.91 244.78 654.81 230.91 648.7 217.03 641.85 203.15 634.59 189.27 627.27C178.01 621.52 167.97 606.63 170.35 599.33Q173.51 589.2 176.88 579.08 180.95 568.91 186.08 558.66 192.58 548.28 200.55 537.73 209.92 526.98 220.45 516 231.72 504.77 243.2 493.25 254.28 481.44 264.42 469.32 273.11 456.87 280.06 444.11 285.14 431.01 288.48 417.6 290.44 403.88 291.54 389.86 292.48 375.56 293.96 360.99 296.68 346.19 301.19 331.18 307.85 315.97 316.76 300.61 327.74 285.13 340.33 269.55 353.88 253.9 367.56 238.22 380.52 222.53 391.96 206.88 401.25 191.27 407.98 175.74 407.98 175.74 407.98 175.74" stroke-dasharray="10 7" transform="rotate(20.200000000000003, 400, 400)" opacity="0.54"></path><path d="M409.17 186.3C414.12 174.47 429.79 170.55 435.75 179.54Q440.86 190.72 443.48 201.89 443.97 213.08 442.93 224.32 441.16 235.63 439.57 247.04 439.06 258.58 440.44 270.26 444.33 282.12 451.09 294.17 460.74 306.44 473.02 318.94 487.32 331.7 502.82 344.71 518.53 358 533.42 371.57 546.52 385.42 557.04 399.56 564.46 413.98 568.6 428.66 569.64 443.62 568.1 458.81 564.84 474.24 560.88 489.87 557.37 505.69 555.45 521.66 556.07 537.75 559.94 553.93 567.42 570.17 578.46 586.43 592.64 602.67 609.14 618.84C621.85 630.43 624.57 638.56 613.99 633.46Q600.95 626.76 587.92 619.86 574.88 613.06 561.85 606.64 548.81 600.89 535.78 596.05 522.74 592.32 509.71 589.88 496.67 588.82 483.63 589.19 470.6 590.97 457.56 594.08 444.53 598.4 431.49 603.74 418.45 609.87 405.42 616.52 392.38 623.41 379.35 630.25 366.31 636.73 353.28 642.59 340.24 647.57 327.2 651.45 314.17 654.08 301.13 655.33 288.1 655.16 275.06 653.57 262.02 650.62 248.99 646.45 235.95 641.24 222.91 635.21 209.88 628.61 196.84 621.73C186.27 616.15 176.44 601.75 178.52 594.85Q181.53 585.23 185.06 575.56 189.48 565.78 195.08 555.87 202.02 545.8 210.32 535.53 219.84 525.05 230.3 514.32 241.27 503.33 252.25 492.07 262.73 480.52 272.21 468.67 280.29 456.52 286.73 444.08 291.44 431.34 294.55 418.32 296.37 405.02 297.37 391.45 298.13 377.64 299.3 363.6 301.48 349.35 305.2 334.92 310.83 320.33 318.54 305.61 328.25 290.78 339.67 275.88 352.29 260.93 365.45 245.95 378.42 230.97 390.44 216.02 400.86 201.12 409.17 186.3 409.17 186.3 409.17 186.3" stroke-dasharray="11 7" transform="rotate(24.24, 400, 400)" opacity="0.62"></path><path d="M408.72 196.86C414.98 185.57 429.89 181.76 433.91 190.28Q436.9 200.86 437.9 211.43 437.36 222.02 435.93 232.65 434.34 243.34 433.38 254.11 433.77 264.99 436.14 276 440.91 287.16 448.28 298.49 458.19 310.01 470.32 321.73 484.11 333.67 498.83 345.85 513.63 358.27 527.63 370.94 540.01 383.87 550.1 397.06 557.46 410.51 561.88 424.21 563.48 438.17 562.64 452.37 560.02 466.79 556.46 481.43 552.92 496.26 550.37 511.26 549.71 526.42 551.66 541.7 556.69 557.08 564.98 572.52 576.37 588 590.39 603.49C601.7 614.61 604.14 622.03 594.25 616.96Q582.05 610.5 569.85 604.06 557.65 597.89 545.46 592.23 533.26 587.3 521.06 583.29 508.86 580.35 496.66 578.6 484.46 578.1 472.26 578.88 460.06 580.91 447.87 584.1 435.67 588.33 423.47 593.44 411.27 599.24 399.07 605.49 386.87 611.95 374.67 618.38 362.47 624.52 350.27 630.14 338.07 635.01 325.88 638.96 313.68 641.82 301.48 643.49 289.28 643.9 277.08 643.03 264.88 640.92 252.68 637.65 240.48 633.35 228.28 628.19 216.08 622.35 203.88 616.08C194 610.84 184.63 597.04 186.6 590.46Q189.72 581.25 193.57 571.93 198.45 562.48 204.53 552.86 211.88 543.05 220.44 533.03 230.02 522.79 240.3 512.3 250.88 501.55 261.31 490.55 271.15 479.27 279.97 467.72 287.44 455.89 293.39 443.8 297.74 431.44 300.63 418.82 302.32 405.97 303.22 392.88 303.83 379.58 304.72 366.08 306.43 352.41 309.43 338.58 314.1 324.63 320.64 310.56 329.08 296.4 339.23 282.19 350.75 267.93 363.13 253.66 375.76 239.39 387.98 225.16 399.15 210.97 408.72 196.86 408.72 196.86 408.72 196.86" stroke-dasharray="3 6" transform="rotate(28.28, 400, 400)" opacity="0.90"></path><path d="M406.71 207.4C414.02 196.69 428.11 192.98 430.43 201.02Q431.71 211 431.55 220.98 430.44 230.97 429 241 427.87 251.07 427.69 261.22 429.03 271.46 432.33 281.8 437.88 292.28 445.74 302.9 455.78 313.68 467.67 324.64 480.9 335.79 494.82 347.15 508.71 358.72 521.83 370.52 533.5 382.54 543.15 394.8 550.4 407.3 555.04 420.03 557.14 433 556.97 446.19 555.02 459.61 551.97 473.24 548.59 487.06 545.7 501.07 544.1 515.25 544.49 529.57 547.39 544.02 553.13 558.57 561.74 573.2 573.05 587.89C582.61 598.47 584.15 605.31 574.91 600.41Q563.53 594.36 552.15 588.51 540.76 583.06 529.38 578.19 518 574.07 506.62 570.86 495.23 568.65 483.85 567.54 472.47 567.54 461.09 568.68 449.7 570.9 438.32 574.13 426.94 578.25 415.55 583.13 404.17 588.59 392.79 594.45 381.41 600.49 370.02 606.52 358.64 612.31 347.26 617.67 335.87 622.42 324.49 626.37 313.11 629.41 301.73 631.42 290.34 632.34 278.96 632.12 267.58 630.78 256.19 628.37 244.81 624.97 233.43 620.7 222.04 615.7 210.66 610.15C201.42 605.37 192.75 592.29 194.81 585.98Q198.24 577.1 202.55 568.07 207.93 558.88 214.48 549.51 222.18 539.94 230.9 530.15 240.42 520.14 250.42 509.89 260.54 499.4 270.38 488.67 279.55 477.68 287.7 466.44 294.58 454.96 300.03 443.24 304.04 431.29 306.71 419.11 308.27 406.73 309.09 394.15 309.58 381.38 310.24 368.45 311.52 355.37 313.88 342.17 317.66 328.85 323.1 315.45 330.28 301.97 339.13 288.45 349.43 274.9 360.8 261.34 372.76 247.79 384.78 234.27 401.49 214.1 406.71 207.4" stroke-dasharray="2 7" transform="rotate(32.32, 400, 400)" opacity="0.83"></path><path d="M403.34 217.94C411.35 207.8 424.56 204.21 425.53 211.77Q425.58 221.17 424.73 230.56 423.47 239.95 422.34 249.38 421.88 258.84 422.59 268.37 424.87 277.97 429.04 287.66 435.24 297.47 443.45 307.39 453.5 317.46 465.06 327.67 477.67 338.05 490.78 348.61 503.76 359.35 516.03 370.29 526.99 381.44 536.19 392.79 543.29 404.35 548.1 416.13 550.64 428.12 551.09 440.33 549.82 452.74 547.35 465.35 544.28 478.16 541.3 491.16 539.1 504.33 538.31 517.65 539.46 531.12 542.94 544.72 548.95 558.43 557.5 572.23C565.11 582.19 565.31 588.55 556.71 583.98Q546.1 578.49 535.5 573.31 524.9 568.62 514.3 564.55 503.7 561.24 493.1 558.78 482.5 557.25 471.89 556.71 461.29 557.15 450.69 558.58 440.09 560.95 429.49 564.18 418.89 568.18 408.29 572.81 397.69 577.94 387.08 583.41 376.48 589.05 365.88 594.67 355.28 600.11 344.68 605.21 334.08 609.79 323.48 613.72 312.88 616.87 302.27 619.16 291.67 620.5 281.07 620.85 270.47 620.22 259.87 618.6 249.27 616.06 238.67 612.67 228.07 608.54 217.47 603.8C208.86 599.6 201.07 587.34 203.37 581.22Q207.25 572.61 212.1 563.83 217.99 554.87 224.95 545.72 232.9 536.38 241.66 526.82 251.01 517.05 260.65 507.05 270.23 496.84 279.43 486.39 287.9 475.72 295.39 464.83 301.68 453.73 306.66 442.41 310.33 430.9 312.79 419.19 314.24 407.3 314.98 395.25 315.37 383.05 315.83 370.7 316.76 358.24 318.55 345.67 321.53 333.01 325.94 320.28 331.91 307.5 339.45 294.68 348.43 281.84 358.62 269 369.65 256.18 381.1 243.38 397.91 224.28 403.34 217.94" stroke-dasharray="2 5" transform="rotate(36.36, 400, 400)" opacity="0.62"></path><path d="M398.9 228.46C407.22 218.89 419.51 215.43 419.53 222.53Q418.85 231.34 417.77 240.14 416.72 248.95 416.17 257.78 416.52 266.64 418.15 275.55 421.34 284.53 426.26 293.58 432.97 302.72 441.39 311.97 451.34 321.33 462.48 330.82 474.43 340.45 486.7 350.23 498.8 360.17 510.21 370.28 520.48 380.57 529.21 391.03 536.12 401.69 541.04 412.53 543.96 423.57 544.98 434.8 544.37 446.22 542.52 457.83 539.9 469.62 537.06 481.6 534.55 493.74 532.95 506.05 532.74 518.51 534.34 531.11 538.04 543.83 543.97 556.67C549.62 565.98 548.24 571.96 540.24 567.83Q530.38 562.99 520.52 558.56 510.65 554.65 500.79 551.38 490.93 548.83 481.06 547.07 471.2 546.16 461.34 546.11 451.47 546.93 441.61 548.6 431.74 551.07 421.88 554.27 412.02 558.11 402.15 562.49 392.29 567.29 382.43 572.38 372.56 577.61 362.7 582.85 352.84 587.94 342.97 592.75 333.11 597.15 323.25 601.01 313.38 604.23 303.52 606.72 293.66 608.41 283.79 609.25 273.93 609.23 264.07 608.34 254.2 606.6 244.34 604.07 234.48 600.82 224.62 596.92C216.62 593.37 209.85 581.99 212.51 576.05Q216.94 567.66 222.33 559.1 228.68 550.36 235.95 541.43 244.02 532.31 252.71 522.99 261.77 513.48 270.95 503.76 279.93 493.84 288.45 483.71 296.22 473.39 303.04 462.88 308.76 452.18 313.28 441.31 316.62 430.26 318.87 419.05 320.21 407.69 320.89 396.19 321.2 384.57 321.5 372.84 322.13 361 323.43 349.09 325.69 337.1 329.17 325.06 334 312.97 340.26 300.87 347.9 288.75 356.78 276.63 366.66 264.53 377.23 252.46 393.5 234.45 398.9 228.46" stroke-dasharray="1 0" transform="rotate(40.400000000000006, 400, 400)" opacity="0.27"></path><path d="M393.76 238.98C401.99 229.98 413.36 226.67 412.84 233.29Q411.18 249.74 410.65 266.2 411.9 274.47 414.43 282.78 418.42 291.14 423.97 299.56 431.04 308.05 439.55 316.63 449.27 325.31 459.92 334.09 471.17 342.99 482.6 352.02 493.82 361.18 504.4 370.48 513.98 379.93 522.23 389.54 528.92 399.32 533.89 409.25 537.11 419.36 538.64 429.64 538.67 440.09 537.46 450.71 535.38 461.5 532.84 472.46 530.3 483.58 528.24 494.86 527.08 506.29 527.22 517.86 528.98 529.57 532.58 541.4C536.37 549.99 533.37 555.68 525.93 552.08Q516.76 547.96 507.59 544.29 498.42 541.17 489.25 538.65 480.08 536.82 470.9 535.7 461.73 535.33 452.56 535.71 443.39 536.84 434.22 538.69 425.05 541.22 415.87 544.36 406.7 548.03 397.53 552.15 388.36 556.63 379.19 561.34 370.01 566.18 360.84 571.03 351.67 575.77 342.5 580.29 333.33 584.47 324.16 588.23 314.98 591.46 305.81 594.09 296.64 596.05 287.47 597.3 278.3 597.81 269.12 597.56 259.95 596.57 250.78 594.84 241.61 592.44 232.43 589.4C224.99 586.54 219.34 576.09 222.4 570.3Q227.41 562.12 233.28 553.77 239.99 545.25 247.45 536.55 255.51 527.68 263.98 518.63 272.65 509.39 281.27 499.98 289.61 490.39 297.41 480.62 304.48 470.69 310.65 460.59 315.8 450.33 319.88 439.93 322.9 429.38 324.96 418.7 326.2 407.9 326.81 396.98 327.07 385.97 327.24 374.86 327.62 363.68 328.5 352.43 330.15 341.12 332.79 329.78 336.58 318.41 341.62 307.02 347.93 295.62 355.45 284.24 364.03 272.87 373.46 261.53 388.62 244.6 393.76 238.98" stroke-dasharray="5 11" transform="rotate(44.44, 400, 400)" opacity="0.22"></path><path d="M388.36 249.49C396.12 241.08 406.58 237.91 405.91 244.07Q405.02 259.36 405.95 274.67 412.1 290.07 422.14 305.6 429.44 313.46 437.88 321.39 447.27 329.39 457.37 337.49 467.88 345.68 478.47 353.97 488.81 362.38 498.58 370.9 507.47 379.55 515.23 388.33 521.66 397.25 526.63 406.31 530.08 415.51 532.06 424.87 532.66 434.37 532.09 444.02 530.61 453.83 528.51 463.79 526.17 473.9 523.95 484.15 522.22 494.55 521.33 505.09 521.59 515.76 523.26 526.56C525.43 534.41 520.97 539.87 514.05 536.85Q505.52 533.49 496.99 530.59 479.94 526.73 462.88 524.68 445.83 525.84 428.78 528.89 420.25 531.42 411.72 534.47 403.19 537.96 394.67 541.82 386.14 545.96 377.61 550.31 369.09 554.77 360.56 559.24 352.03 563.63 343.51 567.85 334.98 571.8 326.45 575.42 317.93 578.61 309.4 581.32 292.35 584.74 275.29 586.31 258.24 584.66 241.19 581.17C234.27 578.99 229.74 569.5 233.22 563.86Q238.73 555.89 244.99 547.77 251.92 539.49 259.41 531.05 267.31 522.44 275.44 513.69 283.61 504.77 291.61 495.7 299.24 486.48 306.31 477.11 312.68 467.6 318.2 457.95 322.81 448.18 326.46 438.28 329.18 428.27 331.05 418.15 332.19 407.93 332.76 397.62 332.97 387.24 333.05 376.78 333.23 366.26 333.78 355.7 334.9 345.09 336.81 334.46 339.66 323.81 343.58 313.14 348.61 302.48 354.77 291.83 361.97 281.19 370.1 270.59 383.67 254.76 388.36 249.49" stroke-dasharray="8 9" transform="rotate(48.48, 400, 400)" opacity="0.62"></path><path d="M383.16 259.99C390.13 252.16 399.7 249.15 399.23 254.85Q399.59 269 402.16 283.15 409.78 297.38 420.75 311.7 428.11 318.94 436.36 326.23 445.34 333.58 454.82 341 464.56 348.5 474.3 356.09 483.79 363.76 492.75 371.54 500.97 379.41 508.22 387.39 514.36 395.49 519.27 403.7 524.62 420.57 526.39 437.81 525.52 446.66 523.97 455.64 521.99 464.76 519.88 474.01 517.92 483.39 516.42 492.9 515.64 502.53 515.84 512.29C516.7 519.38 511.04 524.65 504.61 522.24Q488.76 517.48 472.92 514.66 457.07 513.99 441.23 515.52 425.39 519.14 409.54 524.59 393.7 531.46 377.85 539.27 362.01 547.44 346.16 555.4 330.32 562.55 314.47 568.39 298.63 572.49 282.78 574.56 266.94 574.44 251.09 572.14C244.66 570.62 241.19 562.11 245.04 556.63Q250.94 548.9 257.42 541.03 264.41 533.02 271.76 524.87 279.35 516.58 287.02 508.16 294.59 499.61 301.9 490.93 308.8 482.12 315.14 473.19 320.8 464.15 325.7 454.99 329.78 445.73 333.03 436.38 335.46 426.93 337.15 417.4 338.19 407.8 338.72 398.12 338.9 388.39 338.91 378.6 338.96 368.77 339.23 358.9 339.92 349 341.21 339.09 343.25 329.16 346.16 319.23 350.02 309.3 354.86 299.39 360.67 289.49 367.4 279.62 379.05 264.89 383.16 259.99" stroke-dasharray="6 2" transform="rotate(52.52, 400, 400)" opacity="0.60"></path><path d="M378.59 270.49C384.55 263.24 393.24 260.41 393.21 265.65Q394.75 278.66 399.37 291.66 407.69 304.71 419.75 317.86 434.97 331.15 452.25 344.64 470.11 358.37 486.93 372.38 501.21 386.73 511.82 401.44 518.16 416.54 520.34 432.08 519.11 448.05 515.83 464.48 512.19 481.37 510.02 498.71C509.93 505.06 503.43 510.14 497.47 508.33Q482.77 504.99 468.07 503.38 453.37 503.63 438.67 505.7 423.97 509.47 409.27 514.71 394.57 521.09 379.87 528.23 365.17 535.67 350.47 542.97 335.77 549.67 321.07 555.35 306.37 559.67 291.66 562.36 276.96 563.25 262.26 562.29C256.3 561.39 253.75 553.84 257.85 548.55Q270.5 533.51 284.41 518 298.63 502.04 312.11 485.65 323.86 468.86 333.14 451.7 339.57 434.22 343.24 416.47 344.69 398.48 344.82 380.32 344.84 362.03 345.99 343.67 349.38 325.28 355.81 306.93 365.62 288.65 378.59 270.49 378.59 270.49 378.59 270.49" stroke-dasharray="3 1" transform="rotate(56.56, 400, 400)" opacity="0.87"></path><path d="M375.04 280.97C379.85 274.32 387.72 271.67 388.3 276.44Q391.49 288.32 397.6 300.2 406.87 312.1 419.09 324.07 433.67 336.16 449.65 348.38 465.87 360.8 481.09 373.43 494.19 386.32 504.27 399.5 510.84 413 513.88 426.83 513.83 441.03 511.56 455.6 508.29 470.56 505.39 485.9C504.71 491.52 497.8 496.44 492.29 495.19Q478.69 493.14 465.09 492.59 451.5 493.57 437.9 496.04 424.3 499.87 410.7 504.85 397.1 510.73 383.51 517.2 369.91 523.93 356.31 530.56 342.71 536.77 329.11 542.21 315.51 546.61 301.92 549.74 288.32 551.44 274.72 551.62C269.2 551.26 267.41 544.64 271.62 539.56Q284.12 525.19 297.26 510.45 310.23 495.34 322.21 479.89 332.47 464.14 340.51 448.1 346.1 431.83 349.34 415.35 350.67 398.71 350.78 381.94 350.6 365.09 351.1 348.2 353.21 331.3 357.67 314.44 364.92 297.65 375.04 280.97 375.04 280.97 375.04 280.97" stroke-dasharray="8 5" transform="rotate(60.599999999999994, 400, 400)" opacity="0.67"></path><path d="M372.83 291.45C376.47 285.38 383.57 282.92 384.8 287.25Q389.55 298.01 396.84 308.76 406.67 319.53 418.72 330.34 432.42 341.24 447.01 352.24 461.59 363.38 475.25 374.69 487.16 386.18 496.64 397.9 503.29 409.86 507.01 422.08 508.04 434.59 506.9 447.39 504.4 460.51 501.5 473.95C500.55 478.86 493.67 483.57 488.59 482.85Q476.08 481.92 463.56 482.24 451.05 483.8 438.53 486.53 426.02 490.31 413.5 494.98 400.99 500.34 388.47 506.16 375.96 512.19 363.44 518.17 350.93 523.84 338.41 528.97 325.9 533.33 313.38 536.73 300.86 539.02 288.35 540.12C283.27 540.21 282.03 534.47 286.18 529.66Q298.12 516.09 310.18 502.22 321.72 488.07 332.15 473.67 340.96 459.05 347.82 444.22 352.61 429.22 355.44 414.07 356.65 398.82 356.77 383.48 356.48 368.09 356.52 352.69 357.63 337.29 360.45 321.93 369.13 299.05 372.83 291.45" stroke-dasharray="3 10" transform="rotate(64.64, 400, 400)" opacity="0.17"></path><path d="M372.17 301.92C374.72 296.45 381.08 294.19 382.92 298.07Q388.95 307.72 397.03 317.35 407.02 327 418.57 336.68 431.21 346.41 444.33 356.21 457.28 366.12 469.41 376.14 480.12 386.3 488.92 396.62 495.49 407.12 499.72 417.82 501.68 428.73 501.67 439.87 500.17 451.24 497.82 462.87C496.89 467.11 490.41 471.6 485.77 471.32Q474.34 471.33 462.92 472.33 451.49 474.29 440.07 477.15 428.64 480.8 417.22 485.12 405.79 489.95 394.36 495.13 382.94 500.47 371.51 505.8 360.08 510.93 348.66 515.67 337.23 519.87 325.81 523.37 314.38 526.06 302.95 527.84C298.32 528.28 297.42 523.36 301.34 518.87Q312.32 506.21 323.04 493.34 333.04 480.28 341.9 467.03 349.31 453.62 355.06 440.07 359.11 426.41 361.55 412.65 362.65 398.82 362.79 384.95 362.47 371.05 362.21 357.14 362.59 343.26 364.12 329.41 369.7 308.78 372.17 301.92" stroke-dasharray="5 7" transform="rotate(68.68, 400, 400)" opacity="0.17"></path><path d="M373.18 312.38C374.78 307.5 380.41 305.45 382.74 308.89Q389.65 317.43 398.07 325.97 407.82 334.5 418.58 343.05 429.98 351.64 441.59 360.28 452.93 368.98 463.56 377.77 473.07 386.65 481.12 395.64 487.47 404.76 492 414.02 494.7 423.43 495.72 433 495.32 442.75 493.87 452.68C493.18 456.31 487.39 460.5 483.22 460.58Q472.9 461.32 462.59 462.81 452.28 465.02 441.97 467.88 431.65 471.32 421.34 475.24 411.03 479.54 400.71 484.09 390.4 488.77 380.09 493.45 369.77 498.01 359.46 502.31 349.15 506.25 338.83 509.7 328.52 512.58 318.2 514.81C314.03 515.51 313.27 511.37 316.82 507.22Q326.51 495.62 335.71 483.87 344.1 471.99 351.43 459.98 357.51 447.87 362.23 435.68 365.58 423.41 367.66 411.08 368.65 398.72 368.83 386.33 368.53 373.94 368.12 361.55 368.02 349.19 368.61 336.86 371.71 318.49 373.18 312.38" stroke-dasharray="3 10" transform="rotate(72.72, 400, 400)" opacity="0.23"></path><path d="M375.82 322.84C376.67 318.56 381.62 316.73 384.23 319.73Q391.52 327.18 399.83 334.61 408.97 342.05 418.69 349.49 428.73 356.95 438.78 364.45 448.54 371.99 457.71 379.57 466.03 387.22 473.26 394.95 479.24 402.75 483.85 410.65 488.34 426.83 489.21 443.36C488.86 446.41 483.99 450.28 480.27 450.62Q471.11 451.87 461.95 453.66 452.79 455.96 443.63 458.72 434.47 461.87 425.32 465.37 416.16 469.12 407 473.06 397.84 477.09 388.68 481.14 379.52 485.11 370.36 488.93 361.2 492.52 352.04 495.79 342.88 498.68 333.72 501.13C330 501.99 329.27 498.54 332.31 494.81Q340.47 484.38 348.04 473.87 354.83 463.27 360.7 452.59 365.54 441.86 369.31 431.08 372.03 420.25 373.77 409.4 374.66 398.53 374.87 387.66 374.64 376.78 374.21 365.93 373.85 355.1 373.83 344.3 375.12 328.19 375.82 322.84" stroke-dasharray="2 2" transform="rotate(76.76, 400, 400)" opacity="0.90"></path><path d="M379.95 333.29C380.27 329.61 384.55 328.01 387.22 330.57Q402.14 343.28 418.83 355.97 435.9 368.71 451.86 381.54 465.33 394.51 475.3 407.69 481.28 421.13 483.43 434.86C483.46 437.37 479.6 440.85 476.38 441.36Q460.46 444.82 444.55 449.62 428.64 455.48 412.72 462.02 396.81 468.84 380.9 475.53 364.98 481.67 349.07 486.88C345.84 487.79 345.02 484.97 347.48 481.7Q359.92 463.39 369.68 444.91 376.32 426.29 379.88 407.61 380.91 388.92 380.4 370.27 379.62 351.71 379.95 333.29 379.95 333.29 379.95 333.29" stroke-dasharray="1 7" transform="rotate(80.80000000000001, 400, 400)" opacity="0.48"></path><path d="M385.31 343.72C385.31 340.65 388.92 339.29 391.45 341.41Q404.81 351.96 418.92 362.5 432.93 373.05 445.99 383.64 457.33 394.32 466.34 405.1 472.67 416.02 476.25 427.11C476.61 429.13 473.76 432.15 471.04 432.75Q457.64 436.26 444.23 440.59 430.83 445.57 417.42 450.98 404.02 456.58 390.62 462.13 377.21 467.4 363.8 472.16C361.09 473.04 360.14 470.79 361.99 468.02Q371.22 452.54 378.35 436.97 383.25 421.36 385.99 405.74 386.94 390.13 386.65 374.58 385.58 351.41 385.31 343.72" stroke-dasharray="6 5" transform="rotate(84.84, 400, 400)" opacity="0.46"></path><path d="M391.56 354.16C391.43 351.69 394.35 350.59 396.54 352.28Q407.65 360.69 418.91 369.08 429.88 377.48 440.13 385.89 449.28 394.33 457.01 402.83 463.11 411.38 467.47 420.02C468.07 421.6 466.12 424.1 463.94 424.69Q453.13 427.93 442.33 431.62 431.52 435.66 420.72 439.95 409.91 444.35 399.11 448.76 388.3 453.05 377.49 457.1C375.31 457.88 374.28 456.16 375.56 453.9Q381.85 441.39 386.7 428.86 390.09 416.33 392.12 403.81 392.96 391.32 392.91 378.87 391.93 360.32 391.56 354.16" stroke-dasharray="4 5" transform="rotate(88.88, 400, 400)" opacity="0.48"></path><path d="M398.26 364.58C398.14 362.73 400.37 361.89 402.05 363.14Q418.72 375.7 434.26 388.24 447.34 400.81 457.01 413.48C457.7 414.63 456.53 416.56 454.88 417.08Q438.61 422.66 422.34 428.91 406.08 435.42 389.81 441.81C388.15 442.43 387.16 441.17 387.94 439.47Q394.71 420.62 398.24 401.82 399.09 383.13 398.26 364.58 398.26 364.58 398.26 364.58" stroke-dasharray="5 6" transform="rotate(92.92, 400, 400)" opacity="0.15"></path><path d="M404.97 375C404.92 373.75 406.43 373.18 407.54 374.02Q418.32 382.37 428.38 390.69 437.35 399.01 444.94 407.35C445.54 408.11 444.95 409.43 443.85 409.81Q433.01 413.72 422.17 417.88 411.33 422.15 400.48 426.42C399.39 426.85 398.56 426.02 398.94 424.88Q402.36 412.32 404.36 399.82 405.05 381.18 404.97 375" stroke-dasharray="5 5" transform="rotate(96.96, 400, 400)" opacity="0.11"></path></g></svg>