<svg xmlns="http://www.w3.org/2000/svg" version="1.1" xmlns:xlink="http://www.w3.org/1999/xlink" xmlns:svgjs="http://svgjs.dev/svgjs" viewBox="0 0 800 800"><defs><linearGradient x1="50%" y1="0%" x2="50%" y2="100%" id="ccchaos-grad"><stop stop-color="hsl(161, 100%, 42%)" stop-opacity="1" offset="0%"></stop><stop stop-color="hsl(161, 10%, 40%)" stop-opacity="1" offset="100%"></stop></linearGradient></defs><g stroke-width="2" stroke="url(#ccchaos-grad)" fill="none" stroke-linecap="round"><path d="M403.91 106.88C411.76 93.89 432.15 95.57 438.38 109.79Q438.64 118.79 436.59 127.91 432.94 137.14 428.66 146.49 424.77 155.94 422.28 165.5 422.06 175.16 424.68 184.91 430.4 194.74 439.07 204.64 450.2 214.61 462.96 224.63 476.32 234.69 489.15 244.78 500.37 254.88 509.07 264.99 514.66 275.08 516.91 285.15 516 295.18 512.51 305.15 507.35 315.06 501.66 324.88 496.64 334.61 493.45 344.22 493.03 353.72 496 363.08 502.55 372.3 512.46 381.36 525.05 390.26 539.34 398.99 554.09 407.53 568 415.9 579.86 424.08 588.68 432.06 593.42 447.37 588 462.12 581.31 469.18 574.24 476.06 566.08 489.28 567.44 502.07 574.98 508.25 586.22 514.32 600.35 520.32 616.17 526.25 632.27 532.13 647.17 537.99 659.53 543.83 668.31 549.68 671.24 561.55 663.04 573.62 654.81 579.84 646.43 586.19 637.18 599.45 639.05 613.26 647.71 620.53 660.4 628.03C683.62 639.24 696.7 653.9 682.83 657.5Q665.73 665.17 648.63 675.57 631.53 687.48 614.43 699.54 597.33 710.36 580.23 718.68 563.13 723.54 546.03 724.39 528.93 721.12 511.83 714.12 494.73 704.18 477.63 692.47 460.53 680.32 443.43 669.15 426.33 660.23 409.24 654.62 392.14 652.94 375.04 655.39 357.94 661.69 340.84 671.12 323.74 682.58 306.64 694.76 289.54 706.24 272.44 715.7 255.34 722.04 238.24 724.55 221.14 722.92 204.05 717.35 186.95 708.47 169.85 697.32 152.75 685.18 135.65 673.45C121.78 665.17 108.72 646.87 111.38 637.93Q117.19 626.01 125.57 614.39 131.42 608.69 138.06 603.03 145.2 597.38 152.5 591.71 165.53 580.23 175.85 568.54 180.5 556.3 182.53 543.66 184.06 530.19 187.94 516.16 192.08 508.81 197.68 501.25 204.62 493.49 212.61 485.52 221.2 477.34 229.85 468.97 238.01 460.39 245.15 451.62 250.88 442.66 254.94 433.53 257.3 424.23 258.14 414.77 257.82 405.16 256.87 395.42 255.92 385.55 255.62 375.59 256.53 365.53 259.12 355.39 263.63 345.19 270.06 334.95 278.21 324.68 287.6 314.39 297.64 304.1 307.6 293.82 316.76 283.58 324.47 273.37 330.26 263.23 333.88 253.15 335.34 243.14 334.92 233.23 333.16 223.42 330.77 213.71 328.54 204.11 327.29 194.64 327.71 185.28 330.31 176.06 335.34 166.97 342.75 158 352.19 149.17 363.05 140.46 374.52 131.89 385.73 123.43 399.84 110.99 403.91 106.88" stroke-dasharray="5 6" transform="rotate(0, 400, 400)" opacity="0.60"></path><path d="M399.4 117.18C411.99 104.72 431.59 106.39 432.14 120.06Q429.8 128.72 426.19 137.49 422.16 146.37 418.64 155.36 416.5 164.45 416.47 173.64 419.06 182.92 424.47 192.29 432.6 201.74 443.02 211.26 455.04 220.85 467.76 230.49 480.19 240.18 491.38 249.9 500.47 259.64 506.85 269.4 510.2 279.15 510.55 288.88 508.28 298.59 504.07 308.26 498.82 317.87 493.59 327.42 489.43 336.89 487.31 346.26 487.95 355.54 491.79 364.7 498.89 373.74 508.96 382.64 521.34 391.4 535.1 400 549.16 408.45 562.37 416.73 573.65 424.84 582.16 432.77 587.36 448.01 583.07 462.72 576.98 469.77 570.25 476.64 561.1 489.82 559.86 502.55 565.37 508.68 574.49 514.68 586.67 520.58 601.04 526.39 616.43 532.12 631.55 537.79 645.13 543.41 656.05 549 660.76 568.69 648.57 582.98 635.21 594.98 629.12 607.37 632.49 613.84 640.05 620.49C657.43 630.4 668.97 645.83 655.95 651.04Q639.89 660 623.84 670.84 607.79 682.41 591.74 693.47 575.68 702.84 559.63 709.51 543.58 712.78 527.53 712.3 511.48 708.11 495.42 700.67 479.37 690.77 463.32 679.46 447.27 667.96 431.21 657.5 415.16 649.18 399.11 643.9 383.06 642.23 367 644.34 350.95 650 334.9 658.62 318.84 669.27 302.79 680.81 286.74 692.01 270.69 701.68 254.63 708.78 238.58 712.55 222.53 712.59 206.48 708.9 190.42 701.87 174.37 692.25 158.32 681.07 142.26 669.52C129.24 660.74 116.75 642.23 119.88 634.14Q127.27 623.17 137.4 612.32 143.88 606.92 150.85 601.5 164.62 590.5 176.77 579.28 183.91 567.54 187.8 555.41 188.66 542.51 189.98 529.08 195.82 514.74 205.64 499.81 212.76 492.01 220.76 484.02 229.19 475.84 237.56 467.48 245.36 458.94 252.12 450.22 257.5 441.35 261.3 432.32 263.5 423.15 264.24 413.84 263.89 404.41 262.9 394.87 261.85 385.23 261.31 375.52 261.84 365.73 263.86 355.88 267.65 346 273.29 336.08 280.63 326.16 289.34 316.23 298.9 306.31 308.71 296.42 318.1 286.57 326.43 276.76 333.19 267.02 338.02 257.35 340.77 247.76 341.55 238.26 340.68 228.86 338.7 219.56 336.26 210.37 334.1 201.3 332.94 192.34 333.4 183.51 335.93 174.8 340.74 166.21 347.79 157.74 356.79 149.4 367.19 141.17 378.29 133.07 394.35 121.13 399.4 117.18" stroke-dasharray="4 3" transform="rotate(4.04, 400, 400)" opacity="0.73"></path><path d="M391.9 127.5C407.64 115.55 426.24 117.19 422.69 130.34Q415.4 147.08 410.66 164.22 413.76 181.76 426.89 199.66 448.15 217.87 472.17 236.33 492.28 254.99 503.2 273.75 503.31 292.54 495.43 311.26 485.8 329.82 481.55 348.14 487.81 366.11 505.51 383.66 530.84 400.72 556.71 417.22 575.63 433.1 582.75 448.33 578.01 462.9 566.24 476.8 555.32 490.05 553 502.69 563.65 514.76 586.39 526.35 615.33 537.54 641.83 548.44 658.07 559.15 660.28 569.81 650.4 580.54 635.41 591.47 624.58 602.73 625.67 614.46C635.77 623.25 642.06 639.22 629.85 645.64Q614.81 655.38 599.76 666.21 584.72 677.07 569.68 686.89 554.64 694.71 539.59 699.75 524.55 701.52 509.51 699.84 494.46 694.88 479.42 687.12 464.38 677.34 449.33 666.49 434.29 655.65 419.25 645.87 404.2 638.13 389.16 633.19 374.12 631.53 359.07 633.32 344.03 638.38 328.99 646.21 313.94 656.04 298.9 666.91 283.86 677.74 268.81 687.46 253.77 695.12 238.73 699.97 223.68 701.52 208.64 699.62 193.6 694.46 178.55 686.55 163.51 676.67 148.47 665.79C136.26 656.97 125.17 638.57 129.37 631.1Q138.19 620.8 150.27 610.45 164.03 599.94 176.99 589.12 186.84 577.9 192.38 566.18 194.22 553.86 194.58 540.9 196.52 527.24 202.59 512.87 213.81 497.77 229.02 481.97 245.3 465.49 259.09 448.39 267.67 430.74 270.37 412.61 268.97 394.08 267.09 375.26 268.76 356.24 276.7 337.12 291.15 318.01 309.61 298.98 327.76 280.14 341.22 261.56 347.35 243.3 346.5 225.42 341.93 207.97 338.64 190.97 341.27 174.42 352.21 158.35 370.45 142.71 391.9 127.5 391.9 127.5 391.9 127.5" stroke-dasharray="11 4" transform="rotate(8.08, 400, 400)" opacity="0.14"></path><path d="M382.98 137.81C399.7 126.38 417.17 128 411.81 140.61Q405.95 156.65 405.74 173.07 414.29 189.87 431.44 207.01 453.75 224.45 475.67 242.15 491.64 260.04 498.19 278.05 495.37 296.12 486.78 314.16 478.38 332.1 476.2 349.85 484.08 367.32 502.13 384.44 526.56 401.15 551.06 417.37 569.1 433.04 576.44 448.14 572.84 462.63 562.18 476.5 551.18 489.74 546.84 502.38 553.8 514.45 572.5 526 598.95 537.08 626.06 547.79 646.35 558.21 654.75 568.44 650.6 578.58 638.01 588.76 624.38 599.09 617.69 609.69C620.44 617.55 619.3 633.84 607.83 641.03Q593.69 651.03 579.54 661.44 565.39 671.29 551.25 679.71 537.1 685.93 522.96 689.39 508.81 689.78 494.67 687.05 480.52 681.46 466.37 673.52 452.23 663.93 438.08 653.58 423.94 643.39 409.79 634.29 395.65 627.11 381.5 622.49 367.35 620.85 353.21 622.34 339.06 626.83 324.92 633.9 310.77 642.93 296.62 653.08 282.48 663.45 268.33 673.09 254.19 681.13 240.04 686.85 225.89 689.72 211.75 689.48 197.6 686.17 183.46 680.06 169.31 671.73 155.16 661.92C143.69 653.49 134.69 635.52 140.29 628.45Q150.94 618.56 163.91 608.46 177.18 598.06 188.45 587.24 196.03 575.94 199.57 564.08 200.29 551.61 200.62 538.49 203.31 524.69 210.35 510.23 222.18 495.11 237.35 479.35 253.03 463.02 266.04 446.15 274.03 428.82 276.49 411.1 275.06 393.08 272.94 374.85 273.8 356.49 280.32 338.09 293.1 319.74 310.37 301.52 328.52 283.51 343.45 265.76 352.1 248.34 353.72 231.29 350.24 214.65 345.64 198.43 344.49 182.64 350.22 167.29 363.73 152.35 382.98 137.81 382.98 137.81 382.98 137.81" stroke-dasharray="0 7" transform="rotate(12.12, 400, 400)" opacity="0.26"></path><path d="M374.53 148.12C389.96 137.22 406.27 138.82 401.48 150.87Q399.3 166.21 404.42 181.92 417.74 197.97 437.36 214.35 459.05 231.02 477.76 247.93 489.31 265.05 491.93 282.3 486.91 299.64 478.26 316.98 471.41 334.26 471.27 351.4 480.56 368.33 498.77 384.98 522.25 401.28 545.38 417.17 562.56 432.59 570.08 447.51 567.54 461.88 558.06 475.68 547.24 488.91 541.32 501.55 544.94 513.64 559.56 525.19 582.8 536.25 609.22 546.88 632.13 557.13 645.94 567.1 648.07 576.87 640 586.53 626.78 596.18 615.39 605.92C612.04 613.05 603.03 629.35 592.17 636.89Q578.76 646.7 565.36 656.31 551.96 664.92 538.55 671.83 525.15 676.46 511.75 678.42 498.34 677.56 484.94 673.94 471.54 667.87 458.14 659.84 444.73 650.53 431.33 640.7 417.93 631.17 404.52 622.73 391.12 616.08 377.72 611.77 364.32 610.16 350.91 611.38 337.51 615.33 324.11 621.68 310.7 629.9 297.3 639.33 283.9 649.16 270.5 658.59 257.09 666.84 243.69 673.23 230.29 677.21 216.89 678.47 203.48 676.9 190.08 672.63 176.68 666.01 163.27 657.59C152.41 649.92 145.81 632.66 152.86 625.82Q164.84 616.1 177.89 606.06 189.9 595.62 199.02 584.69 204.31 573.23 206.14 561.2 206.16 548.55 206.81 535.29 210.43 521.4 218.43 506.9 230.75 491.81 245.76 476.18 260.78 460.06 272.98 443.5 280.38 426.56 282.62 409.33 281.17 391.88 278.87 374.29 279 356.63 284.16 338.99 295.24 321.44 311.1 304.04 328.83 286.87 344.75 269.97 355.65 253.39 359.99 237.17 358.46 221.33 353.86 205.9 350.21 190.87 351.32 176.24 359.46 162 374.53 148.12 374.53 148.12 374.53 148.12" stroke-dasharray="0 4" transform="rotate(16.16, 400, 400)" opacity="0.67"></path><path d="M368.31 158.45C380.6 148.05 395.81 149.62 393.6 161.14Q396.42 175.78 406.66 190.76 423.45 206.07 443.76 221.68 463.35 237.57 478.1 253.7 485.29 270.04 484.58 286.52 478.13 303.1 470 319.71 464.92 336.3 466.75 352.81 477.25 369.15 495.46 385.28 517.91 401.13 539.7 416.64 556.02 431.75 563.65 446.44 562.12 460.64 553.84 474.34 543.45 487.51 536.37 500.14 537.1 512.24 547.74 523.82 567.28 534.9 591.86 545.52 615.89 555.73 633.85 565.57 642.05 575.12 639.8 584.46 629.75 593.65 617.09 602.79C609.83 609.38 594.2 625.43 583.8 632.91Q570.98 642.11 558.15 650.63 545.33 657.85 532.51 663.2 519.68 666.28 506.86 666.87 494.04 664.91 481.21 660.56 468.39 654.14 455.57 646.14 442.74 637.16 429.92 627.89 417.1 619.01 404.27 611.22 391.45 605.08 378.63 601.07 365.8 599.49 352.98 600.46 340.16 603.9 327.33 609.56 314.51 617 301.69 625.68 288.86 634.92 276.04 644.03 263.22 652.33 250.39 659.18 237.57 664.07 224.75 666.62 211.93 666.66 199.1 664.16 186.28 659.33 173.46 652.53C163.06 645.91 158.78 629.61 166.94 622.83Q179.46 613.11 191.68 602.98 201.78 592.39 208.52 581.29 211.67 569.64 212.2 557.42 211.99 544.63 213.28 531.27 217.93 517.34 226.83 502.88 239.51 487.91 254.23 472.49 268.52 456.66 279.9 440.48 286.73 424.02 288.76 407.34 287.3 390.51 284.86 373.61 284.36 356.7 288.24 339.84 297.62 323.11 311.88 306.56 328.8 290.24 345.2 274.19 357.96 258.46 364.99 243.07 366 228.04 362.6 213.39 357.91 199.11 355.56 185.2 363.44 165.05 368.31 158.45" stroke-dasharray="4 3" transform="rotate(20.200000000000003, 400, 400)" opacity="0.17"></path><path d="M365.7 168.76C373.72 158.9 387.93 160.42 389.58 171.39Q397.62 185.34 411.93 199.59 430.42 214.15 449.69 229 466.03 244.11 476.46 259.45 479.67 274.99 476.39 290.69 469.27 306.5 462.15 322.37 458.97 338.25 462.63 354.08 474.12 369.8 492.16 385.36 513.54 400.71 534.02 415.78 549.47 430.53 557.18 444.92 556.57 458.9 549.5 472.44 539.74 485.51 531.92 498.1 530.23 510.19 537.16 521.8 552.75 532.91 574.55 543.57 598.24 553.79 618.85 563.61 632.21 573.08 636.16 582.25 631.22 591.18 620.51 599.95C611.91 606.19 592.13 621.71 582.09 628.76Q569.71 637.01 557.33 644.24 544.95 649.95 532.57 653.75 520.19 655.38 507.82 654.73 495.44 651.84 483.06 646.91 470.68 640.28 458.3 632.41 445.93 623.82 433.55 615.12 421.17 606.9 408.79 599.72 396.41 594.08 384.03 590.36 371.65 588.81 359.28 589.55 346.9 592.52 334.52 597.52 322.14 604.21 309.76 612.12 297.38 620.72 285.01 629.41 272.63 637.6 260.25 644.73 247.87 650.31 235.49 653.95 223.11 655.41 210.73 654.59 198.35 651.53 185.98 646.46C175.93 641.1 173.41 625.98 182.09 619.14Q194.17 609.28 204.74 598.98 212.49 588.18 216.83 576.88 218.21 565.05 217.94 552.69 217.93 539.8 220.11 526.41 225.85 512.52 235.55 498.18 248.43 483.42 262.75 468.29 276.25 452.84 286.8 437.13 293.07 421.21 294.89 405.15 293.45 389 290.91 372.84 289.87 356.71 292.58 340.67 300.29 324.78 312.83 309.08 328.58 293.62 344.94 278.43 359.03 263.54 368.51 248.98 372.34 234.76 371.08 220.88 366.79 207.35 362.52 194.17 363.54 175.04 365.7 168.76" stroke-dasharray="11 1" transform="rotate(24.24, 400, 400)" opacity="0.18"></path><path d="M367.33 179.1C370.87 169.73 384.26 171.22 390.08 181.65Q402.51 194.9 419.22 208.43 437.53 222.24 454.28 236.32 466.63 250.64 472.81 265.19 472.65 279.94 467.62 294.84 460.53 309.87 454.8 324.97 453.59 340.11 458.92 355.24 471.16 370.3 488.88 385.25 509.15 400.04 528.32 414.62 542.93 428.95 550.65 442.97 550.89 456.66 545.02 469.98 536.06 482.9 527.89 495.39 524.27 507.44 527.86 519.04 539.48 530.19 557.84 540.89 579.89 551.16 601.51 561.02 618.64 570.49 628.3 579.63 629.4 588.45 623.08 597.03C615.64 603.08 594.77 617.83 585.03 624.16Q573.02 631.2 561 636.99 548.99 641.17 536.97 643.49 524.96 643.79 512.94 642.06 500.93 638.41 488.91 633.06 476.89 626.35 464.88 618.68 452.86 610.54 440.85 602.43 428.83 594.85 416.82 588.27 404.8 583.1 392.79 579.65 380.77 578.15 368.76 578.68 356.74 581.22 344.72 585.6 332.71 591.55 320.69 598.71 308.68 606.63 296.66 614.82 284.65 622.77 272.63 630 260.62 636.05 248.6 640.54 236.58 643.21 224.57 643.89 212.55 642.53 200.54 639.21C190.8 635.23 189.19 621.42 197.62 614.45Q208.28 604.38 216.59 593.86 221.82 582.86 224.04 571.38 224.12 559.41 223.58 546.97 224.17 534.06 227.42 520.72 234.23 506.97 244.58 492.84 257.5 478.39 271.3 463.64 283.95 448.66 293.68 433.49 299.4 418.19 301.03 402.8 299.62 387.39 297.03 372 295.53 356.68 297.18 341.49 303.29 326.46 314.02 311.63 328.31 297.03 344.13 282.7 358.95 268.66 370.45 254.92 377.08 241.5 378.55 228.4 375.91 215.62 371.34 203.15 367.47 185.04 367.33 179.1" stroke-dasharray="5 7" transform="rotate(28.28, 400, 400)" opacity="0.84"></path><path d="M373.03 189.42C372.77 180.58 385.51 182.02 394.86 191.9Q410.07 204.44 427.21 217.25 443.63 230.31 456.8 243.62 464.9 257.16 467.24 270.92 464.5 284.86 458.56 298.96 452.13 313.19 448.07 327.51 448.78 341.89 455.57 356.29 468.35 370.65 485.6 384.95 504.73 399.14 522.62 413.18 536.39 427.02 544.06 440.62 545.06 453.96 540.37 466.98 532.34 479.68 524.17 492.01 519.13 503.96 519.87 515.51 527.67 526.65 542.22 537.38 561.59 547.7 582.66 557.62 601.88 567.15 616.04 576.32 623.07 585.16 622.54 593.69C618.18 599.66 599.2 613.42 589.74 618.81Q578.07 624.47 566.4 628.77 554.73 631.46 543.07 632.39 531.4 631.52 519.73 628.89 508.07 624.64 496.4 619.02 484.73 612.34 473.07 604.96 461.4 597.31 449.73 589.79 438.06 582.84 426.4 576.84 414.73 572.12 403.06 568.94 391.4 567.48 379.73 567.83 368.06 569.96 356.39 573.76 344.73 579.01 333.06 585.42 321.39 592.63 309.73 600.25 298.06 607.85 286.39 615.01 274.72 621.32 263.06 626.45 251.39 630.1 239.72 632.07 228.05 632.25 216.39 630.63C206.92 628.05 205.25 615.64 212.66 608.51Q221.15 598.22 226.88 587.5 229.74 576.33 230.28 564.73 229.66 552.7 229.36 540.26 230.87 527.43 235.29 514.24 243.08 500.73 253.91 486.92 266.7 472.86 279.86 458.59 291.64 444.16 300.55 429.61 305.73 414.98 307.18 400.33 305.81 385.7 303.21 371.12 301.34 356.65 302.06 342.31 306.65 328.15 315.56 314.2 328.16 300.47 342.98 287 357.93 273.8 370.84 260.89 379.96 248.26 384.37 235.93 384.26 223.89 380.89 212.13 374.68 195.03 373.03 189.42" stroke-dasharray="6 4" transform="rotate(32.32, 400, 400)" opacity="0.64"></path><path d="M381.8 199.76C379.09 191.43 391.31 192.83 402.86 202.16Q418.82 214 434.5 226.07 447.71 238.39 456.77 250.93 460.82 263.68 460.02 276.64 455.59 289.77 449.54 303.06 444.26 316.49 442.04 330.01 444.57 343.61 452.58 357.24 465.67 370.88 482.32 384.49 500.27 398.03 516.9 411.47 529.84 424.76 537.42 437.88 539.1 450.79 535.54 463.45 528.54 475.85 520.67 487.94 514.71 499.72 513.11 511.16 517.46 522.24 528.1 532.95 544.06 543.3 563.24 553.27 582.81 562.87 599.8 572.11 611.75 581.01 617.2 589.59C616.97 595.57 602.17 608.21 593.02 612.49Q581.75 616.69 570.48 619.5 559.2 620.79 547.93 620.49 536.66 618.61 525.39 615.26 514.12 610.59 502.85 604.84 491.58 598.3 480.31 591.28 469.04 584.13 457.77 577.22 446.5 570.88 435.23 565.44 423.96 561.14 412.69 558.23 401.42 556.82 390.15 557.01 378.88 558.77 367.61 562.02 356.34 566.6 345.07 572.28 333.8 578.78 322.53 585.77 311.26 592.92 299.99 599.86 288.72 606.25 277.45 611.77 266.18 616.16 254.91 619.18 243.64 620.7 232.37 620.63C223.22 619.41 220.59 608.44 226.37 601.15Q232.25 590.68 235.46 579.81 236.37 568.55 235.85 556.91 235.13 544.92 235.52 532.59 238.17 519.95 243.76 507.03 252.39 493.85 263.51 480.47 276.01 466.9 288.43 453.2 299.29 439.4 307.38 425.53 312.05 411.64 313.33 397.77 312.01 383.95 309.44 370.23 307.29 356.62 307.2 343.16 310.41 329.88 317.52 316.81 328.29 303.96 341.72 291.34 356.19 278.98 369.83 266.88 380.88 255.05 388.07 243.48 390.94 232.18 389.91 221.13 384.02 205.04 381.8 199.76" stroke-dasharray="4 8" transform="rotate(36.36, 400, 400)" opacity="0.08"></path><path d="M392.06 210.09C388.56 202.27 400.31 203.61 412.36 212.4Q427.07 223.54 439.79 234.89 449.05 246.45 454 258.22 454.58 270.19 451.54 282.35 446.34 294.67 440.86 307.15 437.09 319.75 436.75 332.47 440.93 345.27 449.91 358.12 463.08 371 479.02 383.88 495.77 396.73 511.18 409.52 523.29 422.21 530.73 434.78 532.99 447.19 530.5 459.42 524.6 471.44 517.28 483.22 510.85 494.74 507.5 505.99 508.87 516.94 515.75 527.57 527.93 537.88 544.18 547.86 562.51 557.5 580.49 566.82 595.71 575.8 606.25 584.46C610.28 590.5 600.84 601.91 592.1 605.02Q581.32 607.75 570.54 609.16 559.77 609.19 548.99 607.83 538.21 605.14 527.43 601.25 516.65 596.32 505.87 590.57 495.09 584.26 484.31 577.65 473.53 571.05 462.76 564.74 451.98 559 441.2 554.08 430.42 550.19 419.64 547.52 408.86 546.18 398.08 546.22 387.3 547.64 376.53 550.39 365.75 554.33 354.97 559.31 344.19 565.09 333.41 571.42 322.63 578.03 311.85 584.63 301.08 590.92 290.3 596.63 279.52 601.5 268.74 605.33 257.96 607.94 247.18 609.22C238.44 609.24 234.24 599.67 238.09 592.27Q241.35 581.68 242.43 570.76 242.03 559.52 241.14 547.96 240.88 536.13 242.31 524.02 246.2 511.69 252.87 499.15 262.16 486.43 273.35 473.56 285.39 460.58 296.98 447.53 306.91 434.42 314.2 421.31 318.37 408.21 319.49 395.17 318.23 382.2 315.73 369.34 313.38 356.62 312.61 344.05 314.58 331.66 319.97 319.46 328.84 307.48 340.58 295.72 354.04 284.19 367.69 272.9 379.96 261.85 389.44 251.04 395.27 240.47 397.2 230.13 393.91 215.05 392.06 210.09" stroke-dasharray="9 9" transform="rotate(40.400000000000006, 400, 400)" opacity="0.49"></path><path d="M401.93 220.43C399.23 213.12 410.53 214.41 421.39 222.65Q433.23 233.07 442.1 243.7 447.28 254.52 448.61 265.52 446.59 276.7 442.28 288.06 437.14 299.57 432.8 311.23 430.77 323.01 432.25 334.9 437.85 346.89 447.53 358.94 460.58 371.04 475.7 383.16 491.24 395.28 505.44 407.37 516.73 419.4 524 431.36 526.75 443.21 525.25 454.92 520.47 466.49 513.91 477.87 507.43 489.06 502.89 500.02 501.86 510.75 505.37 521.22 513.72 531.42 526.41 541.34 542.22 550.96 559.4 560.3 575.95 569.33 589.91 578.07C597.47 584.18 593.43 594.31 585.18 596.24Q575.01 597.59 564.84 597.73 554.67 596.67 544.51 594.45 534.34 591.15 524.17 586.9 514 581.86 503.83 576.23 493.66 570.23 483.49 564.09 473.32 558.04 463.15 552.32 452.98 547.16 442.81 542.74 432.64 539.25 422.47 536.81 412.3 535.52 402.13 535.44 391.96 536.56 381.79 538.84 371.62 542.19 361.45 546.49 351.28 551.56 341.11 557.21 330.94 563.23 320.77 569.37 310.6 575.41 300.43 581.11 290.26 586.24 280.09 590.61 269.92 594.05 259.75 596.43C251.5 597.52 245.54 589.27 247.48 581.84Q248.51 571.26 248.13 560.41 247.17 549.31 246.56 537.96 247.22 526.41 249.9 514.66 255.03 502.75 262.63 490.7 272.33 478.54 283.39 466.29 294.8 453.98 305.5 441.65 314.47 429.31 320.98 417 324.67 404.74 325.65 392.55 324.46 380.47 322.06 368.5 319.6 356.67 318.28 345 319.17 333.5 322.98 322.18 329.94 311.06 339.8 300.15 351.79 289.45 364.79 278.96 377.47 268.69 388.52 258.63 396.87 248.78 401.86 239.14 402.66 225.06 401.93 220.43" stroke-dasharray="7 0" transform="rotate(44.44, 400, 400)" opacity="0.53"></path><path d="M409.59 230.78C408.87 223.98 419.66 225.21 428.06 232.9Q436.08 242.62 440.91 252.52 442.43 262.59 441 272.82 437.41 283.22 432.79 293.78 428.42 304.48 425.59 315.31 425.39 326.27 428.53 337.33 435.29 348.49 445.41 359.72 458.14 371.01 472.35 382.34 486.67 393.69 499.7 405.04 510.18 416.37 517.21 427.66 520.37 438.88 519.77 450.02 516.09 461.05 510.45 471.95 504.27 482.71 499.08 493.3 496.28 503.71 496.96 513.92 501.74 523.91 510.63 533.68 523.08 543.21 538.01 552.49 553.96 561.52 569.3 570.28C579.07 576.43 579.45 585.28 571.78 586.12Q562.33 586.22 552.88 585.28 543.43 583.34 533.97 580.45 524.52 576.73 515.07 572.29 505.62 567.28 496.17 561.88 486.72 556.25 477.27 550.61 467.82 545.12 458.36 539.99 448.91 535.38 439.46 531.44 430.01 528.32 420.56 526.11 411.11 524.89 401.66 524.7 392.21 525.55 382.76 527.4 373.3 530.21 363.85 533.86 354.4 538.24 344.95 543.21 335.5 548.59 326.05 554.2 316.6 559.85 307.15 565.35 297.7 570.53 288.25 575.19 278.79 579.19 269.34 582.39C261.67 584.33 254.23 577.29 254.62 569.92Q254.15 559.48 253.14 548.85 252.36 538.02 252.59 527.03 254.49 515.89 258.48 504.62 264.72 493.25 273.01 481.8 282.87 470.29 293.57 458.75 304.23 447.19 313.97 435.65 321.99 424.13 327.74 412.67 330.98 401.28 331.81 389.98 330.71 378.79 328.43 367.72 325.93 356.8 324.21 346.02 324.19 335.41 326.56 324.97 331.71 314.72 339.59 304.64 349.8 294.76 361.55 285.06 373.86 275.56 385.59 266.25 395.7 257.12 403.34 248.17 408.8 235.09 409.59 230.78" stroke-dasharray="0 0" transform="rotate(48.48, 400, 400)" opacity="0.07"></path><path d="M413.65 241.13C415.49 234.82 425.66 236 430.93 243.13Q434.99 252.15 436.23 261.33 434.98 270.65 431.85 280.12 427.73 289.74 423.62 299.5 420.55 309.39 419.45 319.4 421.01 329.52 425.59 339.75 433.21 350.07 443.5 360.48 455.74 370.94 468.96 381.46 482.07 392.02 493.95 402.59 503.62 413.17 510.38 423.74 513.84 434.27 514.05 444.76 511.44 455.18 506.81 465.52 501.22 475.76 495.86 485.89 491.92 495.88 490.43 505.73 492.14 515.41 497.39 524.92 506.11 534.25 517.8 543.38 531.56 552.3 546.25 561.01C556.66 567.14 559.77 574.76 552.75 574.62Q535.45 571.85 518.14 565.9 500.84 557.47 483.54 547.52 466.24 537.21 448.94 527.73 431.63 520.16 414.33 515.39 397.03 513.97 379.73 516.05 362.42 521.4 345.12 529.4 327.82 539.13 310.51 549.47 293.21 559.21 275.91 567.24C268.89 569.79 260.59 563.82 260.04 556.63Q258.97 546.49 258.14 536.21 258.18 525.81 259.64 515.3 262.9 504.71 268.12 494.04 275.24 483.32 283.94 472.57 293.69 461.8 303.84 451.04 313.63 440.3 322.36 429.59 329.44 418.94 334.47 408.37 337.27 397.88 337.98 387.48 336.97 377.2 334.84 367.05 332.37 357.03 330.36 347.15 329.61 337.42 330.76 327.85 334.22 318.44 340.15 309.19 348.37 300.12 358.45 291.21 369.68 282.46 381.21 273.89 392.13 265.47 401.59 257.21 411.28 245.11 413.65 241.13" stroke-dasharray="11 3" transform="rotate(52.52, 400, 400)" opacity="0.20"></path><path d="M413.44 251.49C417.75 245.68 427.16 246.79 429.34 253.38Q428.57 270.14 421.97 287.43 415.28 305.23 414.51 323.5 423.39 342.19 441.76 361.23 465.53 380.54 488.19 400.05 503.51 419.64 508.1 439.21 502.91 458.65 493.02 477.86 485.57 496.72 486.95 515.13 500.03 533 522.94 550.24C532.53 556.29 536.46 562.75 530.12 561.81Q514.49 557.56 498.86 550.91 483.23 542.53 467.6 533.23 451.97 523.93 436.34 515.55 420.71 508.92 405.08 504.68 389.45 503.26 373.82 504.79 358.19 509.13 342.55 515.84 326.92 524.27 311.29 533.58 295.66 542.87 280.03 551.2C273.69 554.12 265.4 549.09 264.61 542.17Q263.88 522.71 268.04 502.98 278.84 483.08 295.34 463.14 314.13 443.26 330.67 423.57 341.15 404.15 344.15 385.1 341.28 366.49 336.73 348.38 335.56 330.81 341.63 313.82 355.93 297.4 376.06 281.56 397.06 266.26 413.44 251.49 413.44 251.49 413.44 251.49" stroke-dasharray="0 6" transform="rotate(56.56, 400, 400)" opacity="0.37"></path><path d="M409.09 261.84C415.22 256.55 423.79 257.58 423.5 263.61Q418.96 278.95 412.29 294.74 408.25 310.97 410.85 327.62 421.85 344.64 440.15 361.99 462.03 379.61 482.42 397.44 496.59 415.41 501.88 433.43 498.66 451.43 490.29 469.32 482.03 487.01 479.26 504.41 485.59 521.46 501.51 538.06C509.14 543.92 512.26 549.35 506.59 547.81Q492.61 542.55 478.64 535.6 464.66 527.53 450.68 519.02 436.7 510.77 422.72 503.47 408.74 497.71 394.76 493.98 380.79 492.58 366.81 493.63 352.83 497.05 338.85 502.55 324.87 509.67 310.89 517.83 296.91 526.35 282.93 534.52C277.26 537.57 269.83 533.3 269.47 526.78Q271.08 508.56 278.02 490.24 290.59 471.9 307.11 453.63 324.39 435.52 338.88 417.64 347.81 400.07 350.32 382.87 347.74 366.07 343.29 349.73 340.95 333.87 344.14 318.5 354.42 303.63 370.95 289.25 390.61 275.33 409.09 261.84 409.09 261.84 409.09 261.84" stroke-dasharray="2 7" transform="rotate(60.599999999999994, 400, 400)" opacity="0.38"></path><path d="M401.58 272.2C408.52 267.4 416.19 268.36 414.43 273.84Q408.64 287.76 403.66 302.06 402.86 316.74 408.46 331.76 420.9 347.12 438.61 362.77 458.48 378.69 476.64 394.82 489.64 411.11 495.43 427.51 494 443.95 487.45 460.38 479.42 476.72 474.07 492.91 474.91 508.9 483.71 524.6C488.79 530.17 489.98 534.7 484.94 532.75Q472.52 526.95 460.09 520.06 447.67 512.55 435.24 504.94 422.82 497.74 410.39 491.46 397.97 486.52 385.54 483.26 373.12 481.91 360.69 482.56 348.27 485.16 335.84 489.53 323.42 495.39 310.99 502.31 298.56 509.83 286.14 517.44C281.1 520.43 275.23 516.76 275.75 510.75Q280.26 494.02 289.64 477.3 303.22 460.67 319.09 444.19 334.56 427.92 346.96 411.9 354.44 396.19 356.49 380.82 354.22 365.83 350 351.23 346.9 337.04 347.72 323.27 354.26 309.92 366.67 296.97 383.4 284.4 401.58 272.2 401.58 272.2 401.58 272.2" stroke-dasharray="7 9" transform="rotate(64.64, 400, 400)" opacity="0.44"></path><path d="M392.49 282.58C399.16 278.27 405.91 279.15 403.79 284.08Q398.98 296.59 396.84 309.4 399.31 322.53 407.3 335.95 420.44 349.66 437.12 363.62 454.86 377.82 470.86 392.23 482.65 406.81 488.72 421.52 488.85 436.32 484.26 451.16 477.26 466.01 470.84 480.8 467.89 495.5 470.55 510.06C473.09 515.25 471.92 519.01 467.45 516.87Q456.44 510.95 445.43 504.43 434.42 497.65 423.41 491.01 412.4 484.86 401.39 479.55 390.38 475.37 379.37 472.56 368.35 471.27 357.34 471.58 346.33 473.46 335.32 476.82 324.31 481.46 313.3 487.14 302.29 493.52 291.27 500.26C286.81 503.01 282.83 499.82 284.45 494.39Q291.73 479.34 302.8 464.38 316.54 449.58 331.15 434.95 344.56 420.56 354.91 406.41 361.02 392.56 362.68 379 360.71 365.78 356.86 352.89 353.35 340.34 352.4 328.13 355.69 316.27 363.94 304.73 376.72 293.51 392.49 282.58 392.49 282.58 392.49 282.58" stroke-dasharray="11 8" transform="rotate(68.68, 400, 400)" opacity="0.84"></path><path d="M383.73 292.95C389.26 289.13 395.1 289.93 393.55 294.31Q391.27 305.4 392.36 316.74 397.66 328.33 407.23 340.17 420.36 352.24 435.62 364.53 451.17 377.02 465.06 389.7 475.62 402.54 481.76 415.52 483.2 428.62 480.52 441.79 475.11 455.02 468.89 468.27 463.96 481.5 462.25 494.68C462.7 499.42 459.41 502.53 455.46 500.37Q445.72 494.72 435.98 488.81 426.24 482.9 416.49 477.25 406.75 472.12 397.01 467.71 387.27 464.24 377.52 461.85 367.78 460.64 358.04 460.68 348.29 461.95 338.55 464.41 328.81 467.94 319.06 472.39 309.32 477.56 299.58 483.23C295.63 485.61 293.51 482.82 296.13 478.01Q305.45 464.78 317.22 451.69 330.26 438.76 343.12 426.03 354.33 413.52 362.71 401.23 367.57 389.2 368.86 377.43 367.21 365.93 363.81 354.7 360.22 343.75 358.09 333.07 358.81 322.66 363.31 312.51 377.76 297.78 383.73 292.95" stroke-dasharray="0 10" transform="rotate(72.72, 400, 400)" opacity="0.21"></path><path d="M377.14 303.34C380.99 300 386 300.72 385.58 304.55Q386.46 314.23 390.5 324.11 397.82 334.18 408.09 344.44 420.53 354.89 434.06 365.52 447.39 376.32 459.26 387.28 468.56 398.38 474.57 409.62 476.99 420.97 476.07 432.41 472.51 443.94 467.43 455.52 462.18 467.14 458.15 478.77C457.24 482.96 452.59 485.55 449.1 483.53Q440.51 478.44 431.92 473.33 423.34 468.36 414.75 463.71 406.17 459.54 397.58 455.97 380.41 451.59 363.23 449.87 354.65 450.64 346.06 452.32 337.47 454.85 328.88 458.16 320.3 462.13 311.71 466.63C308.22 468.57 307.59 466.06 310.84 461.94Q321.09 450.6 332.49 439.42 344.08 428.39 354.82 417.54 363.81 406.89 370.34 396.43 374.08 386.18 375.04 376.13 373.69 366.31 370.82 356.69 367.44 347.29 364.68 338.11 363.62 329.12 365.08 320.34 373.35 307.54 377.14 303.34" stroke-dasharray="5 4" transform="rotate(76.76, 400, 400)" opacity="0.17"></path><path d="M374.16 313.72C376.24 310.88 380.48 311.5 381.32 314.78Q391.22 331.48 409.63 348.76 432.41 366.61 453.45 385 467.14 403.87 470.76 423.14 465.66 442.76 456.89 462.6C455.44 466.19 450.36 468.36 447.33 466.6Q432.35 458.08 417.37 450.4 402.39 444.32 387.41 440.43 372.43 439.13 357.45 440.53 342.47 444.51 327.49 450.66C324.45 452.13 324.72 449.88 328.12 446.46Q348.09 427.74 366.11 409.59 377.8 392.05 381.23 375.14 377.84 358.87 372.01 343.23 371.72 320.96 374.16 313.72" stroke-dasharray="3 9" transform="rotate(80.80000000000001, 400, 400)" opacity="0.64"></path><path d="M375.48 324.11C376.12 321.75 379.65 322.28 381.47 325.01Q394.2 338.87 411.6 353.14 430.61 367.83 447.63 382.9 459.49 398.34 464.49 414.12 462.83 430.19 456.69 446.51C455.36 449.46 450.77 451.26 448.18 449.84Q435.4 443.16 422.62 437.33 409.84 432.74 397.07 429.72 384.29 428.46 371.51 429.06 358.73 431.48 345.95 435.54C343.36 436.54 343.89 434.55 346.94 431.81Q363.41 416.81 376.83 402.24 385.07 388.12 387.42 374.46 384.86 361.24 379.87 348.46 375.59 330.1 375.48 324.11" stroke-dasharray="1 1" transform="rotate(84.84, 400, 400)" opacity="0.77"></path><path d="M381.01 334.51C380.75 332.63 383.59 333.06 385.86 335.25Q398.87 346.29 413.73 357.6 428.65 369.18 441.8 381.02 451.63 393.11 457.2 405.45 458.32 418 455.64 430.77C454.85 433.09 451.35 434.56 449.23 433.51Q438.76 428.68 428.28 424.54 417.8 421.27 407.33 419.01 396.85 417.88 386.37 417.91 375.9 419.11 365.42 421.43C363.3 422.02 363.61 420.31 365.97 418.21Q377.87 406.75 386.86 395.58 392.15 384.7 393.61 374.12 391.83 363.82 388.04 353.79 382.43 339.27 381.01 334.51" stroke-dasharray="4 8" transform="rotate(88.88, 400, 400)" opacity="0.59"></path><path d="M389.77 344.92C389.2 343.52 391.38 343.84 393.48 345.48Q415.73 362.12 435.96 379.38 448.89 397.23 452.1 415.66C451.93 417.35 449.75 418.5 448.12 417.81Q432.09 412.01 416.05 408.3 400.02 407.06 383.98 408.4C382.35 408.68 382.25 407.29 383.74 405.79Q396.09 389.63 399.81 374.11 393 352.07 389.77 344.92" stroke-dasharray="1 8" transform="rotate(92.92, 400, 400)" opacity="0.72"></path><path d="M400.2 355.33C399.74 354.39 401.23 354.62 402.74 355.71Q417.33 366.72 430.12 378.01 439.6 389.57 444.91 401.41C445.16 402.49 444.14 403.32 443.04 402.95Q432.22 399.78 421.4 397.6 410.57 396.5 399.75 396.53C398.65 396.6 398.22 395.59 398.91 394.65Q404.43 384.41 406 374.46 402.19 360.05 400.2 355.33" stroke-dasharray="2 10" transform="rotate(96.96, 400, 400)" opacity="0.31"></path></g></svg>