<svg xmlns="http://www.w3.org/2000/svg" version="1.1" xmlns:xlink="http://www.w3.org/1999/xlink" xmlns:svgjs="http://svgjs.dev/svgjs" viewBox="0 0 800 800"><defs><linearGradient x1="50%" y1="0%" x2="50%" y2="100%" id="ccchaos-grad"><stop stop-color="hsl(173.4, 100%, 42%)" stop-opacity="1" offset="0%"></stop><stop stop-color="hsl(173.4, 10%, 42%)" stop-opacity="1" offset="100%"></stop></linearGradient></defs><g stroke-width="2" stroke="url(#ccchaos-grad)" fill="none" stroke-linecap="round"><path d="M119.71 108.08Q129.03 110.96 138.35 113.97 147.68 116.99 157 119.87 166.32 122.48 175.64 124.71 184.97 126.46 194.29 127.65 203.61 128.22 212.93 128.15 222.26 127.44 231.58 126.12 240.9 124.26 250.22 121.93 259.55 119.25 268.87 116.33 278.19 113.3 287.51 110.31 296.84 107.48 306.16 104.94 315.48 102.81 324.8 101.19 334.13 100.15 343.45 99.73 352.77 99.95 362.09 100.81 371.42 102.26 380.74 104.24 390.06 106.66 399.38 109.42 408.71 112.37 418.03 115.41 427.35 118.37 436.67 121.15 446 123.59 455.32 125.61 464.64 127.1 473.96 128 483.29 128.27 492.61 127.89 501.93 126.89 511.25 125.31 520.58 123.21 529.9 120.7 539.22 117.89 548.54 114.9 557.87 111.87 567.19 108.94 576.51 106.23 585.84 103.88 595.16 101.98 604.48 100.62 613.8 99.87 623.13 99.75 632.45 100.28 641.77 101.43 651.09 103.14 660.42 105.34 669.74 107.93 679.06 110.8 688.38 113.81 697.71 116.83 707.03 119.72 716.35 122.35 721.92 131.49 723.87 140.62 721.98 149.75 716.47 158.89 707.87 168.02 697.06 177.15 685.14 186.29 673.3 195.42 662.74 204.55 654.54 213.69 649.51 222.82 648.17 231.96 650.64 241.09 656.69 250.22 665.7 259.36 676.76 268.49 688.76 277.62 700.47 286.76 710.72 295.89 718.47 305.03 722.95 314.16 723.69 323.29 720.62 332.43 714.05 341.56 704.65 350.69 693.36 359.83 681.33 368.96 669.78 378.1 659.86 387.23 652.58 396.36 648.67 405.5 648.54 414.63 652.19 423.76 659.26 432.9 669.02 442.03 680.51 451.16 692.54 460.3 703.92 469.43 713.48 478.57 720.27 487.7 723.59 496.83 723.12 505.97 718.9 515.1 711.35 524.23 701.24 533.37 689.59 542.5 677.58 551.64 666.42 560.77 657.23 569.9 650.95 579.04 648.22 588.17 649.29 597.3 654.08 606.44 662.09 615.57 672.51 624.71 684.3 633.84 696.26 642.97 707.18 652.11 715.96 661.24 721.72 670.37 723.86 679.51 722.18 688.64 708.01 699.05 689.95 693.08 680.73 685.53 671.5 678 662.28 670.82 653.06 664.33 643.84 658.82 634.62 654.54 625.4 651.67 616.18 650.35 606.95 650.64 597.73 652.53 588.51 655.92 579.29 660.67 570.07 666.57 560.85 673.34 551.62 680.68 542.4 688.26 533.18 695.74 523.96 702.78 514.74 709.06 505.52 714.3 496.29 718.27 487.07 720.77 477.85 721.71 468.63 721.04 459.41 718.79 450.19 715.06 440.97 710.02 431.74 703.89 422.52 696.96 413.3 689.53 404.08 681.94 394.86 674.53 385.64 667.65 376.41 661.59 367.19 656.63 357.97 652.99 348.75 650.85 339.53 650.29 330.31 651.34 321.08 653.95 311.86 658.01 302.64 663.34 293.42 669.68 284.2 676.76 274.98 684.26 265.76 691.83 256.53 699.14 247.31 705.86 238.09 711.69 228.87 716.35 219.65 719.64 210.43 721.42 201.2 721.6 191.98 720.17 182.76 717.2 173.54 712.82 164.32 707.23 155.1 700.69 145.87 693.48 136.65 685.93 127.43 678.39 118.21 671.19 119.8 662.39 120.8 653.59 121.12 644.79 120.72 636 119.63 627.2 117.98 618.4 115.93 609.6 113.68 600.8 111.46 592 109.5 583.2 107.99 574.41 107.09 565.61 106.88 556.81 107.4 548.01 108.58 539.21 110.31 530.41 112.41 521.61 114.67 512.81 116.86 504.02 118.77 495.22 120.19 486.42 120.98 477.62 121.07 468.82 120.45 460.02 119.17 451.22 117.37 442.43 115.23 433.63 112.96 424.83 110.8 416.03 108.96 407.23 107.63 398.43 106.95 389.63 106.97 380.84 107.71 372.04 109.08 363.24 110.94 354.44 113.12 345.64 115.38 336.84 117.51 328.04 119.27 319.25 120.51 310.45 121.09 301.65 120.95 292.85 120.11 284.05 118.65 275.25 116.72 266.45 114.51 257.66 112.26 248.86 110.18 240.06 108.48 231.26 107.34 222.46 106.88 213.66 107.13 204.86 108.07 196.07 109.62 187.27 111.61 178.47 113.83 169.67 116.08 160.87 118.11 152.07 119.73 143.27 120.77 134.47 121.12 125.68 120.76 116.88 119.71 108.08" stroke-dasharray="4 8" transform="rotate(0, 400, 400)" opacity="0.05"></path><path d="M132.48 122.58Q150.56 128.54 168.64 133.92 186.73 137.82 204.81 139.61 222.89 138.98 240.98 136.05 259.06 131.28 277.14 125.48 295.22 119.6 313.31 114.61 331.39 111.34 349.47 110.32 367.56 111.72 385.64 115.32 403.72 120.51 421.81 126.45 439.89 132.14 457.97 136.66 476.06 139.25 494.14 139.48 512.22 137.33 530.3 133.13 548.39 127.6 566.47 121.63 584.55 116.22 602.64 112.26 620.72 110.4 638.8 110.95 656.89 113.82 674.97 118.54 693.05 124.32 711.13 130.22 709.81 147.63 695.77 165.05 674.15 182.47 652.84 199.88 639.61 217.3 639.31 234.72 652.03 252.13 673.14 269.55 694.93 286.97 709.44 304.38 711.37 321.8 700.02 339.22 679.54 356.63 657.39 374.05 641.68 391.47 638.12 408.88 648.03 426.3 667.79 443.72 690.17 461.13 707.02 478.55 712.17 495.97 703.75 513.38 684.83 530.8 662.32 548.22 644.44 565.63 637.71 583.05 644.6 600.47 662.58 617.88 685.1 635.3 703.93 652.72 700.54 671.76 670.92 659.48 652.94 648.14 634.96 641.23 616.98 639.9 599.01 644.37 581.03 653.89 563.05 666.9 545.07 681.25 527.1 694.56 509.12 704.64 491.14 709.83 473.17 709.26 455.19 703.04 437.21 692.18 419.23 678.49 401.26 664.22 383.28 651.73 365.3 643.08 347.32 639.7 329.35 642.15 311.37 650.03 293.39 662.03 275.41 676.17 257.44 690.11 239.46 701.56 221.48 708.63 203.5 710.13 185.53 705.84 167.55 696.45 149.57 683.52 131.59 669.18 132.7 652.1 130.98 635.02 127.09 617.94 122.43 600.86 118.7 583.77 117.28 566.69 118.67 549.61 122.37 532.53 127.03 515.45 130.95 498.37 132.69 481.29 131.62 464.2 128.14 447.12 123.5 430.04 119.41 412.96 117.36 395.88 118.1 378.8 121.35 361.72 125.94 344.63 130.18 327.55 132.53 310.47 132.13 293.39 129.12 276.31 124.61 259.23 120.24 242.15 117.61 225.06 117.67 207.98 120.41 190.9 124.82 173.82 129.3 156.74 132.2 139.66 132.48 122.58" stroke-dasharray="7 0" transform="rotate(4.04, 400, 400)" opacity="0.09"></path><path d="M144.22 137.45Q161.6 143.09 178.97 147.65 196.35 150.44 213.73 151.02 231.11 149.32 248.48 145.58 265.86 140.39 283.24 134.52 300.62 128.88 317.99 124.32 335.37 121.54 352.75 120.97 370.13 122.68 387.5 126.42 404.88 131.62 422.26 137.49 439.64 143.13 457.01 147.68 474.39 150.45 491.77 151.02 509.15 149.3 526.53 145.55 543.9 140.35 561.28 134.48 578.66 128.85 596.04 124.3 613.41 121.53 630.79 120.97 648.17 122.7 665.55 126.45 682.92 131.66 700.3 137.53 691.24 154.09 672.98 170.65 651.7 187.21 634.56 203.78 627.35 220.34 632.5 236.9 648.28 253.47 669.36 270.03 688.62 286.59 699.58 303.15 698.54 319.72 685.84 336.28 665.77 352.84 645.11 369.4 630.81 385.97 627.71 402.53 636.85 419.09 655.14 435.66 676.42 452.22 693.51 468.78 700.65 485.34 695.41 501.91 679.58 518.47 658.5 535.03 639.26 551.59 628.37 568.16 629.5 584.72 642.26 601.28 662.35 617.85 683 634.41 690.06 652.47 665.51 641.94 648.13 633.26 630.75 629.27 613.38 630.57 596 636.96 578.62 647.47 561.25 660.5 543.87 674.06 526.49 686.09 509.12 694.75 491.74 698.72 474.36 697.41 456.99 691 439.61 680.48 422.23 667.45 404.86 653.89 387.48 641.87 370.1 633.22 352.73 629.26 335.35 630.6 317.97 637.02 300.6 647.55 283.22 660.59 265.84 674.14 248.47 686.15 231.09 694.79 213.72 698.73 196.34 697.38 178.96 690.94 161.59 680.4 144.21 667.36 143.52 650.8 140.3 634.24 135.62 617.68 131.07 601.12 128.18 584.56 127.93 568 130.39 551.44 134.75 534.88 139.53 518.32 143.11 501.76 144.3 485.2 142.68 468.64 138.81 452.08 133.99 435.52 129.85 418.96 127.78 402.4 128.48 385.84 131.72 369.28 136.4 352.72 140.94 336.17 143.82 319.61 144.06 303.05 141.57 286.49 137.21 269.93 132.44 253.37 128.86 236.81 127.7 220.25 129.33 203.69 133.21 187.13 138.03 170.57 142.16 154.01 144.22 137.45" stroke-dasharray="1 6" transform="rotate(8.08, 400, 400)" opacity="0.13"></path><path d="M154.64 152.44Q171.18 157.4 187.73 160.9 204.27 162.45 220.81 161.84 237.35 159.15 253.9 154.76 270.44 149.28 286.98 143.48 303.52 138.17 320.07 134.1 336.61 131.83 353.15 131.69 369.69 133.69 386.24 137.56 402.78 142.75 419.32 148.53 435.86 154.1 452.41 158.67 468.95 161.61 485.49 162.5 502.03 161.22 518.58 157.94 535.12 153.14 551.66 147.47 568.2 141.74 584.75 136.74 601.29 133.18 617.83 131.55 634.37 132.09 650.92 134.72 667.46 139.06 684 144.52 669.29 160.24 649.52 175.95 630.83 191.67 619.02 207.39 617.76 223.11 627.44 238.83 645.06 254.54 665.14 270.26 681.45 285.98 688.92 301.7 685.24 317.41 671.54 333.13 652.09 348.85 632.91 364.57 619.98 380.29 617.29 396 625.7 411.72 642.58 427.44 662.69 443.16 679.8 458.87 688.58 474.59 686.31 490.31 673.7 506.03 654.65 521.75 635.1 537.46 621.1 553.18 617 568.9 624.09 584.62 640.15 600.34 660.2 616.05 674.71 633.56 654.78 625.7 638.14 619.86 621.5 618.66 604.86 622.28 588.23 630.19 571.59 641.3 554.95 654.05 538.31 666.65 521.68 677.34 505.04 684.61 488.4 687.46 471.76 685.48 455.12 678.95 438.49 668.78 421.85 656.4 405.21 643.55 388.57 632.02 371.93 623.42 355.3 618.97 338.66 619.28 322.02 624.32 305.38 633.37 288.74 645.18 272.11 658.07 255.47 670.26 238.83 680.03 222.19 686.01 205.55 687.36 188.92 683.91 172.28 676.12 155.64 665.09 153.16 649.07 148.77 633.05 143.83 617.03 139.87 601.01 138.12 584.99 139.13 568.97 142.58 552.95 147.4 536.93 152.1 520.91 155.21 504.89 155.77 488.87 153.6 472.85 149.39 456.83 144.43 440.81 140.26 424.79 138.19 408.76 138.85 392.74 142.04 376.72 146.77 360.7 151.57 344.68 154.95 328.66 155.85 312.64 154.01 296.62 149.99 280.6 145.04 264.58 140.69 248.56 138.31 232.54 138.62 216.52 141.53 200.5 146.14 184.48 151.01 168.46 154.64 152.44" stroke-dasharray="1 8" transform="rotate(12.12, 400, 400)" opacity="0.16"></path><path d="M163.67 167.25Q179.28 171.22 194.89 173.5 210.5 173.79 226.11 172.05 241.72 168.5 257.33 163.61 272.94 158 288.55 152.39 304.16 147.5 319.77 143.95 335.38 142.21 350.99 142.49 366.61 144.76 382.22 148.73 397.83 153.88 413.44 159.57 429.05 165.05 444.66 169.63 460.27 172.72 475.88 173.91 491.49 173.07 507.1 170.29 522.71 165.93 538.32 160.56 553.93 154.85 569.54 149.55 585.16 145.34 600.77 142.74 616.38 142.11 631.99 143.51 647.6 146.77 663.21 151.47 645.55 166.36 626.87 181.25 612.5 196.15 606.53 211.04 610.66 225.93 623.71 240.82 641.97 255.72 660.24 270.61 673.31 285.5 677.46 300.39 671.51 315.29 657.16 330.18 638.49 345.07 620.82 359.96 609.18 374.86 606.88 389.75 614.58 404.64 630.09 419.53 648.99 434.43 665.9 449.32 676 464.21 676.42 479.11 667.03 494 650.52 508.89 631.58 523.78 615.6 538.68 607.14 553.57 608.61 568.46 619.58 583.35 636.94 598.25 639.28 611.78 607.49 609.36 591.71 614.91 575.93 623.93 560.15 635.28 544.37 647.48 528.59 658.98 512.81 668.3 497.03 674.24 481.25 676.05 465.47 673.49 449.69 666.89 433.91 657.1 418.13 645.36 402.35 633.2 386.57 622.16 370.79 613.67 355.01 608.81 339.23 608.21 323.45 611.94 307.67 619.53 291.89 630 276.11 642.01 260.33 654.02 244.55 664.48 228.77 672.06 212.99 675.78 197.21 675.17 181.43 670.3 165.65 661.8 161.67 646.35 156.64 630.89 152 615.44 149.07 599.98 148.68 584.53 150.94 569.07 155.21 553.62 160.27 538.16 164.69 522.71 167.2 507.26 167.09 491.8 164.38 476.35 159.86 460.89 154.81 445.44 150.67 429.98 148.61 414.53 149.22 399.07 152.33 383.62 157.06 368.16 162.05 352.71 165.89 337.25 167.48 321.8 166.37 306.34 162.87 290.89 157.99 275.43 153.11 259.98 149.62 244.53 148.51 229.07 150.11 213.62 153.95 198.16 158.94 182.71 163.67 167.25" stroke-dasharray="10 9" transform="rotate(16.16, 400, 400)" opacity="0.20"></path><path d="M171.47 181.61Q186.09 184.37 200.72 185.33 215.35 184.38 229.98 181.63 244.6 177.4 259.23 172.19 273.86 166.6 288.49 161.3 303.11 156.89 317.74 153.9 332.37 152.68 347 153.36 361.62 155.88 376.25 159.93 390.88 165.04 405.51 170.61 420.13 175.99 434.76 180.56 449.39 183.77 464.02 185.26 478.64 184.84 493.27 182.56 507.9 178.7 522.53 173.71 537.15 168.16 551.78 162.71 566.41 157.99 581.04 154.57 595.67 152.83 610.29 152.98 623.33 163.89 606.35 186.86 597.36 200.96 597.11 215.05 605.68 229.15 620.83 243.24 638.63 257.34 654.43 271.43 664.15 285.53 665.24 299.62 657.43 313.72 642.74 327.81 625 341.91 608.82 356 598.4 370.1 596.46 384.19 603.5 398.29 617.69 412.39 635.34 426.48 651.85 440.58 662.95 454.67 665.73 468.77 659.49 482.86 645.83 496.96 628.32 511.05 611.5 525.15 599.75 539.24 596.13 553.34 601.57 567.43 614.66 581.53 618.84 598.29 589.73 601.27 574.89 608.33 560.05 618.04 545.21 629.27 530.37 640.7 515.53 651 500.69 658.95 485.85 663.64 471.01 664.5 456.17 661.44 441.33 654.82 426.49 645.42 411.65 634.32 396.81 622.84 381.97 612.31 367.13 603.97 352.29 598.78 337.45 597.37 322.61 599.89 307.77 606.06 292.93 615.13 278.1 626.07 263.26 637.58 248.42 648.32 233.58 657.03 218.74 662.7 203.9 664.66 189.06 662.68 174.22 656.99 169.29 642.13 164.28 627.28 160.5 612.42 158.93 597.57 159.97 582.71 163.36 567.85 168.22 553 173.28 538.14 177.22 523.29 179.03 508.43 178.22 493.58 175.02 478.72 170.25 463.87 165.15 449.01 161.05 434.15 159.02 419.3 159.58 404.44 162.59 389.59 167.26 374.73 172.39 359.88 176.63 345.02 178.88 330.17 178.57 315.31 175.76 300.45 171.2 285.6 166.06 270.74 161.68 255.89 159.21 241.03 159.28 226.18 161.88 211.32 166.32 196.47 171.47 181.61" stroke-dasharray="2 5" transform="rotate(20.200000000000003, 400, 400)" opacity="0.24"></path><path d="M178.45 195.24Q192.09 196.66 205.73 196.31 219.38 194.23 233.02 190.63 246.66 185.9 260.31 180.55 273.95 175.14 287.59 170.24 301.23 166.38 314.88 163.97 328.52 163.25 342.16 164.32 355.81 167.05 369.45 171.16 383.09 176.2 396.74 181.65 410.38 186.92 424.02 191.46 437.66 194.78 451.31 196.53 464.95 196.52 478.59 194.75 492.24 191.42 505.88 186.88 519.52 181.6 533.16 176.16 546.81 171.12 560.45 167.02 574.09 164.3 587.74 163.25 600.49 171.86 588.99 193.07 585.71 206.4 590.53 219.74 602.32 233.07 618.29 246.4 634.66 259.73 647.56 273.06 653.95 286.39 652.31 299.73 643.04 313.06 628.32 326.39 611.63 339.72 596.92 353.05 587.66 366.39 586.05 379.72 592.46 393.05 605.37 406.38 621.74 419.71 637.7 433.04 649.48 446.38 654.28 459.71 650.99 473.04 640.36 486.37 624.93 499.7 608.33 513.03 594.48 526.37 586.67 539.7 586.73 553.03 594.66 566.36 609.94 583.95 597.46 586.76 583.6 588.85 569.74 594.24 555.87 602.37 542.01 612.37 528.15 623.19 514.29 633.66 500.43 642.68 486.57 649.29 472.7 652.79 458.84 652.81 444.98 649.34 431.12 642.75 417.26 633.75 403.4 623.28 389.53 612.47 375.67 602.45 361.81 594.3 347.95 588.88 334.09 586.76 320.23 588.18 306.36 592.97 292.5 600.63 278.64 610.35 264.78 621.1 250.92 631.73 237.06 641.11 223.19 648.25 209.33 652.38 195.47 653.08 181.61 650.26 176.44 636.04 172.11 621.83 169.65 607.61 169.63 593.39 172.06 579.17 176.37 564.95 181.53 550.73 186.33 536.51 189.63 522.29 190.66 508.07 189.16 493.85 185.5 479.63 180.54 465.41 175.45 451.19 171.43 436.97 169.44 422.75 169.94 408.53 172.82 394.31 177.39 380.1 182.58 365.88 187.16 351.66 190.05 337.44 190.55 323.22 188.57 309 184.55 294.78 179.46 280.56 174.5 266.34 170.83 252.12 169.33 237.9 170.35 223.68 173.65 209.46 178.45 195.24" stroke-dasharray="5 5" transform="rotate(24.24, 400, 400)" opacity="0.28"></path><path d="M185.22 207.93Q197.92 207.97 210.62 206.39 223.33 203.34 236.03 199.1 248.73 194.08 261.44 188.76 274.14 183.66 286.84 179.26 299.54 175.99 312.25 174.16 324.95 173.95 337.65 175.36 350.35 178.28 363.06 182.42 375.76 187.38 388.46 192.69 401.16 197.84 413.87 202.33 426.57 205.73 439.27 207.71 451.97 208.1 464.68 206.84 477.38 204.06 490.08 200.03 502.78 195.13 515.49 189.84 528.19 184.65 540.89 180.08 553.59 176.55 566.3 174.41 579.76 180.7 575.43 200.16 577.51 212.76 586.32 225.37 599.97 237.97 615.56 250.58 629.74 263.18 639.49 275.79 642.72 288.39 638.74 301 628.41 313.6 613.93 326.2 598.39 338.81 585.12 351.41 576.95 364.02 575.63 376.62 581.44 389.23 593.14 401.83 608.23 414.44 623.48 427.04 635.63 439.65 642.1 452.25 641.48 464.85 633.93 477.46 621.04 490.06 605.58 502.67 590.85 515.27 580 527.88 575.34 540.48 577.88 553.09 587.55 570.95 575.15 577.25 562.25 581.35 549.36 588.1 536.46 596.86 523.57 606.78 510.68 616.91 497.78 626.28 484.89 634 471.99 639.31 459.1 641.72 446.2 640.98 433.31 637.18 420.41 630.67 407.52 622.09 394.62 612.24 381.73 602.09 368.83 592.59 355.94 584.67 343.04 579.09 330.15 576.37 317.25 576.79 304.36 580.29 291.46 586.55 278.57 594.96 265.67 604.72 252.78 614.89 239.88 624.49 226.99 632.61 214.09 638.46 201.2 641.48 188.3 641.39 183.67 627.84 180.6 614.3 179.76 600.75 181.31 587.2 184.94 573.66 189.86 560.11 195.02 546.57 199.32 533.02 201.85 519.48 202.05 505.93 199.89 492.38 195.83 478.84 190.74 465.29 185.7 451.75 181.79 438.2 179.85 424.66 180.29 411.11 183.02 397.56 187.45 384.02 192.64 370.47 197.48 356.93 200.93 343.38 202.26 329.84 201.18 316.29 197.92 302.75 193.19 289.2 187.98 275.65 183.42 262.11 180.48 248.56 179.78 235.02 181.49 221.47 185.22 207.93" stroke-dasharray="1 3" transform="rotate(28.28, 400, 400)" opacity="0.32"></path><path d="M192.48 219.49Q204.32 218.24 216.16 215.59 228.01 211.77 239.85 207.11 251.69 202 263.53 196.9 275.37 192.23 287.21 188.41 299.05 185.76 310.9 184.5 322.74 184.76 334.58 186.5 346.42 189.57 358.26 193.72 370.1 198.58 381.94 203.73 393.79 208.74 405.63 213.16 417.47 216.62 429.31 218.82 441.15 219.57 452.99 218.81 464.83 216.59 476.67 213.12 488.52 208.69 500.36 203.68 512.2 198.53 524.04 193.67 535.88 189.54 547.72 186.47 562.53 190.59 565.84 208.34 572.35 220.25 583.8 232.16 597.97 244.08 612.15 255.99 623.61 267.9 630.14 279.82 630.5 291.73 624.61 303.64 613.61 315.56 599.6 327.47 585.29 339.38 573.42 351.3 566.27 363.21 565.22 375.12 570.46 387.04 581 398.95 594.81 410.86 609.22 422.78 621.48 434.69 629.23 446.6 630.97 458.52 626.38 470.43 616.33 482.34 602.76 494.26 588.27 506.17 575.65 518.08 567.33 530 564.9 541.91 567.6 560 554.4 569.36 542.42 575.01 530.44 582.64 518.46 591.6 506.48 601.11 494.5 610.35 482.51 618.52 470.53 624.92 458.55 629.01 446.57 630.42 434.59 629.04 422.61 624.98 410.63 618.59 398.65 610.43 386.67 601.2 374.69 591.69 362.7 582.73 350.72 575.08 338.74 569.4 326.76 566.19 314.78 565.73 302.8 568.04 290.82 572.93 278.84 579.99 266.86 588.59 254.88 598.01 242.89 607.43 230.91 616.03 218.93 623.08 199.26 622.7 190.15 604.59 191.02 591.76 194 578.92 198.52 566.08 203.7 553.25 208.55 540.41 212.15 527.57 213.79 514.74 213.17 501.9 210.4 489.06 206.01 476.22 200.85 463.39 195.92 450.55 192.15 437.71 190.27 424.88 190.64 412.04 193.2 399.2 197.45 386.37 202.57 373.53 207.58 360.69 211.52 347.86 213.62 335.02 213.5 322.18 211.16 309.35 207.06 296.51 201.99 283.67 196.92 270.83 192.82 258 190.49 245.16 190.37 232.32 192.48 219.49" stroke-dasharray="11 8" transform="rotate(32.32, 400, 400)" opacity="0.35"></path><path d="M200.92 229.84Q212 227.45 223.08 223.96 234.16 219.62 245.24 214.77 256.32 209.78 267.39 205.04 278.47 200.92 289.55 197.72 300.63 195.7 311.71 195.01 322.79 195.7 333.86 197.72 344.94 200.92 356.02 205.05 367.1 209.79 378.18 214.77 389.26 219.62 400.33 223.96 411.41 227.46 422.49 229.84 433.57 230.92 444.65 230.63 455.73 228.98 466.8 226.1 477.88 222.21 488.96 217.62 500.04 212.66 511.12 207.74 522.2 203.21 533.27 199.44 549.63 201.6 559.91 217.75 569.56 229 582.2 240.26 595.66 251.51 607.64 262.77 616.07 274.02 619.51 285.28 617.36 296.53 610.01 307.79 598.7 319.04 585.38 330.3 572.34 341.55 561.81 352.81 555.61 364.06 554.8 375.32 559.52 386.57 568.95 397.83 581.49 409.08 594.97 420.34 607.08 431.59 615.74 442.85 619.46 454.1 617.61 465.36 610.51 476.61 599.36 487.87 586.09 499.12 572.98 510.38 562.27 521.63 555.81 532.89 554.7 544.14 559.14 555.4 547.99 558.02 536.84 562.88 525.69 569.59 514.54 577.63 503.39 586.4 492.24 595.22 481.09 603.4 469.94 610.32 458.79 615.45 447.64 618.38 436.49 618.9 425.34 616.97 414.19 612.73 403.04 606.51 391.89 598.79 380.74 590.16 369.59 581.29 358.44 572.85 347.29 565.51 336.14 559.82 324.99 556.22 313.84 554.98 302.69 556.21 291.54 559.81 280.39 565.5 269.24 572.84 258.09 581.28 246.94 590.15 235.79 598.78 224.64 606.5 207.07 608.8 201.07 592.77 203.54 580.67 207.64 568.57 212.65 556.48 217.72 544.38 221.99 532.28 224.7 520.18 225.41 508.09 223.99 495.99 220.67 483.89 216.04 471.79 210.89 459.69 206.1 447.6 202.49 435.5 200.68 423.4 200.99 411.3 203.36 399.21 207.39 387.11 212.38 375.01 217.47 362.91 221.8 350.81 224.61 338.72 225.43 326.62 224.11 314.52 220.89 302.42 216.31 290.32 211.16 278.23 206.33 266.13 202.64 254.03 200.73 241.93 200.92 229.84" stroke-dasharray="4 7" transform="rotate(36.36, 400, 400)" opacity="0.39"></path><path d="M211.09 238.96Q221.51 235.68 231.92 231.6 242.34 227 252.75 222.2 263.17 217.52 273.58 213.28 284 209.77 294.41 207.24 304.83 205.84 315.24 205.68 325.66 206.78 336.07 209.04 346.49 212.33 356.9 216.41 367.32 221.01 377.73 225.81 388.15 230.49 398.56 234.73 408.98 238.23 419.39 240.76 429.81 242.15 440.22 242.3 450.64 241.21 461.05 238.93 471.47 235.64 481.88 231.56 492.3 226.96 502.71 222.15 513.13 217.48 523.55 213.24 533.96 209.74 544.38 207.22 548.56 217.84 556.93 228.46 568.21 239.09 580.67 249.71 592.41 260.34 601.66 270.96 607 281.58 607.61 292.21 603.41 302.83 595.02 313.45 583.75 324.08 571.28 334.7 559.54 345.33 550.31 355.95 544.98 366.57 544.39 377.2 548.61 387.82 557 398.44 568.28 409.07 580.75 419.69 592.48 430.32 601.71 440.94 607.02 451.56 607.6 462.19 603.36 472.81 594.96 483.44 583.67 494.06 571.2 504.68 559.47 515.31 550.26 525.93 544.96 536.55 544.4 547.18 533.98 551.52 523.57 557.53 513.15 564.8 502.74 572.83 492.32 581.08 481.91 588.98 471.49 596 461.08 601.65 450.66 605.55 440.24 607.44 429.83 607.18 419.41 604.79 409 600.45 398.58 594.43 388.17 587.15 377.75 579.12 367.34 570.87 356.92 562.97 346.5 555.96 336.09 550.32 325.67 546.42 315.26 544.55 304.84 544.82 294.43 547.21 284.01 551.57 273.6 557.59 263.18 564.87 252.77 572.91 242.35 581.16 231.93 589.05 216.84 580.45 222.04 556.35 227.13 545.02 231.73 533.68 235.16 522.35 236.89 511.01 236.65 499.68 234.49 488.34 230.72 477.01 225.93 465.67 220.85 454.33 216.24 443 212.82 431.66 211.1 420.33 211.34 408.99 213.51 397.66 217.28 386.32 222.07 374.99 227.16 363.65 231.76 352.32 235.18 340.98 236.89 329.64 236.64 318.31 234.47 306.97 230.69 295.64 225.9 284.3 220.82 272.97 216.22 261.63 212.8 250.3 211.09 238.96" stroke-dasharray="10 7" transform="rotate(40.400000000000006, 400, 400)" opacity="0.43"></path><path d="M223.3 246.94Q233.13 243.05 242.97 238.67 252.81 234.08 262.64 229.54 272.48 225.33 282.32 221.69 292.15 218.86 301.99 216.99 311.83 216.21 321.66 216.54 331.5 217.99 341.34 220.46 351.17 223.8 361.01 227.81 370.85 232.25 380.68 236.85 390.52 241.35 400.36 245.46 410.19 248.95 420.03 251.6 429.87 253.25 439.7 253.81 449.54 253.24 459.38 251.57 469.21 248.91 479.05 245.42 488.89 241.3 498.72 236.8 508.56 232.19 518.4 227.76 528.23 223.75 538.07 220.42 545.67 230.44 555.87 240.45 567.28 250.46 578.39 260.48 587.71 270.49 593.97 280.5 596.35 290.51 594.53 300.53 588.74 310.54 579.77 320.55 568.82 330.57 557.35 340.58 546.91 350.59 538.9 360.61 534.38 370.62 533.97 380.63 537.72 390.64 545.13 400.66 555.21 410.67 566.59 420.68 577.76 430.7 587.22 440.71 593.7 450.72 596.33 460.73 594.75 470.75 589.19 480.76 580.38 490.77 569.5 500.79 558.02 510.8 547.48 520.81 539.29 530.83 534.54 540.84 524.76 546.36 514.99 553 505.22 560.35 495.44 567.99 485.67 575.44 475.89 582.27 466.12 588.07 456.34 592.48 446.57 595.24 436.8 596.18 427.02 595.26 417.25 592.52 407.47 588.13 397.7 582.35 387.92 575.53 378.15 568.08 368.38 560.44 358.6 553.08 348.83 546.43 339.05 540.9 329.28 536.81 319.5 534.41 309.73 533.84 299.95 535.15 290.18 538.25 280.41 542.94 270.63 548.97 260.86 555.95 251.08 563.48 241.31 571.1 229.82 564.71 236.95 542.57 241.68 532.01 245.51 521.45 247.93 510.89 248.61 500.33 247.47 489.78 244.65 479.22 240.54 468.66 235.69 458.1 230.74 447.54 226.36 436.98 223.14 426.43 221.51 415.87 221.69 405.31 223.65 394.75 227.14 384.19 231.67 373.64 236.66 363.08 241.42 352.52 245.31 341.96 247.83 331.4 248.62 320.85 247.59 310.29 244.86 299.73 240.82 289.17 235.99 278.61 231.03 268.06 226.6 257.5 223.3 246.94" stroke-dasharray="10 9" transform="rotate(44.44, 400, 400)" opacity="0.47"></path><path d="M237.51 253.94Q246.83 249.76 256.14 245.37 265.46 241.03 274.78 236.94 284.09 233.32 293.41 230.37 302.73 228.23 312.04 227.03 321.36 226.81 330.68 227.6 339.99 229.35 349.31 231.97 358.63 235.32 367.94 239.24 377.26 243.5 386.58 247.9 395.89 252.19 405.21 256.16 414.52 259.6 423.84 262.33 433.16 264.21 442.47 265.13 451.79 265.05 461.11 263.98 470.42 261.96 479.74 259.11 489.06 255.58 498.37 251.54 507.69 247.21 517.01 242.82 526.32 238.6 535.64 234.76 545.04 244.17 555.49 253.59 565.76 263 574.66 272.42 581.13 281.83 584.44 291.24 584.18 300.66 580.39 310.07 573.51 319.49 564.35 328.9 553.98 338.32 543.61 347.73 534.45 357.14 527.58 366.56 523.8 375.97 523.56 385.39 526.87 394.8 533.36 404.21 542.27 413.63 552.54 423.04 562.99 432.46 572.38 441.87 579.62 451.28 583.87 460.7 584.62 470.11 581.78 479.53 575.7 488.94 567.07 498.35 556.92 507.77 546.42 517.18 536.81 526.6 529.21 536.01 520 542.15 510.79 548.92 501.59 555.94 492.38 562.87 483.17 569.33 473.96 574.99 464.75 579.55 455.54 582.78 446.33 584.5 437.13 584.63 427.92 583.15 418.71 580.15 409.5 575.78 400.29 570.27 391.08 563.91 381.88 557.04 372.67 550 363.46 543.17 354.25 536.91 345.04 531.54 335.83 527.35 326.63 524.55 317.42 523.29 308.21 523.63 299 525.56 289.79 528.98 280.58 533.71 271.38 539.49 262.17 546.04 252.96 553 244.12 547.93 252.04 527.62 256.02 517.84 258.84 508.07 260.15 498.29 259.8 488.52 257.84 478.75 254.49 468.97 250.15 459.2 245.32 449.42 240.57 439.65 236.46 429.88 233.46 420.1 231.93 410.33 232.04 400.55 233.79 390.78 236.96 381 241.19 371.23 245.99 361.46 250.78 351.68 255.01 341.91 258.19 332.13 259.94 322.36 260.06 312.59 258.54 302.81 255.54 293.04 251.43 283.26 246.68 273.49 241.86 263.71 237.51 253.94" stroke-dasharray="2 8" transform="rotate(48.48, 400, 400)" opacity="0.51"></path><path d="M253.38 260.2Q262.2 256.04 271.03 251.92 279.85 248.03 288.67 244.54 297.49 241.61 306.31 239.38 315.13 237.95 323.95 237.37 332.77 237.68 341.59 238.85 350.41 240.85 359.23 243.58 368.05 246.91 376.87 250.7 385.69 254.77 394.51 258.94 403.33 263.02 412.15 266.83 420.97 270.2 429.79 272.97 438.61 275.02 447.43 276.26 456.25 276.63 465.07 276.11 473.89 274.73 482.72 272.55 491.54 269.67 500.36 266.22 509.18 262.35 518 258.24 526.82 254.07 535.64 250.04 545.2 258.86 554.53 267.67 562.7 276.49 568.88 285.31 572.45 294.13 573.04 302.95 570.59 311.77 565.36 320.59 557.86 329.41 548.87 338.22 539.28 347.04 530.07 355.86 522.16 364.68 516.36 373.5 513.25 382.32 513.14 391.14 516.05 399.96 521.68 408.77 529.47 417.59 538.62 426.41 548.21 435.23 557.28 444.05 564.9 452.87 570.31 461.69 572.96 470.51 572.59 479.32 569.22 488.14 563.2 496.96 555.15 505.78 545.86 514.6 536.29 523.42 527.39 532.24 518.7 538.48 510.01 544.92 501.32 551.27 492.63 557.26 483.94 562.6 475.25 567.05 466.57 570.42 457.88 572.55 449.19 573.35 440.5 572.78 431.81 570.87 423.12 567.7 414.43 563.41 405.74 558.2 397.05 552.31 388.36 546 379.67 539.55 370.98 533.26 362.3 527.4 353.61 522.25 344.92 518.04 336.23 514.95 318.85 513.33 301.47 515.76 292.78 519.21 284.09 523.74 275.4 529.13 266.72 535.15 259.41 530.61 266.91 511.99 269.86 502.99 271.52 494 271.7 485.01 270.4 476.02 267.75 467.03 264 458.03 259.56 449.04 254.85 440.05 250.36 431.06 246.54 422.06 243.77 413.07 242.34 404.08 242.4 395.09 243.92 386.1 246.77 377.1 250.65 368.11 255.17 359.12 259.88 350.13 264.29 341.13 267.97 332.14 270.54 323.15 271.74 314.16 271.45 305.17 269.7 296.17 266.67 287.18 262.66 278.19 258.08 269.2 253.38 260.2" stroke-dasharray="5 11" transform="rotate(52.52, 400, 400)" opacity="0.54"></path><path d="M270.25 266.04Q286.88 258.55 303.51 252.5 320.13 248.81 336.76 248.04 353.39 250.32 370.02 255.28 386.65 262.19 403.28 269.98 419.91 277.46 436.54 283.51 453.17 287.19 469.8 287.95 486.43 285.66 503.06 280.69 519.69 273.78 536.32 265.99 551.86 282.43 560.7 298.86 559.86 315.3 549.62 331.74 533.43 348.18 516.76 364.62 505.23 381.05 502.73 397.49 510.1 413.93 524.85 430.37 542.02 446.81 555.81 463.24 561.56 479.68 557.34 496.12 544.57 512.56 527.56 529 511.19 540.63 494.83 550.95 478.46 558.39 462.09 561.8 445.72 560.67 429.36 555.17 412.99 546.14 396.62 534.96 380.26 523.32 363.89 513.01 347.52 505.59 331.15 502.19 314.79 503.33 298.42 508.85 278.3 515.26 281.19 496.19 283.38 479.75 280.39 463.31 273.21 446.87 264.28 430.43 256.6 413.99 252.76 397.55 254.06 381.12 260.06 364.68 268.74 348.24 277.17 331.8 282.5 315.36 282.94 298.92 278.34 282.48 270.25 266.04" stroke-dasharray="2 0" transform="rotate(56.56, 400, 400)" opacity="0.58"></path><path d="M287.21 271.79Q302.76 265.51 318.3 260.95 333.84 258.71 349.38 259.07 364.93 261.99 380.47 267.09 396.01 273.71 411.55 281.02 427.1 288.06 442.64 293.95 458.18 297.91 473.72 299.45 489.27 298.36 504.81 294.79 520.35 289.19 535.89 282.29 546.57 297.5 549.96 312.72 545.11 327.94 533.38 343.15 518.13 358.37 503.7 373.59 494.19 388.8 492.31 404.02 498.6 419.23 511.27 434.45 526.71 449.67 540.52 464.88 548.77 480.1 549.11 495.32 541.45 510.53 527.96 525.75 512.64 535.72 497.32 543.8 482 548.95 466.68 550.52 451.36 548.3 436.04 542.58 420.72 534.09 405.4 523.92 390.08 513.37 374.76 503.8 359.44 496.44 344.12 492.23 328.8 491.71 313.48 494.95 294.21 498.6 294.5 480.75 294.31 465.82 289.76 450.9 282.15 435.97 273.63 421.05 266.64 406.12 263.17 391.2 264.21 376.27 269.46 361.35 277.42 346.42 285.83 331.49 292.29 316.57 294.97 301.64 293.1 286.72 287.21 271.79" stroke-dasharray="0 8" transform="rotate(60.599999999999994, 400, 400)" opacity="0.62"></path><path d="M303.32 277.84Q317.66 273.03 332 270.02 346.35 269.13 360.69 270.46 375.03 273.86 389.38 278.98 403.72 285.27 418.06 292.06 432.41 298.63 446.75 304.28 461.09 308.42 475.44 310.6 489.78 310.59 504.12 308.39 518.47 304.24 532.81 298.57 538.1 312.54 536.75 326.5 529.07 340.46 516.89 354.42 503.07 368.38 490.9 382.35 483.23 396.31 481.9 410.27 487.2 424.23 497.89 438.19 511.44 452.15 524.65 466.12 534.4 480.08 538.38 494.04 535.65 508 526.85 521.96 512.67 529.87 498.48 535.66 484.29 538.72 470.1 538.74 455.91 535.7 441.72 529.93 427.53 522.04 413.35 512.87 399.16 503.4 384.97 494.63 370.78 487.49 356.59 482.74 342.4 480.89 328.22 482.12 309.5 482.95 306.56 466.14 304.24 452.69 298.55 439.24 290.84 425.79 282.93 412.34 276.69 398.89 273.59 385.44 274.37 371.99 278.84 358.54 285.95 345.09 294.02 331.64 301.13 318.19 305.61 304.74 306.4 291.29 303.32 277.84" stroke-dasharray="11 6" transform="rotate(64.64, 400, 400)" opacity="0.66"></path><path d="M317.66 284.54Q330.68 281.33 343.7 279.81 356.72 280.12 369.74 282.22 382.76 285.95 395.78 290.97 408.8 296.86 421.82 303.1 434.84 309.16 447.86 314.52 460.88 318.71 473.9 321.37 486.92 322.28 499.94 321.36 519.62 322.91 521.34 339.81 512.1 352.48 500.34 365.14 488.33 377.81 478.36 390.48 472.36 403.15 471.48 415.82 475.89 428.49 484.73 441.16 496.32 453.83 508.42 466.49 518.71 479.16 525.21 491.83 526.68 504.5 522.82 517.17 509.87 522.84 496.93 526.46 483.99 527.71 471.04 526.48 458.1 522.89 445.15 517.23 432.21 510.01 419.26 501.83 406.32 493.41 393.37 485.48 380.43 478.7 367.48 473.68 354.54 470.84 341.59 470.42 323.37 468.63 317.18 452.77 313.17 440.75 306.81 428.74 299.34 416.72 292.19 404.7 286.73 392.69 284.01 380.67 284.55 368.65 288.26 356.64 294.41 344.62 301.83 332.61 309.09 320.59 314.79 308.57 317.84 296.56 317.66 284.54" stroke-dasharray="2 9" transform="rotate(68.68, 400, 400)" opacity="0.70"></path><path d="M329.57 292.23Q341.16 290.58 352.74 290.4 364.33 291.69 375.91 294.36 387.5 298.24 399.08 303.05 410.67 308.48 422.25 314.14 433.84 319.66 445.42 324.65 457.01 328.79 468.59 331.77 480.18 333.41 491.76 333.59 507.35 336.62 504.21 352.28 494.6 363.62 483.98 374.95 473.98 386.29 466.11 397.62 461.57 408.96 461.06 420.29 464.66 431.63 471.81 442.96 481.43 454.3 492.04 465.63 502.04 476.97 509.9 488.3 508.88 507.05 491.75 516.15 480.17 515.92 468.58 513.79 457 509.89 445.41 504.5 433.83 497.99 422.24 490.79 410.66 483.41 399.07 476.33 387.49 470.05 375.9 465 364.32 461.51 352.74 459.83 335.2 455.83 326.29 440.97 321.16 430.34 314.64 419.72 307.71 409.1 301.43 398.47 296.77 387.85 294.42 377.22 294.75 366.6 297.71 355.97 302.85 345.35 309.38 334.73 316.3 324.1 322.58 313.48 327.24 302.85 329.57 292.23" stroke-dasharray="1 6" transform="rotate(72.72, 400, 400)" opacity="0.73"></path><path d="M338.74 301.18Q348.81 300.93 358.88 301.84 368.95 303.85 379.02 306.86 389.09 310.72 399.15 315.22 409.22 320.13 419.29 325.18 429.36 330.12 439.43 334.69 449.5 338.65 459.57 341.79 469.64 343.94 479.7 345 491.83 349.28 485.96 363.6 476.98 373.57 468 383.53 460.08 393.49 454.13 403.45 450.86 413.42 450.65 423.38 453.52 433.34 459.14 443.3 466.84 453.27 475.74 463.23 484.78 473.19 492.91 483.15 495.95 498.88 482.6 504.75 472.47 503.41 462.34 500.7 452.22 496.74 442.09 491.75 431.96 485.98 421.83 479.75 411.71 473.38 401.58 467.19 391.45 461.51 381.33 456.65 371.2 452.85 361.07 450.31 344.61 444.69 333.96 430.94 328.36 421.67 322.13 412.4 316 403.14 310.69 393.87 306.81 384.6 304.84 375.33 304.98 366.06 307.24 356.79 311.33 347.52 316.8 338.25 322.98 328.98 329.17 319.72 334.64 310.45 338.74 301.18" stroke-dasharray="2 5" transform="rotate(76.76, 400, 400)" opacity="0.77"></path><path d="M345.28 311.58Q362.31 314.13 379.34 319.71 396.36 327.47 413.39 336.22 430.42 344.63 447.45 351.42 464.48 355.56 481.5 356.41 467.26 373.52 452.59 390.64 442.44 407.76 440.23 424.87 446.72 441.99 459.71 459.1 472.28 484.26 452.52 487.25 435.31 478.97 418.1 468.71 400.88 458.04 383.67 448.58 366.46 441.77 349.24 438.65 340.42 422.77 329.42 406.88 319.97 391 315.25 375.12 316.85 359.23 324.24 343.35 334.91 327.46 345.28 311.58" stroke-dasharray="3 8" transform="rotate(80.80000000000001, 400, 400)" opacity="0.81"></path><path d="M349.73 323.53Q363.66 327.27 377.59 332.89 391.52 339.8 405.45 347.26 419.38 354.48 433.31 360.69 447.24 365.24 461.17 367.63 448.79 381.89 437.88 396.15 431.02 410.41 429.82 424.67 434.57 438.93 444.15 453.18 440.44 469.67 411.6 457.67 397.47 448.87 383.34 440.72 369.21 434.08 355.08 429.67 345.99 416.4 336.67 403.14 329.31 389.87 325.67 376.6 326.59 363.33 331.86 350.07 340.23 336.8 349.73 323.53" stroke-dasharray="1 3" transform="rotate(84.84, 400, 400)" opacity="0.85"></path><path d="M353.03 337.02Q363.94 341.19 374.85 346.37 385.77 352.21 396.68 358.3 407.59 364.24 418.5 369.62 430.31 381.36 424.01 400.03 419.87 411.4 419.4 422.78 422.69 434.16 429.21 445.53 425.86 457.08 403.34 446.63 392.25 439.67 381.16 433.01 370.08 427.1 358.99 422.34 351.14 411.67 344.03 401.01 338.74 390.34 336.08 379.68 336.46 369.02 339.81 358.35 345.63 347.69 353.03 337.02" stroke-dasharray="6 4" transform="rotate(88.88, 400, 400)" opacity="0.89"></path><path d="M356.33 351.93Q372.37 360.11 388.41 369.34 404.46 378.22 420.5 385.38 411.04 402.36 408.99 419.34 412.94 440.85 394.57 435.59 378.28 425.4 361.99 416.36 351.66 400.25 346.5 384.15 348.25 368.04 356.33 351.93" stroke-dasharray="2 6" transform="rotate(92.92, 400, 400)" opacity="0.92"></path><path d="M360.86 368.03Q371.39 374.07 381.91 380.39 392.43 386.53 402.96 392.1 399.02 403.34 398.57 414.58 387.73 423.14 365.32 411.35 359.73 400.52 356.91 389.69 357.31 378.86 360.86 368.03" stroke-dasharray="4 0" transform="rotate(96.96, 400, 400)" opacity="0.96"></path></g></svg>