<svg xmlns="http://www.w3.org/2000/svg" version="1.1" xmlns:xlink="http://www.w3.org/1999/xlink" xmlns:svgjs="http://svgjs.dev/svgjs" viewBox="0 0 800 800"><defs><linearGradient x1="50%" y1="0%" x2="50%" y2="100%" id="ccchaos-grad"><stop stop-color="hsl(173.4, 100%, 42%)" stop-opacity="1" offset="0%"></stop><stop stop-color="hsl(173.4, 10%, 42%)" stop-opacity="1" offset="100%"></stop></linearGradient></defs><g stroke-width="2" stroke="url(#ccchaos-grad)" fill="none" stroke-linecap="round"><path d="M364.48 111.97C369.05 100.46 387.41 106.25 395.74 121.99Q401.51 131.86 407.71 141.78 414.31 151.72 421.26 161.67 428.51 171.62 436 181.55 443.66 191.44 451.43 201.29 459.23 211.06 466.98 220.75 474.62 230.34 482.06 239.81 489.24 249.16 496.08 258.35 502.54 267.4 508.54 276.27 514.05 284.97 519.02 293.49 523.45 301.81 527.3 309.94 533.03 325.51 537.15 340.49 538.99 354.54 539.8 368.08 539.68 380.9 539.49 393.38 540.1 405.5 541.69 417.54 545.66 429.65 551.38 441.96 560.36 454.83 571.33 468.16 577.94 475.16 585.13 482.38 592.85 489.82 601.04 497.52 609.61 505.47 618.49 513.7 627.57 522.2 636.75 530.99 645.95 540.06 655.04 549.42 663.93 559.07 672.52 568.99 680.71 579.17 688.42 589.62 695.56 600.31 702.06 611.23 707.88 622.35 712.96 633.66 717.28 645.13 720.84 656.74C724.61 673.63 710.53 680.74 696.39 670.52Q678.96 660.37 661.53 654.28 644.1 653.11 626.67 657.03 609.24 665.48 591.81 677.25 574.38 690.67 556.95 703.81 539.52 714.8 522.09 722.06 504.66 724.57 487.23 721.96 469.8 714.61 452.37 703.56 434.94 690.4 417.51 677 400.08 665.28 382.65 656.9 365.22 653.08 347.79 654.35 330.36 660.54 312.93 670.75 295.5 683.53 278.07 697.06 260.64 709.4 243.21 718.79 225.78 723.89 208.35 723.97 190.92 719.02 173.49 709.74 156.06 697.47 138.63 683.95C124.49 673.4 116.15 653.3 122.95 645.41Q131.87 634.78 140.3 624.27 147.86 613.66 154.88 602.81 161.09 591.31 166.92 579.28 172.35 566.19 177.73 552.37 183.35 537.26 189.31 521.35 192.58 512.93 196.05 504.25 199.75 495.33 203.7 486.16 207.91 476.76 212.39 467.15 217.14 457.34 222.17 447.35 227.45 437.19 232.98 426.9 238.74 416.48 244.69 405.96 250.8 395.36 257.04 384.71 263.37 374.03 269.74 363.33 276.1 352.65 282.42 342 288.63 331.4 294.7 320.87 300.58 310.44 306.23 300.11 311.61 289.9 316.68 279.83 321.43 269.9 325.83 260.14 329.86 250.54 333.52 241.11 336.82 231.86 339.75 222.79 342.35 213.9 344.63 205.18 348.29 188.37 351.37 172.04 354 156.45 356.73 141.23 362.35 119.23 364.48 111.97" stroke-dasharray="10 1" transform="rotate(0, 400, 400)" opacity="0.05"></path><path d="M367.23 122.59C370.84 111.58 388.57 117.32 397.45 132.5Q403.48 142.03 409.87 151.59 416.56 161.19 423.53 170.79 430.7 180.4 438.04 189.99 445.46 199.56 452.92 209.08 460.34 218.54 467.66 227.92 474.81 237.22 481.72 246.42 488.35 255.5 494.63 264.45 500.51 273.26 505.95 281.92 510.92 290.42 515.39 298.75 522.51 314.79 528.09 330.28 531.27 344.85 533.25 358.86 533.75 372.04 533.77 384.76 533.75 396.86 534.18 408.68 536.08 420.21 539.28 431.69 545.11 443.3 552.72 455.11 563.37 467.48 575.76 480.3 582.9 487.03 590.5 493.95 598.49 501.1 606.81 508.48 615.37 516.1 624.1 523.98 632.9 532.12 641.69 540.52 650.36 549.19 658.84 558.12 667.03 567.33 674.85 576.79 682.22 586.51 689.07 596.48 695.35 606.68 701 617.1 705.98 627.72 710.26 638.53C715.18 654.36 703.11 661.57 689.44 653.05Q672.59 645.56 655.74 642.32 638.89 643.74 622.04 649.64 605.19 659.24 588.34 671.28 571.49 684.15 554.64 696.17 537.79 705.73 520.94 711.58 504.09 712.94 487.24 709.64 470.39 702.1 453.55 691.34 436.7 678.76 419.85 666.03 403 654.84 386.15 646.66 369.3 642.57 352.45 643.12 335.6 648.23 318.75 657.23 301.9 668.93 285.05 681.77 268.2 694.07 251.35 704.2 234.5 710.82 217.65 713.05 200.8 710.59 183.95 703.78 167.1 693.52 150.25 681.15C136.58 670.7 128.31 650.65 134.64 643.41Q142.85 633.39 150.58 623.27 157.44 612.73 163.82 601.79 169.49 590.01 174.86 577.61 179.95 564.08 185.06 549.82 190.5 534.31 196.31 518.07 199.51 509.52 202.92 500.75 206.55 491.76 210.42 482.56 214.54 473.18 218.92 463.61 223.55 453.89 228.45 444.02 233.58 434.03 238.95 423.93 244.52 413.75 250.28 403.5 256.19 393.21 262.23 382.89 268.34 372.57 274.51 362.26 280.68 351.99 286.81 341.76 292.85 331.61 298.77 321.54 304.53 311.58 310.08 301.73 315.39 292 320.43 282.42 325.17 272.98 329.59 263.69 333.67 254.57 337.41 245.62 340.8 236.83 343.85 228.21 348.81 211.57 352.92 195.41 355.93 180.01 358.55 165.02 361.02 150.59 363.73 136.44 366.29 126.04 367.23 122.59" stroke-dasharray="5 6" transform="rotate(4.04, 400, 400)" opacity="0.09"></path><path d="M370.55 133.22C373.37 122.7 390.47 128.37 399.75 143.01Q412.4 161.4 425.98 179.9 440.08 198.41 454.28 216.83 468.11 235.05 481.12 252.96 492.9 270.46 503.12 287.47 511.56 303.9 518.11 319.69 522.79 334.81 525.76 349.22 527.32 362.94 527.86 376 527.86 388.45 527.86 400.36 528.41 411.84 530.03 423 533.2 433.97 538.27 444.92 545.48 455.97 554.94 467.31 566.56 479.06 580.13 491.39 595.29 504.42 611.55 518.25 628.32 532.99 644.98 548.7 660.88 565.4 675.45 583.1 688.14 601.76 698.58 621.32C704.55 635.9 694.41 643.53 681.24 637.05Q665.01 632.36 648.77 631.84 632.54 635.54 616.3 643.03 600.07 653.38 583.83 665.33 567.6 677.43 551.36 688.19 535.12 696.32 518.89 700.81 502.65 701.13 486.42 697.22 470.18 689.57 453.95 679.12 437.71 667.12 421.48 655.06 405.24 644.39 389.01 636.42 372.77 632.12 356.54 632.02 340.3 636.12 324.06 643.93 307.83 654.5 291.59 666.53 275.36 678.56 259.12 689.13 242.89 696.93 226.65 701.03 210.42 700.93 194.18 696.63 177.94 688.65 161.71 677.99C148.53 668.23 140.29 648.67 146.12 641.79Q153.69 632.04 160.61 621.93 166.89 611.28 172.58 599.97 177.8 587.88 182.71 574.93 187.49 561.06 192.38 546.26 197.59 530.53 203.34 513.92 209.82 496.49 217.17 478.33 225.48 459.55 234.74 440.29 244.92 420.67 255.88 400.84 267.41 380.95 279.27 361.13 291.17 341.53 302.81 322.25 313.87 303.41 324.09 285.08 333.24 267.33 341.16 250.2 347.8 233.71 353.15 217.84 357.35 202.59 360.6 187.89 363.18 173.69 365.45 159.9 369.16 139.83 370.55 133.22" stroke-dasharray="2 6" transform="rotate(8.08, 400, 400)" opacity="0.13"></path><path d="M374.34 143.86C376.53 133.83 393.03 139.43 402.55 153.5Q415.23 171.18 428.53 188.97 442.07 206.79 455.47 224.53 468.32 242.11 480.24 259.42 490.91 276.38 500.07 292.9 507.56 308.91 513.33 324.34 517.43 339.15 520.03 353.32 521.39 366.83 521.9 379.7 521.96 391.97 522.04 403.68 522.64 414.92 524.2 425.78 527.14 436.36 531.78 446.8 538.34 457.21 546.94 467.75 557.53 478.54 569.98 489.72 583.98 501.43 599.15 513.78 615.01 526.87 631.02 540.79 646.63 555.59 661.29 571.31 674.51 587.97 685.87 605.54C692.73 618.71 684.43 627.04 671.79 622.77Q656.2 620.85 640.61 622.8 625.02 628.4 609.43 637.04 593.84 647.73 578.25 659.29 562.66 670.41 547.07 679.86 531.48 686.56 515.89 689.78 500.3 689.15 484.71 684.73 469.12 677.04 453.53 666.92 437.94 655.51 422.35 644.09 406.76 633.94 391.17 626.2 375.58 621.74 359.99 621.05 344.4 624.21 328.81 630.87 313.22 640.29 297.63 651.4 282.04 662.96 266.45 673.67 250.86 682.34 235.27 688 219.68 690 204.08 688.13 188.49 682.59 172.9 674.01C160.26 665.47 152.03 646.79 157.32 639.99Q164.16 630.19 170.38 619.84 176.01 608.84 181.15 597.09 185.91 584.52 190.46 571.1 194.99 556.8 199.68 541.65 204.76 525.67 210.39 508.93 216.75 491.51 223.95 473.51 232.05 455.04 241.05 436.22 250.89 417.17 261.46 398.04 272.58 378.94 284.01 360 295.51 341.33 306.79 323.02 317.59 305.17 327.65 287.83 336.76 271.05 344.76 254.86 351.57 239.27 357.16 224.26 361.62 209.81 365.09 195.87 367.8 182.38 370.02 169.27 373.21 150.16 374.34 143.86" stroke-dasharray="7 5" transform="rotate(12.12, 400, 400)" opacity="0.16"></path><path d="M378.51 154.5C380.23 144.98 396.16 150.48 405.74 163.97Q418.24 180.94 431.08 198.02 443.92 215.14 456.42 232.2 468.23 249.12 479.05 265.82 488.63 282.21 496.78 298.22 503.38 313.78 508.43 328.83 512.01 343.31 514.27 357.21 515.48 370.49 515.95 383.18 516.07 395.27 516.24 406.81 516.87 417.86 518.37 428.48 521.09 438.76 525.32 448.8 531.28 458.71 539.06 468.6 548.68 478.6 560.02 488.83 572.87 499.41 586.93 510.46 601.8 522.08 617.03 534.37 632.16 547.41 646.69 561.25 660.17 575.94 672.2 591.49C679.77 603.21 673.16 612.37 661.06 610.33Q646.15 610.98 631.23 615.05 616.32 622.13 601.4 631.48 586.49 642.15 571.57 653.04 556.66 663.04 541.74 671.11 526.83 676.44 511.91 678.47 497 676.99 482.08 672.16 467.17 664.47 452.25 654.72 437.34 643.89 422.42 633.11 407.51 623.48 392.59 615.99 377.68 611.41 362.77 610.2 347.85 612.49 332.94 618.05 318.02 626.3 303.11 636.4 288.19 647.32 273.28 657.92 258.36 667.13 243.45 674 228.53 677.82 213.62 678.21 198.71 675.11 183.79 668.86C171.7 661.9 163.47 644.46 168.23 637.53Q174.34 627.43 179.88 616.67 184.92 605.2 189.56 592.95 193.92 579.9 198.16 566.04 202.45 551.39 206.99 535.99 211.94 519.88 217.47 503.15 223.71 485.88 230.75 468.16 238.64 450.12 247.37 431.86 256.87 413.49 267.05 395.14 277.74 376.9 288.74 358.89 299.82 341.18 310.74 323.87 321.25 307.02 331.12 290.67 340.15 274.86 348.2 259.6 355.15 244.9 360.98 230.73 365.7 217.08 369.43 203.88 372.34 191.1 374.63 178.66 377.55 160.49 378.51 154.5" stroke-dasharray="8 7" transform="rotate(16.16, 400, 400)" opacity="0.20"></path><path d="M382.94 165.17C384.36 156.11 399.71 161.51 409.18 174.45Q421.31 190.7 433.53 207.06 445.55 223.46 457.07 239.82 467.82 256.08 477.55 272.15 486.08 287.96 493.26 303.44 499.04 318.52 503.43 333.15 506.53 347.29 508.49 360.89 509.56 373.93 510.01 386.41 510.19 398.33 510.43 409.72 511.1 420.6 512.54 431.03 515.05 441.08 518.91 450.81 524.29 460.33 531.31 469.72 539.99 479.1 550.27 488.55 562 498.21 574.92 508.16 588.74 518.53 603.09 529.39 617.58 540.84 631.77 552.96 645.27 565.79 657.69 579.39C665.77 589.67 660.67 599.7 649.14 599.77Q634.93 602.68 620.71 608.45 606.5 616.54 592.28 626.19 578.07 636.5 563.86 646.5 549.64 655.25 535.43 661.95 521.21 665.95 507 666.9 492.78 664.69 478.57 659.53 464.36 651.91 450.14 642.55 435.93 632.31 421.71 622.15 407.5 613.03 393.28 605.8 379.07 601.13 364.86 599.47 350.64 600.96 336.43 605.48 322.21 612.58 308 621.62 293.79 631.74 279.57 642.01 265.36 651.44 251.14 659.18 236.93 664.48 222.72 666.86 208.5 666.09 194.29 662.24C182.76 657.1 174.57 641.16 178.79 633.96Q184.2 623.39 189.12 612.13 193.62 600.14 197.81 587.4 201.82 573.93 205.8 559.73 209.91 544.84 214.31 529.31 219.16 513.22 224.59 496.65 230.71 479.67 237.58 462.38 245.25 444.89 253.69 427.3 262.86 409.7 272.64 392.2 282.9 374.89 293.45 357.84 304.1 341.13 314.64 324.83 324.83 308.98 334.49 293.62 343.42 278.77 351.47 264.43 358.54 250.61 364.57 237.28 369.57 224.4 373.58 211.95 376.74 199.86 379.2 188.08 382.06 170.85 382.94 165.17" stroke-dasharray="3 4" transform="rotate(20.200000000000003, 400, 400)" opacity="0.24"></path><path d="M387.51 175.84C388.79 167.27 403.54 172.55 412.74 184.9Q424.32 200.43 435.79 216.06 446.89 231.74 457.39 247.4 467.06 262.98 475.73 278.4 483.24 293.6 489.52 308.53 494.53 323.11 498.33 337.31 501 351.06 502.7 364.34 503.65 377.11 504.09 389.37 504.32 401.11 504.63 412.34 505.32 423.07 506.7 433.35 509.03 443.21 512.53 452.73 517.38 461.96 523.69 470.97 531.49 479.87 540.75 488.72 551.37 497.64 563.17 506.71 575.9 516.02 589.28 525.68 602.98 535.76 616.65 546.35 629.93 557.52 642.48 569.32C650.87 578.24 647.05 589.05 636.1 590.99Q622.61 595.76 609.12 602.76 595.63 611.41 582.14 620.97 568.64 630.62 555.15 639.55 541.66 646.99 528.17 652.33 514.68 655.1 501.19 655.06 487.7 652.23 474.21 646.83 460.71 639.34 447.22 630.38 433.73 620.72 420.24 611.18 406.75 602.57 393.26 595.61 379.76 590.91 366.27 588.85 352.78 589.62 339.29 593.15 325.8 599.14 312.31 607.08 298.81 616.29 285.32 626 271.83 635.38 258.34 643.63 244.85 650.05 231.36 654.1 217.86 655.43 204.37 653.93C193.43 650.72 185.28 636.46 188.99 628.88Q193.75 617.78 198.09 606 202.11 593.54 205.91 580.39 209.63 566.59 213.4 552.18 217.36 537.2 221.66 521.71 226.41 505.8 231.74 489.52 237.73 472.98 244.44 456.25 251.88 439.44 260.03 422.61 268.84 405.87 278.22 389.29 288.04 372.94 298.14 356.89 308.36 341.2 318.49 325.92 328.36 311.07 337.77 296.69 346.56 282.79 354.58 269.36 361.73 256.4 367.94 243.88 373.18 231.78 377.49 220.05 380.93 208.64 383.64 197.51 386.63 181.22 387.51 175.84" stroke-dasharray="11 8" transform="rotate(24.24, 400, 400)" opacity="0.28"></path><path d="M392.08 186.53C393.34 178.43 407.51 183.57 416.29 195.36Q427.17 210.15 437.77 225.05 447.89 240 457.33 254.95 465.94 269.83 473.57 284.59 480.12 299.17 485.56 313.52 489.88 327.58 493.14 341.3 495.43 354.64 496.91 367.56 497.75 380.04 498.19 392.05 498.46 403.58 498.83 414.64 499.55 425.23 500.87 435.37 503.02 445.09 506.19 454.44 510.55 463.45 516.19 472.2 523.16 480.74 531.45 489.15 541 497.51 551.68 505.89 563.31 514.37 575.65 523.05 588.46 532 601.44 541.3 614.29 551.02 626.7 561.23C635.21 568.91 632.43 580.38 622.1 583.85Q609.34 589.99 596.59 597.75 583.84 606.52 571.08 615.64 558.33 624.4 545.58 632.13 532.82 638.24 520.07 642.27 507.32 643.89 494.57 642.99 481.81 639.64 469.06 634.09 456.31 626.77 443.55 618.25 430.8 609.16 418.05 600.22 405.29 592.1 392.54 585.44 379.79 580.73 367.03 578.35 354.28 578.47 341.53 581.09 328.77 586.01 316.02 592.84 303.27 601.06 290.51 610.05 277.76 619.11 265.01 627.55 252.25 634.72 239.5 640.07 226.75 643.19 213.99 643.84C203.65 642.52 195.6 630.01 198.84 622.04Q202.99 610.43 206.83 598.19 210.44 585.35 213.92 571.92 217.39 557.94 220.99 543.48 224.83 528.57 229.04 513.29 233.71 497.71 238.94 481.89 244.8 465.93 251.32 449.88 258.52 433.84 266.38 417.88 274.83 402.05 283.8 386.44 293.17 371.1 302.82 356.08 312.58 341.42 322.3 327.16 331.81 313.31 340.95 299.9 349.56 286.93 357.51 274.4 364.7 262.28 371.05 250.56 376.52 239.21 381.11 228.2 384.86 217.47 387.86 206.98 391.15 191.61 392.08 186.53" stroke-dasharray="10 11" transform="rotate(28.28, 400, 400)" opacity="0.32"></path><path d="M396.54 197.22C397.9 189.59 411.46 194.59 419.69 205.79Q429.73 219.85 439.38 234.01 448.47 248.23 456.86 262.45 464.43 276.62 471.07 290.71 476.73 304.65 481.4 318.39 485.09 331.9 487.86 345.12 489.82 358.01 491.1 370.55 491.86 382.69 492.3 394.42 492.62 405.73 493.03 416.59 493.77 427.03 495.03 437.03 497.01 446.63 499.88 455.84 503.78 464.71 508.8 473.26 514.99 481.56 522.37 489.65 530.9 497.6 540.48 505.47 551 513.33 562.27 521.25 574.1 529.3 586.25 537.55 598.48 546.08 610.53 554.94C618.95 561.56 617.01 573.47 607.26 578.08Q595.26 585.09 583.26 593.13 571.26 601.63 559.25 610.02 547.25 617.7 535.25 624.16 523.24 628.95 511.24 631.74 499.24 632.33 487.23 630.69 475.23 626.92 463.23 621.3 451.22 614.2 439.22 606.11 427.22 597.6 415.21 589.24 403.21 581.62 391.21 575.26 379.2 570.59 367.2 567.95 355.2 567.5 343.19 569.29 331.19 573.18 319.19 578.92 307.18 586.1 295.18 594.23 283.18 602.75 271.17 611.07 259.17 618.63 247.17 624.89 235.16 629.43 223.16 631.94C213.42 632.36 205.53 621.6 208.33 613.28Q211.96 601.25 215.36 588.68 218.62 575.6 221.84 562.05 225.13 548.08 228.59 533.74 232.34 519.09 236.47 504.18 241.06 489.09 246.19 473.88 251.91 458.62 258.25 443.38 265.19 428.2 272.74 413.17 280.82 398.33 289.37 383.73 298.3 369.42 307.48 355.44 316.79 341.81 326.08 328.56 335.21 315.71 344.05 303.25 352.44 291.2 360.28 279.53 367.46 268.25 373.91 257.31 379.57 246.7 384.42 236.38 388.48 226.32 391.8 216.47 395.49 202 396.54 197.22" stroke-dasharray="0 11" transform="rotate(32.32, 400, 400)" opacity="0.35"></path><path d="M400.74 207.93C402.29 200.77 415.23 205.61 422.8 216.22Q431.91 229.54 440.56 242.96 448.61 256.43 455.96 269.91 462.52 283.37 468.24 296.76 473.08 310.04 477.04 323.16 480.16 336.08 482.51 348.77 484.18 361.18 485.29 373.29 485.98 385.06 486.42 396.48 486.78 407.52 487.24 418.17 487.99 428.42 489.19 438.28 491.02 447.75 493.61 456.85 497.08 465.59 501.52 474.01 506.99 482.14 513.52 490.02 521.07 497.69 529.6 505.2 539.02 512.61 549.2 519.98 559.99 527.36 571.21 534.81 582.67 542.4 594.15 550.18C602.3 555.94 600.94 568.02 591.81 573.35Q580.56 580.74 569.31 588.63 558.07 596.53 546.82 603.95 535.57 610.44 524.32 615.6 513.07 619.11 501.82 620.75 490.58 620.43 479.33 618.16 468.08 614.09 456.83 608.46 445.58 601.62 434.33 594 423.09 586.05 411.84 578.27 400.59 571.13 389.34 565.09 378.09 560.49 366.85 557.64 355.6 556.71 344.35 557.74 333.1 560.69 321.85 565.36 310.61 571.47 299.36 578.65 288.11 586.45 276.86 594.39 265.61 601.99 254.37 608.78 243.12 614.33 231.87 618.32C222.74 620.23 215.07 611.12 217.49 602.56Q220.67 590.26 223.71 577.53 226.69 564.41 229.71 550.94 232.86 537.16 236.22 523.13 239.89 508.91 243.96 494.55 248.47 480.11 253.5 465.64 259.07 451.19 265.2 436.84 271.88 422.61 279.11 408.57 286.82 394.75 294.95 381.2 303.42 367.94 312.13 355 320.97 342.4 329.82 330.15 338.55 318.27 347.05 306.75 355.2 295.59 362.88 284.78 370.01 274.31 376.5 264.14 382.3 254.25 387.38 244.62 391.73 235.21 395.37 225.99 399.55 212.42 400.74 207.93" stroke-dasharray="6 2" transform="rotate(36.36, 400, 400)" opacity="0.39"></path><path d="M404.58 218.65C406.39 211.95 418.66 216.6 425.49 226.63Q433.63 239.2 441.25 251.87 448.27 264.59 454.61 277.33 460.23 290.06 465.08 302.74 469.17 315.33 472.5 327.81 475.12 340.12 477.1 352.25 478.52 364.14 479.48 375.79 480.12 387.15 480.56 398.21 480.95 408.94 481.45 419.33 482.2 429.37 483.35 439.06 485.02 448.39 487.35 457.37 490.43 466 494.35 474.32 499.15 482.33 504.88 490.07 511.51 497.56 519.03 504.84 527.38 511.96 536.47 518.95 546.19 525.86 556.4 532.74 566.96 539.64 577.7 546.61C585.45 551.7 584.46 563.69 575.95 569.3Q565.46 576.6 554.96 583.97 544.47 590.99 533.98 597.29 523.48 602.52 512.99 606.4 502.5 608.71 492 609.33 481.51 608.23 471.01 605.46 460.52 601.18 450.03 595.61 439.53 589.07 429.04 581.91 418.55 574.52 408.05 567.3 397.56 560.65 387.06 554.93 376.57 550.44 366.08 547.44 355.58 546.09 345.09 546.46 334.6 548.53 324.1 552.2 313.61 557.25 303.12 563.41 292.62 570.35 282.13 577.69 271.64 585.03 261.14 591.97 250.65 598.14 240.16 603.18C231.65 606.27 224.26 598.65 226.37 589.96Q229.18 577.6 231.94 564.92 234.71 551.96 237.58 538.76 240.62 525.38 243.91 511.85 247.52 498.23 251.52 484.57 255.95 470.9 260.86 457.29 266.27 443.76 272.18 430.37 278.6 417.16 285.49 404.15 292.82 391.39 300.52 378.89 308.53 366.68 316.76 354.78 325.12 343.2 333.52 331.94 341.83 321.01 349.97 310.41 357.83 300.12 365.31 290.14 372.34 280.45 378.82 271.03 384.71 261.86 389.97 252.9 394.58 244.13 398.53 235.52 403.21 222.84 404.58 218.65" stroke-dasharray="4 8" transform="rotate(40.400000000000006, 400, 400)" opacity="0.43"></path><path d="M407.94 229.37C410.04 223.14 421.63 227.6 427.68 237.03Q434.79 248.85 441.39 260.76 447.41 272.72 452.8 284.71 457.54 296.7 461.61 308.65 465.02 320.55 467.79 332.35 469.98 344.03 471.63 355.56 472.83 366.91 473.68 378.05 474.27 388.96 474.72 399.61 475.14 409.99 475.67 420.08 476.42 429.86 477.5 439.34 479.04 448.49 481.13 457.33 483.85 465.86 487.28 474.07 491.48 481.99 496.46 489.63 502.24 497.01 508.8 504.15 516.12 511.08 524.14 517.83 532.78 524.44 541.94 530.93 551.52 537.36 561.38 543.77C568.58 548.38 567.78 560 559.88 565.51Q550.13 572.33 540.39 578.88 530.65 584.83 520.9 589.91 511.16 593.87 501.42 596.53 491.67 597.75 481.93 597.47 472.19 595.72 462.44 592.56 452.7 588.17 442.96 582.73 433.21 576.53 423.47 569.84 413.73 563 403.98 556.33 394.24 550.16 384.5 544.76 374.75 540.42 365.01 537.33 355.26 535.63 345.52 535.43 335.78 536.71 326.03 539.43 316.29 543.44 306.55 548.57 296.8 554.56 287.06 561.12 277.31 567.95 267.57 574.71 257.83 581.08 248.08 586.75C240.18 590.66 233.15 584.32 235 575.69Q237.53 563.49 240.08 551.07 242.69 538.49 245.46 525.78 248.43 512.98 251.66 500.12 255.23 487.26 259.16 474.42 263.51 461.66 268.29 448.99 273.52 436.46 279.2 424.1 285.33 411.94 291.88 400 298.82 388.3 306.09 376.86 313.63 365.7 321.38 354.82 329.26 344.23 337.18 333.94 345.06 323.94 352.81 314.23 360.35 304.79 367.59 295.62 374.45 286.7 380.87 278 386.79 269.52 392.18 261.22 396.99 253.09 401.21 245.08 406.4 233.28 407.94 229.37" stroke-dasharray="5 3" transform="rotate(44.44, 400, 400)" opacity="0.47"></path><path d="M410.74 240.12C413.13 234.33 424.02 238.6 429.26 247.42Q435.36 258.49 440.97 269.63 446.04 280.83 450.54 292.06 454.48 303.29 457.84 314.51 460.65 325.69 462.93 336.8 464.73 347.82 466.11 358.72 467.14 369.48 467.88 380.08 468.43 390.48 468.89 400.69 469.34 410.66 469.88 420.4 470.62 429.88 471.65 439.09 473.06 448.04 474.92 456.7 480.63 473.04 488.24 488.55 493.23 495.84 498.9 502.89 505.25 509.72 512.23 516.33 519.8 522.76 527.9 529.04 536.43 535.18 545.32 541.22C551.88 545.52 551.13 556.51 543.83 561.59Q534.82 567.61 525.82 573.12 516.81 577.89 507.81 581.73 498.81 584.46 489.8 585.99 480.8 586.25 471.8 585.21 462.79 582.94 453.79 579.52 444.78 575.09 435.78 569.85 426.78 564 417.77 557.8 408.77 551.5 399.77 545.37 390.76 539.66 381.76 534.61 372.75 530.43 363.75 527.3 354.75 525.34 345.74 524.65 336.74 525.24 327.74 527.09 318.73 530.13 309.73 534.23 300.73 539.22 291.72 544.88 282.72 550.99 273.72 557.28 264.71 563.5 255.71 569.39C248.4 573.75 241.82 568.45 243.48 560.03Q245.8 548.22 248.2 536.3 250.71 524.3 253.41 512.26 256.33 500.21 259.53 488.18 263.04 476.2 266.9 464.31 271.15 452.53 275.78 440.89 280.82 429.41 286.26 418.12 292.09 407.03 298.29 396.16 304.83 385.53 311.65 375.14 318.73 365.01 325.99 355.14 333.37 345.53 340.81 336.17 348.23 327.07 355.57 318.22 362.75 309.61 369.7 301.22 376.35 293.04 382.65 285.06 388.54 277.25 393.98 269.6 406.94 247.42 410.74 240.12" stroke-dasharray="6 10" transform="rotate(48.48, 400, 400)" opacity="0.51"></path><path d="M412.9 250.87C415.55 245.53 425.72 249.58 430.15 257.8Q435.28 268.1 439.95 278.48 444.14 288.9 447.84 299.36 451.05 309.84 453.79 320.31 456.07 330.75 457.93 341.15 459.41 351.49 460.56 361.73 461.43 371.87 462.09 381.88 462.62 391.74 463.07 401.45 463.54 410.97 464.1 420.3 464.83 429.42 465.8 438.32 468.96 455.3 473.43 471.55 480.52 486.58 489.34 500.89 494.77 507.64 500.77 514.18 507.31 520.51 514.34 526.66 521.82 532.65 529.68 538.48C535.53 542.61 534.7 552.76 527.98 557.15Q511.43 566.48 494.88 572.65 478.32 574.78 461.77 572.57 445.22 566.32 428.67 556.95 412.12 545.77 395.56 534.4 379.01 524.44 362.46 517.34 345.91 514.09 329.35 515.17 312.8 520.42 296.25 529.09 279.69 539.94 263.14 551.42C256.42 555.88 250.33 551.39 251.87 543.37Q254.05 532.17 256.35 520.94 258.81 509.71 261.46 498.5 264.35 487.35 267.51 476.26 270.97 465.28 274.75 454.41 278.87 443.69 283.35 433.12 288.18 422.72 293.36 412.51 298.88 402.51 304.71 392.71 310.84 383.14 317.22 373.78 323.81 364.66 330.58 355.76 337.46 347.09 344.41 338.64 351.36 330.41 358.26 322.39 365.05 314.57 371.66 306.94 378.06 299.48 384.17 292.19 395.2 278.08 405.03 264.3 411.05 254.21 412.9 250.87" stroke-dasharray="7 3" transform="rotate(52.52, 400, 400)" opacity="0.54"></path><path d="M414.38 261.65C417.26 256.74 426.66 260.56 430.32 268.17Q438.33 287.31 444.7 306.64 449.48 326.05 452.82 345.41 454.98 364.59 456.32 383.46 457.28 401.89 458.33 419.77 459.94 436.99 462.58 453.47 466.64 469.15 472.42 483.98 480.12 497.96 489.79 511.11 501.35 523.47 514.59 535.12C519.7 539.16 518.68 548.3 512.55 551.83Q497.42 558.8 482.29 562.65 467.16 562.92 452.03 559.57 436.9 553.01 421.77 544.05 406.64 533.77 391.51 523.42 376.38 514.28 361.25 507.45 346.12 503.76 330.99 503.68 315.86 507.19 300.73 513.89 285.6 522.95 270.47 533.26C264.33 537.52 258.79 533.63 260.24 526.13Q264.6 505.37 269.65 484.82 275.62 464.62 282.7 444.91 290.98 425.8 300.49 407.38 311.14 389.7 322.77 372.8 335.15 356.69 347.97 341.35 360.87 326.74 373.49 312.78 385.45 299.4 396.42 286.49 410.25 267.8 414.38 261.65" stroke-dasharray="8 3" transform="rotate(56.56, 400, 400)" opacity="0.58"></path><path d="M415.13 272.42C418.17 267.96 426.8 271.54 429.74 278.52Q436.13 296.11 441.17 313.88 444.95 331.73 447.6 349.58 449.38 367.31 450.57 384.84 451.51 402.04 452.56 418.84 454.08 435.14 456.44 450.86 459.92 465.94 464.79 480.33 471.21 494 479.27 506.95 488.95 519.18 500.14 530.73C504.5 534.72 503.27 542.78 497.7 545.36Q483.96 549.97 470.21 551.73 456.47 550.45 442.73 546.27 428.99 539.61 415.25 531.17 401.51 521.79 387.76 512.46 374.02 504.12 360.28 497.63 346.54 493.66 332.79 492.61 319.05 494.59 305.31 499.41 291.57 506.55 277.82 515.3C272.25 519.1 267.29 515.59 268.71 508.76Q273.01 489.95 278.02 471.49 283.91 453.46 290.79 435.96 298.71 419.05 307.66 402.77 317.58 387.16 328.33 372.22 339.72 357.94 351.51 344.31 363.43 331.26 375.18 318.74 386.49 306.69 397.06 295.01 410.9 278.02 415.13 272.42" stroke-dasharray="8 3" transform="rotate(60.599999999999994, 400, 400)" opacity="0.62"></path><path d="M415.15 283.21C418.27 279.18 426.12 282.5 428.42 288.87Q433.38 304.89 437.28 321.08 440.21 337.36 442.31 353.66 443.78 369.91 444.84 386.02 445.75 401.91 446.79 417.52 448.22 432.76 450.31 447.58 453.28 461.91 457.34 475.71 462.62 488.93 469.23 501.56 477.18 513.58 486.42 524.98C490.05 528.95 488.6 535.85 483.57 537.49Q471.18 539.91 458.79 539.88 446.4 537.4 434.01 532.68 421.62 526.13 409.23 518.29 396.84 509.84 384.44 501.49 372.05 493.95 359.66 487.86 347.27 483.74 334.88 481.95 322.49 482.62 310.09 485.71 297.7 490.95 285.31 497.9C280.28 501.07 275.95 497.79 277.35 491.71Q281.63 475.05 286.6 458.79 292.37 443 299 427.7 306.5 412.95 314.87 398.75 324.03 385.12 333.88 372.06 344.27 359.53 355.02 347.51 365.92 335.96 376.76 324.82 387.31 314.05 397.35 303.57 410.92 288.26 415.15 283.21" stroke-dasharray="3 6" transform="rotate(64.64, 400, 400)" opacity="0.66"></path><path d="M414.46 294.01C417.58 290.41 424.63 293.46 426.37 299.21Q430.12 313.67 433.07 328.27 435.3 342.96 436.95 357.69 438.17 372.4 439.13 387.03 440.01 401.54 441.02 415.85 442.35 429.92 444.18 443.68 446.7 457.1 450.04 470.13 454.33 482.72 459.64 494.86 466.03 506.51 473.49 517.67C476.42 521.56 474.77 527.34 470.28 528.11Q459.2 528.64 448.13 527.18 437.05 523.86 425.98 518.88 414.9 512.6 403.83 505.45 392.75 497.91 381.68 490.52 370.6 483.78 359.53 478.15 348.45 474.02 337.38 471.68 326.3 471.29 315.22 472.87 304.15 476.31 293.07 481.39C288.58 483.83 284.87 480.68 286.27 475.4Q290.54 460.98 295.44 446.97 301.03 433.38 307.35 420.25 314.39 407.58 322.12 395.37 330.5 383.63 339.44 372.33 348.82 361.45 358.51 350.97 368.37 340.84 378.23 331.04 387.92 321.5 397.3 312.19 410.33 298.53 414.46 294.01" stroke-dasharray="3 5" transform="rotate(68.68, 400, 400)" opacity="0.70"></path><path d="M413.11 304.83C416.14 301.64 422.36 304.4 423.64 309.54Q426.39 322.41 428.57 335.41 430.26 348.5 431.56 361.63 432.58 374.77 433.45 387.89 434.29 400.93 435.26 413.85 436.47 426.62 438.07 439.2 440.18 451.54 442.89 463.62 446.31 475.39 450.5 486.83 455.51 497.92 461.36 508.64C463.68 512.41 461.86 517.11 457.9 517.15Q448.1 516.16 438.31 513.69 428.52 509.86 418.73 504.88 408.93 499.03 399.14 492.62 389.35 486.01 379.55 479.55 369.76 473.6 359.97 468.47 350.18 464.46 340.38 461.78 330.59 460.57 320.8 460.9 311 462.75 301.21 466.03C297.24 467.72 294.14 464.67 295.55 460.19Q299.78 448.02 304.56 436.2 309.91 424.75 315.85 413.68 322.36 402.97 329.42 392.64 336.98 382.66 344.99 373.02 353.35 363.69 361.98 354.66 370.77 345.89 379.6 337.36 388.37 329.02 396.96 320.84 409.17 308.81 413.11 304.83" stroke-dasharray="1 6" transform="rotate(72.72, 400, 400)" opacity="0.73"></path><path d="M411.15 315.66C413.99 312.89 419.4 315.35 420.31 319.86Q422.27 331.15 423.85 342.54 425.12 354 426.14 365.52 427.01 377.06 427.79 388.6 428.59 400.12 429.5 411.57 430.59 422.94 431.97 434.19 433.71 445.31 435.88 456.25 438.56 467 441.79 477.54 445.61 487.84 450.06 497.88C451.82 501.43 449.93 505.18 446.46 504.66Q437.92 502.6 429.38 499.5 420.85 495.5 412.31 490.75 403.77 485.46 395.23 479.84 386.69 474.14 378.16 468.59 369.62 463.41 361.08 458.84 352.54 455.06 344 452.22 326.92 450.4 309.85 452.03C306.38 453.03 303.87 450.05 305.25 446.37Q309.39 436.35 313.97 426.63 319 417.19 324.49 408.04 330.41 399.17 336.75 390.57 343.47 382.23 350.53 374.13 357.87 366.26 365.42 358.6 373.13 351.12 380.9 343.8 388.67 336.62 396.36 329.56 407.51 319.12 411.15 315.66" stroke-dasharray="7 11" transform="rotate(76.76, 400, 400)" opacity="0.77"></path><path d="M408.67 326.49C411.23 324.14 415.85 326.3 416.47 330.16Q418.96 349.63 420.73 369.35 422.18 389.21 423.75 409.05 425.88 428.74 428.99 448.13 433.46 467.09 439.55 485.48C440.84 488.72 438.95 491.62 435.98 490.75Q421.37 484.74 406.76 476.52 392.14 467.09 377.53 457.61 362.91 449.23 348.3 442.97 333.68 439.59 319.06 439.51C316.1 439.9 314.14 437.06 315.48 434.12Q323.71 418.32 333.28 403.35 344.13 389.15 356.07 375.65 368.85 362.76 382.14 350.35 395.55 338.31 408.67 326.49 408.67 326.49 408.67 326.49" stroke-dasharray="10 5" transform="rotate(80.80000000000001, 400, 400)" opacity="0.81"></path><path d="M405.77 337.34C407.99 335.39 411.81 337.22 412.22 340.45Q413.96 356.7 415.34 373.14 416.6 389.72 417.99 406.34 419.78 422.92 422.21 439.39 425.49 455.65 429.8 471.63C430.69 474.46 428.89 476.65 426.42 475.61Q414.24 469.52 402.06 462.24 389.88 454.39 377.69 446.64 365.51 439.64 353.33 433.99 341.14 430.16 328.96 428.49C326.49 428.43 325.02 425.81 326.26 423.54Q333.78 411.29 342.23 399.58 351.54 388.35 361.61 377.56 372.27 367.14 383.34 357.01 400.17 342.22 405.77 337.34" stroke-dasharray="7 2" transform="rotate(84.84, 400, 400)" opacity="0.85"></path><path d="M402.56 348.21C404.39 346.66 407.4 348.15 407.67 350.75Q408.89 363.76 409.97 376.91 411.05 390.17 412.24 403.49 413.69 416.83 415.51 430.16 417.82 443.43 420.72 456.59C421.31 458.95 419.7 460.54 417.73 459.52Q407.96 454.01 398.19 447.98 388.42 441.75 378.65 435.68 368.87 430.07 359.1 425.25 349.33 421.47 339.56 418.95C337.58 418.6 336.53 416.3 337.65 414.61Q344.2 405.5 351.33 396.69 359 388.15 367.15 379.84 375.68 371.74 384.5 363.79 398.03 352.09 402.56 348.21" stroke-dasharray="3 4" transform="rotate(88.88, 400, 400)" opacity="0.89"></path><path d="M399.18 359.08C400.55 357.94 402.79 359.07 402.98 361.02Q404.67 380.64 406.49 400.55 408.88 420.62 412.23 440.69C412.59 442.51 411.28 443.61 409.79 442.75Q395.07 433.75 380.35 424.7 365.64 416.7 350.91 410.72C349.42 410.26 348.73 408.39 349.66 407.22Q360.59 394.59 372.69 382.44 385.66 370.66 399.18 359.08 399.18 359.08 399.18 359.08" stroke-dasharray="3 3" transform="rotate(92.92, 400, 400)" opacity="0.92"></path><path d="M395.74 369.98C396.66 369.21 398.14 369.98 398.26 371.29Q399.44 384.36 400.75 397.59 402.31 410.92 404.24 424.34C404.43 425.55 403.49 426.26 402.5 425.66Q392.63 419.63 382.75 413.74 372.88 408.31 363 403.64C362.01 403.22 361.61 401.88 362.28 401.15Q370.01 393.16 378.22 385.33 391.29 373.8 395.74 369.98" stroke-dasharray="7 10" transform="rotate(96.96, 400, 400)" opacity="0.96"></path></g></svg>