<svg xmlns="http://www.w3.org/2000/svg" version="1.1" xmlns:xlink="http://www.w3.org/1999/xlink" xmlns:svgjs="http://svgjs.dev/svgjs" viewBox="0 0 800 800"><defs><linearGradient x1="50%" y1="0%" x2="50%" y2="100%" id="ccchaos-grad"><stop stop-color="hsl(173.4, 100%, 42%)" stop-opacity="1" offset="0%"></stop><stop stop-color="hsl(173.4, 10%, 42%)" stop-opacity="1" offset="100%"></stop></linearGradient></defs><g stroke-width="2" stroke="url(#ccchaos-grad)" fill="none" stroke-linecap="round"><path d="M381.18 110.13C390.6 107.97 400.04 106.47 409.48 105.66 418.93 105.09 428.4 105.27 437.89 106.2 447.42 107.43 457 109.43 466.63 112.16 476.34 115.21 486.14 118.98 496.03 123.41 506.04 128.11 516.16 133.43 526.39 139.3 536.75 145.37 547.22 151.93 557.75 158.91 568.38 166 579.04 173.45 589.63 181.21 600.22 189 610.64 197.04 620.78 205.3 630.72 213.51 640.2 221.91 649.09 230.46 657.51 238.93 665.14 247.55 671.81 256.28 677.79 264.92 682.64 273.69 686.26 282.57 689.05 291.36 690.55 300.29 690.74 309.34 690.18 318.33 688.42 327.46 685.57 336.73 682.31 345.96 678.26 355.36 673.6 364.91 669.11 374.44 664.44 384.15 659.82 394.04 656 403.91 652.64 413.97 649.89 424.21 648.4 434.44 647.73 444.6 647.85 454.66 649.18 464.72 651.11 474.67 653.5 484.46 656.68 494.24 659.95 503.83 663.11 513.2 666.5 522.52 669.4 531.56 671.62 540.28 673.57 548.9 674.57 557.14 674.53 564.94 673.89 572.58 672.1 579.72 669.17 586.31 665.54 592.69 660.8 598.48 655.04 603.62 648.67 608.52 641.41 612.77 633.37 616.34 624.9 619.7 615.83 622.41 606.28 624.5 596.49 626.48 586.36 627.93 576.01 628.89 565.57 629.94 555.01 630.65 544.4 631.12 533.8 631.91 523.2 632.64 512.66 633.39 502.17 634.72 491.74 636.26 481.41 638.06 471.14 640.62 460.96 643.54 450.87 646.85 440.83 650.94 430.87 655.38 421 660.11 411.16 665.45 401.39 670.91 391.71 676.32 382.03 681.99 372.66 687.19 363.59 691.79 354.51 696.19 345.72 699.71 337.23 702.25 328.71 704.27 320.48 705.14 312.54 704.86 304.56 703.88 296.86 701.71 289.44 698.39 281.96 694.4 274.74 689.34 267.78 683.32 260.72 676.76 253.89 669.39 247.29 661.33 240.56 652.93 234.02 644 227.67 634.66 221.15 625.18 214.8 615.43 208.61 605.49 202.24 595.58 196.01 585.56 189.94 575.53 183.68 565.6 177.59 555.68 171.7 545.8 165.65 536.07 159.83 526.39 154.26 516.76 148.62 507.27 143.28 497.81 138.31 488.39 133.35 479.07 128.81 469.75 124.74 460.42 120.79 451.17 117.36 441.87 114.52 432.55 111.87 423.25 109.84 413.89 108.48 404.48 107.36 395.08 106.92 385.62 107.2 376.1 107.72 366.58 108.92 357.23 110.76 348.08 112.77 338.93 115.37 329.98 118.5 321.26 121.7 312.55 125.37 304.09 129.46 295.9 133.52 287.73 137.94 279.86 142.65 272.3 147.25 264.78 152.11 257.58 157.18 250.75 162.07 243.95 167.16 237.51 172.42 231.44 177.47 225.4 182.7 219.72 188.09 214.42 193.28 209.1 198.66 204.13 204.22 199.51 209.62 194.81 215.25 190.42 221.11 186.32 226.85 182.09 232.85 178.09 239.12 174.33 245.32 170.35 251.82 166.55 258.61 162.91 265.37 159.01 272.43 155.23 279.8 151.58 287.15 147.64 294.8 143.82 302.74 140.14 310.68 136.18 318.9 132.39 327.38 128.81 335.86 125.04 344.59 121.55 353.57 118.39 362.53 115.18 371.74 112.4 381.17 110.13" stroke-dasharray="8 1" transform="rotate(0, 400, 400)" opacity="0.05"></path><path d="M384.12 121.02C393.25 118.87 402.43 117.37 411.63 116.53 420.85 115.9 430.13 115.99 439.44 116.79 448.8 117.88 458.22 119.7 467.71 122.22 477.28 125.04 486.94 128.55 496.67 132.7 506.51 137.12 516.45 142.14 526.45 147.69 536.56 153.45 546.73 159.69 556.91 166.36 567.14 173.15 577.32 180.31 587.39 187.79 597.39 195.31 607.15 203.1 616.58 211.11 625.76 219.11 634.44 227.3 642.49 235.65 650.08 243.94 656.86 252.38 662.71 260.95 667.9 269.44 672.03 278.05 675.01 286.78 677.24 295.43 678.29 304.21 678.16 313.09 677.38 321.92 675.54 330.87 672.72 339.95 669.59 348.99 665.76 358.17 661.4 367.48 657.24 376.77 652.94 386.21 648.67 395.79 645.15 405.36 642.03 415.08 639.46 424.92 638.02 434.77 637.3 444.52 637.3 454.13 638.39 463.74 640.02 473.2 642.07 482.48 644.87 491.74 647.77 500.79 650.6 509.58 653.7 518.32 656.38 526.77 658.49 534.88 660.42 542.89 661.53 550.51 661.71 557.68 661.42 564.72 660.08 571.26 657.7 577.28 654.73 583.1 650.71 588.37 645.73 593.03 640.19 597.5 633.78 601.36 626.6 604.61 619 607.71 610.77 610.23 602.02 612.2 593.02 614.12 583.63 615.58 573.96 616.62 564.16 617.79 554.19 618.68 544.1 619.37 534 620.4 523.85 621.4 513.7 622.44 503.59 624.02 493.5 625.8 483.48 627.82 473.51 630.52 463.6 633.56 453.78 636.92 444 640.98 434.3 645.34 424.7 649.93 415.11 655.07 405.61 660.28 396.2 665.43 386.79 670.82 377.69 675.76 368.89 680.12 360.08 684.33 351.55 687.72 343.32 690.21 335.06 692.24 327.08 693.23 319.37 693.14 311.62 692.43 304.13 690.62 296.9 687.74 289.61 684.24 282.55 679.73 275.73 674.31 268.81 668.37 262.1 661.63 255.59 654.21 248.95 646.44 242.49 638.12 236.2 629.37 229.75 620.45 223.44 611.21 217.3 601.75 210.97 592.25 204.79 582.63 198.76 572.93 192.57 563.3 186.54 553.64 180.71 544 174.74 534.46 169 524.95 163.52 515.48 157.97 506.12 152.74 496.8 147.86 487.51 143.01 478.31 138.58 469.13 134.6 459.96 130.75 450.86 127.42 441.74 124.65 432.62 122.08 423.53 120.12 414.41 118.81 405.27 117.74 396.14 117.34 386.98 117.64 377.8 118.17 368.62 119.37 359.65 121.19 350.88 123.19 342.12 125.76 333.57 128.84 325.27 132.01 316.98 135.63 308.94 139.66 301.18 143.68 293.43 148.03 285.97 152.69 278.83 157.24 271.71 162.05 264.9 167.07 258.44 171.92 252 176.97 245.89 182.18 240.14 187.19 234.39 192.37 228.97 197.7 223.91 202.83 218.8 208.15 214.01 213.63 209.54 218.94 204.98 224.46 200.69 230.18 196.67 235.78 192.5 241.62 188.54 247.7 184.79 253.69 180.83 259.96 177.03 266.49 173.39 272.98 169.48 279.75 165.7 286.81 162.04 293.83 158.11 301.15 154.29 308.75 150.62 316.33 146.7 324.2 142.95 332.33 139.41 340.44 135.7 348.83 132.26 357.47 129.15 366.09 126 374.98 123.26 384.11 121.02" stroke-dasharray="5 11" transform="rotate(4.04, 400, 400)" opacity="0.09"></path><path d="M387.75 131.91C396.59 129.79 405.51 128.28 414.47 127.4 423.45 126.73 432.5 126.73 441.61 127.41 450.76 128.36 460 130 469.29 132.32 478.66 134.91 488.1 138.17 497.62 142.04 507.21 146.17 516.87 150.88 526.58 156.11 536.34 161.55 546.12 167.47 555.86 173.81 565.61 180.28 575.25 187.13 584.72 194.29 594.07 201.52 603.14 209.02 611.81 216.76 620.22 224.51 628.09 232.45 635.31 240.56 642.08 248.65 648.06 256.88 653.13 265.24 657.6 273.54 661.07 281.97 663.47 290.5 665.21 298.98 665.88 307.58 665.48 316.26 664.54 324.91 662.65 333.66 659.9 342.52 656.92 351.35 653.33 360.29 649.28 369.33 645.44 378.37 641.47 387.52 637.55 396.77 634.32 406.02 631.43 415.38 629.02 424.83 627.64 434.29 626.89 443.6 626.76 452.76 627.63 461.91 628.99 470.89 630.72 479.66 633.16 488.4 635.7 496.91 638.2 505.15 641 513.33 643.45 521.2 645.42 528.73 647.29 536.15 648.44 543.19 648.8 549.79 648.28 559.27 641.81 575.5 635.86 582.16 631.08 586.26 625.47 589.81 619.12 592.8 612.35 595.7 604.95 598.08 597.02 599.98 588.81 601.88 580.18 603.38 571.22 604.53 562.12 605.84 552.78 606.92 543.29 607.85 533.74 609.11 524.1 610.36 514.42 611.66 504.75 613.48 495.07 615.47 485.42 617.67 475.8 620.51 466.22 623.62 456.72 627.01 447.24 631.03 437.83 635.3 428.51 639.74 419.21 644.67 409.98 649.65 400.85 654.55 391.72 659.65 382.88 664.33 374.34 668.47 365.79 672.48 357.51 675.74 349.51 678.17 341.49 680.2 333.72 681.27 326.22 681.35 318.67 680.89 311.36 679.41 304.3 676.93 297.16 673.89 290.24 669.9 283.54 665.04 276.74 659.69 270.12 653.57 263.69 646.78 257.13 639.64 250.74 631.94 244.5 623.79 238.11 615.45 231.85 606.76 225.75 597.81 219.48 588.79 213.35 579.6 207.38 570.3 201.26 561.03 195.3 551.69 189.54 542.34 183.67 533.06 178.02 523.79 172.63 514.54 167.21 505.38 162.08 496.24 157.32 487.14 152.59 478.11 148.27 469.1 144.41 460.13 140.67 451.2 137.44 442.28 134.77 433.39 132.28 424.52 130.4 415.64 129.15 406.78 128.13 397.92 127.76 389.07 128.07 380.23 128.62 371.38 129.81 362.76 131.61 354.36 133.59 345.97 136.11 337.81 139.14 329.9 142.26 322 145.83 314.35 149.79 306.98 153.74 299.62 158.04 292.55 162.63 285.78 167.12 279.02 171.87 272.57 176.83 266.45 181.64 260.32 186.64 254.51 191.8 249.04 196.77 243.54 201.9 238.35 207.19 233.49 212.28 228.56 217.53 223.93 222.95 219.58 228.19 215.13 233.62 210.92 239.24 206.96 244.72 202.84 250.42 198.91 256.34 195.17 262.16 191.22 268.23 187.42 274.55 183.77 280.81 179.86 287.33 176.08 294.12 172.41 300.87 168.5 307.89 164.7 315.18 161.05 322.45 157.17 330 153.47 337.81 149.97 345.6 146.33 353.67 142.95 361.99 139.9 370.31 136.8 378.89 134.12 387.74 131.91" stroke-dasharray="0 1" transform="rotate(8.08, 400, 400)" opacity="0.13"></path><path d="M391.9 142.79C400.46 140.71 409.11 139.2 417.82 138.3 426.54 137.58 435.35 137.5 444.22 138.06 453.13 138.88 462.12 140.35 471.17 142.46 480.27 144.83 489.44 147.84 498.67 151.43 507.94 155.27 517.25 159.67 526.57 164.58 535.91 169.69 545.23 175.27 554.46 181.26 563.65 187.4 572.7 193.91 581.51 200.75 590.17 207.66 598.51 214.85 606.42 222.28 614.05 229.75 621.12 237.42 627.54 245.26 633.53 253.09 638.74 261.08 643.1 269.19 646.9 277.28 649.78 285.48 651.66 293.79 652.99 302.06 653.34 310.43 652.72 318.89 651.67 327.32 649.78 335.85 647.12 344.46 644.3 353.04 640.96 361.72 637.21 370.48 633.69 379.23 630.06 388.07 626.46 396.99 623.5 405.9 620.84 414.89 618.58 423.94 617.26 432.98 616.49 441.87 616.25 450.57 616.92 459.26 618.02 467.75 619.45 476.02 621.54 484.25 623.75 492.24 625.92 499.93 628.41 507.58 630.62 514.91 632.42 521.88 634.19 528.76 635.34 535.26 635.8 541.34 635.63 550.06 630.48 564.96 625.45 571.07 621.37 574.86 616.51 578.16 610.92 580.96 604.96 583.7 598.36 586 591.22 587.87 583.8 589.79 575.94 591.36 567.72 592.65 559.34 594.1 550.67 595.38 541.81 596.54 532.87 598.03 523.8 599.52 514.64 601.06 505.46 603.08 496.24 605.26 487.02 607.63 477.8 610.57 468.61 613.74 459.46 617.14 450.33 621.1 441.25 625.26 432.24 629.55 423.24 634.28 414.31 639.02 405.47 643.66 396.62 648.49 388.05 652.91 379.76 656.83 371.46 660.64 363.42 663.76 355.64 666.12 347.84 668.14 340.27 669.27 332.96 669.51 325.59 669.26 318.44 668.07 311.52 665.96 304.53 663.34 297.73 659.84 291.13 655.51 284.43 650.73 277.9 645.21 271.54 639.03 265.06 632.51 258.72 625.44 252.53 617.89 246.2 610.14 240 602.02 233.95 593.62 227.74 585.12 221.68 576.41 215.77 567.55 209.73 558.69 203.86 549.74 198.19 540.74 192.43 531.78 186.89 522.79 181.61 513.82 176.32 504.91 171.32 496.01 166.68 487.14 162.09 478.33 157.9 469.55 154.16 460.8 150.55 452.09 147.43 443.4 144.86 434.75 142.47 426.12 140.67 417.51 139.48 408.93 138.51 400.36 138.18 391.8 138.51 383.29 139.06 374.78 140.25 366.49 142.02 358.46 143.96 350.42 146.44 342.62 149.4 335.08 152.46 327.54 155.96 320.26 159.84 313.26 163.73 306.25 167.95 299.53 172.45 293.1 176.89 286.67 181.57 280.54 186.46 274.71 191.22 268.86 196.16 263.32 201.27 258.08 206.2 252.8 211.29 247.81 216.53 243.11 221.58 238.35 226.79 233.84 232.14 229.59 237.33 225.23 242.68 221.09 248.21 217.17 253.6 213.09 259.19 209.18 264.98 205.45 270.66 201.51 276.57 197.71 282.7 194.04 288.77 190.15 295.08 186.36 301.63 182.7 308.14 178.81 314.91 175.04 321.93 171.42 328.93 167.59 336.19 163.94 343.71 160.5 351.21 156.93 358.98 153.62 367.01 150.63 375.03 147.6 383.33 144.97 391.89 142.8" stroke-dasharray="1 4" transform="rotate(12.12, 400, 400)" opacity="0.16"></path><path d="M396.4 153.68C404.68 151.63 413.05 150.13 421.49 149.2 429.94 148.44 438.47 148.29 447.06 148.75 455.69 149.43 464.39 150.74 473.14 152.65 481.92 154.81 490.76 157.56 499.62 160.88 508.51 164.43 517.41 168.51 526.27 173.1 535.13 177.87 543.92 183.11 552.58 188.75 561.17 194.54 569.56 200.7 577.69 207.18 585.64 213.75 593.24 220.61 600.38 227.71 607.24 234.86 613.54 242.22 619.19 249.76 624.44 257.31 628.94 265.01 632.64 272.85 635.85 280.67 638.19 288.62 639.63 296.66 640.6 304.69 640.69 312.81 639.92 321.01 638.79 329.19 636.93 337.45 634.39 345.79 631.76 354.1 628.65 362.5 625.21 370.95 621.99 379.39 618.68 387.91 615.4 396.47 612.7 405.02 610.25 413.63 608.15 422.26 606.88 430.9 606.09 439.35 605.76 447.59 606.25 455.82 607.11 463.84 608.26 471.61 610.03 479.35 611.9 486.83 613.76 494.01 615.95 501.15 617.9 507.96 619.52 514.42 621.71 523.8 622.85 540.45 621.47 547.62 618.8 554.2 609.02 564.95 602.05 569.16 596.83 571.8 590.99 574.05 584.62 575.94 577.98 577.9 570.87 579.57 563.39 581 555.73 582.62 547.77 584.09 539.56 585.46 531.27 587.16 522.79 588.87 514.19 590.63 505.56 592.84 496.84 595.18 488.09 597.68 479.34 600.69 470.56 603.9 461.81 607.29 453.06 611.18 444.34 615.22 435.67 619.35 427.01 623.87 418.4 628.38 409.85 632.77 401.3 637.33 393 641.51 384.97 645.21 376.91 648.82 369.11 651.79 361.54 654.08 353.95 656.06 346.58 657.24 339.43 657.6 332.23 657.54 325.24 656.61 318.45 654.84 311.58 652.61 304.9 649.56 298.39 645.73 291.79 641.49 285.35 636.54 279.05 630.95 272.65 625.04 266.38 618.58 260.24 611.65 253.98 604.5 247.85 596.97 241.85 589.12 235.73 581.17 229.75 572.97 223.92 564.61 217.98 556.21 212.22 547.68 206.65 539.08 201.01 530.49 195.6 521.86 190.46 513.22 185.31 504.61 180.46 496 175.96 487.42 171.52 478.88 167.48 470.35 163.87 461.86 160.39 453.41 157.4 444.98 154.93 436.6 152.66 428.23 150.93 419.9 149.81 411.61 148.9 403.33 148.61 395.09 148.95 386.9 149.51 378.71 150.67 370.76 152.4 363.06 154.31 355.36 156.73 347.9 159.62 340.71 162.61 333.51 166.03 326.57 169.81 319.9 173.62 313.22 177.75 306.82 182.17 300.7 186.53 294.56 191.13 288.71 195.95 283.14 200.65 277.54 205.53 272.23 210.57 267.19 215.46 262.11 220.5 257.29 225.68 252.73 230.7 248.09 235.86 243.69 241.15 239.52 246.29 235.24 251.59 231.15 257.04 227.26 262.35 223.21 267.85 219.33 273.52 215.59 279.09 211.67 284.86 207.87 290.84 204.2 296.74 200.32 302.87 196.55 309.22 192.9 315.52 189.04 322.07 185.31 328.86 181.73 335.61 177.96 342.61 174.37 349.87 170.99 357.1 167.5 364.6 164.26 372.35 161.34 380.1 158.39 388.11 155.82 396.39 153.69" stroke-dasharray="4 4" transform="rotate(16.16, 400, 400)" opacity="0.20"></path><path d="M401.05 164.57C409.05 162.56 417.12 161.07 425.26 160.12 433.42 159.33 441.64 159.11 449.93 159.47 458.23 160.03 466.59 161.18 474.99 162.89 483.4 164.84 491.85 167.35 500.29 170.39 508.73 173.66 517.16 177.43 525.51 181.69 533.83 186.13 542.04 191.01 550.09 196.29 558.04 201.72 565.76 207.52 573.18 213.63 580.42 219.84 587.27 226.34 593.66 233.09 599.77 239.89 605.33 246.91 610.26 254.12 614.82 261.35 618.68 268.74 621.78 276.26 624.45 283.79 626.33 291.44 627.4 299.19 628.07 306.93 627.95 314.77 627.07 322.67 625.91 330.57 624.11 338.54 621.72 346.57 619.27 354.59 616.42 362.67 613.27 370.79 610.36 378.91 607.35 387.07 604.36 395.26 601.91 403.44 599.67 411.66 597.71 419.87 596.51 428.08 595.7 436.09 595.28 443.88 595.61 451.66 596.25 459.21 597.14 466.5 598.61 473.77 600.17 480.77 601.73 487.46 603.62 494.11 605.31 500.45 606.72 506.43 608.72 515.14 609.98 530.54 608.94 537.18 606.8 543.3 598.56 553.42 592.54 557.46 588 560.04 582.87 562.28 577.22 564.21 571.32 566.24 564.95 568.02 558.18 569.6 551.25 571.38 543.98 573.04 536.45 574.62 528.81 576.52 520.96 578.42 512.95 580.38 504.9 582.74 496.72 585.22 488.48 587.82 480.22 590.89 471.9 594.11 463.58 597.47 455.25 601.27 446.92 605.19 438.62 609.15 430.32 613.46 422.04 617.73 413.8 621.88 405.57 626.18 397.56 630.11 389.78 633.59 381.99 637.01 374.41 639.84 367.06 642.03 359.68 643.98 352.49 645.19 345.51 645.65 338.49 645.75 331.64 645.05 324.98 643.58 318.24 641.71 311.67 639.07 305.26 635.7 298.76 631.97 292.4 627.56 286.18 622.54 279.86 617.21 273.67 611.35 267.61 605.02 261.43 598.48 255.38 591.54 249.46 584.28 243.44 576.88 237.55 569.23 231.82 561.39 226.01 553.48 220.36 545.42 214.92 537.27 209.43 529.1 204.17 520.87 199.17 512.6 194.19 504.35 189.5 496.08 185.16 487.82 180.88 479.59 177 471.37 173.53 463.18 170.21 455.02 167.35 446.88 164.99 438.79 162.83 430.72 161.2 422.68 160.14 414.7 159.29 406.72 159.03 398.79 159.38 390.93 159.95 383.06 161.09 375.44 162.78 368.07 164.63 360.7 166.99 353.57 169.8 346.7 172.71 339.82 176.03 333.19 179.72 326.83 183.43 320.45 187.47 314.34 191.78 308.49 196.05 302.62 200.57 297.01 205.29 291.68 209.91 286.3 214.72 281.18 219.69 276.32 224.53 271.41 229.51 266.73 234.63 262.29 239.6 257.77 244.71 253.45 249.95 249.35 255.05 245.13 260.28 241.09 265.66 237.22 270.91 233.2 276.33 229.33 281.9 225.61 287.37 221.7 293.03 217.91 298.87 214.24 304.63 210.38 310.6 206.63 316.78 203.01 322.9 199.19 329.25 195.5 335.82 191.97 342.35 188.27 349.13 184.75 356.14 181.45 363.12 178.04 370.36 174.88 377.84 172.04 385.32 169.17 393.05 166.66 401.04 164.57" stroke-dasharray="3 0" transform="rotate(20.200000000000003, 400, 400)" opacity="0.24"></path><path d="M405.66 175.46C413.36 173.49 421.13 172.02 428.95 171.06 436.78 170.24 444.67 169.96 452.6 170.22 460.55 170.66 468.53 171.66 476.52 173.19 484.53 174.93 492.53 177.2 500.5 179.98 508.46 182.96 516.36 186.43 524.15 190.36 531.9 194.46 539.5 198.99 546.9 203.91 554.2 208.97 561.23 214.39 567.94 220.12 574.47 225.96 580.6 232.08 586.26 238.45 591.66 244.88 596.53 251.54 600.79 258.38 604.71 265.26 607.99 272.31 610.56 279.49 612.76 286.69 614.25 294.01 615 301.42 615.43 308.85 615.16 316.36 614.22 323.94 613.06 331.52 611.34 339.17 609.11 346.86 606.86 354.56 604.27 362.3 601.4 370.06 598.78 377.83 596.06 385.63 593.36 393.43 591.14 401.23 589.09 409.04 587.27 416.83 586.13 424.61 585.31 432.19 584.83 439.53 585.01 446.87 585.45 453.96 586.11 460.8 587.29 467.61 588.56 474.15 589.83 480.39 592.14 489.54 595.82 506.13 596.76 513.51 597.07 520.45 594.56 532.38 591.61 537.38 587.63 542 576.28 549.62 569.06 552.74 563.85 554.85 558.18 556.75 552.11 558.48 545.88 560.41 539.3 562.25 532.43 564.02 525.45 566.09 518.24 568.17 510.83 570.29 503.37 572.78 495.76 575.37 488.05 578.05 480.3 581.14 472.48 584.35 464.61 587.67 456.74 591.37 448.82 595.15 440.91 598.95 432.99 603.05 425.07 607.09 417.17 610.99 409.26 615.04 401.55 618.72 394.04 622 386.52 625.21 379.19 627.89 372.05 630 364.88 631.88 357.9 633.11 351.08 633.65 344.23 633.88 337.54 633.39 331 632.19 324.41 630.63 317.96 628.37 311.65 625.44 305.26 622.17 299 618.27 292.88 613.8 286.66 609.03 280.56 603.75 274.58 598.01 268.51 592.06 262.56 585.71 256.75 579.04 250.84 572.22 245.08 565.13 239.47 557.82 233.8 550.44 228.31 542.89 223.01 535.21 217.69 527.51 212.6 519.71 207.77 511.86 202.96 504.02 198.45 496.13 194.28 488.24 190.19 480.36 186.47 472.48 183.16 464.63 180 456.79 177.28 448.98 175.05 441.21 173 433.45 171.46 425.73 170.47 418.06 169.69 410.4 169.46 402.79 169.82 395.25 170.38 387.71 171.5 380.41 173.14 373.36 174.94 366.3 177.22 359.49 179.94 352.92 182.76 346.34 185.98 340.01 189.55 333.92 193.16 327.83 197.08 321.97 201.28 316.37 205.45 310.74 209.86 305.36 214.47 300.22 219.01 295.05 223.73 290.1 228.62 285.39 233.38 280.62 238.3 276.07 243.35 271.73 248.27 267.3 253.32 263.07 258.49 259.02 263.53 254.86 268.71 250.86 274.02 247.01 279.21 243.03 284.55 239.17 290.03 235.46 295.41 231.57 300.97 227.8 306.68 224.15 312.33 220.32 318.15 216.61 324.17 213.02 330.13 209.25 336.3 205.62 342.67 202.15 349 198.53 355.56 195.09 362.34 191.87 369.09 188.55 376.08 185.49 383.29 182.72 390.5 179.94 397.96 177.5 405.65 175.46" stroke-dasharray="1 1" transform="rotate(24.24, 400, 400)" opacity="0.28"></path><path d="M410.03 186.35C417.41 184.43 424.86 182.98 432.34 182.01 439.82 181.17 447.35 180.84 454.89 181 462.44 181.34 470.01 182.19 477.56 183.54 485.11 185.09 492.63 187.13 500.09 189.65 507.52 192.35 514.87 195.52 522.08 199.12 529.22 202.89 536.2 207.07 542.94 211.61 549.58 216.3 555.93 221.34 561.94 226.68 567.78 232.13 573.21 237.86 578.19 243.83 582.92 249.88 587.14 256.15 590.79 262.61 594.15 269.11 596.9 275.78 599.01 282.59 600.81 289.43 601.97 296.39 602.47 303.45 602.71 310.52 602.33 317.68 601.37 324.9 600.25 332.14 598.63 339.43 596.57 346.77 594.53 354.1 592.18 361.48 589.6 368.87 587.25 376.27 584.82 383.68 582.38 391.08 580.38 398.49 578.52 405.88 576.84 413.24 575.75 420.6 574.94 427.74 574.4 434.64 574.44 441.54 574.71 448.2 575.15 454.6 576.07 460.98 577.06 467.08 578.06 472.9 579.96 481.43 583.03 496.89 583.83 503.77 583.15 515.88 576.29 530.76 571.83 534.64 566.5 538.33 553.09 544.75 545.17 547.64 539.6 549.72 533.68 551.72 527.46 553.66 521.14 555.89 514.56 558.11 507.76 560.37 500.9 562.96 493.86 565.62 486.69 568.36 479.49 571.46 472.17 574.64 464.78 577.89 457.37 581.48 449.9 585.11 442.4 588.74 434.89 592.63 427.35 596.44 419.79 600.1 412.24 603.9 404.84 607.35 397.62 610.41 390.38 613.43 383.31 615.96 376.39 617.96 369.46 619.79 362.68 621.01 356.04 621.61 349.38 621.95 342.85 621.63 336.46 620.67 330.02 619.4 323.7 617.48 317.51 614.95 311.26 612.11 305.12 608.69 299.1 604.72 293.01 600.49 287.02 595.77 281.16 590.59 275.22 585.22 269.4 579.46 263.71 573.36 257.95 567.13 252.34 560.6 246.88 553.85 241.38 547.01 236.05 539.99 230.92 532.82 225.79 525.61 220.89 518.28 216.24 510.88 211.64 503.48 207.32 496.01 203.34 488.52 199.44 481.04 195.9 473.54 192.76 466.05 189.76 458.58 187.19 451.11 185.09 443.69 183.16 436.27 181.72 428.88 180.8 421.55 180.08 414.22 179.89 406.94 180.25 399.73 180.82 392.52 181.9 385.54 183.49 378.8 185.23 372.05 187.42 365.54 190.04 359.26 192.77 352.97 195.87 346.91 199.32 341.09 202.81 335.25 206.61 329.64 210.67 324.26 214.72 318.85 219.01 313.67 223.51 308.71 227.94 303.71 232.56 298.92 237.34 294.35 242.03 289.71 246.86 285.26 251.82 281.01 256.67 276.67 261.65 272.51 266.75 268.51 271.73 264.4 276.84 260.44 282.07 256.62 287.2 252.67 292.45 248.84 297.84 245.14 303.14 241.29 308.59 237.55 314.2 233.92 319.72 230.14 325.42 226.47 331.28 222.92 337.09 219.23 343.09 215.67 349.27 212.26 355.42 208.73 361.76 205.39 368.31 202.25 374.83 199.03 381.57 196.07 388.52 193.38 395.47 190.69 402.63 188.33 410.02 186.35" stroke-dasharray="1 0" transform="rotate(28.28, 400, 400)" opacity="0.32"></path><path d="M413.96 197.24C421.02 195.37 428.12 193.96 435.24 192.98 442.35 192.12 449.49 191.74 456.62 191.82 463.75 192.06 470.87 192.77 477.94 193.96 485.01 195.31 492.02 197.13 498.94 199.4 505.82 201.84 512.59 204.71 519.2 207.99 525.74 211.43 532.08 215.25 538.17 219.43 544.15 223.75 549.83 228.4 555.18 233.34 560.35 238.39 565.13 243.72 569.47 249.29 573.59 254.93 577.22 260.8 580.32 266.85 583.18 272.95 585.47 279.22 587.19 285.64 588.65 292.08 589.54 298.65 589.84 305.32 589.94 312.01 589.5 318.79 588.55 325.64 587.49 332.49 586 339.41 584.12 346.36 582.29 353.32 580.18 360.31 577.87 367.31 575.78 374.31 573.62 381.33 571.43 388.32 569.64 395.32 567.95 402.29 566.4 409.22 565.38 416.15 564.57 422.87 563.98 429.35 563.91 435.82 564.01 442.06 564.27 448.04 565.32 456.86 567.93 473.11 569.16 480.49 570.83 493.82 569.59 510.78 567.47 515.39 564.62 519.76 556.18 527.35 550.65 530.68 544.44 534.03 529.83 540.39 521.58 543.55 515.88 545.9 509.91 548.25 503.71 550.61 497.44 553.27 490.98 555.99 484.35 558.75 477.7 561.83 470.9 564.96 463.99 568.13 457.08 571.6 450.06 575.08 442.98 578.52 435.9 582.2 428.76 585.78 421.57 589.22 414.38 592.76 407.32 595.98 400.4 598.84 393.46 601.67 386.66 604.05 379.99 605.94 373.31 607.7 366.74 608.9 360.31 609.55 353.85 609.97 347.5 609.8 341.28 609.04 335.01 608.03 328.85 606.42 322.81 604.24 316.71 601.8 310.72 598.82 304.83 595.32 298.89 591.6 293.05 587.4 287.33 582.77 281.55 577.96 275.88 572.76 270.34 567.24 264.77 561.57 259.32 555.62 254.04 549.43 248.73 543.14 243.6 536.66 238.67 530.01 233.75 523.32 229.06 516.49 224.62 509.57 220.23 502.63 216.12 495.62 212.34 488.56 208.64 481.5 205.3 474.42 202.34 467.32 199.51 460.24 197.1 453.15 195.13 446.09 193.32 439.03 191.98 432 191.14 425.02 190.48 418.04 190.32 411.1 190.69 404.22 191.25 397.34 192.3 390.68 193.82 384.25 195.49 377.81 197.6 371.58 200.11 365.58 202.73 359.57 205.71 353.77 209.02 348.19 212.38 342.59 216.03 337.21 219.95 332.04 223.87 326.83 228.03 321.83 232.38 317.04 236.7 312.2 241.2 307.56 245.85 303.1 250.43 298.58 255.16 294.24 260.02 290.07 264.78 285.81 269.67 281.71 274.68 277.77 279.59 273.71 284.62 269.8 289.76 266.01 294.8 262.1 299.97 258.31 305.27 254.64 310.48 250.83 315.82 247.13 321.3 243.55 326.71 239.82 332.28 236.21 337.99 232.73 343.65 229.11 349.48 225.63 355.48 222.31 361.43 218.88 367.57 215.63 373.89 212.59 380.19 209.49 386.68 206.62 393.35 204.04 400.02 201.44 406.89 199.16 413.95 197.24" stroke-dasharray="2 2" transform="rotate(32.32, 400, 400)" opacity="0.35"></path><path d="M417.3 208.12C424.02 206.32 430.75 204.94 437.48 203.97 444.2 203.1 450.92 202.67 457.61 202.68 464.3 202.82 470.95 203.41 477.53 204.44 484.09 205.61 490.57 207.22 496.94 209.25 503.26 211.43 509.45 214.01 515.45 216.98 521.38 220.09 527.09 223.57 532.55 227.39 537.9 231.33 542.95 235.59 547.65 240.14 552.21 244.79 556.38 249.7 560.14 254.85 563.7 260.08 566.81 265.53 569.43 271.16 571.84 276.85 573.74 282.7 575.13 288.7 576.31 294.73 576.98 300.89 577.14 307.15 577.15 313.44 576.68 319.81 575.77 326.25 574.79 332.7 573.44 339.22 571.75 345.76 570.12 352.32 568.26 358.9 566.21 365.5 564.37 372.09 562.46 378.69 560.51 385.27 558.92 391.85 557.39 398.4 555.97 404.91 555 411.41 554.2 417.7 553.58 423.77 553.39 432.75 554.17 449.49 554.93 457.23 556.06 464.68 557.88 478.21 558.32 484.28 557.74 495.17 552.69 509.07 549.36 512.93 545.38 516.7 535.11 523.63 528.91 526.89 522.18 530.33 507 537.34 498.68 541.01 493 543.71 487.09 546.45 481.01 549.21 474.89 552.25 468.62 555.31 462.2 558.39 455.78 561.72 449.24 565.04 442.6 568.3 435.95 571.76 429.22 575.12 422.42 578.33 415.62 581.63 408.91 584.63 402.31 587.28 395.7 589.92 389.18 592.15 382.78 593.93 376.37 595.6 370.05 596.78 363.84 597.45 357.6 597.94 351.47 597.89 345.43 597.31 339.37 596.51 333.39 595.18 327.52 593.32 321.61 591.24 315.78 588.66 310.07 585.61 304.31 582.35 298.64 578.64 293.09 574.53 287.5 570.26 282.02 565.61 276.67 560.63 271.3 555.53 266.06 550.14 260.98 544.5 255.9 538.77 250.99 532.83 246.28 526.72 241.59 520.55 237.12 514.24 232.91 507.82 228.75 501.37 224.87 494.83 221.29 488.23 217.82 481.63 214.67 474.97 211.9 468.3 209.25 461.63 207 454.94 205.16 448.27 203.49 441.6 202.25 434.94 201.48 428.32 200.88 421.7 200.76 415.11 201.13 408.57 201.67 402.03 202.69 395.7 204.14 389.57 205.74 383.43 207.76 377.49 210.15 371.76 212.64 366.02 215.49 360.47 218.65 355.13 221.87 349.77 225.38 344.59 229.14 339.62 232.91 334.61 236.91 329.78 241.11 325.14 245.28 320.46 249.64 315.94 254.15 311.6 258.61 307.2 263.21 302.95 267.94 298.86 272.6 294.69 277.38 290.66 282.28 286.77 287.09 282.78 292.02 278.92 297.05 275.18 302 271.32 307.07 267.58 312.25 263.95 317.36 260.2 322.58 256.56 327.93 253.03 333.22 249.38 338.65 245.84 344.2 242.43 349.71 238.91 355.37 235.52 361.17 232.3 366.93 228.98 372.86 225.84 378.94 222.9 385 219.92 391.23 217.16 397.63 214.67 404.01 212.18 410.57 209.98 417.29 208.13" stroke-dasharray="5 4" transform="rotate(36.36, 400, 400)" opacity="0.39"></path><path d="M419.89 219.01C426.25 217.28 432.6 215.93 438.92 214.97 445.24 214.1 451.53 213.63 457.76 213.57 470.21 213.82 482.38 215.73 494.02 219.19 505.51 223.19 516.3 228.69 526.1 235.49 535.49 242.75 543.63 251.19 550.25 260.57 556.22 270.26 560.49 280.76 562.89 291.84 564.67 303.09 564.69 314.82 563.06 326.83 561.3 338.91 558.39 351.22 554.62 363.55 553.02 369.73 551.34 375.91 549.62 382.06 548.21 388.22 546.83 394.35 545.53 400.43 544.23 409.45 542.86 426.44 542.71 434.38 543.58 444.8 544.41 454.29 544.92 462.78 546.03 471.25 546.24 478.75 545.3 485.28 544.26 491.88 541.73 497.64 537.68 502.61 533.21 507.9 527.18 512.65 519.74 516.98 511.93 521.96 502.85 526.8 492.73 531.55 482.41 537.22 471.23 542.96 459.41 548.66 453.47 551.84 447.4 554.99 441.21 558.07 435.02 561.32 428.71 564.46 422.31 567.44 415.91 570.51 409.57 573.28 403.31 575.74 397.04 578.19 390.84 580.26 384.73 581.94 372.47 584.98 360.5 586.18 348.9 585.49 337.21 584.08 325.81 580.72 314.81 575.59 303.69 569.75 292.95 562.31 282.71 553.55 272.42 544.31 262.7 533.99 253.74 522.89 244.91 511.57 236.99 499.67 230.21 487.44 223.81 475.15 218.73 462.63 215.2 450.09 213.65 443.83 212.52 437.56 211.82 431.31 211.29 425.06 211.2 418.84 211.56 412.64 212.1 406.45 213.07 400.44 214.46 394.62 215.98 388.79 217.89 383.14 220.16 377.67 224.98 366.71 231.08 356.44 238.22 346.89 245.44 337.22 253.51 328.18 262.24 319.78 270.81 311.15 279.95 303.05 289.52 295.49 298.83 287.57 308.6 280.08 318.74 273.06 328.65 265.6 339.02 258.56 349.82 252.03 360.47 245.11 371.65 238.76 383.33 233.18 389.15 230.32 395.11 227.68 401.2 225.29 407.29 222.9 413.52 220.8 419.88 219.02" stroke-dasharray="9 6" transform="rotate(40.400000000000006, 400, 400)" opacity="0.43"></path><path d="M421.63 229.9C433.61 226.63 445.44 224.84 456.97 224.51 468.48 224.58 479.61 226.19 490.15 229.23 500.54 232.74 510.18 237.64 518.83 243.76 527.11 250.29 534.2 257.94 539.86 266.48 544.99 275.32 548.58 284.94 550.51 295.14 551.98 305.51 551.93 316.36 550.43 327.49 548.91 338.7 546.39 350.14 543.11 361.61 540.55 373.12 537.8 384.62 535.09 395.94 533.76 407.26 532.75 417.84 532.04 427.58 532.53 437.3 532.95 446.18 533.08 454.17 533.8 462.16 533.75 469.31 532.73 475.6 531.73 482 529.43 487.68 525.82 492.69 521.91 498.01 516.61 502.89 510.02 507.38 503.12 512.47 495.03 517.41 485.93 522.23 476.64 527.85 466.48 533.45 455.63 538.95 444.72 545.16 433.21 551.12 421.24 556.55 409.27 562.27 397.43 566.79 385.83 569.96 374.22 572.84 362.81 574.05 351.7 573.59 340.54 572.53 329.64 569.72 319.09 565.29 308.49 560.26 298.24 553.74 288.48 545.97 278.73 537.77 269.55 528.52 261.1 518.48 252.82 508.22 245.42 497.34 239.11 486.08 233.17 474.75 228.48 463.14 225.24 451.44 222.55 439.74 221.42 427.98 222 416.31 223.18 404.64 225.96 393.59 230.14 383.2 234.69 372.78 240.46 362.96 247.21 353.79 254.08 344.5 261.78 335.76 270.12 327.6 278.37 319.22 287.17 311.31 296.4 303.9 305.44 296.17 314.9 288.84 324.72 281.95 334.35 274.7 344.39 267.85 354.8 261.52 365.09 254.86 375.83 248.77 386.97 243.42 398.07 237.94 409.64 233.35 421.62 229.9" stroke-dasharray="10 1" transform="rotate(44.44, 400, 400)" opacity="0.47"></path><path d="M422.44 240.79C433.64 237.66 444.61 235.9 455.2 235.48 465.75 235.41 475.86 236.74 485.34 239.37 494.67 242.43 503.23 246.75 510.81 252.21 518.08 258.04 524.22 264.9 529.04 272.62 533.45 280.61 536.48 289.36 538.06 298.67 539.3 308.14 539.22 318.08 537.9 328.32 536.63 338.64 534.49 349.19 531.66 359.8 529.49 370.43 527.1 381.08 524.66 391.58 523.39 402.08 522.32 411.9 521.44 420.98 521.59 430.04 521.64 438.36 521.43 445.9 521.78 453.45 521.47 460.27 520.34 466.36 519.3 472.57 517.16 478.18 513.88 483.21 510.41 488.54 505.72 493.49 499.85 498.1 493.76 503.24 486.56 508.22 478.38 513.05 470.06 518.56 460.87 523.99 450.95 529.24 440.99 535.09 430.38 540.65 419.26 545.66 408.14 550.93 397.05 555.08 386.13 557.99 375.2 560.7 364.41 561.91 353.87 561.62 343.31 560.86 332.96 558.52 322.95 554.73 312.92 550.43 303.23 544.76 294.03 537.92 284.87 530.7 276.26 522.47 268.38 513.46 260.68 504.23 253.82 494.37 247.99 484.09 242.53 473.73 238.23 463.04 235.29 452.2 232.85 441.35 231.85 430.38 232.44 419.44 233.56 408.5 236.18 398.08 240.09 388.24 244.36 378.36 249.77 369.01 256.13 360.22 262.61 351.32 269.9 342.9 277.81 334.99 285.68 326.89 294.1 319.21 302.93 311.98 311.63 304.47 320.74 297.34 330.17 290.64 339.46 283.62 349.12 277.01 359.09 270.9 368.96 264.53 379.22 258.72 389.79 253.62 400.33 248.43 411.24 244.08 422.44 240.79" stroke-dasharray="10 8" transform="rotate(48.48, 400, 400)" opacity="0.51"></path><path d="M422.29 251.68C432.68 248.7 442.77 246.98 452.42 246.49 462.04 246.29 471.15 247.37 479.61 249.64 487.94 252.25 495.49 256.04 502.1 260.86 508.46 266.01 513.76 272.12 517.88 279.04 521.68 286.19 524.25 294.07 525.56 302.49 526.65 311.06 526.6 320.1 525.48 329.44 524.47 338.86 522.68 348.51 520.29 358.24 518.47 368.01 516.41 377.81 514.22 387.5 513.03 397.18 511.92 406.28 510.9 414.72 510.77 423.15 510.5 430.94 509.98 438.05 509.98 445.19 509.41 451.71 508.15 457.61 507.03 463.63 504.98 469.15 501.95 474.17 498.82 479.48 494.62 484.46 489.38 489.13 483.97 494.25 477.55 499.21 470.23 504 462.78 509.34 454.49 514.56 445.48 519.54 436.42 525.02 426.71 530.17 416.45 534.77 406.19 539.59 395.9 543.38 385.69 546.05 375.5 548.56 365.39 549.74 355.48 549.6 345.57 549.07 335.86 547.14 326.45 543.91 317.05 540.27 307.99 535.37 299.39 529.4 290.87 523.09 282.89 515.83 275.6 507.81 268.5 499.59 262.2 490.72 256.88 481.41 251.9 472.01 248 462.25 245.35 452.28 243.16 442.29 242.29 432.14 242.87 421.94 243.95 411.75 246.39 401.98 250.03 392.7 254 383.38 259.04 374.51 264.96 366.12 271.03 357.63 277.88 349.56 285.32 341.94 292.76 334.15 300.74 326.73 309.12 319.71 317.42 312.48 326.11 305.59 335.09 299.11 343.98 292.37 353.19 286.03 362.67 280.18 372.07 274.13 381.79 268.62 391.74 263.79 401.68 258.89 411.89 254.79 422.29 251.68" stroke-dasharray="10 2" transform="rotate(52.52, 400, 400)" opacity="0.54"></path><path d="M421.18 262.57C430.75 259.75 439.95 258.09 448.69 257.54 457.38 257.23 465.54 258.08 473.04 260 480.43 262.22 487.06 265.5 492.81 269.72 498.35 274.21 502.94 279.6 506.46 285.74 509.75 292.08 511.97 299.1 513.09 306.65 514.08 314.34 514.1 322.48 513.2 330.92 512.43 339.44 510.98 348.2 508.98 357.07 507.49 365.96 505.73 374.92 503.78 383.81 502.67 392.71 501.54 401.09 500.42 408.92 500.05 416.74 499.51 424.03 498.73 430.73 498.42 437.47 497.61 443.7 496.21 449.4 494.99 455.22 492.98 460.62 490.13 465.6 487.26 470.84 483.45 475.79 478.73 480.46 473.91 485.51 468.18 490.39 461.61 495.06 454.95 500.19 447.5 505.16 439.36 509.85 431.17 514.94 422.33 519.68 412.94 523.89 403.54 528.27 394.06 531.7 384.62 534.13 375.2 536.44 365.82 537.57 356.61 537.53 347.41 537.19 338.38 535.62 329.65 532.88 320.94 529.81 312.56 525.62 304.62 520.43 296.78 514.97 289.45 508.62 282.79 501.53 276.32 494.27 270.6 486.37 265.78 478 261.28 469.56 257.78 460.72 255.42 451.62 253.47 442.5 252.73 433.17 253.31 423.73 254.32 414.3 256.58 405.19 259.94 396.49 263.6 387.76 268.26 379.39 273.73 371.43 279.37 363.39 285.73 355.7 292.67 348.39 299.64 340.95 307.12 333.84 314.99 327.1 322.82 320.17 331.03 313.57 339.5 307.36 347.92 300.95 356.62 294.92 365.54 289.36 374.42 283.66 383.55 278.46 392.84 273.93 402.12 269.34 411.6 265.5 421.18 262.57" stroke-dasharray="4 2" transform="rotate(56.56, 400, 400)" opacity="0.58"></path><path d="M419.16 273.45C427.89 270.82 436.22 269.22 444.06 268.63 451.86 268.23 459.12 268.87 465.72 270.48 472.24 272.33 478.04 275.13 483.02 278.79 487.86 282.68 491.83 287.38 494.85 292.76 497.73 298.33 499.67 304.53 500.68 311.22 501.62 318.04 501.73 325.3 501.04 332.86 500.51 340.48 499.39 348.37 497.75 356.38 496.55 364.42 495.07 372.55 493.35 380.66 492.31 388.77 491.19 396.46 490 403.69 489.44 410.92 488.68 417.71 487.68 424.01 486.58 433.32 482.21 449.98 478.5 457.5 475.81 462.62 472.32 467.48 468.05 472.07 463.72 476.99 458.58 481.72 452.7 486.23 446.75 491.11 440.08 495.78 432.74 500.16 425.38 504.86 417.4 509.19 408.87 513 400.34 516.95 391.69 520.04 383.05 522.22 374.43 524.33 365.83 525.39 357.37 525.42 348.93 525.23 340.65 523.95 332.63 521.65 324.67 519.08 317.01 515.51 309.77 511.05 302.65 506.36 296 500.84 289.98 494.63 284.15 488.28 279.01 481.3 274.71 473.85 270.69 466.33 267.58 458.4 265.51 450.17 263.8 441.92 263.18 433.42 263.75 424.76 264.69 416.09 266.77 407.68 269.84 399.58 273.18 391.46 277.44 383.63 282.45 376.13 287.62 368.57 293.48 361.29 299.87 354.36 306.32 347.31 313.27 340.55 320.58 334.13 327.88 327.56 335.54 321.3 343.44 315.4 351.32 309.35 359.45 303.67 367.76 298.45 376.05 293.11 384.53 288.26 393.12 284.03 401.71 279.77 410.42 276.2 419.16 273.45" stroke-dasharray="4 11" transform="rotate(60.599999999999994, 400, 400)" opacity="0.62"></path><path d="M416.31 284.34C424.2 281.89 431.67 280.37 438.64 279.75 445.59 279.29 452 279.76 457.79 281.08 466.04 283.78 478.82 293.43 483.17 300.13 485.7 304.96 487.44 310.36 488.38 316.24 489.3 322.22 489.51 328.62 489.04 335.32 488.73 342.08 487.89 349.1 486.59 356.28 485.65 363.47 484.41 370.79 482.91 378.14 481.96 385.48 480.86 392.5 479.64 399.13 478.93 405.78 478.01 412.06 476.84 417.96 475.43 426.69 470.75 442.59 467.14 449.87 464.59 454.8 461.36 459.5 457.47 463.96 453.56 468.68 448.94 473.2 443.67 477.49 438.36 482.07 432.4 486.43 425.84 490.47 419.25 494.76 412.09 498.69 404.42 502.11 396.74 505.65 388.94 508.41 381.13 510.35 373.33 512.24 365.55 513.22 357.88 513.3 350.24 513.21 342.74 512.18 335.5 510.25 328.31 508.12 321.41 505.1 314.91 501.28 308.52 497.29 302.58 492.54 297.21 487.15 292.03 481.64 287.47 475.54 283.68 468.97 280.14 462.34 277.42 455.29 275.63 447.92 274.14 440.53 273.63 432.85 274.18 424.97 275.06 417.09 276.95 409.39 279.73 401.92 282.75 394.44 286.59 387.17 291.13 380.18 295.82 373.14 301.14 366.33 306.96 359.81 312.86 353.21 319.21 346.85 325.92 340.8 332.64 334.65 339.68 328.77 346.96 323.24 354.23 317.59 361.73 312.29 369.37 307.43 377.01 302.49 384.8 298.01 392.65 294.1 400.5 290.18 408.42 286.88 416.31 284.34" stroke-dasharray="5 3" transform="rotate(64.64, 400, 400)" opacity="0.66"></path><path d="M412.77 295.23C419.81 292.98 426.44 291.55 432.59 290.92 441.52 290.57 456.57 293.99 462.51 297.62 467.68 302.13 474.53 314.32 476.22 321.74 477.15 326.92 477.46 332.49 477.2 338.37 477.08 344.28 476.5 350.47 475.49 356.83 474.79 363.2 473.77 369.72 472.47 376.31 471.61 382.91 470.56 389.25 469.34 395.3 468 404.24 464.54 420.73 462.17 428.3 459.62 435.74 452.18 449.61 447.12 456.11 443.56 460.56 439.41 464.83 434.7 468.85 429.96 473.09 424.66 477.1 418.82 480.78 412.97 484.66 406.61 488.18 399.78 491.22 392.95 494.36 385.99 496.79 379.02 498.5 372.07 500.18 365.12 501.06 358.27 501.16 351.47 501.15 344.79 500.32 338.34 498.7 331.95 496.94 325.83 494.41 320.09 491.17 314.45 487.8 309.22 483.75 304.51 479.12 299.97 474.39 296 469.11 292.71 463.37 289.63 457.59 287.28 451.39 285.76 444.86 284.49 438.32 284.09 431.46 284.62 424.38 285.42 417.3 287.12 410.32 289.6 403.51 292.29 396.69 295.72 390.03 299.77 383.59 303.97 377.11 308.73 370.82 313.96 364.77 319.27 358.66 325 352.76 331.05 347.14 337.14 341.44 343.53 336 350.13 330.87 356.74 325.67 363.55 320.8 370.48 316.33 377.41 311.8 384.46 307.71 391.53 304.14 398.62 300.56 405.73 297.56 412.77 295.23" stroke-dasharray="6 4" transform="rotate(68.68, 400, 400)" opacity="0.70"></path><path d="M408.68 306.12C421.08 302.1 431.87 301.04 440.65 302.62 449.28 304.64 455.79 309.26 459.9 315.96 463.94 323.01 465.8 331.91 465.53 342.03 465.79 352.29 464.59 363.56 462.04 375.26 460.85 386.96 458.7 397.97 455.75 407.98 453.77 418.12 450.38 427.51 445.5 435.92 440.9 444.81 434.35 453.05 425.95 460.28 417.52 468.17 407.15 475.09 395.15 480.33 383.13 485.88 370.73 488.76 358.7 489.03 346.8 489 335.44 486.13 325.37 480.77 315.69 475.03 307.58 466.96 301.8 457.11 296.73 447.11 294.28 435.57 295.05 423 296.72 410.43 301.41 398.05 308.4 386.37 315.88 374.6 325.35 363.38 336.05 353.15 346.91 342.72 358.84 333.18 371.17 325.13 383.54 316.95 396.28 310.37 408.68 306.12" stroke-dasharray="7 6" transform="rotate(72.72, 400, 400)" opacity="0.73"></path><path d="M404.22 317.01C414.96 313.41 424.24 312.35 431.76 313.57 439.21 315.1 444.84 318.86 448.48 324.44 452.12 330.26 453.97 337.74 454.02 346.36 454.53 355.07 453.71 364.78 451.6 375.01 450.51 385.24 448.41 395.04 445.5 404.07 443.35 413.22 439.95 421.81 435.33 429.58 430.97 437.69 425.03 445.21 417.59 451.78 410.15 458.81 401.12 464.9 390.72 469.44 380.33 474.21 369.64 476.68 359.3 476.9 349.08 476.95 339.38 474.6 330.84 470.12 322.62 465.38 315.79 458.62 310.98 450.25 306.74 441.76 304.74 431.83 305.49 420.87 306.95 409.9 311 398.98 317.03 388.56 323.48 378.09 331.67 368.04 340.96 358.86 350.42 349.54 360.83 341.03 371.58 333.86 382.39 326.62 393.48 320.79 404.22 317.01" stroke-dasharray="11 4" transform="rotate(76.76, 400, 400)" opacity="0.77"></path><path d="M399.57 327.9C408.68 324.74 416.53 323.73 422.91 324.63 431.67 327.24 441.48 341.07 442.7 351.34 443.38 358.59 442.88 366.79 441.16 375.57 440.18 384.35 438.21 392.89 435.45 400.88 433.23 408.95 429.95 416.62 425.66 423.6 421.6 430.83 416.26 437.53 409.76 443.33 403.27 449.45 395.52 454.7 386.7 458.56 377.87 462.58 368.87 464.63 360.21 464.8 351.66 464.88 343.58 462.97 336.53 459.28 329.73 455.42 324.14 449.85 320.25 442.86 316.8 435.79 315.21 427.42 315.93 418.06 317.17 408.7 320.59 399.27 325.67 390.2 331.08 381.11 337.99 372.33 345.84 364.28 353.86 356.17 362.71 348.76 371.85 342.51 381.04 336.24 390.47 331.19 399.57 327.9" stroke-dasharray="4 9" transform="rotate(80.80000000000001, 400, 400)" opacity="0.81"></path><path d="M394.95 338.78C405.69 335.63 421.57 337.73 426.45 342.49 430.2 348.66 432.2 366.22 430.73 376.92 429.88 384.25 428.09 391.49 425.57 398.35 423.43 405.27 420.37 411.9 416.5 417.97 412.81 424.2 408.13 429.96 402.56 434.93 397.03 440.1 390.53 444.49 383.24 447.67 375.95 450.96 368.59 452.62 361.58 452.74 354.64 452.81 348.14 451.27 342.52 448.29 337.09 445.21 332.66 440.72 329.63 435.03 326.91 429.3 325.71 422.43 326.36 414.67 327.4 406.91 330.19 399.01 334.33 391.37 338.72 383.72 344.36 376.29 350.78 369.47 357.34 362.62 364.6 356.36 372.12 351.09 379.68 345.82 387.44 341.57 394.95 338.78" stroke-dasharray="9 10" transform="rotate(84.84, 400, 400)" opacity="0.85"></path><path d="M390.54 349.67C402.41 345.35 411.21 346.61 415.97 352.05 420.96 357.72 422.62 367.25 420.29 379.02 419.2 390.79 414.68 402.65 407.88 412.63 401.57 422.98 392.09 431.85 380.51 436.78 368.92 442 357.52 441.85 348.86 437.22 340.69 432.41 335.92 423.15 336.8 410.8 338.69 398.45 345.9 385.49 355.83 374.45 366.16 363.39 378.66 354.25 390.54 349.67" stroke-dasharray="9 5" transform="rotate(88.88, 400, 400)" opacity="0.89"></path><path d="M386.53 360.56C398.71 357.62 410.68 369.44 409.85 381.8 408.94 390.66 405.23 399.78 399.78 407.53 394.63 415.46 387.25 422.21 378.61 425.89 369.96 429.73 361.71 429.57 355.6 426.13 349.77 422.61 346.46 415.79 347.24 406.59 348.6 397.38 353.83 387.62 361.07 379.27 368.56 370.94 377.71 364.04 386.53 360.56" stroke-dasharray="10 9" transform="rotate(92.92, 400, 400)" opacity="0.92"></path><path d="M383.11 371.45C394.77 366.97 401.64 373.28 399.42 385.17 398.38 397.05 389.13 410.22 377.63 415 366.12 420.06 356.74 414.34 357.67 402.15 359.67 389.95 371.44 376.19 383.11 371.45" stroke-dasharray="4 4" transform="rotate(96.96, 400, 400)" opacity="0.96"></path></g></svg>