<svg xmlns="http://www.w3.org/2000/svg" version="1.1" xmlns:xlink="http://www.w3.org/1999/xlink" xmlns:svgjs="http://svgjs.dev/svgjs" viewBox="0 0 800 800"><defs><linearGradient x1="50%" y1="0%" x2="50%" y2="100%" id="ccchaos-grad"><stop stop-color="hsl(161, 100%, 42%)" stop-opacity="1" offset="0%"></stop><stop stop-color="hsl(161, 10%, 40%)" stop-opacity="1" offset="100%"></stop></linearGradient></defs><g stroke-width="2" stroke="url(#ccchaos-grad)" fill="none" stroke-linecap="round"><path d="M112.45 128.1Q121.28 127.97 130.12 126.07 138.95 122.64 147.78 118.12 156.62 113.08 165.45 108.15 174.28 103.96 183.12 101.04 191.95 99.76 200.78 100.28 209.62 102.53 218.45 106.23 227.28 110.92 236.12 115.99 244.95 120.81 253.78 124.77 262.62 127.36 271.45 128.27 280.28 127.37 289.12 124.78 297.95 120.82 306.78 116.01 315.62 110.93 324.45 106.25 333.28 102.54 342.12 100.28 350.95 99.76 359.78 101.04 368.62 103.95 377.45 108.14 386.28 113.06 395.12 118.1 403.95 122.63 412.78 126.06 421.62 127.97 430.45 128.11 439.28 126.46 448.12 123.24 456.95 118.85 465.78 113.85 474.62 108.86 483.45 104.52 492.28 101.39 501.12 99.84 509.95 100.09 518.78 102.09 527.62 105.6 536.45 110.17 545.28 115.23 554.12 120.12 562.95 124.25 571.78 127.08 580.62 128.25 589.45 127.62 598.28 125.27 607.12 121.49 615.95 116.76 624.78 111.69 633.62 106.91 642.45 103.02 651.28 100.52 660.12 99.72 668.95 100.73 677.78 103.42 686.4 112.11 694.99 120.8 703.11 129.49 710.34 138.18 716.29 146.87 720.66 155.55 722.84 172.93 719.19 190.31 714.18 199 707.69 207.69 700.08 216.38 691.72 225.07 683.07 233.76 674.57 242.45 666.66 251.14 659.77 259.82 654.25 268.51 650.39 277.2 649.34 294.58 654.09 311.96 659.56 320.65 666.41 329.34 674.29 338.03 682.78 346.72 691.43 355.41 699.81 364.1 707.46 372.78 713.98 381.47 719.05 390.16 722.38 398.85 723.82 407.54 723.27 416.23 720.78 424.92 716.47 433.61 710.56 442.3 703.37 450.99 695.27 459.68 686.69 468.37 678.07 477.05 669.86 485.74 662.5 494.43 656.37 503.12 651.78 511.81 648.99 520.5 648.13 529.19 649.25 537.88 652.29 546.57 657.09 555.26 663.41 563.95 670.9 572.64 679.19 581.33 687.83 590.01 696.37 598.7 704.38 607.39 711.42 616.08 717.13 624.77 721.21 633.46 723.46 642.15 718.2 651.82 703.26 650.28 693.87 652.27 684.47 658.52 675.08 668.25 665.68 680.22 656.29 692.93 646.89 704.75 637.5 714.21 628.1 720.09 618.71 721.67 609.31 718.73 599.92 711.66 590.52 701.34 581.13 689.08 571.73 676.43 562.34 664.99 552.94 656.2 543.55 651.19 534.15 650.57 524.76 654.44 515.36 662.29 505.97 673.14 496.57 685.62 487.18 698.15 477.78 709.13 468.39 717.2 459 721.31 449.6 720.96 440.21 716.19 430.81 707.6 421.42 696.28 412.02 683.66 402.63 671.33 393.23 660.86 383.84 653.56 374.44 650.37 365.05 651.68 355.65 657.33 346.26 666.61 336.86 678.33 327.47 691.03 318.07 703.09 308.68 712.98 299.28 719.47 289.89 721.72 280.49 719.45 271.1 712.96 261.7 703.05 252.31 690.99 242.91 678.29 233.52 666.57 224.12 657.31 214.73 651.67 205.33 650.37 195.94 653.58 186.54 660.89 177.15 671.37 167.75 683.7 158.36 696.32 148.97 707.63 139.57 716.21 125.64 716.5 121.05 702.77 120.62 693.5 119.85 684.23 118.78 674.96 117.45 665.69 115.95 656.42 114.34 647.16 112.71 637.89 111.15 628.62 109.74 619.35 108.56 610.08 107.65 600.81 107.08 591.54 106.87 582.27 107.03 573.01 107.56 563.74 108.42 554.47 109.57 545.2 110.96 535.93 112.5 526.66 114.13 517.39 115.74 508.12 117.26 498.86 118.62 489.59 119.73 480.32 120.54 471.05 121.01 461.78 121.11 452.51 120.84 443.24 120.22 433.97 119.26 424.71 118.03 415.44 116.59 406.17 115.02 396.9 113.39 387.63 111.79 378.36 110.31 369.09 109.02 359.82 107.99 350.56 107.28 341.29 106.91 332.02 106.92 322.75 107.29 313.48 108.02 304.21 109.06 294.94 110.36 285.67 111.84 276.4 113.44 267.14 115.07 257.87 116.64 248.6 118.08 239.33 119.3 230.06 120.24 220.79 120.86 211.52 121.12 202.25 121 192.99 120.52 183.72 119.7 174.45 118.58 165.18 117.22 155.91 115.69 146.64 114.07 137.37 112.45 128.1" stroke-dasharray="4 6" transform="rotate(0, 400, 400)" opacity="0.86"></path><path d="M125.49 139.08Q142.73 133.24 159.98 123.65 177.22 114.67 194.47 110.39 211.72 112.74 228.96 120.66 246.21 130.55 263.45 137.92 280.7 139.41 297.95 134.36 315.19 125.05 332.44 115.72 349.69 110.6 366.93 112.02 384.18 119.34 401.42 129.22 418.67 137.19 435.92 139.61 453.16 135.4 470.41 126.45 487.65 116.85 504.9 110.94 522.15 111.42 539.39 118.07 556.64 127.86 573.89 136.35 591.13 139.68 608.38 136.34 625.62 127.84 642.87 118.05 660.12 111.42 677.36 110.95 693.01 127.52 705.21 144.09 711.64 160.66 711.07 177.23 703.6 193.8 690.67 210.37 674.74 226.95 658.86 243.52 646.06 260.09 638.8 276.66 638.45 293.23 645.08 309.8 657.43 326.37 673.14 342.94 689.2 359.51 702.55 376.09 710.63 392.66 711.9 409.23 706.12 425.8 694.39 442.37 678.96 458.94 662.76 475.51 648.91 492.08 640.04 508.65 637.85 525.23 642.76 541.8 653.83 558.37 668.94 574.94 685.21 591.51 699.53 608.08 709.16 624.65 712.26 641.22 694.15 642.35 676.04 658.31 657.93 681.85 639.82 702.27 621.71 710.31 603.59 702.3 585.48 681.88 567.37 658.34 549.26 642.36 531.15 641.21 513.04 655.41 494.93 678.5 476.82 700.01 458.71 710.14 440.6 704.31 422.49 685.16 404.37 661.39 386.26 643.8 368.15 640.38 350.04 652.69 331.93 675.13 313.82 697.51 295.71 709.66 277.6 706.06 259.49 688.35 241.38 664.57 223.27 645.53 205.15 639.87 187.04 650.18 168.93 671.76 150.82 694.81 132.71 708.86 132.07 691.05 130.07 673.25 127.11 655.44 123.74 637.63 120.61 619.83 118.32 602.02 117.3 584.22 117.76 566.41 119.59 548.61 122.46 530.8 125.81 513 129.01 495.19 131.44 477.38 132.64 459.58 132.37 441.77 130.7 423.97 127.94 406.16 124.61 388.36 121.36 370.55 118.8 352.75 117.43 334.94 117.5 317.13 119.01 299.33 121.65 281.52 124.94 263.72 128.24 245.91 130.92 228.11 132.46 210.3 132.58 192.5 131.25 174.69 128.72 156.88 125.49 139.08" stroke-dasharray="5 1" transform="rotate(4.04, 400, 400)" opacity="0.10"></path><path d="M138.81 147.27Q155.61 138.75 172.41 129.06 189.21 122.29 206.01 121.28 222.81 126.44 239.61 135.62 256.41 144.95 273.21 150.53 290.01 149.99 306.81 143.58 323.61 133.98 340.42 125.23 357.22 121 374.02 123.07 390.82 130.56 407.62 140.34 424.42 148.3 441.22 151.08 458.02 147.53 474.82 139.14 491.62 129.42 508.42 122.47 525.22 121.19 542.02 126.14 558.82 135.22 575.62 144.63 592.42 150.41 609.22 150.14 626.02 143.92 642.82 134.38 659.62 125.51 676.42 121.05 689.5 136.94 698.08 152.83 700.65 168.71 696.75 184.6 687.08 200.49 673.34 216.38 657.95 232.26 643.62 248.15 632.89 264.04 627.64 279.93 628.81 295.81 636.17 311.7 648.45 327.59 663.46 343.48 678.57 359.36 691.11 375.25 698.87 391.14 700.48 407.03 695.65 422.91 685.24 438.8 671.09 454.69 655.68 470.58 641.74 486.47 631.73 502.35 627.4 518.24 629.53 534.13 637.73 550.02 650.57 565.9 665.77 581.79 680.66 597.68 692.61 613.57 699.52 629.45 682.16 639.77 664.8 660.26 647.44 682.32 630.08 696.68 612.72 697.32 595.36 683.96 578.01 662.21 560.65 641.22 543.29 629.79 525.93 632.73 508.57 648.8 491.21 671.26 473.85 690.66 456.5 698.87 439.14 692.42 421.78 674.04 404.42 651.44 387.06 634.11 369.7 629.33 352.34 639.11 334.98 659.35 317.63 681.53 300.27 696.35 282.91 697.58 265.55 684.7 248.19 663.13 230.83 641.92 213.47 629.98 196.12 632.33 178.76 647.98 161.4 670.35 144.04 690.06 142.48 673.1 139.77 656.13 136.4 639.17 132.95 622.21 130.05 605.25 128.19 588.28 127.71 571.32 128.69 554.36 130.96 537.4 134.11 520.44 137.6 503.47 140.81 486.51 143.16 469.55 144.26 452.59 143.89 435.63 142.14 418.66 139.3 401.7 135.87 384.74 132.47 367.78 129.69 350.82 128.03 333.85 127.76 316.89 128.95 299.93 131.38 282.97 134.63 266.01 138.11 249.04 141.22 232.08 143.41 215.12 144.3 198.16 143.72 181.2 141.77 164.23 138.81 147.27" stroke-dasharray="10 4" transform="rotate(8.08, 400, 400)" opacity="0.58"></path><path d="M152.22 153.08Q168.53 143.47 184.85 135.22 201.16 131.53 217.47 133.82 233.78 141.21 250.09 150.84 266.4 158.98 282.71 162.48 299.03 160 315.34 152.48 331.65 142.84 347.96 134.81 364.27 131.49 380.58 134.17 396.9 141.82 413.21 151.46 429.52 159.38 445.83 162.51 462.14 159.63 478.45 151.87 494.77 142.22 511.08 134.42 527.39 131.48 543.7 134.55 560.01 142.43 576.32 152.08 592.64 159.76 608.95 162.5 625.26 159.24 641.57 151.25 657.88 141.61 674.19 134.05 684 149.37 688.78 164.68 687.76 180 681.1 195.32 669.88 210.64 655.93 225.96 641.5 241.27 628.93 256.59 620.27 271.91 616.91 287.23 619.41 302.54 627.35 317.86 639.45 333.18 653.74 348.5 667.92 363.81 679.67 379.13 687.1 394.45 689 409.77 685.06 425.09 675.92 440.4 663.07 455.72 648.58 471.04 634.8 486.36 623.98 501.67 617.86 516.99 617.44 532.31 622.78 547.63 633.03 562.94 646.51 578.26 661.04 593.58 674.27 608.9 684.05 624.21 667.5 641.02 650.96 662.45 634.42 680.23 617.87 687.47 601.33 681.37 584.78 664.3 568.24 642.85 551.7 625.33 535.15 618.51 518.61 625.03 502.07 642.38 485.52 663.83 468.98 681.09 452.44 687.48 435.89 680.53 419.35 662.92 402.81 641.48 386.26 624.49 369.72 618.53 353.17 625.9 336.63 643.76 320.09 665.19 303.54 681.9 287 687.43 270.46 679.64 253.91 661.53 237.37 640.13 220.83 623.7 204.28 618.61 187.74 626.82 171.2 645.16 154.65 666.53 152.24 650.48 148.98 634.44 145.4 618.39 142.07 602.35 139.55 586.3 138.23 570.26 138.33 554.21 139.84 538.16 142.51 522.12 145.91 506.07 149.48 490.03 152.65 473.98 154.9 457.94 155.87 441.89 155.41 425.85 153.57 409.8 150.67 393.76 147.18 377.71 143.65 361.67 140.67 345.62 138.71 329.58 138.1 313.53 138.93 297.49 141.06 281.44 144.16 265.4 147.72 249.35 151.16 233.31 153.92 217.26 155.57 201.22 155.82 185.17 154.64 169.13 152.22 153.08" stroke-dasharray="7 6" transform="rotate(12.12, 400, 400)" opacity="0.93"></path><path d="M165.49 157.41Q181.25 148.46 197.02 142.9 212.79 142.69 228.55 147.92 244.32 156.73 260.09 165.98 275.85 172.4 291.62 173.71 307.39 169.43 323.15 161.1 338.92 151.67 354.69 144.48 370.45 142.09 386.22 145.34 401.99 153.09 417.75 162.58 433.52 170.44 449.29 173.88 465.05 171.68 480.82 164.63 496.59 155.22 512.35 146.79 528.12 142.34 543.89 143.45 559.65 149.72 575.42 158.93 591.19 167.81 606.95 173.2 622.72 173.19 638.49 167.79 654.25 158.91 670.02 149.71 676.18 164.54 677.27 179.37 673.12 194.2 664.34 209.03 652.24 223.86 638.63 238.69 625.51 253.52 614.84 268.35 608.21 283.18 606.59 298.01 610.23 312.84 618.59 327.67 630.43 342.5 643.98 357.33 657.24 372.16 668.24 386.99 675.33 401.82 677.48 416.65 674.35 431.48 666.42 446.31 654.86 461.14 641.39 475.97 628.01 490.8 616.71 505.63 609.16 520.46 606.49 535.28 609.09 550.11 616.58 564.94 627.85 579.77 641.21 594.6 654.69 609.43 666.29 624.26 650.61 643.96 634.93 662.96 619.25 674.52 603.57 674.53 587.88 662.99 572.2 644 556.52 624.3 540.84 610.88 525.16 608.5 509.48 618.02 493.8 636.05 478.12 656.19 462.43 671.29 446.75 675.99 431.07 668.62 415.39 651.81 399.71 631.5 384.03 614.93 368.35 607.96 352.67 613.07 336.98 628.46 321.3 648.64 305.62 666.47 289.94 675.61 274.26 672.82 258.58 659.08 242.9 639.28 227.22 620.44 211.53 609.26 195.85 609.69 180.17 621.6 164.49 640.74 161.39 625.64 157.79 610.53 154.21 595.43 151.2 580.32 149.2 565.22 148.5 550.12 149.22 535.01 151.23 519.91 154.26 504.8 157.83 489.7 161.44 474.6 164.53 459.49 166.65 444.39 167.48 429.28 166.91 414.18 165.01 399.07 162.07 383.97 158.53 368.87 154.9 353.76 151.74 338.66 149.5 323.55 148.53 308.45 148.96 293.35 150.74 278.24 153.59 263.14 157.09 248.03 160.73 232.93 163.97 217.83 166.31 202.72 167.43 187.62 167.14 172.51 165.49 157.41" stroke-dasharray="1 6" transform="rotate(16.16, 400, 400)" opacity="0.49"></path><path d="M178.36 161.5Q193.52 154.79 208.68 152.69 223.84 155.88 239 163.32 254.16 172.6 269.31 180.72 284.47 185.03 299.63 184.14 314.79 178.34 329.95 169.51 345.11 160.51 360.26 154.26 375.42 152.8 390.58 156.58 405.74 164.39 420.9 173.7 436.06 181.48 451.21 185.21 466.37 183.68 481.53 177.39 496.69 168.38 511.85 159.56 527.01 153.81 542.17 152.98 557.32 157.35 572.48 165.49 587.64 174.77 602.8 182.18 617.96 185.31 633.12 183.15 657.09 179.01 663.66 196.01 656.98 210.38 646.78 224.76 634.44 239.14 621.64 253.52 610.1 267.9 601.4 282.28 596.7 296.66 596.65 311.04 601.25 325.42 609.89 339.8 621.38 354.18 634.18 368.56 646.54 382.94 656.8 397.32 663.56 411.7 665.91 426.08 663.53 440.46 656.74 454.84 646.46 469.22 634.09 483.6 621.3 497.98 609.82 512.35 601.21 526.73 596.64 541.11 596.72 555.49 601.44 569.87 610.17 584.25 621.72 598.63 634.53 613.01 646.86 627.39 632.07 646.25 617.28 660.16 602.49 664.61 587.7 658.16 572.91 642.9 558.12 623.78 543.33 607 528.54 598 513.75 599.71 498.96 611.56 484.17 629.72 469.38 648.29 454.59 661.25 439.8 664.4 425.01 656.71 410.22 640.69 395.43 621.52 380.64 605.42 365.85 597.62 351.06 600.64 336.27 613.51 321.48 632.05 306.69 650.25 291.9 662.2 277.11 664.03 262.32 655.15 247.53 638.43 232.74 619.3 217.95 603.96 203.16 597.4 188.37 601.72 173.58 615.55 170.02 601.36 166.32 587.17 162.98 572.98 160.46 558.79 159.1 544.6 159.07 530.41 160.39 516.22 162.88 502.03 166.19 487.84 169.89 473.66 173.46 459.47 176.43 445.28 178.39 431.09 179.08 416.9 178.4 402.71 176.45 388.52 173.48 374.33 169.91 360.14 166.22 345.95 162.9 331.77 160.41 317.58 159.08 303.39 159.09 289.2 160.45 275.01 162.96 260.82 166.29 246.63 169.99 232.44 173.55 218.25 176.5 204.06 178.43 189.87 179.08 175.69 178.36 161.5" stroke-dasharray="4 3" transform="rotate(20.200000000000003, 400, 400)" opacity="0.61"></path><path d="M190.62 166.7Q205.11 163.34 219.59 164.88 234.08 170.89 248.56 179.58 263.05 188.39 277.53 194.73 292.02 196.72 306.5 193.78 320.99 186.77 335.48 177.76 349.96 169.42 364.45 164.19 378.93 163.62 393.42 167.89 407.9 175.72 422.39 184.82 436.87 192.49 451.36 196.48 465.85 195.6 480.33 190.13 494.82 181.66 509.3 172.7 523.79 165.9 538.27 163.25 552.76 165.54 567.25 172.1 581.73 180.98 596.22 189.57 610.7 195.34 625.19 196.59 646.44 196.16 648.17 213.3 639.66 227.22 628.74 241.14 616.74 255.06 605.14 268.98 595.37 282.9 588.63 296.81 585.74 310.73 587.07 324.65 592.46 338.57 601.22 352.49 612.3 366.41 624.33 380.32 635.82 394.24 645.36 408.16 651.79 422.08 654.3 436 652.59 449.92 646.88 463.83 637.85 477.75 626.63 491.67 614.59 505.59 603.22 519.51 593.91 533.43 587.81 547.35 585.67 561.26 587.75 575.18 593.8 589.1 603.07 603.02 614.42 616.94 626.46 630.86 612.57 645.68 598.68 652.93 584.79 650.46 570.9 639.01 557.01 621.95 543.12 604.31 529.24 591.3 515.35 586.75 501.46 592.01 487.57 605.52 473.68 623.3 459.79 640.11 445.9 650.98 432.01 652.72 418.12 644.8 404.23 629.57 390.34 611.51 376.45 595.96 362.57 587.5 348.68 588.62 334.79 598.99 320.9 615.57 307.01 633.44 293.12 647.35 279.23 653.2 265.34 649.24 251.45 636.67 237.56 619.17 223.67 601.92 209.78 590 195.89 586.92 182.01 593.61 178.26 580.26 174.73 566.92 171.85 553.58 169.97 540.24 169.32 526.9 169.99 513.56 171.88 500.22 174.78 486.88 178.32 473.54 182.06 460.2 185.55 446.86 188.36 433.52 190.13 420.18 190.66 406.83 189.88 393.49 187.88 380.15 184.92 366.81 181.34 353.47 177.6 340.13 174.16 326.79 171.43 313.45 169.76 300.11 169.34 286.77 170.24 273.43 172.34 260.09 175.37 246.75 178.98 233.4 182.71 220.06 186.11 206.72 188.76 193.38 190.32 180.04 190.62 166.7" stroke-dasharray="11 10" transform="rotate(24.24, 400, 400)" opacity="0.33"></path><path d="M202.07 174.22Q215.82 174.64 229.57 179.43 243.33 187.3 257.08 196.15 270.83 203.63 284.58 207.74 298.34 207.38 312.09 202.65 325.84 194.81 339.6 185.95 353.35 178.43 367.1 174.27 380.85 174.58 394.61 179.26 408.36 187.07 422.11 195.94 435.86 203.48 449.62 207.69 463.37 207.45 477.12 202.81 490.87 195.03 504.63 186.16 518.38 178.59 532.13 174.33 545.88 174.51 559.64 179.1 573.39 186.85 587.14 195.72 600.89 203.32 614.65 207.64 633.34 211.95 631.13 229.79 621.54 243.19 610.55 256.59 599.38 270 589.29 283.4 581.38 296.81 576.55 310.21 575.32 323.62 577.83 337.02 583.81 350.43 592.58 363.83 603.18 377.23 614.43 390.64 625.07 404.04 633.93 417.45 640.01 430.85 642.65 444.26 641.55 457.66 636.83 471.07 629.01 484.47 618.98 497.87 607.83 511.28 596.81 524.68 587.15 538.09 579.91 551.49 575.91 564.9 575.58 578.3 578.97 591.71 585.7 605.11 595.01 618.51 605.88 631.92 592.88 640.59 579.88 640.84 566.88 632.58 553.89 618.03 540.89 601.07 527.89 586.23 514.89 577.46 501.9 577.1 488.9 585.26 475.9 599.75 462.9 616.71 449.91 631.61 436.91 640.47 423.91 640.94 410.91 632.88 397.91 618.45 384.92 601.49 371.92 586.54 358.92 577.58 345.92 577 332.93 584.96 319.93 599.33 306.93 616.29 293.93 631.29 280.94 640.35 267.94 641.04 254.94 633.18 241.94 618.86 228.95 601.92 215.95 586.86 202.95 577.71 189.95 576.91 186.32 564.32 183.21 551.74 180.97 539.15 179.84 526.57 179.95 513.99 181.28 501.4 183.7 488.82 186.93 476.24 190.61 463.65 194.33 451.07 197.68 438.48 200.29 425.9 201.87 413.32 202.23 400.73 201.35 388.15 199.32 375.57 196.36 362.98 192.81 350.4 189.05 337.81 185.51 325.23 182.58 312.65 180.59 300.06 179.75 287.48 180.16 274.89 181.77 262.31 184.41 249.73 187.78 237.14 191.51 224.56 195.18 211.98 198.39 199.39 200.77 186.81 202.07 174.22" stroke-dasharray="5 11" transform="rotate(28.28, 400, 400)" opacity="0.57"></path><path d="M212.58 184.87Q225.55 188.79 238.52 195.89 251.49 204.45 264.46 212.42 277.43 217.89 290.4 219.54 303.36 216.98 316.33 210.82 329.3 202.55 342.27 194.14 355.24 187.61 368.21 184.54 381.18 185.66 394.15 190.7 407.12 198.45 420.08 207.05 433.05 214.44 446.02 218.84 458.99 219.2 471.96 215.42 484.93 208.42 497.9 199.88 510.87 191.85 523.84 186.25 536.8 184.43 549.77 186.83 562.74 192.87 575.71 201.1 588.68 209.54 601.65 216.18 618.04 225.34 612.98 244.07 603.01 256.88 592.53 269.69 582.61 282.5 574.22 295.31 568.2 308.12 565.16 320.93 565.4 333.74 568.89 346.55 575.29 359.36 583.95 372.17 594.02 384.98 604.48 397.79 614.3 410.6 622.49 423.41 628.23 436.22 630.96 449.03 630.39 461.84 626.59 474.65 619.93 487.46 611.09 500.27 600.93 513.08 590.49 525.89 580.79 538.7 572.81 551.51 567.35 564.32 564.94 577.13 565.84 589.93 569.94 602.74 562.38 617.38 537.34 596.34 525.21 581.15 513.08 570.01 500.95 565.59 488.81 568.95 476.68 579.28 464.55 594.1 452.42 609.86 440.29 622.77 428.16 629.73 416.02 629.08 403.89 620.96 391.76 607.33 379.63 591.46 367.5 577.16 355.37 567.86 343.24 565.79 331.1 571.46 318.97 583.49 306.84 599.01 294.71 614.29 282.58 625.65 270.45 630.37 258.31 627.32 246.18 617.23 234.05 602.53 221.92 586.73 209.79 573.64 197.66 566.39 194.43 554.47 191.96 542.55 190.49 530.63 190.17 518.7 191.03 506.78 192.98 494.86 195.84 482.94 199.31 471.01 203.05 459.09 206.68 447.17 209.84 435.24 212.23 423.32 213.59 411.4 213.79 399.48 212.81 387.55 210.76 375.63 207.83 363.71 204.32 351.79 200.57 339.86 196.97 327.94 193.87 316.02 191.58 304.09 190.33 292.17 190.25 280.25 191.34 268.33 193.49 256.4 196.49 244.48 200.04 232.56 203.79 220.64 207.36 208.71 210.39 196.79 212.58 184.87" stroke-dasharray="6 10" transform="rotate(32.32, 400, 400)" opacity="0.40"></path><path d="M222.11 198.85Q234.26 205.38 246.41 213.54 258.55 221.58 270.7 227.78 282.85 230.81 295 230.02 307.14 225.57 319.29 218.42 331.44 210.11 343.59 202.42 355.73 197 367.88 195.01 380.03 196.88 392.18 202.21 404.32 209.86 416.47 218.17 428.62 225.38 440.77 229.93 452.91 230.84 465.06 227.93 477.21 221.81 489.36 213.8 501.5 205.61 513.65 199.01 525.8 195.41 537.95 195.59 550.09 199.5 562.24 206.3 574.39 214.55 586.54 222.46 600.95 235.69 594.17 255.17 584.48 267.3 575.01 279.42 566.61 291.54 560.03 303.67 555.85 315.79 554.44 327.92 555.94 340.04 560.21 352.17 566.86 364.29 575.31 376.41 584.8 388.54 594.49 400.66 603.51 412.79 611.05 424.91 616.45 437.04 619.23 449.16 619.13 461.28 616.17 473.41 610.61 485.53 602.94 497.66 593.85 509.78 584.15 521.91 574.71 534.03 566.35 546.15 559.84 558.28 555.75 570.4 554.45 582.53 556.04 594.65 558.11 610.54 544.51 603.83 533.21 589.76 521.91 575.09 510.6 562.97 499.3 556.01 487.99 555.7 476.69 562.11 465.39 573.86 454.08 588.42 442.78 602.68 431.47 613.57 420.17 618.76 408.87 617.13 397.56 609.04 386.26 596.21 374.95 581.41 363.65 567.8 352.35 558.31 341.04 554.98 329.74 558.52 318.44 568.17 307.13 581.86 295.83 596.65 284.52 609.37 273.22 617.29 261.92 618.7 250.61 613.31 239.31 602.28 228 587.96 216.7 573.44 205.4 561.82 202.82 550.48 201.16 539.14 200.55 527.8 201.05 516.45 202.61 505.11 205.1 493.77 208.29 482.42 211.91 471.08 215.62 459.74 219.09 448.4 222.02 437.05 224.15 425.71 225.28 414.37 225.32 403.02 224.26 391.68 222.2 380.34 219.31 368.99 215.86 357.65 212.16 346.31 208.53 334.97 205.3 323.62 202.75 312.28 201.12 300.94 200.55 289.59 201.08 278.25 202.68 266.91 205.2 255.57 208.41 244.22 212.03 232.88 215.74 221.54 219.2 210.19 222.11 198.85" stroke-dasharray="3 4" transform="rotate(36.36, 400, 400)" opacity="0.77"></path><path d="M230.69 215.75Q242 223.54 253.3 231.42 264.61 237.88 275.91 241.7 287.21 242.15 298.52 239.14 309.82 233.24 321.13 225.58 332.43 217.62 343.73 210.88 355.04 206.63 366.34 205.69 377.64 208.24 388.95 213.79 400.25 221.28 411.56 229.29 422.86 236.29 434.16 240.95 445.47 242.38 456.77 240.31 468.07 235.12 479.38 227.82 490.68 219.79 501.99 212.56 513.29 207.51 524.59 205.6 535.9 207.19 547.2 211.99 558.5 219.07 569.81 227.09 581.11 234.52 592.42 239.95 584.14 251.3 575.21 262.66 566.35 274.02 558.25 285.38 551.55 296.73 546.79 308.09 544.33 319.45 544.38 330.81 546.92 342.16 551.76 353.52 558.52 364.88 566.65 376.24 575.53 387.59 584.44 398.95 592.69 410.31 599.61 421.67 604.67 433.02 607.47 444.38 607.77 455.74 605.57 467.1 601.02 478.45 594.5 489.81 586.52 501.17 577.71 512.53 568.76 523.88 560.38 535.24 553.23 546.6 547.89 557.96 544.76 569.31 544.11 580.67 542.83 593.05 529.16 581.31 518.64 567.53 508.12 555.37 497.59 547.14 487.07 544.4 476.55 547.68 466.03 556.36 455.5 568.78 444.98 582.57 434.46 595.11 423.93 604.01 413.41 607.57 402.89 605.12 392.36 597.12 381.84 585.09 371.32 571.34 360.8 558.47 350.27 548.94 339.75 544.56 329.23 546.17 318.7 553.47 308.18 565.05 297.66 578.72 287.14 591.87 276.61 602 266.09 607.17 255.57 606.4 245.04 599.84 234.52 588.74 224 575.21 213.47 561.83 211.75 551.02 210.99 540.2 211.25 529.39 212.53 518.57 214.71 507.76 217.62 496.94 221.04 486.13 224.69 475.31 228.29 464.5 231.55 453.68 234.21 442.86 236.06 432.05 236.96 421.23 236.84 410.42 235.7 399.6 233.63 388.79 230.81 377.97 227.44 367.16 223.81 356.34 220.18 345.53 216.86 334.71 214.11 323.9 212.13 313.08 211.09 302.27 211.08 291.45 212.08 280.64 214.02 269.82 216.76 259.01 220.06 248.19 223.68 237.38 227.32 226.56 230.69 215.75" stroke-dasharray="5 8" transform="rotate(40.400000000000006, 400, 400)" opacity="0.17"></path><path d="M238.47 234.53Q248.92 242.11 259.37 248.49 269.83 252.61 280.28 253.78 290.74 251.79 301.19 246.99 311.64 240.17 322.1 232.49 332.55 225.22 343 219.6 353.46 216.56 363.91 216.61 374.36 219.74 384.82 225.44 395.27 232.73 405.73 240.41 416.18 247.18 426.63 251.9 437.09 253.79 447.54 252.53 457.99 248.32 468.45 241.88 478.9 234.28 489.36 226.8 499.81 220.7 510.26 217 520.72 216.31 531.17 218.76 541.62 223.93 552.08 230.96 562.53 238.67 572.98 245.75 564.78 256.29 556.59 266.82 548.98 277.36 542.49 287.89 537.56 298.42 534.54 308.96 533.63 319.49 534.91 330.02 538.28 340.56 543.5 351.09 550.22 361.62 557.96 372.16 566.2 382.69 574.35 393.23 581.85 403.76 588.18 414.29 592.89 424.83 595.67 435.36 596.32 445.89 594.79 456.43 591.18 466.96 585.76 477.5 578.89 488.03 571.06 498.56 562.81 509.1 554.7 519.63 547.32 530.16 541.16 540.7 536.66 551.23 534.13 561.76 529.74 571.69 515.94 558.31 506.15 546.66 496.36 538.08 486.57 534.02 476.78 535.16 466.99 541.3 457.19 551.42 447.4 563.81 437.61 576.41 427.82 587.08 418.03 594.06 408.23 596.16 398.44 593.03 388.65 585.19 378.86 573.97 369.07 561.25 359.28 549.15 349.48 539.71 339.69 534.51 329.9 534.43 320.11 539.47 310.32 548.8 300.52 560.84 290.73 573.58 280.94 584.88 271.15 592.84 261.36 596.14 251.57 594.2 241.77 587.37 231.98 576.79 222.19 564.22 221.41 553.92 221.58 543.62 222.68 533.31 224.64 523.01 227.31 512.71 230.52 502.4 234.04 492.1 237.63 481.8 241.03 471.5 244.02 461.19 246.37 450.89 247.94 440.59 248.61 430.28 248.33 419.98 247.12 409.68 245.07 399.38 242.32 389.07 239.06 378.77 235.52 368.47 231.94 358.16 228.57 347.86 225.65 337.56 223.38 327.26 221.92 316.95 221.37 306.65 221.76 296.35 223.07 286.04 225.22 275.74 228.04 265.44 231.34 255.13 234.9 244.83 238.47 234.53" stroke-dasharray="8 6" transform="rotate(44.44, 400, 400)" opacity="0.54"></path><path d="M245.65 253.75Q255.26 259.79 264.87 263.81 274.48 265.22 284.1 263.82 293.71 259.8 303.32 253.77 312.93 246.6 322.55 239.34 332.16 233.05 341.77 228.66 351.38 226.81 360.99 227.76 370.61 231.39 380.22 237.15 389.83 244.21 399.44 251.53 409.06 258.04 418.67 262.79 428.28 265.07 437.89 264.57 447.51 261.34 457.12 255.87 466.73 248.95 476.34 241.6 485.95 234.9 495.57 229.81 505.18 227.1 514.79 227.15 524.4 229.96 534.02 235.12 544.69 250.39 538.75 268.6 532.68 278.28 527.9 287.97 524.71 297.65 523.28 307.34 523.72 317.03 525.99 326.71 529.96 336.4 535.39 346.08 541.94 355.77 549.23 365.45 556.8 375.14 564.2 384.82 570.99 394.51 576.74 404.2 581.12 413.88 583.85 423.57 584.77 433.25 583.83 442.94 581.08 452.62 576.69 462.31 570.92 472 564.13 481.68 556.72 491.37 549.15 501.05 541.87 510.74 535.33 520.42 529.92 530.11 525.96 539.8 518.94 548.44 505.07 536.59 495.96 528.33 486.85 523.83 477.74 523.75 468.64 528.09 459.53 536.23 450.42 546.97 441.31 558.73 432.2 569.81 423.09 578.56 413.98 583.73 404.87 584.53 395.76 580.87 386.66 573.28 377.55 562.86 368.44 551.14 359.33 539.84 350.22 530.61 341.11 524.81 332 523.28 322.89 526.25 313.78 533.27 304.68 543.34 295.57 554.96 286.46 566.44 277.35 576.1 268.24 582.52 259.13 584.77 250.02 582.51 240.91 576.08 231.81 566.41 232 556.64 233.04 546.87 234.87 537.1 237.37 527.33 240.39 517.56 243.76 507.79 247.26 498.02 250.68 488.24 253.82 478.47 256.48 468.7 258.51 458.93 259.78 449.16 260.22 439.39 259.79 429.62 258.53 419.85 256.51 410.08 253.85 400.31 250.71 390.54 247.29 380.77 243.79 371 240.43 361.23 237.4 351.46 234.89 341.69 233.06 331.92 232.01 322.14 231.8 312.37 232.46 302.6 233.94 292.83 236.15 283.06 238.95 273.29 242.18 263.52 245.65 253.75" stroke-dasharray="3 10" transform="rotate(48.48, 400, 400)" opacity="0.20"></path><path d="M252.52 271.82Q261.32 275.39 270.11 276.63 278.9 275.39 287.69 271.83 296.49 266.39 305.28 259.76 314.07 252.78 322.86 246.34 331.66 241.24 340.45 238.13 349.24 237.41 358.03 239.17 366.83 243.18 375.62 248.93 384.41 255.71 393.2 262.65 402 268.87 410.79 273.59 419.58 276.22 428.38 276.41 437.17 274.15 445.96 269.71 454.75 263.67 463.55 256.79 472.34 249.93 481.13 243.97 489.92 239.65 498.72 237.52 507.51 237.86 516.3 240.62 526.34 253.02 522.09 269.43 517.69 278.28 514.61 287.13 513.02 295.97 512.99 304.82 514.54 313.67 517.57 322.52 521.93 331.36 527.39 340.21 533.67 349.06 540.43 357.91 547.33 366.76 554 375.6 560.1 384.45 565.3 393.3 569.34 402.15 572 410.99 573.14 419.84 572.71 428.69 570.72 437.54 567.28 446.39 562.57 455.23 556.84 464.08 550.39 472.93 543.55 481.78 536.68 490.62 530.14 499.47 524.27 508.32 519.38 517.17 510.38 525.58 496.56 517.68 479.63 514.79 462.69 522.85 454.22 532.07 445.75 542.68 437.29 553.32 428.82 562.66 411.88 571.11 394.94 568.66 386.48 561.36 378.01 551.74 369.54 541.01 361.07 530.53 352.6 521.63 344.14 515.43 335.67 512.72 327.2 513.83 318.73 518.64 310.26 526.52 301.8 536.48 293.33 547.27 284.86 557.52 276.39 565.93 259.46 571.44 242.52 565.91 243.61 556.72 245.41 547.53 247.81 538.34 250.68 529.15 253.89 519.96 257.27 510.77 260.62 501.58 263.79 492.39 266.6 483.2 268.91 474.01 270.6 464.82 271.58 455.62 271.79 446.43 271.23 437.24 269.92 428.05 267.94 418.86 265.39 409.67 262.4 400.48 259.12 391.29 255.74 382.1 252.42 372.91 249.34 363.72 246.66 354.53 244.52 345.34 243.03 336.15 242.27 326.96 242.28 317.77 243.07 308.58 244.58 299.39 246.74 290.2 249.43 281.01 252.52 271.82" stroke-dasharray="7 1" transform="rotate(52.52, 400, 400)" opacity="0.28"></path><path d="M259.44 287.29Q275.45 286.58 291.46 278.07 307.46 265.32 323.47 253.7 339.48 248.08 355.49 250.83 371.5 260.78 387.5 273.77 403.51 284.33 419.52 288.03 435.53 283.31 451.53 272.17 467.54 259.27 483.55 250.03 499.56 248.34 515.56 254.91 506.91 271 502.67 287.1 503.61 303.2 509.55 319.29 519.45 335.39 531.57 351.49 543.75 367.58 553.87 383.68 560.12 399.77 561.42 415.87 557.53 431.97 549.13 448.06 537.72 464.16 525.29 480.25 514.05 496.35 505.97 512.45 490.25 502.64 474.53 505.16 458.81 518.96 443.09 538.23 427.37 554.88 411.65 561.92 395.93 556.39 380.21 540.62 364.49 521.22 348.77 506.35 333.05 502.25 317.33 510.64 301.61 528 285.89 547.04 264.41 551.74 264.51 526.62 270.97 509.53 276.92 492.43 281.29 475.34 283.31 458.24 282.64 441.15 279.38 424.05 274.12 406.96 267.77 389.86 261.47 372.77 256.31 355.67 253.22 338.57 252.73 321.48 254.94 304.38 259.44 287.29" stroke-dasharray="7 7" transform="rotate(56.56, 400, 400)" opacity="0.20"></path><path d="M266.76 299.18Q281.27 293.69 295.77 282.99 310.27 270.86 324.77 261.63 339.28 258.56 353.78 262.74 368.28 272.7 382.79 284.89 397.29 294.99 411.79 299.41 426.3 296.59 440.8 287.52 455.3 275.42 469.81 264.6 488.85 266.9 492.07 289.52 495.05 304.13 501.88 318.74 511.55 333.34 522.62 347.95 533.45 362.56 542.43 377.16 548.23 391.77 549.98 406.38 547.43 420.99 540.95 435.59 531.51 450.2 520.5 464.81 509.57 479.41 500.34 494.02 485.79 491.96 471.25 500.21 456.7 515.84 442.15 533.3 427.61 546.39 413.06 550.46 398.52 544.08 383.97 529.5 369.42 511.9 354.88 497.53 340.33 491.49 325.79 495.92 311.24 509.26 296.69 526.76 277.42 538.33 278.72 518.77 284.79 503.08 290 487.4 293.57 471.71 294.98 456.03 294.01 440.34 290.82 424.66 285.86 408.97 279.89 393.29 273.78 377.6 268.45 361.92 264.69 346.24 263.04 330.55 263.77 314.87 266.76 299.18" stroke-dasharray="8 7" transform="rotate(60.599999999999994, 400, 400)" opacity="0.10"></path><path d="M274.84 307.17Q287.91 298.44 300.99 287.21 314.06 276.81 327.13 270.3 340.21 269.59 353.28 274.9 366.36 284.67 379.43 296 392.51 305.57 405.58 310.54 418.66 309.45 431.73 302.62 444.81 292.07 457.88 280.91 476.3 277.39 482.74 295.59 487.2 308.83 494.46 322.06 503.63 335.3 513.58 348.53 523.09 361.77 530.99 375 536.31 388.23 538.39 401.47 536.98 414.7 532.25 427.94 524.78 441.17 515.49 454.41 505.52 467.64 496.11 480.88 482.72 485.48 469.33 497.31 455.94 512.89 442.56 527.61 429.17 537.14 415.78 538.66 402.39 531.72 389 518.38 375.61 502.56 362.22 488.94 348.83 481.53 335.44 482.51 322.06 491.6 308.67 506.11 294.98 506.11 302.99 477.26 305.75 463.09 306.57 448.91 305.36 434.74 302.25 420.57 297.64 406.39 292.09 392.22 286.28 378.04 280.92 363.87 276.69 349.69 274.09 335.52 273.44 321.35 274.84 307.17" stroke-dasharray="5 4" transform="rotate(64.64, 400, 400)" opacity="0.48"></path><path d="M283.97 311.69Q295.69 301.66 307.41 291.48 319.12 283.57 330.84 279.85 342.55 281.21 354.27 287.31 365.99 296.7 377.7 307.12 389.42 316.07 401.13 321.4 412.85 321.83 424.57 317.26 436.28 308.78 448 298.44 465.67 291.29 474.56 305.84 479.93 317.8 487.21 329.76 495.66 341.72 504.44 353.68 512.68 365.64 519.56 377.6 524.38 389.56 526.66 401.52 526.19 413.48 523 425.43 517.41 437.39 509.99 449.35 501.46 461.31 492.69 473.27 480.47 482.42 468.24 495.55 456.02 509.5 443.8 520.93 431.57 527.1 419.35 526.52 407.12 519.33 394.9 507.26 382.67 493.21 370.45 480.54 358.23 472.31 346 470.48 333.78 475.5 321.55 486.15 309.14 487.97 315.82 462.99 317.79 450.38 318.08 437.77 316.67 425.16 313.69 412.55 309.45 399.95 304.36 387.34 298.93 374.73 293.72 362.12 289.22 349.51 285.91 336.91 284.1 324.3 283.97 311.69" stroke-dasharray="8 10" transform="rotate(68.68, 400, 400)" opacity="0.55"></path><path d="M294.41 313.87Q304.83 304.48 315.24 296.53 325.66 291.52 336.07 290.41 346.49 293.41 356.9 299.96 367.32 308.8 377.73 318.24 388.15 326.5 398.56 331.99 408.98 333.68 419.39 331.23 429.81 325.12 440.22 316.51 456.93 308.15 467.35 320 473.1 330.74 480.04 341.49 487.6 352.23 495.19 362.97 502.22 373.72 508.12 384.46 512.43 395.21 514.81 405.95 515.07 416.69 513.19 427.44 509.32 438.18 503.76 448.92 496.96 459.67 489.45 470.41 478.42 481.53 467.39 493.88 456.36 505.11 445.33 513.08 434.29 516.27 423.26 514.07 412.23 506.91 401.2 496.14 390.17 483.82 379.14 472.3 368.1 463.76 357.07 459.84 346.04 461.29 335.01 467.82 323.41 468.06 328.44 446.29 329.66 435.26 329.49 424.22 327.94 413.19 325.13 402.15 321.28 391.12 316.69 380.08 311.74 369.04 306.8 358.01 302.28 346.97 298.52 335.94 295.83 324.9 294.41 313.87" stroke-dasharray="7 8" transform="rotate(72.72, 400, 400)" opacity="0.15"></path><path d="M306.29 315.34Q315.44 308.11 324.6 303.06 333.75 300.93 342.91 302.02 352.06 306.19 361.22 312.82 370.37 320.94 379.53 329.36 388.68 336.85 397.83 342.31 406.99 344.94 416.14 344.36 425.3 340.65 434.45 334.36 449.9 326.94 460.89 337.03 466.56 346.57 472.87 356.11 479.42 365.66 485.83 375.2 491.7 384.74 496.68 394.28 500.47 403.83 502.83 413.37 503.63 422.91 502.82 432.45 500.44 442 496.64 451.54 491.65 461.08 485.77 470.63 475.97 481.29 466.18 491.32 456.38 499.26 446.59 503.94 436.79 504.67 427 501.35 417.2 494.47 407.41 485.02 397.61 474.41 387.81 464.17 378.02 455.81 368.22 450.55 358.43 449.16 348.63 451.85 337.56 448.43 340.79 429.34 341.36 419.84 340.81 410.34 339.18 400.84 336.56 391.34 333.13 381.84 329.08 372.34 324.67 362.84 320.15 353.34 315.81 343.84 311.9 334.34 308.66 324.84 306.29 315.34" stroke-dasharray="4 5" transform="rotate(76.76, 400, 400)" opacity="0.75"></path><path d="M319.62 317.94Q335.45 311.62 351.28 314.71 367.11 325.89 382.93 340.48 398.76 352.34 414.59 356.5 430.42 351.21 446.24 338.68 454.96 355.31 465.62 371.94 476.34 388.57 485.24 405.2 490.75 421.82 491.89 438.45 488.47 455.08 481.08 471.71 464.07 486.99 447.05 493.45 430.04 488.38 413.03 473.91 396.01 456.11 379 442.47 361.98 438.71 344.97 446.41 350.35 430.35 352.84 414.29 352.01 398.23 348 382.17 341.52 366.11 333.72 350.05 325.96 334 319.62 317.94" stroke-dasharray="4 9" transform="rotate(80.80000000000001, 400, 400)" opacity="0.25"></path><path d="M334.31 323.35Q347.65 322.58 361 328.41 374.34 339.14 387.69 351.6 401.04 362.11 414.38 367.57 427.73 366.37 441.07 358.87 449.29 372.93 458.21 386.99 466.73 401.05 473.81 415.12 478.57 429.18 480.44 443.24 479.17 457.3 474.93 471.36 460.6 480.21 446.27 481.63 431.94 475.18 417.62 462.79 403.29 448.09 388.96 435.43 374.63 428.54 360.3 429.46 363.56 416.19 364.53 402.93 363.1 389.67 359.44 376.4 354 363.14 347.46 349.88 340.61 336.61 334.31 323.35" stroke-dasharray="2 9" transform="rotate(84.84, 400, 400)" opacity="0.71"></path><path d="M350.11 332.77Q360.94 336 371.77 343.04 382.59 352.55 393.42 362.72 404.25 371.6 415.07 377.51 425.9 379.33 436.73 376.69 443.63 388.06 450.57 399.42 456.98 410.79 462.37 422.16 466.31 433.52 468.48 444.89 462.09 463.44 443.91 468.55 432.36 461.81 420.81 451.67 409.27 440.07 397.72 429.21 386.17 421.18 374.63 417.49 376.01 406.9 375.82 396.31 374.06 385.72 370.88 375.13 366.51 364.54 361.32 353.95 355.7 343.36 350.11 332.77" stroke-dasharray="8 3" transform="rotate(88.88, 400, 400)" opacity="0.94"></path><path d="M366.69 346.65Q383.18 358.45 399.67 373.84 416.16 386.35 432.64 390.74 442.64 407.86 450.93 424.97 447.91 448.23 422.37 440.55 404.98 423.56 387.6 410.53 386.69 394.56 382.31 378.59 375.23 362.62 366.69 346.65" stroke-dasharray="1 7" transform="rotate(92.92, 400, 400)" opacity="0.56"></path><path d="M383.63 364.59Q394.79 374.43 405.94 384.96 417.1 394.15 428.26 400.27 434.37 411.65 439.5 423.03 438.49 436.83 422.15 429.43 410.57 418.19 398.99 407.67 397.12 396.9 393.75 386.13 389.13 375.36 383.63 364.59" stroke-dasharray="4 9" transform="rotate(96.96, 400, 400)" opacity="0.16"></path></g></svg>