<svg xmlns="http://www.w3.org/2000/svg" version="1.1" xmlns:xlink="http://www.w3.org/1999/xlink" xmlns:svgjs="http://svgjs.dev/svgjs" viewBox="0 0 800 800"><defs><linearGradient x1="50%" y1="0%" x2="50%" y2="100%" id="ccchaos-grad"><stop stop-color="hsl(173.4, 100%, 42%)" stop-opacity="1" offset="0%"></stop><stop stop-color="hsl(173.4, 10%, 42%)" stop-opacity="1" offset="100%"></stop></linearGradient></defs><g stroke-width="2" stroke="url(#ccchaos-grad)" fill="none" stroke-linecap="round"><path d="M377.96 58.37Q386.07 62.6 394.41 67.15 402.99 72.05 411.82 77.3 420.91 82.94 430.28 88.93 439.92 95.29 449.85 101.97 460.05 108.95 470.52 116.19 481.25 123.62 492.24 131.2 503.46 138.85 514.89 146.51 526.53 154.11 538.33 161.57 550.28 168.83 562.34 175.83 574.48 182.5 586.68 188.8 598.88 194.68 611.06 200.11 623.18 205.09 635.21 209.59 647.09 213.63 658.81 217.23 670.32 220.42 681.59 223.26 692.59 225.79 703.28 228.09 718.67 236.39 722.2 252.82 719.23 263.09 714.9 273.36 709.4 283.63 702.94 293.89 695.78 304.16 688.23 314.43 680.59 324.69 673.16 334.96 666.26 345.23 660.17 355.5 655.13 365.76 651.35 376.03 648.98 386.3 648.12 396.56 648.81 406.83 651.02 417.1 654.65 427.37 659.57 437.63 665.56 447.9 672.38 458.17 679.76 468.44 687.4 478.7 694.98 488.97 702.19 499.24 708.74 509.51 714.36 519.77 718.83 530.04 721.95 540.31 723.61 550.58 723.73 560.84 713.8 571.16 703.52 581.51 692.9 591.76 681.97 601.77 670.76 611.39 659.31 620.5 647.64 628.99 635.79 636.75 623.8 643.71 611.71 649.8 599.55 654.98 587.35 659.26 575.17 662.64 563.02 665.16 550.95 666.88 538.98 667.9 527.16 668.31 515.5 668.23 504.02 667.82 492.76 667.22 481.73 666.58 470.95 666.07 460.43 665.84 450.18 666.05 440.2 666.84 430.5 668.33 421.08 670.63 411.93 673.83 403.05 678 394.41 683.16 386.03 689.34 377.86 696.52 360.69 693.89 344.18 693.27 328.57 694.57 313.4 696.07 298.7 696.31 284.16 694.93 269.65 689.77 255.02 681.93 247.59 676.37 240.07 669.9 232.44 662.55 224.69 654.4 216.82 645.54 208.8 636.08 200.65 626.14 192.35 615.86 183.91 605.39 175.32 594.86 166.58 584.43 157.72 574.24 148.73 564.42 139.62 555.1 130.4 546.38 121.09 538.36 121.06 528.37 120.75 518.39 120.16 508.4 119.32 498.41 118.27 488.42 117.03 478.43 115.68 468.44 114.25 458.45 112.81 448.47 111.42 438.48 110.14 428.49 109.01 418.5 108.09 408.51 107.4 398.52 106.99 388.54 106.86 378.55 107.02 368.56 107.47 358.57 108.18 348.58 109.13 338.59 110.27 328.6 111.57 318.62 112.97 308.63 114.41 298.64 115.83 288.65 117.17 278.66 118.39 268.68 119.43 258.69 120.24 248.7 120.8 238.71 125.72 222.13 139.56 212.68 148.65 210.11 157.62 207.73 166.47 205.47 175.17 203.24 192.09 198.48 208.57 193.13 224.36 186.2 239.77 178.08 247.28 173.26 254.7 168 262.05 162.31 269.34 156.23 276.6 149.78 283.85 143 291.11 135.96 298.4 128.71 305.74 121.32 313.16 113.84 320.68 106.35 328.33 98.9 336.12 91.57 344.08 84.42 352.23 77.48 360.58 70.8 373.55 61.39 377.96 58.37" stroke-dasharray="0 0" transform="rotate(0, 400, 400)" opacity="0.05"></path><path d="M377.52 70.64Q385.86 74.67 394.43 79.02 403.24 83.69 412.29 88.71 421.59 94.08 431.13 99.8 440.92 105.87 450.95 112.26 461.22 118.95 471.71 125.88 482.41 133.03 493.31 140.34 504.38 147.75 515.61 155.19 526.97 162.61 538.44 169.94 549.99 177.12 561.6 184.08 573.22 190.77 584.84 197.13 596.41 203.13 607.91 208.72 619.31 213.89 630.57 218.61 641.66 222.89 652.56 226.74 663.22 230.16 673.63 233.2 683.77 235.9 693.6 238.3 707.27 246.45 709.24 262.37 705.74 272.32 701.08 282.27 695.44 292.22 689.03 302.17 682.09 312.11 674.88 322.06 667.67 332.01 660.74 341.96 654.35 351.91 648.74 361.85 644.11 371.8 640.66 381.75 638.5 391.7 637.72 401.65 638.34 411.59 640.35 421.54 643.66 431.49 648.16 441.44 653.67 451.39 659.99 461.33 666.87 471.28 674.06 481.23 681.28 491.18 688.27 501.13 694.75 511.08 700.49 521.02 705.27 530.97 708.91 540.92 711.26 550.87 712.25 560.82 703.16 570.69 693.73 580.44 683.97 589.95 673.91 599.1 663.56 607.78 652.95 615.88 642.11 623.32 631.07 630.03 619.85 635.96 608.49 641.07 597.02 645.35 585.47 648.8 573.87 651.46 562.25 653.37 550.65 654.62 539.1 655.27 527.62 655.44 516.24 655.24 504.99 654.81 493.89 654.27 482.96 653.76 472.22 653.44 461.69 653.42 451.38 653.85 441.3 654.84 431.46 656.5 421.87 658.92 412.52 662.17 403.42 666.32 394.56 671.38 377.8 679.87 361.97 681.25 347.15 680.93 332.74 681.73 318.8 683 305.01 683.71 291.26 682.19 277.42 678.7 263.25 671.28 248.78 661.3 241.35 654.85 233.79 647.61 226.1 639.67 218.26 631.09 210.29 621.98 202.17 612.46 193.92 602.63 185.52 592.62 177 582.58 168.35 572.61 159.58 562.86 150.71 553.43 141.75 544.44 132.7 535.99 132.49 526.34 132.01 516.69 131.25 507.04 130.26 497.39 129.08 487.74 127.73 478.09 126.29 468.44 124.79 458.79 123.3 449.14 121.88 439.49 120.57 429.84 119.43 420.19 118.5 410.54 117.81 400.89 117.4 391.24 117.27 381.59 117.43 371.94 117.88 362.29 118.59 352.64 119.55 342.99 120.71 333.34 122.03 323.69 123.47 314.04 124.96 304.39 126.45 294.75 127.89 285.1 129.22 275.45 130.39 265.8 131.35 256.15 132.07 246.5 137.13 230.71 150.68 222.2 159.53 220 168.27 217.91 185.33 213.68 202 209.1 217.98 203.33 233.53 196.53 248.42 187.75 262.97 177.72 270.06 172.01 277.08 165.93 284.03 159.52 290.93 152.82 297.81 145.9 304.68 138.8 311.56 131.58 318.47 124.3 325.44 117.03 332.48 109.82 339.63 102.73 346.89 95.81 354.29 89.1 361.85 82.65 373.55 73.56 377.52 70.64" stroke-dasharray="8 2" transform="rotate(4.04, 400, 400)" opacity="0.09"></path><path d="M378.47 82.91Q387.01 86.75 395.77 90.88 404.75 95.33 413.95 100.11 423.36 105.22 432.99 110.67 442.82 116.45 452.86 122.54 463.07 128.92 473.46 135.56 484.01 142.41 494.7 149.43 505.5 156.57 516.4 163.78 527.38 170.99 538.41 178.16 549.46 185.22 560.51 192.11 571.53 198.78 582.5 205.17 593.38 211.26 604.15 216.98 614.78 222.32 625.25 227.26 635.53 231.78 645.59 235.87 655.41 239.55 664.98 242.84 674.27 245.76 683.26 248.34 695.33 256.49 695.92 271.95 692 281.58 687.11 291.2 681.42 300.82 675.12 310.44 668.43 320.06 661.59 329.69 654.84 339.31 648.4 348.93 642.5 358.55 637.35 368.17 633.13 377.8 629.98 387.42 628.02 397.04 627.31 406.66 627.87 416.28 629.69 425.91 632.71 435.53 636.81 445.15 641.86 454.77 647.68 464.39 654.06 474.02 660.79 483.64 667.64 493.26 674.35 502.88 680.71 512.5 686.49 522.12 691.48 531.75 695.51 541.37 698.45 550.99 700.19 560.61 691.9 569.86 683.29 578.86 674.37 587.51 665.15 595.72 655.65 603.39 645.88 610.47 635.88 616.87 625.66 622.57 615.24 627.52 604.65 631.71 593.92 635.16 583.06 637.88 572.12 639.91 561.12 641.31 550.08 642.16 539.04 642.53 528.01 642.53 517.03 642.26 506.12 641.85 495.3 641.4 484.59 641.05 474.02 640.91 463.6 641.1 453.35 641.74 443.28 642.92 433.41 644.73 423.74 647.26 414.28 650.55 405.04 654.65 396.01 659.59 379.36 667.76 364.56 668.97 351.06 668.43 337.81 668.97 324.79 670.09 311.81 670.81 298.67 669.73 285.36 666.97 271.6 660.77 257.5 652.26 250.24 646.66 242.84 640.32 235.3 633.28 227.63 625.6 219.83 617.36 211.88 608.64 203.81 599.55 195.6 590.19 187.28 580.66 178.85 571.09 170.31 561.57 161.68 552.23 152.97 543.17 144.18 534.49 143.79 525.17 143.12 515.85 142.21 506.53 141.08 497.22 139.77 487.9 138.33 478.58 136.81 469.26 135.26 459.94 133.74 450.63 132.29 441.31 130.97 431.99 129.83 422.67 128.9 413.35 128.22 404.04 127.8 394.72 127.68 385.4 127.84 376.08 128.28 366.76 129 357.45 129.95 348.13 131.12 338.81 132.45 329.49 133.91 320.17 135.44 310.86 136.99 301.54 138.5 292.22 139.93 282.9 141.22 273.58 142.33 264.26 143.21 254.95 148.41 239.88 161.67 232.13 178.75 228.26 195.51 224.25 211.67 219.39 227.44 213.69 242.53 206.25 257.21 197.64 264.33 192.64 271.33 187.27 278.21 181.54 285 175.48 291.71 169.13 298.33 162.53 304.9 155.74 311.43 148.81 317.93 141.78 324.43 134.72 330.94 127.68 337.48 120.71 344.07 113.86 350.73 107.19 357.48 100.72 364.34 94.5 374.9 85.73 378.47 82.91" stroke-dasharray="0 0" transform="rotate(8.08, 400, 400)" opacity="0.13"></path><path d="M380.74 95.19Q389.43 98.84 398.3 102.77 407.37 106.99 416.62 111.53 426.05 116.38 435.65 121.55 445.41 127.04 455.33 132.83 465.38 138.9 475.54 145.22 485.82 151.76 496.18 158.48 506.6 165.34 517.07 172.29 527.56 179.28 538.05 186.25 548.52 193.16 558.94 199.94 569.29 206.55 579.55 212.95 589.69 219.08 599.7 224.9 609.54 230.39 619.2 235.51 628.65 240.25 637.89 244.59 646.88 248.54 655.63 252.09 672.15 257.94 687.82 262.83 685.57 272.12 682.28 281.4 678.05 290.69 673.02 299.97 667.36 309.26 661.23 318.55 654.84 327.83 648.39 337.12 642.09 346.4 636.14 355.69 630.72 364.97 626.02 374.26 622.18 383.54 619.32 392.83 617.55 402.11 616.9 411.4 617.41 420.68 619.05 429.97 621.78 439.25 625.5 448.54 630.11 457.82 635.45 467.11 641.34 476.4 647.61 485.68 654.05 494.97 660.46 504.25 666.63 513.54 672.36 522.82 677.48 532.11 681.81 541.39 685.22 550.68 687.6 559.96 680.06 568.43 672.22 576.56 664.09 584.27 655.69 591.49 647.01 598.15 638.08 604.2 628.9 609.6 619.5 614.33 609.89 618.38 600.1 621.75 590.14 624.46 580.04 626.53 569.81 628.03 559.49 629.01 549.09 629.54 538.63 629.71 528.16 629.6 517.67 629.31 507.2 628.95 496.78 628.62 486.41 628.43 476.13 628.49 465.94 628.88 455.87 629.72 445.93 631.07 436.14 633.02 426.5 635.62 417.04 638.94 407.75 642.99 398.64 647.8 382.16 655.63 368.27 656.68 355.85 655.95 343.56 656.24 331.29 657.19 318.93 657.9 306.28 657.16 293.37 655.03 279.94 649.93 266.14 642.78 259.02 637.98 251.76 632.48 244.38 626.32 236.86 619.54 229.21 612.18 221.43 604.32 213.54 596.04 205.52 587.4 197.41 578.51 189.19 569.47 180.88 560.36 172.49 551.29 164.03 542.35 155.52 533.64 154.93 524.65 154.09 515.66 153.02 506.67 151.76 497.68 150.35 488.69 148.83 479.7 147.25 470.71 145.66 461.72 144.11 452.74 142.66 443.75 141.34 434.76 140.21 425.77 139.29 416.78 138.62 407.79 138.21 398.8 138.08 389.81 138.24 380.82 138.68 371.83 139.39 362.84 140.33 353.85 141.49 344.86 142.83 335.87 144.3 326.88 145.85 317.89 147.44 308.9 149.02 299.91 150.53 290.92 151.92 281.93 153.16 272.94 154.21 263.95 159.54 249.55 172.51 242.37 189.12 238.72 205.46 234.73 221.26 229.65 236.69 223.68 251.48 215.95 265.87 207.11 272.84 202.05 279.68 196.64 286.41 190.91 293.02 184.89 299.53 178.63 305.94 172.15 312.27 165.51 318.53 158.75 324.74 151.93 330.9 145.1 337.04 138.29 343.17 131.57 349.31 124.98 355.47 118.56 374.37 100.84 380.74 95.19" stroke-dasharray="10 5" transform="rotate(12.12, 400, 400)" opacity="0.16"></path><path d="M384.21 107.46Q401.83 114.64 420.07 122.94 438.86 132.44 458.11 143.11 477.7 154.87 497.51 167.5 517.39 180.73 537.18 194.21 556.73 207.58 575.88 220.44 594.47 232.45 612.37 243.32 629.44 252.83 645.59 260.87 660.73 267.43 674.82 272.66 668.37 290.54 658.85 308.41 647.38 326.29 635.28 344.16 623.97 362.04 614.74 379.91 608.68 397.79 606.49 415.66 608.42 433.54 614.25 451.41 623.3 469.29 634.53 487.16 646.62 505.04 658.17 522.91 667.84 540.79 674.52 558.66 660.56 573.43 645.54 586.37 629.52 597.08 612.57 605.37 594.78 611.23 576.27 614.83 557.2 616.53 537.71 616.84 517.95 616.42 498.09 615.95 478.28 616.18 458.67 617.79 439.39 621.37 420.55 627.36 402.26 636.03 384.56 647.43 372.9 644.42 361.36 643.34 349.81 643.56 338.13 644.36 326.22 644.99 313.97 644.73 301.32 642.93 288.21 639.09 274.6 632.87 260.48 624.12 245.86 612.9 230.77 599.44 215.23 584.16 199.33 567.6 183.12 550.4 166.68 533.23 164.89 515.9 162.31 498.58 159.22 481.26 155.99 463.93 152.99 446.61 150.57 429.29 149.01 411.96 148.49 394.64 149.08 377.31 150.7 359.99 153.17 342.67 156.19 325.34 159.43 308.02 162.49 290.69 165.04 273.37 166.76 256.04 183.17 252.79 199.34 249.26 215.21 245.06 230.69 239.85 245.73 233.4 260.3 225.58 274.36 216.35 287.92 205.82 300.99 194.16 313.6 181.66 325.81 168.62 337.71 155.42 349.38 142.41 360.94 129.91 378.36 112.82 384.21 107.46" stroke-dasharray="7 7" transform="rotate(16.16, 400, 400)" opacity="0.20"></path><path d="M388.65 119.73Q406.12 126.53 424.05 134.36 442.36 143.32 460.94 153.4 479.69 164.51 498.48 176.49 517.18 189.1 535.66 202.06 553.78 215.03 571.42 227.67 588.44 239.65 604.75 250.69 620.26 260.56 634.89 269.09 648.6 276.25 661.37 282.05 654.23 299.21 644.64 316.36 633.59 333.51 622.28 350.67 611.88 367.82 603.51 384.97 598.05 402.13 596.08 419.28 597.81 436.43 603.05 453.59 611.25 470.74 621.54 487.89 632.83 505.04 643.93 522.2 653.66 539.35 660.99 556.5 648.34 569.34 634.75 580.29 620.23 589.11 604.84 595.72 588.64 600.22 571.71 602.82 554.16 603.91 536.1 603.98 517.68 603.61 499.01 603.41 480.24 604.01 461.49 605.97 442.9 609.79 424.57 615.81 406.6 624.26 389.07 635.16 378.24 632.17 367.37 630.94 356.35 630.94 345.08 631.54 333.49 632.11 321.51 632.01 309.08 630.68 296.18 627.65 282.8 622.56 268.93 615.24 254.59 605.65 239.83 593.92 224.7 580.34 209.24 565.31 193.53 549.34 177.65 532.99 175.53 516.33 172.72 499.67 169.52 483 166.25 466.34 163.28 449.68 160.91 433.01 159.4 416.35 158.9 399.69 159.47 383.03 161.05 366.36 163.47 349.7 166.47 333.04 169.74 316.37 172.92 299.71 175.7 283.05 177.76 266.38 193.62 263.26 209.29 259.62 224.71 255.16 239.8 249.61 254.51 242.82 268.79 234.73 282.6 225.35 295.93 214.8 308.78 203.28 321.16 191.06 333.1 178.43 344.66 165.71 355.91 153.22 366.92 141.24 383.22 124.87 388.65 119.73" stroke-dasharray="3 10" transform="rotate(20.200000000000003, 400, 400)" opacity="0.24"></path><path d="M393.78 132Q410.87 138.41 428.25 145.8 445.85 154.22 463.56 163.7 481.27 174.16 498.89 185.47 516.29 197.44 533.36 209.82 550 222.32 566.1 234.65 581.58 246.51 596.36 257.63 610.37 267.76 623.58 276.73 635.97 284.44 647.52 290.87 639.92 307.27 630.4 323.68 619.88 340.08 609.37 356.48 599.88 372.89 592.33 389.29 587.44 405.7 585.67 422.1 587.21 438.5 591.89 454.91 599.28 471.31 608.66 487.71 619.13 504.11 629.68 520.52 639.3 536.92 647.07 553.32 635.62 564.2 623.34 573.23 610.24 580.3 596.34 585.43 581.67 588.76 566.29 590.56 550.27 591.2 533.71 591.15 516.7 590.9 499.35 591 481.77 591.95 464.08 594.24 446.38 598.25 428.78 604.28 411.38 612.49 394.26 622.88 384.03 619.93 373.62 618.57 362.95 618.35 351.96 618.76 340.59 619.24 328.8 619.25 316.55 618.3 303.83 615.95 290.66 611.87 277.04 605.84 263.01 597.77 248.61 587.72 233.88 575.85 218.9 562.46 203.72 547.92 188.4 532.67 185.99 516.68 183 500.69 179.72 484.7 176.46 468.71 173.54 452.72 171.25 436.73 169.79 420.74 169.31 404.75 169.86 388.76 171.38 372.77 173.73 356.78 176.68 340.79 179.95 324.8 183.22 308.81 186.18 292.82 188.55 276.83 203.83 273.64 218.99 269.76 233.93 264.95 248.61 259.04 262.97 251.92 276.95 243.59 290.51 234.1 303.63 223.59 316.29 212.27 328.48 200.37 340.23 188.17 351.56 175.95 362.52 164 373.16 152.56 388.67 136.92 393.78 132" stroke-dasharray="9 0" transform="rotate(24.24, 400, 400)" opacity="0.28"></path><path d="M399.31 144.27Q415.77 150.3 432.38 157.24 449.06 165.13 465.71 174.01 482.24 183.82 498.56 194.45 514.57 205.74 530.19 217.5 545.33 229.48 559.92 241.42 573.9 253.05 587.21 264.13 599.82 274.43 611.71 283.75 622.88 291.96 633.34 298.99 625.47 314.62 616.18 330.24 606.26 345.87 596.58 361.5 587.98 377.12 581.2 392.75 576.83 408.38 575.26 424 576.62 439.63 580.79 455.26 587.41 470.88 595.9 486.51 605.53 502.13 615.46 517.76 624.83 533.39 632.82 549.01 622.45 557.98 611.38 565.22 599.59 570.71 587.08 574.55 573.87 576.93 559.99 578.11 545.49 578.46 530.43 578.38 514.89 578.32 498.93 578.72 482.67 580.02 466.17 582.6 449.55 586.78 432.89 592.78 416.28 600.72 399.8 610.61 389.95 607.71 379.84 606.23 369.4 605.82 358.58 606.02 347.35 606.4 335.69 606.47 323.59 605.81 311.06 604.03 298.11 600.82 284.76 595.94 271.06 589.28 257.04 580.82 242.77 570.63 228.28 558.91 213.66 545.93 198.94 532.02 196.27 516.72 193.14 501.42 189.83 486.12 186.61 470.82 183.78 455.52 181.57 440.22 180.17 424.92 179.72 409.62 180.24 394.32 181.7 379.02 183.97 363.72 186.84 348.41 190.07 333.11 193.38 317.81 196.49 302.51 199.11 287.21 213.81 283.8 228.41 279.58 242.86 274.37 257.1 268.09 271.07 260.67 284.72 252.14 298.02 242.61 310.91 232.2 323.39 221.11 335.43 209.58 347.04 197.85 358.22 186.16 368.99 174.76 379.4 163.87 394.39 148.97 399.31 144.27" stroke-dasharray="8 3" transform="rotate(28.28, 400, 400)" opacity="0.32"></path><path d="M404.87 156.54Q420.5 162.2 436.14 168.68 451.72 176.06 467.17 184.34 482.4 193.48 497.34 203.42 511.92 214.02 526.07 225.12 539.74 236.51 552.86 247.98 565.41 259.3 577.34 270.23 588.66 280.57 599.34 290.12 609.4 298.74 618.88 306.32 610.95 321.15 602 335.97 592.75 350.79 583.91 365.62 576.16 380.44 570.12 395.26 566.25 410.09 564.85 424.91 566.05 439.73 569.73 454.56 575.62 469.38 583.25 484.21 592.03 499.03 601.28 513.85 610.27 528.68 618.31 543.5 608.91 550.67 598.93 556.29 588.34 560.42 577.12 563.19 565.28 564.81 552.82 565.54 539.79 565.73 526.21 565.71 512.13 565.88 497.62 566.6 482.74 568.23 467.56 571.07 452.15 575.37 436.6 581.3 420.97 588.96 405.35 598.34 395.73 595.49 385.77 593.93 375.45 593.33 364.73 593.35 353.61 593.6 342.07 593.69 330.13 593.25 317.79 591.93 305.09 589.46 292.05 585.59 278.71 580.19 265.12 573.2 251.33 564.62 237.38 554.57 223.34 543.22 209.25 530.82 206.38 516.22 203.16 501.63 199.85 487.04 196.71 472.45 193.98 457.86 191.87 443.27 190.56 428.67 190.13 414.08 190.63 399.49 192.01 384.9 194.17 370.31 196.94 355.72 200.11 341.13 203.42 326.53 206.62 311.94 209.46 297.35 223.53 293.59 237.55 288.96 251.47 283.35 265.23 276.71 278.77 269.03 292.07 260.38 305.06 250.85 317.71 240.61 329.99 229.82 341.88 218.7 353.36 207.47 364.43 196.33 375.09 185.5 385.37 175.17 400.08 161.01 404.87 156.54" stroke-dasharray="0 8" transform="rotate(32.32, 400, 400)" opacity="0.35"></path><path d="M410.14 168.82Q424.74 174.11 439.25 180.15 453.61 187.01 467.75 194.69 481.61 203.18 495.14 212.42 508.28 222.31 520.99 232.71 533.23 243.46 544.96 254.39 556.16 265.29 566.83 275.96 576.95 286.22 586.54 295.87 595.61 304.78 604.21 312.81 596.38 326.81 587.9 340.81 579.36 354.8 571.35 368.8 564.43 382.8 559.08 396.8 555.67 410.79 554.45 424.79 555.49 438.79 558.72 452.79 563.92 466.79 570.73 480.78 578.67 494.78 587.19 508.78 595.7 522.78 603.6 536.78 595.07 542.31 586.07 546.52 576.55 549.5 566.51 551.42 555.93 552.47 544.82 552.92 533.17 553.05 521.01 553.17 508.38 553.6 495.31 554.64 481.85 556.56 468.04 559.62 453.95 564 439.63 569.83 425.15 577.19 410.57 586.06 401.05 583.28 391.16 581.64 380.9 580.89 370.26 580.73 359.23 580.84 347.83 580.91 336.06 580.62 323.96 579.67 311.54 577.8 298.86 574.81 285.93 570.52 272.82 564.86 259.56 557.79 246.19 549.36 232.77 539.66 219.33 528.85 216.31 514.99 213.06 501.13 209.8 487.27 206.76 473.41 204.16 459.55 202.17 445.69 200.94 431.83 200.54 417.97 201.01 404.11 202.31 390.25 204.36 376.39 207 362.53 210.07 348.67 213.33 334.81 216.57 320.95 219.57 307.09 232.99 302.9 246.4 297.84 259.74 291.83 272.97 284.88 286.06 277.01 298.94 268.3 311.58 258.87 323.94 248.85 335.99 238.41 347.71 227.75 359.05 217.04 370.02 206.48 380.61 196.23 390.82 186.46 405.4 173.06 410.14 168.82" stroke-dasharray="8 10" transform="rotate(36.36, 400, 400)" opacity="0.39"></path><path d="M414.77 181.09Q428.21 186.02 441.47 191.62 454.52 197.97 467.3 205.06 479.77 212.9 491.89 221.44 503.63 230.6 514.95 240.28 525.83 250.35 536.26 260.66 546.23 271.05 555.73 281.35 564.78 291.4 573.39 301.02 581.58 310.07 589.39 318.43 581.83 331.58 573.9 344.73 566.11 357.88 558.92 371.04 552.79 384.19 548.09 397.34 545.11 410.49 544.04 423.65 544.94 436.8 547.75 449.95 552.31 463.11 558.33 476.26 565.44 489.41 573.2 502.56 581.07 524.35 572.86 536.01 564.32 538.07 555.34 539.34 545.91 540.01 536.02 540.31 525.67 540.48 514.86 540.8 503.61 541.5 491.95 542.84 479.89 545.04 467.48 548.27 454.76 552.69 441.76 558.4 428.54 565.43 415.14 573.79 405.64 571.09 395.79 569.4 385.57 568.5 375.01 568.17 364.11 568.15 352.87 568.17 341.33 567.96 329.52 567.29 317.46 565.91 305.18 563.64 292.73 560.32 280.14 555.84 267.45 550.15 254.7 543.23 241.94 535.14 229.19 525.95 226.08 512.84 222.85 499.74 219.68 486.63 216.78 473.53 214.32 460.42 212.46 447.32 211.31 434.21 210.95 421.11 211.38 408.01 212.6 394.9 214.52 381.8 217.02 368.69 219.95 355.59 223.13 342.49 226.37 329.38 229.45 316.28 242.19 311.63 254.95 306.13 267.68 299.77 280.34 292.58 292.9 284.59 305.32 275.91 317.56 266.63 329.58 256.91 341.35 246.88 352.83 236.71 364.01 226.56 374.86 216.59 385.37 206.93 395.52 197.74 410.05 185.09 414.77 181.09" stroke-dasharray="10 6" transform="rotate(40.400000000000006, 400, 400)" opacity="0.43"></path><path d="M418.5 193.36Q430.67 197.93 442.62 203.11 454.31 208.95 465.73 215.47 476.82 222.66 487.58 230.5 497.97 238.92 507.99 247.86 517.61 257.2 526.85 266.84 535.69 276.65 544.14 286.47 552.23 296.18 559.97 305.62 567.38 314.66 574.51 323.18 567.33 335.48 560.03 347.77 553 360.06 546.62 372.35 541.24 384.65 537.14 396.94 534.56 409.23 533.63 421.52 534.4 433.82 536.83 446.11 540.79 458.4 546.07 470.7 552.37 482.99 559.35 495.28 566.71 515.18 559.4 524.87 543.5 526.87 526.51 527.76 517.35 528.07 507.79 528.61 497.84 529.6 487.52 531.22 476.83 533.64 465.8 537.01 454.44 541.43 442.8 546.98 430.9 553.68 418.78 561.52 409.28 558.91 399.46 557.18 389.33 556.17 378.89 555.68 368.16 555.52 357.16 555.46 345.91 555.29 334.45 554.81 322.81 553.81 311.01 552.13 299.08 549.62 287.07 546.17 275.01 541.7 262.93 536.17 250.86 529.59 238.83 521.99 235.7 509.66 232.53 497.34 229.5 485.01 226.76 472.68 224.47 460.36 222.75 448.03 221.69 435.7 221.36 423.38 221.76 411.05 222.88 398.73 224.66 386.4 227 374.08 229.77 361.75 232.83 349.42 236 337.1 239.12 324.77 251.14 319.67 263.21 313.79 275.28 307.16 287.33 299.8 299.31 291.79 311.21 283.21 322.98 274.18 334.59 264.81 346 255.24 357.2 245.6 368.15 236.04 378.83 226.67 389.22 217.62 399.3 209 413.78 197.13 418.5 193.36" stroke-dasharray="10 7" transform="rotate(44.44, 400, 400)" opacity="0.47"></path><path d="M421.08 205.63Q431.94 209.85 442.56 214.61 452.91 219.95 462.99 225.91 472.76 232.46 482.22 239.6 491.36 247.29 500.17 255.47 508.65 264.07 516.8 272.98 524.63 282.12 532.16 291.37 539.4 300.62 546.37 309.74 553.1 318.61 559.61 327.13 552.94 338.55 546.31 349.97 540.05 361.4 534.45 372.82 529.77 384.24 526.24 395.66 524.02 407.09 523.22 418.51 523.87 429.93 525.95 441.36 529.36 452.78 533.93 464.2 539.45 475.63 545.66 487.05 545.6 509.65 531.65 514.67 516.23 515.43 499.88 516.63 491.13 517.89 482.05 519.77 472.65 522.38 462.94 525.84 452.92 530.22 442.62 535.58 432.06 541.92 421.25 549.25 411.8 546.74 402.06 545 392.06 543.89 381.82 543.26 371.34 542.96 360.65 542.81 349.78 542.64 338.76 542.28 327.61 541.56 316.35 540.34 305.02 538.49 293.65 535.91 282.26 532.49 270.89 528.2 259.55 523 248.27 516.89 245.19 505.36 242.13 493.84 239.27 482.31 236.71 470.78 234.6 459.26 233.03 447.73 232.07 436.21 231.76 424.68 232.13 413.15 233.16 401.63 234.79 390.1 236.95 378.58 239.54 367.05 242.44 355.52 245.5 344 248.58 332.47 259.86 326.97 271.2 320.79 282.57 313.96 293.94 306.54 305.3 298.6 316.61 290.23 327.84 281.51 338.96 272.57 349.95 263.51 360.78 254.44 371.42 245.48 381.86 236.73 392.06 228.3 402 220.26 416.38 209.16 421.08 205.63" stroke-dasharray="1 1" transform="rotate(48.48, 400, 400)" opacity="0.51"></path><path d="M422.37 217.9Q431.91 221.77 441.22 226.12 450.29 230.98 459.09 236.38 467.63 242.31 475.9 248.76 483.89 255.72 491.6 263.14 499.05 270.96 506.24 279.11 513.18 287.53 519.89 296.12 526.38 304.8 532.67 313.46 538.8 322.01 544.78 330.34 538.68 340.89 532.77 351.44 527.27 361.99 522.41 372.54 518.39 383.09 515.38 393.63 513.49 404.18 512.81 414.73 513.36 425.28 515.12 435.83 518.02 446.38 521.93 456.93 526.71 467.48 532.15 478.03 531.94 498.18 519.33 502.29 505.65 503.26 491.23 504.89 475.49 508.83 458.93 514.76 450.18 519.06 441.17 524.2 431.91 530.17 422.41 536.98 413.07 534.58 403.51 532.84 393.74 531.66 383.78 530.91 373.65 530.48 363.37 530.23 352.97 530.02 342.46 529.72 331.88 529.2 321.24 528.33 310.57 527 299.89 525.11 289.23 522.58 278.6 519.35 268.03 515.37 257.54 510.62 254.55 499.91 251.66 489.2 248.99 478.5 246.65 467.79 244.73 457.08 243.31 446.37 242.44 435.67 242.17 424.96 242.51 414.25 243.43 403.55 244.91 392.84 246.88 382.13 249.27 371.42 251.97 360.72 254.87 350.01 257.86 339.3 268.36 333.49 278.94 327.1 289.56 320.2 300.22 312.83 310.89 305.06 321.55 296.97 332.17 288.65 342.73 280.19 353.21 271.68 363.58 263.22 373.82 254.89 383.91 246.77 393.83 238.96 403.56 231.51 417.72 221.19 422.37 217.9" stroke-dasharray="9 1" transform="rotate(52.52, 400, 400)" opacity="0.54"></path><path d="M422.27 230.17Q430.56 233.7 438.63 237.65 446.48 242.04 454.11 246.89 461.52 252.21 468.7 258 475.66 264.23 482.41 270.88 488.95 277.92 495.29 285.29 501.44 292.94 507.43 300.8 513.27 308.81 518.97 316.89 524.56 324.96 530.06 332.95 524.61 342.62 519.41 352.3 514.66 361.97 510.51 371.65 507.1 381.32 504.56 391 502.98 400.67 502.4 410.35 502.86 420.02 504.33 429.7 506.76 439.37 510.07 449.05 514.14 458.72 518.83 468.4 509.6 488.49 494.77 491.18 481.86 493.62 468.34 497.41 453.73 504.1 438.46 512.83 430.43 518.42 422.19 524.71 413.07 522.44 403.79 520.72 394.36 519.48 384.79 518.64 375.12 518.08 365.35 517.73 355.5 517.46 345.6 517.18 335.67 516.77 325.72 516.15 315.77 515.21 305.84 513.86 295.94 512.05 286.1 509.7 276.33 506.76 266.64 503.19 263.82 493.32 261.13 483.45 258.69 473.58 256.57 463.7 254.85 453.83 253.58 443.96 252.82 434.09 252.58 424.21 252.88 414.34 253.71 404.47 255.03 394.59 256.8 384.72 258.96 374.85 261.44 364.97 264.14 355.1 266.98 345.23 276.68 339.21 286.46 332.75 296.3 325.89 306.19 318.68 316.12 311.19 326.07 303.48 336.01 295.62 345.93 287.7 355.81 279.79 365.63 271.95 375.38 264.27 385.02 256.8 394.55 249.61 403.95 242.75 417.73 233.22 422.27 230.17" stroke-dasharray="11 3" transform="rotate(56.56, 400, 400)" opacity="0.58"></path><path d="M420.8 242.45Q434.84 249.2 448.17 257.46 460.78 267.32 472.72 278.74 484.07 291.56 494.9 305.49 505.34 320.15 515.51 335.09 506.27 352.7 498.73 370.31 493.78 387.92 491.99 405.53 493.57 423.14 498.33 440.75 505.73 458.36 514.89 475.96 504.72 476.99 494.31 477.97 483.51 479.5 472.22 482.17 460.35 486.49 447.81 492.85 434.57 501.47 420.6 512.43 402.96 508.62 384.94 506.43 366.66 505.31 348.25 504.67 329.84 503.85 311.53 502.25 293.42 499.32 275.62 494.67 270.56 476.61 266.49 458.56 263.86 440.51 262.99 422.46 263.98 404.41 266.71 386.35 270.86 368.3 275.96 350.25 293.79 337.77 311.91 324.15 330.22 309.78 348.63 295.13 367.01 280.66 385.25 266.83 403.21 253.99 420.8 242.45 420.8 242.45 420.8 242.45" stroke-dasharray="11 10" transform="rotate(60.599999999999994, 400, 400)" opacity="0.62"></path><path d="M418.04 254.72Q430.01 260.76 441.41 268.06 452.3 276.71 462.71 286.71 472.72 297.95 482.41 310.25 491.86 323.35 501.2 336.93 493.35 352.82 487.1 368.71 483.04 384.6 481.58 400.48 482.85 416.37 486.73 432.26 492.06 456.57 481.82 466.22 472.15 468.16 462.18 471.23 451.81 475.76 440.98 482.02 429.64 490.14 417.74 500.16 401.13 496.56 384.32 494.3 367.41 493.02 350.5 492.24 333.68 491.51 317.03 490.37 300.62 488.37 284.51 485.16 279.98 468.82 276.41 452.47 274.14 436.12 273.4 419.78 274.25 403.43 276.62 387.08 280.27 370.73 284.85 354.38 300.99 342.2 317.43 329.26 334.09 315.89 350.91 302.47 367.81 289.34 384.69 276.83 401.47 265.22 418.04 254.72 418.04 254.72 418.04 254.72" stroke-dasharray="2 7" transform="rotate(64.64, 400, 400)" opacity="0.66"></path><path d="M414.17 266.99Q424.31 272.33 434.06 278.72 443.45 286.21 452.54 294.83 461.38 304.52 470.05 315.17 478.62 326.62 487.17 338.65 480.66 352.84 475.59 367.03 472.34 381.22 471.18 395.41 472.18 409.6 475.27 423.79 479.13 445.63 469.48 454.85 460.82 457.19 451.99 460.57 442.93 465.21 433.57 471.27 423.87 478.82 413.79 487.89 398.46 484.52 383.08 482.26 367.73 480.83 352.46 479.91 337.33 479.19 322.41 478.31 307.73 476.95 293.34 474.82 289.39 460.18 286.33 445.55 284.43 430.91 283.81 416.27 284.53 401.63 286.53 386.99 289.67 372.36 293.68 357.72 308.1 346.12 322.81 334.09 337.75 321.88 352.89 309.77 368.16 298.01 383.51 286.84 398.87 276.45 414.17 266.99 414.17 266.99 414.17 266.99" stroke-dasharray="8 3" transform="rotate(68.68, 400, 400)" opacity="0.70"></path><path d="M409.43 279.26Q418 283.93 426.32 289.43 434.43 295.82 442.37 303.12 450.19 311.31 457.94 320.33 465.67 330.09 473.45 340.45 468.22 352.97 464.22 365.49 461.68 378.01 460.77 390.54 461.53 403.06 463.93 415.58 466.48 435.06 457.4 443.95 449.64 446.63 441.83 450.21 433.9 454.84 425.81 460.59 417.51 467.52 408.98 475.62 395.18 472.51 381.42 470.29 367.76 468.76 354.23 467.72 340.88 466.94 327.73 466.18 314.82 465.22 302.16 463.83 298.82 450.89 296.28 437.96 294.72 425.03 294.22 412.1 294.81 399.16 296.47 386.23 299.08 373.3 302.49 360.37 315.18 349.63 328.12 338.7 341.29 327.77 354.67 317.04 368.21 306.68 381.88 296.84 402.53 283.47 409.43 279.26" stroke-dasharray="8 1" transform="rotate(72.72, 400, 400)" opacity="0.73"></path><path d="M404.1 291.53Q418.38 300.54 432.36 311.6 439.25 318.36 446.14 325.81 453.07 333.89 460.08 342.53 456.03 353.41 452.97 364.29 451.05 375.17 450.36 386.05 450.92 396.93 452.72 407.81 454.13 425 445.65 433.56 431.83 440.56 417.92 449.99 410.83 456.23 403.62 463.35 391.53 460.54 379.53 458.4 367.67 456.83 355.96 455.68 344.42 454.82 333.07 454.08 321.93 453.32 311.02 452.37 308.29 441.13 306.26 429.9 305.02 418.66 304.63 407.42 305.1 396.18 306.43 384.95 308.53 373.71 311.32 362.47 322.28 352.83 333.45 343.17 344.82 333.62 356.39 324.31 368.12 315.36 380 306.85 398.05 295.21 404.1 291.53" stroke-dasharray="10 8" transform="rotate(76.76, 400, 400)" opacity="0.77"></path><path d="M398.52 303.8Q410.64 311.28 422.68 320.28 434.79 331.92 447.08 345.06 444.08 354.33 441.85 363.6 440.45 372.87 439.95 382.14 440.35 391.41 441.64 400.69 442.12 415.6 434.31 423.74 422.21 430.68 410.16 439.45 395.95 446.77 377.64 446.6 367.63 445.04 357.77 443.83 348.06 442.88 338.51 442.11 323.48 436.27 316.27 421.57 315.33 412 315.03 402.44 315.4 392.88 316.42 383.32 318.04 373.76 320.22 364.2 329.46 355.85 338.86 347.58 348.44 339.48 358.18 331.62 368.07 324.06 378.1 316.88 393.39 306.96 398.52 303.8" stroke-dasharray="8 9" transform="rotate(80.80000000000001, 400, 400)" opacity="0.81"></path><path d="M393.03 316.08Q403.22 321.92 413.45 329.19 423.84 337.96 434.48 348.22 430.85 363.59 429.54 378.97 430.68 394.35 434.15 409.72 423.46 414.52 413.03 420.89 402.76 428.97 392.56 438.8 375.96 434.87 359.8 432.17 344.14 430.35 328.99 428.99 326.32 413.17 325.44 397.36 326.45 381.54 329.23 365.73 344.45 352.01 360.17 338.97 376.38 326.91 393.03 316.08 393.03 316.08 393.03 316.08" stroke-dasharray="2 9" transform="rotate(84.84, 400, 400)" opacity="0.85"></path><path d="M387.97 328.36Q396.33 332.89 404.8 338.33 413.43 344.75 422.28 352.15 419.97 364.41 419.13 376.67 419.83 388.93 422.02 401.18 413.12 405.91 404.45 411.69 395.94 418.56 387.56 426.53 374.71 423.22 362.19 420.73 350.02 418.89 338.19 417.5 336.42 404.94 335.85 392.38 336.53 379.83 338.4 367.27 350.28 356.55 362.51 346.4 381.52 332.66 387.97 328.36" stroke-dasharray="6 10" transform="rotate(88.88, 400, 400)" opacity="0.89"></path><path d="M383.66 340.63Q396.89 347.99 410.49 356.98 409.19 366.15 408.72 375.33 406.22 391.21 396.55 402.75 381.98 409.93 365.06 409.53 351.4 402.44 346.26 387.72 346.66 378.37 347.77 369.02 356.44 361.29 365.31 353.94 379.02 343.83 383.66 340.63" stroke-dasharray="1 3" transform="rotate(92.92, 400, 400)" opacity="0.92"></path><path d="M380.35 352.9Q389.59 357.36 399.11 362.78 398.31 375 398.98 387.24 389.41 394.09 380.11 401.99 368.5 398.58 357.27 395.96 356.67 383.56 357.38 371.18 374.51 357.25 380.35 352.9" stroke-dasharray="8 2" transform="rotate(96.96, 400, 400)" opacity="0.96"></path></g></svg>