<svg xmlns="http://www.w3.org/2000/svg" version="1.1" xmlns:xlink="http://www.w3.org/1999/xlink" xmlns:svgjs="http://svgjs.dev/svgjs" viewBox="0 0 800 800"><defs><linearGradient x1="50%" y1="0%" x2="50%" y2="100%" id="ccchaos-grad"><stop stop-color="hsl(173.4, 100%, 42%)" stop-opacity="1" offset="0%"></stop><stop stop-color="hsl(173.4, 10%, 42%)" stop-opacity="1" offset="100%"></stop></linearGradient></defs><g stroke-width="2" stroke="url(#ccchaos-grad)" fill="none" stroke-linecap="round"><path d="M386.14 100.56C395.69 99.72 405.32 100.98 415.03 104.19 424.76 108.63 434.6 114.35 444.54 120.85 454.53 127.29 464.65 133.6 474.9 139.41 485.24 144.05 495.74 147.8 506.36 150.65 517.09 152.24 527.96 153.24 538.91 153.93 549.92 154.11 560.97 154.61 571.96 155.72 582.89 157.23 593.64 159.82 604.07 163.61 614.21 168.29 623.84 174.24 632.79 181.37 641.17 189.35 648.64 198.29 655.03 207.98 660.62 218.17 664.96 228.8 667.96 239.7 670.08 250.7 670.87 261.75 670.34 272.73 669.16 283.59 666.92 294.3 663.81 304.83 660.61 315.17 657 325.36 653.28 335.43 650.26 345.33 647.66 355.19 645.76 365.05 645.25 374.82 645.8 384.67 647.52 394.63 650.86 404.55 655.32 414.64 660.76 424.88 667.35 435.12 674.22 445.27 680.99 455.3 687.89 465.3 693.98 475.11 698.97 484.63 703.15 494.04 705.73 503.04 706.6 511.51 706.17 519.72 703.92 527.25 699.92 533.97 694.68 540.28 687.91 545.66 679.85 550.05 670.96 554.04 661.16 557.09 650.7 559.27 639.96 561.37 628.92 562.94 617.8 564.26 606.84 566.21 596.03 568.52 585.48 571.58 575.35 576.12 565.55 582 556.1 589.47 547.13 598.82 538.46 609.79 530.07 622.18 522.07 635.68 514.23 649.68 506.5 663.46 499.04 676.4 491.56 687.6 484 696.25 476.6 702.1 469.02 704.45 461.24 703.13 453.51 698.93 445.52 691.87 437.25 682.76 428.98 673.34 420.41 664.16 411.52 656.43 402.63 651.75 393.43 650.27 383.93 652.36 374.44 658.32 364.9 666.83 355.35 676.79 345.83 687.57 336.33 697.24 326.9 704.67 317.53 709.56 308.27 710.74 299.18 708.06 290.17 702.08 281.37 692.85 272.83 681.14 264.41 667.97 256.28 654.04 248.5 640.23 240.86 627.38 233.6 615.94 226.75 606.27 220.04 598.75 213.74 593.16 207.9 589.25 199.49 586.63 184.8 585.77 178.41 585.1 172.22 583.23 160.9 572.72 155.59 563.95 151.84 557.04 148.22 549.16 144.74 540.49 140.97 531.37 137.35 521.69 133.89 511.64 130.19 501.36 126.72 490.88 123.53 480.34 120.22 469.72 117.28 459.14 114.8 448.68 112.36 438.2 110.49 427.88 109.25 417.74 108.22 407.61 107.95 397.88 108.42 388.56 109.19 379.19 110.72 370.17 112.98 361.44 115.54 352.61 118.79 343.99 122.67 335.52 126.76 326.84 131.4 318.19 136.53 309.49 141.72 300.48 147.31 291.3 153.21 281.92 159.04 272.15 165.11 262.13 171.36 251.86 177.42 241.3 183.62 230.61 189.93 219.89 195.99 209.21 202.15 198.79 208.41 188.86 214.41 179.47 220.54 170.94 226.8 163.5 232.84 157.04 239.06 151.89 245.48 148.16 251.74 145.4 258.24 143.87 264.98 143.43 271.63 143.29 278.57 143.63 285.79 144.1 292.96 143.85 300.44 143.06 308.23 141.47 315.98 138.5 324.05 134.57 332.42 129.8 340.78 124.04 349.44 118.07 358.39 112.37 367.34 107.03 376.59 102.94 386.13 100.56" stroke-dasharray="9 0" transform="rotate(0, 400, 400)" opacity="0.05"></path><path d="M390.73 111.17C400.02 110.31 409.41 111.46 418.91 114.46 428.42 118.69 438.07 124.19 447.82 130.52 457.62 136.9 467.55 143.27 477.6 149.27 487.72 154.26 497.97 158.44 508.32 161.77 518.73 163.88 529.21 165.32 539.73 166.32 550.24 166.67 560.7 167.13 571.03 167.96 581.23 168.96 591.16 170.82 600.7 173.68 609.9 177.25 618.52 182 626.42 187.88 633.76 194.58 640.18 202.29 645.55 210.84 650.18 219.99 653.65 229.74 655.89 239.91 657.38 250.36 657.68 261 656.83 271.71 655.49 282.45 653.26 293.14 650.3 303.73 647.38 314.22 644.17 324.58 640.92 334.81 638.39 344.94 636.29 354.96 634.84 364.91 634.69 374.79 635.5 384.65 637.35 394.48 640.67 404.3 644.98 414.14 650.15 423.97 656.37 433.8 662.83 443.4 669.19 452.71 675.71 461.99 681.52 470.92 686.34 479.44 690.48 487.85 693.2 495.73 694.36 503 694.4 510.06 692.75 516.39 689.49 521.93 685.08 527.2 679.21 531.64 672.07 535.25 664.11 538.69 655.19 541.44 645.55 543.63 635.54 546.03 625.12 548.26 614.5 550.58 603.92 553.74 593.36 557.53 582.95 562.25 572.83 568.44 562.95 575.96 553.35 584.91 544.14 595.41 535.2 607.16 526.52 619.88 518.19 633.2 510.04 646.54 502.03 659.22 494.28 670.71 486.56 680.25 478.84 687.16 471.28 691.39 463.62 692.36 455.83 690.03 448.12 685.27 440.21 678.09 432.1 669.27 424.01 660.43 415.68 651.98 407.11 644.99 398.53 640.87 389.71 639.69 380.66 641.75 371.6 647.35 362.54 655.29 353.52 664.61 344.51 674.81 335.56 684.15 326.71 691.6 317.91 696.92 309.24 698.95 300.76 697.47 292.35 692.94 284.16 685.25 276.24 675 268.42 663.08 260.9 650.03 253.72 636.65 246.66 623.73 239.95 611.72 233.64 601.06 227.44 592.16 221.62 584.96 216.21 579.38 208.39 574.27 194.62 570.06 188.55 568.88 182.6 567.43 171.54 559.8 166.29 553.11 162.57 547.79 158.96 541.49 155.48 534.36 151.72 526.8 148.09 518.58 144.62 509.83 140.93 500.84 137.46 491.49 134.25 481.9 130.95 472.22 128 462.41 125.5 452.56 123.05 442.69 121.14 432.82 119.85 423 118.78 413.18 118.44 403.63 118.82 394.35 119.51 385.03 120.94 375.92 123.08 366.99 125.52 357.97 128.64 349.03 132.38 340.14 136.34 331.07 140.85 321.94 145.84 312.72 150.93 303.23 156.4 293.57 162.2 283.71 167.96 273.6 173.97 263.31 180.17 252.9 186.21 242.38 192.4 231.88 198.7 221.54 204.78 211.44 210.96 201.78 217.23 192.78 223.26 184.44 229.4 177.06 235.65 170.82 241.69 165.52 247.88 161.48 254.23 158.74 260.43 156.77 266.82 155.85 273.44 155.77 279.94 155.79 286.69 156.07 293.71 156.31 300.66 155.72 307.89 154.52 315.41 152.51 322.89 149.17 330.67 144.95 338.75 140 346.8 134.2 355.16 128.27 363.83 122.67 372.48 117.47 381.44 113.5 390.72 111.17" stroke-dasharray="9 8" transform="rotate(4.04, 400, 400)" opacity="0.09"></path><path d="M395.85 121.78C404.88 120.9 414.02 121.93 423.28 124.74 432.55 128.73 441.95 134 451.46 140.13 461.01 146.41 470.68 152.79 480.44 158.93 490.25 164.2 500.16 168.79 510.12 172.59 520.1 175.21 530.1 177.15 540.05 178.56 549.96 179.21 559.75 179.78 569.32 180.52 578.72 181.2 587.78 182.53 596.37 184.64 604.61 187.28 612.24 190.94 619.11 195.64 625.45 201.06 630.89 207.49 635.33 214.81 639.11 222.76 641.81 231.41 643.4 240.61 644.37 250.19 644.3 260.12 643.24 270.25 641.83 280.54 639.67 290.89 636.94 301.22 634.33 311.56 631.53 321.83 628.75 331.98 626.68 342.09 625.04 352.09 624.02 361.96 624.19 371.8 625.23 381.53 627.2 391.15 630.48 400.76 634.64 410.27 639.55 419.65 645.41 429.03 651.46 438.05 657.43 446.66 663.57 455.25 669.08 463.38 673.72 471 677.8 478.53 680.6 485.48 682.01 491.8 681.89 500.7 672.6 514.8 663.84 520.12 656.79 523.49 648.77 526.44 639.97 529.13 630.75 532.25 621.03 535.48 611.01 539.06 600.93 543.6 590.75 548.92 580.61 555.25 570.65 562.91 560.84 571.78 551.23 581.84 541.93 593.08 532.84 605.18 523.98 617.8 515.43 630.57 507.05 642.94 498.82 654.29 490.84 664.22 482.93 672.07 475.06 677.31 467.35 680.05 459.61 679.81 451.8 676.65 444.08 671.48 436.23 664.3 428.25 655.85 420.3 647.61 412.18 639.89 403.89 633.61 395.6 630.02 387.13 629.11 378.48 631.14 369.84 636.39 361.23 643.78 352.7 652.47 344.19 662.08 335.76 671.05 327.47 678.45 319.21 684.09 311.11 686.84 303.22 686.44 295.39 683.26 287.78 677.06 280.45 668.31 273.2 657.75 266.25 645.78 259.63 633.11 253.1 620.45 246.91 608.25 241.08 596.97 235.33 587.03 229.95 578.51 224.93 571.43 217.62 563.88 204.62 555.66 198.8 553.33 193.03 551.51 182.17 545.2 176.94 539.94 173.23 535.81 169.63 530.8 166.15 524.96 162.39 518.79 158.75 511.89 155.28 504.38 151.6 496.65 148.13 488.43 144.92 479.84 141.63 471.14 138.69 462.17 136.17 452.99 133.71 443.79 131.79 434.44 130.46 424.99 129.35 415.53 128.94 406.2 129.24 396.98 129.84 387.74 131.16 378.59 133.18 369.49 135.49 360.32 138.47 351.14 142.06 341.92 145.87 332.56 150.23 323.09 155.06 313.51 160.01 303.75 165.36 293.83 171.04 283.79 176.7 273.62 182.62 263.38 188.75 253.15 194.75 242.98 200.91 232.99 207.19 223.34 213.28 214.07 219.47 205.4 225.74 197.51 231.8 190.32 237.96 184.15 244.22 179.11 250.27 174.92 256.46 171.89 262.78 169.99 268.94 168.67 275.27 168.18 281.8 168.33 288.2 168.36 294.83 168.48 301.69 168.4 308.46 167.42 315.51 165.78 322.81 163.35 330.07 159.67 337.61 155.2 345.44 150.1 353.23 144.28 361.33 138.42 369.73 132.94 378.12 127.9 386.82 124.05 395.84 121.78" stroke-dasharray="6 3" transform="rotate(8.08, 400, 400)" opacity="0.13"></path><path d="M401.21 132.39C409.97 131.5 418.85 132.41 427.83 135.02 436.83 138.77 445.94 143.78 455.15 149.68 464.38 155.82 473.71 162.16 483.1 168.38 492.52 173.89 501.99 178.83 511.46 183.06 520.92 186.21 530.34 188.67 539.65 190.55 548.87 191.6 557.91 192.43 566.67 193.25 575.22 193.82 583.37 194.82 591.02 196.4 598.31 198.29 604.96 201.04 610.86 204.69 616.27 208.94 620.81 214.13 624.41 220.2 627.45 226.87 629.5 234.3 630.57 242.36 631.13 250.86 630.79 259.81 629.62 269.1 628.2 278.63 626.19 288.34 623.72 298.12 621.45 308.02 619.06 317.9 616.74 327.71 615.13 337.55 613.93 347.29 613.3 356.89 613.77 366.49 615 375.95 617.05 385.24 620.29 394.53 624.29 403.64 628.94 412.54 634.45 421.44 640.12 429.89 645.7 437.87 651.47 445.82 656.68 453.27 661.11 460.17 666.52 470.14 670 487.01 667.7 493.91 664.77 498.31 660.54 502.22 655.15 505.74 648.98 509.46 641.85 513.01 633.91 516.55 625.52 520.66 616.56 525.09 607.22 530.06 597.73 535.98 588.05 542.74 578.3 550.45 568.64 559.31 559.04 569.16 549.56 579.93 540.3 591.47 531.2 603.5 522.29 615.63 513.62 627.53 505.11 638.68 496.75 648.54 488.61 656.86 480.56 663.04 472.6 666.72 464.77 668.11 456.97 666.84 449.15 663.02 441.43 657.58 433.64 650.51 425.78 642.5 417.95 634.88 410.02 627.89 401.98 622.29 393.95 619.19 385.8 618.54 377.53 620.53 369.27 625.44 361.09 632.3 353.03 640.38 344.97 649.4 337.04 657.96 329.27 665.24 321.53 671.09 313.97 674.43 306.63 674.98 299.33 673.04 292.28 668.27 285.5 660.99 278.77 651.87 272.34 641.13 266.23 629.4 260.17 617.32 254.44 605.28 249.06 593.76 243.71 583.15 238.69 573.64 234.01 565.32 229.33 558.42 224.94 552.71 220.86 548.01 214.75 543.07 203.5 536.32 198.22 533.2 192.76 529.86 182.02 519.87 176.72 512.94 172.97 507.85 169.33 502.05 165.86 495.61 162.19 488.98 158.73 481.81 155.53 474.15 152.26 466.4 149.33 458.25 146.81 449.77 144.36 441.25 142.42 432.46 141.06 423.42 139.92 414.38 139.46 405.32 139.68 396.25 140.19 387.16 141.4 378.04 143.28 368.88 145.45 359.68 148.28 350.39 151.7 341.01 155.35 331.55 159.53 321.96 164.2 312.26 168.99 302.49 174.18 292.62 179.71 282.69 185.26 272.78 191.07 262.91 197.1 253.18 203.04 243.66 209.15 234.47 215.39 225.76 221.46 217.52 227.65 209.98 233.92 203.29 240 197.31 246.17 192.32 252.44 188.41 258.52 185.23 264.71 183.06 271.02 181.84 277.16 181.01 283.47 180.79 289.93 181 296.27 180.92 302.81 180.77 309.55 180.31 316.21 178.9 323.1 176.83 330.23 173.98 337.31 169.99 344.65 165.3 352.26 160.1 359.84 154.29 367.7 148.52 375.86 143.19 384 138.32 392.44 134.6 401.2 132.39" stroke-dasharray="2 3" transform="rotate(12.12, 400, 400)" opacity="0.16"></path><path d="M406.5 143C414.98 142.09 423.57 142.89 432.24 145.3 440.93 148.8 449.7 153.54 458.55 159.19 467.41 165.14 476.33 171.4 485.28 177.64 494.23 183.32 503.18 188.55 512.08 193.18 520.95 196.82 529.72 199.8 538.32 202.2 546.8 203.73 555.05 204.93 562.95 205.97 570.64 206.63 577.89 207.51 584.61 208.77 593.85 211.17 608.14 220.24 612.9 227.16 615.29 232.58 616.82 238.76 617.47 245.6 617.73 252.89 617.23 260.72 616.02 268.96 614.68 277.5 612.86 286.33 610.68 295.33 608.77 304.49 606.79 313.74 604.93 322.97 603.74 332.29 602.95 341.55 602.68 350.69 603.4 359.86 604.81 368.89 606.93 377.73 610.1 386.59 613.94 395.24 618.33 403.64 623.5 412.04 628.8 419.97 634 427.41 639.4 434.84 644.31 441.75 648.53 448.15 653.82 457.43 657.93 473.43 656.37 480.28 654.08 484.82 650.59 489.06 646 493.11 640.67 497.49 634.41 501.9 627.34 506.5 619.78 511.73 611.63 517.41 603.02 523.7 594.2 530.87 585.11 538.83 575.87 547.63 566.64 557.31 557.37 567.74 548.15 578.77 539.07 590.2 530.09 601.75 521.24 613.05 512.58 623.81 504.06 633.57 495.67 641.85 487.46 648.56 479.36 653.16 471.35 655.4 463.47 655.62 455.64 653.49 447.85 649.19 440.14 643.62 432.42 636.77 424.68 629.25 416.97 622.27 409.22 615.98 401.42 611.03 393.63 608.4 385.77 607.97 377.86 609.92 369.95 614.5 362.17 620.85 354.54 628.33 346.91 636.76 339.44 644.88 332.16 651.98 324.89 657.94 317.83 661.76 311 663.12 304.19 662.29 297.63 658.84 291.35 653.01 285.1 645.34 279.13 635.95 273.47 625.34 267.84 614.1 262.51 602.55 257.5 591.13 252.49 580.25 247.79 570.11 243.39 560.89 238.95 552.81 234.78 545.78 230.87 539.72 224.97 532.68 213.95 522.65 208.71 518.56 203.26 514.79 192.51 505.38 187.19 499.28 183.44 494.89 179.82 489.88 176.35 484.25 172.7 478.5 169.26 472.18 166.08 465.33 162.84 458.4 159.93 451.01 157.43 443.19 154.99 435.34 153.05 427.11 151.67 418.53 150.5 409.94 149.98 401.22 150.12 392.38 150.54 383.55 151.64 374.59 153.38 365.53 155.42 356.45 158.07 347.24 161.31 337.93 164.79 328.59 168.79 319.14 173.26 309.62 177.87 300.12 182.89 290.59 188.25 281.1 193.65 271.74 199.32 262.53 205.23 253.6 211.08 244.98 217.1 236.79 223.27 229.19 229.31 222.11 235.46 215.77 241.71 210.3 247.8 205.49 253.97 201.62 260.24 198.72 266.33 196.39 272.53 194.91 278.83 194.2 284.98 193.67 291.26 193.56 297.68 193.68 303.98 193.38 310.46 192.88 317.11 191.99 323.67 190.14 330.45 187.63 337.44 184.4 344.37 180.13 351.54 175.27 358.96 170 366.34 164.23 373.99 158.59 381.91 153.42 389.81 148.72 398 145.15 406.49 143.01" stroke-dasharray="2 9" transform="rotate(16.16, 400, 400)" opacity="0.20"></path><path d="M411.41 153.62C419.6 152.7 427.87 153.38 436.2 155.58 444.54 158.83 452.93 163.28 461.36 168.65 469.8 174.39 478.25 180.5 486.69 186.71 495.11 192.5 503.49 197.95 511.77 202.91 519.98 207.01 528.05 210.5 535.9 213.42 543.62 215.48 551.05 217.14 558.11 218.54 568.13 219.92 585.1 223.43 591.74 226.37 597.06 230.36 603.28 242.54 604.17 250.68 604.24 256.74 603.65 263.37 602.49 270.47 601.28 277.89 599.69 285.67 597.84 293.7 596.29 301.94 594.73 310.34 593.29 318.81 592.51 327.39 592.09 335.98 592.14 344.5 593.09 353.07 594.64 361.54 596.81 369.85 599.92 378.18 603.59 386.32 607.73 394.22 612.57 402.13 617.5 409.59 622.34 416.61 627.38 423.61 631.97 430.16 635.97 436.26 641.1 445.2 645.69 461.17 644.78 468.43 643.06 473.37 640.24 478.2 636.38 483.01 631.86 488.21 626.43 493.6 620.2 499.31 613.49 505.62 606.16 512.45 598.33 519.88 590.24 528.05 581.82 536.89 573.17 546.38 564.46 556.48 555.64 567.06 546.8 577.92 538.02 588.86 529.29 599.6 520.63 609.79 512.11 619.22 503.68 627.47 495.37 634.16 487.2 639.3 479.12 642.44 471.15 643.41 463.29 642.63 455.49 639.82 447.76 635.19 440.11 629.63 432.48 623.08 424.87 616.1 417.31 609.77 409.74 604.17 402.16 599.83 394.61 597.63 387.03 597.41 379.45 599.31 371.87 603.58 364.45 609.43 357.22 616.33 349.99 624.18 342.94 631.83 336.1 638.68 329.27 644.67 322.66 648.83 316.28 650.87 309.92 651.02 303.8 648.79 297.95 644.32 292.12 638.09 286.56 630.1 281.29 620.75 276.02 610.56 271.04 599.78 266.34 588.8 261.62 578.01 257.17 567.63 252.99 557.87 248.75 548.95 244.75 540.88 240.97 533.66 237.07 527.43 233.36 521.94 229.83 517.07 224.34 511.11 213.66 500.97 208.41 495.99 202.89 490.95 192.01 478.76 186.74 471.37 183.13 466.21 179.72 460.51 176.57 454.29 173.37 448.02 170.5 441.26 168.02 434.04 165.61 426.79 163.67 419.1 162.28 411 161.08 402.89 160.52 394.57 160.58 386.09 160.91 377.61 161.89 368.96 163.5 360.18 165.38 351.4 167.87 342.49 170.92 333.49 174.2 324.51 177.99 315.47 182.26 306.41 186.67 297.45 191.49 288.54 196.65 279.78 201.88 271.22 207.39 262.92 213.14 254.99 218.86 247.43 224.77 240.39 230.84 233.99 236.81 228.1 242.91 222.96 249.11 218.66 255.17 214.92 261.33 212.02 267.57 209.96 273.66 208.31 279.85 207.33 286.14 206.92 292.29 206.52 298.55 206.36 304.94 206.27 311.21 205.66 317.63 204.75 324.2 203.39 330.69 201.1 337.36 198.17 344.23 194.59 351.03 190.09 358.05 185.1 365.28 179.8 372.49 174.11 379.93 168.62 387.61 163.63 395.28 159.12 403.21 155.69 411.4 153.62" stroke-dasharray="3 6" transform="rotate(20.200000000000003, 400, 400)" opacity="0.24"></path><path d="M415.68 164.23C423.56 163.3 431.48 163.87 439.43 165.88 447.38 168.87 455.36 173.02 463.33 178.09 471.29 183.57 479.23 189.5 487.11 195.61 494.97 201.43 502.72 207.03 510.33 212.26 517.87 216.75 525.22 220.71 532.3 224.14 539.25 226.75 545.87 228.92 552.1 230.77 560.89 232.65 575.47 236.2 581.01 238.62 585.39 241.69 590.24 251.2 590.78 257.74 590.74 262.64 590.15 268.11 589.09 274.07 588.06 280.33 586.74 286.99 585.23 293.98 584.04 301.18 582.88 308.61 581.85 316.19 581.44 323.89 581.36 331.68 581.7 339.47 582.85 347.32 584.51 355.14 586.7 362.85 589.73 370.59 593.23 378.2 597.12 385.63 601.64 393.06 606.22 400.12 610.7 406.82 615.39 413.51 619.68 419.85 623.45 425.84 628.38 434.72 633.31 451.28 632.94 459.25 631.73 464.75 629.51 470.29 626.33 475.95 622.55 482 617.91 488.34 612.49 495.05 606.61 502.29 600.1 510.03 593.06 518.29 585.74 527.11 578.04 536.44 570.05 546.22 561.95 556.32 553.68 566.63 545.32 576.94 536.96 587.05 528.58 596.71 520.23 605.59 511.96 613.58 503.75 620.29 495.62 625.42 487.59 629.09 479.64 630.91 471.79 630.79 464.02 629.2 456.33 625.9 448.72 621.1 441.17 615.65 433.67 609.48 426.23 603.07 418.82 597.39 411.45 592.45 404.11 588.7 396.78 586.89 389.48 586.86 382.21 588.69 374.93 592.66 367.86 598.05 360.99 604.38 354.12 611.65 347.46 618.82 341.02 625.37 334.58 631.3 328.36 635.7 322.39 638.28 316.41 639.26 310.69 638.11 305.22 634.91 299.75 630.07 294.53 623.49 289.59 615.48 284.63 606.5 279.92 596.7 275.48 586.45 270.99 576.09 266.75 565.83 262.74 555.91 258.65 546.53 254.76 537.76 251.07 529.68 247.25 522.39 243.59 515.79 240.09 509.8 234.62 502.12 223.93 489.22 218.65 483.33 213.12 477.71 202.28 465.32 197.04 458.23 193.48 453.37 190.11 448.05 187 442.26 183.85 436.45 181.03 430.18 178.58 423.45 176.21 416.7 174.29 409.52 172.88 401.9 171.67 394.28 171.06 386.44 171.05 378.4 171.3 370.37 172.17 362.17 173.63 353.84 175.35 345.54 177.66 337.14 180.51 328.67 183.59 320.28 187.17 311.88 191.21 303.54 195.4 295.34 200 287.28 204.94 279.45 209.96 271.87 215.28 264.64 220.84 257.85 226.41 251.43 232.17 245.58 238.1 240.37 243.97 235.63 249.97 231.6 256.08 228.34 262.09 225.52 268.2 223.41 274.39 222 280.46 220.82 286.62 220.14 292.87 219.86 299 219.42 305.23 219.08 311.57 218.67 317.81 217.66 324.17 216.3 330.67 214.47 337.09 211.75 343.66 208.44 350.4 204.56 357.08 199.87 363.95 194.79 371.01 189.5 378.03 183.94 385.26 178.61 392.71 173.82 400.14 169.51 407.79 166.23 415.67 164.23" stroke-dasharray="6 5" transform="rotate(24.24, 400, 400)" opacity="0.28"></path><path d="M419.06 174.84C426.6 173.91 434.15 174.38 441.69 176.18 449.22 178.91 456.74 182.76 464.22 187.51 471.68 192.7 479.07 198.4 486.36 204.35 493.62 210.13 500.73 215.81 507.66 221.23 514.51 226.04 521.13 230.4 527.47 234.3 536.59 238.8 552.6 245.05 559.27 247.34 569.12 251.57 577.04 261.51 577.36 266.74 577.02 272.86 574.53 287.94 572.85 296.69 572.02 302.82 571.23 309.25 570.59 315.91 570.52 322.67 570.75 329.6 571.34 336.61 572.65 343.68 574.41 350.79 576.6 357.89 579.54 365.01 582.86 372.08 586.52 379.07 590.72 386.06 594.96 392.79 599.1 399.26 603.44 405.73 607.43 411.97 610.96 417.98 614.32 424.04 617.01 429.93 618.95 435.69 620.48 441.58 621.13 447.42 620.89 453.29 620.11 459.39 618.42 465.63 615.85 472.08 612.76 478.87 608.84 485.99 604.2 493.47 599.12 501.38 593.41 509.71 587.17 518.44 580.63 527.53 573.67 536.94 566.4 546.57 558.97 556.29 551.31 565.97 543.51 575.39 535.67 584.42 527.75 592.8 519.81 600.26 511.9 606.75 504 611.95 496.16 615.62 488.37 617.96 480.65 618.64 473 617.61 465.42 615.4 457.91 611.77 450.47 606.95 443.09 601.71 435.78 595.98 428.53 590.17 421.32 585.13 414.16 580.82 407.06 577.62 399.98 576.18 392.95 576.31 385.97 578.08 379 581.76 372.25 586.69 365.72 592.48 359.18 599.17 352.86 605.85 346.78 612.06 340.68 617.85 334.82 622.38 329.19 625.37 320.86 626.94 305.39 618.64 298.25 609.39 293.53 601.71 289.06 593.07 284.81 583.77 280.51 574.14 276.41 564.34 272.53 554.61 268.55 545.15 264.74 536.06 261.11 527.46 257.34 519.44 253.71 511.98 250.21 505.07 246.54 498.77 242.97 492.94 239.49 487.48 235.82 482.52 232.23 477.76 228.73 473.12 223.21 466.6 212.43 453.27 207.25 446.11 203.74 441.28 200.43 436.11 197.37 430.57 194.29 425.03 191.52 419.09 189.11 412.75 186.79 406.41 184.89 399.67 183.49 392.53 182.27 385.4 181.62 378.06 181.55 370.55 181.71 363.06 182.46 355.43 183.78 347.7 185.35 340.02 187.47 332.28 190.11 324.54 192.98 316.9 196.33 309.32 200.13 301.87 204.08 294.6 208.44 287.53 213.14 280.77 217.93 274.27 223.02 268.16 228.37 262.54 233.74 257.26 239.32 252.54 245.08 248.45 250.8 244.74 256.67 241.67 262.65 239.26 268.56 237.16 274.58 235.64 280.69 234.66 286.7 233.75 292.8 233.18 298.98 232.84 305.07 232.22 311.24 231.58 317.51 230.77 323.7 229.33 329.99 227.5 336.39 225.2 342.73 222.07 349.2 218.43 355.8 214.29 362.35 209.47 369.06 204.35 375.93 199.12 382.77 193.7 389.78 188.57 396.97 183.98 404.14 179.88 411.5 176.76 419.05 174.84" stroke-dasharray="7 9" transform="rotate(28.28, 400, 400)" opacity="0.32"></path><path d="M421.35 185.45C428.53 184.52 435.68 184.89 442.78 186.49 449.88 188.97 456.92 192.5 463.87 196.92 470.81 201.8 477.64 207.21 484.33 212.95 490.98 218.63 497.45 224.31 503.7 229.83 509.88 234.87 515.8 239.56 521.4 243.87 529.45 249.13 543.36 256.91 549.03 259.81 560.54 268.8 563.76 282.35 562.86 288.19 561.92 294.71 560.02 309.94 559.52 318.44 559.75 324.3 560.25 330.38 561.06 336.62 562.51 342.92 564.33 349.33 566.51 355.83 569.34 362.34 572.49 368.9 575.91 375.49 579.81 382.07 583.72 388.52 587.54 394.82 591.54 401.14 595.23 407.34 598.51 413.45 601.68 419.6 604.26 425.71 606.19 431.81 607.78 438.04 608.6 444.33 608.64 450.73 608.23 457.34 607 464.15 604.98 471.2 602.49 478.54 599.25 486.17 595.33 494.11 591 502.35 586.06 510.89 580.59 519.68 574.83 528.65 568.64 537.75 562.1 546.86 555.38 555.85 548.4 564.59 541.22 572.89 533.97 580.66 526.59 587.65 519.15 593.64 511.69 598.68 504.21 602.44 496.74 604.79 489.3 605.98 481.88 605.7 474.53 603.97 467.21 601.32 459.95 597.52 452.77 592.79 445.62 587.86 438.54 582.62 431.54 577.41 424.56 573 417.64 569.29 410.81 566.59 403.98 565.49 397.22 565.76 390.54 567.47 383.86 570.87 377.41 575.36 371.19 580.64 364.96 586.76 358.95 592.94 353.18 598.77 347.4 604.35 341.84 608.91 336.51 612.2 328.61 614.7 313.92 609.65 307.11 602.39 302.6 596.05 298.3 588.66 294.2 580.49 290.04 571.82 286.06 562.76 282.26 553.56 278.36 544.38 274.61 535.34 271.01 526.58 267.27 518.19 263.65 510.2 260.14 502.65 256.47 495.58 252.89 488.93 249.41 482.66 245.73 476.82 242.14 471.26 238.63 465.89 234.94 460.84 231.34 455.86 227.85 450.88 224.21 446.09 220.7 441.19 217.35 436.14 213.91 431.17 210.67 425.97 207.68 420.51 204.68 415.07 201.97 409.34 199.62 403.3 197.35 397.26 195.49 390.9 194.1 384.23 192.87 377.56 192.19 370.74 192.05 363.81 192.14 356.9 192.77 349.91 193.95 342.89 195.36 335.92 197.29 328.96 199.73 322.07 202.37 315.28 205.48 308.62 209.02 302.17 212.73 295.88 216.82 289.86 221.25 284.2 225.79 278.77 230.63 273.76 235.73 269.24 240.87 265 246.23 261.3 251.78 258.16 257.31 255.3 263 252.99 268.82 251.22 274.59 249.62 280.48 248.47 286.45 247.69 292.36 246.85 298.36 246.21 304.44 245.67 310.44 244.76 316.53 243.73 322.69 242.47 328.79 240.57 334.99 238.27 341.27 235.54 347.5 232.06 353.84 228.12 360.29 223.79 366.69 218.89 373.23 213.79 379.88 208.66 386.52 203.42 393.29 198.5 400.2 194.14 407.1 190.25 414.15 187.29 421.33 185.45" stroke-dasharray="8 7" transform="rotate(32.32, 400, 400)" opacity="0.35"></path><path d="M422.42 196.06C429.22 195.14 435.95 195.41 442.6 196.82 449.24 199.04 455.78 202.26 462.21 206.33 468.61 210.87 474.87 215.97 480.96 221.45 487.01 226.95 492.85 232.54 498.45 238.08 503.98 243.25 509.23 248.19 514.17 252.82 521.23 258.74 533.26 268.06 538.09 271.68 547.8 281.45 550.7 293.5 550.1 298.38 549.57 303.79 548.65 316.63 548.63 323.94 549.5 331.64 553.34 348.3 556.43 357.13 559.15 363.08 562.12 369.17 565.3 375.38 568.91 381.6 572.51 387.8 576 393.97 579.67 400.15 583.07 406.33 586.1 412.52 589.07 418.76 591.52 425.06 593.4 431.43 595.02 437.92 595.97 444.54 596.22 451.32 596.11 458.26 595.27 465.42 593.73 472.81 591.78 480.39 589.15 488.21 585.88 496.26 582.25 504.46 578.04 512.84 573.32 521.32 568.32 529.8 562.88 538.24 557.07 546.5 551.08 554.5 544.8 562.1 538.29 569.11 531.68 575.52 524.91 581.09 518.02 585.65 511.1 589.32 504.11 591.79 497.09 592.98 490.08 593.2 483.06 592.17 476.07 589.93 469.11 587.01 462.17 583.19 455.3 578.67 448.45 574.12 441.66 569.4 434.94 564.8 428.24 560.99 421.61 557.85 415.05 555.63 408.51 554.82 402.03 555.22 395.65 556.86 389.26 559.99 383.1 564.07 377.17 568.84 371.23 574.42 365.51 580.08 360.02 585.52 351.87 593.08 336.63 602.02 329.52 602.47 324.82 601.16 320.32 598.44 316.03 594.41 311.68 589.39 307.51 583.3 303.53 576.35 299.47 568.81 295.57 560.72 291.83 552.3 287.99 543.72 284.27 535.08 280.69 526.52 276.97 518.13 273.35 509.98 269.84 502.12 266.17 494.6 262.59 487.41 259.09 480.55 255.43 474.03 251.84 467.8 248.34 461.8 244.68 456.09 241.12 450.52 237.66 445.05 234.08 439.77 230.64 434.48 227.36 429.16 224 423.94 220.85 418.61 217.93 413.13 215.02 407.7 212.39 402.07 210.11 396.25 207.9 390.44 206.08 384.41 204.7 378.17 203.48 371.92 202.78 365.62 202.58 359.29 202.58 352.98 203.11 346.66 204.14 340.39 205.4 334.16 207.14 328.02 209.36 322.02 211.78 316.11 214.65 310.4 217.92 304.93 221.36 299.62 225.17 294.62 229.32 289.98 233.58 285.54 238.14 281.51 242.96 277.95 250.39 273.15 266.28 266.2 274.63 263.95 280.21 262.63 285.92 261.62 291.72 260.86 297.48 259.92 303.33 259.06 309.25 258.19 315.13 256.9 321.08 255.42 327.11 253.68 333.08 251.33 339.14 248.6 345.27 245.47 351.36 241.69 357.53 237.53 363.79 233.07 370.02 228.15 376.35 223.11 382.77 218.12 389.18 213.08 395.69 208.4 402.3 204.28 408.9 200.61 415.61 197.82 422.41 196.06" stroke-dasharray="5 0" transform="rotate(36.36, 400, 400)" opacity="0.39"></path><path d="M422.22 206.67C428.62 205.76 434.91 205.94 441.09 207.17 447.26 209.14 453.31 212.04 459.2 215.74 470.93 224.47 481.94 234.95 491.99 246.01 501.77 256.1 510.37 265.37 517.55 273.49 524.26 279.61 529.41 284.85 532.88 289.62 536.74 295.23 538.04 309.75 537.27 320.03 537.88 327.49 538.94 336.25 540.73 346.13 542.36 351.1 544.24 356.32 546.36 361.77 548.95 367.23 551.75 372.9 554.7 378.78 558.02 384.66 561.31 390.62 564.5 396.64 567.86 402.68 570.96 408.8 573.75 415.01 579.15 427.56 582.55 440.69 583.67 454.43 583.59 468.6 580.93 483.56 575.89 499.08 569.59 514.72 561.23 530.32 551.27 544.99 540.56 558.24 528.75 569.05 516.26 576.28 503.54 580.36 490.47 580.11 477.36 575.61 464.27 569.25 451.24 560.9 438.44 552.35 432.07 549.12 425.75 546.51 419.5 544.72 413.26 544.18 407.09 544.68 401 546.25 394.91 549.11 389.04 552.8 383.38 557.1 377.72 562.14 372.27 567.3 367.04 572.31 356.51 582.05 346.78 588.43 337.85 590.35 328.77 588.54 320.37 581.84 312.65 571.16 304.62 557.96 297.1 542.72 290.07 526.72 282.55 510.71 275.36 495.23 268.52 480.71 261.1 467.15 253.99 454.5 247.32 442.58 240.23 431.31 233.75 420.24 228.13 409.13 225.31 403.65 222.78 398.09 220.56 392.44 218.43 386.8 216.66 381.05 215.31 375.21 213.74 366.45 213.27 349.22 214.37 340.85 216.77 329.89 221 319.61 226.83 310.39 233.31 301.62 241.16 294.22 250.1 288.45 259.33 283.18 269.42 279.45 280.11 277.1 290.8 274.47 301.97 272.37 313.45 270.21 324.8 266.3 336.47 261.31 348.36 254.98 360.14 246.46 372.23 237.02 384.54 227.51 390.69 222.71 396.91 218.29 403.19 214.41 409.46 210.97 415.81 208.35 422.21 206.68" stroke-dasharray="3 5" transform="rotate(40.400000000000006, 400, 400)" opacity="0.43"></path><path d="M420.75 217.29C432.71 216.2 444.14 219.02 454.91 225.18 465.6 233.17 475.51 243 484.43 253.65 493.12 263.75 500.66 273.37 506.88 282.12 512.75 289.19 517.21 295.4 520.22 301.03 523.78 307.67 525.87 322.2 525.95 331.58 527.08 338.19 528.58 346.01 530.67 354.98 534.45 363.97 539 374.05 544.09 385.19 550.46 396.33 556.4 408.05 561.44 420.25 566.44 432.59 569.71 445.58 571 459.14 571.35 472.92 569.43 487.22 565.38 501.69 560.26 515.9 553.22 529.58 544.64 541.9 535.35 552.63 524.9 560.79 513.69 565.56 502.2 567.67 490.25 566.09 478.13 561.09 465.97 554.95 453.77 547.44 441.73 540.06 429.71 535.56 417.86 533.84 406.29 535.64 394.73 541.9 383.95 550.28 373.97 559.16 363.92 568.31 354.59 574.82 345.98 577.66 337.2 577.5 329.03 573 321.44 564.75 313.56 554.02 306.11 540.94 299.1 526.6 291.64 511.75 284.49 496.86 277.67 482.5 270.36 468.66 263.37 455.56 256.83 443.19 249.95 431.33 243.68 419.89 238.26 408.73 232.9 397.74 228.68 386.74 225.91 375.77 223.7 364.79 223.3 354.33 224.63 344.55 226.71 334.88 230.49 326.09 235.78 318.44 241.68 311.07 248.9 305.01 257.18 300.36 265.79 295.89 275.25 292.62 285.33 290.3 295.48 287.39 306.12 284.65 317.08 281.6 327.99 276.83 339.2 271.02 350.6 264.08 361.93 255.34 373.5 245.99 385.21 236.84 396.9 227.94 408.79 221.07 420.74 217.29" stroke-dasharray="5 3" transform="rotate(44.44, 400, 400)" opacity="0.47"></path><path d="M418.1 227.9C429.19 226.77 439.69 229.18 449.46 234.66 459.17 241.88 468.05 250.98 475.96 261.07 483.69 270.96 490.32 280.7 495.75 289.86 500.94 297.68 504.89 304.77 507.61 311.25 511.05 319.14 514.05 334.66 514.92 343.74 516.48 349.93 518.36 357.16 520.68 365.48 524.44 373.77 528.77 383.17 533.49 393.71 539.29 404.24 544.65 415.45 549.2 427.22 553.78 439.05 556.86 451.5 558.25 464.37 558.91 477.24 557.6 490.35 554.41 503.25 550.32 515.61 544.48 527.08 537.18 536.92 529.23 545.19 520.13 550.93 510.21 553.59 499.98 554.15 489.2 551.66 478.14 546.49 467 540.77 455.72 534.18 444.5 527.94 433.28 524.38 422.15 523.23 411.23 525.02 400.31 530.67 390.08 538.12 380.56 546.09 370.98 554.57 362.02 561 353.69 564.48 345.2 565.64 337.23 563.04 329.77 557.04 322.04 548.74 314.68 537.97 307.71 525.63 300.35 512.42 293.27 498.71 286.52 485.1 279.36 471.65 272.54 458.65 266.17 446.29 259.55 434.25 253.53 422.71 248.34 411.65 243.23 400.73 239.2 390.09 236.52 379.78 234.34 369.47 233.84 359.94 234.93 351.3 236.69 342.71 240.03 335.12 244.78 328.65 250.09 322.31 256.66 317.13 264.25 313.12 272.18 309.02 280.95 305.78 290.35 303.14 299.87 299.7 309.9 296.18 320.25 292.21 330.6 286.64 341.25 280.15 352.05 272.76 362.84 263.95 373.81 254.83 384.84 246.11 395.88 237.8 407.01 231.42 418.1 227.9" stroke-dasharray="8 4" transform="rotate(48.48, 400, 400)" opacity="0.51"></path><path d="M414.42 238.51C424.64 237.36 434.21 239.37 443.04 244.18 451.81 250.61 459.77 258.91 466.79 268.32 473.67 277.81 479.56 287.43 484.36 296.75 489.01 305.08 492.61 312.86 495.17 320.08 497.75 326.26 499.5 332.21 500.54 338.16 502.01 343.48 503.15 349.22 504.16 355.57 506.09 361.67 508.26 368.63 510.75 376.52 514.45 384.34 518.55 393.19 522.88 403.11 528.13 413.03 532.94 423.59 537.01 434.64 541.16 445.71 544.03 457.23 545.44 468.94 546.31 480.52 545.48 492.03 543 503 539.81 513.31 535.03 522.47 528.9 529.9 522.21 535.9 514.38 539.56 505.71 540.54 496.75 539.95 487.16 536.93 477.19 531.89 467.13 526.76 456.83 521.14 446.48 516 436.13 513.29 425.77 512.63 415.53 514.41 405.29 519.47 395.63 526.04 386.57 533.11 377.45 540.84 368.86 547.02 360.81 550.88 352.62 553.02 344.87 552 337.55 547.99 329.98 541.97 322.75 533.51 315.85 523.33 308.64 512.11 301.69 500.02 295.06 487.67 288.12 475.16 281.51 462.83 275.36 450.93 269.04 439.19 263.31 427.91 258.37 417.17 253.53 406.54 249.7 396.33 247.13 386.66 245 376.98 244.4 368.25 245.28 360.5 246.73 352.76 249.64 346.02 253.85 340.34 258.58 334.64 264.48 329.92 271.35 326.11 278.56 322.01 286.6 318.47 295.25 315.24 304.07 311.14 313.39 306.79 323.04 301.95 332.74 295.71 342.72 288.71 352.85 281.04 362.99 272.33 373.27 263.55 383.57 255.34 393.88 247.65 404.21 241.78 414.42 238.51" stroke-dasharray="5 1" transform="rotate(52.52, 400, 400)" opacity="0.54"></path><path d="M409.93 249.12C419.25 247.95 427.94 249.6 435.89 253.75 443.8 259.39 450.92 266.83 457.17 275.45 463.34 284.35 468.6 293.63 472.93 302.85 477.18 311.42 480.54 319.62 483.04 327.39 485.64 334.31 487.57 340.96 488.93 347.5 490.73 353.44 492.26 359.6 493.68 366.13 495.9 372.38 498.28 379.27 500.88 386.88 504.47 394.41 508.32 402.8 512.27 412.07 517 421.35 521.28 431.12 524.88 441.21 528.61 451.28 531.23 461.57 532.6 471.82 533.6 481.84 533.13 491.51 531.24 500.41 528.79 508.63 524.94 515.58 519.85 520.82 514.29 524.87 507.66 526.86 500.18 526.6 492.43 525.27 484.02 522.07 475.16 517.4 466.19 512.98 456.9 508.34 447.47 504.24 438.02 502.3 428.47 502.06 418.94 503.8 409.42 508.3 400.34 514.04 391.76 520.23 383.14 527.17 374.94 532.96 367.19 536.95 359.32 539.75 351.81 539.97 344.66 537.63 337.32 533.63 330.25 527.37 323.5 519.34 316.48 510.26 309.73 500.08 303.29 489.34 296.61 478.25 290.27 467.04 284.4 456.04 278.41 445.05 273 434.39 268.34 424.24 263.8 414.13 260.19 404.49 257.73 395.44 255.67 386.38 255 378.31 255.66 371.21 256.84 364.08 259.33 357.89 263.01 352.61 267.15 347.22 272.38 342.6 278.52 338.63 285 334.26 292.26 330.22 300.12 326.27 308.16 321.47 316.7 316.35 325.58 310.77 334.54 304.03 343.77 296.71 353.14 288.97 362.55 280.5 372.07 272.17 381.57 264.54 391.1 257.48 400.6 252.14 409.93 249.12" stroke-dasharray="11 0" transform="rotate(56.56, 400, 400)" opacity="0.58"></path><path d="M404.86 259.73C413.31 258.56 421.14 259.86 428.28 263.38 435.38 268.24 441.77 274.79 447.37 282.53 452.92 290.7 457.69 299.41 461.65 308.28 465.61 316.78 468.82 325.13 471.33 333.17 473.99 340.59 476.1 347.78 477.78 354.79 479.85 361.31 481.71 367.88 483.47 374.64 485.9 381.14 488.42 388.05 491.05 395.45 494.5 402.77 498.08 410.72 501.67 419.32 505.89 427.91 509.66 436.77 512.82 445.73 516.12 454.64 518.47 463.54 519.76 472.15 520.8 480.5 520.59 488.29 519.17 495.17 515.79 503.92 502.74 512.68 493.6 512 486.99 510.31 479.71 507.22 471.93 503.12 464.05 499.47 455.78 495.8 447.28 492.65 438.76 491.39 430.05 491.5 421.28 493.19 412.5 497.16 404.05 502.12 395.99 507.46 387.89 513.58 380.12 518.86 372.71 522.78 365.2 525.94 357.98 527.05 351.07 526.04 344 523.74 337.17 519.42 330.63 513.43 323.89 506.46 317.39 498.29 311.21 489.36 304.86 479.98 298.85 470.24 293.3 460.48 287.68 450.61 282.61 440.9 278.26 431.56 274.04 422.22 270.67 413.27 268.34 404.86 266.36 396.45 265.63 388.93 266.1 382.28 267.01 375.58 269.1 369.68 272.27 364.52 275.84 359.17 280.42 354.4 285.83 350.05 291.55 345.27 298.01 340.63 305.04 335.97 312.27 330.53 319.98 324.78 328.02 318.64 336.16 311.61 344.57 304.18 353.12 296.56 361.72 288.49 370.41 280.72 379.08 273.72 387.77 267.32 396.41 262.49 404.86 259.73" stroke-dasharray="6 6" transform="rotate(60.599999999999994, 400, 400)" opacity="0.62"></path><path d="M399.52 270.34C407.1 269.19 414.12 270.17 420.51 273.1 426.88 277.19 432.61 282.83 437.66 289.64 442.69 296.95 447.06 304.91 450.75 313.19 454.47 321.35 457.6 329.52 460.15 337.54 462.87 345.16 465.17 352.61 467.1 359.88 469.4 366.78 471.52 373.65 473.51 380.57 476.08 387.26 478.67 394.18 481.28 401.35 484.54 408.46 487.84 415.96 491.07 423.82 494.81 431.69 498.1 439.56 500.84 447.31 503.72 455 505.78 462.44 506.95 469.42 506.11 486.32 493.67 498.49 486.02 497.02 480.46 495.28 474.24 492.54 467.5 489.12 460.66 486.29 453.4 483.53 445.83 481.25 438.24 480.57 430.4 480.97 422.4 482.58 414.4 486.06 406.62 490.28 399.11 494.81 391.58 500.1 384.29 504.8 377.28 508.47 370.19 511.74 363.33 513.4 356.73 513.37 350 512.4 343.49 509.71 337.24 505.51 330.84 500.49 324.68 494.26 318.83 487.17 312.86 479.62 307.23 471.53 302.05 463.2 296.85 454.72 292.16 446.19 288.14 437.84 284.24 429.47 281.13 421.34 278.94 413.6 277.06 405.85 276.3 398.82 276.59 392.49 277.26 386.11 278.98 380.34 281.65 375.1 284.68 369.68 288.61 364.62 293.3 359.82 298.26 354.61 303.92 349.42 310.11 344.15 316.49 338.24 323.33 332.06 330.5 325.6 337.77 318.51 345.31 311.2 352.98 303.88 360.71 296.34 368.54 289.21 376.34 282.88 384.16 277.15 391.93 272.84 399.52 270.34" stroke-dasharray="0 9" transform="rotate(64.64, 400, 400)" opacity="0.66"></path><path d="M394.2 280.96C400.94 279.83 407.19 280.53 412.89 282.89 418.58 286.25 423.72 291 428.3 296.84 432.87 303.2 436.9 310.27 440.38 317.76 443.92 325.31 446.97 333.01 449.58 340.7 452.35 348.17 454.78 355.57 456.91 362.82 459.36 369.83 461.65 376.78 463.81 383.66 466.42 390.4 469.01 397.19 471.54 404.05 474.59 410.87 477.59 417.84 480.46 424.93 483.74 432.02 486.58 438.89 488.91 445.44 492.28 454.96 495.15 470.98 494.37 476.82 488.13 482.38 470.27 479.26 461.88 475.49 456.03 473.46 449.73 471.54 443.09 470.02 436.42 469.83 429.45 470.45 422.25 471.97 415.05 474.97 407.97 478.52 401.08 482.29 394.17 486.77 387.42 490.81 380.87 494.11 374.28 497.25 367.85 499.18 361.63 499.79 355.33 499.77 349.22 498.34 343.33 495.61 337.36 492.26 331.61 487.78 326.16 482.4 320.64 476.63 315.45 470.21 310.68 463.39 305.92 456.39 301.64 449.18 297.97 441.94 294.42 434.66 291.57 427.44 289.55 420.4 287.78 413.35 286.99 406.81 287.14 400.76 287.59 394.65 288.96 388.95 291.18 383.6 293.69 378.07 296.99 372.75 300.98 367.55 305.21 362.01 310.07 356.42 315.42 350.74 320.94 344.58 326.9 338.23 333.17 331.72 339.55 324.8 346.18 317.82 352.95 310.97 359.78 304.08 366.71 297.66 373.63 292.05 380.57 286.99 387.46 283.19 394.2 280.96" stroke-dasharray="11 4" transform="rotate(68.68, 400, 400)" opacity="0.70"></path><path d="M389.22 291.57C401.06 290.36 411.23 295.07 419.52 304.2 427.86 315.35 434.56 328.83 439.68 342.95 445.4 356.85 450.24 370.72 454.35 384.03 459.86 396.99 465.18 409.93 469.85 422.49 475.78 435.05 479.79 445.98 481.5 454.53 482.34 464.93 468.64 467.75 455.16 462.3 445.23 460.44 433.59 459.77 420.83 461.35 408.07 467.54 395.47 474.33 383.49 479.81 371.4 485.33 359.73 486.78 348.95 483.95 337.96 479.39 327.81 471.14 319.19 460.53 310.67 449.31 304.03 436.89 300.16 424.3 297.11 411.7 297.5 400.1 300.85 389.45 305.14 378.25 312.14 367.08 321.06 355.79 330.55 343.24 341.56 330.27 353.24 317.91 365.12 305.8 377.38 296.31 389.22 291.57" stroke-dasharray="3 10" transform="rotate(72.72, 400, 400)" opacity="0.73"></path><path d="M384.85 302.18C395.09 300.89 404.05 304.47 411.53 311.81 419.09 320.93 425.41 332.36 430.49 344.69 436.07 357.19 440.94 369.91 445.1 382.13 450.31 394.2 455.17 405.96 459.25 416.86 464.27 427.76 467.56 436.68 468.9 443.21 469.67 451.14 458.65 453.13 447.48 449.6 439.22 448.93 429.32 449.11 418.23 450.74 407.13 455.86 395.96 461.25 385.2 465.63 374.39 470.46 363.87 472.31 354.14 470.82 344.31 468.3 335.25 462.59 327.6 454.5 320.08 445.93 314.22 435.77 310.76 424.74 307.95 413.71 308.06 402.89 310.7 392.44 314.05 381.62 319.73 370.57 327.11 359.46 334.94 347.64 344.16 335.73 354.05 324.76 364.11 314.3 374.6 306.24 384.85 302.18" stroke-dasharray="2 0" transform="rotate(76.76, 400, 400)" opacity="0.77"></path><path d="M381.34 312.79C390.04 311.48 397.83 314.06 404.51 319.71 411.27 326.84 417.13 336.08 422.03 346.33 427.33 356.96 432.04 367.99 436.07 378.66 440.84 389.33 445.16 399.59 448.64 408.83 455.57 429.19 448.16 439.13 439.03 437.43 432.27 437.73 424.02 438.53 414.59 440.13 405.15 444.26 395.5 448.38 386.1 451.69 376.69 455.61 367.49 457.38 358.95 456.65 350.4 455.42 342.54 451.58 335.91 445.53 329.45 439.18 324.4 431.08 321.37 421.67 318.83 412.26 318.73 402.48 320.71 392.68 323.23 382.68 327.7 372.33 333.63 362 339.91 351.4 347.41 340.96 355.57 331.59 363.86 322.84 372.63 316.18 381.34 312.79" stroke-dasharray="4 0" transform="rotate(80.80000000000001, 400, 400)" opacity="0.81"></path><path d="M378.89 323.4C386.1 322.14 392.71 323.86 398.55 327.99 404.45 333.23 409.74 340.28 414.29 348.32 419.14 356.79 423.49 365.77 427.21 374.55 431.43 383.42 435.15 391.95 438.04 399.54 443.43 416.24 437.34 425.94 430.01 425.83 424.6 426.83 417.89 428.02 410.12 429.52 402.34 432.75 394.27 435.74 386.36 438.05 378.45 440.96 370.68 442.34 363.47 441.9 356.29 441.32 349.7 438.72 344.16 434.24 338.77 429.6 334.55 423.29 331.97 415.52 329.76 407.74 329.49 399.3 330.92 390.62 332.71 381.88 336.09 372.77 340.69 363.79 345.53 354.79 351.43 346.1 357.95 338.48 364.57 331.45 371.68 326.14 378.89 323.4" stroke-dasharray="8 7" transform="rotate(84.84, 400, 400)" opacity="0.85"></path><path d="M377.64 334.01C389.14 332.71 399.4 339.77 407.26 351.1 415.86 363.87 423.16 378.34 427.43 390.31 432.85 402.29 433.56 409.24 429.83 411.59 426 415.29 417.36 417.42 405.07 418.91 392.77 424.74 379.39 428.08 367.78 427.1 356.35 426.26 346.97 419.44 342.58 407.16 339.12 394.87 341.67 379.75 348.33 365.23 355.59 351.14 366.14 339.12 377.64 334.01" stroke-dasharray="10 0" transform="rotate(88.88, 400, 400)" opacity="0.89"></path><path d="M377.67 344.63C386.29 343.24 394.41 347.56 400.89 355.05 407.77 363.49 413.58 373.59 416.82 382.47 420.85 394.27 412.02 405.41 399.73 408.3 390.62 412.24 380.65 413.97 371.98 412.73 363.48 411.85 356.5 406.86 353.19 397.78 350.41 388.69 351.98 377.41 356.59 366.78 361.51 356.65 369.04 348.2 377.67 344.63" stroke-dasharray="3 3" transform="rotate(92.92, 400, 400)" opacity="0.92"></path><path d="M378.96 355.24C390.5 353.89 402.15 365.37 406.22 377.11 411.38 388.85 406.4 396.24 394.41 397.68 382.41 403.34 368.44 400.66 363.79 388.71 360.13 376.76 367.42 360.53 378.96 355.24" stroke-dasharray="4 7" transform="rotate(96.96, 400, 400)" opacity="0.96"></path></g></svg>