<svg xmlns="http://www.w3.org/2000/svg" version="1.1" xmlns:xlink="http://www.w3.org/1999/xlink" xmlns:svgjs="http://svgjs.dev/svgjs" viewBox="0 0 800 800"><defs><linearGradient x1="50%" y1="0%" x2="50%" y2="100%" id="ccchaos-grad"><stop stop-color="hsl(161, 100%, 42%)" stop-opacity="1" offset="0%"></stop><stop stop-color="hsl(161, 10%, 40%)" stop-opacity="1" offset="100%"></stop></linearGradient></defs><g stroke-width="2" stroke="url(#ccchaos-grad)" fill="none" stroke-linecap="round"><path d="M107.62 101.48Q124.64 104.46 141.66 108.19 150.16 110.38 158.67 112.66 167.18 114.97 175.69 117.27 192.71 121.43 209.72 125.01 226.74 127.16 243.75 128.26 260.77 127.51 277.79 125.69 294.8 122.36 311.82 118.36 320.33 116.1 328.83 113.79 337.34 111.48 345.85 109.24 362.87 105.31 379.88 102.06 396.9 100.37 413.92 99.75 430.93 100.99 447.95 103.25 464.96 106.91 481.98 111.13 490.49 113.43 499 115.75 507.5 118.01 516.01 120.18 533.03 123.83 550.05 126.7 567.06 127.93 584.08 128.05 601.09 126.34 618.11 123.66 626.62 121.83 635.13 119.8 649.45 120.96 659.18 133.27 663.77 142.24 668.93 151.21 674.52 160.17 680.4 169.14 686.42 178.11 692.44 187.08 698.29 196.05 703.82 205.02 708.91 213.99 713.41 222.96 717.21 231.92 720.22 240.89 722.36 249.86 723.58 258.83 723.84 267.8 723.14 276.77 721.5 285.74 718.95 294.71 715.56 303.68 711.43 312.64 706.65 321.61 701.34 330.58 695.64 339.55 689.7 348.52 683.66 357.49 677.68 366.46 671.92 375.43 666.51 384.39 661.59 393.36 657.3 402.33 653.74 411.3 650.99 420.27 649.14 429.24 648.22 438.21 648.27 447.18 649.27 456.15 651.2 465.11 654.02 474.08 657.65 483.05 662.01 492.02 666.97 500.99 672.41 509.96 678.21 518.93 684.19 527.9 690.23 536.87 696.16 545.83 701.83 554.8 707.09 563.77 711.82 572.74 715.9 581.71 719.21 590.68 721.68 599.65 723.24 608.62 723.86 617.58 723.51 626.55 722.21 635.52 719.99 644.49 716.91 653.46 713.04 662.43 708.48 671.4 703.35 680.37 697.78 689.34 688.69 695.05 679.6 700.52 670.52 705.61 661.43 710.18 652.34 714.12 643.26 717.31 634.17 719.68 625.08 721.16 616 721.72 606.91 721.33 597.82 720.01 588.73 717.8 579.65 714.75 570.56 710.94 561.47 706.47 552.39 701.47 543.3 696.05 534.21 690.38 525.13 684.58 516.04 678.83 506.95 673.26 497.86 668.03 488.78 663.27 479.69 659.11 470.6 655.66 461.52 653 452.43 651.22 443.34 650.35 434.26 650.43 425.17 651.44 416.08 653.36 407 656.14 397.91 659.7 388.82 663.96 379.73 668.8 370.65 674.1 361.56 679.7 352.47 685.48 343.39 691.26 334.3 696.91 325.21 702.27 316.13 707.2 307.04 711.57 297.95 715.27 288.86 718.2 279.78 720.28 270.69 721.45 261.6 721.69 252.52 720.99 243.43 719.37 234.34 716.87 225.26 713.56 216.17 709.51 207.08 704.85 198 699.7 188.91 694.18 179.82 688.45 170.73 682.65 161.65 676.94 152.56 671.46 143.47 666.38 134.39 661.8 121.28 651.95 118.23 637.39 119.74 620.1 120.81 602.81 121.03 585.53 120.71 568.24 119.55 550.95 117.97 533.66 115.88 516.38 113.66 499.09 111.47 481.8 109.48 464.52 108.05 447.23 107.08 429.94 106.98 412.65 107.41 395.37 108.66 378.08 110.33 360.79 112.45 343.5 114.69 326.22 116.85 308.93 118.78 291.64 120.12 274.35 120.99 257.07 120.98 239.78 120.44 222.49 119.09 205.2 117.35 187.92 115.19 170.63 112.94 153.34 110.82 136.06 108.95 118.77 108.21 110.12 107.62 101.48" stroke-dasharray="11 8" transform="rotate(0, 400, 400)" opacity="0.86"></path><path d="M118.9 113.78Q135.36 117.24 151.82 121.45 168.28 126 184.74 130.46 201.2 134.39 217.65 137.4 234.11 139.22 250.57 139.66 267.03 138.67 283.49 136.37 299.95 132.96 316.4 128.78 332.86 124.23 349.32 119.76 365.78 115.79 382.24 112.72 398.7 110.83 415.16 110.32 431.61 111.23 448.07 113.47 464.53 116.83 480.99 120.98 497.45 125.52 513.91 130 530.36 134.01 546.82 137.13 563.28 139.09 579.74 139.68 596.2 138.84 612.66 136.67 629.12 133.36 645.57 129.25 653.87 146.62 664.13 163.99 675.42 181.37 686.66 198.74 696.81 216.12 704.93 233.49 710.24 250.86 712.26 268.24 710.8 285.61 706 302.99 698.29 320.36 688.41 337.73 677.27 355.11 665.92 372.48 655.42 389.86 646.75 407.23 640.72 424.61 637.89 441.98 638.53 459.35 642.58 476.73 649.66 494.1 659.1 511.48 670.03 528.85 681.43 546.22 692.22 563.6 701.41 580.97 708.12 598.35 711.74 615.72 711.93 633.09 708.66 650.47 702.25 667.84 693.29 685.22 675.65 695.11 658 703.06 640.36 708.29 622.72 710.29 605.08 708.88 587.44 704.18 569.8 696.66 552.16 687.04 534.52 676.25 516.88 665.34 499.24 655.36 481.6 647.29 463.96 641.9 446.32 639.72 428.67 640.95 411.03 645.48 393.39 652.87 375.75 662.41 358.11 673.16 340.47 684.09 322.83 694.14 305.19 702.33 287.55 707.88 269.91 710.24 252.27 709.19 234.63 704.83 216.99 697.57 199.34 688.13 181.7 677.42 164.06 666.47 146.42 656.35 128.78 648.03 130.64 631.34 131.96 614.64 132.64 597.94 132.6 581.25 131.85 564.55 130.46 547.86 128.56 531.16 126.33 514.47 123.97 497.77 121.7 481.08 119.75 464.38 118.28 447.69 117.45 430.99 117.31 414.3 117.9 397.6 119.15 380.91 120.94 364.21 123.12 347.51 125.47 330.82 127.77 314.12 129.82 297.43 131.41 280.73 132.41 264.04 132.71 247.34 132.29 230.65 131.19 213.95 129.51 197.26 127.41 180.56 125.08 163.87 122.75 147.17 120.62 130.48 118.9 113.78" stroke-dasharray="4 8" transform="rotate(4.04, 400, 400)" opacity="0.92"></path><path d="M130.56 126.63Q146.48 130.55 162.4 134.96 178.32 139.45 194.24 143.64 210.16 147.15 226.08 149.66 242 150.95 257.92 150.9 273.84 149.52 289.76 146.94 305.68 143.37 321.6 139.15 337.52 134.64 353.44 130.26 369.36 126.39 385.28 123.37 401.2 121.49 417.12 120.9 433.04 121.66 448.96 123.69 464.88 126.83 480.8 130.79 496.72 135.21 512.64 139.7 528.56 143.86 544.48 147.32 560.4 149.77 576.32 150.98 592.24 150.86 608.16 149.41 624.08 146.76 640 143.15 649.09 159.94 659.47 176.74 670.24 193.53 680.47 210.32 689.28 227.12 695.91 243.91 699.79 260.7 700.59 277.5 698.23 294.29 692.92 311.08 685.12 327.88 675.5 344.67 664.88 361.46 654.19 378.25 644.35 395.05 636.2 411.84 630.44 428.63 627.58 445.43 627.85 462.22 631.24 479.01 637.45 495.81 645.95 512.6 656.01 529.39 666.75 546.19 677.26 562.98 686.62 579.77 694.03 596.57 698.86 613.36 700.68 630.15 699.33 646.95 694.95 663.74 687.89 680.53 670.81 688.88 653.73 695 636.66 698.35 619.58 698.63 602.5 695.82 585.42 690.17 568.35 682.18 551.27 672.56 534.19 662.18 517.11 651.96 500.04 642.82 482.96 635.57 465.88 630.85 448.8 629.1 431.73 630.47 414.65 634.83 397.57 641.79 380.49 650.74 363.42 660.87 346.34 671.29 329.26 681.05 312.18 689.28 295.11 695.26 278.03 698.45 260.95 698.56 243.87 695.58 226.79 689.78 209.72 681.67 192.64 671.99 175.56 661.59 158.48 651.41 141.41 642.35 143 626.24 144 610.12 144.3 594 143.89 577.89 142.8 561.77 141.12 545.66 139 529.54 136.62 513.42 134.19 497.31 131.91 481.19 129.98 465.07 128.58 448.96 127.81 432.84 127.75 416.73 128.4 400.61 129.7 384.49 131.55 368.38 133.78 352.26 136.2 336.14 138.6 320.03 140.78 303.91 142.55 287.79 143.75 271.68 144.28 255.56 144.1 239.45 143.22 223.33 141.72 207.21 139.73 191.1 137.41 174.98 134.97 158.86 132.62 142.75 130.56 126.63" stroke-dasharray="11 9" transform="rotate(8.08, 400, 400)" opacity="0.71"></path><path d="M142.6 139.99Q157.99 144.2 173.38 148.64 188.78 152.94 204.17 156.76 219.56 159.78 234.95 161.75 250.35 162.5 265.74 161.98 281.13 160.24 296.53 157.4 311.92 153.71 327.31 149.47 342.7 145.03 358.1 140.75 373.49 136.98 388.88 134.03 404.27 132.15 419.67 131.48 435.06 132.09 450.45 133.92 465.85 136.83 481.24 140.57 496.63 144.84 512.02 149.28 527.42 153.54 542.81 157.26 558.2 160.14 573.59 161.93 588.99 162.51 604.38 161.8 619.77 159.89 635.17 156.91 644.62 173.1 654.73 189.3 664.71 205.49 673.76 221.68 681.16 237.87 686.34 254.06 688.87 270.25 688.56 286.45 685.44 302.64 679.74 318.83 671.93 335.02 662.62 351.21 652.54 367.4 642.5 383.6 633.29 399.79 625.65 415.98 620.16 432.17 617.28 448.36 617.23 464.55 620.01 480.75 625.4 496.94 632.98 513.13 642.14 529.32 652.17 545.51 662.25 561.7 671.61 577.89 679.49 594.09 685.27 610.28 688.5 626.47 688.91 642.66 686.48 658.85 681.4 675.04 664.92 681.66 648.44 685.92 631.95 687.48 615.47 686.21 598.99 682.21 582.51 675.81 566.03 667.54 549.55 658.08 533.07 648.2 516.59 638.71 500.1 630.4 483.62 623.94 467.14 619.86 450.66 618.51 434.18 619.98 417.7 624.17 401.22 630.72 384.74 639.1 368.25 648.63 351.77 658.51 335.29 667.93 318.81 676.13 302.33 682.44 285.85 686.32 269.37 687.47 252.89 685.79 236.4 681.42 219.92 674.71 203.44 666.22 186.96 656.65 170.48 646.77 154 637.41 155.25 621.87 155.85 606.32 155.75 590.78 154.95 575.23 153.53 559.69 151.58 544.14 149.28 528.6 146.79 513.05 144.32 497.51 142.06 481.97 140.19 466.42 138.86 450.88 138.18 435.33 138.19 419.79 138.9 404.24 140.25 388.7 142.14 373.15 144.41 357.61 146.88 342.06 149.37 326.52 151.66 310.98 153.59 295.43 154.99 279.89 155.77 264.34 155.84 248.8 155.22 233.25 153.94 217.71 152.12 202.16 149.88 186.62 147.42 171.07 144.93 155.53 142.6 139.99" stroke-dasharray="1 9" transform="rotate(12.12, 400, 400)" opacity="0.33"></path><path d="M155.01 153.76Q169.88 158.09 184.75 162.41 199.61 166.4 214.48 169.76 229.35 172.23 244.22 173.63 259.09 173.86 273.96 172.9 288.83 170.81 303.7 167.76 318.57 163.98 333.44 159.75 348.31 155.39 363.18 151.22 378.04 147.56 392.91 144.69 407.78 142.81 422.65 142.08 437.52 142.54 452.39 144.17 467.26 146.83 482.13 150.33 497 154.41 511.87 158.76 526.74 163.05 541.61 166.96 556.47 170.2 571.34 172.52 586.21 173.75 601.08 173.79 615.95 172.65 630.82 170.41 640.22 185.97 649.74 201.54 658.71 217.11 666.46 232.67 672.44 248.24 676.21 263.81 677.5 279.38 676.22 294.94 672.45 310.51 666.48 326.08 658.73 341.64 649.77 357.21 640.24 372.78 630.84 388.34 622.25 403.91 615.09 419.48 609.89 435.05 607.01 450.61 606.66 466.18 608.88 481.75 613.5 497.31 620.19 512.88 628.45 528.45 637.7 544.02 647.26 559.58 656.44 575.15 664.57 590.72 671.07 606.28 675.45 621.85 677.41 637.42 676.8 652.98 673.67 668.55 657.82 673.35 641.97 675.79 626.12 675.7 610.27 673.07 594.42 668.1 578.57 661.18 562.72 652.81 546.87 643.63 531.02 634.32 515.17 625.6 499.32 618.1 483.47 612.4 467.62 608.93 451.77 607.94 435.92 609.51 420.07 613.52 404.22 619.67 388.37 627.5 372.52 636.41 356.67 645.75 340.82 654.81 324.97 662.9 309.12 669.42 293.27 673.88 277.42 675.95 261.57 675.46 245.72 672.46 229.86 667.17 214.01 659.98 198.16 651.45 182.31 642.2 166.46 632.94 167.3 617.97 167.46 602.99 166.94 588.02 165.77 573.05 164.03 558.07 161.86 543.1 159.4 528.12 156.85 513.15 154.37 498.17 152.16 483.2 150.38 468.23 149.14 453.25 148.55 438.28 148.64 423.3 149.41 408.33 150.8 393.35 152.72 378.38 155.01 363.41 157.53 348.43 160.07 333.46 162.47 318.48 164.54 303.51 166.14 288.53 167.14 273.56 167.49 258.59 167.14 243.61 166.13 228.64 164.54 213.66 162.46 198.69 160.07 183.71 157.52 168.74 155.01 153.76" stroke-dasharray="11 2" transform="rotate(16.16, 400, 400)" opacity="0.21"></path><path d="M167.75 167.87Q182.09 172.14 196.43 176.19 210.78 179.75 225.12 182.57 239.46 184.47 253.8 185.3 268.14 185.01 282.48 183.63 296.83 181.25 311.17 178.02 325.51 174.18 339.85 169.98 354.19 165.72 368.53 161.68 382.88 158.14 397.22 155.34 411.56 153.48 425.9 152.68 440.24 153 454.58 154.42 468.93 156.83 483.27 160.08 497.61 163.94 511.95 168.15 526.29 172.41 540.64 176.44 554.98 179.96 569.32 182.72 583.66 184.55 598 185.31 612.34 184.96 626.69 183.51 635.66 198.43 644.33 213.34 652.12 228.26 658.51 243.18 663.08 258.1 665.53 273.02 665.7 287.94 663.57 302.86 659.29 317.77 653.15 332.69 645.53 347.61 636.96 362.53 627.99 377.45 619.22 392.37 611.23 407.28 604.54 422.2 599.61 437.12 596.74 452.04 596.15 466.96 597.85 481.88 601.75 496.79 607.58 511.71 614.96 526.63 623.39 541.55 632.34 556.47 641.19 571.39 649.36 586.31 656.33 601.22 661.62 616.14 664.88 631.06 665.91 645.98 664.62 660.9 649.44 663.88 634.26 664.62 619.07 663.05 603.89 659.28 588.7 653.58 573.52 646.33 558.33 638.03 543.15 629.24 527.96 620.58 512.78 612.63 497.59 605.94 482.41 600.96 467.22 598.05 452.04 597.39 436.85 599.03 421.67 602.86 406.48 608.62 391.3 615.91 376.11 624.24 360.93 633.03 345.74 641.68 330.56 649.6 315.37 656.24 300.19 661.15 285 664 269.82 664.59 254.63 662.87 239.45 658.97 224.26 653.16 209.08 645.82 193.89 637.47 178.71 628.68 179.08 614.28 178.78 599.88 177.84 585.48 176.31 571.08 174.3 556.68 171.94 542.28 169.38 527.88 166.8 513.48 164.36 499.08 162.23 484.68 160.55 470.28 159.42 455.88 158.93 441.48 159.1 427.08 159.93 412.67 161.36 398.27 163.29 383.87 165.59 369.47 168.13 355.07 170.72 340.67 173.19 326.27 175.39 311.87 177.17 297.47 178.4 283.07 179.02 268.67 178.97 254.27 178.26 239.87 176.94 225.47 175.1 211.07 172.85 196.67 170.34 182.27 167.75 167.87" stroke-dasharray="9 2" transform="rotate(20.200000000000003, 400, 400)" opacity="0.81"></path><path d="M180.77 182.19Q194.57 186.23 208.38 189.88 222.18 192.92 235.99 195.15 249.79 196.44 263.59 196.71 277.4 195.94 291.2 194.18 305 191.54 318.81 188.18 332.61 184.31 346.41 180.17 360.22 176.02 374.02 172.12 387.83 168.71 401.63 166 415.43 164.16 429.24 163.3 443.04 163.48 456.84 164.69 470.65 166.85 484.45 169.83 498.25 173.44 512.06 177.46 525.86 181.63 539.67 185.71 553.47 189.42 567.27 192.56 581.08 194.91 594.88 196.33 608.68 196.74 622.49 196.11 630.73 210.35 638.34 224.6 644.84 238.84 649.85 253.09 653.07 267.34 654.31 281.58 653.49 295.83 650.66 310.07 645.99 324.32 639.76 338.57 632.34 352.81 624.19 367.06 615.78 381.3 607.63 395.55 600.22 409.8 593.99 424.04 589.32 438.29 586.5 452.53 585.68 466.78 586.92 481.02 590.15 495.27 595.16 509.52 601.67 523.76 609.27 538.01 617.52 552.25 625.92 566.5 633.96 580.75 641.16 594.99 647.1 609.24 651.4 623.48 653.83 637.73 654.22 651.98 639.73 653.23 625.25 652.42 610.76 649.6 596.27 644.93 581.79 638.71 567.3 631.33 552.81 623.25 538.33 614.96 523.84 606.98 509.35 599.82 494.86 593.91 480.38 589.62 465.89 587.22 451.4 586.85 436.92 588.55 422.43 592.21 407.94 597.59 393.46 604.36 378.97 612.11 364.48 620.34 350 628.56 335.51 636.24 321.02 642.91 306.53 648.16 292.05 651.66 277.56 653.18 263.07 652.65 248.59 650.08 234.1 645.65 219.61 639.61 205.13 632.36 190.64 624.34 190.52 610.53 189.76 596.71 188.42 582.89 186.58 569.07 184.34 555.26 181.84 541.44 179.23 527.62 176.66 513.8 174.3 499.99 172.27 486.17 170.71 472.35 169.71 458.53 169.32 444.72 169.58 430.9 170.46 417.08 171.91 403.26 173.84 389.45 176.15 375.63 178.68 361.81 181.3 347.99 183.84 334.18 186.14 320.36 188.08 306.54 189.53 292.72 190.41 278.91 190.67 265.09 190.28 251.27 189.28 237.45 187.72 223.64 185.7 209.82 183.34 196 180.77 182.19" stroke-dasharray="5 8" transform="rotate(24.24, 400, 400)" opacity="0.75"></path><path d="M193.99 196.57Q207.24 200.24 220.49 203.38 233.74 205.83 246.99 207.44 260.24 208.13 273.49 207.86 286.73 206.65 299.98 204.55 313.23 201.69 326.48 198.23 339.73 194.37 352.98 190.32 366.23 186.3 379.48 182.55 392.73 179.27 405.98 176.65 419.23 174.84 432.48 173.93 445.72 173.98 458.97 174.99 472.22 176.89 485.47 179.59 498.72 182.92 511.97 186.71 525.22 190.75 538.47 194.79 551.72 198.62 564.97 202.02 578.22 204.81 591.47 206.82 604.72 207.94 617.96 208.11 625.24 221.66 631.63 235.21 636.8 248.76 640.46 262.31 642.42 275.86 642.57 289.41 640.9 302.96 637.5 316.51 632.55 330.06 626.34 343.62 619.18 357.17 611.47 370.72 603.62 384.27 596.07 397.82 589.22 411.37 583.44 424.92 579.04 438.47 576.27 452.02 575.26 465.57 576.09 479.12 578.7 492.68 582.94 506.23 588.6 519.78 595.37 533.33 602.87 546.88 610.7 560.43 618.44 573.98 625.67 587.53 632 601.08 637.08 614.63 634.68 634.8 614.96 639.27 601.21 635.42 587.45 630.1 573.69 623.59 559.93 616.26 546.17 608.52 532.41 600.81 518.65 593.55 504.89 587.17 491.13 582.01 477.37 578.36 463.61 576.44 449.85 576.34 436.09 578.08 422.33 581.55 408.57 586.56 394.81 592.83 381.05 600.01 367.29 607.7 353.53 615.45 339.77 622.85 326.02 629.46 312.26 634.93 298.5 638.94 284.74 641.27 270.98 641.79 257.22 640.46 243.46 637.37 229.7 632.69 215.94 626.68 202.18 619.67 201.56 606.45 200.37 593.23 198.68 580.01 196.57 566.78 194.15 553.56 191.57 540.34 188.95 527.12 186.44 513.9 184.18 500.68 182.29 487.45 180.88 474.23 180.01 461.01 179.73 447.79 180.06 434.57 180.99 421.34 182.46 408.12 184.39 394.9 186.68 381.68 189.2 368.46 191.82 355.24 194.4 342.01 196.79 328.79 198.86 315.57 200.51 302.35 201.65 289.13 202.21 275.91 202.16 262.68 201.5 249.46 200.28 236.24 198.56 223.02 196.42 209.8 193.99 196.57" stroke-dasharray="7 4" transform="rotate(28.28, 400, 400)" opacity="0.38"></path><path d="M207.32 210.9Q219.99 214.05 232.67 216.6 245.34 218.41 258.01 219.4 270.69 219.51 283.36 218.73 296.03 217.11 308.71 214.73 321.38 211.71 334.05 208.19 346.73 204.37 359.4 200.42 372.07 196.56 384.75 192.97 397.42 189.83 410.1 187.31 422.77 185.52 435.44 184.57 448.12 184.5 460.79 185.31 473.46 186.95 486.14 189.36 498.81 192.41 511.48 195.93 524.16 199.77 536.83 203.71 549.51 207.57 562.18 211.15 574.85 214.27 587.53 216.76 600.2 218.52 612.87 219.44 619 232.27 624.11 245.11 627.95 257.94 630.33 270.78 631.14 283.62 630.33 296.45 627.96 309.29 624.12 322.12 619.02 334.96 612.89 347.79 606.04 360.63 598.8 373.46 591.52 386.3 584.55 399.14 578.24 411.97 572.89 424.81 568.75 437.64 566.05 450.48 564.89 463.31 565.35 476.15 567.39 488.98 570.92 501.82 575.77 514.66 581.7 527.49 588.42 540.33 595.61 553.16 602.91 566 609.98 578.83 616.46 591.67 622.04 604.5 621.47 622.91 603.47 625.24 590.47 620.64 577.46 614.89 564.45 608.29 551.44 601.17 538.44 593.89 525.43 586.81 512.42 580.31 499.42 574.69 486.41 570.25 473.4 567.2 460.39 565.71 447.39 565.85 434.38 567.61 421.37 570.9 408.37 575.55 395.36 581.34 382.35 587.96 369.35 595.1 356.34 602.37 343.33 609.43 330.32 615.91 317.32 621.49 304.31 625.88 291.3 628.87 278.3 630.3 265.29 630.1 252.28 628.29 239.28 624.94 226.27 620.24 213.26 614.42 212.18 601.81 210.6 589.2 208.6 576.59 206.28 563.98 203.75 551.37 201.14 538.76 198.57 526.15 196.16 513.54 194.04 500.93 192.31 488.32 191.05 475.71 190.31 463.1 190.15 450.49 190.56 437.88 191.53 425.27 193.01 412.66 194.93 400.05 197.18 387.44 199.68 374.83 202.28 362.22 204.87 349.61 207.33 337 209.52 324.39 211.34 311.78 212.71 299.17 213.57 286.56 213.85 273.95 213.56 261.34 212.71 248.73 211.34 236.12 209.51 223.51 207.32 210.9" stroke-dasharray="1 1" transform="rotate(32.32, 400, 400)" opacity="0.41"></path><path d="M220.65 225.01Q232.72 227.56 244.79 229.46 256.87 230.62 268.94 230.98 281.02 230.54 293.09 229.3 305.16 227.34 317.24 224.73 329.31 221.59 341.38 218.06 353.46 214.31 365.53 210.49 377.6 206.79 389.68 203.37 401.75 200.38 413.83 197.96 425.9 196.22 437.97 195.23 450.05 195.04 462.12 195.65 474.19 197.05 486.27 199.17 498.34 201.9 510.41 205.14 522.49 208.73 534.56 212.51 546.64 216.31 558.71 219.97 570.78 223.31 582.86 226.18 594.93 228.47 607 230.05 611.89 242.16 615.69 254.26 618.25 266.36 619.46 278.47 619.25 290.57 617.65 302.67 614.71 314.78 610.57 326.88 605.41 338.98 599.45 351.08 592.95 363.19 586.19 375.29 579.46 387.39 573.06 399.5 567.27 411.6 562.33 423.7 558.47 435.81 555.84 447.91 554.56 460.01 554.69 472.12 556.23 484.22 559.09 496.32 563.17 508.43 568.29 520.53 574.21 532.63 580.69 544.73 587.45 556.84 594.18 568.94 600.6 581.04 606.43 593.15 607.27 609.89 590.88 610.47 578.65 605.35 566.41 599.4 554.18 592.9 541.94 586.13 529.71 579.4 517.47 573.01 505.24 567.25 493 562.38 480.77 558.62 468.53 556.13 456.3 555.03 444.06 555.37 431.83 557.13 419.59 560.24 407.36 564.55 395.12 569.87 382.89 575.96 370.66 582.54 358.42 589.33 346.19 596.01 333.95 602.29 321.72 607.87 309.48 612.52 297.25 616.02 285.01 618.22 272.78 619.01 260.54 618.36 248.31 616.29 236.07 612.92 223.84 608.37 222.34 596.39 220.43 584.41 218.2 572.43 215.74 560.45 213.17 548.47 210.58 536.49 208.11 524.51 205.84 512.53 203.88 500.55 202.32 488.57 201.23 476.59 200.64 464.61 200.59 452.63 201.08 440.65 202.08 428.67 203.56 416.69 205.45 404.71 207.67 392.73 210.11 380.75 212.69 368.77 215.27 356.79 217.76 344.81 220.04 332.83 222.01 320.85 223.59 308.87 224.72 296.89 225.33 284.91 225.41 272.93 224.95 260.95 223.97 248.97 222.52 236.99 220.65 225.01" stroke-dasharray="2 2" transform="rotate(36.36, 400, 400)" opacity="0.97"></path><path d="M233.86 238.76Q245.31 240.65 256.76 241.87 268.21 242.38 279.65 242.16 291.1 241.21 302.55 239.58 314 237.33 325.44 234.54 336.89 231.34 348.34 227.84 359.79 224.19 371.23 220.53 382.68 217.01 394.13 213.76 405.58 210.93 417.02 208.62 428.47 206.92 439.92 205.9 451.37 205.6 462.81 206.03 474.26 207.18 485.71 209.01 497.16 211.43 508.6 214.35 520.05 217.65 531.5 221.21 542.95 224.88 554.39 228.51 565.84 231.96 577.29 235.1 588.73 237.79 600.18 239.94 603.79 251.29 606.34 262.65 607.71 274.01 607.87 285.37 606.8 296.72 604.54 308.08 601.19 319.44 596.87 330.8 591.75 342.15 586.02 353.51 579.9 364.87 573.63 376.23 567.46 387.58 561.61 398.94 556.32 410.3 551.78 421.66 548.18 433.01 545.64 444.37 544.27 455.73 544.12 467.08 545.2 478.44 547.46 489.8 550.82 501.16 555.15 512.51 560.28 523.87 566.01 535.23 572.13 546.59 578.4 557.94 584.57 569.3 590.41 580.66 592.25 595.85 577.34 595.07 565.89 589.68 554.44 583.75 542.99 577.51 531.54 571.21 520.1 565.1 508.65 559.42 497.2 554.41 485.75 550.25 474.3 547.13 462.85 545.15 451.41 544.4 439.96 544.91 428.51 546.66 417.06 549.58 405.61 553.56 394.16 558.43 382.71 563.99 371.27 570.04 359.82 576.33 348.37 582.6 336.92 588.6 325.47 594.11 314.02 598.89 302.58 602.76 291.13 605.57 279.68 607.19 268.23 607.57 256.78 606.69 245.33 604.59 233.89 601.35 232.04 590.02 229.88 578.69 227.49 567.35 224.97 556.02 222.42 544.69 219.92 533.36 217.58 522.03 215.49 510.7 213.72 499.37 212.35 488.04 211.43 476.71 210.99 465.38 211.05 454.05 211.61 442.71 212.64 431.38 214.12 420.05 215.97 408.72 218.13 397.39 220.51 386.06 223.03 374.73 225.59 363.4 228.08 352.07 230.42 340.74 232.51 329.4 234.28 318.07 235.64 306.74 236.56 295.41 237 284.08 236.94 272.75 236.37 261.42 235.34 250.09 233.86 238.76" stroke-dasharray="3 1" transform="rotate(40.400000000000006, 400, 400)" opacity="0.60"></path><path d="M246.85 252.02Q257.65 253.21 268.44 253.77 279.24 253.67 290.03 252.91 300.82 251.52 311.62 249.56 322.41 247.08 333.21 244.19 344 240.97 354.8 237.54 365.59 234.02 376.39 230.53 387.18 227.2 397.98 224.15 408.77 221.47 419.57 219.27 430.36 217.62 441.16 216.58 451.95 216.19 462.74 216.45 473.54 217.36 484.33 218.9 495.13 220.99 505.92 223.58 516.72 226.57 527.51 229.85 538.31 233.31 549.1 236.83 559.9 240.29 570.69 243.56 581.49 246.54 592.28 249.1 594.65 259.71 596.02 270.31 596.34 280.91 595.6 291.51 593.83 302.12 591.08 312.72 587.45 323.32 583.06 333.92 578.05 344.53 572.61 355.13 566.91 365.73 561.14 376.33 555.51 386.94 550.19 397.54 545.38 408.14 541.23 418.74 537.88 429.35 535.45 439.95 534.02 450.55 533.64 461.15 534.31 471.76 536.03 482.36 538.72 492.96 542.3 503.56 546.65 514.17 551.62 524.77 557.04 535.37 562.74 545.97 568.5 556.58 574.15 567.18 564.48 577.37 541.72 568.04 531.07 562.21 520.41 556.46 509.76 551.02 499.1 546.07 488.45 541.78 477.8 538.31 467.14 535.77 456.49 534.25 445.83 533.81 435.18 534.47 424.52 536.19 413.87 538.93 403.22 542.58 392.56 547.01 381.91 552.08 371.25 557.6 360.6 563.37 349.94 569.21 339.29 574.89 328.64 580.23 317.98 585.04 307.33 589.14 296.67 592.4 286.02 594.69 275.36 595.95 264.71 596.12 254.06 595.2 243.4 593.22 241.29 582.55 238.97 571.89 236.52 561.23 234.01 550.57 231.54 539.9 229.18 529.24 227.02 518.58 225.13 507.92 223.58 497.25 222.41 486.59 221.66 475.93 221.37 465.27 221.53 454.6 222.16 443.94 223.21 433.28 224.67 422.62 226.47 411.95 228.56 401.29 230.87 390.63 233.32 379.97 235.83 369.31 238.3 358.64 240.67 347.98 242.84 337.32 244.75 326.66 246.33 315.99 247.52 305.33 248.3 294.67 248.62 284.01 248.48 273.34 247.88 262.68 246.85 252.02" stroke-dasharray="4 11" transform="rotate(44.44, 400, 400)" opacity="0.94"></path><path d="M259.5 264.67Q269.61 265.18 279.73 265.1 289.85 264.44 299.96 263.22 310.08 261.47 320.19 259.25 330.31 256.62 340.43 253.67 350.54 250.48 360.66 247.16 370.78 243.8 380.89 240.51 391.01 237.38 401.12 234.52 411.24 232.01 421.36 229.93 431.47 228.33 441.59 227.28 451.7 226.8 461.82 226.91 471.94 227.59 482.05 228.84 492.17 230.62 502.29 232.86 512.4 235.51 522.52 238.47 532.63 241.67 542.75 244.99 552.87 248.35 562.98 251.64 578.77 261.1 584.76 277.28 584.18 287.13 582.71 296.97 580.4 306.81 577.3 316.66 573.52 326.5 569.16 336.34 564.36 346.18 559.25 356.03 553.99 365.87 548.72 375.71 543.61 385.56 538.81 395.4 534.46 405.24 530.68 415.08 527.59 424.93 525.27 434.77 523.8 444.61 523.23 454.46 523.56 464.3 524.78 474.14 526.87 483.98 529.75 493.83 533.35 503.67 537.56 513.51 542.26 523.36 547.3 533.2 552.53 543.04 557.81 552.88 549.4 561.57 528.45 552.39 518.59 547.07 508.73 541.95 498.87 537.21 489.01 532.97 479.16 529.38 469.3 526.54 459.44 524.54 449.58 523.44 439.72 523.27 429.86 524.04 420 525.72 410.15 528.27 400.29 531.61 390.43 535.63 380.57 540.21 370.71 545.21 360.85 550.48 351 555.85 341.14 561.17 331.28 566.28 321.42 571 311.56 575.21 301.7 578.76 291.85 581.57 281.99 583.53 272.13 584.58 256.21 579.31 247.76 563.94 245.32 553.96 242.9 543.99 240.57 534.01 238.4 524.04 236.46 514.06 234.79 504.09 233.46 494.11 232.5 484.13 231.93 474.16 231.78 464.18 232.04 454.21 232.72 444.23 233.79 434.26 235.22 424.28 236.97 414.3 238.98 404.33 241.2 394.35 243.56 384.38 245.99 374.4 248.42 364.43 250.78 354.45 253 344.48 255.02 334.5 256.76 324.52 258.19 314.55 259.27 304.57 259.94 294.6 260.21 284.62 260.06 274.65 259.5 264.67" stroke-dasharray="3 8" transform="rotate(48.48, 400, 400)" opacity="0.58"></path><path d="M271.7 276.62Q281.11 276.48 290.53 275.84 299.94 274.7 309.35 273.09 318.77 271.05 328.18 268.65 337.6 265.94 347.01 262.99 356.42 259.89 365.84 256.71 375.25 253.54 384.67 250.45 394.08 247.55 403.5 244.88 412.91 242.54 422.32 240.58 431.74 239.05 441.15 238 450.57 237.44 459.98 237.4 469.4 237.88 478.81 238.86 488.22 240.32 497.64 242.22 507.05 244.5 516.47 247.12 525.88 249.99 535.3 253.05 544.71 256.22 554.12 259.4 568.35 268.55 572.6 283.67 571.29 292.75 569.26 301.83 566.56 310.91 563.27 320 559.45 329.08 555.22 338.16 550.68 347.24 545.95 356.33 541.13 365.41 536.37 374.49 531.77 383.57 527.46 392.66 523.55 401.74 520.13 410.82 517.28 419.91 515.1 428.99 513.62 438.07 512.89 447.15 512.92 456.24 513.72 465.32 515.26 474.4 517.51 483.48 520.41 492.57 523.88 501.65 527.83 510.73 532.17 519.81 536.79 528.9 541.56 537.98 534.05 545.55 514.83 536.9 505.76 532.17 496.7 527.72 487.63 523.68 478.56 520.14 469.5 517.21 460.43 514.96 451.36 513.44 442.3 512.7 433.23 512.77 424.17 513.62 415.1 515.26 406.03 517.62 396.97 520.65 387.9 524.27 378.83 528.38 369.77 532.88 360.7 537.65 351.63 542.55 342.57 547.47 333.5 552.27 324.43 556.83 315.37 561.02 306.3 564.73 297.24 567.88 288.17 570.36 279.1 572.13 264.34 568.59 256.29 554.79 253.95 545.52 251.68 536.24 249.55 526.97 247.61 517.7 245.91 508.43 244.49 499.15 243.39 489.88 242.63 480.61 242.24 471.34 242.22 462.06 242.58 452.79 243.3 443.52 244.38 434.25 245.77 424.98 247.45 415.7 249.37 406.43 251.49 397.16 253.74 387.89 256.08 378.61 258.44 369.34 260.77 360.07 263 350.8 265.07 341.52 266.94 332.25 268.56 322.98 269.89 313.71 270.88 304.43 271.52 295.16 271.8 285.89 271.7 276.62" stroke-dasharray="7 9" transform="rotate(52.52, 400, 400)" opacity="0.66"></path><path d="M283.36 287.79Q300.74 285.96 318.13 282.52 335.51 277.79 352.9 272.18 370.28 266.2 387.67 260.38 405.05 255.24 422.43 251.24 439.82 248.73 457.2 247.95 474.59 248.95 491.97 251.66 509.36 255.83 526.74 261.08 544.13 266.95 561.51 272.92 559.61 289.57 555.33 306.22 549.03 322.87 541.27 339.52 532.71 356.17 524.09 372.83 516.15 389.48 509.57 406.13 504.93 422.78 502.62 439.43 502.84 456.09 505.57 472.74 510.59 489.39 517.44 506.04 521.6 526.57 501.09 521.67 484.52 513.82 467.95 507.6 451.39 503.55 434.82 502.05 418.25 503.22 401.69 506.96 385.12 512.94 368.55 520.62 351.99 529.32 335.42 538.25 318.85 546.63 302.29 553.7 285.72 558.83 269.15 561.56 264.64 544.45 260.42 527.34 256.85 510.23 254.24 493.12 252.82 476.01 252.7 458.9 253.91 441.79 256.32 424.67 259.75 407.56 263.88 390.45 268.37 373.34 272.82 356.23 276.86 339.12 280.14 322.01 282.37 304.9 283.36 287.79" stroke-dasharray="10 6" transform="rotate(56.56, 400, 400)" opacity="0.20"></path><path d="M294.41 298.14Q310.32 295.46 326.23 291.55 342.14 286.69 358.05 281.25 373.96 275.64 389.86 270.29 405.77 265.59 421.68 261.89 437.59 259.48 453.5 258.54 469.41 259.14 485.32 261.22 501.22 264.65 517.13 269.15 533.04 274.39 548.95 279.98 545.87 295.13 540.99 310.28 534.66 325.43 527.34 340.58 519.56 355.74 511.89 370.89 504.87 386.04 499.02 401.19 494.77 416.35 492.41 431.5 492.13 446.65 493.95 461.8 497.72 476.95 503.18 492.11 506.2 510.8 487.43 506.78 472.41 500.28 457.38 495.34 442.35 492.33 427.33 491.47 412.3 492.83 397.27 496.31 382.25 501.64 367.22 508.43 352.19 516.16 337.17 524.25 322.14 532.1 307.11 539.12 292.09 544.77 277.06 548.64 272.89 532.98 269.17 517.32 266.16 501.67 264.08 486.01 263.08 470.36 263.23 454.7 264.53 439.05 266.88 423.39 270.1 407.73 273.97 392.08 278.21 376.42 282.5 360.77 286.53 345.11 290.03 329.45 292.72 313.8 294.41 298.14" stroke-dasharray="8 3" transform="rotate(60.599999999999994, 400, 400)" opacity="0.14"></path><path d="M304.81 307.68Q319.22 304.38 333.63 300.19 348.04 295.37 362.45 290.21 376.86 285.04 391.27 280.18 405.68 275.93 420.09 272.55 434.5 270.25 448.91 269.19 463.32 269.42 477.73 270.92 492.15 273.62 506.56 277.33 520.97 281.83 535.38 286.83 531.51 300.51 526.35 314.18 520.22 327.85 513.47 341.52 506.51 355.19 499.76 368.86 493.62 382.54 488.47 396.21 484.61 409.88 482.27 423.55 481.59 437.22 482.62 450.9 485.29 464.57 489.44 478.24 491.21 495.25 474.08 492.32 460.56 487.14 447.04 483.39 433.53 481.28 420.01 480.97 406.49 482.45 392.97 485.65 379.45 490.37 365.93 496.3 352.41 503.08 338.89 510.3 325.37 517.5 311.85 524.22 298.33 530.07 284.81 534.67 281.14 520.48 278 506.29 275.57 492.11 274.01 477.92 273.41 463.73 273.81 449.55 275.17 435.36 277.43 421.17 280.44 406.99 284.02 392.8 287.96 378.61 292.02 364.42 295.96 350.24 299.55 336.05 302.56 321.86 304.81 307.68" stroke-dasharray="7 1" transform="rotate(64.64, 400, 400)" opacity="0.93"></path><path d="M314.54 316.42Q327.44 312.76 340.34 308.5 353.24 303.87 366.14 299.09 379.04 294.41 391.93 290.06 404.83 286.26 417.73 283.2 430.63 281.04 443.53 279.89 456.43 279.8 469.33 280.78 482.23 282.78 495.13 285.69 508.03 289.38 520.93 293.65 516.64 305.87 511.5 318.08 505.75 330.3 499.67 342.51 493.56 354.73 487.71 366.94 482.41 379.16 477.92 391.37 474.45 403.59 472.18 415.8 471.21 428.02 471.59 440.23 473.3 452.45 476.27 464.66 476.8 480.11 461.22 478.36 449.17 474.42 437.12 471.73 425.08 470.41 413.03 470.53 400.98 472.09 388.93 475 376.88 479.12 364.84 484.24 352.79 490.11 340.74 496.43 328.69 502.87 316.64 509.12 297.04 510.97 286.96 494.38 285.13 481.67 284.07 468.96 283.84 456.24 284.43 443.53 285.84 430.82 287.98 418.11 290.75 405.4 294.03 392.69 297.64 379.98 301.41 367.27 305.17 354.55 308.72 341.84 311.89 329.13 314.54 316.42" stroke-dasharray="11 7" transform="rotate(68.68, 400, 400)" opacity="0.21"></path><path d="M323.6 324.43Q334.99 320.65 346.37 316.53 357.76 312.22 369.15 307.91 380.53 303.75 391.92 299.93 403.31 296.59 414.69 293.86 426.08 291.85 437.46 290.65 448.85 290.3 460.24 290.81 471.62 292.17 483.01 294.32 497.9 304.28 496.53 322.18 491.32 332.97 485.98 343.75 480.72 354.53 475.74 365.32 471.23 376.1 467.36 386.88 464.29 397.67 462.13 408.45 460.97 419.24 460.84 430.02 461.76 440.8 463.69 451.59 463.08 465.52 449.01 464.94 438.39 462.14 427.78 460.37 417.16 459.7 406.55 460.16 395.93 461.73 385.32 464.34 374.71 467.9 364.09 472.26 353.48 477.25 342.86 482.66 332.25 488.29 321.63 493.91 304.51 496.13 296.13 481.74 294.87 470.51 294.27 459.27 294.36 448.04 295.12 436.8 296.53 425.56 298.53 414.33 301.05 403.09 304 391.85 307.25 380.62 310.68 369.38 314.17 358.14 317.57 346.91 320.75 335.67 323.6 324.43" stroke-dasharray="0 9" transform="rotate(72.72, 400, 400)" opacity="0.52"></path><path d="M332.04 331.82Q341.92 328.15 351.8 324.33 361.68 320.47 371.56 316.68 381.44 313.09 391.32 309.8 401.2 306.91 411.08 304.51 420.96 302.68 430.84 301.47 440.72 300.92 450.6 301.04 460.48 301.83 470.36 303.27 483.1 311.29 481.54 326.65 476.99 336.02 472.43 345.4 468.01 354.78 463.85 364.16 460.08 373.54 456.81 382.92 454.14 392.29 452.13 401.67 450.86 411.05 450.36 420.43 450.65 429.81 451.71 439.19 439.26 450.96 419.14 449.3 409.93 449.15 400.71 449.85 391.49 451.38 382.27 453.69 373.06 456.71 363.84 460.35 354.62 464.5 345.4 469.03 336.19 473.81 326.97 478.68 312.28 480.93 305.57 468.58 304.84 458.82 304.64 449.05 304.98 439.28 305.86 429.51 307.24 419.74 309.08 409.97 311.34 400.2 313.94 390.43 316.8 380.66 319.85 370.89 322.99 361.13 326.13 351.36 329.18 341.59 332.04 331.82" stroke-dasharray="3 0" transform="rotate(76.76, 400, 400)" opacity="0.38"></path><path d="M339.94 338.7Q356.72 331.98 373.49 325.44 390.27 319.66 407.05 315.17 423.83 312.36 440.61 311.47 457.38 312.6 474.16 315.65 466.63 331.64 459.04 347.64 452.05 363.63 446.26 379.63 442.17 395.63 440.14 411.62 440.34 427.62 442.74 443.61 427.03 439.9 411.33 438.52 395.62 439.6 379.91 443.03 364.2 448.52 348.49 455.56 332.78 463.54 317.08 471.73 315.32 455.11 315.18 438.48 316.66 421.85 319.64 405.22 323.85 388.59 328.93 371.96 334.45 355.33 339.94 338.7" stroke-dasharray="3 5" transform="rotate(80.80000000000001, 400, 400)" opacity="0.35"></path><path d="M347.38 345.23Q361.22 339.55 375.06 334.21 388.9 329.54 402.74 325.82 416.58 323.3 430.42 322.13 448.07 329.85 445.82 350.6 440.33 363.88 435.71 377.16 432.25 390.43 430.15 403.71 429.55 416.99 430.47 430.27 417.43 428.32 404.39 428.02 391.35 429.4 378.32 432.38 365.28 436.76 352.24 442.27 332.33 445.05 325.92 427.77 327.53 414.01 330.19 400.26 333.73 386.5 337.95 372.75 342.6 358.99 347.38 345.23" stroke-dasharray="1 9" transform="rotate(84.84, 400, 400)" opacity="0.59"></path><path d="M354.51 351.6Q365.46 347.13 376.42 343.01 387.38 339.42 398.33 336.48 409.29 334.32 420.25 333.03 434.28 338.22 432.8 354.4 428.69 364.99 425.16 375.59 422.35 386.19 420.38 396.79 414.05 412.37 398.38 417.78 387.97 419.26 377.56 421.72 367.15 425.07 356.74 429.18 341.17 430.96 336.87 417.13 338.47 406.21 340.74 395.28 343.6 384.36 346.93 373.44 350.62 362.52 354.51 351.6" stroke-dasharray="8 2" transform="rotate(88.88, 400, 400)" opacity="0.62"></path><path d="M361.46 357.97Q377.72 351.88 393.99 347.13 415.12 351.64 414.6 375 410.8 390.88 408.9 406.76 393.28 407.79 377.66 411.07 355.04 411.53 351.29 390.5 355.9 374.24 361.46 357.97" stroke-dasharray="3 5" transform="rotate(92.92, 400, 400)" opacity="0.56"></path><path d="M368.4 364.55Q379.14 360.83 389.87 357.79 404.01 360.18 404.05 375.4 401.38 386 399.5 396.59 389.06 398.02 378.62 400.41 363.81 400.26 361.84 386.1 364.87 375.32 368.4 364.55" stroke-dasharray="11 4" transform="rotate(96.96, 400, 400)" opacity="0.45"></path></g></svg>