<svg xmlns="http://www.w3.org/2000/svg" version="1.1" xmlns:xlink="http://www.w3.org/1999/xlink" xmlns:svgjs="http://svgjs.dev/svgjs" viewBox="0 0 800 800"><defs><linearGradient x1="50%" y1="0%" x2="50%" y2="100%" id="ccchaos-grad"><stop stop-color="hsl(173.4, 100%, 42%)" stop-opacity="1" offset="0%"></stop><stop stop-color="hsl(173.4, 10%, 42%)" stop-opacity="1" offset="100%"></stop></linearGradient></defs><g stroke-width="2" stroke="url(#ccchaos-grad)" fill="none" stroke-linecap="round"><path d="M377.65 57.72Q385.95 62.22 394.52 67.07 403.37 72.29 412.5 77.89 421.94 83.87 431.69 90.21 441.73 96.9 452.08 103.88 462.73 111.13 473.65 118.58 484.84 126.17 496.28 133.84 507.94 141.51 519.79 149.11 531.8 156.56 543.95 163.8 556.18 170.75 568.47 177.37 580.77 183.59 593.04 189.38 605.24 194.71 617.32 199.56 629.25 203.94 640.97 207.84 652.45 211.31 663.66 214.37 674.54 217.08 685.08 219.51 695.25 221.73 705.01 223.81 717.64 231.99 717.02 248.3 711.67 258.47 705.14 268.65 697.73 278.83 689.78 289.01 681.65 299.18 673.72 309.36 666.36 319.54 659.9 329.72 654.65 339.89 650.84 350.07 648.64 360.25 648.17 370.43 649.44 380.61 652.39 390.78 656.89 400.96 662.73 411.14 669.64 421.32 677.3 431.5 685.37 441.67 693.46 451.85 701.21 462.03 708.26 472.21 714.28 482.38 719.01 492.56 722.21 502.74 723.74 512.92 723.53 523.1 721.6 533.28 718.03 543.45 712.98 553.63 700.73 563.78 688.29 574.18 675.7 584.68 663.01 595.13 650.27 605.37 637.53 615.26 624.83 624.66 612.22 633.44 599.73 641.49 587.42 648.72 575.31 655.05 563.44 660.45 551.83 664.9 540.52 668.41 529.52 671 518.85 672.76 508.52 673.75 498.54 674.11 488.91 673.94 479.62 673.42 462.22 671.96 445.76 670.88 430.67 672.06 416.25 675.43 402.63 683.46 389.31 694.6 378.59 692.01 368.08 690.33 357.82 689.45 347.81 689.24 338.05 689.56 328.54 690.24 319.29 691.11 310.27 692 293.02 692.93 276.39 692.46 260.58 688.4 245.14 681.64 237.58 676.59 230.06 670.58 222.57 663.63 215.09 655.81 207.59 647.22 200.04 637.94 192.44 628.11 184.75 617.87 176.97 607.37 169.09 596.75 161.08 586.18 152.95 575.81 144.68 565.78 136.28 556.23 127.74 547.28 119.06 539.02 120.01 529.03 120.69 519.03 121.05 509.03 121.09 499.04 120.8 489.04 120.2 479.04 119.31 469.05 118.17 459.05 116.85 449.05 115.39 439.06 113.87 429.06 112.35 419.06 110.91 409.07 109.61 399.07 108.51 389.07 107.66 379.08 107.11 369.08 106.87 359.08 106.96 349.09 107.37 339.09 108.09 329.09 109.08 319.1 110.29 309.1 111.68 299.1 113.17 289.11 114.7 279.11 116.19 269.11 117.59 259.12 118.82 249.12 119.82 239.13 125.54 222.6 139.94 213.34 149.28 210.89 158.5 208.62 167.6 206.44 176.56 204.27 185.37 202.03 194.02 199.64 202.51 197.01 210.83 194.08 218.99 190.79 226.98 187.1 234.81 182.98 242.49 178.4 250.04 173.36 257.45 167.87 264.76 161.95 271.99 155.62 279.14 148.94 286.25 141.95 293.33 134.72 300.43 127.31 307.55 119.79 314.74 112.23 322.02 104.7 329.41 97.27 336.95 90 344.66 82.94 352.56 76.15 360.68 69.67 373.34 60.62 377.65 57.72" stroke-dasharray="10 1" transform="rotate(0, 400, 400)" opacity="0.05"></path><path d="M377.74 69.96Q386.34 74.27 395.21 78.91 404.34 83.9 413.75 89.26 423.42 94.97 433.36 101.04 443.57 107.44 454.02 114.14 464.71 121.1 475.62 128.27 486.72 135.6 498 143.03 509.43 150.49 520.98 157.91 532.62 165.23 544.31 172.39 556.02 179.31 567.72 185.94 579.36 192.23 590.91 198.14 602.34 203.62 613.6 208.67 624.66 213.25 635.49 217.39 646.06 221.08 656.33 224.35 666.27 227.25 675.88 229.81 685.11 232.09 693.96 234.17 704.88 241.99 702.86 257.72 697.19 267.58 690.56 277.44 683.28 287.3 675.64 297.17 667.98 307.03 660.61 316.89 653.86 326.75 648 336.61 643.3 346.47 639.95 356.33 638.08 366.19 637.79 376.05 639.09 385.91 641.91 395.77 646.15 405.63 651.61 415.49 658.06 425.35 665.24 435.21 672.84 445.07 680.52 454.94 687.97 464.8 694.87 474.66 700.92 484.52 705.87 494.38 709.5 504.24 711.66 514.1 712.26 523.96 711.28 533.82 708.75 543.68 704.78 553.54 693.37 563.5 681.74 573.52 669.93 583.47 657.98 593.22 645.92 602.64 633.8 611.61 621.66 620.02 609.55 627.76 597.49 634.77 585.53 640.96 573.7 646.31 562.04 650.79 550.57 654.41 539.32 657.18 528.33 659.17 517.6 660.44 507.15 661.07 497 661.19 487.15 660.9 477.62 660.36 468.39 659.68 459.48 659.04 442.69 658.65 426.75 659.62 412.03 664.05 397.91 671.08 382.91 678.03 365.06 678.11 355.7 677.15 346.58 676.81 329.17 677.6 312.44 679.02 296.69 679.99 281.44 679.85 266.81 676.65 252.43 671.1 245.32 666.83 238.23 661.66 231.13 655.63 224 648.76 216.83 641.11 209.59 632.77 202.27 623.83 194.86 614.4 187.34 604.61 179.7 594.58 171.94 584.45 164.05 574.35 156.02 564.43 147.86 554.81 139.57 545.6 131.15 536.92 131.97 527.26 132.5 517.6 132.7 507.94 132.58 498.28 132.13 488.62 131.38 478.96 130.35 469.3 129.1 459.63 127.67 449.97 126.13 440.31 124.54 430.65 122.97 420.99 121.48 411.33 120.14 401.67 119.01 392.01 118.14 382.35 117.55 372.69 117.28 363.03 117.34 353.36 117.73 343.7 118.42 334.04 119.4 324.38 120.61 314.72 122.01 305.06 123.53 295.4 125.12 285.74 126.7 276.08 128.21 266.42 129.58 256.76 130.75 247.1 136.63 231.36 150.77 223.02 159.87 220.92 168.88 218.91 177.77 216.91 186.55 214.83 195.18 212.6 203.68 210.16 220.11 204.19 236.07 197.11 243.76 192.84 251.3 188.14 258.69 183 265.93 177.44 273.05 171.48 280.05 165.17 286.95 158.54 293.77 151.64 300.53 144.54 307.25 137.3 313.96 129.97 320.67 122.62 327.42 115.33 334.23 108.14 341.12 101.11 348.12 94.31 355.26 87.75 362.57 81.5 373.89 72.76 377.74 69.96" stroke-dasharray="7 8" transform="rotate(4.04, 400, 400)" opacity="0.09"></path><path d="M379.37 82.21Q388.23 86.32 397.33 90.75 406.66 95.51 416.23 100.62 426.03 106.08 436.05 111.87 446.27 117.98 456.69 124.39 467.28 131.05 478.02 137.93 488.89 144.98 499.87 152.15 510.93 159.38 522.04 166.6 533.17 173.77 544.29 180.8 555.37 187.66 566.38 194.28 577.28 200.6 588.04 206.59 598.64 212.21 609.04 217.43 619.22 222.22 629.14 226.58 638.79 230.52 648.14 234.03 657.17 237.15 665.87 239.91 682.03 244.41 697.11 248.3 693.34 257.84 688.42 267.38 682.54 276.92 675.94 286.46 668.86 296 661.6 305.54 654.43 315.08 647.63 324.62 641.48 334.16 636.21 343.7 632.03 353.24 629.11 362.78 627.55 372.32 627.43 381.86 628.74 391.4 631.44 400.94 635.41 410.48 640.51 420.02 646.53 429.56 653.24 439.1 660.36 448.64 667.63 458.18 674.76 467.72 681.46 477.26 687.48 486.8 692.58 496.34 696.55 505.88 699.25 515.42 700.56 524.96 700.44 534.5 698.88 544.04 695.96 553.58 685.4 563.13 674.61 572.58 663.6 581.83 652.42 590.76 641.1 599.26 629.67 607.25 618.17 614.64 606.64 621.35 595.1 627.33 583.6 632.54 572.17 636.96 560.83 640.6 549.62 643.47 538.57 645.61 527.7 647.08 517.03 647.94 506.59 648.29 496.38 648.23 486.43 647.88 476.74 647.35 467.33 646.77 458.19 646.27 440.87 646.27 424.36 647.63 409.11 652.23 394.51 659.23 379.71 665.93 363.18 665.91 346.61 664.65 330.68 664.8 315.69 666.06 301.19 667.2 287.29 666.89 273.64 665.05 260.2 659.84 246.76 652.3 240 647.12 233.18 641.16 226.29 634.46 219.32 627.05 212.25 619.03 205.08 610.47 197.79 601.47 190.38 592.14 182.84 582.59 175.17 572.94 167.38 563.31 159.45 553.82 151.4 544.58 143.22 535.69 143.89 526.36 144.24 517.03 144.27 507.7 143.97 498.36 143.36 489.03 142.46 479.7 141.3 470.37 139.94 461.04 138.42 451.71 136.81 442.37 135.16 433.04 133.55 423.71 132.03 414.38 130.67 405.05 129.51 395.71 128.61 386.38 128 377.05 127.7 367.72 127.73 358.38 128.08 349.05 128.75 339.72 129.69 330.39 130.89 321.06 132.28 311.72 133.82 302.39 135.44 293.06 137.09 283.73 138.69 274.4 140.19 265.06 141.52 255.73 147.55 240.7 161.4 233.09 170.27 231.24 179.06 229.38 187.75 227.45 196.33 225.37 213.06 220.39 229.37 214.47 244.92 206.68 260 197.66 267.27 192.43 274.39 186.82 281.36 180.85 288.2 174.57 294.92 168.01 301.53 161.23 308.05 154.27 314.49 147.21 320.87 140.09 327.22 132.97 333.55 125.92 339.89 118.98 346.26 112.21 352.68 105.65 359.18 99.35 365.78 93.32 375.94 84.91 379.37 82.21" stroke-dasharray="5 3" transform="rotate(8.08, 400, 400)" opacity="0.13"></path><path d="M382.45 94.47Q391.47 98.38 400.69 102.6 410.11 107.13 419.72 112 429.51 117.19 439.46 122.7 449.56 128.52 459.79 134.63 470.13 140.99 480.57 147.57 491.07 154.33 501.61 161.22 512.17 168.2 522.72 175.2 533.23 182.18 543.69 189.07 554.05 195.83 564.29 202.39 574.4 208.72 584.33 214.76 594.07 220.48 603.59 225.84 612.87 230.82 621.9 235.4 630.65 239.58 639.11 243.35 654.94 249.55 669.82 254.72 677.82 262.34 673.75 277.1 667.79 286.31 661.3 295.52 654.51 304.73 647.67 313.95 641.01 323.16 634.79 332.37 629.23 341.58 624.52 350.8 620.84 360.01 618.32 369.22 617.05 378.43 617.07 387.65 618.39 396.86 620.96 406.07 624.69 415.28 629.43 424.5 635.03 433.71 641.27 442.92 647.94 452.13 654.79 461.34 661.57 470.56 668.04 479.77 673.98 488.98 679.15 498.19 683.38 507.41 686.52 516.62 688.44 525.83 689.09 535.04 688.44 544.25 686.51 553.47 676.8 562.41 666.84 571.14 656.66 579.55 646.28 587.57 635.73 595.1 625.04 602.08 614.24 608.44 603.36 614.14 592.43 619.15 581.48 623.45 570.54 627.03 559.64 629.91 548.8 632.13 538.06 633.72 527.44 634.75 516.96 635.28 506.64 635.42 496.5 635.24 486.57 634.86 476.84 634.39 467.34 633.93 458.07 633.59 440.38 633.97 423.42 635.68 407.65 640.44 392.56 647.38 377.89 653.83 362.62 653.71 347.76 652.26 333.43 652.14 319.85 653.17 306.61 654.21 293.77 654.16 281.06 652.86 268.37 648.69 255.59 642.47 242.51 632.65 229.17 620.73 222.32 613.63 215.36 605.97 208.28 597.83 201.07 589.29 193.74 580.44 186.29 571.37 178.71 562.21 171 553.03 163.18 543.96 155.25 535.09 155.72 526.08 155.89 517.07 155.73 508.07 155.25 499.06 154.48 490.06 153.43 481.05 152.16 472.05 150.7 463.04 149.1 454.03 147.43 445.03 145.74 436.02 144.09 427.02 142.56 418.01 141.18 409.01 140.01 400 139.09 390.99 138.45 381.99 138.13 372.98 138.12 363.98 138.43 354.97 139.06 345.96 139.96 336.96 141.12 327.95 142.5 318.95 144.03 309.94 145.67 300.93 147.36 291.93 149.03 282.92 150.63 273.92 152.1 264.91 158.27 250.53 171.83 243.46 188.97 239.86 205.88 235.84 222.27 230.58 238.3 224.34 253.63 216.23 268.51 206.95 275.68 201.66 282.7 196.02 289.58 190.06 296.31 183.83 302.9 177.36 309.37 170.71 315.72 163.93 321.96 157.06 328.12 150.16 334.2 143.28 340.22 136.48 346.21 129.81 358.15 117.12 370.16 105.15 379.35 97.06 382.45 94.47" stroke-dasharray="4 10" transform="rotate(12.12, 400, 400)" opacity="0.16"></path><path d="M386.74 106.71Q405.02 114.44 423.9 123.37 443.27 133.53 463.01 144.86 482.95 157.18 502.94 170.24 522.79 183.7 542.31 197.18 561.33 210.28 579.67 222.62 597.19 233.88 613.75 243.79 629.24 252.22 643.62 259.13 656.84 264.62 668.92 268.93 658.92 286.68 646.7 304.43 633.87 322.18 622.1 339.93 612.94 357.68 607.58 375.44 606.72 393.19 610.49 410.94 618.38 428.69 629.36 446.44 642 464.19 654.63 481.94 665.61 499.69 673.5 517.44 677.27 535.19 676.41 552.94 658.4 569.02 639.47 583.56 619.8 596.06 599.57 606.18 578.98 613.73 558.25 618.78 537.58 621.56 517.15 622.52 497.14 622.27 477.69 621.51 458.94 621.02 440.97 621.55 423.83 623.81 407.55 628.34 392.12 635.55 377.5 645.6 363.48 641.53 350.11 639.71 337.29 639.55 324.9 640.32 312.79 641.25 300.84 641.56 288.91 640.52 276.87 637.55 264.61 632.22 252.03 624.3 239.05 613.78 225.63 600.85 211.73 585.91 197.34 569.49 182.48 552.24 167.19 534.87 167.41 517.51 166.41 500.15 164.3 482.79 161.36 465.43 157.99 448.07 154.61 430.71 151.67 413.35 149.56 395.99 148.56 378.63 148.78 361.27 150.22 343.91 152.67 326.55 155.81 309.19 159.24 291.83 162.51 274.47 165.18 257.11 182.01 253.96 198.7 250.43 215.13 246.11 231.23 240.68 246.9 233.9 262.08 225.67 276.7 216 290.75 205.01 304.2 192.94 317.09 180.1 329.46 166.84 341.37 153.55 352.93 140.6 364.26 128.32 381.11 111.84 386.74 106.71" stroke-dasharray="1 8" transform="rotate(16.16, 400, 400)" opacity="0.20"></path><path d="M391.96 118.96Q410 126.29 428.44 134.74 447.16 144.36 466.02 155.08 484.9 166.77 503.62 179.2 522.05 192.1 540.02 205.14 557.39 217.94 574.03 230.18 589.83 241.53 604.71 251.73 618.6 260.6 631.48 268.05 643.34 274.11 654.24 278.9 643.98 295.95 632.17 313.01 620.23 330.06 609.56 347.12 601.46 364.17 596.88 381.23 596.38 398.28 600.01 415.33 607.34 432.39 617.5 449.44 629.26 466.5 641.24 483.55 651.99 500.6 660.23 517.66 664.98 534.71 665.68 551.77 649.27 566.05 631.97 578.63 613.88 589.17 595.16 597.45 575.98 603.43 556.51 607.24 536.91 609.19 517.37 609.7 498.04 609.34 479.06 608.74 460.58 608.56 442.68 609.46 425.45 612 408.94 616.65 393.19 623.72 378.18 633.36 365.73 629.36 353.76 627.41 342.17 627 330.83 627.53 319.61 628.33 308.4 628.71 297.08 628.05 285.55 625.81 273.72 621.56 261.52 615.05 248.9 606.19 235.82 595.05 222.27 581.89 208.27 567.11 193.83 551.21 179 534.76 178.8 518.06 177.43 501.36 175.05 484.66 171.94 467.96 168.49 451.26 165.09 434.56 162.15 417.86 160.04 401.16 158.99 384.46 159.13 367.76 160.46 351.06 162.8 334.36 165.87 317.66 169.33 300.96 172.74 284.26 175.7 267.56 191.94 264.47 208.1 260.76 224.07 256.11 239.78 250.29 255.13 243.14 270.06 234.62 284.5 224.79 298.4 213.81 311.75 201.91 324.54 189.38 336.78 176.55 348.51 163.78 359.81 151.38 370.74 139.63 386.69 123.87 391.96 118.96" stroke-dasharray="7 3" transform="rotate(20.200000000000003, 400, 400)" opacity="0.24"></path><path d="M397.73 131.2Q415.25 138.14 432.96 146.12 450.77 155.19 468.53 165.3 486.14 176.35 503.45 188.14 520.35 200.45 536.7 212.97 552.41 225.42 567.38 237.46 581.54 248.81 594.84 259.21 607.25 268.45 618.76 276.41 629.42 283.05 639.27 288.42 629 304.75 617.75 321.08 606.75 337.42 597.18 353.75 590.09 370.08 586.24 386.41 586.05 402.74 589.54 419.07 596.33 435.4 605.69 451.73 616.6 468.07 627.87 484.4 638.3 500.73 646.73 517.06 652.27 533.39 654.32 549.72 639.46 562.1 623.73 572.73 607.22 581.39 590.05 587.99 572.35 592.59 554.24 595.36 535.88 596.64 517.41 596.83 498.97 596.46 480.69 596.06 462.71 596.21 445.14 597.45 428.05 600.25 411.53 604.98 395.63 611.9 380.38 621.11 369.28 617.2 358.5 615.14 347.91 614.51 337.42 614.79 326.91 615.43 316.28 615.84 305.44 615.47 294.31 613.83 282.83 610.53 270.95 605.28 258.64 597.94 245.87 588.52 232.67 577.15 219.04 564.09 205.02 549.72 190.66 534.5 190.02 518.47 188.3 502.44 185.68 486.42 182.43 470.39 178.93 454.37 175.54 438.34 172.63 422.31 170.51 406.29 169.43 390.26 169.49 374.23 170.68 358.2 172.89 342.18 175.87 326.15 179.29 310.12 182.78 294.1 185.98 278.07 201.61 274.84 217.2 270.82 232.68 265.77 247.95 259.53 262.95 252.03 277.59 243.26 291.82 233.34 305.58 222.42 318.83 210.74 331.54 198.57 343.73 186.21 355.39 173.97 366.55 162.13 377.29 150.94 392.69 135.89 397.73 131.2" stroke-dasharray="4 6" transform="rotate(24.24, 400, 400)" opacity="0.28"></path><path d="M403.66 143.45Q420.38 149.99 437.12 157.51 453.78 166.03 470.26 175.53 486.46 185.92 502.26 197.06 517.56 208.73 532.3 220.7 546.38 232.71 559.74 244.48 572.36 255.73 584.2 266.22 595.26 275.74 605.56 284.15 615.15 291.36 624.09 297.34 614.02 312.92 603.46 328.51 593.45 344.09 584.96 359.67 578.82 375.25 575.64 390.83 575.72 406.41 579.06 421.99 585.34 437.57 593.93 453.15 603.99 468.73 614.55 484.31 624.56 499.9 633.05 515.48 639.18 531.06 642.36 546.64 628.96 557.09 614.76 565.83 599.8 572.75 584.18 577.86 567.98 581.27 551.31 583.2 534.29 583.97 517.04 583.97 499.67 583.66 482.31 583.51 465.07 583.99 448.06 585.54 431.37 588.55 415.07 593.33 399.25 600.08 383.94 608.87 373.96 605.05 364.12 602.91 354.33 602.07 344.48 602.12 334.51 602.58 324.31 602.97 313.84 602.81 303.02 601.66 291.82 599.15 280.21 595.01 268.18 589.07 255.72 581.25 242.85 571.6 229.61 560.3 216.01 547.59 202.13 533.82 201.07 518.48 199.02 503.15 196.18 487.81 192.84 472.48 189.31 457.14 185.95 441.81 183.08 426.47 180.99 411.14 179.87 395.8 179.84 380.47 180.91 365.13 182.96 349.79 185.79 334.46 189.14 319.12 192.66 303.79 196.02 288.45 211.01 284.92 226 280.49 240.93 275 255.73 268.36 270.32 260.53 284.63 251.58 298.6 241.63 312.18 230.83 325.31 219.43 337.97 207.67 350.12 195.82 361.76 184.14 372.9 172.87 383.57 162.23 398.74 147.92 403.66 143.45" stroke-dasharray="0 2" transform="rotate(28.28, 400, 400)" opacity="0.32"></path><path d="M409.34 155.7Q425.01 161.85 440.57 168.9 455.92 176.88 470.98 185.77 485.68 195.5 499.92 205.95 513.64 216.96 526.78 228.34 539.3 239.84 551.17 251.24 562.36 262.29 572.87 272.77 582.73 282.48 591.97 291.24 600.63 298.95 608.78 305.54 599.12 320.34 589.35 335.14 580.35 349.95 572.89 364.75 567.65 379.55 565.08 394.36 565.4 409.16 568.59 423.96 574.36 438.76 582.22 453.57 591.46 468.37 601.28 483.18 610.81 497.98 619.21 512.78 625.74 527.59 629.84 542.39 617.82 550.96 605.05 557.94 591.59 563.3 577.48 567.12 562.79 569.54 547.6 570.82 531.99 571.24 516.07 571.16 499.92 570.98 483.65 571.09 467.36 571.89 451.14 573.73 435.08 576.93 419.26 581.72 403.75 588.26 388.62 596.62 379.49 592.92 370.37 590.71 361.16 589.69 351.79 589.51 342.19 589.8 332.31 590.12 322.1 590.09 311.53 589.32 300.57 587.47 289.2 584.29 277.44 579.58 265.29 573.23 252.77 565.23 239.92 555.65 226.77 544.66 213.38 532.48 211.91 517.86 209.57 503.24 206.57 488.61 203.16 473.99 199.65 459.37 196.34 444.75 193.53 430.12 191.46 415.5 190.32 400.88 190.21 386.26 191.13 371.64 193.01 357.02 195.67 342.39 198.89 327.77 202.39 313.15 205.84 298.53 220.15 294.58 234.5 289.69 248.83 283.75 263.1 276.73 277.22 268.64 291.14 259.57 304.8 249.66 318.15 239.06 331.12 228 343.68 216.69 355.79 205.37 367.44 194.27 378.6 183.59 389.3 173.51 404.44 159.94 409.34 155.7" stroke-dasharray="11 9" transform="rotate(32.32, 400, 400)" opacity="0.35"></path><path d="M414.37 167.95Q428.81 173.72 443.02 180.31 456.95 187.75 470.52 196.02 483.68 205.09 496.37 214.85 508.55 225.18 520.19 235.9 531.25 246.84 541.73 257.79 551.63 268.55 560.97 278.9 569.77 288.65 578.08 297.66 585.95 305.77 593.44 312.91 584.33 326.91 575.43 340.91 567.45 354.91 560.99 368.91 556.58 382.91 554.56 396.91 555.08 410.91 558.11 424.91 563.41 438.91 570.56 452.91 579 466.91 588.07 480.91 597.06 494.91 605.25 508.91 612.01 522.91 616.81 536.91 606.05 543.71 594.64 549.1 582.6 553.1 569.95 555.84 556.74 557.49 543.03 558.27 528.87 558.48 514.34 558.42 499.52 558.41 484.48 558.8 469.3 559.9 454.06 562 438.86 565.35 423.75 570.12 408.81 576.45 394.1 584.36 385.59 580.79 376.95 578.53 368.14 577.35 359.09 576.97 349.76 577.07 340.1 577.3 330.09 577.33 319.72 576.84 308.97 575.53 297.85 573.15 286.36 569.51 274.53 564.47 262.38 557.99 249.95 550.07 237.27 540.78 224.39 530.29 222.55 516.4 219.97 502.52 216.83 488.63 213.4 474.75 209.93 460.86 206.7 446.98 203.97 433.09 201.94 419.21 200.78 405.32 200.58 391.44 201.35 377.56 203.04 363.67 205.51 349.79 208.56 335.9 211.97 322.02 215.45 308.13 229.03 303.7 242.69 298.33 256.39 291.96 270.06 284.62 283.66 276.35 297.12 267.25 310.4 257.45 323.43 247.12 336.18 236.45 348.58 225.64 360.62 214.88 372.24 204.38 383.44 194.3 394.19 184.8 409.44 171.97 414.37 167.95" stroke-dasharray="4 5" transform="rotate(36.36, 400, 400)" opacity="0.39"></path><path d="M418.4 180.2Q431.47 185.58 444.25 191.71 456.7 198.62 468.77 206.29 480.42 214.69 491.62 223.75 502.34 233.37 512.57 243.41 522.3 253.73 531.54 264.15 540.3 274.51 548.61 284.61 556.5 294.3 564.01 303.41 571.2 311.81 578.13 319.39 569.72 332.57 561.74 345.74 554.76 358.91 549.25 372.09 545.6 385.26 544.08 398.44 544.77 411.61 547.63 424.78 552.48 437.96 558.95 451.13 566.62 464.31 574.94 477.48 583.33 490.66 591.21 503.83 598.03 517.01 603.32 530.18 593.73 535.39 583.57 539.39 572.85 542.26 561.59 544.13 549.8 545.19 537.53 545.66 524.82 545.77 511.72 545.79 498.28 546.01 484.55 546.68 470.62 548.06 456.53 550.39 442.36 553.84 428.17 558.56 414.02 564.64 399.98 572.12 383.43 566.88 366.14 564.51 356.98 564.42 347.49 564.53 337.66 564.58 327.47 564.28 316.93 563.37 306.06 561.65 294.87 558.91 283.39 555.03 271.64 549.91 259.65 543.52 247.47 535.88 235.13 527.08 232.98 513.95 230.19 500.83 226.98 487.71 223.55 474.58 220.16 461.46 217.03 448.34 214.39 435.21 212.41 422.09 211.24 408.97 210.96 395.84 211.59 382.72 213.07 369.6 215.32 356.48 218.17 343.35 221.42 330.23 224.86 317.11 237.68 312.17 250.61 306.33 263.61 299.61 276.64 292.02 289.64 283.65 302.57 274.6 315.38 265.01 328.02 255.02 340.46 244.79 352.63 234.52 364.51 224.35 376.05 214.46 387.24 204.99 398.03 196.06 413.41 183.99 418.4 180.2" stroke-dasharray="1 8" transform="rotate(40.400000000000006, 400, 400)" opacity="0.43"></path><path d="M421.14 192.44Q432.78 197.45 444.11 203.13 455.09 209.51 465.69 216.58 475.9 224.32 485.7 232.67 495.08 241.57 504.04 250.9 512.58 260.54 520.73 270.37 528.5 280.23 535.92 289.98 543.03 299.46 549.87 308.53 556.49 317.07 562.95 324.96 555.32 337.29 548.29 349.62 542.28 361.95 537.67 374.28 534.72 386.61 533.63 398.94 534.46 411.27 537.16 423.6 541.56 435.93 547.4 448.26 554.32 460.59 561.89 472.92 569.65 485.25 577.12 497.58 582.37 517.98 571.88 528.9 562.39 530.86 552.42 532.08 541.98 532.73 531.1 533.01 519.8 533.13 508.11 533.31 496.06 533.76 483.71 534.71 471.1 536.35 458.27 538.86 445.28 542.38 432.19 547.02 419.03 552.84 405.86 559.87 389.71 554.71 372.71 552.11 363.68 551.84 354.33 551.83 344.66 551.84 334.67 551.65 324.37 551.04 313.78 549.83 302.92 547.84 291.82 544.93 280.51 541.01 269.01 536 257.36 529.9 245.6 522.73 243.18 510.39 240.25 498.05 237.01 485.71 233.63 473.37 230.35 461.04 227.34 448.7 224.8 436.36 222.89 424.02 221.72 411.69 221.36 399.35 221.83 387.01 223.11 374.67 225.12 362.34 227.73 350 230.78 337.66 234.09 325.33 246.13 319.9 258.29 313.67 270.54 306.66 282.85 298.93 295.19 290.57 307.51 281.66 319.77 272.35 331.94 262.76 343.96 253.04 355.81 243.34 367.43 233.79 378.8 224.53 389.89 215.68 400.65 207.33 416.11 196 421.14 192.44" stroke-dasharray="6 3" transform="rotate(44.44, 400, 400)" opacity="0.47"></path><path d="M422.42 204.69Q432.63 209.33 442.52 214.56 452.09 220.41 461.32 226.89 470.2 233.98 478.72 241.63 486.89 249.79 494.73 258.38 502.24 267.31 509.44 276.48 516.36 285.76 523.02 295.04 529.48 304.18 535.75 313.07 541.89 321.59 547.95 329.63 541.19 341.1 535.11 352.57 530.03 364.04 526.24 375.51 523.93 386.98 523.22 398.45 524.16 409.92 526.68 421.39 530.67 432.87 535.9 444.34 542.1 455.81 548.93 467.28 556.03 478.75 563.02 490.22 568.58 508.77 559.65 517.76 551.27 519.03 542.49 519.8 533.31 520.2 523.73 520.42 513.78 520.63 503.45 520.99 492.79 521.7 481.82 522.91 470.56 524.77 459.06 527.43 447.34 530.97 435.46 535.5 423.44 541.04 411.34 547.63 395.39 542.59 378.59 539.8 369.68 539.36 360.47 539.2 350.99 539.14 341.22 538.99 331.21 538.59 320.95 537.76 310.47 536.36 299.81 534.26 288.98 531.34 278.01 527.55 266.94 522.83 255.79 517.17 253.17 505.64 250.16 494.11 246.93 482.58 243.64 471.05 240.49 459.51 237.62 447.98 235.21 436.45 233.36 424.92 232.2 413.39 231.76 401.86 232.09 390.33 233.16 378.8 234.91 367.27 237.26 355.74 240.07 344.22 243.19 332.69 254.4 326.84 265.75 320.31 277.21 313.13 288.76 305.37 300.36 297.1 312 288.45 323.62 279.5 335.21 270.38 346.72 261.21 358.13 252.11 369.39 243.2 380.47 234.58 391.34 226.35 401.97 218.59 417.38 208.02 422.42 204.69" stroke-dasharray="1 3" transform="rotate(48.48, 400, 400)" opacity="0.51"></path><path d="M422.13 216.94Q430.96 221.2 439.52 226 447.78 231.34 455.75 237.23 463.43 243.67 470.83 250.62 477.95 258.04 484.81 265.88 491.43 274.07 497.83 282.52 504.03 291.15 510.07 299.86 515.97 308.54 521.77 317.1 527.5 325.44 533.22 333.45 527.35 344.05 522.2 354.65 518.01 365.26 514.97 375.86 513.22 386.46 512.85 397.07 513.86 407.67 516.21 418.27 519.8 428.88 524.45 439.48 529.96 450.09 536.07 460.69 542.5 471.29 548.95 481.9 547.07 502.8 531.88 507.39 515.31 508 497.75 508.89 488.41 509.84 478.78 511.28 468.87 513.33 458.7 516.09 448.31 519.63 437.71 524 426.94 529.25 416.03 535.38 400.2 530.49 383.59 527.57 374.82 526.97 365.81 526.66 356.56 526.51 347.08 526.36 337.4 526.07 327.53 525.51 317.5 524.55 307.32 523.08 297.03 521 286.64 518.22 276.19 514.7 265.69 510.39 262.94 499.69 259.91 488.98 256.74 478.28 253.59 467.57 250.59 456.87 247.88 446.16 245.6 435.46 243.84 424.75 242.69 414.05 242.19 403.35 242.38 392.64 243.23 381.94 244.72 371.24 246.78 360.53 249.31 349.83 252.19 339.12 262.55 332.97 273.05 326.25 283.68 319.02 294.41 311.34 305.22 303.29 316.09 294.97 327 286.47 337.92 277.88 348.82 269.3 359.66 260.84 370.44 252.59 381.1 244.62 391.63 237.02 401.99 229.84 417.15 220.03 422.13 216.94" stroke-dasharray="3 6" transform="rotate(52.52, 400, 400)" opacity="0.54"></path><path d="M420.3 229.18Q435.08 237.69 449.16 247.61 455.79 253.41 462.22 259.66 468.44 266.35 474.47 273.43 480.34 280.85 486.07 288.55 491.67 296.46 497.18 304.52 502.61 312.63 508.01 320.72 513.39 328.71 518.8 336.51 513.83 346.25 509.58 355.98 506.21 365.71 503.85 375.44 502.6 385.18 502.5 394.91 503.56 404.64 505.73 414.37 508.94 424.11 513.05 433.84 517.91 443.57 523.32 453.3 529.07 463.04 534.93 472.77 533.89 491.27 520.67 494.98 506.26 495.74 491.02 497 474.44 500.11 457.11 504.84 448.02 508.33 438.73 512.53 429.25 517.46 419.6 523.13 403.93 518.43 387.58 515.41 379.02 514.68 370.26 514.23 361.32 513.96 352.2 513.76 342.93 513.52 333.52 513.13 323.99 512.48 314.37 511.49 304.67 510.05 294.91 508.1 285.12 505.58 275.32 502.43 272.5 492.57 269.51 482.71 266.46 472.84 263.47 462.98 260.65 453.12 258.13 443.25 255.99 433.39 254.32 423.53 253.18 413.66 252.63 403.8 252.68 393.94 253.34 384.07 254.56 374.21 256.32 364.35 258.53 354.48 261.12 344.62 270.61 338.29 280.24 331.52 289.99 324.37 299.86 316.9 309.83 309.17 319.88 301.28 330 293.29 340.16 285.29 350.34 277.35 360.52 269.55 370.68 261.97 380.79 254.66 390.83 247.68 400.78 241.09 415.46 232.05 420.3 229.18" stroke-dasharray="1 2" transform="rotate(56.56, 400, 400)" opacity="0.58"></path><path d="M417.06 241.44Q429.76 248.92 441.74 258.03 453.09 268.78 463.91 281.06 474.32 294.62 484.48 309.09 494.56 324.04 504.74 338.96 497.26 356.68 492.88 374.41 492.18 392.13 495.26 409.85 501.7 427.57 510.67 445.3 520.99 463.02 531.31 480.74 520.5 481.92 508.95 482.66 496.59 483.58 483.34 485.35 469.21 488.56 454.21 493.68 438.38 501.07 421.8 510.88 406.51 506.15 390.48 503.34 373.79 501.91 356.57 501.24 338.91 500.69 320.96 499.57 302.83 497.29 284.68 493.37 278.98 475.35 273.29 457.33 268.35 439.31 264.79 421.28 263.1 403.26 263.48 385.24 265.89 367.22 270.02 349.2 287.37 336.17 305.2 322.09 323.46 307.41 342.04 292.63 360.83 278.25 379.69 264.7 398.48 252.34 417.06 241.44 417.06 241.44 417.06 241.44" stroke-dasharray="7 8" transform="rotate(60.599999999999994, 400, 400)" opacity="0.62"></path><path d="M412.63 253.68Q423.45 260.4 433.78 268.49 443.71 277.96 453.33 288.77 462.75 300.75 472.1 313.66 481.51 327.17 491.11 340.93 485.24 356.93 482.05 372.92 481.9 388.91 484.78 404.91 490.41 420.9 498.15 436.89 507.06 461.31 496.85 470.55 486.17 471.81 474.83 473.98 462.79 477.47 450.04 482.62 436.6 489.64 422.49 498.63 407.65 494.2 392.26 491.35 376.42 489.72 360.21 488.85 343.74 488.26 327.12 487.45 310.43 485.96 293.79 483.36 288.34 467.05 283.07 450.74 278.55 434.44 275.27 418.13 273.58 401.82 273.67 385.51 275.53 369.2 278.96 352.89 294.51 340.25 310.51 326.96 326.93 313.39 343.71 299.92 360.76 286.93 378 274.73 395.33 263.58 412.63 253.68 412.63 253.68 412.63 253.68" stroke-dasharray="8 2" transform="rotate(64.64, 400, 400)" opacity="0.66"></path><path d="M407.32 265.93Q416.58 271.9 425.55 278.99 434.31 287.24 442.93 296.62 451.51 307.02 460.14 318.3 468.91 330.25 477.92 342.61 473.52 356.9 471.36 371.18 471.63 385.46 474.31 399.75 479.16 414.03 485.75 428.31 493.4 450.14 484.49 458.74 475.27 460.36 465.6 462.88 455.42 466.57 444.7 471.63 433.43 478.22 421.61 486.39 407.47 482.28 392.97 479.45 378.18 477.66 363.19 476.59 348.06 475.89 332.89 475.22 317.74 474.22 302.69 472.56 297.6 457.97 292.81 443.38 288.74 428.78 285.74 414.19 284.09 399.6 283.92 385 285.26 370.41 287.97 355.82 301.72 343.87 315.88 331.6 330.42 319.28 345.31 307.2 360.51 295.62 375.96 284.77 391.58 274.83 407.32 265.93 407.32 265.93 407.32 265.93" stroke-dasharray="2 4" transform="rotate(68.68, 400, 400)" opacity="0.70"></path><path d="M401.5 278.18Q409.49 283.4 417.34 289.54 425.13 296.61 432.91 304.6 440.73 313.47 448.68 323.11 456.82 333.41 465.21 344.21 462.1 356.8 460.8 369.4 461.39 382 463.83 394.6 467.96 407.2 473.48 419.8 479.82 439.18 471.97 447.32 464.06 449.29 455.83 452.07 447.27 455.85 438.32 460.74 428.98 466.82 419.23 474.14 406.06 470.38 392.69 467.64 379.17 465.75 365.57 464.5 351.94 463.66 338.34 462.99 324.8 462.25 311.4 461.19 306.77 448.3 302.51 435.42 298.91 422.53 296.22 409.64 294.62 396.76 294.24 383.87 295.09 370.99 297.11 358.11 309.08 347.13 321.39 336.06 334.04 325.11 347.01 314.47 360.27 304.32 373.8 294.82 394.53 282.12 401.5 278.18" stroke-dasharray="7 5" transform="rotate(72.72, 400, 400)" opacity="0.73"></path><path d="M395.58 290.42Q402.52 294.93 409.45 300.14 416.4 306.09 423.42 312.76 430.54 320.14 437.81 328.17 445.28 336.8 452.97 345.92 450.97 356.86 450.36 367.8 451.17 378.74 453.36 389.68 456.81 400.63 461.33 411.57 459.52 433.61 445.7 441.56 438.53 445.3 431.13 449.92 423.46 455.44 415.51 461.89 403.58 458.51 391.58 455.91 379.53 453.98 367.48 452.6 355.46 451.61 343.52 450.87 331.67 450.2 319.96 449.46 315.89 438.26 312.19 427.07 309.07 415.88 306.69 404.69 305.18 393.49 304.63 382.3 305.05 371.11 306.43 359.92 316.64 350.15 327.14 340.45 337.91 330.95 348.95 321.79 360.25 313.07 371.81 304.88 389.58 293.87 395.58 290.42" stroke-dasharray="3 4" transform="rotate(76.76, 400, 400)" opacity="0.77"></path><path d="M389.96 302.67Q402.18 311.08 414.61 321.11 421.02 327.07 427.57 333.56 434.3 340.54 441.23 347.95 440.12 357.27 440.04 366.59 440.97 375.9 442.88 385.22 445.7 394.53 449.32 403.85 447.2 423.47 435.4 431.35 423.28 439.51 410.71 449.65 400.27 446.67 389.83 444.27 379.41 442.37 369.04 440.91 358.74 439.8 348.52 438.94 331.69 433.17 321.85 418.57 319.22 409.05 317.17 399.53 315.78 390.01 315.1 380.49 315.16 370.97 315.96 361.45 324.48 353.07 333.2 344.84 342.14 336.85 351.29 329.16 360.65 321.85 370.23 314.97 384.98 305.62 389.96 302.67" stroke-dasharray="2 9" transform="rotate(80.80000000000001, 400, 400)" opacity="0.81"></path><path d="M385.04 314.92Q395.65 321.53 406.6 329.66 418.01 339.35 429.96 350.51 429.82 365.94 432.41 381.38 437.44 396.81 444.38 412.24 434.78 416.09 425.12 421.44 415.28 428.51 405.16 437.39 387.68 432.7 370.41 429.46 353.43 427.32 336.84 425.87 331.51 410.13 327.64 394.39 325.66 378.64 325.77 362.9 339.67 349.32 354.17 336.62 369.3 325.08 385.04 314.92 385.04 314.92 385.04 314.92" stroke-dasharray="3 4" transform="rotate(84.84, 400, 400)" opacity="0.85"></path><path d="M381.16 327.17Q390.17 332.32 399.47 338.45 409.12 345.6 419.16 353.76 419.7 366.05 421.93 378.34 424.29 398.74 415.05 411.82 407.19 417.91 399.25 425.15 385.38 421.23 371.73 418.26 358.35 416.08 345.25 414.49 341.17 401.99 338.12 389.49 336.31 376.99 335.88 364.48 346.6 353.99 357.72 344.2 375.2 331.2 381.16 327.17" stroke-dasharray="7 9" transform="rotate(88.88, 400, 400)" opacity="0.89"></path><path d="M378.6 339.41Q385.83 343.17 393.27 347.48 405.29 359.71 411.46 376.22 412.73 391.83 405.36 402.5 391.29 408.61 373.2 407.32 357.1 399.82 348.59 385.03 347.07 375.72 346.33 366.41 354.07 358.94 362.02 351.91 374.4 342.41 378.6 339.41" stroke-dasharray="8 10" transform="rotate(92.92, 400, 400)" opacity="0.92"></path><path d="M377.52 351.66Q387.98 356.77 398.86 362.91 400.98 375.13 404.57 387.37 396.22 393.46 388 400.65 374.96 396.66 362.3 393.58 359.07 381.22 357.16 368.88 372.34 355.73 377.52 351.66" stroke-dasharray="9 9" transform="rotate(96.96, 400, 400)" opacity="0.96"></path></g></svg>