<svg xmlns="http://www.w3.org/2000/svg" version="1.1" xmlns:xlink="http://www.w3.org/1999/xlink" xmlns:svgjs="http://svgjs.dev/svgjs" viewBox="0 0 800 800"><defs><linearGradient x1="50%" y1="0%" x2="50%" y2="100%" id="ccchaos-grad"><stop stop-color="hsl(161, 100%, 42%)" stop-opacity="1" offset="0%"></stop><stop stop-color="hsl(161, 10%, 40%)" stop-opacity="1" offset="100%"></stop></linearGradient></defs><g stroke-width="2" stroke="url(#ccchaos-grad)" fill="none" stroke-linecap="round"><path d="M394.07 101.66C404.55 98.31 415.29 94.94 426.28 91.91 437.31 89 448.63 87.13 460.23 86.56 471.91 86.97 483.88 88.99 496.11 92.58 508.4 97.25 520.9 103.27 533.49 110.38 545.99 117.98 558.4 126.15 570.51 134.6 582.19 142.77 593.24 150.79 603.36 158.48 612.58 165.42 620.49 171.89 626.82 177.91 633.58 185.59 636.84 199.11 634.34 205.74 631.26 212.45 629.32 228.5 633.83 238.14 640.27 245.01 649.15 252.51 660.3 260.56 673.48 268.85 687.77 277.64 702.24 286.83 716.07 296.19 727.96 305.87 736.84 315.78 742.33 325.78 743.52 335.94 740.22 346.17 733.4 356.43 723.16 366.73 710.6 376.99 697.74 387.26 685.62 397.24 675.46 406.94 668.54 416.66 664.96 426.13 664.78 435.39 668.17 444.73 673.94 453.96 681.16 463.14 689.45 472.55 697.1 482.06 703.15 491.78 707.5 501.88 708.93 512.36 707.2 523.28 702.76 534.71 695.28 546.68 685.24 559.17 673.34 572.1 659.91 585.42 645.61 598.97 631.02 612.51 616.58 625.85 602.71 638.62 589.7 650.6 577.71 661.38 566.82 670.53 557.11 678.08 548.4 683.48 540.5 686.54 533.54 687.75 527.05 686.72 520.78 683.69 515.02 679.72 509.15 674.72 503 669.35 497.01 664.96 490.54 661.6 483.51 659.96 476.46 661.03 468.78 664.59 460.47 670.72 452.1 679.54 443.11 690.19 433.52 701.87 423.89 714 413.71 725.16 403 734.26 392.29 740.8 381.35 743.59 370.25 742.45 359.19 737.99 347.99 730.12 336.74 719.6 325.56 707.57 314.36 694.61 303.23 681.66 292.23 669.77 281.37 659.32 270.74 650.75 260.35 644.63 250.29 640.63 240.67 638.54 231.4 638.53 222.67 639.67 214.57 641.4 206.87 643.85 199.85 645.89 193.53 647.06 184.88 647.22 170.64 637.86 164.52 628.19 160.26 620.13 156.06 610.77 151.82 600.39 147.03 589.32 142.08 577.59 136.97 565.45 131.3 553.02 125.58 540.46 119.91 527.92 114.05 515.36 108.54 502.95 103.57 490.77 98.91 478.67 95.09 466.82 92.26 455.26 90.03 443.77 88.88 432.53 88.8 421.56 89.19 410.62 90.43 399.91 92.39 389.44 94.3 378.98 96.5 368.99 98.82 359.47 100.6 349.94 102.32 340.87 103.94 332.27 104.98 323.65 106.05 315.49 107.25 307.79 108.23 300.02 109.67 292.67 111.69 285.69 113.99 278.57 117.15 271.72 121.23 265.09 125.89 258.16 131.54 251.29 138.09 244.4 145.16 237.03 152.98 229.48 161.4 221.7 170.03 213.31 179.01 204.62 188.2 195.64 197.23 186.16 206.28 176.49 215.27 166.79 223.89 156.96 232.39 147.4 240.78 138.36 248.75 129.76 256.66 122.08 264.57 115.54 272.15 109.93 279.82 105.68 287.65 102.89 295.27 101.03 303.14 100.46 311.3 101 319.35 101.87 327.76 103.3 336.55 104.98 345.28 106.05 354.43 106.77 364.02 106.93 373.57 105.86 383.58 104.07 394.06 101.66" stroke-dasharray="6 10" transform="rotate(0, 400, 400)" opacity="0.36"></path><path d="M401.73 112.96C412.02 109.64 422.58 106.3 433.37 103.26 444.19 100.3 455.28 98.3 466.6 97.49 477.95 97.59 489.52 99.21 501.24 102.34 512.92 106.53 524.67 112.06 536.32 118.71 547.77 125.95 558.93 133.86 569.59 142.16 579.73 150.34 589.06 158.5 597.34 166.45 604.74 173.77 610.81 180.69 615.38 187.2 619.92 195.64 620.8 210.28 618.45 217.12 616.54 223.71 618.73 238.65 625.51 247.37 633.18 253.49 642.96 260.18 654.6 267.41 667.79 274.8 681.67 282.7 695.34 291.04 708.11 299.5 718.83 308.34 726.57 317.49 731.11 326.7 731.65 336.15 728.08 345.77 721.34 355.42 711.51 365.2 699.56 375.06 687.34 384.93 675.73 394.66 665.82 404.23 658.81 413.82 654.78 423.31 653.85 432.73 656.27 442.24 661.01 451.77 667.28 461.37 674.85 471.19 682.15 481.21 688.3 491.5 693.23 502.12 695.7 513.12 695.41 524.54 692.71 536.33 687.15 548.55 679.04 561.11 669 573.9 657.19 586.84 644.19 599.74 630.54 612.39 616.61 624.56 602.86 635.92 589.56 646.33 576.96 655.38 565.21 662.74 554.41 668.54 544.5 672.31 535.41 673.93 527.2 674.01 519.56 672.19 512.32 668.75 505.64 664.77 499.06 660.13 492.42 655.43 486.03 651.9 479.36 649.55 472.32 648.9 465.33 650.83 457.86 655.05 449.87 661.57 441.86 670.47 433.3 680.91 424.21 692.17 415.09 703.73 405.44 714.33 395.31 722.96 385.17 729.25 374.81 732.08 364.31 731.26 353.84 727.39 343.26 720.3 332.66 710.62 322.14 699.41 311.64 687.1 301.26 674.56 291.03 662.75 280.99 652.04 271.24 642.89 261.74 635.86 252.61 630.76 243.96 627.46 235.64 626.2 227.86 626.2 220.7 627.01 210.78 629.63 194.36 632.61 187.61 631.06 183.23 628.69 179.13 624.8 175.21 619.45 170.92 613.1 166.61 605.45 162.21 596.71 157.24 587.22 152.09 576.94 146.78 566.07 140.97 554.82 135.13 543.25 129.4 531.53 123.54 519.69 118.08 507.86 113.2 496.15 108.68 484.44 105.01 472.92 102.35 461.63 100.31 450.37 99.34 439.36 99.42 428.61 99.97 417.88 101.35 407.4 103.43 397.2 105.46 386.99 107.76 377.27 110.15 368.03 112.02 358.77 113.79 349.97 115.43 341.62 116.47 333.23 117.49 325.25 118.59 317.68 119.42 310 120.62 302.66 122.34 295.61 124.27 288.36 126.99 281.3 130.58 274.35 134.71 267.07 139.79 259.76 145.78 252.37 152.33 244.5 159.67 236.44 167.67 228.13 175.98 219.31 184.73 210.24 193.78 200.96 202.8 191.32 211.93 181.64 221.08 172.05 229.95 162.49 238.75 153.36 247.45 144.85 255.79 136.9 264.06 129.92 272.29 124.12 280.18 119.23 288.11 115.67 296.14 113.47 303.92 112.11 311.89 111.91 320.09 112.68 328.14 113.68 336.5 115.12 345.2 116.74 353.81 117.7 362.81 118.3 372.22 118.34 381.6 117.2 391.43 115.37 401.72 112.96" stroke-dasharray="11 5" transform="rotate(3.7407407407407405, 400, 400)" opacity="0.50"></path><path d="M409.19 124.25C419.28 120.98 429.58 117.67 440.07 114.63 450.58 111.64 461.29 109.52 472.14 108.51 482.98 108.31 493.93 109.54 504.88 112.21 515.74 115.9 526.5 120.92 536.99 127.09 547.21 133.9 556.97 141.47 566.07 149.54 574.62 157.63 582.27 165.82 588.82 173.93 594.58 181.54 599.07 188.85 602.21 195.8 605.13 205 604.9 220.98 603.27 228.24 602.88 235 609.3 249.45 618.1 257.56 626.78 263.15 637.22 269.23 649.11 275.8 662.12 282.46 675.42 289.61 688.2 297.21 699.89 304.9 709.45 313 716.1 321.45 719.75 329.94 719.71 338.75 715.92 347.82 709.29 356.9 699.87 366.21 688.52 375.73 676.93 385.24 665.82 394.73 656.2 404.2 649.13 413.7 644.73 423.21 643.13 432.77 644.63 442.42 648.37 452.19 653.69 462.13 660.45 472.25 667.26 482.63 673.32 493.29 678.59 504.21 681.85 515.48 682.75 527.08 681.6 538.91 677.81 551.02 671.56 563.29 663.41 575.57 653.36 587.79 641.88 599.72 629.48 611.21 616.45 622 603.22 631.79 590.09 640.55 577.33 647.88 565.13 653.52 553.6 657.73 542.81 660.06 532.75 660.49 523.45 659.7 514.76 657.35 506.55 653.75 498.91 649.95 491.52 645.81 484.23 641.88 477.27 639.26 470.2 637.88 462.94 638.19 455.79 640.89 448.32 645.69 440.46 652.51 432.63 661.42 424.36 671.62 415.65 682.44 406.93 693.44 397.76 703.48 388.16 711.66 378.57 717.7 368.81 720.55 358.94 720.04 349.11 716.72 339.22 710.36 329.34 701.52 319.56 691.12 309.85 679.52 300.3 667.47 290.92 655.86 281.78 645.04 272.96 635.47 264.38 627.7 256.21 621.62 248.52 617.21 241.12 614.74 234.24 613.57 227.95 613.35 219.15 614.83 204.39 617.52 198.11 616.88 193.88 615.5 189.83 612.83 185.86 608.86 181.46 604.04 176.98 597.98 172.36 590.8 167.17 582.92 161.81 574.14 156.31 564.66 150.38 554.74 144.46 544.35 138.7 533.66 132.88 522.77 127.51 511.74 122.76 500.71 118.41 489.62 114.93 478.62 112.47 467.76 110.62 456.92 109.83 446.25 110.07 435.81 110.77 425.39 112.29 415.19 114.47 405.24 116.6 395.29 118.99 385.8 121.46 376.78 123.4 367.72 125.24 359.09 126.92 350.87 127.98 342.59 128.99 334.66 130.02 327.07 130.73 319.35 131.74 311.88 133.19 304.62 134.78 297.13 137.09 289.74 140.19 282.39 143.77 274.7 148.28 266.93 153.68 259.03 159.63 250.71 166.41 242.19 173.9 233.46 181.77 224.32 190.17 215.01 198.95 205.6 207.82 195.98 216.89 186.43 226.06 177.12 235.07 167.99 244.07 159.4 253.01 151.53 261.67 144.29 270.26 138.07 278.8 133.02 287.04 128.85 295.27 125.95 303.55 124.31 311.59 123.4 319.75 123.51 328.08 124.48 336.25 125.55 344.66 126.99 353.34 128.51 361.94 129.36 370.87 129.82 380.17 129.74 389.42 128.53 399.09 126.67 409.18 124.25" stroke-dasharray="8 7" transform="rotate(7.481481481481481, 400, 400)" opacity="0.71"></path><path d="M415.57 135.55C425.42 132.32 435.4 129.06 445.48 126.04 455.58 123.03 465.76 120.81 475.98 119.6 486.16 119.13 496.31 119.99 506.33 122.21 516.21 125.4 525.83 129.89 535.05 135.54 543.95 141.87 552.26 149.03 559.83 156.78 566.88 164.68 572.98 172.8 578.02 180.95 582.41 188.76 585.67 196.36 587.77 203.68 589.36 210.4 590 216.78 589.85 222.87 589.56 231.01 590.44 245.99 593.71 253.33 598.03 258.05 603.94 263.04 611.53 268.36 620.97 273.62 631.83 279.3 643.75 285.4 656.39 291.53 668.99 298.1 680.81 305.12 691.39 312.17 699.81 319.65 705.43 327.51 708.27 335.4 707.71 343.65 703.74 352.23 697.25 360.81 688.24 369.71 677.48 378.9 666.5 388.1 655.9 397.38 646.58 406.74 639.51 416.12 634.79 425.63 632.59 435.26 633.25 444.98 636.02 454.89 640.39 465.01 646.3 475.27 652.51 485.8 658.31 496.6 663.7 507.56 667.5 518.8 669.34 530.26 669.49 541.8 667.27 553.46 662.77 565.1 656.47 576.57 648.22 587.78 638.4 598.49 627.49 608.62 615.66 617.9 603.33 626.06 590.79 633.18 578.28 638.87 566.05 642.93 554.21 645.74 542.91 646.88 532.19 646.38 522.07 644.97 512.52 642.34 503.46 638.81 494.93 635.36 486.74 631.85 478.78 628.75 471.16 627.05 463.58 626.61 455.97 627.8 448.52 631.21 440.9 636.49 433.04 643.54 425.23 652.41 417.12 662.32 408.7 672.68 400.27 683.13 391.5 692.62 382.41 700.37 373.31 706.15 364.13 709 354.91 708.78 345.72 705.96 336.53 700.31 327.43 692.29 318.41 682.71 309.52 671.84 300.85 660.36 292.33 649.07 284.09 638.28 276.21 628.43 268.52 620.08 261.26 613.19 254.47 607.79 244.86 603.01 228.39 600.67 221.43 601.31 214.83 602.29 202.54 600.43 196.36 596.65 191.78 593.12 187.07 588.44 182.2 582.7 176.79 576.31 171.23 569.01 165.56 560.93 159.53 552.4 153.57 543.29 147.82 533.75 142.09 523.96 136.85 513.91 132.27 503.73 128.12 493.44 124.86 483.11 122.6 472.84 120.96 462.55 120.36 452.35 120.76 442.32 121.61 432.28 123.23 422.41 125.51 412.74 127.74 403.06 130.2 393.8 132.73 384.93 134.76 376.04 136.66 367.51 138.39 359.32 139.51 351.07 140.52 343.1 141.52 335.38 142.15 327.52 143.01 319.84 144.23 312.28 145.52 304.49 147.44 296.74 150.08 288.96 153.14 280.87 157.06 272.67 161.84 264.34 167.17 255.65 173.32 246.79 180.22 237.77 187.55 228.47 195.47 219.09 203.85 209.71 212.43 200.28 221.29 191.04 230.34 182.16 239.34 173.59 248.4 165.64 257.47 158.49 266.34 152.02 275.17 146.57 283.95 142.28 292.5 138.81 301.02 136.52 309.55 135.4 317.87 134.88 326.26 135.26 334.74 136.37 343.09 137.49 351.6 138.87 360.32 140.29 368.96 141.01 377.86 141.33 387.06 141.13 396.22 139.85 405.72 137.96 415.56 135.55" stroke-dasharray="4 4" transform="rotate(11.222222222222221, 400, 400)" opacity="0.73"></path><path d="M420.13 146.84C429.68 143.68 439.27 140.47 448.86 137.47 458.44 134.45 468 132.15 477.46 130.78 486.87 130.05 496.12 130.56 505.11 132.35 513.93 135.04 522.37 139 530.3 144.09 537.91 149.91 544.86 156.59 551.03 163.94 556.75 171.55 561.56 179.49 565.39 187.58 568.74 195.46 571.14 203.25 572.62 210.84 573.85 217.94 574.41 224.76 574.51 231.31 575.14 240.18 579.37 256.38 584.66 264.1 590.23 268.98 597.23 274.03 605.68 279.31 615.64 284.45 626.68 289.93 638.41 295.75 650.53 301.54 662.32 307.73 673.12 314.32 682.59 320.91 689.92 327.91 694.58 335.31 696.67 342.71 695.65 350.5 691.55 358.67 685.22 366.84 676.63 375.37 666.44 384.27 656.06 393.17 645.97 402.23 636.96 411.45 629.93 420.69 624.97 430.12 622.24 439.73 622.12 449.4 623.99 459.3 627.42 469.42 632.45 479.63 637.96 490.08 643.36 500.74 648.66 511.48 652.78 522.39 655.31 533.39 656.5 544.35 655.64 555.26 652.7 565.98 648.13 576.41 641.65 586.39 633.55 595.72 624.27 604.39 613.87 612.11 602.72 618.66 591.12 624.23 579.26 628.41 567.4 631.1 555.68 632.74 544.25 632.94 533.24 631.78 522.63 630 512.5 627.32 502.82 624.05 493.58 621.1 484.71 618.3 476.14 616.08 467.89 615.28 459.8 615.75 451.8 617.74 443.98 621.76 436.12 627.44 428.17 634.65 420.29 643.41 412.25 653.01 404.02 662.9 395.79 672.8 387.36 681.75 378.71 689.07 370.06 694.6 361.41 697.45 352.81 697.47 344.24 695.13 335.75 690.15 327.4 682.91 319.13 674.15 311.04 664.05 303.22 653.19 295.52 642.32 288.12 631.68 281.11 621.73 274.24 612.97 267.79 605.41 261.78 599.16 253.2 592.81 238.32 587.35 231.84 586.86 225.48 587.24 213.06 585.92 206.58 583.21 201.76 580.65 196.8 577.09 191.67 572.56 186.05 567.51 180.3 561.55 174.5 554.8 168.41 547.63 162.46 539.8 156.77 531.46 151.17 522.84 146.11 513.86 141.73 504.62 137.82 495.25 134.8 485.73 132.76 476.15 131.35 466.52 130.93 456.9 131.48 447.34 132.46 437.77 134.19 428.29 136.55 418.92 138.85 409.54 141.38 400.5 143.97 391.77 146.08 383.02 148.05 374.55 149.85 366.34 151.03 358.07 152.08 350 153.07 342.1 153.66 334.07 154.42 326.14 155.46 318.27 156.49 310.19 158.06 302.08 160.27 293.93 162.83 285.5 166.19 276.96 170.35 268.3 175.02 259.37 180.51 250.33 186.75 241.2 193.45 231.91 200.79 222.64 208.65 213.48 216.79 204.4 225.29 195.63 234.06 187.32 242.89 179.4 251.86 172.19 260.9 165.82 269.83 160.14 278.78 155.47 287.7 151.92 296.45 149.12 305.19 147.4 313.91 146.72 322.46 146.54 331.05 147.14 339.68 148.34 348.2 149.47 356.82 150.78 365.57 152.06 374.26 152.64 383.13 152.83 392.21 152.5 401.27 151.16 410.57 149.24 420.12 146.85" stroke-dasharray="7 2" transform="rotate(14.962962962962962, 400, 400)" opacity="0.22"></path><path d="M422.34 158.14C431.54 155.03 440.66 151.89 449.68 148.94 458.68 145.92 467.54 143.56 476.2 142.04 484.78 141.08 493.09 141.26 501.03 142.63 508.8 144.84 516.1 148.26 522.83 152.79 529.27 158.05 535.03 164.21 540.03 171.09 544.67 178.32 548.49 185.98 551.47 193.89 554.15 201.72 556.07 209.57 557.32 217.32 558.56 224.7 559.41 231.87 560.07 238.8 561.24 245.25 562.67 251.49 564.62 257.53 567.69 263.14 571.71 268.65 576.86 274.14 583.49 279.3 591.36 284.56 600.43 289.95 610.67 295.16 621.66 300.61 633.03 306.34 644.48 311.97 655.37 317.94 665.12 324.27 673.5 330.56 679.78 337.23 683.53 344.3 684.95 351.34 683.53 358.78 679.34 366.61 673.2 374.43 665.02 382.65 655.4 391.26 645.6 399.88 636.02 408.71 627.35 417.74 620.4 426.78 615.25 436.04 612.07 445.49 611.25 454.99 612.26 464.71 614.79 474.62 618.91 484.57 623.67 494.7 628.55 504.96 633.59 515.22 637.79 525.54 640.77 535.81 642.76 545.93 643 555.87 641.41 565.45 638.4 574.65 633.6 583.28 627.19 591.15 619.59 598.35 610.76 604.55 600.99 609.59 590.61 613.75 579.72 616.63 568.59 618.18 557.37 618.9 546.22 618.42 535.28 616.86 524.56 614.96 514.18 612.44 504.16 609.58 494.47 607.24 485.13 605.23 476.1 603.9 467.35 603.98 458.82 605.28 450.47 607.99 442.3 612.53 434.19 618.52 426.12 625.82 418.13 634.42 410.1 643.68 402.01 653.1 393.93 662.44 385.76 670.87 377.5 677.77 369.23 683.06 361.07 685.88 353.05 686.13 345.04 684.23 337.19 679.88 329.55 673.4 321.95 665.44 314.6 656.12 307.55 645.94 300.58 635.57 293.93 625.21 287.67 615.29 281.49 606.29 275.7 598.24 270.32 591.3 262.53 583.55 248.71 575.02 242.47 573.23 236.13 572.7 223.26 571.06 216.4 568.92 211.32 567.01 206.09 564.28 200.71 560.71 194.91 556.74 189.02 551.94 183.13 546.36 177.05 540.42 171.15 533.8 165.58 526.61 160.16 519.17 155.31 511.26 151.18 503.01 147.53 494.61 144.76 485.96 142.97 477.14 141.77 468.26 141.54 459.28 142.24 450.25 143.35 441.22 145.17 432.16 147.59 423.13 149.96 414.09 152.54 405.28 155.18 396.7 157.36 388.09 159.41 379.68 161.27 371.44 162.53 363.15 163.65 354.98 164.67 346.91 165.25 338.72 165.95 330.56 166.85 322.42 167.67 314.09 168.96 305.72 170.79 297.28 172.88 288.63 175.7 279.89 179.26 271.06 183.28 262.06 188.08 253 193.63 243.95 199.63 234.85 206.3 225.87 213.54 217.11 221.11 208.53 229.11 200.36 237.46 192.74 245.95 185.58 254.65 179.15 263.49 173.6 272.33 168.72 281.22 164.82 290.14 161.96 298.96 159.77 307.78 158.57 316.59 158.29 325.28 158.38 333.98 159.14 342.69 160.39 351.32 161.49 359.99 162.7 368.74 163.83 377.43 164.26 386.24 164.3 395.16 163.86 404.07 162.45 413.13 160.52 422.33 158.14" stroke-dasharray="4 2" transform="rotate(18.703703703703702, 400, 400)" opacity="0.40"></path><path d="M421.93 169.44C430.72 166.4 439.33 163.33 447.74 160.42 456.13 157.43 464.27 155.03 472.11 153.38 479.87 152.22 487.27 152.1 494.23 153.07 501.03 154.81 507.32 157.71 513.01 161.67 518.48 166.35 523.28 171.94 527.39 178.29 531.26 185.06 534.43 192.33 536.92 199.95 539.28 207.61 541.1 215.39 542.49 223.17 544.05 230.71 545.46 238.11 546.91 245.34 549 252.17 551.5 258.82 554.64 265.28 558.87 271.33 564.03 277.27 570.24 283.13 577.71 288.66 586.21 294.21 595.64 299.84 605.92 305.24 616.66 310.81 627.49 316.58 638.16 322.22 648.1 328.13 656.79 334.34 664.1 340.48 669.39 346.96 672.31 353.8 673.12 360.6 671.37 367.78 667.13 375.34 661.19 382.88 653.42 390.82 644.36 399.17 635.14 407.51 626.06 416.07 617.74 424.83 610.91 433.61 605.62 442.59 602.06 451.75 600.62 460.94 600.85 470.3 602.52 479.8 605.75 489.3 609.71 498.9 613.96 508.53 618.6 518.08 622.7 527.58 625.9 536.91 628.41 546.02 629.5 554.81 629.03 563.13 627.37 571.03 624.07 578.27 619.25 584.69 613.31 590.47 606.08 595.26 597.82 598.96 588.84 601.91 579.17 603.72 569.06 604.38 558.68 604.45 548.15 603.55 537.64 601.84 527.18 600.03 516.89 597.83 506.86 595.53 497.02 593.88 487.47 592.68 478.21 592.22 469.15 593.13 460.34 595.2 451.75 598.54 443.31 603.51 435.02 609.73 426.86 617.04 418.77 625.43 410.74 634.32 402.76 643.26 394.8 652.07 386.85 659.98 378.92 666.48 370.99 671.51 363.25 674.3 355.73 674.74 348.21 673.25 340.92 669.5 333.89 663.74 326.88 656.57 320.16 648.04 313.75 638.57 307.39 628.77 301.36 618.81 295.68 609.05 290.04 599.97 284.75 591.6 279.82 584.13 274.87 577.85 270.23 572.56 265.88 568.22 259.29 563.79 246.54 558.98 240.08 557.49 233 556.27 217.64 551.59 209.31 547.58 203.36 544.42 197.39 540.52 191.48 535.91 185.45 531.01 179.67 525.46 174.26 519.31 169.07 512.94 164.48 506.06 160.62 498.76 157.26 491.32 154.77 483.55 153.22 475.51 152.25 467.41 152.2 459.11 153.04 450.65 154.26 442.19 156.16 433.61 158.62 424.94 161.05 416.28 163.67 407.73 166.36 399.31 168.6 390.88 170.72 382.55 172.66 374.32 174.02 366.04 175.21 357.81 176.28 349.61 176.9 341.32 177.57 333.02 178.39 324.7 179.06 316.24 180.1 307.72 181.61 299.14 183.3 290.42 185.62 281.64 188.61 272.83 192 263.93 196.12 255.06 200.95 246.27 206.23 237.54 212.17 229.02 218.71 220.82 225.6 212.88 232.98 205.42 240.76 198.57 248.75 192.22 257.03 186.62 265.51 181.89 274.06 177.79 282.74 174.62 291.47 172.41 300.2 170.78 308.95 170.02 317.69 170.06 326.38 170.38 335.08 171.23 343.76 172.49 352.39 173.52 361.03 174.61 369.68 175.58 378.31 175.86 386.97 175.76 395.68 175.2 404.37 173.74 413.13 171.79 421.92 169.44" stroke-dasharray="8 3" transform="rotate(22.444444444444443, 400, 400)" opacity="0.59"></path><path d="M418.95 180.73C427.29 177.77 435.36 174.78 443.15 171.94 450.91 168.99 458.35 166.56 465.42 164.81 472.42 163.47 479 163.07 485.1 163.68 491.08 164.98 496.54 167.35 501.42 170.75 506.15 174.84 510.28 179.83 513.81 185.61 517.21 191.84 520.07 198.64 522.41 205.87 524.79 213.24 526.82 220.82 528.62 228.5 530.75 236.05 532.91 243.56 535.29 250.96 538.36 258.07 541.95 265.03 546.21 271.83 551.49 278.29 557.62 284.62 564.66 290.85 572.73 296.77 581.61 302.67 591.16 308.58 601.27 314.27 611.58 320.04 621.74 325.95 631.54 331.72 640.48 337.69 648.12 343.89 654.39 350 658.75 356.4 660.92 363.1 661.19 369.76 659.16 376.75 654.92 384.09 649.19 391.41 641.84 399.09 633.32 407.15 624.66 415.21 616.08 423.47 608.12 431.89 601.44 440.32 596.08 448.92 592.21 457.66 590.23 466.4 589.75 475.25 590.61 484.16 592.97 493.04 596.11 501.92 599.68 510.74 603.79 519.43 607.61 527.95 610.82 536.2 613.63 544.18 615.3 551.75 615.7 558.77 615.14 565.36 613.15 571.25 609.76 576.32 605.36 580.81 599.71 584.37 592.97 586.94 585.48 588.91 577.18 589.9 568.29 589.95 559.01 589.61 549.39 588.54 539.62 586.9 529.75 585.35 519.9 583.63 510.16 581.98 500.5 581.07 491.03 580.69 481.78 581.07 472.67 582.75 463.78 585.49 455.11 589.38 446.57 594.68 438.2 601.05 430.01 608.3 421.89 616.45 413.9 624.95 406.04 633.39 398.2 641.67 390.46 649.08 382.81 655.18 375.16 659.96 367.78 662.71 360.68 663.33 353.58 662.2 346.75 659 340.22 653.94 333.69 647.54 327.46 639.79 321.56 631.06 315.66 621.9 310.08 612.41 304.83 602.95 299.55 593.93 294.59 585.42 289.92 577.59 285.17 570.74 280.67 564.73 276.37 559.56 269.74 553.73 256.51 546.29 249.65 543.83 242.16 541.98 226.03 537.19 217.43 533.67 211.41 531.02 205.42 527.76 199.55 523.88 193.64 519.8 188.04 515.1 182.86 509.83 177.94 504.39 173.65 498.42 170.09 491.99 167.03 485.45 164.82 478.5 163.52 471.22 162.78 463.88 162.9 456.25 163.87 448.39 165.2 440.51 167.16 432.43 169.66 424.17 172.12 415.9 174.78 407.66 177.5 399.46 179.8 391.25 181.99 383.06 184.01 374.89 185.46 366.69 186.75 358.48 187.9 350.26 188.58 341.97 189.27 333.64 190.04 325.27 190.62 316.82 191.49 308.31 192.73 299.76 194.07 291.15 195.96 282.51 198.44 273.9 201.23 265.3 204.71 256.79 208.84 248.45 213.38 240.25 218.56 232.34 224.34 224.83 230.49 217.63 237.16 210.97 244.26 204.95 251.62 199.43 259.32 194.67 267.27 190.74 275.37 187.38 283.65 184.89 292.04 183.27 300.48 182.12 308.99 181.74 317.51 182.04 326.04 182.51 334.57 183.42 343.08 184.63 351.58 185.57 360.07 186.51 368.53 187.31 376.97 187.44 385.41 187.19 393.82 186.52 402.22 185.01 410.61 183.06 418.94 180.74" stroke-dasharray="2 2" transform="rotate(26.185185185185183, 400, 400)" opacity="0.08"></path><path d="M413.76 192.03C421.6 189.15 429.13 186.25 436.32 183.47 443.48 180.58 450.28 178.15 456.67 176.32 465.95 174.5 482.07 176.28 488.82 180.07 493.06 183.56 496.8 187.94 500.06 193.1 503.3 198.75 506.14 205.01 508.64 211.75 511.29 218.72 513.78 225.98 516.2 233.43 519.05 240.84 522.07 248.31 525.41 255.75 529.46 262.99 534.06 270.14 539.3 277.18 545.44 283.94 552.33 290.6 559.96 297.15 568.39 303.43 577.41 309.66 586.84 315.86 596.59 321.86 606.31 327.89 615.68 333.99 624.56 339.95 632.48 346.04 639.08 352.3 644.38 358.47 647.88 364.86 649.37 371.48 649.17 378.06 646.92 384.92 642.7 392.07 637.2 399.19 630.27 406.64 622.28 414.39 614.17 422.15 606.09 430.05 598.5 438.07 592.01 446.09 586.62 454.22 582.52 462.42 580.07 470.59 578.96 478.81 579.07 487 580.6 495.13 582.93 503.17 585.76 511.05 589.26 518.78 592.67 526.24 595.71 533.34 599.59 543.35 601.44 559.97 598.81 566.17 593.68 570.83 576.88 575.23 565.89 575.14 557.87 574.64 549.38 573.62 540.59 572.24 531.58 571.1 522.45 569.96 513.29 569.02 504.11 568.86 495 569.28 486.03 570.45 477.12 572.82 468.38 576.15 459.83 580.47 451.36 586.03 443.07 592.46 434.97 599.6 426.92 607.46 419.04 615.54 411.33 623.5 403.64 631.24 396.1 638.17 388.71 643.89 381.32 648.41 374.24 651.11 367.48 651.87 360.71 651.09 354.24 648.4 348.09 643.99 341.91 638.32 336.05 631.35 330.5 623.38 324.91 614.9 319.62 605.97 314.62 596.91 309.56 588.1 304.75 579.6 300.18 571.59 295.48 564.34 290.96 557.78 286.59 551.94 279.74 544.87 265.81 534.86 258.52 531.29 253.29 529.47 247.95 527.67 242.52 525.74 236.77 524.01 230.94 521.98 225.1 519.57 219.08 517.16 213.14 514.25 207.38 510.84 201.66 507.32 196.3 503.26 191.4 498.67 186.8 493.96 182.83 488.75 179.59 483.06 176.85 477.29 174.94 471.08 173.89 464.5 173.36 457.86 173.66 450.88 174.75 443.59 176.16 436.29 178.18 428.71 180.7 420.88 183.19 413.05 185.86 405.16 188.6 397.23 190.95 389.3 193.2 381.32 195.3 373.31 196.86 365.28 198.25 357.19 199.49 349.07 200.27 340.91 201.01 332.69 201.79 324.43 202.32 316.14 203.07 307.82 204.11 299.48 205.18 291.15 206.71 282.85 208.74 274.63 211 266.5 213.87 258.52 217.34 250.79 221.16 243.26 225.6 236.08 230.61 229.35 235.97 222.97 241.86 217.15 248.21 211.99 254.83 207.3 261.84 203.34 269.14 200.18 276.64 197.51 284.36 195.63 292.24 194.52 300.23 193.78 308.32 193.7 316.46 194.19 324.65 194.75 332.86 195.66 341.06 196.8 349.28 197.62 357.47 198.4 365.62 199.02 373.77 198.98 381.88 198.6 389.91 197.83 397.95 196.27 405.9 194.31 413.75 192.03" stroke-dasharray="1 0" transform="rotate(29.925925925925924, 400, 400)" opacity="0.25"></path><path d="M406.95 203.33C414.29 200.54 421.28 197.73 427.92 195.04 434.53 192.21 440.76 189.79 446.59 187.91 455.07 185.87 469.79 186.62 476.04 189.64 481.85 194.43 491.77 208.7 496.18 217.71 499.3 224.17 502.39 231 505.56 238.08 509.19 245.23 513.08 252.51 517.35 259.84 522.28 267.07 527.74 274.27 533.79 281.4 540.58 288.35 547.99 295.21 555.95 301.99 564.5 308.55 573.42 315.05 582.53 321.5 591.75 327.77 600.75 334.04 609.25 340.34 617.17 346.5 624.08 352.74 629.69 359.08 634.07 365.34 636.78 371.75 637.66 378.33 637.06 384.86 634.64 391.61 630.48 398.57 625.23 405.52 618.71 412.71 611.24 420.14 603.66 427.57 596.08 435.08 588.87 442.63 582.59 450.18 577.23 457.76 572.96 465.33 570.12 472.87 568.46 480.36 567.9 487.75 568.65 495.05 570.18 502.19 572.27 509.08 575.1 515.8 577.99 522.2 580.7 528.18 586.15 543.13 583.22 557.83 577.83 559.76 573.24 560.53 567.78 560.66 561.58 560.23 554.89 559.78 547.65 559 539.98 558.02 532.04 557.41 523.84 556.91 515.49 556.71 507.04 557.3 498.55 558.47 490.09 560.35 481.63 563.33 473.26 567.14 465.03 571.81 456.83 577.52 448.78 583.95 440.9 590.91 433.06 598.45 425.38 606.11 417.88 613.57 410.39 620.8 403.07 627.25 395.93 632.59 388.79 636.87 381.97 639.49 375.48 640.39 368.97 639.9 362.77 637.69 356.88 633.89 350.96 628.93 345.33 622.72 339.98 615.51 334.58 607.74 329.44 599.44 324.54 590.87 319.55 582.39 314.76 574.05 310.15 566.02 305.38 558.56 300.74 551.63 296.18 545.27 291.4 539.68 286.64 534.68 281.88 530.22 276.84 526.47 271.75 523.13 266.58 520.09 261.11 517.57 255.56 515.16 249.94 512.76 244.08 510.64 238.19 508.36 232.35 505.83 226.39 503.4 220.59 500.61 215.02 497.42 209.56 494.21 204.49 490.55 199.91 486.43 193.86 479.93 185.94 464.57 184.33 455.79 184.02 449.77 184.47 443.38 185.67 436.64 187.16 429.89 189.21 422.81 191.74 415.43 194.24 408.05 196.92 400.55 199.66 392.96 202.05 385.37 204.36 377.68 206.53 369.93 208.2 362.17 209.7 354.34 211.05 346.45 211.94 338.55 212.77 330.6 213.59 322.62 214.13 314.66 214.83 306.69 215.74 298.75 216.61 290.87 217.84 283.07 219.5 275.41 221.32 267.89 223.65 260.59 226.52 253.58 229.68 246.82 233.4 240.46 237.66 234.57 242.23 229.04 247.32 224.09 252.87 219.77 258.7 215.89 264.93 212.69 271.49 210.22 278.26 208.18 285.3 206.82 292.55 206.14 299.92 205.73 307.45 205.87 315.06 206.48 322.75 207.08 330.49 207.95 338.24 208.97 346.03 209.65 353.8 210.25 361.52 210.69 369.27 210.49 376.95 209.98 384.53 209.11 392.13 207.51 399.61 205.57 406.94 203.33" stroke-dasharray="8 8" transform="rotate(33.666666666666664, 400, 400)" opacity="0.39"></path><path d="M399.34 214.62C406.16 211.93 412.65 209.22 418.8 206.62 427.81 202.68 443.98 197.35 451.11 196.54 457.86 197.19 469.75 203.42 475.06 208.9 478.66 213.27 482.12 218.29 485.53 223.85 489.22 229.73 492.98 236.03 496.91 242.64 501.3 249.39 505.99 256.34 511.07 263.41 516.73 270.46 522.86 277.56 529.49 284.65 536.7 291.62 544.37 298.55 552.43 305.43 560.86 312.15 569.47 318.82 578.09 325.43 586.64 331.9 594.83 338.34 602.41 344.78 609.35 351.11 615.26 357.47 619.93 363.87 623.46 370.21 625.46 376.63 625.82 383.16 624.88 389.65 622.34 396.27 618.27 403.04 613.28 409.8 607.16 416.72 600.2 423.8 593.14 430.88 586.04 437.95 579.23 444.99 573.19 452.02 567.91 459.01 563.52 465.91 560.38 472.76 558.26 479.5 557.1 486.04 557.13 492.51 557.91 498.73 559.27 504.64 562.53 513.1 569.44 527.54 571.97 533.27 572.37 540.98 562.19 545.81 555.21 545.51 549.84 545.28 543.87 544.87 537.4 544.41 530.63 544.39 523.5 544.57 516.12 545.1 508.58 546.4 500.9 548.26 493.15 550.77 485.35 554.25 477.55 558.45 469.81 563.37 462.07 569.15 454.42 575.5 446.89 582.24 439.38 589.43 432.01 596.64 424.79 603.61 417.58 610.33 410.52 616.32 403.63 621.29 396.73 625.33 390.15 627.87 383.88 628.87 377.59 628.65 371.59 626.87 365.87 623.64 360.11 619.36 354.61 613.88 349.35 607.43 344.03 600.39 338.92 592.76 334.01 584.76 328.98 576.72 324.11 568.68 319.36 560.78 314.45 553.28 309.61 546.15 304.82 539.46 299.82 533.39 294.81 527.81 289.78 522.7 284.49 518.23 279.15 514.15 273.76 510.4 268.12 507.15 262.43 504.09 256.71 501.13 250.82 498.49 244.97 495.81 239.21 493 233.42 490.35 227.83 487.47 222.53 484.3 215.02 479.44 202.97 467.85 198.81 461.05 196.07 453.81 195.04 437.33 196.63 428.14 198.18 421.89 200.26 415.3 202.78 408.38 205.27 401.46 207.94 394.38 210.68 387.19 213.11 380 215.46 372.7 217.69 365.3 219.46 357.92 221.08 350.46 222.54 342.94 223.56 335.44 224.5 327.91 225.4 320.37 226 312.88 226.69 305.42 227.54 298.04 228.28 290.75 229.31 283.59 230.68 276.63 232.13 269.84 234.02 263.31 236.37 257.12 238.93 251.19 242 245.68 245.55 240.66 249.38 235.98 253.69 231.86 258.44 228.34 263.46 225.21 268.87 222.71 274.64 220.86 280.62 219.34 286.9 218.43 293.4 218.09 300.06 217.93 306.9 218.21 313.87 218.88 320.93 219.47 328.08 220.25 335.26 221.13 342.49 221.64 349.74 222.06 356.94 222.31 364.18 221.97 371.35 221.33 378.43 220.37 385.52 218.74 392.5 216.81 399.33 214.63" stroke-dasharray="4 9" transform="rotate(37.407407407407405, 400, 400)" opacity="0.81"></path><path d="M391.79 225.92C398.12 223.33 404.16 220.73 409.88 218.23 418.3 214.41 433.58 208.96 440.47 207.85 447.11 208 459.31 212.75 465.08 217.31 469.06 221.03 473 225.38 476.99 230.28 481.26 235.52 485.68 241.21 490.32 247.26 495.36 253.5 500.72 260 506.44 266.67 512.63 273.41 519.21 280.24 526.17 287.12 533.56 293.97 541.25 300.82 549.16 307.64 557.28 314.37 565.4 321.07 573.37 327.72 581.15 334.27 588.46 340.8 595.09 347.29 601.06 353.7 606.03 360.1 609.82 366.52 612.56 372.87 613.93 379.26 613.83 385.7 612.62 392.11 610.01 398.58 606.06 405.13 601.34 411.66 595.63 418.29 589.16 424.98 582.61 431.68 575.99 438.29 569.58 444.8 563.81 451.3 558.64 457.67 554.21 463.88 549.58 473.04 546.08 490.09 546.77 497.79 556.7 523.76 552.05 531.19 546.79 531.2 540.27 531.38 524.01 532.57 514.67 534.22 508.15 536.16 501.4 538.63 494.49 541.68 487.5 545.56 480.42 550.05 473.32 555.12 466.19 560.89 459.07 567.09 452.02 573.57 444.97 580.38 437.99 587.13 431.13 593.61 424.27 599.84 417.52 605.38 410.9 610 404.27 613.78 397.92 616.24 391.84 617.32 385.74 617.34 379.89 615.95 374.28 613.25 368.63 609.59 363.19 604.82 357.95 599.11 352.64 592.81 347.49 585.88 342.49 578.52 337.37 571.02 332.36 563.38 327.43 555.76 322.35 548.38 317.31 541.23 312.28 534.39 307.07 528.01 301.83 522.02 296.57 516.43 291.1 511.36 285.59 506.65 280.05 502.27 274.33 498.35 268.59 494.65 262.88 491.1 257.07 487.89 251.35 484.72 245.77 481.52 237.58 476.96 223.03 467.13 217.05 461.63 212.17 455.88 206.3 442.69 205.45 435.22 205.53 430.11 206.26 424.65 207.63 418.86 209.23 413.05 211.32 406.92 213.82 400.46 216.29 394 218.94 387.38 221.66 380.63 224.1 373.9 226.49 367.05 228.78 360.11 230.64 353.2 232.37 346.21 233.95 339.19 235.11 332.21 236.18 325.21 237.19 318.25 237.88 311.36 238.63 304.54 239.47 297.83 240.15 291.25 241.06 284.84 242.23 278.66 244.17 269.82 250.18 254.23 254.36 247.73 259.29 242.19 271.62 234.34 278.89 232.06 286.79 230.7 304.17 230.51 313.46 231.35 319.8 231.88 326.27 232.54 332.79 233.25 339.39 233.59 346.02 233.83 352.63 233.89 359.29 233.4 365.9 232.64 372.44 231.6 379 229.96 385.46 228.05 391.78 225.92" stroke-dasharray="1 8" transform="rotate(41.148148148148145, 400, 400)" opacity="0.43"></path><path d="M385.21 237.22C391.07 234.73 396.7 232.25 402.08 229.86 407.45 227.32 412.59 225.05 417.48 223.13 427.29 219.73 436.28 218.64 444.62 220.1 453.34 223.21 461.92 229.01 470.71 237.12 480.59 246.56 491.35 257.67 503.22 269.86 516.54 282.49 530.95 295.62 545.93 308.87 561.11 321.99 575.33 335.07 587.26 347.98 596.6 360.67 601.69 373.32 601.73 385.9 600.31 392.17 597.66 398.44 593.86 404.72 589.41 410.99 584.1 417.28 578.12 423.57 572.07 429.86 565.92 436 559.91 441.97 554.43 447.93 549.41 453.7 544.99 459.25 538.89 470.25 535.64 480.19 534.82 488.77 541.41 506.99 536.59 518.04 525.53 519.52 516.31 522.48 505.48 526.83 493.6 533.05 481.28 542.07 468.43 552.92 455.48 564.89 448.98 571.29 442.49 577.58 436.05 583.58 429.6 589.33 423.21 594.43 416.89 598.7 410.57 602.25 404.46 604.61 398.57 605.75 392.66 605.96 386.94 604.93 381.41 602.71 370.24 595.77 359.65 585.14 349.52 572.09 339 558.18 328.66 543.8 318.39 529.89 307.51 517.3 296.52 505.89 285.5 495.7 274.02 487.12 262.76 479.27 252.11 471.77 241.82 465.14 232.84 458.15 225.75 450.49 220.03 443.06 216.75 434.58 216.15 424.96 216.82 417.6 221.35 401.35 224.86 392.49 227.3 386.48 229.91 380.33 232.6 374.08 235.04 367.83 237.45 361.49 239.78 355.08 243.26 342.35 246.28 329.49 248.91 316.83 250.26 304.51 251.85 292.69 254.05 281.81 256.05 271.67 259.34 262.87 264.05 255.84 269.31 249.85 276.18 245.79 284.44 243.77 293.35 242.41 303.43 242.57 314.31 243.86 325.6 244.49 337.39 245.16 349.34 245.41 355.37 244.78 361.4 243.92 367.39 242.81 373.39 241.16 379.34 239.28 385.2 237.22" stroke-dasharray="6 5" transform="rotate(44.888888888888886, 400, 400)" opacity="0.48"></path><path d="M380.36 248.51C391.22 243.46 401.41 238.77 410.93 235.02 420.52 231.55 429.63 230.09 438.41 230.87 447.61 233.04 456.94 237.66 466.65 244.44 477.29 252.5 488.76 262.26 501.12 273.22 514.46 284.76 528.46 296.97 542.51 309.47 556.31 322.04 568.82 334.66 578.9 347.15 586.52 359.55 590.26 371.85 589.52 383.96 585.64 396.03 577.86 407.99 567.09 419.72 556.05 431.45 545.22 442.35 535.87 452.27 529.44 462.08 525.36 470.73 523.43 478.03 527.32 493.69 524.72 505.25 516.3 508.42 509.1 512.49 500.24 517.88 490.16 524.85 479.63 534.13 468.34 544.8 456.64 556.19 444.85 568.17 432.87 579.03 420.91 587.4 408.95 593.29 397.54 594.81 386.69 592.03 375.72 586.25 365.11 577.04 354.81 565.41 344.18 552.74 333.63 539.25 323.11 525.82 312.14 513.22 301.13 501.42 290.2 490.6 279.07 481.08 268.32 472.29 258.34 463.97 248.88 456.49 240.8 448.93 234.6 441.01 229.71 433.39 227.09 425.02 226.93 415.8 228 406.61 231.1 396.43 235.9 385.3 240.58 374.16 245.68 362.62 250.69 350.95 254.36 339.38 257.63 327.84 260.52 316.64 262.16 305.78 263.91 295.55 266.07 286.34 267.84 277.79 270.61 270.58 274.55 265.02 278.81 260.28 284.46 257.24 291.39 255.92 298.81 254.98 307.38 255.24 316.82 256.37 326.6 256.71 336.99 257 347.7 256.87 358.53 254.9 369.5 252.06 380.35 248.52" stroke-dasharray="8 2" transform="rotate(48.629629629629626, 400, 400)" opacity="0.53"></path><path d="M377.81 259.81C387.87 255.02 397.58 250.59 406.92 246.97 416.35 243.5 425.6 241.76 434.79 241.96 444.38 243.29 454.26 246.82 464.59 252.34 475.65 259.02 487.4 267.38 499.76 276.98 512.69 287.25 525.88 298.33 538.7 309.83 550.95 321.53 561.69 333.41 569.99 345.23 576.03 357.06 578.57 368.78 577.21 380.25 573.25 391.72 565.95 402.96 556.05 413.81 545.92 424.67 535.83 434.58 526.83 443.43 520.21 452.2 515.49 459.81 512.6 466.15 513.61 480.31 511.61 493.49 505.23 498.28 499.7 503.33 492.57 509.53 484.15 517.03 475.33 526.39 465.56 536.74 455.15 547.47 444.64 558.53 433.68 568.45 422.48 576.11 411.28 581.62 400.35 583.3 389.75 581.21 379.06 576.5 368.54 568.63 358.19 558.43 347.61 547.08 337.04 534.68 326.49 521.99 315.68 509.73 304.89 497.91 294.32 486.79 283.76 476.67 273.71 467.18 264.56 458.21 256.04 449.98 248.93 441.86 243.64 433.63 239.56 425.72 237.57 417.35 237.82 408.41 239.12 399.53 242.26 389.94 246.94 379.63 251.52 369.32 256.52 358.82 261.51 348.35 265.32 337.98 268.82 327.79 271.97 318.08 273.94 308.67 275.92 300 278.16 292.38 281.11 282.41 291.57 270.37 299.72 268.42 305.86 267.73 313.09 267.96 321.2 268.83 329.57 268.85 338.64 268.76 348.17 268.27 357.8 266.12 367.74 263.25 377.81 259.81" stroke-dasharray="4 10" transform="rotate(52.37037037037037, 400, 400)" opacity="0.19"></path><path d="M377.85 271.1C387.2 266.6 396.47 262.44 405.62 258.99 414.88 255.58 424.2 253.63 433.64 253.36 443.42 253.97 453.57 256.52 464.15 260.87 475.24 266.23 486.83 273.19 498.74 281.39 510.89 290.27 522.94 300.05 534.31 310.36 544.91 320.96 553.89 331.86 560.52 342.77 565.14 353.78 566.66 364.71 564.81 375.38 560.86 386.08 554.06 396.51 545.01 406.48 535.77 416.44 526.42 425.44 517.85 433.4 511.18 441.31 506 448.13 502.33 453.81 500.39 461.74 500.5 473 499.76 477.37 498.87 480.96 496.55 484.78 492.73 489.13 488.48 494.95 482.76 501.75 475.77 509.55 468.46 518.8 460.11 528.7 450.96 538.7 441.69 548.85 431.8 557.85 421.42 564.81 411.04 569.94 400.7 571.74 390.47 570.25 380.19 566.51 369.93 559.92 359.73 551.11 349.4 541.13 339.03 529.95 328.73 518.23 318.32 506.61 308.02 495.11 298.06 484.05 288.27 473.68 279.1 463.81 270.91 454.42 263.41 445.64 257.29 437.08 252.89 428.58 249.6 420.4 248.21 412 248.81 403.3 250.31 394.68 253.44 385.59 257.98 376.08 262.42 366.56 267.3 357.07 272.22 347.78 276.15 338.57 279.83 329.71 283.23 321.43 285.53 313.41 287.8 306.18 290.21 299.98 293.19 291.9 302.4 282.56 309.31 281.18 314.42 280.56 320.52 280.66 327.48 281.2 334.62 280.87 342.5 280.41 350.97 279.59 359.5 277.3 368.5 274.42 377.85 271.1" stroke-dasharray="1 7" transform="rotate(56.111111111111114, 400, 400)" opacity="0.26"></path><path d="M380.48 282.4C389.17 278.19 398 274.31 406.91 271.06 415.92 267.76 425.15 265.7 434.61 265.05 444.32 265.08 454.41 266.78 464.84 270.06 475.56 274.21 486.59 279.82 497.67 286.63 508.72 294.09 519.39 302.47 529.18 311.46 538.11 320.8 545.41 330.51 550.51 340.35 553.87 350.32 554.54 360.28 552.35 370.04 548.47 379.84 542.18 389.37 533.97 398.46 525.59 407.56 517.01 415.74 508.92 422.97 502.34 430.17 496.87 436.43 492.6 441.73 489.25 449.34 486.74 461.37 485.43 466.79 484.52 471.14 482.54 475.78 479.38 480.94 475.98 487.32 471.33 494.48 465.49 502.36 459.43 511.32 452.31 520.66 444.31 529.89 436.21 539.11 427.36 547.23 417.86 553.51 408.35 558.26 398.69 560.13 388.98 559.16 379.26 556.29 369.45 550.87 359.64 543.41 349.78 534.81 339.89 524.94 330.1 514.35 320.33 503.63 310.77 492.76 301.63 482.09 292.79 471.84 284.64 461.92 277.5 452.41 271.06 443.35 265.94 434.54 262.41 425.93 259.85 417.58 259 409.2 259.91 400.75 261.56 392.37 264.66 383.78 269.02 375.01 273.29 366.23 278.01 357.7 282.83 349.53 286.82 341.41 290.64 333.78 294.25 326.81 298.17 317.04 305.29 302.53 309.41 298.17 313.87 295.16 326.86 293.33 335.51 293.43 341.63 292.76 348.51 291.94 356.06 290.83 363.63 288.43 371.79 285.58 380.48 282.4" stroke-dasharray="5 0" transform="rotate(59.85185185185185, 400, 400)" opacity="0.32"></path><path d="M385.4 293.7C393.46 289.8 401.8 286.21 410.37 283.19 419 280.04 427.94 277.94 437.14 277.03 446.5 276.6 456.18 277.59 466.07 279.96 476.08 283.01 486.2 287.38 496.14 292.87 505.87 298.92 515.03 305.9 523.19 313.53 530.49 321.5 536.22 329.93 539.96 338.57 542.25 347.36 542.24 356.23 539.82 364.98 536.08 373.77 530.33 382.37 522.93 390.61 515.39 398.85 507.57 406.3 500.04 412.94 493.65 419.59 488.06 425.46 483.38 430.59 478.88 438.13 473.85 451.22 471.75 457.63 470.55 462.62 468.6 467.91 465.75 473.65 462.84 480.36 458.89 487.65 453.91 495.41 448.81 503.94 442.71 512.62 435.72 521.02 428.66 529.32 420.79 536.58 412.2 542.22 403.6 546.58 394.72 548.48 385.7 547.94 376.69 545.84 367.53 541.49 358.34 535.3 349.17 528.06 339.99 519.54 330.97 510.19 322.07 500.56 313.44 490.58 305.32 480.6 297.54 470.8 290.5 461.17 284.46 451.84 279.07 442.82 274.92 434.03 272.22 425.49 270.34 417.15 269.95 408.91 271.12 400.76 272.87 392.68 275.9 384.59 280.06 376.53 284.14 368.47 288.66 360.81 293.34 353.66 297.32 346.54 301.24 339.99 305 334.14 309.36 325.95 317.23 314.1 321.43 310.61 325.68 308.03 337.33 305.92 344.96 305.49 350.29 304.49 356.37 303.35 363.14 301.98 369.9 299.52 377.33 296.72 385.4 293.7" stroke-dasharray="5 5" transform="rotate(63.592592592592595, 400, 400)" opacity="0.40"></path><path d="M392.02 304.99C399.47 301.41 407.27 298.13 415.33 295.35 423.45 292.41 431.88 290.35 440.53 289.27 449.26 288.51 458.22 288.94 467.25 290.54 476.26 292.65 485.21 295.92 493.8 300.21 502.08 304.96 509.69 310.58 516.26 316.88 522.02 323.48 526.34 330.58 528.91 337.98 530.31 345.53 529.77 353.24 527.24 360.94 523.7 368.68 518.49 376.33 511.88 383.74 505.16 391.15 498.11 397.94 491.17 404.11 485.1 410.3 479.54 415.91 474.64 420.98 469.29 428.58 462.04 442.73 459.06 449.96 457.41 455.4 455.26 461.12 452.47 467.18 449.73 473.98 446.19 481.17 441.8 488.63 437.36 496.59 432.06 504.53 425.93 512.09 419.76 519.48 412.8 525.92 405.11 530.92 397.43 534.89 389.41 536.77 381.21 536.6 373.04 535.15 364.71 531.78 356.35 526.76 348.07 520.81 339.82 513.63 331.77 505.6 323.9 497.18 316.36 488.29 309.36 479.23 302.73 470.19 296.83 461.16 291.89 452.32 287.53 443.64 284.29 435.14 282.34 426.9 281.06 418.79 281.08 410.85 282.44 403.11 284.25 395.42 287.17 387.86 291.1 380.48 294.96 373.11 299.25 366.26 303.73 359.99 307.66 353.74 311.6 348.11 315.45 343.18 320.17 336.25 328.8 326.34 333.22 323.36 337.5 320.96 348.4 318.31 355.32 317.34 360.09 316.03 365.55 314.62 371.68 313.04 377.79 310.56 384.57 307.84 392.02 304.99" stroke-dasharray="6 4" transform="rotate(67.33333333333333, 400, 400)" opacity="0.78"></path><path d="M399.58 316.29C406.41 313.03 413.57 310.07 420.99 307.56 428.43 304.87 436.14 302.9 444 301.75 451.87 300.78 459.86 300.79 467.78 301.78 475.6 303.13 483.21 305.47 490.36 308.71 497.16 312.3 503.24 316.69 508.32 321.74 512.7 327.03 515.8 332.85 517.39 339.03 518.08 345.34 517.17 351.89 514.62 358.53 511.34 365.22 506.68 371.93 500.84 378.54 494.91 385.16 488.63 391.35 482.33 397.11 476.65 402.89 471.28 408.29 466.34 413.35 462.27 418.53 458.61 423.49 455.29 428.29 452.68 433.39 450.17 438.51 447.61 443.72 445.45 449.39 442.98 455.3 440.08 461.44 437.31 468.1 433.95 474.98 429.93 481.96 425.92 489.25 421.21 496.39 415.79 503.09 410.36 509.59 404.22 515.22 397.43 519.63 390.64 523.2 383.54 525.03 376.27 525.15 369.03 524.25 361.67 521.72 354.31 517.77 347.05 513.03 339.87 507.15 332.94 500.43 326.21 493.3 319.84 485.62 314.02 477.66 308.55 469.6 303.78 461.43 299.89 453.33 296.49 445.29 294.09 437.35 292.8 429.63 292.04 421.99 292.39 414.53 293.87 407.32 295.69 400.14 298.48 393.16 302.13 386.47 305.74 379.77 309.77 373.65 314.01 368.15 319.77 360.2 330.55 347.56 335.53 342.93 344.41 336.35 359.57 330.42 366.01 328.94 370.4 327.37 375.4 325.74 380.99 324.02 386.55 321.54 392.75 318.94 399.58 316.29" stroke-dasharray="4 4" transform="rotate(71.07407407407408, 400, 400)" opacity="0.20"></path><path d="M407.18 327.59C419.54 321.32 433.03 316.72 446.79 314.42 460.45 312.46 473.88 313.85 485.6 318.35 495.98 323.84 503.1 332.05 505.45 342.02 505.12 352.4 499.74 363.87 489.8 375.57 479.6 387.28 468.6 398.1 458.42 407.97 450.76 418.28 443.95 428.5 437.59 438.81 432.67 450.47 426.68 462.89 419.05 475.35 411.6 488.46 401.91 500.16 390.05 508.33 378.18 513.93 365.45 513.67 352.84 508.33 340.61 500.42 329.1 488.89 319.51 475.56 311.11 461.61 305.5 447.07 303.6 433.07 303.27 419.19 306.52 405.89 313.17 393.85 319.66 381.81 327.4 372.05 335.37 364.67 341.64 357.21 348.19 351.98 355.1 348.82 360.84 344.95 367.85 342.25 376.38 340.25 384.57 336.19 394.82 331.88 407.18 327.59" stroke-dasharray="6 9" transform="rotate(74.81481481481481, 400, 400)" opacity="0.70"></path><path d="M413.95 338.88C424.93 333.38 436.61 329.37 448.21 327.26 459.61 325.22 470.4 325.86 479.37 329.08 487.2 332.92 492.13 339.14 493.13 347.11 492.23 355.37 487.34 364.9 478.76 375.14 470 385.37 460.25 395.35 450.83 404.9 443.13 414.8 435.91 424.87 429.07 435.05 423.41 446.11 417.11 457.59 409.8 468.74 402.72 480.12 394.05 490.1 383.83 497.03 373.61 502.03 362.9 502.3 352.55 498.43 342.52 492.56 333.35 483.51 326.01 472.64 319.61 461.09 315.63 448.69 314.76 436.51 314.99 424.31 318.17 412.53 324.21 401.87 330.12 391.21 337.27 382.58 344.8 376 351.1 369.27 357.77 364.32 364.74 361 370.77 356.95 377.74 353.79 385.83 351.24 393.59 347.06 402.96 342.84 413.95 338.88" stroke-dasharray="9 3" transform="rotate(78.55555555555556, 400, 400)" opacity="0.45"></path><path d="M419.08 350.18C428.61 345.45 438.37 342.05 447.72 340.23 456.86 338.29 465.14 338.48 471.65 340.76 477.28 343.35 480.46 347.98 480.49 354.25 479.28 360.68 474.96 368.48 467.72 377.28 460.35 386.09 451.94 395.09 443.5 404.02 436.17 413.2 428.98 422.68 422.05 432.21 416.01 442.25 409.58 452.44 402.63 462.06 395.9 471.68 388.17 479.97 379.5 485.74 370.83 490.09 362.09 490.73 353.91 488.09 345.97 483.98 338.98 477.18 333.65 468.69 328.98 459.56 326.36 449.46 326.26 439.28 326.88 429.02 329.89 418.95 335.25 409.7 340.52 400.45 346.95 392.85 353.87 386.89 359.96 380.76 366.49 375.99 373.29 372.46 379.41 368.3 386.22 364.82 393.79 361.9 401.1 357.76 409.55 353.75 419.08 350.18" stroke-dasharray="5 6" transform="rotate(82.29629629629629, 400, 400)" opacity="0.61"></path><path d="M421.98 361.48C429.97 357.53 437.8 354.75 444.98 353.27 461.11 354.12 464.44 371.27 456.68 381.79 450.67 389.17 443.65 397.02 436.38 405 429.76 413.12 423.03 421.58 416.45 430.01 410.44 438.68 404.21 447.31 397.78 455.28 391.54 463.11 384.76 469.79 377.57 474.44 370.38 478.13 363.47 478.98 357.27 477.31 351.22 474.65 346.13 469.81 342.48 463.51 339.25 456.69 337.69 448.88 338.11 440.78 338.95 432.57 341.67 424.3 346.29 416.52 350.84 408.74 356.45 402.14 362.58 396.75 368.2 391.22 374.31 386.66 380.67 383.01 386.57 378.87 393 375.27 399.87 372.19 406.57 368.27 413.99 364.6 421.98 361.48" stroke-dasharray="7 10" transform="rotate(86.03703703703704, 400, 400)" opacity="0.20"></path><path d="M422.31 372.77C440.52 364.89 455.63 372.43 445.64 388.18 436.33 400.11 424.04 414.33 412.08 428.15 401.43 442.26 389.78 455.45 378.26 463.14 366.74 468.42 357.4 465.43 352.49 457 348.46 447.17 349.79 434.17 357.33 421.63 364.68 409.08 375.41 399.25 386.83 392.46 397.25 384.36 409.5 377.39 422.31 372.77" stroke-dasharray="0 2" transform="rotate(89.77777777777777, 400, 400)" opacity="0.89"></path><path d="M420.02 384.07C433.21 378.32 442.21 383.95 434.6 395.79 427.74 404.84 418.27 415.81 408.71 426.31 399.76 436.79 390.21 446.34 381.5 451.85 369.61 455.27 361.8 438.41 368.37 424.49 374.13 415.04 382.66 406.87 391.83 400.7 400.57 393.79 410.47 387.84 420.02 384.07" stroke-dasharray="4 1" transform="rotate(93.51851851851852, 400, 400)" opacity="0.59"></path><path d="M415.4 395.37C427.99 388.39 432.22 391.61 423.57 403.84 414.7 416.06 398.67 433.1 386.9 440.55 375.12 445.66 371.42 437.41 379.41 424.81 387.2 412.2 402.79 400.15 415.4 395.37" stroke-dasharray="3 5" transform="rotate(97.25925925925925, 400, 400)" opacity="0.57"></path></g></svg>