<svg xmlns="http://www.w3.org/2000/svg" version="1.1" xmlns:xlink="http://www.w3.org/1999/xlink" xmlns:svgjs="http://svgjs.dev/svgjs" viewBox="0 0 800 800"><defs><linearGradient x1="50%" y1="0%" x2="50%" y2="100%" id="ccchaos-grad"><stop stop-color="hsl(161, 100%, 42%)" stop-opacity="1" offset="0%"></stop><stop stop-color="hsl(161, 10%, 40%)" stop-opacity="1" offset="100%"></stop></linearGradient></defs><g stroke-width="2" stroke="url(#ccchaos-grad)" fill="none" stroke-linecap="round"><path d="M381.7 115.41C391.14 118.68 400.6 122.16 410.07 125.7 419.56 128.72 429.07 131.58 438.61 134.22 448.2 136.16 457.85 137.88 467.56 139.41 477.35 140.34 487.25 141.25 497.23 142.24 507.35 142.94 517.58 143.95 527.92 145.37 538.38 146.84 548.95 148.93 559.58 151.68 570.3 154.75 581.02 158.61 591.66 163.23 602.25 168.29 612.65 174.13 622.73 180.69 632.55 187.67 641.87 195.3 650.53 203.5 658.68 212.02 665.96 221 672.24 230.35 677.77 239.91 682.12 249.74 685.21 259.78 687.45 269.92 688.39 280.19 688.02 290.54 686.95 300.93 684.73 311.36 681.49 321.78 677.95 332.22 673.74 342.65 669.07 353.04 664.71 363.43 660.35 373.77 656.21 384.05 653.02 394.33 650.44 404.53 648.62 414.62 648.14 424.71 648.53 434.43 649.72 443.75 652.09 453.05 654.99 461.93 658.23 470.34 662.15 478.69 665.99 486.55 669.53 493.88 673.13 501.13 676.03 507.82 678.08 513.94 679.9 522.73 676.68 537.65 671.48 544.02 666.86 548.33 661.13 552.42 654.4 556.41 647.06 560.86 638.89 565.44 630.03 570.3 620.8 575.91 611.05 582.01 600.93 588.72 590.65 596.35 580.13 604.68 569.49 613.68 558.82 623.51 548.12 633.85 537.45 644.53 526.84 655.52 516.29 666.41 505.83 676.85 495.47 686.79 485.2 695.67 475.03 703.12 464.95 709.25 454.95 713.45 445.04 715.52 435.19 715.85 425.4 713.98 415.69 709.99 406.01 704.65 396.37 697.71 386.81 689.53 377.25 681.15 367.97 672.64 358.98 664.46 349.97 657.34 341.25 651.2 332.81 646.24 324.36 642.95 316.19 640.93 308.32 640.09 300.42 640.74 292.8 642.17 285.49 644.11 278.13 646.81 271.04 649.42 264.24 651.66 257.36 653.82 250.74 655.11 244.37 655.35 237.89 654.93 231.62 653.22 225.56 650.2 219.35 646.32 213.31 641.15 207.45 634.81 201.39 627.7 195.49 619.59 189.74 610.66 183.78 601.22 177.97 591.17 172.34 580.7 166.52 569.97 160.89 558.99 155.49 547.89 149.96 536.73 144.71 525.56 139.78 514.46 134.82 503.39 130.24 492.43 126.1 481.63 122.03 470.89 118.46 460.31 115.46 449.89 112.62 439.53 110.4 429.31 108.84 419.26 107.51 409.24 106.87 399.35 106.96 389.63 107.3 379.92 108.35 370.57 110.07 361.62 111.98 352.65 114.51 344.05 117.6 335.84 120.79 327.62 124.48 319.77 128.6 312.31 132.73 304.81 137.22 297.68 142.03 290.91 146.74 284.06 151.72 277.54 156.92 271.31 161.94 264.94 167.16 258.79 172.54 252.84 177.71 246.64 183.04 240.54 188.53 234.49 193.81 228.1 199.27 221.67 204.9 215.18 210.35 208.27 216.02 201.26 221.9 194.14 227.66 186.63 233.67 179.06 239.94 171.49 246.13 163.69 252.62 156.02 259.39 148.6 266.12 141.24 273.16 134.34 280.5 128.06 287.82 122.17 295.45 117.11 303.36 113.02 311.27 109.56 319.47 107.19 327.93 105.95 336.39 105.38 345.11 105.88 354.08 107.41 363.04 109.35 372.25 112.06 381.69 115.4" stroke-dasharray="2 3" transform="rotate(0, 400, 400)" opacity="0.13"></path><path d="M384.86 126.45C394.01 129.68 403.21 133.14 412.45 136.66 421.71 139.69 431.03 142.6 440.4 145.3 449.81 147.35 459.31 149.18 468.87 150.83 478.51 151.89 488.26 152.9 498.09 153.95 508.01 154.67 518.04 155.64 528.14 156.93 538.32 158.22 548.56 160.03 558.81 162.42 569.08 165.05 579.29 168.39 589.36 172.43 599.33 176.84 609.02 181.99 618.34 187.83 627.36 194.06 635.84 200.93 643.63 208.37 650.91 216.14 657.34 224.4 662.77 233.06 667.52 241.94 671.17 251.15 673.63 260.59 675.34 270.17 675.87 279.93 675.23 289.79 673.99 299.72 671.74 309.72 668.6 319.73 665.24 329.77 661.3 339.81 656.96 349.8 652.97 359.81 648.97 369.76 645.18 379.62 642.27 389.49 639.9 399.25 638.2 408.87 637.72 418.49 638.01 427.72 639.01 436.54 641.09 445.33 643.65 453.69 646.53 461.59 650.07 469.45 653.55 476.83 656.8 483.7 660.16 490.53 662.92 496.85 664.95 502.66 666.97 511.12 664.96 525.97 660.72 532.66 656.85 537.28 651.92 541.81 646.04 546.35 639.58 551.37 632.3 556.6 624.31 562.16 615.93 568.42 607.01 575.18 597.65 582.5 588.09 590.62 578.24 599.33 568.19 608.58 558.08 618.48 547.87 628.72 537.63 639.14 527.42 649.7 517.21 660 507.07 669.74 496.98 678.9 486.97 686.97 477.04 693.62 467.18 698.99 457.4 702.55 447.72 704.1 438.08 704.09 428.51 702.06 419.05 698.08 409.6 692.91 400.22 686.27 390.94 678.49 381.65 670.52 372.65 662.4 363.95 654.54 355.24 647.6 346.81 641.5 338.67 636.44 330.51 632.87 322.63 630.45 315.04 629.11 307.41 629.17 300.05 630 292.97 631.37 285.84 633.54 278.96 635.75 272.34 637.74 265.64 639.8 259.17 641.19 252.92 641.72 246.55 641.77 240.38 640.71 234.4 638.5 228.26 635.56 222.28 631.44 216.46 626.21 210.45 620.27 204.58 613.34 198.86 605.56 192.95 597.26 187.19 588.3 181.59 578.82 175.83 569.04 170.27 558.91 164.92 548.57 159.48 538.1 154.3 527.54 149.45 516.96 144.58 506.36 140.09 495.82 136.02 485.38 132.05 474.97 128.56 464.67 125.62 454.54 122.86 444.43 120.69 434.48 119.17 424.69 117.89 414.92 117.28 405.31 117.38 395.88 117.73 386.44 118.77 377.4 120.46 368.73 122.35 360.06 124.84 351.76 127.88 343.83 131.03 335.87 134.66 328.28 138.72 321.04 142.79 313.74 147.22 306.78 151.97 300.13 156.63 293.38 161.56 286.9 166.7 280.66 171.68 274.25 176.86 268.02 182.2 261.91 187.33 255.56 192.63 249.26 198.07 242.98 203.31 236.36 208.71 229.69 214.27 222.96 219.65 215.85 225.23 208.66 230.99 201.4 236.62 193.82 242.48 186.22 248.58 178.67 254.58 170.98 260.84 163.48 267.37 156.29 273.85 149.21 280.6 142.65 287.64 136.72 294.65 131.21 301.95 126.53 309.53 122.79 317.09 119.67 324.94 117.59 333.06 116.59 341.17 116.21 349.54 116.85 358.18 118.45 366.81 120.43 375.7 123.13 384.85 126.44" stroke-dasharray="2 8" transform="rotate(4.04, 400, 400)" opacity="0.61"></path><path d="M388.69 137.49C397.56 140.69 406.5 144.1 415.5 147.59 424.52 150.64 433.62 153.57 442.79 156.34 451.99 158.48 461.29 160.43 470.65 162.19 480.08 163.39 489.6 164.52 499.2 165.65 508.86 166.42 518.59 167.38 528.36 168.61 538.17 169.76 548 171.35 557.77 173.44 567.52 175.7 577.15 178.58 586.57 182.09 595.85 185.91 604.81 190.42 613.33 195.57 621.55 201.07 629.19 207.19 636.12 213.88 642.57 220.88 648.17 228.38 652.83 236.3 656.86 244.47 659.86 252.98 661.77 261.76 663.03 270.7 663.22 279.85 662.36 289.14 661.02 298.52 658.78 308 655.75 317.51 652.59 327.07 648.93 336.65 644.93 346.18 641.28 355.74 637.64 365.24 634.18 374.65 631.54 384.07 629.37 393.37 627.78 402.52 627.31 411.67 627.5 420.43 628.33 428.77 630.14 437.11 632.38 445.02 634.92 452.49 638.08 459.93 641.21 466.92 644.16 473.46 647.26 479.98 649.86 486.06 651.83 491.72 653.97 500.05 652.95 515.21 649.54 522.37 646.34 527.38 642.16 532.39 637.07 537.5 631.45 543.08 625.01 548.93 617.88 555.12 610.35 561.96 602.25 569.26 593.68 577.05 584.89 585.52 575.75 594.46 566.36 603.81 556.87 613.64 547.22 623.66 537.49 633.7 527.75 643.73 517.97 653.39 508.22 662.4 498.49 670.77 488.8 678.02 479.18 683.9 469.6 688.56 460.09 691.51 450.67 692.6 441.29 692.28 431.99 690.11 422.78 686.17 413.59 681.18 404.48 674.84 395.46 667.45 386.45 659.89 377.73 652.15 369.3 644.61 360.86 637.87 352.7 631.85 344.83 626.71 336.93 622.92 329.3 620.15 321.95 618.35 314.55 617.86 307.42 618.11 300.54 618.92 293.6 620.55 286.89 622.31 280.43 623.97 273.86 625.84 267.51 627.21 261.37 627.89 255.09 628.26 249 627.7 243.07 626.14 236.99 624 231.06 620.78 225.27 616.54 219.31 611.68 213.48 605.86 207.8 599.2 201.94 592.02 196.22 584.15 190.68 575.71 184.99 566.94 179.49 557.75 174.22 548.26 168.86 538.6 163.78 528.75 159.01 518.82 154.25 508.82 149.86 498.81 145.89 488.84 142.01 478.87 138.62 468.97 135.76 459.2 133.08 449.44 130.98 439.81 129.5 430.33 128.27 420.87 127.69 411.55 127.79 402.4 128.15 393.26 129.18 384.49 130.84 376.09 132.7 367.67 135.14 359.61 138.12 351.9 141.21 344.16 144.78 336.74 148.76 329.65 152.76 322.49 157.13 315.61 161.8 309 166.4 302.28 171.26 295.77 176.34 289.46 181.28 282.96 186.41 276.59 191.7 270.31 196.81 263.78 202.07 257.27 207.46 250.75 212.67 243.93 218.03 237.05 223.53 230.12 228.85 222.87 234.35 215.56 240.03 208.21 245.56 200.62 251.3 193.07 257.25 185.62 263.1 178.11 269.18 170.83 275.51 163.92 281.77 157.18 288.29 150.97 295.07 145.42 301.81 140.3 308.83 136.01 316.11 132.63 323.37 129.84 330.91 128.05 338.72 127.28 346.51 127.09 354.57 127.85 362.9 129.52 371.22 131.52 379.82 134.21 388.68 137.48" stroke-dasharray="0 4" transform="rotate(8.08, 400, 400)" opacity="0.66"></path><path d="M393.03 148.53C401.62 151.68 410.29 155.05 419.04 158.5 427.8 161.54 436.65 164.51 445.57 167.32 454.53 169.56 463.57 171.61 472.68 173.5 481.84 174.84 491.07 176.09 500.35 177.32 509.67 178.18 519.03 179.17 528.39 180.37 537.75 181.43 547.08 182.86 556.3 184.72 565.47 186.67 574.46 189.16 583.19 192.22 591.74 195.51 599.94 199.42 607.66 203.93 615.07 208.75 621.88 214.15 627.99 220.1 633.65 226.34 638.49 233.08 642.43 240.26 645.81 247.66 648.24 255.44 649.66 263.51 650.54 271.76 650.46 280.24 649.44 288.89 648.03 297.65 645.84 306.54 642.96 315.48 640.01 324.5 636.64 333.54 632.97 342.56 629.66 351.61 626.35 360.62 623.21 369.55 620.82 378.48 618.84 387.31 617.37 395.99 616.9 404.67 617.01 412.99 617.67 420.91 619.23 428.83 621.18 436.35 623.38 443.47 626.18 450.57 628.97 457.28 631.61 463.59 634.45 469.91 636.86 475.87 638.73 481.48 640.91 489.84 640.67 505.6 637.98 513.32 635.38 518.75 631.87 524.25 627.5 529.91 622.65 536.02 617.02 542.41 610.7 549.15 604.01 556.45 596.73 564.16 588.96 572.28 580.94 580.95 572.54 589.98 563.86 599.28 555.04 608.9 546.01 618.58 536.85 628.14 527.65 637.58 518.37 646.55 509.06 654.79 499.76 662.37 490.47 668.83 481.21 673.96 471.98 677.95 462.8 680.34 453.69 681.02 444.61 680.42 435.59 678.14 426.67 674.26 417.76 669.45 408.93 663.42 400.19 656.4 391.45 649.25 383 641.89 374.84 634.67 366.66 628.15 358.76 622.23 351.13 617.06 343.47 613.09 336.06 610.01 328.92 607.81 321.73 606.81 314.78 606.51 308.07 606.77 301.29 607.85 294.73 609.13 288.39 610.42 281.95 612.01 275.69 613.25 269.63 613.96 263.44 614.51 257.4 614.29 251.53 613.23 245.5 611.72 239.61 609.27 233.86 605.89 227.95 601.98 222.16 597.17 216.51 591.55 210.71 585.45 205.06 578.65 199.57 571.24 193.96 563.5 188.55 555.28 183.37 546.7 178.12 537.92 173.14 528.88 168.48 519.68 163.83 510.38 159.55 501 155.69 491.6 151.93 482.17 148.64 472.76 145.87 463.43 143.27 454.09 141.25 444.85 139.83 435.72 138.64 426.61 138.09 417.61 138.21 408.76 138.57 399.92 139.59 391.41 141.21 383.25 143.03 375.07 145.42 367.22 148.32 359.68 151.34 352.11 154.83 344.82 158.72 337.81 162.65 330.73 166.93 323.89 171.52 317.26 176.05 310.52 180.84 303.94 185.85 297.51 190.74 290.9 195.81 284.37 201.05 277.9 206.12 271.2 211.34 264.49 216.69 257.78 221.86 250.79 227.18 243.75 232.63 236.67 237.92 229.34 243.36 221.97 248.96 214.62 254.41 207.1 260.06 199.66 265.89 192.38 271.61 185.1 277.55 178.11 283.71 171.52 289.78 165.15 296.11 159.33 302.67 154.18 309.18 149.47 315.96 145.57 322.99 142.55 329.98 140.09 337.24 138.58 344.77 138.03 352.27 138.01 360.05 138.89 368.09 140.61 376.12 142.63 384.43 145.31 393.02 148.53" stroke-dasharray="1 9" transform="rotate(12.12, 400, 400)" opacity="0.11"></path><path d="M397.68 159.57C405.99 162.67 414.38 165.98 422.85 169.39 431.34 172.42 439.91 175.4 448.55 178.25 457.21 180.57 465.95 182.73 474.75 184.73 483.57 186.21 492.45 187.6 501.34 188.94 510.26 189.9 519.17 190.96 528.05 192.16 536.9 193.19 545.67 194.52 554.28 196.21 562.81 197.91 571.12 200.09 579.13 202.76 586.94 205.59 594.36 208.98 601.29 212.92 607.91 217.1 613.93 221.84 619.26 227.09 624.17 232.6 628.31 238.6 631.6 245.03 634.4 251.67 636.33 258.7 637.35 266.05 637.91 273.56 637.61 281.34 636.49 289.31 635.06 297.4 632.95 305.64 630.24 313.98 627.52 322.38 624.42 330.85 621.08 339.32 618.09 347.82 615.11 356.31 612.27 364.73 610.12 373.16 608.32 381.52 606.95 389.74 606.49 397.97 606.53 405.86 607.04 413.41 608.37 420.95 610.03 428.14 611.93 434.98 614.38 441.82 616.84 448.33 619.18 454.51 621.74 460.72 623.95 466.63 625.7 472.29 627.84 480.8 628.18 497.33 626.09 505.63 624.01 511.47 621.09 517.44 617.37 523.58 613.24 530.15 608.36 537 602.81 544.15 596.91 551.79 590.42 559.77 583.44 568.07 576.2 576.79 568.56 585.76 560.59 594.87 552.47 604.17 544.11 613.41 535.57 622.41 526.96 631.2 518.23 639.43 509.43 646.9 500.62 653.69 491.78 659.39 482.94 663.8 474.11 667.16 465.3 669.04 456.54 669.35 447.8 668.52 439.11 666.16 430.5 662.36 421.9 657.73 413.36 652 404.91 645.36 396.46 638.6 388.28 631.62 380.37 624.73 372.45 618.44 364.78 612.64 357.38 607.48 349.94 603.36 342.74 600.03 335.79 597.48 328.78 596.02 322 595.21 315.44 594.94 308.8 595.48 302.37 596.27 296.13 597.15 289.79 598.39 283.62 599.41 277.62 600.05 271.5 600.65 265.53 600.63 259.7 599.92 253.73 598.89 247.88 597.04 242.17 594.38 236.32 591.28 230.58 587.36 224.99 582.67 219.26 577.57 213.68 571.77 208.27 565.36 202.76 558.62 197.45 551.38 192.37 543.72 187.24 535.85 182.38 527.67 177.84 519.26 173.33 510.74 169.18 502.06 165.43 493.29 161.8 484.48 158.62 475.64 155.95 466.8 153.46 457.96 151.51 449.16 150.15 440.43 149.02 431.71 148.5 423.06 148.63 414.53 148.99 405.99 149.98 397.76 151.56 389.82 153.34 381.87 155.66 374.2 158.48 366.8 161.43 359.36 164.82 352.17 168.62 345.21 172.45 338.17 176.64 331.33 181.13 324.66 185.57 317.87 190.28 311.2 195.2 304.64 200.02 297.92 205.03 291.24 210.21 284.6 215.23 277.75 220.4 270.89 225.71 264.02 230.85 256.92 236.13 249.78 241.53 242.63 246.78 235.29 252.17 227.95 257.7 220.67 263.1 213.29 268.66 206.03 274.39 198.99 280.02 192.01 285.83 185.36 291.85 179.13 297.78 173.16 303.94 167.76 310.31 163.03 316.63 158.74 323.19 155.22 330 152.56 336.76 150.42 343.77 149.18 351.04 148.84 358.29 148.98 365.8 149.96 373.57 151.72 381.33 153.76 389.36 156.4 397.67 159.57" stroke-dasharray="5 3" transform="rotate(16.16, 400, 400)" opacity="0.41"></path><path d="M402.43 170.61C410.45 173.65 418.55 176.9 426.72 180.25 434.91 183.26 443.17 186.24 451.48 189.12 459.81 191.51 468.2 193.77 476.63 195.88 485.06 197.5 493.53 199.02 501.98 200.49 510.43 201.58 518.84 202.72 527.17 203.97 535.46 205.02 543.62 206.3 551.59 207.86 559.45 209.4 567.06 211.32 574.33 213.68 581.4 216.13 588.05 219.08 594.21 222.51 600.06 226.13 605.33 230.26 609.94 234.88 614.17 239.7 617.66 244.99 620.38 250.71 622.68 256.61 624.17 262.91 624.86 269.53 625.16 276.3 624.7 283.36 623.52 290.64 622.11 298.03 620.11 305.6 617.59 313.3 615.1 321.07 612.29 328.92 609.27 336.82 606.58 344.75 603.91 352.69 601.36 360.6 599.43 368.53 597.8 376.4 596.54 384.18 596.08 391.97 596.05 399.47 596.43 406.68 597.54 413.89 598.95 420.8 600.55 427.43 602.68 434.07 604.82 440.44 606.86 446.55 609.14 452.71 611.13 458.65 612.72 464.41 614.78 473.15 615.51 490.48 613.92 499.34 612.27 505.56 609.87 511.92 606.73 518.47 603.23 525.4 599.04 532.58 594.2 540.02 589.05 547.86 583.32 555.96 577.09 564.29 570.62 572.93 563.73 581.69 556.48 590.5 549.08 599.37 541.4 608.07 533.51 616.44 525.53 624.53 517.39 632.02 509.15 638.71 500.87 644.73 492.52 649.69 484.15 653.44 475.77 656.22 467.38 657.63 459.01 657.6 450.66 656.57 442.33 654.16 434.05 650.45 425.78 646.02 417.56 640.58 409.41 634.32 401.26 627.94 393.35 621.34 385.7 614.78 378.03 608.73 370.6 603.08 363.41 597.95 356.19 593.75 349.19 590.21 342.4 587.36 335.57 585.49 328.95 584.21 322.51 583.45 316.01 583.46 309.69 583.76 303.54 584.19 297.31 585.05 291.22 585.77 285.29 586.24 279.24 586.78 273.33 586.83 267.55 586.32 261.64 585.62 255.85 584.23 250.19 582.13 244.41 579.7 238.74 576.53 233.22 572.66 227.58 568.44 222.09 563.55 216.78 558.06 211.38 552.27 206.19 545.97 201.22 539.22 196.24 532.26 191.52 524.95 187.11 517.35 182.74 509.63 178.73 501.7 175.12 493.62 171.63 485.48 168.57 477.24 166.01 468.97 163.62 460.67 161.76 452.35 160.47 444.06 159.4 435.77 158.91 427.5 159.04 419.3 159.41 411.09 160.37 403.13 161.9 395.42 163.62 387.7 165.87 380.2 168.6 372.93 171.46 365.62 174.76 358.51 178.44 351.58 182.17 344.58 186.25 337.72 190.62 331 194.97 324.17 199.58 317.42 204.41 310.75 209.15 303.93 214.08 297.14 219.17 290.37 224.14 283.42 229.26 276.46 234.5 269.49 239.6 262.35 244.84 255.19 250.19 248.05 255.4 240.78 260.74 233.55 266.21 226.42 271.55 219.25 277.05 212.25 282.7 205.51 288.23 198.88 293.95 192.61 299.84 186.79 305.65 181.25 311.66 176.29 317.88 171.98 324.03 168.11 330.4 164.98 337 162.66 343.55 160.84 350.35 159.85 357.38 159.71 364.38 160 371.64 161.06 379.15 162.86 386.64 164.9 394.4 167.51 402.42 170.61" stroke-dasharray="8 5" transform="rotate(20.200000000000003, 400, 400)" opacity="0.08"></path><path d="M407.07 181.65C414.79 184.62 422.59 187.8 430.43 191.08 438.29 194.07 446.21 197.04 454.16 199.94 462.12 202.39 470.12 204.73 478.12 206.94 486.12 208.69 494.12 210.35 502.08 211.95 510.02 213.18 517.88 214.43 525.63 215.75 533.32 216.84 540.84 218.12 548.14 219.62 555.32 221.05 562.21 222.8 568.75 224.91 575.08 227.06 581 229.64 586.42 232.65 593.84 237.59 605.14 249.96 608.82 257.33 610.68 262.55 611.81 268.13 612.23 274.05 612.33 280.11 611.77 286.46 610.57 293.06 609.22 299.75 607.34 306.65 605.03 313.7 602.77 320.82 600.24 328.06 597.53 335.38 595.14 342.72 592.76 350.12 590.47 357.52 588.75 364.94 587.28 372.34 586.12 379.71 585.67 387.07 585.59 394.21 585.84 401.12 586.76 408.02 587.92 414.71 589.26 421.16 591.07 427.64 592.91 433.92 594.66 440.01 596.67 446.16 598.42 452.16 599.85 458.05 601.28 464.05 602.24 470 602.66 475.92 602.91 482.04 602.54 488.2 601.53 494.45 600.24 500.97 598.27 507.64 595.64 514.49 592.7 521.65 589.12 529.03 584.93 536.62 580.46 544.51 575.44 552.59 569.93 560.81 564.2 569.22 558.03 577.66 551.5 586.04 544.81 594.39 537.82 602.49 530.59 610.18 523.26 617.55 515.74 624.27 508.07 630.2 500.37 635.48 492.55 639.74 484.68 642.86 476.79 645.11 468.85 646.1 460.91 645.78 452.97 644.59 445.03 642.15 437.12 638.55 429.21 634.32 421.33 629.18 413.49 623.28 405.65 617.28 398.03 611.05 390.64 604.82 383.23 599.03 376.04 593.54 369.06 588.49 362.05 584.23 355.24 580.54 348.62 577.43 341.96 575.21 335.48 573.52 329.18 572.3 322.81 571.82 316.6 571.62 310.55 571.6 304.41 572.04 298.41 572.43 292.54 572.65 283.66 573.03 266.33 571.56 257.89 569.34 252.19 567.42 246.61 564.86 241.18 561.66 235.65 558.19 230.27 554.09 225.07 549.43 219.82 544.51 214.76 539.07 209.94 533.18 205.11 527.1 200.55 520.63 196.29 513.84 192.09 506.92 188.23 499.74 184.77 492.37 181.42 484.93 178.5 477.33 176.05 469.64 173.78 461.92 172.01 454.12 170.79 446.3 169.77 438.46 169.32 430.61 169.46 422.75 169.82 414.9 170.76 407.23 172.23 399.75 173.9 392.26 176.06 384.95 178.7 377.81 181.46 370.63 184.64 363.6 188.2 356.71 191.81 349.75 195.77 342.9 200.01 336.14 204.25 329.29 208.74 322.5 213.45 315.75 218.1 308.88 222.93 302.02 227.93 295.19 232.83 288.2 237.87 281.22 243.05 274.24 248.09 267.13 253.27 260.04 258.56 253 263.72 245.87 269.01 238.83 274.42 231.93 279.71 225.05 285.14 218.38 290.7 212 296.17 205.76 301.79 199.91 307.57 194.53 313.27 189.45 319.15 184.93 325.22 181.06 331.22 177.6 337.43 174.85 343.83 172.87 350.2 171.35 356.79 170.6 363.59 170.64 370.37 171.06 377.38 172.21 384.63 174.03 391.86 176.06 399.34 178.62 407.06 181.65" stroke-dasharray="1 6" transform="rotate(24.24, 400, 400)" opacity="0.40"></path><path d="M411.4 192.69C418.81 195.59 426.27 198.68 433.77 201.9 441.27 204.84 448.81 207.79 456.36 210.69 463.92 213.19 471.49 215.6 479.03 217.9 486.56 219.78 494.06 221.57 501.48 223.3 508.88 224.67 516.16 226.05 523.3 227.47 530.36 228.64 537.23 229.95 543.85 231.45 550.35 232.82 556.54 234.46 562.36 236.4 570.6 239.47 584.37 247.6 589.69 252.73 593.95 258.43 598.86 271.96 599.48 279.7 599.45 285.08 598.83 290.76 597.66 296.7 596.38 302.72 594.65 308.96 592.55 315.39 590.53 321.87 588.27 328.5 585.86 335.24 583.75 342.02 581.65 348.87 579.61 355.78 578.09 362.7 576.77 369.65 575.7 376.61 575.27 383.57 575.13 390.38 575.28 397.01 576.02 403.64 576.95 410.12 578.04 416.43 579.57 422.77 581.11 428.98 582.59 435.07 584.31 441.22 585.83 447.29 587.07 453.3 588.36 459.42 589.24 465.54 589.67 471.68 589.98 478 589.75 484.39 588.96 490.88 587.95 497.6 586.34 504.46 584.14 511.48 581.68 518.75 578.64 526.19 575.04 533.78 571.19 541.58 566.82 549.5 561.98 557.47 556.93 565.53 551.46 573.55 545.61 581.41 539.62 589.16 533.31 596.6 526.73 603.59 520.06 610.21 513.16 616.18 506.09 621.37 498.98 625.93 491.72 629.54 484.37 632.08 477 633.84 469.55 634.46 462.06 633.9 454.57 632.57 447.05 630.13 439.52 626.64 432 622.63 424.48 617.78 416.97 612.24 409.46 606.61 402.15 600.75 395.02 594.85 387.89 589.32 380.94 584.03 374.17 579.07 367.39 574.8 360.77 571 354.32 567.7 347.84 565.17 341.51 563.12 335.34 561.49 329.11 560.54 323.02 559.88 317.06 559.42 308.08 559.43 290.61 559.44 282.09 558.93 273.55 558.02 256.93 553.56 248.87 549.85 243.48 546.98 238.24 543.56 233.18 539.6 228.08 535.44 223.18 530.77 218.52 525.66 213.87 520.38 209.47 514.71 205.39 508.68 201.36 502.54 197.67 496.1 194.37 489.43 191.18 482.68 188.4 475.74 186.08 468.64 183.92 461.51 182.25 454.26 181.1 446.91 180.15 439.56 179.73 432.14 179.88 424.66 180.23 417.18 181.14 409.82 182.56 402.59 184.15 395.36 186.23 388.24 188.76 381.25 191.41 374.23 194.47 367.3 197.89 360.47 201.38 353.59 205.2 346.78 209.3 340.03 213.41 333.2 217.77 326.41 222.34 319.65 226.88 312.79 231.6 305.94 236.49 299.11 241.29 292.17 246.25 285.24 251.33 278.34 256.31 271.36 261.41 264.41 266.63 257.55 271.73 250.66 276.95 243.89 282.29 237.3 287.52 230.76 292.88 224.47 298.36 218.5 303.74 212.71 309.27 207.31 314.95 202.4 320.54 197.77 326.3 193.71 332.22 190.27 338.09 187.22 344.13 184.85 350.36 183.19 356.54 181.95 362.93 181.43 369.51 181.63 376.07 182.18 382.84 183.39 389.82 185.22 396.79 187.23 403.98 189.74 411.39 192.69" stroke-dasharray="7 4" transform="rotate(28.28, 400, 400)" opacity="0.69"></path><path d="M415.22 203.73C422.3 206.54 429.41 209.55 436.53 212.68 443.66 215.58 450.8 218.49 457.92 221.38 465.05 223.92 472.15 226.38 479.2 228.76 486.24 230.75 493.21 232.67 500.07 234.52 506.89 236.03 513.58 237.54 520.1 239.08 526.53 240.36 532.75 241.74 538.7 243.26 547.28 245.42 562.43 250.87 568.8 254.32 574.34 258.14 582.41 267.68 584.83 273.39 586.32 279.6 586.23 293.75 584.8 301.6 583.62 307 582.06 312.62 580.17 318.46 578.39 324.33 576.4 330.38 574.27 336.58 572.43 342.8 570.58 349.14 568.79 355.57 567.45 362.01 566.27 368.53 565.29 375.11 564.87 381.69 564.69 388.17 564.74 394.55 565.31 400.93 566.05 407.21 566.9 413.4 568.16 419.61 569.43 425.75 570.64 431.83 572.1 437.97 573.38 444.08 574.43 450.18 575.55 456.38 576.33 462.62 576.72 468.9 577.04 475.33 576.9 481.85 576.27 488.48 575.48 495.28 574.16 502.22 572.32 509.27 570.27 516.51 567.69 523.87 564.6 531.32 561.3 538.91 557.52 546.53 553.28 554.13 548.87 561.74 544.04 569.23 538.85 576.51 533.51 583.61 527.86 590.36 521.92 596.61 515.89 602.49 509.62 607.73 503.15 612.2 496.63 616.09 489.94 619.09 483.13 621.11 476.29 622.43 469.34 622.72 462.33 621.95 455.31 620.52 448.23 618.11 441.11 614.75 433.99 610.94 426.85 606.39 419.69 601.2 412.54 595.93 405.53 590.43 398.69 584.87 391.85 579.62 385.15 574.53 378.62 569.7 372.06 565.46 365.65 561.59 359.38 558.15 353.09 555.38 346.92 553.01 340.89 551.03 334.82 549.66 328.86 548.57 323.02 547.68 314.23 547.06 297.09 546.15 288.74 545.42 280.38 544.49 264.14 540.59 256.3 537.44 251.06 535.04 245.99 532.14 241.09 528.77 236.17 525.24 231.46 521.24 226.97 516.81 222.51 512.25 218.31 507.28 214.41 501.96 210.57 496.54 207.07 490.8 203.93 484.79 200.91 478.72 198.28 472.41 196.09 465.9 194.06 459.37 192.49 452.66 191.41 445.81 190.52 438.95 190.14 431.97 190.29 424.88 190.64 417.79 191.51 410.76 192.87 403.81 194.39 396.86 196.38 389.97 198.79 383.16 201.33 376.32 204.25 369.54 207.53 362.83 210.87 356.07 214.54 349.34 218.48 342.66 222.44 335.91 226.65 329.19 231.08 322.49 235.48 315.71 240.07 308.95 244.82 302.21 249.51 295.41 254.36 288.62 259.33 281.89 264.21 275.12 269.22 268.41 274.34 261.82 279.37 255.24 284.51 248.81 289.76 242.59 294.92 236.47 300.19 230.62 305.57 225.1 310.88 219.77 316.31 214.86 321.87 210.41 327.36 206.26 332.99 202.66 338.77 199.64 344.49 196.99 350.38 194.97 356.42 193.63 362.43 192.65 368.61 192.33 374.97 192.69 381.3 193.34 387.83 194.6 394.53 196.43 401.23 198.42 408.12 200.87 415.21 203.73" stroke-dasharray="7 10" transform="rotate(32.32, 400, 400)" opacity="0.11"></path><path d="M418.36 214.77C425.09 217.49 431.84 220.41 438.56 223.44 445.29 226.28 452 229.15 458.67 232.01 465.34 234.56 471.96 237.06 478.5 239.5 485.02 241.59 491.44 243.62 497.74 245.6 503.98 247.25 510.07 248.89 515.97 250.55 524.57 252.69 540.29 257.21 547.23 259.78 558.68 265.78 570.56 277.61 572.51 282.69 573.67 288.17 573.35 300.75 572.01 307.77 570.26 315.13 565.47 331.02 562.75 339.46 561.16 345.16 559.55 351.01 557.98 356.99 556.81 362.98 555.77 369.09 554.87 375.31 554.47 381.52 554.25 387.7 554.22 393.82 554.64 399.95 555.2 406.04 555.84 412.09 556.85 418.16 557.86 424.22 558.82 430.26 560.02 436.35 561.07 442.46 561.92 448.59 562.87 454.81 563.52 461.08 563.85 467.42 564.14 473.87 564.04 480.42 563.52 487.05 562.89 493.83 561.79 500.7 560.23 507.66 558.52 514.73 556.32 521.88 553.67 529.06 550.85 536.3 547.58 543.52 543.89 550.64 540.05 557.73 535.82 564.62 531.23 571.25 526.51 577.67 521.47 583.7 516.15 589.23 510.73 594.38 505.07 598.9 499.19 602.69 493.26 605.96 487.14 608.39 480.87 609.94 474.57 610.87 468.14 610.88 461.62 609.95 455.08 608.45 448.45 606.07 441.76 602.86 435.07 599.26 428.32 595 421.54 590.16 414.75 585.25 408.08 580.11 401.54 574.88 395 569.91 388.58 565.04 382.29 560.37 375.98 556.19 369.79 552.31 363.73 548.77 357.64 545.81 351.66 543.19 345.79 540.9 339.89 539.16 334.09 537.68 328.39 536.39 319.82 535.16 303.1 533.25 294.95 532.21 286.82 531.13 271.06 527.44 263.46 524.65 255.97 521.33 241.85 512.41 235.31 506.82 231.06 502.87 227.07 498.52 223.37 493.83 219.74 489.05 216.42 483.95 213.46 478.56 210.62 473.11 208.15 467.41 206.09 461.47 204.19 455.5 202.73 449.33 201.72 442.98 200.9 436.61 200.56 430.08 200.71 423.4 201.05 416.72 201.88 410.05 203.17 403.41 204.62 396.76 206.51 390.14 208.8 383.55 211.2 376.95 213.99 370.37 217.1 363.81 220.3 357.23 223.8 350.66 227.57 344.11 231.37 337.52 235.41 330.94 239.67 324.38 243.91 317.78 248.35 311.19 252.95 304.64 257.5 298.05 262.21 291.5 267.04 285.03 271.81 278.55 276.71 272.17 281.71 265.92 286.64 259.72 291.67 253.7 296.81 247.92 301.87 242.25 307.04 236.87 312.32 231.84 317.52 227.01 322.84 222.59 328.27 218.63 333.64 214.95 339.14 211.79 344.76 209.19 350.34 206.92 356.06 205.24 361.91 204.18 367.73 203.45 373.71 203.32 379.83 203.81 385.93 204.55 392.2 205.85 398.62 207.67 405.03 209.63 411.61 212.01 418.35 214.77" stroke-dasharray="11 10" transform="rotate(36.36, 400, 400)" opacity="0.73"></path><path d="M420.68 225.81C427.05 228.43 433.41 231.24 439.72 234.18 446.03 236.94 452.3 239.75 458.51 242.57 470.89 247.38 482.95 252.04 494.43 256.5 505.74 259.78 516.28 263.1 525.77 266.62 534.83 269.44 542.58 272.9 548.76 277.15 554.29 281.23 558.09 286.4 560.04 292.66 561.43 299.02 561.14 306.54 559.31 315.1 557.5 323.78 554.72 333.42 551.31 343.84 549.26 351.76 545.73 368.46 544.45 377.19 544.07 383.06 543.82 388.93 543.72 394.8 544.01 400.68 544.4 406.57 544.86 412.45 546.72 424.3 548.4 436.27 549.57 448.37 551.17 460.74 551.64 473.43 550.77 486.38 549.61 499.69 546.8 513.25 542.36 526.8 537.39 540.37 530.81 553.48 522.83 565.56 514.42 576.74 504.81 586.06 494.24 592.85 483.46 597.73 471.93 599.5 459.87 597.9 453.82 596.35 447.66 594.03 441.41 590.98 435.16 587.6 428.82 583.62 422.42 579.12 416.02 574.55 409.7 569.77 403.49 564.87 397.27 560.19 391.14 555.56 385.11 551.07 373.03 543.36 361.3 536.67 349.98 531.11 338.55 527.49 327.43 524.61 316.72 522.11 305.84 520.72 295.31 518.92 285.24 516.32 275.06 513.91 265.38 510.19 256.38 505.06 247.44 499.67 239.32 492.79 232.27 484.53 225.53 476.03 220.06 466.28 216.09 455.5 214.32 450.07 212.96 444.41 212.04 438.54 211.28 432.67 210.97 426.59 211.13 420.33 211.46 414.07 212.25 407.78 213.47 401.47 214.84 395.17 216.62 388.85 218.78 382.53 223.43 369.88 229.45 357.18 236.56 344.53 243.83 331.8 252 319.08 260.86 306.53 269.61 293.98 278.94 281.69 288.71 269.97 298.24 258.56 308.21 248.03 318.54 238.78 328.64 230.36 339.18 223.62 350.12 218.92 360.91 215.4 372.2 214.06 383.96 215 389.82 215.82 395.81 217.14 401.93 218.94 408.04 220.85 414.29 223.15 420.67 225.81" stroke-dasharray="8 4" transform="rotate(40.400000000000006, 400, 400)" opacity="0.89"></path><path d="M422.08 236.85C434.07 241.8 445.87 247.33 457.33 253.07 468.76 257.87 479.76 262.62 490.13 267.22 500.32 270.76 509.71 274.33 518.05 278.05 526.02 281.05 532.73 284.56 537.99 288.71 542.73 292.6 545.91 297.39 547.47 303.14 548.63 308.89 548.34 315.67 546.72 323.43 545.21 331.25 542.86 340.01 539.94 349.59 537.91 359.19 535.87 369.56 534.04 380.62 533.68 391.68 533.68 402.94 533.94 414.3 535.37 425.74 536.6 437.41 537.39 449.26 538.63 461.31 538.91 473.65 538.05 486.17 537.05 498.9 534.61 511.73 530.74 524.35 526.48 536.83 520.76 548.67 513.73 559.37 506.36 569.15 497.82 577.1 488.32 582.68 478.64 586.57 468.16 587.68 457.07 585.79 445.94 582.31 434.3 576.28 422.3 568.08 410.31 559.65 398.53 550.66 387.06 541.81 375.57 534.27 364.35 527.5 353.46 521.63 342.49 517.44 331.8 513.91 321.47 510.77 311.02 508.71 300.91 506.41 291.26 503.55 281.55 501.02 272.33 497.46 263.8 492.73 255.36 487.9 247.73 481.76 241.12 474.36 234.84 466.8 229.75 458.05 226.08 448.24 222.96 438.36 221.39 427.53 221.54 415.87 222.34 404.21 224.81 392.3 228.74 380.31 233.11 368.32 238.77 356.21 245.48 344.13 252.37 332.04 260.13 319.96 268.58 308.11 276.97 296.34 285.94 284.91 295.35 274.12 304.58 263.7 314.23 254.21 324.22 246 334.03 238.58 344.24 232.77 354.78 228.85 365.21 225.98 376.05 225.09 387.28 226.25 398.45 228.17 410.08 231.77 422.07 236.85" stroke-dasharray="3 10" transform="rotate(44.44, 400, 400)" opacity="0.74"></path><path d="M422.49 247.9C433.69 252.62 444.62 257.94 455.12 263.5 465.59 268.27 475.56 273.05 484.85 277.75 493.99 281.51 502.3 285.31 509.58 289.21 516.56 292.43 522.36 296.06 526.83 300.19 532.25 306.27 535.75 322.33 534.26 332.54 533.05 339.65 531.11 347.66 528.65 356.5 526.99 365.33 525.26 374.98 523.62 385.38 523.25 395.78 523.09 406.47 523.11 417.36 524.13 428.31 524.96 439.54 525.39 450.95 526.27 462.5 526.34 474.29 525.44 486.15 524.51 498.1 522.34 510 518.92 521.53 515.23 532.8 510.24 543.33 504.05 552.64 497.59 561.05 490.03 567.71 481.53 572.18 472.87 575.2 463.4 575.74 453.27 573.65 443.1 570.25 432.36 564.61 421.19 557.04 410.02 549.27 398.96 540.91 388.13 532.56 377.28 525.27 366.62 518.51 356.23 512.46 345.79 507.83 335.59 503.75 325.72 500.03 315.78 497.34 306.16 494.53 296.99 491.34 287.8 488.56 279.12 484.99 271.1 480.49 263.2 476 256.08 470.4 249.95 463.68 244.13 456.88 239.44 448.97 236.07 440.04 233.21 431.06 231.79 421.12 231.96 410.33 232.72 399.53 235.02 388.42 238.68 377.16 242.76 365.92 248.04 354.54 254.33 343.18 260.8 331.85 268.13 320.57 276.11 309.56 284.1 298.7 292.65 288.25 301.63 278.48 310.5 269.12 319.78 260.7 329.36 253.53 338.82 247.1 348.63 242.17 358.72 238.99 368.73 236.71 379.08 236.22 389.72 237.57 400.34 239.55 411.29 243.04 422.49 247.9" stroke-dasharray="10 10" transform="rotate(48.48, 400, 400)" opacity="0.40"></path><path d="M421.9 258.94C432.29 263.43 442.33 268.51 451.89 273.86 461.41 278.55 470.38 283.33 478.65 288.08 486.79 292.01 494.11 296 500.45 300.08 509.04 305.41 520.04 317.49 522.27 324.83 523.19 329.8 523.05 335.58 521.93 342.16 521.02 348.7 519.47 356.08 517.43 364.26 516.1 372.42 514.66 381.39 513.2 391.13 512.82 400.87 512.55 410.95 512.34 421.27 513.01 431.64 513.47 442.28 513.57 453.09 514.11 463.97 513.95 475.02 512.98 486.03 512.04 497.03 510.05 507.85 506.99 518.19 503.75 528.18 499.36 537.36 493.9 545.31 488.24 552.42 481.55 557.89 473.97 561.38 466.25 563.63 457.73 563.69 448.54 561.48 439.3 558.19 429.46 552.95 419.14 546 408.81 538.88 398.51 531.16 388.36 523.33 378.2 516.35 368.16 509.71 358.34 503.57 348.51 498.63 338.86 494.11 329.52 489.93 320.16 486.66 311.1 483.35 302.47 479.8 293.87 476.71 285.76 473.02 278.29 468.6 270.97 464.28 264.4 459.04 258.75 452.86 253.42 446.64 249.13 439.43 246.07 431.29 243.47 423.1 242.19 414.01 242.37 404.08 243.09 394.15 245.22 383.88 248.61 373.44 252.38 363.03 257.27 352.48 263.11 341.97 269.14 331.52 275.99 321.17 283.48 311.12 291.01 301.27 299.09 291.87 307.58 283.18 316.02 274.91 324.85 267.57 333.97 261.42 343 255.94 352.35 251.86 361.93 249.35 371.46 247.61 381.26 247.47 391.28 248.96 401.27 250.96 411.51 254.33 421.9 258.94" stroke-dasharray="5 5" transform="rotate(52.52, 400, 400)" opacity="0.83"></path><path d="M420.34 269.98C429.89 274.23 439.04 279.03 447.68 284.15 456.27 288.72 464.3 293.44 471.62 298.18 478.83 302.23 485.25 306.36 490.76 310.59 498.25 316.19 507.77 328.44 509.74 335.58 510.63 340.36 510.61 345.82 509.76 351.98 509.13 358.07 507.93 364.92 506.29 372.51 505.26 380.07 504.07 388.4 502.79 397.48 502.4 406.56 502.03 415.99 501.65 425.64 502.01 435.33 502.14 445.26 501.95 455.31 502.16 465.37 501.78 475.51 500.7 485.53 499.72 495.45 497.85 505.1 495.05 514.17 492.16 522.87 488.27 530.72 483.43 537.38 478.44 543.27 472.53 547.66 465.77 550.27 458.92 551.86 451.28 551.55 442.99 549.27 434.65 546.14 425.7 541.3 416.23 534.96 406.76 528.47 397.25 521.38 387.82 514.11 378.39 507.49 369.04 501.05 359.86 494.96 350.68 489.82 341.67 485.01 332.93 480.46 324.21 476.71 315.77 472.97 307.75 469.07 299.78 465.64 292.29 461.77 285.42 457.34 278.7 453.07 272.69 448.07 267.55 442.28 262.7 436.5 258.82 429.87 256.07 422.41 253.73 414.94 252.59 406.63 252.79 397.55 253.46 388.47 255.42 379.08 258.52 369.53 261.98 360.01 266.47 350.38 271.84 340.81 277.41 331.34 283.76 322 290.71 313.01 297.72 304.23 305.28 295.94 313.23 288.35 321.17 281.17 329.49 274.89 338.07 269.72 346.61 265.14 355.42 261.83 364.43 259.93 373.41 258.67 382.61 258.82 391.95 260.41 401.28 262.41 410.78 265.64 420.34 269.98" stroke-dasharray="8 8" transform="rotate(56.56, 400, 400)" opacity="0.64"></path><path d="M417.87 281.02C426.58 285 434.84 289.52 442.59 294.37 450.29 298.78 457.42 303.38 463.88 308.06 470.24 312.17 475.86 316.38 480.64 320.69 487.17 326.52 495.51 338.98 497.32 346 498.28 353.26 496.94 370.61 495.22 380.86 494.45 387.88 493.49 395.6 492.37 404.01 491.99 412.41 491.54 421.13 491.02 430.03 491.11 438.95 490.97 448.06 490.52 457.21 490.44 466.35 489.85 475.47 488.66 484.39 487.6 493.16 485.79 501.57 483.19 509.37 480.56 516.79 477.08 523.37 472.76 528.81 468.35 533.6 463.11 537.03 457.1 538.89 451.02 539.93 444.22 539.33 436.77 537.04 429.28 534.09 421.2 529.66 412.6 523.92 403.99 518.05 395.3 511.6 386.63 504.9 377.98 498.7 369.36 492.54 360.88 486.58 352.42 481.39 344.1 476.4 336.03 471.62 328 467.51 320.24 463.41 312.88 459.23 305.59 455.47 298.76 451.4 292.5 446.93 286.41 442.64 280.98 437.77 276.36 432.29 272 426.85 268.53 420.7 266.08 413.85 263.99 407 263 399.44 263.21 391.2 263.82 382.95 265.61 374.45 268.43 365.83 271.56 357.24 275.65 348.59 280.54 340.04 285.63 331.6 291.43 323.33 297.81 315.44 304.28 307.76 311.26 300.58 318.62 294.1 326 287.98 333.74 282.7 341.72 278.46 349.69 274.71 357.91 272.09 366.28 270.74 374.65 269.89 383.19 270.28 391.81 271.93 400.44 273.9 409.16 276.95 417.87 281.02" stroke-dasharray="1 2" transform="rotate(60.599999999999994, 400, 400)" opacity="0.78"></path><path d="M414.6 292.06C422.46 295.76 429.86 299.98 436.75 304.52 443.61 308.73 449.91 313.16 455.56 317.71 461.15 321.8 466.06 326.03 470.22 330.36 475.94 336.33 483.34 348.93 485.06 355.85 486.12 362.91 485.48 379.37 484.22 388.91 483.68 395.43 482.92 402.56 481.95 410.27 481.59 417.98 481.08 425.93 480.45 434.02 480.33 442.1 479.96 450.3 479.3 458.47 478.97 466.6 478.18 474.63 476.89 482.38 475.74 489.98 473.96 497.15 471.52 503.7 467.51 512.59 455.8 524.72 448.14 527.25 442.76 527.84 436.71 527.03 430.06 524.8 423.39 522.05 416.15 518.04 408.4 512.87 400.65 507.62 392.79 501.79 384.93 495.68 377.08 489.94 369.24 484.14 361.52 478.43 353.82 473.3 346.24 468.27 338.9 463.39 331.61 459.04 324.57 454.71 317.91 450.32 311.34 446.31 305.19 442.08 299.58 437.56 294.14 433.23 289.29 428.46 285.19 423.23 281.32 418.05 278.25 412.32 276.1 406.03 274.27 399.74 273.41 392.86 273.62 385.44 274.19 378.01 275.79 370.39 278.33 362.72 281.14 355.09 284.81 347.45 289.21 339.95 293.8 332.55 299.05 325.38 304.83 318.6 310.71 312.01 317.07 305.92 323.8 300.49 330.56 295.38 337.65 291.05 344.98 287.65 352.31 284.66 359.87 282.66 367.56 281.77 375.25 281.26 383.08 281.84 390.94 283.51 398.82 285.42 406.74 288.29 414.6 292.06" stroke-dasharray="2 2" transform="rotate(64.64, 400, 400)" opacity="0.68"></path><path d="M410.68 303.1C417.69 306.5 424.26 310.39 430.33 314.61 436.38 318.56 441.9 322.77 446.84 327.12 453.87 333.21 464.67 345.57 468.35 351.94 471.31 358.16 474.16 371.83 474.24 379.47 474.32 384.62 473.99 390.22 473.29 396.27 472.95 402.3 472.36 408.82 471.54 415.82 471.19 422.82 470.65 429.97 469.95 437.18 469.66 444.38 469.11 451.62 468.28 458.75 467.73 465.83 466.79 472.74 465.41 479.33 463.3 488.74 456.38 504.31 451.44 509.83 445.86 513.71 431.63 515.14 423.06 512.53 417.16 510.02 410.73 506.42 403.83 501.83 396.93 497.17 389.91 491.97 382.88 486.47 375.86 481.23 368.83 475.84 361.9 470.46 355 465.51 348.22 460.59 341.65 455.73 335.13 451.3 328.86 446.85 322.93 442.37 317.09 438.21 311.65 433.88 306.7 429.36 301.89 425.01 297.64 420.35 294.05 415.35 290.67 410.41 288 405.06 286.14 399.28 284.55 393.52 283.82 387.31 284.04 380.67 284.55 374.03 285.98 367.3 288.23 360.58 290.71 353.89 293.97 347.26 297.87 340.81 301.95 334.45 306.63 328.35 311.79 322.64 317.06 317.1 322.77 312.05 328.81 307.62 334.91 303.44 341.32 299.97 347.94 297.32 354.58 294.99 361.42 293.53 368.37 293.02 375.33 292.8 382.4 293.51 389.48 295.16 396.57 296.98 403.67 299.64 410.68 303.1" stroke-dasharray="2 8" transform="rotate(68.68, 400, 400)" opacity="0.19"></path><path d="M406.28 314.14C418.61 320.21 429.28 327.89 437.89 336.31 446.38 343.69 452.75 351.81 456.77 360.43 460.79 368.24 462.76 377.09 462.77 387 463.45 396.63 462.87 407.77 461.12 420.29 460.84 432.81 459.6 445.59 457.47 457.81 456.26 469.81 453.48 480.76 449.02 489.55 444.77 497.37 438.4 502.24 430.05 503.3 421.64 502.91 411.22 498.71 399.09 490.79 386.97 482.64 374.41 472.86 362.18 462.66 350.07 453.68 338.42 444.5 327.99 435.37 317.9 427.22 309.3 418.42 302.96 408.85 297.33 399.55 294.27 388.96 294.46 377.22 295.6 365.49 299.87 353.76 306.54 342.82 313.79 332.17 323.11 322.76 333.73 315.5 344.57 309.01 356.51 305.14 368.83 304.49 381.23 304.67 393.95 307.89 406.28 314.14" stroke-dasharray="6 3" transform="rotate(72.72, 400, 400)" opacity="0.19"></path><path d="M401.61 325.18C412.28 330.62 421.47 337.56 428.89 345.27 436.24 352.24 441.81 359.97 445.43 368.15 449.13 375.73 451.13 384.16 451.48 393.33 452.38 402.3 452.12 412.37 450.7 423.38 450.38 434.38 449.06 445.3 446.86 455.47 445.38 465.44 442.55 474.25 438.34 481.07 434.35 487.14 428.63 490.66 421.29 491.03 413.93 490.39 404.88 486.61 394.39 479.75 383.9 472.71 373.05 464.13 362.5 454.99 352.07 446.67 342.06 437.98 333.16 429.26 324.55 421.27 317.26 412.78 311.94 403.85 307.19 395.14 304.65 385.57 304.87 375.33 305.85 365.09 309.5 355.16 315.22 346.15 321.42 337.34 329.44 329.79 338.61 324.17 348 319.1 358.38 316.29 369.09 316.16 379.88 316.6 390.93 319.6 401.61 325.18" stroke-dasharray="3 3" transform="rotate(76.76, 400, 400)" opacity="0.84"></path><path d="M396.86 336.22C405.9 340.99 413.7 347.12 420.02 354 426.31 360.4 431.15 367.53 434.42 375.08 437.79 382.21 439.78 390.02 440.38 398.33 441.43 406.49 441.41 415.42 440.29 424.87 439.95 434.32 438.62 443.42 436.45 451.64 434.82 459.7 432.03 466.59 428.13 471.69 424.41 476.27 419.32 478.72 412.94 478.6 406.57 477.83 398.83 474.53 389.94 468.71 381.04 462.76 371.89 455.4 363.03 447.43 354.26 439.96 345.9 432.02 338.5 423.98 331.35 416.43 325.34 408.5 321 400.36 317.1 392.38 315.04 383.89 315.29 375.12 316.11 366.34 319.16 358.11 323.94 350.85 329.1 343.73 335.82 337.83 343.54 333.61 351.44 329.75 360.21 327.79 369.29 328.04 378.44 328.63 387.81 331.34 396.86 336.22" stroke-dasharray="10 8" transform="rotate(80.80000000000001, 400, 400)" opacity="0.63"></path><path d="M392.25 347.26C399.7 351.33 406.16 356.58 411.44 362.52 416.73 368.18 420.87 374.51 423.78 381.22 426.79 387.67 428.71 394.65 429.48 401.94 430.57 409.13 430.73 416.79 429.87 424.67 429.54 432.54 428.28 439.87 426.23 446.3 423.25 455.21 412.8 465.65 405.14 466.05 399.74 465.25 393.28 462.47 385.94 457.67 378.6 452.78 371.11 446.67 363.91 439.93 356.78 433.49 350.03 426.52 344.1 419.41 338.36 412.61 333.57 405.5 330.16 398.32 327.06 391.25 325.45 383.93 325.71 376.6 326.37 369.27 328.83 362.62 332.7 356.94 336.86 351.33 342.3 346.84 348.57 343.78 355 340.93 362.16 339.63 369.6 340.09 377.09 340.75 384.8 343.12 392.25 347.26" stroke-dasharray="0 4" transform="rotate(84.84, 400, 400)" opacity="0.10"></path><path d="M387.99 358.3C399.79 364.84 408.63 375.16 413.59 386.62 418.86 397.52 421.05 410.21 419.45 422.78 419.19 435.35 415.45 445.31 409.2 450.59 403.41 455.09 394.21 454.09 382.56 446.63 370.91 438.95 359.18 427.5 350.01 415.44 341.33 404.03 335.91 391.46 336.12 379.68 337.41 367.9 344.16 359.01 353.78 354.61 363.85 350.63 376.18 351.58 387.99 358.3" stroke-dasharray="9 8" transform="rotate(88.88, 400, 400)" opacity="0.48"></path><path d="M384.26 369.34C393.03 374.38 399.82 382.4 403.86 391.35 408.12 400.04 410.09 409.96 409.04 419.34 407.15 432.21 392.21 441.62 379.96 435.59 371.29 429.91 362.78 421.23 356.28 411.92 350.07 402.9 346.27 393.04 346.54 384.15 347.43 375.25 352.28 368.91 359.25 366.02 366.49 363.3 375.49 364.2 384.26 369.34" stroke-dasharray="0 5" transform="rotate(92.92, 400, 400)" opacity="0.39"></path><path d="M381.23 380.39C392.84 387.15 400.14 402.15 398.62 414.58 398.37 426.99 389.78 431.77 378.26 424.55 366.73 417.11 356.73 401.65 356.96 389.69 358.32 377.72 369.62 373.42 381.23 380.39" stroke-dasharray="2 8" transform="rotate(96.96, 400, 400)" opacity="0.35"></path></g></svg>