<svg xmlns="http://www.w3.org/2000/svg" version="1.1" xmlns:xlink="http://www.w3.org/1999/xlink" xmlns:svgjs="http://svgjs.dev/svgjs" viewBox="0 0 800 800"><defs><linearGradient x1="50%" y1="0%" x2="50%" y2="100%" id="ccchaos-grad"><stop stop-color="hsl(173.4, 100%, 42%)" stop-opacity="1" offset="0%"></stop><stop stop-color="hsl(173.4, 10%, 42%)" stop-opacity="1" offset="100%"></stop></linearGradient></defs><g stroke-width="2" stroke="url(#ccchaos-grad)" fill="none" stroke-linecap="round"><path d="M378.23 118.25C378.38 101.81 397.18 95.4 410.6 107.35Q419.42 115.11 428.37 123.14 437.26 131.48 445.91 140.12 454.11 149.08 461.7 158.36 468.53 167.96 474.47 177.86 479.44 188.05 483.38 198.49 486.29 209.16 488.2 220.01 489.19 231 489.37 242.09 488.89 253.22 487.94 264.34 486.71 275.39 485.42 286.31 484.3 297.06 483.56 307.57 483.41 317.81 484.05 327.71 485.62 337.25 488.25 346.39 492.02 355.11 496.96 363.38 503.06 371.2 510.27 378.58 518.46 385.51 527.51 392.02 537.21 398.14 547.35 403.9 557.7 409.35 568 414.54 578.01 419.54 587.49 424.41 603.4 434.06 616.01 443.96 622.28 455 624.77 467.12 622.17 481.58 617.7 497.67 615 506.73 612.47 516.37 610.38 526.59 609 537.35 608.55 548.63 609.25 560.38 611.24 572.53 614.64 585.04 619.5 597.82 625.79 610.78 633.47 623.85 642.39 636.94 652.39 649.95 663.23 662.78 674.66 675.36 686.4 687.59C703.19 704.41 705.2 712.28 691.17 698.11Q673.87 678.39 656.56 661.81 639.26 653.39 621.96 655.68 604.65 667.99 587.35 686.59 570.05 705.84 552.75 719.92 535.44 724.54 518.14 718.32 500.84 703.14 483.53 683.59 466.23 665.61 448.93 654.64 431.63 654 414.32 663.89 397.02 681.31 379.72 700.98 362.42 716.95 345.11 724.37 327.81 720.99 310.51 707.85 293.21 688.91 275.9 669.93 258.6 656.64 241.3 653.09 224 660.33 206.69 676.19 189.39 695.85 172.09 713.36 154.79 723.41 137.48 722.95C123.45 714.86 112.27 692.07 116.36 685.36Q121.72 673.92 127.14 660.68 130.06 652.94 133.19 644.55 136.61 635.52 140.35 625.87 144.45 615.64 148.94 604.88 153.81 593.63 159.06 581.97 164.66 569.97 170.56 557.7 176.7 545.24 183.01 532.68 189.4 520.09 195.78 507.57 202.06 495.18 208.15 483.01 213.95 471.12 219.38 459.57 224.38 448.42 228.9 437.71 232.91 427.48 236.39 417.74 239.36 408.52 241.85 399.81 245.5 384.15 248.39 369.87 251.13 357.51 254.49 345.99 259.94 335.25 267.13 324.61 277.55 313.51 289.82 301.79 296.87 295.46 304.3 288.8 311.97 281.79 319.76 274.41 327.51 266.64 335.08 258.49 342.31 249.96 349.08 241.07 355.27 231.84 360.78 222.29 365.54 212.45 369.51 202.37 372.67 192.09 375.06 181.65 376.73 171.09 377.77 160.47 378.28 149.83 378.43 139.22 378.29 123.46 378.23 118.25" stroke-dasharray="1 2" transform="rotate(0, 400, 400)" opacity="0.05"></path><path d="M384.31 128.57C384.05 112.71 402.37 106.35 415.87 117.75Q424.42 125.16 432.88 132.82 441.08 140.77 448.85 149 456.05 157.54 462.54 166.38 468.22 175.52 473.01 184.96 476.86 194.67 479.78 204.64 481.77 214.83 482.9 225.22 483.28 235.77 483.02 246.44 482.27 257.18 481.21 267.94 480.03 278.68 478.92 289.34 478.08 299.87 477.69 310.23 477.93 320.36 478.95 330.22 480.88 339.78 483.81 348.99 487.79 357.82 492.86 366.26 498.97 374.28 506.07 381.87 514.06 389.04 522.8 395.8 532.12 402.15 541.83 408.12 551.72 413.74 561.57 419.06 571.16 424.11 580.29 428.94 595.83 438.19 608.43 447.34 616.82 465.04 617.29 479.21 613.14 493.12 608.25 508.57 605.98 517.24 604.2 526.46 603.11 536.22 602.94 546.49 603.84 557.26 605.95 568.48 609.35 580.1 614.09 592.07 620.15 604.32 627.47 616.77 635.94 629.37 645.41 642.01 655.69 654.63 666.55 667.14C682.66 684.76 685.74 689.99 672.4 674.86Q655.96 657.21 639.51 645.3 623.07 642.46 606.62 649.5 590.18 664.43 573.74 683.07 557.29 700.19 540.85 710.97 524.41 712.4 507.96 704.06 491.52 688.32 475.07 669.57 458.63 653.08 442.18 643.49 425.74 643.48 409.3 653.06 392.85 669.54 376.41 688.29 359.96 704.05 343.52 712.39 327.08 710.98 310.63 700.21 294.19 683.1 277.74 664.46 261.3 649.51 244.85 642.47 228.41 645.29 211.97 657.19 195.52 674.83 179.08 693.26 162.63 707.3 146.19 713.02C132.85 710.34 121.8 691.12 125.45 682.73Q130.51 668.74 135.85 652.92 138.84 643.97 142.09 634.45 145.66 624.4 149.58 613.87 153.85 602.9 158.5 591.56 163.52 579.91 168.87 568.02 174.51 555.97 180.41 543.82 186.49 531.66 192.67 519.56 198.88 507.59 205.04 495.81 211.05 484.29 216.83 473.09 222.3 462.25 227.4 451.81 232.08 441.82 236.28 432.29 239.99 423.24 243.21 414.67 248.04 399.2 251.71 385.08 256.15 364.58 259.78 351.17 264.72 341.06 271.27 330.84 280.84 319.9 292.19 308.25 298.8 301.93 305.81 295.27 313.12 288.27 320.62 280.9 328.17 273.17 335.65 265.09 342.91 256.65 349.83 247.88 356.29 238.8 362.18 229.44 367.43 219.83 371.96 210 375.75 200 378.79 189.86 381.1 179.63 382.73 169.35 383.75 159.06 384.27 148.81 384.36 133.6 384.31 128.57" stroke-dasharray="7 7" transform="rotate(4.04, 400, 400)" opacity="0.09"></path><path d="M390.43 138.87C390.2 123.59 408.04 117.29 421.11 128.18Q436.85 142.53 450.92 157.91 462.38 174.43 470.6 192.08 475.42 210.8 477.13 230.43 476.46 250.74 474.5 271.44 472.57 292.18 472.02 312.6 474.03 332.35 479.49 351.09 488.81 368.55 501.89 384.53 518.08 398.93 536.29 411.76 555.14 423.14 573.08 433.28 588.66 442.51 600.75 451.24 608.62 459.92 612.16 469.02 611.83 479 608.65 490.3 604.05 503.27 599.72 518.14 597.33 535.05 598.32 553.98 603.73 574.78 613.96 597.16 628.79 620.73 647.34 644.97C662.21 662.52 665.48 666.38 652.84 652.2Q637.26 638.34 621.69 631.78 606.11 634.23 590.53 645.05 574.96 661.43 559.38 679.14 543.81 693.57 528.23 701 512.65 699.49 497.08 689.44 481.5 673.45 465.92 655.66 450.35 640.69 434.77 632.42 419.19 632.98 403.62 642.24 388.04 657.8 372.46 675.61 356.89 691.07 341.31 700.17 325.73 700.55 310.16 692.11 294.58 677.04 279 659.24 263.43 643.33 247.85 633.44 232.27 632.12 216.7 639.71 201.12 654.26 185.54 671.98 169.97 688.3 154.39 698.96C141.75 701.5 130.98 686.28 134.35 675.98Q139.22 659.72 144.73 641.32 151.29 621.03 159.14 599.23 168.39 576.38 178.93 552.99 190.43 529.61 202.43 506.74 214.32 484.85 225.49 464.3 235.39 445.39 243.63 428.25 250.01 412.93 254.62 399.31 257.8 387.2 260.11 376.3 262.29 366.25 265.12 356.62 269.32 347.02 275.49 337.02 283.93 326.29 294.66 314.53 307.36 301.54 321.43 287.2 336.02 271.52 350.18 254.56 363 236.49 373.69 217.55 381.74 198.01 386.99 178.19 389.69 158.38 390.43 138.87 390.43 138.87 390.43 138.87" stroke-dasharray="7 2" transform="rotate(8.08, 400, 400)" opacity="0.13"></path><path d="M396.18 149.16C396.43 134.47 413.76 128.26 425.96 138.61Q440.01 152.24 451.96 166.84 461.17 182.5 467.3 199.22 470.42 216.98 470.99 235.64 469.79 255.01 467.88 274.85 466.43 294.86 466.59 314.72 469.33 334.11 475.32 352.71 484.84 370.25 497.72 386.52 513.36 401.35 530.76 414.7 548.71 426.59 565.87 437.16 580.98 446.63 592.99 455.3 601.23 463.54 605.51 471.75 606.11 480.36 603.83 489.78 599.81 500.41 595.47 512.55 592.31 526.44 591.69 542.22 594.7 559.89 601.98 579.36 613.65 600.41 629.25 622.7C642.39 639.28 645.11 643.09 633.18 631.48Q618.46 622.52 603.74 621.41 589.03 628.41 574.31 641.85 559.59 658.53 544.87 674.46 530.15 685.86 515.44 690 500.72 685.9 486 674.53 471.28 658.6 456.56 641.91 441.85 628.45 427.13 621.42 412.41 622.5 397.69 631.43 382.97 646.08 368.25 662.96 353.54 678.05 338.82 687.73 324.1 689.72 309.38 683.52 294.66 670.63 279.94 654.11 265.23 637.9 250.51 625.87 235.79 620.89 221.07 624.15 206.35 634.86 191.63 650.48 176.91 667.28 162.2 681.25C150.26 688.16 139.95 676.85 143.18 664.76Q148.11 646.33 153.89 626.27 160.82 604.93 169.06 582.74 178.59 560.18 189.22 537.71 200.6 515.8 212.24 494.83 223.59 475.16 234.11 457 243.33 440.51 250.92 425.7 256.77 412.51 260.98 400.76 263.88 390.19 265.98 380.49 267.95 371.29 270.48 362.24 274.25 352.94 279.79 343.08 287.42 332.37 297.23 320.58 308.98 307.57 322.21 293.29 336.23 277.76 350.19 261.08 363.26 243.43 374.67 225.02 383.81 206.12 390.38 186.99 394.39 167.92 396.18 149.16 396.18 149.16 396.18 149.16" stroke-dasharray="10 11" transform="rotate(12.12, 400, 400)" opacity="0.16"></path><path d="M401.26 159.43C402.3 145.34 419.11 139.23 430.04 149.05Q442.11 161.97 451.86 175.79 458.89 190.59 463.15 206.4 464.85 223.19 464.57 240.86 463.1 259.26 461.41 278.19 460.53 297.4 461.4 316.61 464.82 335.53 471.28 353.87 480.93 371.38 493.57 387.8 508.63 402.99 525.22 416.82 542.29 429.26 558.67 440.37 573.26 450.27 585.14 459.18 596.89 475.11 598.74 490.95 595.43 499.74 591.34 509.59 587.75 520.8 585.92 533.58 586.93 548.09 591.55 564.37 600.15 582.36 612.64 601.92C623.74 616.81 625.3 621.65 614.04 613.74Q600.16 610.15 586.28 614.03 572.39 624.53 558.51 639.35 544.63 655.25 530.74 668.77 516.86 676.94 502.98 677.98 489.09 671.66 475.21 659.37 461.33 643.78 447.45 628.32 433.56 616.34 419.68 610.49 405.8 612.02 391.91 620.61 378.03 634.39 364.15 650.33 350.27 664.96 336.38 675.08 322.5 678.47 308.62 674.4 294.73 663.75 280.85 648.86 266.97 632.97 253.09 619.56 239.2 611.57 225.32 610.72 211.44 617.22 197.56 629.64 183.67 645.27 169.79 660.69C158.53 670.7 148.86 662.77 152.12 649.31Q157.27 629.44 163.43 608.56 170.78 587.05 179.37 565.34 189.1 543.85 199.74 522.97 210.89 503.05 222.09 484.36 232.85 467.11 242.68 451.4 251.21 437.26 258.17 424.63 263.5 413.35 267.33 403.19 269.95 393.89 271.85 385.13 273.62 376.57 275.88 367.88 279.23 358.77 284.17 348.94 291.02 338.19 299.91 326.35 310.7 313.35 323.03 299.15 336.34 283.82 349.93 267.46 363.04 250.26 374.93 232.41 384.99 214.16 392.8 195.76 398.18 177.44 401.26 159.43 401.26 159.43 401.26 159.43" stroke-dasharray="0 8" transform="rotate(16.16, 400, 400)" opacity="0.20"></path><path d="M405.37 169.7C407.44 156.2 423.67 150.2 433.08 159.51Q442.99 171.73 450.56 184.78 455.6 198.73 458.23 213.63 458.82 229.44 457.97 246.12 456.45 263.53 455.13 281.5 454.88 299.85 456.47 318.32 460.52 336.66 467.37 354.62 477.09 371.94 489.44 388.41 503.89 403.83 519.68 418.07 535.87 431.04 551.47 442.72 565.52 453.18 577.21 462.52 589.88 478.49 593.37 493.3 590.85 500.83 587.21 508.94 583.5 517.95 580.86 528.13 580.29 539.71 582.63 552.84 588.4 567.6 597.79 583.98C606.68 596.72 606.67 603.36 596.06 599.71Q582.97 601.3 569.89 609.25 556.8 621.99 543.72 636.96 530.64 651.19 517.55 661.83 504.47 666.76 491.38 665 478.3 656.9 465.21 644.08 452.13 629.08 439.05 614.91 425.96 604.4 412.88 599.63 399.79 601.56 386.71 609.8 373.62 622.72 360.54 637.73 347.46 651.84 334.37 662.23 321.29 666.84 308.2 664.74 295.12 656.35 282.04 643.35 268.95 628.32 255.87 614.27 242.78 604 229.7 599.56 216.62 601.83 203.53 610.36 190.45 623.45 177.36 638.49C166.75 650.05 157.89 644.65 161.31 630.43Q166.83 610.04 173.42 589.27 181.18 568.49 190.07 548.06 199.92 528.31 210.44 509.53 221.27 491.95 231.96 475.73 242.07 460.95 251.2 447.62 259.03 435.67 265.37 424.97 270.2 415.31 273.66 406.47 277.66 390.04 281.3 373.46 284.26 364.4 288.64 354.54 294.74 343.72 302.73 331.84 312.54 318.86 323.91 304.78 336.41 289.69 349.45 273.7 362.38 256.98 374.54 239.73 385.3 222.16 394.18 204.49 400.89 186.94 405.37 169.7 405.37 169.7 405.37 169.7" stroke-dasharray="6 7" transform="rotate(20.200000000000003, 400, 400)" opacity="0.24"></path><path d="M408.28 179.95C411.51 167.05 427.08 161.19 434.81 169.97Q442.56 181.5 448.07 193.79 451.36 206.9 452.68 220.89 452.46 235.74 451.31 251.41 449.95 267.81 449.11 284.8 449.52 302.22 451.81 319.87 456.41 337.53 463.58 354.98 473.29 372 485.31 388.36 499.15 403.88 514.13 418.4 529.46 431.82 544.28 444.05 557.77 455.11 569.22 465.03 578.09 473.93 584.09 481.96 586.61 496.21 582.97 510.06 579.43 517.47 576.34 525.61 574.63 534.72 575.12 545.03 578.42 556.71 584.89 569.85C591.57 580.24 589.69 589.03 579.69 589.61Q567.36 595.63 555.03 606.44 542.7 620.1 530.37 634.12 518.04 645.96 505.72 653.48 493.39 655.31 481.06 651.13 468.73 641.69 456.4 628.7 444.07 614.51 431.74 601.7 419.41 592.59 407.08 588.82 394.76 591.09 382.43 598.98 370.1 611.06 357.77 625.14 345.44 638.67 333.11 649.2 320.78 654.82 308.45 654.51 296.12 648.33 283.79 637.4 271.46 623.7 259.14 609.7 246.81 597.96 234.48 590.59 222.15 588.93 209.82 593.29 197.49 602.86 185.16 615.93C175.16 627.46 167.22 623.61 170.91 609.34Q176.88 589.41 183.92 569.66 192.04 550.4 201.14 531.89 210.99 514.37 221.3 498.02 231.7 482.95 241.81 469.21 251.23 456.81 259.63 445.65 266.77 435.63 272.51 426.56 279.47 410.49 283.61 395.13 285.01 387.23 286.76 378.83 289.35 369.74 293.19 359.8 298.58 348.91 305.7 337.01 314.53 324.08 324.9 310.17 336.5 295.36 348.85 279.79 361.4 263.6 373.57 246.98 384.77 230.11 394.51 213.19 402.41 196.41 408.28 179.95 408.28 179.95 408.28 179.95" stroke-dasharray="2 3" transform="rotate(24.24, 400, 400)" opacity="0.28"></path><path d="M409.85 190.19C414.22 177.89 429.1 172.17 435.1 180.46Q440.78 191.31 444.46 202.84 446.3 215.12 446.62 228.21 445.9 242.1 444.69 256.77 443.64 272.14 443.38 288.11 444.48 304.56 447.41 321.32 452.5 338.2 459.91 355.03 469.56 371.59 481.2 387.7 494.4 403.16 508.58 417.83 523.05 431.57 537.09 444.28 550 455.91 561.16 466.45 570.09 475.95 576.48 484.5 580.56 499.05 578.53 512.29 572.57 525.72 568.84 540.75 570.09 549.78 573.97 559.96C578.54 568.07 574.76 579.01 565.34 583.24Q553.71 592.51 542.09 604.82 530.47 618.14 518.84 630.29 507.22 639.28 495.6 643.64 483.97 642.66 472.35 636.49 460.73 626.14 449.1 613.32 437.48 600.12 425.86 588.7 414.23 580.93 402.61 578.09 390.99 580.64 379.36 588.17 367.74 599.43 356.12 612.59 344.49 625.49 332.87 636.02 321.25 642.45 309.62 643.73 298 639.65 286.38 630.88 274.75 618.85 263.13 605.54 251.5 593.12 239.88 583.64 228.26 578.63 216.63 578.93 205.01 584.48 193.39 594.38C183.96 604.49 177.04 601.12 181.07 587.52Q187.52 568.95 194.98 550.98 203.38 533.84 212.56 517.7 222.29 502.68 232.27 488.87 242.16 476.28 251.61 464.9 260.31 454.64 267.98 445.38 274.44 436.95 279.6 429.18 285.81 414.69 289.49 400.15 290.72 392.33 292.25 383.9 294.5 374.72 297.83 364.69 302.55 353.73 308.82 341.83 316.68 329.01 326.04 315.32 336.67 300.86 348.19 285.74 360.18 270.12 372.11 254.15 383.49 238.01 393.82 221.86 402.7 205.87 409.85 190.19 409.85 190.19 409.85 190.19" stroke-dasharray="4 10" transform="rotate(28.28, 400, 400)" opacity="0.32"></path><path d="M410 200.41C415.42 188.73 429.55 183.17 433.9 190.95Q437.71 201.12 439.85 211.91 440.57 223.38 440.22 235.58 439.27 248.52 438.22 262.18 437.62 276.52 437.98 291.46 439.75 306.9 443.28 322.7 448.78 338.73 456.34 354.81 465.86 370.79 477.09 386.49 489.65 401.73 503.02 416.38 516.65 430.28 529.91 443.33 542.22 455.45 553.03 466.59 561.94 476.73 568.64 485.91 574.15 501.35 573.78 514.86 568.32 526.93 563.57 539.41 563.25 546.42 564.96 554.19C567.66 560.34 562.09 573.01 553.19 579.95Q542.22 591.08 531.26 603.51 520.29 615.4 509.33 625.01 498.36 630.93 487.39 632.27 476.43 628.85 465.46 621.17 454.5 610.36 443.53 598 432.56 585.93 421.6 575.91 410.63 569.42 399.67 567.42 388.7 570.19 377.73 577.35 366.77 587.82 355.8 600.07 344.83 612.29 333.87 622.69 322.9 629.73 311.93 632.38 300.97 630.25 290 623.65 279.04 613.55 268.07 601.44 257.1 589.11 246.14 578.36 235.17 570.78 224.2 567.49 213.24 568.97 202.27 575C193.37 582.65 187.5 578.84 191.89 566.51Q198.8 549.99 206.59 534.35 215.15 519.7 224.3 506.12 233.78 493.66 243.32 482.31 252.61 472.03 261.36 462.73 269.31 454.29 276.24 446.57 286.05 432.64 292.52 419.19 295.33 404.69 297.78 388.57 299.7 379.27 302.58 369.14 306.66 358.15 312.12 346.31 319.04 333.64 327.38 320.23 336.98 306.16 347.58 291.55 358.83 276.54 370.31 261.26 381.59 245.86 392.22 230.5 405.9 207.86 410 200.41" stroke-dasharray="5 5" transform="rotate(32.32, 400, 400)" opacity="0.35"></path><path d="M408.76 210.62C415.05 199.57 428.38 194.18 431.24 201.47Q433.48 210.97 434.42 221.02 434.35 231.7 433.65 243.02 432.71 255.02 432 267.69 431.94 280.99 432.95 294.88 435.36 309.27 439.41 324.07 445.25 339.16 452.88 354.4 462.21 369.67 472.99 384.8 484.88 399.67 497.46 414.11 510.25 428 522.74 441.22 534.42 453.68 544.85 465.31 553.66 476.04 560.58 485.88 567.38 502.56 568.65 516.97 564.12 528.82 559.09 540.06 557.67 545.79 557.7 551.87C558.84 556.57 551.73 570.32 543.32 578.77Q532.97 590.3 522.61 601.63 512.26 611.26 501.9 617.95 491.55 620.8 481.19 619.44 470.84 614.05 460.48 605.33 450.13 594.45 439.77 582.82 429.42 571.97 419.06 563.33 408.71 558.04 398.35 556.8 388 559.75 377.65 566.53 367.29 576.23 356.94 587.58 346.58 599.09 336.23 609.25 325.87 616.71 315.52 620.51 305.16 620.13 294.81 615.63 284.45 607.6 274.1 597.1 263.75 585.51 253.39 574.34 243.04 565.08 232.68 558.93 222.33 556.71 211.97 558.7C203.57 563.26 198.72 558.36 203.44 547.73Q210.72 533.7 218.73 520.64 227.31 508.58 236.28 497.54 245.38 487.48 254.37 478.34 262.99 470.04 271 462.45 283.86 449.02 293.59 436.37 298.43 423.42 301.28 409.37 302.21 401.4 303.33 392.73 304.97 383.32 307.41 373.12 310.89 362.15 315.6 350.41 321.62 337.97 328.95 324.9 337.5 311.28 347.09 297.23 357.46 282.86 368.29 268.3 379.21 253.67 389.84 239.11 404.28 217.67 408.76 210.62" stroke-dasharray="11 6" transform="rotate(36.36, 400, 400)" opacity="0.39"></path><path d="M406.26 220.82C413.16 210.38 425.63 205.19 427.26 211.99Q428.27 220.83 428.38 230.17 427.86 240.05 427.08 250.52 426.37 261.6 426.12 273.28 426.67 285.56 428.31 298.38 431.31 311.71 435.81 325.46 441.88 339.55 449.52 353.87 458.59 368.31 468.88 382.74 480.11 397.05 491.9 411.11 503.85 424.8 515.56 438 526.61 450.62 536.62 462.56 545.26 473.77 552.3 484.19 557.58 493.8 561.07 502.6 562.41 517.59 560.02 530.64 555.3 541.52 551.9 551.93C551.87 555.73 543.56 569.77 535.63 578.49Q525.85 589.1 516.06 598.37 506.28 605.23 496.5 608.88 486.72 608.89 476.94 605.26 467.15 598.41 457.37 589.15 447.59 578.55 437.81 567.85 428.03 558.3 418.24 551 408.46 546.82 398.68 546.24 388.9 549.33 379.12 555.72 369.33 564.67 359.55 575.14 349.77 585.91 339.99 595.72 330.21 603.43 320.42 608.13 310.64 609.28 300.86 606.75 291.08 600.83 281.3 592.21 271.51 581.9 261.73 571.09 251.95 561.06 242.17 552.96 232.39 547.75 222.61 546.02C214.67 547.34 210.75 541 215.77 532.23Q223.29 520.84 231.36 510.35 239.81 500.75 248.44 492 257.05 484.01 265.4 476.71 273.29 469.99 280.52 463.7 291.94 451.95 300.5 440.29 304.71 427.46 307.18 413.25 307.97 405.12 308.92 396.32 310.29 386.81 312.34 376.6 315.27 365.7 319.27 354.15 324.43 342 330.77 329.33 338.27 316.22 346.81 302.77 356.2 289.08 366.2 275.27 376.52 261.44 386.85 247.68 401.57 227.47 406.26 220.82" stroke-dasharray="9 3" transform="rotate(40.400000000000006, 400, 400)" opacity="0.43"></path><path d="M402.69 231C409.9 221.2 421.49 216.22 422.18 222.52Q422.34 230.72 421.96 239.35 421.31 248.46 420.68 258.09 420.37 268.26 420.67 278.98 421.84 290.23 424.09 302.01 427.6 314.26 432.46 326.94 438.69 339.97 446.25 353.29 455.01 366.81 464.78 380.42 475.32 394.02 486.32 407.52 497.46 420.8 508.4 433.77 518.8 446.33 528.34 458.39 536.75 469.88 543.82 480.72 549.4 490.89 553.42 500.34 556.3 516.73 555.47 531.07 551.29 542.6 547.23 552.97C546.4 556.42 537.34 569.94 529.84 577.84Q520.61 586.48 511.37 593.07 502.13 596.95 492.89 597.71 483.66 595.27 474.42 589.89 465.18 582.12 455.94 572.75 446.71 562.75 437.47 553.14 428.23 544.91 418.99 538.9 409.76 535.73 400.52 535.73 391.28 538.89 382.04 544.89 372.8 553.12 363.57 562.73 354.33 572.73 345.09 582.1 335.85 589.88 326.62 595.26 317.38 597.71 308.14 596.95 298.9 593.09 289.66 586.49 280.43 577.86 271.19 568.07 261.95 558.12 252.71 549.04 243.47 541.76 234.24 537.03C226.74 535.41 223.64 527.57 228.81 520.66Q236.42 511.75 244.38 503.58 252.53 496.1 260.7 489.24 268.69 482.9 276.33 476.99 289.49 466.02 300.35 455.27 306.94 443.78 311.22 431.22 313.03 416.14 314.53 399.26 315.67 389.72 317.36 379.56 319.79 368.81 323.13 357.52 327.48 345.73 332.89 333.53 339.35 320.99 346.81 308.19 355.14 295.23 364.18 282.18 373.71 269.16 383.48 256.23 397.96 237.24 402.69 231" stroke-dasharray="3 10" transform="rotate(44.44, 400, 400)" opacity="0.47"></path><path d="M398.31 241.18C405.52 232.01 416.22 227.25 416.29 233.08Q415.43 248.79 414.61 265.75 414.81 275.03 415.71 284.8 417.49 295.05 420.3 305.78 424.24 316.95 429.36 328.54 435.65 340.49 443.06 352.75 451.46 365.26 460.68 377.93 470.53 390.7 480.75 403.47 491.08 416.16 501.25 428.69 510.98 440.96 520.01 452.91 528.13 464.44 535.14 475.5 540.91 486.02 545.35 495.97 549.63 513.67 550.4 529.46 547.22 542.26 543.28 553.53C542.02 557.1 532.67 569.39 525.6 575.62Q516.88 581.62 508.17 585.28 499.46 586.28 490.75 584.52 482.04 580.16 473.32 573.59 464.61 565.4 455.9 556.32 447.19 547.17 438.48 538.76 429.76 531.84 421.05 527.04 412.34 524.79 403.63 525.28 394.92 528.48 386.2 534.09 377.49 541.61 368.78 550.38 360.07 559.6 351.36 568.45 342.65 576.14 333.93 581.98 316.51 584.86 299.09 579.73 290.38 573.02 281.66 564.73 272.95 555.62 264.24 546.49 255.53 538.17 246.82 531.4C239.75 527.46 237.32 518.38 242.53 513.11Q250.02 506.3 257.7 500.03 265.39 494.2 272.96 488.74 286.84 478.61 299.07 468.73 307.75 458.31 314.12 447.06 317.2 433.73 319 418.87 319.55 410.48 320.19 401.53 321.1 392.03 322.47 382 324.46 371.49 327.2 360.53 330.8 349.19 335.32 337.53 340.78 325.61 347.17 313.5 354.41 301.29 362.39 289.05 370.96 276.85 379.94 264.76 393.72 247.02 398.31 241.18" stroke-dasharray="9 8" transform="rotate(48.48, 400, 400)" opacity="0.51"></path><path d="M393.46 251.34C400.38 242.81 410.19 238.29 409.93 243.65Q409.16 258.02 409.04 273.48 409.81 281.9 411.3 290.74 413.65 300.02 416.93 309.71 421.21 319.82 426.49 330.31 432.76 341.16 439.94 352.33 447.93 363.77 456.58 375.42 465.73 387.23 475.17 399.13 484.7 411.06 494.1 422.94 503.15 434.71 511.66 446.3 519.42 457.63 526.29 468.64 532.14 479.28 536.88 489.48 540.47 499.21 542.93 508.43 544.25 524.96 543.06 539.81 541.45 546.28 539.61 552.24C538.27 556.23 529.05 566.79 522.4 570.83Q506.02 574.75 489.64 569.47 473.25 556.59 456.87 540 440.49 524.73 424.1 515.41 407.72 514.87 391.34 523.26 374.95 538.05 358.57 554.75 342.19 568.3 325.8 574.6 309.42 571.74 293.04 560.59 276.65 544.51 260.27 528.4C253.62 522.99 251.66 513.13 256.76 509.16Q271.11 499.12 285.13 489.75 297.42 480.69 308.06 471.35 315.45 460.85 320.83 449.3 323.42 435.59 324.92 420.44 325.36 412 325.87 403.09 326.59 393.72 327.68 383.92 329.26 373.74 331.46 363.21 334.38 352.38 338.08 341.32 342.6 330.07 347.95 318.71 354.09 307.29 360.96 295.86 368.47 284.51 376.49 273.26 389.16 256.77 393.46 251.34" stroke-dasharray="2 1" transform="rotate(52.52, 400, 400)" opacity="0.54"></path><path d="M388.48 261.49C394.85 253.6 403.77 249.34 403.47 254.24Q403.07 267.16 404.08 281.3 407.49 296.83 413.99 313.84 423.85 332.3 436.89 352.09 452.48 372.99 469.59 394.67 486.97 416.75 503.27 438.8 517.28 460.38 528.03 481.03 535.01 500.38 538.21 518.12 538.15 534.01 535.81 547.98C534.66 552.54 525.97 561.1 519.75 562.81Q504.41 561.51 489.08 552.9 473.74 539.19 458.41 523.94 443.07 511.11 427.74 504.02 412.4 504.5 397.07 512.44 381.73 525.77 366.4 541.04 351.06 554.3 335.73 562.1 320.39 562.42 305.06 555.18 289.72 542.26 274.38 527.01C268.17 521.07 266.49 511.01 271.34 507.89Q284.64 499.58 297.1 491.35 308.01 482.73 316.82 473.27 323.29 462.6 327.47 450.43 329.76 436.61 330.83 421.1 331.58 403.95 332.97 385.35 335.93 365.56 341.19 344.93 349.2 323.82 360.03 302.63 373.35 281.75 388.48 261.49 388.48 261.49 388.48 261.49" stroke-dasharray="2 4" transform="rotate(56.56, 400, 400)" opacity="0.58"></path><path d="M383.74 271.63C389.36 264.39 397.42 260.4 397.3 264.84Q397.73 276.51 399.86 289.2 404.3 303.06 411.46 318.17 421.41 334.54 433.89 352.12 448.36 370.76 464 390.26 479.84 410.35 494.86 430.72 508.1 451.02 518.8 470.91 526.45 490.05 530.91 508.12 532.38 524.86 531.46 540.08C530.7 545.17 522.84 551.73 517.05 551.31Q502.8 545.84 488.54 535.19 474.28 521.7 460.03 508.3 445.77 497.94 431.51 492.86 417.26 494.19 403 501.63 388.74 513.55 374.48 527.36 360.23 540.03 345.97 548.79 331.71 551.73 317.45 548.21 303.2 538.99 288.94 526.09C283.16 520.45 281.61 510.79 286.05 508.13Q297.96 500.61 308.79 492.63 318.03 483.85 325.36 473.99 330.66 462.84 334.05 450.28 335.9 436.26 336.75 420.83 337.32 404.11 338.36 386.29 340.59 367.62 344.66 348.37 350.97 328.85 359.71 309.36 370.76 290.2 383.74 271.63 383.74 271.63 383.74 271.63" stroke-dasharray="3 9" transform="rotate(60.599999999999994, 400, 400)" opacity="0.62"></path><path d="M379.59 281.76C384.32 275.17 391.56 271.46 391.77 275.46Q393.23 285.9 396.44 297.19 401.75 309.44 409.34 322.72 419.16 337.07 430.95 352.47 444.24 368.85 458.4 386.07 472.72 403.98 486.43 422.36 498.8 440.97 509.23 459.56 517.29 477.84 522.74 495.56 525.62 512.47 526.21 528.35C525.95 533.78 519.15 538.54 513.82 536.44Q500.69 528.18 487.55 516.81 474.41 504.4 461.27 493.19 448.14 485.22 435 481.92 421.86 483.91 408.72 490.81 395.59 501.38 382.45 513.7 369.31 525.54 356.17 534.75 343.03 539.67 329.9 539.4 316.76 533.99 303.62 524.42C298.29 519.73 296.74 511.01 300.66 508.46Q310.97 500.97 320.08 492.69 327.69 483.44 333.63 473.08 337.87 461.51 340.56 448.72 342.02 434.75 342.68 419.67 343.09 403.63 343.82 386.81 345.45 369.41 348.48 351.66 353.28 333.8 360.08 316.06 368.9 298.64 379.59 281.76 379.59 281.76 379.59 281.76" stroke-dasharray="11 10" transform="rotate(64.64, 400, 400)" opacity="0.66"></path><path d="M376.33 291.89C380.12 285.95 386.57 282.54 387.19 286.1Q389.72 295.36 393.88 305.29 399.82 315.99 407.59 327.52 417.08 339.93 428.04 353.22 440.11 367.36 452.81 382.29 465.61 397.91 477.98 414.08 489.38 430.66 499.35 447.47 507.52 464.31 513.67 481 517.71 497.32 519.75 513.1C520.03 518.6 514.41 521.92 509.55 518.76Q497.59 509.2 485.63 498.27 473.66 487.58 461.7 478.72 449.73 472.98 437.77 471.21 425.8 473.67 413.84 480 401.87 489.26 389.91 500.1 377.94 510.91 365.98 520.11 354.01 526.34 342.05 528.69 330.08 526.8 318.12 520.96C313.26 517.64 311.61 510.21 314.93 507.54Q323.51 499.61 330.92 490.8 336.98 481.03 341.64 470.26 344.93 458.49 347.01 445.75 348.12 432.11 348.62 417.67 348.89 402.57 349.38 386.95 350.5 370.99 352.65 354.85 356.15 338.71 361.21 322.73 372.14 299.48 376.33 291.89" stroke-dasharray="3 11" transform="rotate(68.68, 400, 400)" opacity="0.70"></path><path d="M374.23 302C377.1 296.7 382.77 293.62 383.81 296.75Q387.31 304.85 392.19 313.47 398.49 322.69 406.19 332.57 415.15 343.13 425.16 354.41 435.96 366.39 447.2 379.05 458.52 392.34 469.53 406.19 479.86 420.51 489.17 435.21 497.2 450.14 503.72 465.2 508.62 480.22 511.89 495.08C512.68 500.38 508.25 502.66 503.9 499.1Q493.16 489.62 482.42 480.04 471.68 471.49 460.95 464.96 450.21 461.22 439.47 460.7 428.73 463.46 417.99 469.18 407.25 477.19 396.52 486.56 385.78 496.19 375.04 504.97 364.3 511.87 353.56 516.07 342.82 517.11 332.08 514.84C327.73 513.03 325.92 507.08 328.62 504.21Q335.44 495.71 341.22 486.41 345.86 476.31 349.39 465.4 351.85 453.74 353.39 441.38 354.21 428.41 354.55 414.9 354.72 400.98 355 386.77 355.72 372.37 357.16 357.93 359.57 343.56 363.14 329.38 371.12 308.75 374.23 302" stroke-dasharray="9 7" transform="rotate(72.72, 400, 400)" opacity="0.73"></path><path d="M373.46 312.11C375.48 307.47 380.42 304.72 381.82 307.42Q386.05 314.4 391.35 321.77 397.72 329.58 405.09 337.88 413.34 346.71 422.31 356.08 431.8 366.01 441.59 376.49 451.43 387.5 461.07 399.01 470.26 410.98 478.76 423.35 486.37 436.06 492.94 449.03 498.34 462.18 502.5 475.42C503.7 480.19 500.4 481.89 496.55 478.5Q487.1 470.21 477.64 462.6 468.18 456.34 458.73 451.99 449.27 449.95 439.81 450.4 430.35 453.29 420.89 458.36 411.44 465.18 401.98 473.11 392.52 481.46 383.06 489.48 373.6 496.44 364.15 501.74 354.69 504.88 345.23 505.59C341.39 505.17 339.43 500.69 341.49 497.64Q346.64 488.77 350.92 479.27 354.31 469.18 356.85 458.53 358.61 447.37 359.7 435.77 360.27 423.78 360.5 411.49 360.57 398.98 360.71 386.33 361.11 373.62 361.99 360.95 363.53 348.39 365.88 336.02 371.31 318.01 373.46 312.11" stroke-dasharray="1 6" transform="rotate(76.76, 400, 400)" opacity="0.77"></path><path d="M374.12 322.2C375.42 318.23 379.65 315.82 381.29 318.11Q391.33 330.15 404.26 343.47 419.47 358.28 435.98 374.71 452.62 392.79 468.13 412.42 481.39 433.39 491.56 455.38C493.02 459.43 490.71 460.86 487.42 458.09Q471.15 446.33 454.88 439.82 438.61 440.27 422.34 447.54 406.08 459.77 389.81 473.77 373.54 485.92 357.27 493.06C353.97 493.71 351.93 490.56 353.4 487.48Q360 469.4 364.05 449.82 365.95 429.08 366.44 407.57 366.47 385.71 367.12 363.93 369.39 342.64 374.12 322.2 374.12 322.2 374.12 322.2" stroke-dasharray="2 1" transform="rotate(80.80000000000001, 400, 400)" opacity="0.81"></path><path d="M376.22 332.29C376.95 328.98 380.49 326.93 382.21 328.81Q392.03 338.64 403.66 349.32 416.63 361.01 430.37 373.8 444.17 387.75 457.33 402.87 469.17 419.09 479.13 436.3C480.69 439.48 479.2 440.86 476.45 438.93Q462.9 431.53 449.34 428.47 435.79 430.31 422.24 436.72 408.69 446.54 395.13 457.98 381.58 468.97 368.03 477.53C365.28 478.82 363.26 476.73 364.21 473.82Q368.44 457.09 370.97 439.6 372.13 421.58 372.39 403.29 372.3 384.98 372.52 366.89 374.93 340.78 376.22 332.29" stroke-dasharray="1 4" transform="rotate(84.84, 400, 400)" opacity="0.85"></path><path d="M379.65 342.38C380 339.72 382.83 338.06 384.49 339.55Q393.37 347.24 403.23 355.46 413.79 364.29 424.75 373.8 435.74 384.04 446.4 395.04 456.38 406.79 465.37 419.28C466.87 421.62 465.98 423 463.8 421.95Q453 418.43 442.2 417.93 431.39 420.53 420.59 425.91 409.79 433.45 398.98 442.27 388.18 451.34 377.38 459.6C375.19 461.09 373.31 459.77 373.86 457.22Q376.26 442.89 377.66 428.29 378.26 413.56 378.35 398.83 378.2 384.24 378.16 369.89 379.09 349.14 379.65 342.38" stroke-dasharray="0 5" transform="rotate(88.88, 400, 400)" opacity="0.89"></path><path d="M384.25 352.45C384.36 350.46 386.51 349.19 387.91 350.29Q402.92 361.86 419.12 374.72 435.38 389.12 450.5 405.2C451.77 406.74 451.32 408.06 449.68 407.72Q433.6 408.15 417.51 415.09 401.42 426.76 385.33 440.12C383.69 441.44 382.11 440.62 382.37 438.62Q384.1 416.4 384.31 394.36 383.99 372.93 384.25 352.45 384.25 352.45 384.25 352.45" stroke-dasharray="3 5" transform="rotate(92.92, 400, 400)" opacity="0.92"></path><path d="M389.76 362.53C389.76 361.19 391.21 360.33 392.23 361.06Q402.68 368.54 413.49 376.55 424.31 385.17 434.8 394.48C435.72 395.36 435.52 396.46 434.45 396.55Q423.83 399.07 413.21 404.28 402.59 411.59 391.96 420.13C390.89 421.03 389.73 420.51 389.81 419.18Q390.32 404.48 390.27 390.06 389.87 369.29 389.76 362.53" stroke-dasharray="2 2" transform="rotate(96.96, 400, 400)" opacity="0.96"></path></g></svg>