<svg xmlns="http://www.w3.org/2000/svg" version="1.1" xmlns:xlink="http://www.w3.org/1999/xlink" xmlns:svgjs="http://svgjs.dev/svgjs" viewBox="0 0 800 800"><defs><linearGradient x1="50%" y1="0%" x2="50%" y2="100%" id="ccchaos-grad"><stop stop-color="hsl(173.4, 100%, 42%)" stop-opacity="1" offset="0%"></stop><stop stop-color="hsl(173.4, 10%, 42%)" stop-opacity="1" offset="100%"></stop></linearGradient></defs><g stroke-width="2" stroke="url(#ccchaos-grad)" fill="none" stroke-linecap="round"><path d="M421.3 104.43C431.67 102.75 442.06 101.9 452.43 101.88 462.77 102.25 473.03 103.48 483.09 105.53 493.03 107.97 502.63 111.19 511.74 115.15 520.52 119.42 528.6 124.33 535.8 129.83 542.46 135.51 548.04 141.68 552.44 148.26 556.26 154.9 558.92 161.86 560.53 169.08 561.94 176.23 562.76 183.59 563.35 191.11 564.72 198.48 566.72 205.98 569.88 213.58 574.98 221.01 581.97 228.53 591.1 236.14 602.48 243.57 615.76 251.11 630.47 258.77 645.9 266.26 661.16 273.91 675.12 281.71 686.92 289.38 695.48 297.24 699.97 305.3 700.55 313.27 696.85 321.47 689.41 329.91 679.97 338.3 669.27 346.94 658.94 355.86 651.26 364.74 646.95 373.92 647.01 383.38 652.14 392.83 661.5 402.59 673.95 412.65 688.11 422.71 701.31 432.85 711.66 443.03 718.3 453.22 719.73 463.45 715.81 473.7 707.39 483.95 695.07 494.19 680.31 504.39 664.81 514.57 649.87 524.67 636.8 534.62 626.68 544.51 619.82 554.21 616.23 563.64 616.01 572.92 618.1 581.86 621.61 590.38 626.31 598.65 630.62 606.41 633.76 613.56 635.79 620.37 635.58 626.49 632.97 631.84 628.41 636.79 621.51 640.92 612.65 644.19 602.3 647.06 590.64 649.09 578.14 650.29 565.06 651.2 551.77 651.4 538.58 650.94 525.47 650.44 512.76 649.5 500.56 648.21 488.68 647.24 477.32 646.19 466.44 645.2 455.86 644.88 445.64 644.85 435.71 645.22 425.94 646.51 416.33 648.33 406.84 650.7 397.4 654.03 388 657.84 378.63 662.06 369.26 666.98 360.14 671.92 351.28 676.69 342.44 681.67 333.91 686.12 325.74 689.89 317.61 693.38 309.9 695.9 302.63 697.36 295.43 698.2 288.69 697.83 282.43 696.26 276.17 693.94 270.31 690.42 264.82 685.78 259.14 680.45 253.65 674.11 248.24 666.89 242.39 659.17 236.4 650.73 230.18 641.72 223.3 632.43 216.07 622.72 208.48 612.72 200.29 602.64 191.86 592.39 183.35 582.05 174.7 571.76 166.34 561.46 158.54 551.19 151.25 541.05 144.91 530.95 139.72 520.94 135.41 511.06 132.32 501.24 130.39 491.49 129.04 481.85 128.44 472.25 128.36 462.68 128 453.19 127.57 443.7 126.86 434.21 125.23 424.76 123.14 415.29 120.65 405.8 117.49 396.32 114.4 386.8 111.73 377.26 109.39 367.73 108.19 358.39 108.32 349.28 109.41 340.17 111.89 331.29 115.59 322.66 119.89 314.04 124.89 305.7 130.27 297.64 135.34 289.61 140.23 281.89 144.75 274.51 148.4 267.16 151.59 260.15 154.41 253.51 156.54 246.89 158.66 240.63 160.99 234.75 163.31 228.86 166.31 223.32 170.14 218.14 174.55 212.91 180 207.99 186.48 203.37 193.69 198.63 201.83 194.13 210.74 189.87 220.16 185.41 230.09 181.11 240.36 176.97 250.78 172.55 261.32 168.24 271.86 164.02 282.29 159.49 292.64 155.03 302.86 150.66 312.87 145.98 322.78 141.42 332.62 137 342.27 132.35 351.93 127.92 361.64 123.77 371.24 119.54 380.99 115.69 390.91 112.33 400.79 109.06 410.91 106.4 421.29 104.43" stroke-dasharray="0 1" transform="rotate(0, 400, 400)" opacity="0.05"></path><path d="M422.39 115.15C432.39 113.48 442.23 112.61 451.85 112.53 461.44 112.82 470.75 113.92 479.68 115.82 488.47 118.08 496.75 121.11 504.4 124.83 511.76 128.87 518.33 133.54 524.01 138.78 529.28 144.21 533.59 150.13 536.92 156.47 539.95 162.88 542.18 169.63 543.76 176.66 545.56 183.66 547.24 190.87 549.16 198.26 552.19 205.53 556.18 212.95 561.54 220.48 568.78 227.85 577.79 235.33 588.63 242.91 601.19 250.32 615.04 257.84 629.62 265.46 644.23 272.94 658.01 280.55 670 288.29 679.56 295.92 685.8 303.71 688.18 311.68 687.07 319.56 682.27 327.65 674.4 335.94 665.17 344.18 655.2 352.65 645.97 361.36 639.44 370.04 636.15 378.98 636.88 388.18 642.21 397.36 651.3 406.82 663.14 416.55 676.54 426.28 689.1 436.05 699.14 445.85 705.97 455.64 708.11 465.46 705.35 475.25 698.4 485.03 687.59 494.78 674.15 504.45 659.54 514.08 644.91 523.59 631.47 532.93 620.3 542.19 611.85 551.22 606.31 559.95 603.93 568.53 603.99 576.74 605.82 584.5 609.28 592.04 613.03 599.04 616.29 605.45 619.74 614.27 615.29 627.84 606.82 632.44 599.04 634.92 589.72 636.64 579.26 637.63 567.95 638.4 556.05 638.55 543.87 638.14 531.47 637.76 519.16 636.99 507.1 635.96 495.17 635.26 483.6 634.51 472.46 633.83 461.51 633.8 450.94 634.03 440.74 634.63 430.66 636.08 420.86 637.99 411.32 640.37 401.83 643.63 392.53 647.31 383.41 651.33 374.29 656 365.56 660.66 357.2 665.16 348.84 669.86 340.88 674.08 333.33 677.68 325.78 681.06 318.65 683.55 311.95 685.09 305.24 686.09 298.93 685.99 292.99 684.78 286.94 682.91 281.17 679.92 275.61 675.87 269.74 671.19 263.92 665.54 258.04 659.03 251.66 652.03 245.05 644.31 238.16 636 230.67 627.38 222.86 618.32 214.77 608.91 206.25 599.38 197.65 589.62 189.13 579.73 180.68 569.84 172.7 559.88 165.42 549.92 158.76 540.03 153.14 530.17 148.68 520.36 145.08 510.65 142.61 500.98 141.22 491.39 140.26 481.89 139.94 472.42 139.99 463.02 139.67 453.67 139.2 444.35 138.38 435.06 136.63 425.81 134.39 416.56 131.77 407.32 128.51 398.1 125.32 388.88 122.54 379.68 120.09 370.48 118.76 361.5 118.73 352.77 119.65 344.04 121.95 335.56 125.5 327.34 129.69 319.13 134.64 311.2 140.05 303.56 145.25 295.94 150.35 288.62 155.15 281.64 159.14 274.66 162.65 268.01 165.73 261.72 168.06 255.42 170.22 249.46 172.43 243.85 174.45 238.2 176.94 232.88 180.08 227.88 183.63 222.8 188.09 218 193.5 213.47 199.59 208.8 206.62 204.35 214.49 200.1 222.94 195.64 232.03 191.33 241.61 187.16 251.5 182.72 261.66 178.37 271.96 174.12 282.32 169.57 292.69 165.09 303 160.71 313.24 156.05 323.39 151.51 333.45 147.12 343.39 142.54 353.29 138.17 363.15 134.1 372.95 129.95 382.76 126.19 392.62 122.9 402.46 119.71 412.38 117.1 422.38 115.15" stroke-dasharray="8 3" transform="rotate(4.04, 400, 400)" opacity="0.09"></path><path d="M419.54 125.88C429.08 124.22 438.29 123.33 447.14 123.19 455.95 123.4 464.32 124.38 472.19 126.13 479.93 128.22 487.06 131.03 493.5 134.53 499.72 138.33 505.18 142.74 509.81 147.71 514.23 152.89 517.87 158.54 520.8 164.62 523.72 170.79 526.19 177.31 528.43 184.12 531.19 190.92 534.22 197.96 537.85 205.18 542.72 212.33 548.72 219.62 556.11 227.04 565.16 234.34 575.73 241.75 587.69 249.25 600.79 256.62 614.58 264.1 628.46 271.66 641.77 279.1 653.76 286.66 663.61 294.34 670.92 301.91 674.99 309.63 675.49 317.49 672.99 325.28 667.38 333.24 659.34 341.39 650.49 349.48 641.37 357.77 633.25 366.28 627.83 374.75 625.48 383.45 626.81 392.38 632.28 401.3 641.09 410.45 652.32 419.83 664.98 429.22 676.9 438.62 686.62 448 693.56 457.39 696.31 466.76 694.61 476.07 689.04 485.37 679.73 494.6 667.67 503.71 654.13 512.78 640.06 521.7 626.59 530.4 614.74 539.02 605.04 547.38 597.82 555.41 593.45 563.3 591.48 570.8 591.45 577.84 593.32 584.67 595.99 590.98 598.78 596.7 602.72 604.55 602.75 616.48 597.62 620.46 592.29 622.61 585.38 624.1 577.14 624.93 567.96 625.62 557.89 625.78 547.22 625.45 536.13 625.2 524.8 624.64 513.47 623.86 502.05 623.42 490.82 622.97 479.86 622.59 468.97 622.82 458.4 623.3 448.18 624.1 438.04 625.68 428.21 627.66 418.7 630.05 409.23 633.24 400.03 636.78 391.11 640.61 382.19 645.03 373.73 649.42 365.72 653.65 357.68 658.08 350.08 662.07 342.9 665.49 335.67 668.74 328.85 671.2 322.41 672.78 315.88 673.91 309.66 674.04 303.72 673.16 297.57 671.68 291.57 669.17 285.66 665.68 279.37 661.6 273.02 656.61 266.53 650.78 259.53 644.49 252.28 637.48 244.76 629.87 236.74 621.94 228.49 613.54 220.08 604.76 211.44 595.82 202.87 586.62 194.58 577.23 186.53 567.8 179.09 558.26 172.48 548.68 166.57 539.13 161.72 529.56 158.03 520.03 155.11 510.56 153.25 501.12 152.33 491.74 151.71 482.43 151.59 473.16 151.72 463.96 151.38 454.8 150.82 445.68 149.86 436.62 147.97 427.58 145.6 418.57 142.85 409.61 139.5 400.65 136.22 391.73 133.35 382.85 130.81 373.97 129.35 365.34 129.16 356.97 129.9 348.6 132.01 340.49 135.36 332.65 139.4 324.82 144.26 317.26 149.65 310.01 154.94 302.75 160.22 295.79 165.28 289.16 169.6 282.52 173.46 276.19 176.87 270.19 179.49 264.17 181.83 258.46 184.07 253.07 187.04 245.06 195.38 230.31 201.6 223.49 206.59 218.87 212.48 214.44 219.21 210.19 226.52 205.73 234.57 201.4 243.2 197.2 252.25 192.73 261.71 188.36 271.44 184.07 281.36 179.52 291.41 175.04 301.5 170.66 311.62 166.03 321.72 161.52 331.74 157.19 341.74 152.67 351.66 148.39 361.49 144.39 371.29 140.34 381.03 136.67 390.7 133.45 400.37 130.34 409.99 127.79 419.53 125.88" stroke-dasharray="10 10" transform="rotate(8.08, 400, 400)" opacity="0.13"></path><path d="M413.24 136.6C422.25 134.96 430.83 134.05 438.94 133.86 447.01 133.99 454.56 134.86 461.54 136.45 468.43 138.37 474.69 140.99 480.29 144.25 485.77 147.8 490.57 151.96 494.73 156.65 498.84 161.56 502.41 166.94 505.56 172.74 508.96 178.65 512.23 184.91 515.6 191.47 519.7 198.05 524.34 204.88 529.78 211.91 536.44 218.89 544.25 226.03 553.32 233.31 563.7 240.49 575.24 247.79 587.7 255.2 600.72 262.49 613.86 269.88 626.54 277.36 638.21 284.74 648.19 292.23 655.85 299.81 661.01 307.31 663.11 314.93 662 322.68 658.41 330.36 652.28 338.2 644.3 346.18 636 354.12 627.79 362.23 620.78 370.52 616.42 378.78 614.94 387.24 616.8 395.88 622.36 404.52 630.87 413.35 641.51 422.38 653.43 431.41 664.72 440.41 674.1 449.38 681.07 458.34 684.34 467.24 683.6 476.06 679.31 484.86 671.45 493.56 660.82 502.1 648.48 510.6 635.21 518.91 622.01 526.98 609.84 534.97 599.26 542.67 590.69 550.02 584.57 557.24 580.67 564.06 578.74 570.42 579.43 579.41 585.33 594.31 587.58 600.06 587.9 604.81 579.78 610.84 571.37 612.23 564.39 612.89 556.36 613.08 547.51 612.87 538.11 612.78 528.22 612.43 518.06 611.91 507.67 611.73 497.24 611.56 486.89 611.46 476.51 611.94 466.31 612.64 456.37 613.62 446.46 615.31 436.82 617.35 427.48 619.74 418.16 622.84 409.13 626.25 400.39 629.88 391.64 634.06 383.37 638.19 375.55 642.15 367.7 646.32 360.26 650.08 353.22 653.32 346.11 656.44 339.34 658.83 332.87 660.44 326.26 661.67 319.87 661.99 313.64 661.38 307.16 660.26 300.73 658.19 294.28 655.2 287.45 651.69 280.49 647.31 273.35 642.14 265.76 636.53 257.96 630.21 249.93 623.3 241.56 616.06 233.08 608.34 224.58 600.21 216.05 591.9 207.76 583.28 199.9 574.45 192.45 565.54 185.71 556.48 179.89 547.33 174.79 538.18 170.75 528.99 167.81 519.79 165.56 510.63 164.24 501.49 163.72 492.38 163.37 483.33 163.38 474.31 163.51 465.35 163.11 456.43 162.41 447.55 161.29 438.73 159.25 429.94 156.75 421.2 153.88 412.52 150.45 403.84 147.11 395.22 144.17 386.66 141.54 378.1 139.97 369.8 139.61 361.78 140.17 353.75 142.07 345.98 145.19 338.5 149.05 331.01 153.77 323.8 159.08 316.88 164.41 309.96 169.82 303.32 175.09 296.99 179.73 290.64 183.96 284.59 187.74 278.85 192.04 270.32 198.71 254.59 202.03 247.33 204.35 242.47 207.26 237.82 210.83 233.39 214.82 228.81 219.62 224.39 225.21 220.12 231.34 215.66 238.22 211.31 245.74 207.07 253.72 202.59 262.21 198.19 271.09 193.89 280.25 189.33 289.65 184.86 299.19 180.5 308.86 175.91 318.58 171.46 328.27 167.18 338.01 162.75 347.69 158.55 357.27 154.64 366.86 150.7 376.34 147.13 385.67 143.99 395.02 140.97 404.22 138.48 413.23 136.6" stroke-dasharray="8 3" transform="rotate(12.12, 400, 400)" opacity="0.16"></path><path d="M404.6 147.32C413.05 145.71 421.02 144.79 428.49 144.55 435.93 144.6 442.84 145.36 449.2 146.8 455.5 148.55 461.24 150.96 466.41 154 471.55 157.31 476.19 161.19 480.38 165.61 484.68 170.23 488.69 175.32 492.57 180.83 496.84 186.46 501.27 192.44 506.05 198.73 511.62 205.07 517.88 211.65 525 218.45 533.2 225.23 542.41 232.18 552.65 239.28 563.79 246.31 575.68 253.47 588 260.73 600.38 267.91 612.39 275.19 623.49 282.56 633.28 289.84 641.17 297.22 646.68 304.69 649.86 312.09 650.24 319.6 647.84 327.21 643.46 334.76 637.08 342.45 629.37 350.26 621.73 358.03 614.5 365.95 608.57 374.01 605.22 382.04 604.53 390.24 606.84 398.59 612.45 406.93 620.65 415.44 630.7 424.09 641.91 432.75 652.57 441.35 661.57 449.88 668.52 458.4 672.21 466.83 672.32 475.15 669.21 483.44 662.75 491.6 653.54 499.57 642.5 507.5 630.21 515.21 617.56 522.66 605.41 530.02 594.32 537.09 584.76 543.79 577.2 550.37 571.6 556.55 567.85 562.28 567.11 577 571.52 592.93 570.68 595.99 567.59 598.29 554.02 600.38 544.04 600.44 536.5 600.52 528.28 600.39 519.59 600.12 510.58 600.2 501.31 600.29 491.92 600.46 482.42 601.16 472.93 602.05 463.56 603.19 454.17 604.98 444.94 607.06 435.92 609.43 426.92 612.45 418.13 615.71 409.59 619.16 401.04 623.1 392.92 626.97 385.19 630.68 377.42 634.59 370.01 638.12 362.93 641.18 355.75 644.15 348.84 646.47 342.14 648.08 335.27 649.38 328.53 649.85 321.86 649.48 314.93 648.68 307.98 646.99 300.94 644.47 293.57 641.48 286.04 637.67 278.34 633.11 270.3 628.15 262.11 622.5 253.8 616.27 245.32 609.72 236.85 602.67 228.54 595.2 220.36 587.54 212.58 579.55 205.36 571.3 198.65 562.95 192.74 554.42 187.77 545.76 183.53 537.08 180.29 528.31 178.07 519.52 176.41 510.73 175.56 501.94 175.36 493.16 175.19 484.42 175.26 475.7 175.34 467.03 174.83 458.39 173.97 449.8 172.67 441.26 170.47 432.75 167.83 424.29 164.86 415.9 161.37 407.52 157.98 399.2 154.98 390.96 152.29 382.72 150.61 374.75 150.1 367.05 150.47 359.34 152.13 351.9 155.02 344.74 158.65 337.57 163.18 330.67 168.36 324.06 173.66 317.43 179.15 311.08 184.59 305.02 189.5 298.93 194.08 293.11 198.25 287.58 203.15 279.34 210.52 264.03 213.74 256.91 216.98 249.83 226.21 236.35 232.68 229.86 237.66 225.39 243.37 221.02 249.72 216.76 256.52 212.27 263.88 207.87 271.7 203.55 279.84 199.01 288.33 194.57 297.05 190.23 305.96 185.7 315.01 181.32 324.1 177.11 333.29 172.77 342.47 168.67 351.56 164.86 360.7 161.03 369.72 157.56 378.58 154.52 387.46 151.59 396.15 149.17 404.59 147.33" stroke-dasharray="4 3" transform="rotate(16.16, 400, 400)" opacity="0.20"></path><path d="M395.15 158.05C403.04 156.46 410.47 155.53 417.44 155.24 424.39 155.23 430.87 155.88 436.88 157.17 442.87 158.76 448.42 160.97 453.55 163.77 458.74 166.84 463.61 170.46 468.25 174.59 473.11 178.92 477.91 183.71 482.8 188.91 488.18 194.24 493.89 199.93 500.1 205.93 507.06 211.99 514.72 218.31 523.19 224.85 532.5 231.39 542.61 238.12 553.41 245 564.73 251.84 576.36 258.82 587.97 265.9 599.23 272.92 609.73 280.05 619 287.27 626.8 294.42 632.62 301.66 636.14 308.98 637.55 316.25 636.51 323.61 633.12 331.06 628.24 338.46 621.85 345.98 614.59 353.59 607.73 361.17 601.49 368.87 596.63 376.69 594.21 384.48 594.23 392.41 596.93 400.45 602.55 408.48 610.41 416.64 619.89 424.92 630.4 433.19 640.44 441.37 649.04 449.45 655.92 457.53 659.94 465.48 660.78 473.29 658.75 481.07 653.61 488.69 645.81 496.1 636.11 503.46 624.95 510.59 613.08 517.44 601.27 524.2 590.03 530.66 579.86 536.76 571.22 542.74 564.2 548.33 558.82 553.47 553.92 573.77 552.95 585.75 549.44 587 544.02 587.9 527.63 588.48 517.24 588.51 509.76 588.83 501.85 589.16 493.65 589.57 485.27 590.47 476.74 591.54 468.16 592.82 459.52 594.68 450.91 596.79 442.37 599.14 433.83 602.05 425.4 605.17 417.1 608.44 408.8 612.14 400.81 615.77 393.13 619.23 385.41 622.88 377.96 626.18 370.73 629.06 363.41 631.87 356.26 634.11 349.23 635.7 342.04 637.04 334.89 637.63 327.74 637.47 320.37 636.93 312.93 635.59 305.37 633.48 297.57 630.96 289.63 627.68 281.57 623.7 273.31 619.34 264.98 614.34 256.66 608.76 248.33 602.88 240.16 596.5 232.28 589.7 224.69 582.69 217.61 575.33 211.2 567.7 205.35 559.95 200.34 551.98 196.27 543.86 192.87 535.68 190.39 527.4 188.81 519.05 187.68 510.7 187.2 502.31 187.22 493.92 187.16 485.54 187.21 477.17 187.18 468.84 186.51 460.52 185.47 452.25 183.97 444.03 181.62 435.83 178.85 427.67 175.79 419.6 172.25 411.53 168.83 403.52 165.79 395.6 163.05 387.68 161.28 380.02 160.62 372.63 160.79 365.24 162.22 358.11 164.84 351.25 168.21 344.37 172.51 337.76 177.51 331.42 182.72 325.06 188.21 318.96 193.75 313.13 198.89 307.27 203.78 301.66 208.32 296.3 213.86 288.3 222.26 273.34 225.66 266.32 228.7 259.31 236.42 245.88 241.65 239.38 245.63 234.9 250.25 230.53 255.48 226.25 261.09 221.77 267.27 217.37 273.95 213.06 280.95 208.55 288.36 204.14 296.07 199.86 304.01 195.4 312.16 191.09 320.43 186.97 328.83 182.74 337.28 178.75 345.69 175.05 354.18 171.34 362.59 167.98 370.85 165.04 379.15 162.2 387.26 159.85 395.14 158.05" stroke-dasharray="6 5" transform="rotate(20.200000000000003, 400, 400)" opacity="0.24"></path><path d="M386.56 168.77C393.91 167.22 400.9 166.28 407.52 165.95 414.13 165.87 420.38 166.42 426.28 167.57 432.21 168.99 437.85 171.01 443.24 173.58 448.76 176.4 454.14 179.76 459.48 183.6 465.1 187.63 470.85 192.12 476.84 197 483.31 202.02 490.21 207.4 497.65 213.08 505.71 218.84 514.41 224.87 523.74 231.12 533.64 237.39 544.05 243.86 554.83 250.49 565.73 257.1 576.57 263.85 587.01 270.72 596.79 277.55 605.53 284.49 612.85 291.51 618.67 298.49 622.55 305.55 624.28 312.69 624.22 319.79 622.06 326.97 618 334.23 612.9 341.45 606.72 348.77 600.06 356.16 594.04 363.52 588.8 370.99 584.96 378.53 583.4 386.07 584.05 393.7 587.06 401.42 592.64 409.13 600.17 416.93 609.08 424.81 618.91 432.69 628.33 440.45 636.52 448.08 643.27 455.7 647.53 463.17 649 470.47 647.94 477.75 644.02 484.84 637.57 491.7 629.24 498.52 619.31 505.09 608.41 511.36 597.21 517.57 586.16 523.46 575.74 528.99 566.41 534.42 558.32 539.47 551.61 544.1 539.62 562.34 536.84 573.29 534.6 574.57 531 575.6 518.96 576.7 510.79 577.07 504.8 577.61 498.27 578.18 491.31 578.81 484.17 579.88 476.72 581.11 469.06 582.5 461.32 584.41 453.45 586.53 445.51 588.84 437.56 591.66 429.58 594.63 421.59 597.71 413.61 601.19 405.8 604.57 398.18 607.79 390.53 611.19 383.03 614.27 375.65 616.96 368.2 619.62 360.81 621.75 353.47 623.31 346 624.66 338.51 625.35 330.97 625.36 323.27 625.04 315.49 624.01 307.61 622.27 299.58 620.17 291.47 617.37 283.32 613.92 275.11 610.13 266.94 605.73 258.9 600.77 250.99 595.54 243.37 589.81 236.18 583.66 229.36 577.31 223.14 570.59 217.65 563.58 212.74 556.45 208.65 549.07 205.46 541.51 202.84 533.89 201.05 526.13 200.03 518.27 199.31 510.4 199.11 502.46 199.26 494.49 199.22 486.53 199.18 478.55 198.99 470.6 198.13 462.65 196.88 454.73 195.19 446.85 192.69 438.99 189.81 431.17 186.67 423.42 183.1 415.68 179.66 408 176.6 400.4 173.83 392.8 171.97 385.46 171.17 378.37 171.15 371.28 172.34 364.44 174.67 357.86 177.76 351.26 181.78 344.92 186.55 338.82 191.61 332.71 197.02 326.83 202.59 321.2 207.89 315.53 213.02 310.1 217.89 304.89 222.13 299.63 226 294.58 229.52 289.73 233.72 282.43 240.69 268.55 244.09 261.9 247.63 255.16 257.02 242 263.15 235.53 267.68 231.06 272.76 226.69 278.33 222.41 284.17 217.95 290.45 213.6 297.09 209.37 303.94 205 311.07 200.79 318.39 196.77 325.85 192.66 333.43 188.79 341.05 185.2 348.75 181.62 356.44 178.38 364.05 175.54 371.68 172.8 379.2 170.52 386.55 168.77" stroke-dasharray="7 7" transform="rotate(24.24, 400, 400)" opacity="0.28"></path><path d="M380.33 179.49C387.21 177.98 393.85 177.04 400.24 176.67 406.64 176.53 412.82 176.98 418.81 178 424.84 179.26 430.75 181.08 436.58 183.43 442.56 186.01 448.56 189.1 454.68 192.65 461.07 196.39 467.72 200.56 474.68 205.12 482.06 209.82 489.88 214.86 498.17 220.21 506.92 225.65 516.15 231.36 525.79 237.3 535.72 243.27 545.88 249.45 556.06 255.79 566.06 262.14 575.68 268.63 584.61 275.25 592.68 281.84 599.56 288.54 604.94 295.33 608.88 302.1 611.02 308.95 611.25 315.87 610.01 322.76 607.06 329.73 602.62 336.76 597.54 343.76 591.77 350.84 585.82 357.98 580.69 365.11 576.43 372.31 573.55 379.56 572.77 386.81 573.97 394.13 577.24 401.51 582.74 408.88 589.91 416.31 598.26 423.78 607.44 431.25 616.25 438.59 624.01 445.76 630.58 452.93 635.01 459.93 637 466.73 636.78 473.52 633.98 480.09 628.82 486.43 621.85 492.72 613.2 498.76 603.41 504.5 593.06 510.18 582.49 515.54 572.17 520.56 562.52 525.49 553.75 530.06 546.04 534.23 531.57 544.94 522.34 556.57 521.29 558.94 518.16 562.21 507 565.11 500.62 565.81 495.91 566.56 490.62 567.33 484.82 568.15 478.85 569.39 472.47 570.74 465.76 572.23 458.96 574.18 451.9 576.29 444.63 578.55 437.34 581.26 429.88 584.09 422.28 586.99 414.68 590.24 407.13 593.39 399.63 596.38 392.12 599.53 384.64 602.39 377.19 604.9 369.7 607.39 362.19 609.41 354.66 610.92 347.05 612.26 339.38 613.01 331.65 613.15 323.83 613.03 315.94 612.25 308.01 610.83 300.03 609.11 292.04 606.75 284.1 603.78 276.22 600.51 268.5 596.67 261.02 592.3 253.78 587.68 246.94 582.58 240.6 577.07 234.71 571.35 229.45 565.28 224.93 558.89 220.96 552.38 217.77 545.61 215.39 538.64 213.48 531.59 212.27 524.37 211.7 517.05 211.28 509.68 211.24 502.23 211.43 494.73 211.32 487.22 211.14 479.67 210.74 472.13 209.67 464.59 208.2 457.06 206.31 449.56 203.67 442.06 200.69 434.6 197.49 427.2 193.91 419.8 190.48 412.46 187.42 405.19 184.63 397.92 182.7 390.89 181.76 384.1 181.56 377.31 182.5 370.75 184.54 364.43 187.31 358.1 191.03 352 195.51 346.13 200.34 340.23 205.62 334.56 211.13 329.12 216.5 323.63 221.81 318.34 226.93 313.27 231.54 308.14 235.84 303.19 239.8 298.43 244.69 291.24 252.63 277.49 256.17 270.87 259.51 264.16 267.56 251.04 272.62 244.59 276.28 240.16 280.43 235.82 285.02 231.59 289.82 227.2 295.05 222.92 300.65 218.78 306.43 214.51 312.53 210.41 318.88 206.5 325.36 202.52 332.03 198.78 338.82 195.32 345.68 191.87 352.61 188.76 359.55 186.02 366.51 183.39 373.45 181.2 380.32 179.5" stroke-dasharray="11 9" transform="rotate(28.28, 400, 400)" opacity="0.32"></path><path d="M377.58 190.22C384.04 188.74 390.41 187.8 396.68 187.4 402.95 187.21 409.16 187.57 415.31 188.45 421.53 189.56 427.77 191.2 434.05 193.33 440.49 195.67 447.08 198.49 453.86 201.75 460.89 205.19 468.2 209.05 475.85 213.28 483.8 217.64 492.12 222.35 500.8 227.35 509.74 232.45 518.96 237.82 528.37 243.42 537.8 249.07 547.19 254.92 556.32 260.95 565.04 266.99 573.14 273.19 580.36 279.51 586.65 285.83 591.67 292.26 595.24 298.78 597.52 305.29 598.18 311.88 597.22 318.55 595.13 325.19 591.69 331.91 587.15 338.68 582.3 345.43 577.08 352.24 571.93 359.1 567.7 365.96 564.4 372.86 562.4 379.81 562.32 386.75 563.99 393.73 567.45 400.75 572.84 407.77 579.65 414.81 587.45 421.87 595.98 428.93 604.19 435.83 611.51 442.56 617.87 449.27 622.38 455.8 624.79 462.13 625.3 468.43 623.51 474.52 619.54 480.35 613.88 486.16 606.54 491.69 597.95 496.94 588.61 502.14 578.78 507.02 568.87 511.58 559.27 516.06 550.2 520.21 541.87 523.98 531.3 529.35 516.47 538.09 511.79 541.48 503.44 549.09 492.84 553.73 487.69 554.73 481.75 556.15 467.05 559.71 458.48 562 452.56 563.97 446.28 566.06 439.69 568.27 433.07 570.86 426.18 573.54 419.03 576.27 411.89 579.3 404.67 582.22 397.41 584.98 390.14 587.9 382.81 590.55 375.44 592.87 368.04 595.19 360.58 597.09 353.07 598.54 345.52 599.85 337.91 600.64 330.25 600.88 322.57 600.9 314.87 600.35 307.17 599.21 299.53 597.82 291.96 595.84 284.53 593.31 277.26 590.52 270.24 587.19 263.55 583.37 257.18 579.32 251.27 574.82 245.91 569.91 241 564.81 236.74 559.36 233.18 553.59 230.1 547.7 227.73 541.54 226.07 535.16 224.75 528.69 223.99 522.05 223.73 515.27 223.5 508.44 223.52 501.51 223.65 494.5 223.41 487.47 223.03 480.39 222.4 473.29 221.09 466.18 219.41 459.07 217.32 451.96 214.56 444.87 211.49 437.79 208.26 430.75 204.69 423.71 201.28 416.72 198.23 409.78 195.44 402.85 193.45 396.13 192.39 389.64 192.01 383.14 192.71 376.86 194.44 370.79 196.89 364.71 200.26 358.85 204.41 353.19 208.97 347.51 214.02 342.02 219.4 336.74 224.74 331.42 230.13 326.28 235.43 321.33 240.33 316.31 244.99 311.46 249.37 306.78 254.97 299.7 264.18 286.09 268.13 279.51 271.62 272.85 279.14 259.81 283.53 253.42 288.33 246.91 300.03 234.21 306.93 228.07 311.77 223.93 316.94 219.95 322.41 216.17 327.97 212.34 333.77 208.74 339.78 205.41 345.83 202.11 352.04 199.12 358.35 196.5 364.68 193.97 371.1 191.87 377.57 190.22" stroke-dasharray="2 4" transform="rotate(32.32, 400, 400)" opacity="0.35"></path><path d="M378.77 200.94C384.9 199.51 391.05 198.58 397.22 198.15 403.42 197.91 409.66 198.18 415.98 198.94 422.35 199.9 428.85 201.35 435.49 203.27 442.25 205.38 449.23 207.94 456.43 210.92 463.81 214.06 471.47 217.6 479.4 221.49 487.5 225.52 495.86 229.88 504.42 234.52 513.06 239.27 521.77 244.28 530.45 249.52 538.95 254.82 547.17 260.33 554.92 266.01 562.13 271.72 568.56 277.59 574.02 283.59 578.56 289.59 581.88 295.71 583.83 301.93 584.71 308.14 584.22 314.44 582.38 320.81 579.75 327.16 576.12 333.59 571.71 340.06 567.29 346.52 562.73 353.04 558.42 359.59 555.1 366.14 552.7 372.72 551.51 379.33 552.04 385.94 554.1 392.57 557.69 399.21 562.94 405.86 569.38 412.51 576.64 419.15 584.54 425.79 592.17 432.26 599.03 438.54 605.13 444.81 609.66 450.89 612.39 456.75 613.51 462.59 612.6 468.21 609.73 473.58 605.3 478.92 599.26 483.99 591.91 488.79 583.71 493.54 574.81 498 565.58 502.15 556.36 506.24 547.35 510.02 538.78 513.45 530.86 516.84 523.64 519.89 517.19 522.59 503.52 529.44 490.71 536.76 487.69 538.35 481.37 541.23 468.24 545.5 462.21 547.2 455.61 549.43 440.14 554.82 431.38 557.98 425.4 560.46 419.08 563 412.43 565.54 405.79 568.37 398.99 571.07 392.07 573.61 385.16 576.3 378.14 578.73 371.02 580.87 363.91 583.02 356.71 584.79 349.45 586.16 342.2 587.43 334.9 588.23 327.59 588.55 320.32 588.69 313.08 588.31 305.92 587.41 298.89 586.3 291.99 584.66 285.32 582.52 278.88 580.15 272.75 577.3 267.02 573.98 261.63 570.46 256.73 566.52 252.39 562.18 246.81 555.24 239.37 539.58 237.45 531.01 236.58 525.13 236.15 519.07 236.07 512.84 235.9 506.57 235.87 500.16 235.86 493.67 235.43 487.15 234.81 480.56 233.92 473.92 232.38 467.27 230.48 460.6 228.22 453.91 225.34 447.23 222.22 440.55 218.97 433.89 215.43 427.24 212.06 420.6 209.04 414.01 206.26 407.42 204.23 401.03 203.06 394.83 202.52 388.63 202.97 382.62 204.4 376.8 206.51 370.98 209.52 365.33 213.3 359.88 217.52 354.41 222.29 349.1 227.44 343.98 232.66 338.82 238.02 333.82 243.39 328.98 248.49 324.08 253.43 319.33 258.15 314.73 264.42 307.77 275.03 294.32 279.57 287.8 283.5 281.22 291.23 268.33 295.37 262.03 299.66 255.64 309.78 243.23 315.7 237.26 319.81 233.26 324.24 229.42 328.99 225.78 333.78 222.1 338.86 218.65 344.18 215.47 349.54 212.31 355.12 209.46 360.89 206.96 366.67 204.55 372.63 202.53 378.76 200.94" stroke-dasharray="8 4" transform="rotate(36.36, 400, 400)" opacity="0.39"></path><path d="M383.71 211.66C389.55 210.28 395.51 209.37 401.58 208.91 407.67 208.63 413.9 208.81 420.27 209.46 433.17 211.29 446.86 214.92 461.32 220.15 476.19 226 491.84 233.29 507.83 241.75 523.49 250.61 538.4 260.45 551.35 271.02 561.9 281.76 568.73 293.1 570.91 304.83 569.76 316.6 564.53 328.71 556.48 340.99 549.17 353.27 543.23 365.73 540.87 378.22 541.93 384.48 544.3 390.74 547.96 396.99 553.03 403.25 559.09 409.5 565.83 415.71 573.12 421.93 580.17 427.97 586.58 433.81 592.38 439.65 596.87 445.29 599.83 450.71 601.59 461.5 596.32 471.37 585.2 480.19 570.49 488.87 553.5 496.43 536.4 502.77 520.75 508.98 507.24 514.01 496.16 517.86 487.77 521.75 481.03 524.68 475.11 526.75 470.43 529.29 465.26 531.36 459.05 533.13 452.93 535.88 445.3 538.7 436.08 541.67 431.43 543.63 426.39 545.64 420.98 547.7 415.55 550.06 409.77 552.44 403.64 554.82 397.51 557.44 391.2 559.92 384.74 562.25 378.3 564.72 371.72 566.94 365.04 568.9 351.77 572.86 338.2 575.34 324.69 576.17 311.56 576.48 298.88 574.88 287.17 571.45 276.44 567.29 267.29 561.35 260.22 553.89 254.51 545.85 250.95 536.5 249.44 526.16 248.3 515.49 248.06 504.06 248 492.15 246.16 480.12 243.22 467.75 238.99 455.26 236.03 449.01 232.87 442.75 229.62 436.48 226.14 430.22 222.83 423.96 219.85 417.72 217.1 411.49 215.05 405.42 213.78 399.52 213.08 393.62 213.3 387.88 214.43 382.32 218.58 371.15 225.86 360.62 235.31 350.72 245.36 340.68 255.89 331.18 266.11 322.21 274.93 312.97 282.9 304.13 290.12 295.72 295.88 286.93 301.52 278.47 307.43 270.4 312.78 261.93 319.02 253.86 326.33 246.35 333.6 238.61 342.08 231.57 351.7 225.5 359.05 221.15 375.06 214.15 383.7 211.67" stroke-dasharray="4 7" transform="rotate(40.400000000000006, 400, 400)" opacity="0.43"></path><path d="M391.52 222.39C402.68 219.87 414.55 219.1 427.06 220.01 439.71 221.56 453.12 224.77 467.12 229.47 481.22 234.73 495.67 241.34 509.88 249.07 523.34 257.18 535.49 266.25 545.3 276.04 552.79 286.03 556.76 296.61 556.73 307.59 554.29 318.63 548.82 330.02 541.57 341.57 535.66 353.14 531.4 364.87 530.47 376.61 534.78 388.35 543.34 400.11 555.02 411.7 568.58 423.29 579.99 434.14 587.11 444.15 589.88 454.12 586.51 463.19 577.75 471.26 565.43 479.24 550.34 486.19 534.34 492.05 518.82 497.83 504.56 502.58 492.11 506.3 481.79 510.14 473.09 513.15 465.49 515.43 459.22 518.18 453.02 520.53 446.35 522.61 440.02 525.56 432.64 528.53 424.03 531.57 415.39 535.68 405.43 539.92 394.2 544.1 382.97 549.11 371.09 553.47 358.88 556.97 346.81 560.61 334.61 562.91 322.66 563.77 311.17 564.22 300.34 562.99 290.65 560.12 281.89 556.65 274.72 551.57 269.47 545.07 265.24 538.06 262.79 529.81 261.92 520.58 260.98 511.04 260.53 500.72 259.98 489.85 257.62 478.86 254.19 467.47 249.63 455.88 243.22 444.27 236.56 432.52 230.66 420.77 225.59 409.03 223.44 397.83 224.54 387.23 227.97 376.58 234.41 366.46 243.07 356.89 252.6 347.2 262.91 337.96 273.27 329.18 282.65 320.17 291.4 311.52 299.47 303.26 306.19 294.68 312.6 286.41 319 278.54 324.66 270.35 330.89 262.56 337.9 255.34 344.69 247.95 352.53 241.26 361.46 235.5 370.34 229.87 380.35 225.41 391.51 222.39" stroke-dasharray="4 1" transform="rotate(44.44, 400, 400)" opacity="0.47"></path><path d="M400.82 233.11C411.47 230.69 422.85 229.87 434.81 230.6 446.83 231.88 459.43 234.69 472.32 238.87 485.05 243.55 497.69 249.5 509.6 256.5 520.55 263.86 529.84 272.14 536.67 281.12 541.49 290.31 543.19 300.09 541.61 310.27 538.5 320.54 533.29 331.14 527.12 341.91 522.67 352.72 519.98 363.67 520.3 374.61 525.11 385.56 533.41 396.49 544.2 407.24 556.61 417.99 567.22 428.02 574.26 437.23 577.81 446.42 576.08 454.76 569.51 462.17 559.57 469.53 546.62 475.95 532.18 481.4 517.48 486.84 503.22 491.37 490.12 495.03 478.51 498.83 468.27 501.93 459.18 504.42 451.32 507.35 443.9 509.94 436.47 512.27 429.51 515.37 421.97 518.44 413.63 521.51 405.34 525.49 396.06 529.49 385.79 533.37 375.52 537.97 364.81 541.93 353.96 545.08 343.26 548.39 332.63 550.51 322.46 551.35 312.74 551.9 303.84 550.96 296.15 548.56 289.25 545.69 283.82 541.37 280.08 535.74 276.98 529.68 275.26 522.45 274.68 514.27 273.68 505.81 272.87 496.56 271.73 486.72 268.84 476.77 264.96 466.36 260.13 455.68 253.73 444.98 247.21 434.05 241.48 423.05 236.49 412.05 234.15 401.49 234.75 391.41 237.47 381.3 243.02 371.62 250.8 362.41 259.62 353.09 269.48 344.15 279.7 335.61 289.35 326.88 298.65 318.46 307.41 310.41 315.05 302.09 322.3 294.07 329.38 286.45 335.66 278.59 342.23 271.13 349.33 264.24 356.08 257.23 363.68 250.9 372.22 245.47 380.65 240.18 390.17 235.98 400.82 233.11" stroke-dasharray="9 2" transform="rotate(48.48, 400, 400)" opacity="0.51"></path><path d="M409.98 243.84C420.09 241.52 430.76 240.67 441.82 241.22 452.88 242.26 464.22 244.69 475.5 248.37 486.47 252.5 496.95 257.79 506.35 264.07 514.75 270.68 521.36 278.17 525.63 286.33 528.3 294.69 528.37 303.63 525.91 312.97 522.67 322.42 518.11 332.19 513.22 342.14 510.22 352.13 508.97 362.26 510.35 372.38 515.5 382.51 523.47 392.61 533.39 402.52 544.68 412.43 554.47 421.65 561.31 430.12 565.41 438.57 565.05 446.23 560.44 453.06 552.79 459.86 542.1 465.83 529.55 470.95 516.21 476.09 502.65 480.46 489.62 484.07 477.45 487.85 466.28 491.05 456.12 493.72 446.96 496.8 438.41 499.58 430.18 502.11 422.43 505.3 414.52 508.42 406.24 511.48 398.06 515.3 389.27 519.07 379.88 522.65 370.48 526.84 360.95 530.41 351.51 533.23 342.21 536.21 333.21 538.14 324.83 538.94 316.84 539.53 309.75 538.82 303.85 536.82 296.51 532.62 288.82 517.59 287.55 507.24 286.27 499.8 284.95 491.57 283.18 482.74 279.79 473.8 275.52 464.36 270.48 454.59 264.15 444.79 257.83 434.71 252.29 424.48 247.42 414.24 244.93 404.33 245.07 394.82 247.09 385.27 251.75 376.06 258.57 367.24 266.52 358.33 275.71 349.73 285.51 341.49 295.12 333.08 304.65 324.95 313.85 317.16 322.21 309.17 330.22 301.46 337.98 294.15 345 286.66 352.12 279.57 359.52 273.04 366.54 266.45 374.16 260.51 382.51 255.42 390.74 250.48 399.87 246.54 409.98 243.84" stroke-dasharray="9 10" transform="rotate(52.52, 400, 400)" opacity="0.54"></path><path d="M417.38 254.56C426.87 252.36 436.65 251.49 446.55 251.89 456.39 252.7 466.18 254.77 475.59 257.97 484.63 261.57 492.86 266.23 499.84 271.8 505.93 277.67 510.27 284.36 512.52 291.69 513.67 299.22 512.77 307.31 510.03 315.78 507.12 324.37 503.49 333.29 499.96 342.38 498.35 351.52 498.36 360.8 500.6 370.07 505.95 379.36 513.52 388.62 522.58 397.7 532.79 406.78 541.73 415.24 548.28 423 552.72 430.75 553.46 437.8 550.56 444.1 545.02 450.39 536.57 455.97 526.09 460.8 514.52 465.69 502.22 469.91 489.9 473.5 477.92 477.27 466.51 480.53 455.86 483.35 445.9 486.54 436.56 489.45 427.71 492.12 419.29 495.36 411 498.48 402.71 501.48 394.54 505.12 386.14 508.64 377.51 511.93 368.89 515.72 360.45 518.92 352.36 521.42 344.36 524.08 336.87 525.81 330.12 526.54 320.86 526.87 307.96 521.43 304.47 515.71 302.48 511.28 301.17 505.84 300.28 499.53 298.57 493.04 296.66 485.78 294.28 477.91 290.42 469.94 285.85 461.45 280.69 452.58 274.5 443.68 268.41 434.45 263.1 424.99 258.38 415.54 255.78 406.31 255.52 397.38 256.88 388.42 260.65 379.73 266.46 371.35 273.43 362.89 281.75 354.69 290.88 346.8 300.11 338.77 309.54 331 318.85 323.54 327.62 315.92 336.15 308.59 344.43 301.64 352.12 294.57 359.78 287.89 367.53 281.77 374.94 275.61 382.71 270.08 390.96 265.35 399.09 260.76 407.89 257.1 417.38 254.56" stroke-dasharray="6 3" transform="rotate(56.56, 400, 400)" opacity="0.58"></path><path d="M421.71 265.28C430.5 263.21 439.26 262.34 447.85 262.59 456.35 263.2 464.49 264.93 472 267.69 479.14 270.77 485.32 274.83 490.2 279.71 494.38 284.86 497 290.77 497.89 297.28 498.12 303.97 496.85 311.19 494.35 318.8 492.1 326.51 489.57 334.54 487.41 342.76 487.05 351.03 488.14 359.44 491.03 367.85 496.45 376.29 503.56 384.71 511.77 392.97 520.92 401.24 529.02 408.94 535.18 416.03 539.78 423.12 541.35 429.59 539.88 435.41 536.21 441.25 529.88 446.46 521.52 451.04 511.95 455.69 501.31 459.79 490.25 463.35 479.11 467.08 468.13 470.39 457.61 473.31 447.48 476.56 437.85 479.56 428.74 482.31 419.94 485.53 411.45 488.61 403.22 491.52 395.1 494.95 387.05 498.21 379.12 501.2 371.18 504.62 363.7 507.46 356.78 509.65 346.79 512.76 330.76 514.53 325.1 512.91 320.49 509.99 314.79 499.01 312.66 491.19 310.43 485.56 307.92 479.2 304.95 472.24 300.73 465.2 295.94 457.63 290.75 449.64 284.76 441.63 278.96 433.24 273.91 424.58 269.38 415.92 266.72 407.39 266.09 399.08 266.85 390.76 269.76 382.62 274.55 374.73 280.47 366.78 287.76 359.04 295.99 351.55 304.55 343.97 313.52 336.62 322.58 329.55 331.39 322.38 340.1 315.47 348.62 308.95 356.74 302.33 364.77 296.11 372.76 290.42 380.49 284.72 388.38 279.61 396.49 275.25 404.52 271.02 412.92 267.65 421.71 265.28" stroke-dasharray="8 3" transform="rotate(60.599999999999994, 400, 400)" opacity="0.62"></path><path d="M422.21 276.01C430.21 274.07 437.9 273.2 445.15 273.33 452.32 273.76 458.9 275.18 464.69 277.52 472.42 281.87 481.48 294.86 482.38 303.14 482.27 309 481.12 315.37 479.22 322.1 477.85 328.93 476.48 336.08 475.6 343.41 476.34 350.79 478.28 358.33 481.64 365.89 486.99 373.46 493.59 381.04 500.97 388.51 509.11 395.97 516.35 402.95 522.05 409.4 527.71 418.82 524.15 434.99 515.62 441.78 508.11 446.2 499.38 450.16 489.94 453.66 480.15 457.34 470.18 460.65 460.38 463.62 450.7 466.87 441.33 469.88 432.4 472.65 423.65 475.81 415.27 478.8 407.27 481.58 399.35 484.78 391.71 487.78 384.4 490.48 377.09 493.52 370.42 496.02 364.43 497.93 349.1 501.41 333.52 498.38 330.56 494.23 327.38 489.03 320.15 474.68 315.17 465.81 310.69 459.63 305.79 452.94 300.67 445.81 294.94 438.66 289.48 431.11 284.72 423.25 280.42 415.39 277.73 407.6 276.81 399.95 277.03 392.28 279.13 384.74 282.93 377.39 287.75 370.01 293.93 362.78 301.08 355.77 308.71 348.71 316.91 341.83 325.37 335.23 333.82 328.55 342.31 322.13 350.71 316.07 358.9 309.96 367 304.23 374.99 299 382.81 293.78 390.65 289.11 398.5 285.13 406.3 281.28 414.22 278.19 422.21 276.01" stroke-dasharray="11 1" transform="rotate(64.64, 400, 400)" opacity="0.66"></path><path d="M418.8 286.73C425.94 284.94 432.56 284.09 438.59 284.12 447.16 284.96 460 291.11 463.82 296.18 466.26 302.18 466.36 317.13 464.97 325.77 464.55 331.73 464.31 337.99 464.56 344.45 466.18 350.95 468.76 357.61 472.4 364.31 477.56 371.04 483.6 377.79 490.16 384.46 497.31 391.14 503.72 397.41 508.89 403.25 514.55 411.78 514.12 426.67 508.26 433.06 502.73 437.24 495.95 441.04 488.33 444.46 480.22 448.03 471.69 451.3 463.06 454.26 454.36 457.46 445.76 460.43 437.46 463.16 429.23 466.19 421.29 469.05 413.76 471.67 406.28 474.62 399.14 477.34 392.43 479.75 382.72 483.53 366.8 488.56 360.57 489.56 350.68 488.24 339.26 478.68 335.49 472.91 332.23 468.76 328.71 463.98 324.9 458.67 320.28 453.31 315.4 447.44 310.43 441.14 305.04 434.83 299.96 428.11 295.54 421.07 291.49 414.01 288.83 406.97 287.67 400.01 287.43 393.04 288.81 386.15 291.66 379.4 295.41 372.63 300.42 365.98 306.4 359.51 312.91 353.01 320.08 346.68 327.64 340.6 335.35 334.47 343.24 328.59 351.14 323.04 358.99 317.48 366.79 312.27 374.47 307.52 382.07 302.8 389.59 298.59 396.99 295 404.36 291.52 411.66 288.72 418.8 286.73" stroke-dasharray="6 10" transform="rotate(68.68, 400, 400)" opacity="0.70"></path><path d="M412.07 297.45C424.57 294.38 434.52 294.56 441.45 297.56 447.99 301.26 451.25 307.59 451.57 315.83 452.64 324.53 452.96 334.83 454.29 345.98 459.94 357.28 468.64 369.19 479.34 380.99 491.9 392.8 500.59 403.33 503.59 412.35 502.85 421.47 495.97 429.3 484.91 435.77 471.87 442.73 457.1 448.79 442.51 453.81 427.86 459.78 414 465.02 401.8 469.03 389.6 473.9 379.96 476.71 372.75 477.35 365.15 478.06 359.3 476.15 354.58 471.78 348.18 467.15 341.47 460.06 334.12 450.94 324.4 441.67 314.54 430.57 306.35 418.09 299.36 405.61 297.55 392.99 300.81 380.8 307.02 368.57 317.3 356.68 329.87 345.7 343.41 334.64 357.8 324.5 371.85 315.99 385.91 307.64 399.56 301.19 412.07 297.45" stroke-dasharray="3 8" transform="rotate(72.72, 400, 400)" opacity="0.73"></path><path d="M403.21 308.18C413.92 305.39 422.18 305.39 427.81 307.78 433.34 310.71 436.44 315.88 437.6 322.75 439.81 329.96 441.82 338.62 444.75 348.11 450.95 357.71 459.19 367.95 468.53 378.23 479.27 388.51 486.97 397.85 490.35 405.99 491.22 414.22 487.15 421.47 479.36 427.59 469.83 434.1 458.24 439.84 446.15 444.61 433.82 450.08 421.75 454.79 410.85 458.31 399.94 462.47 391.06 464.78 384.05 465.22 376.61 465.76 370.32 464.1 364.73 460.36 357.73 456.48 350.44 450.5 342.83 442.73 333.6 434.85 324.56 425.31 317.16 414.45 310.72 403.59 308.5 392.48 310.44 381.68 314.68 370.87 322.51 360.32 332.58 350.58 343.73 340.81 355.98 331.89 368.16 324.42 380.53 317.12 392.49 311.48 403.21 308.18" stroke-dasharray="9 6" transform="rotate(76.76, 400, 400)" opacity="0.77"></path><path d="M393.78 318.9C406.24 316.36 421.4 322.43 425.31 330.08 428.58 335.91 431.9 343.01 435.9 350.9 442.2 358.87 449.74 367.48 457.72 376.28 466.7 385.06 473.31 393.19 476.7 400.41 478.55 407.71 476.61 414.27 471.55 419.92 465.17 425.86 456.68 431.14 447.24 435.53 437.5 440.42 427.49 444.57 417.98 447.58 408.48 451.07 400.3 452.92 393.36 453.18 386.07 453.54 379.43 452.09 373.22 448.92 365.97 445.68 358.51 440.69 351.04 434.16 342.57 427.57 334.51 419.52 327.97 410.27 322.17 401.01 319.73 391.47 320.59 382.15 323.13 372.83 328.67 363.71 336.25 355.28 344.82 346.88 354.59 339.22 364.56 332.82 374.79 326.58 384.8 321.76 393.78 318.9" stroke-dasharray="6 11" transform="rotate(80.80000000000001, 400, 400)" opacity="0.81"></path><path d="M385.45 329.62C395.76 327.38 410 331.86 415.05 337.84 419.04 342.4 423.18 348.05 427.68 354.42 433.68 360.85 440.3 367.89 446.91 375.2 454.2 382.51 459.66 389.4 462.76 395.63 465.04 401.93 464.52 407.69 461.55 412.74 457.71 417.99 451.95 422.68 445.02 426.58 437.81 430.81 429.94 434.35 421.95 436.86 413.95 439.69 406.58 441.12 399.9 441.23 392.97 441.43 386.31 440.16 379.91 437.51 372.86 434.83 365.73 430.73 358.8 425.38 351.33 419.99 344.38 413.37 338.79 405.71 333.71 398.05 331.24 390.11 331.29 382.31 332.46 374.54 336.02 366.92 341.32 359.88 347.37 352.88 354.61 346.51 362.28 341.21 370.18 336.03 378.12 332.02 385.45 329.62" stroke-dasharray="5 4" transform="rotate(84.84, 400, 400)" opacity="0.85"></path><path d="M379.68 340.35C391.25 337.04 400.17 339.53 406.97 346.04 416.02 352.98 426.32 363.35 436.09 375.05 447.56 386.74 452.28 397.57 449.63 406.04 445.09 415.02 434.83 422.36 422.04 426.14 409.24 430.73 396.49 430.54 384.84 426.21 371.87 421.88 358.88 413.1 349.6 400.93 341.68 388.76 341.8 375.66 348.08 364.41 356.27 353.33 368.12 344.37 379.68 340.35" stroke-dasharray="3 6" transform="rotate(88.88, 400, 400)" opacity="0.89"></path><path d="M377.5 351.07C386.12 348.47 394.09 350.09 401.01 354.7 409.16 359.54 417.85 367.03 425.28 375.82 433.65 384.6 437.43 393.02 436.23 399.78 434.23 406.81 427.75 412.54 418.24 415.41 408.73 418.74 398.16 418.43 388.2 415.07 377.75 411.75 367.56 405.18 360.41 396.13 354.06 387.06 353.18 377.31 356.7 368.96 361.22 360.73 368.88 354.08 377.5 351.07" stroke-dasharray="2 11" transform="rotate(92.92, 400, 400)" opacity="0.92"></path><path d="M379.28 361.8C390.83 358.37 405.15 365.74 414.47 377.49 425.39 389.23 423.71 401.03 411.23 404.69 398.74 409.14 381.05 403.45 371.22 391.46 362.84 379.46 367.72 365.96 379.28 361.8" stroke-dasharray="11 3" transform="rotate(96.96, 400, 400)" opacity="0.96"></path></g></svg>