<svg xmlns="http://www.w3.org/2000/svg" version="1.1" xmlns:xlink="http://www.w3.org/1999/xlink" xmlns:svgjs="http://svgjs.dev/svgjs" viewBox="0 0 800 800"><defs><linearGradient x1="50%" y1="0%" x2="50%" y2="100%" id="ccchaos-grad"><stop stop-color="hsl(161, 100%, 42%)" stop-opacity="1" offset="0%"></stop><stop stop-color="hsl(161, 10%, 40%)" stop-opacity="1" offset="100%"></stop></linearGradient></defs><g stroke-width="2" stroke="url(#ccchaos-grad)" fill="none" stroke-linecap="round"><path d="M379.87 81Q387.61 87.36 395.46 93.07 403.43 98.05 411.55 102.31 419.82 105.87 428.25 108.81 436.85 111.22 445.63 113.26 454.61 115.08 463.77 116.88 473.14 118.83 482.71 121.14 492.48 123.95 502.45 127.43 512.63 131.68 523 136.78 533.57 142.74 544.32 149.55 555.25 157.13 566.35 165.37 577.6 174.1 589 183.14 600.52 192.28 612.16 201.3 623.89 209.97 635.69 218.09 647.55 225.48 659.45 232.01 671.36 237.57 683.26 242.12 695.13 245.68 706.96 248.32 711.82 258.91 715.99 269.51 719.36 280.11 721.84 290.7 723.35 301.3 723.87 311.9 723.37 322.49 721.87 333.09 719.41 343.69 716.06 354.29 711.9 364.88 707.05 375.48 701.63 386.08 695.79 396.67 689.7 407.27 683.5 417.87 677.37 428.46 671.47 439.06 665.96 449.66 660.99 460.26 656.69 470.85 653.17 481.45 650.53 492.05 648.84 502.65 648.14 513.24 648.46 523.84 649.78 534.44 652.07 545.03 655.28 555.63 659.3 566.23 664.04 576.83 669.36 587.42 663.44 597.22 657.54 605.57 645.67 616.4 633.66 622.08 621.21 620.58 608.41 616.47 594.84 612.01 580.75 609.82 565.69 614.71 550.02 625.06 541.82 633.49 533.42 643.6 524.81 655.13 515.99 667.76 506.99 681.06 497.79 694.61 488.41 707.94 478.86 720.58 469.15 732.13 459.3 742.21 449.3 750.54 439.18 756.91 428.95 761.25 418.62 763.58 410.24 753.41 401.68 741.74 392.96 728.95 384.09 715.45 375.06 701.72 365.88 688.23 356.56 675.44 347.11 663.75 337.55 653.51 327.87 644.99 318.1 638.35 308.23 633.65 298.3 630.84 288.3 629.79 278.26 630.23 268.17 631.85 258.07 634.26 247.95 637.04 237.84 639.74 227.73 641.94 217.66 643.24 207.61 643.3 197.62 641.84 187.67 638.67 177.79 633.71 167.98 626.97 158.24 618.55 148.59 608.66 139.02 597.57 129.54 585.62 120.15 573.2 110.86 560.71 109.85 550.44 108.96 540.17 108.2 529.91 107.6 519.64 107.17 509.38 106.92 499.11 106.86 488.84 106.99 478.58 107.31 468.31 107.81 458.05 108.47 447.78 109.28 437.52 110.22 427.25 111.25 416.98 112.36 406.72 113.52 396.45 114.68 386.19 115.83 375.92 116.93 365.66 117.95 355.39 118.86 345.13 119.64 334.86 120.27 324.59 120.74 314.33 121.02 304.06 121.11 293.8 121.01 283.53 120.73 273.27 120.26 263 119.63 252.74 122.72 236.96 135.18 230.49 152.01 226.76 168.56 220.76 176.69 216.16 184.73 210.6 192.7 204.12 200.61 196.81 208.46 188.8 216.26 180.28 224.02 171.43 231.75 162.47 239.47 153.61 247.18 145.05 254.89 136.97 262.63 129.52 270.4 122.8 278.21 116.9 286.08 111.81 294.02 107.53 310.23 101.3 326.76 96.51 335.24 94.53 343.85 92.53 352.62 90.31 361.54 87.74 375.25 82.83 379.87 81" stroke-dasharray="6 9" transform="rotate(0, 400, 400)" opacity="0.54"></path><path d="M378.26 94.12Q386.01 100.29 393.89 105.83 401.9 110.68 410.06 114.84 418.37 118.32 426.84 121.18 435.49 123.53 444.3 125.48 453.3 127.17 462.47 128.78 471.83 130.47 481.37 132.42 491.09 134.8 500.98 137.74 511.06 141.37 521.3 145.76 531.7 150.98 542.25 157.02 552.95 163.85 563.78 171.39 574.73 179.52 585.79 188.08 596.94 196.91 608.17 205.8 619.46 214.56 630.79 222.97 642.15 230.87 653.51 238.08 664.86 244.47 676.18 249.96 687.45 254.49 698.65 258.07 702.88 268.32 706.41 278.57 709.17 288.83 711.09 299.08 712.1 309.33 712.21 319.58 711.39 329.84 709.66 340.09 707.08 350.34 703.71 360.59 699.62 370.85 694.93 381.1 689.74 391.35 684.19 401.61 678.41 411.86 672.54 422.11 666.73 432.36 661.13 442.62 655.88 452.87 651.09 463.12 646.9 473.38 643.4 483.63 640.69 493.88 638.82 504.13 637.86 514.39 637.81 524.64 638.68 534.89 640.45 545.15 643.07 555.4 646.49 565.65 650.06 584.87 643.72 600 632.17 606.8 620.57 609.15 608.7 606.11 596.57 601.66 583.85 598.47 570.71 598.15 556.77 605.08 542.3 617.1 534.75 626.02 527.01 636.36 519.09 647.87 510.98 660.22 502.69 673.04 494.21 685.94 485.57 698.51 476.75 710.36 467.77 721.11 458.64 730.48 449.37 738.21 439.95 744.14 430.42 748.21 420.77 750.45 412.35 740.77 403.78 729.7 395.06 717.57 386.21 704.76 377.21 691.67 368.1 678.72 358.86 666.31 349.52 654.81 340.09 644.55 330.57 635.78 320.97 628.69 311.31 623.35 301.6 619.77 291.85 617.87 282.07 617.46 272.27 618.31 262.47 620.1 252.68 622.47 242.9 625.06 233.15 627.48 223.43 629.34 213.76 630.32 204.14 630.12 194.59 628.51 185.1 625.34 175.68 620.53 166.34 614.1 157.08 606.14 147.91 596.82 138.82 586.37 129.83 575.1 120.92 563.32 119.94 553.34 119.08 543.36 118.38 533.38 117.83 523.4 117.47 513.43 117.29 503.45 117.3 493.47 117.5 483.49 117.88 473.51 118.44 463.53 119.17 453.56 120.04 443.58 121.03 433.6 122.12 423.62 123.27 413.64 124.48 403.66 125.69 393.69 126.89 383.71 128.04 373.73 129.11 363.75 130.08 353.77 130.93 343.8 131.63 333.82 132.16 323.84 132.52 313.86 132.69 303.88 132.67 293.91 132.46 283.93 132.06 273.95 131.49 263.97 134.51 248.57 146.54 241.84 162.8 236.84 178.78 229.34 186.63 224 194.39 217.79 202.07 210.78 209.69 203.09 217.24 194.88 224.73 186.33 232.17 177.61 239.58 168.94 246.95 160.49 254.3 152.44 261.64 144.93 268.98 138.09 276.33 131.99 283.71 126.67 298.61 118.69 313.7 112.66 329.19 108.68 344.99 105 353.1 102.93 361.35 100.51 374 95.86 378.26 94.12" stroke-dasharray="8 9" transform="rotate(4.04, 400, 400)" opacity="1.00"></path><path d="M377.54 107.25Q385.3 113.22 393.2 118.59 401.24 123.31 409.43 127.36 417.76 130.76 426.25 133.57 434.9 135.85 443.71 137.73 452.68 139.32 461.82 140.77 471.11 142.24 480.57 143.89 490.18 145.86 499.94 148.31 509.84 151.35 519.88 155.08 530.06 159.57 540.35 164.83 550.76 170.88 561.27 177.65 571.86 185.07 582.53 193.03 593.26 201.39 604.03 209.98 614.84 218.61 625.67 227.12 636.49 235.32 647.29 243.03 658.07 250.1 668.79 256.43 679.44 261.9 690.01 266.48 693.61 276.36 696.53 286.24 698.72 296.12 700.11 305.99 700.67 315.87 700.4 325.75 699.3 335.62 697.39 345.5 694.72 355.38 691.35 365.26 687.35 375.13 682.82 385.01 677.86 394.89 672.59 404.76 667.12 414.64 661.58 424.52 656.09 434.4 650.78 444.27 645.78 454.15 641.19 464.03 637.12 473.9 633.66 483.78 630.9 493.66 628.89 503.53 627.68 513.41 627.31 523.29 627.77 533.17 629.05 543.04 631.13 552.92 633.97 562.8 636.67 580.37 630.17 592.13 610.45 594.49 596.29 591.45 584.67 587.5 572.79 585.11 560.36 588.07 547.55 595.37 540.9 601.73 534.09 609.61 527.13 618.87 520 629.31 512.72 640.68 505.26 652.68 497.64 664.96 489.86 677.18 481.91 688.98 473.8 700.03 465.54 710.02 457.12 718.69 448.56 725.85 439.86 731.36 431.03 735.18 422.08 737.33 413.65 728.12 405.09 717.63 396.4 706.16 387.59 694.03 378.68 681.59 369.66 669.19 360.55 657.2 351.35 645.96 342.09 635.75 332.76 626.82 323.38 619.35 313.96 613.47 304.51 609.19 295.04 606.48 285.56 605.24 276.08 605.27 266.62 606.35 257.17 608.18 247.75 610.45 238.37 612.83 229.04 614.98 219.76 616.57 210.53 617.33 201.38 616.99 192.29 615.37 183.28 612.33 174.34 607.8 165.49 601.8 156.72 594.39 148.04 585.72 139.43 575.98 130.92 565.42 129.98 555.74 129.18 546.06 128.54 536.38 128.07 526.71 127.78 517.03 127.68 507.35 127.76 497.67 128.03 488 128.49 478.32 129.12 468.64 129.9 458.96 130.82 449.29 131.86 439.61 132.99 429.93 134.19 420.25 135.44 410.58 136.69 400.9 137.93 391.22 139.13 381.54 140.25 371.86 141.27 362.19 142.18 352.51 142.94 342.83 143.55 333.15 143.98 323.47 144.23 313.8 144.29 304.12 144.16 294.44 143.85 284.76 143.35 275.08 146.32 259.92 157.95 252.52 173.65 246 189.09 236.94 196.66 230.93 204.15 224.16 211.56 216.75 218.89 208.83 226.16 200.56 233.37 192.11 240.51 183.65 247.61 175.36 254.66 167.41 261.68 159.93 268.68 153.04 275.66 146.83 289.62 136.99 303.62 129.31 317.81 124.53 332.17 120.8 346.92 117.38 361.97 113.29 373.61 108.89 377.54 107.25" stroke-dasharray="6 2" transform="rotate(8.08, 400, 400)" opacity="0.66"></path><path d="M377.72 120.38Q385.5 126.15 393.41 131.35 401.45 135.93 409.63 139.88 417.96 143.21 426.42 145.97 435.03 148.21 443.79 150.02 452.69 151.53 461.72 152.86 470.9 154.15 480.21 155.53 489.65 157.16 499.21 159.16 508.88 161.66 518.67 164.77 528.56 168.54 538.54 173.05 548.6 178.29 558.73 184.26 568.91 190.91 579.15 198.16 589.41 205.9 599.7 214.01 609.99 222.33 620.28 230.71 630.54 238.98 640.77 246.98 650.95 254.54 661.06 261.53 671.09 267.83 681.02 273.36 684.02 282.83 686.36 292.3 688 301.77 688.91 311.24 689.06 320.71 688.46 330.18 687.12 339.65 685.06 349.12 682.32 358.59 678.98 368.06 675.09 377.53 670.73 387 666.01 396.47 661.01 405.94 655.84 415.41 650.61 424.88 645.44 434.35 640.42 443.82 635.67 453.29 631.28 462.76 627.34 472.23 623.94 481.7 621.15 491.17 619.03 500.64 617.62 510.11 616.95 519.58 617.04 529.05 617.88 538.52 619.46 547.99 621.74 557.46 617.49 578.24 605.87 583.02 586.69 577.58 572.9 573.41 561.56 573.68 549.98 577.38 544.03 581.57 537.96 587.19 531.78 594.2 525.48 602.51 519.05 611.98 512.48 622.4 505.77 633.53 498.92 645.09 491.92 656.78 484.78 668.3 477.49 679.33 470.05 689.59 462.47 698.83 454.74 706.84 446.88 713.45 438.88 718.56 430.75 722.13 422.49 724.19 414.09 715.45 405.58 705.54 396.96 694.71 388.25 683.25 379.45 671.45 370.57 659.63 361.63 648.1 352.63 637.15 343.57 627.06 334.48 618.06 325.36 610.32 316.22 603.97 307.07 599.07 297.92 595.63 288.77 593.57 279.64 592.78 270.53 593.09 261.46 594.26 252.42 596.05 243.44 598.17 234.5 600.34 225.62 602.27 208.1 603.8 190.8 602.41 182.28 599.61 173.84 595.47 165.48 589.99 157.19 583.22 148.99 575.27 140.87 566.3 140 556.95 139.28 547.59 138.72 538.23 138.33 528.88 138.12 519.52 138.1 510.16 138.26 500.81 138.61 491.45 139.13 482.09 139.82 472.74 140.66 463.38 141.63 454.03 142.71 444.67 143.88 435.31 145.12 425.96 146.4 416.6 147.69 407.24 148.96 397.89 150.19 388.53 151.36 379.17 152.43 369.82 153.39 360.46 154.22 351.1 154.89 341.75 155.4 332.39 155.73 323.03 155.88 313.68 155.84 304.32 155.62 294.96 155.21 285.61 158.16 270.59 169.4 262.24 177.04 258.78 184.59 254.5 192.06 249.41 199.45 243.54 206.76 236.97 213.98 229.79 221.13 222.12 228.21 214.12 235.21 205.93 242.14 197.72 249.01 189.64 255.82 181.84 262.58 174.45 269.3 167.59 282.62 156.14 295.87 146.78 309.11 140.68 322.4 136.14 335.85 133.05 349.47 130.03 370.59 123.12 377.72 120.38" stroke-dasharray="3 0" transform="rotate(12.12, 400, 400)" opacity="0.35"></path><path d="M378.8 133.51Q394.46 144.1 410.61 152.39 427.27 158.36 444.43 162.34 462.08 165.02 480.18 167.33 498.69 170.27 517.55 174.81 536.7 181.69 556.07 191.28 575.57 203.57 595.1 218.07 614.58 233.94 633.9 250.09 652.96 265.33 671.68 278.6 675.88 296.67 677.49 314.74 676.39 332.81 672.67 350.88 666.6 368.96 658.66 387.03 649.44 405.1 639.65 423.17 630.05 441.24 621.35 459.31 614.23 477.39 609.24 495.46 606.74 513.53 606.93 531.6 609.8 549.67 615.13 567.74 604.01 570.12 593.16 568.94 582.47 565.67 571.85 562.19 561.21 560.43 550.44 562.07 539.46 568.31 528.2 579.65 516.58 595.77 504.54 615.6 492.05 637.45 479.06 659.29 465.57 679.05 451.55 694.94 437.02 705.75 422 711.07 405.25 693.43 388.18 672.43 370.87 650.04 353.37 628.4 335.77 609.49 318.12 594.86 300.5 585.33 282.96 580.92 265.57 580.87 248.36 583.73 231.39 587.67 214.68 590.67 198.26 590.96 182.14 587.17 166.32 578.63 150.8 565.41 149.38 547.39 148.61 529.37 148.56 511.35 149.23 493.33 150.56 475.31 152.47 457.29 154.79 439.26 157.36 421.24 159.98 403.22 162.44 385.2 164.56 367.18 166.18 349.16 167.18 331.14 167.47 313.12 167.04 295.09 165.92 277.07 180.86 270.74 195.51 261.36 209.84 249.15 223.86 234.73 237.58 219.06 251 203.26 264.16 188.43 277.09 175.47 289.83 164.98 302.44 157.13 314.97 151.68 327.49 148.03 340.06 145.32 352.76 142.58 372.23 136.2 378.8 133.51" stroke-dasharray="5 7" transform="rotate(16.16, 400, 400)" opacity="0.82"></path><path d="M380.75 146.63Q396.29 156.84 412.27 164.89 428.69 170.75 445.53 174.67 462.77 177.25 480.36 179.26 498.26 181.62 516.42 185.22 534.76 190.79 553.22 198.81 571.72 209.41 590.18 222.35 608.52 237.04 626.65 252.61 644.49 268.03 661.96 282.26 665.1 299.42 665.87 316.58 664.21 333.74 660.23 350.9 654.22 368.06 646.6 385.21 637.88 402.37 628.69 419.53 619.66 436.69 611.42 453.85 604.54 471.01 599.5 488.17 596.65 505.33 596.2 522.49 598.17 539.65 602.42 556.81 591.45 556.68 580.78 554.22 570.32 550.93 560 548.48 549.72 548.43 539.4 552.06 528.97 560.11 518.35 572.7 507.48 589.33 496.3 608.85 484.75 629.73 472.81 650.16 460.44 668.41 447.62 682.99 434.34 692.94 420.61 697.94 404.13 681.3 387.44 661.57 370.6 640.41 353.65 619.67 336.68 601.1 319.72 586.11 302.85 575.57 286.11 569.71 269.54 568.09 253.19 569.69 237.08 573.03 221.24 576.42 205.69 578.21 190.42 576.98 175.44 571.81 160.73 562.31 159.5 545.03 158.94 527.76 159.07 510.49 159.89 493.21 161.34 475.94 163.33 458.67 165.71 441.39 168.32 424.12 170.97 406.84 173.49 389.57 175.69 372.3 177.43 355.02 178.58 337.75 179.06 320.47 178.83 303.2 177.93 285.92 192.31 277.85 206.41 267 220.23 253.84 233.76 239.11 246.98 223.77 259.92 208.83 272.59 195.21 285.01 183.61 297.22 174.42 309.25 167.68 321.16 163.07 332.99 160 344.8 157.65 356.66 155.16 374.68 149.17 380.75 146.63" stroke-dasharray="6 7" transform="rotate(20.200000000000003, 400, 400)" opacity="0.97"></path><path d="M383.47 159.76Q398.8 169.57 414.5 177.38 430.57 183.13 446.97 187.02 463.68 189.53 480.65 191.33 497.83 193.22 515.17 196 532.62 200.38 550.1 206.89 567.55 215.8 584.9 227.04 602.08 240.27 619.01 254.83 635.63 269.89 651.88 284.53 654.04 300.75 654.05 316.97 651.91 333.18 647.76 349.4 641.85 365.62 634.55 381.84 626.34 398.05 617.73 414.27 609.26 430.49 601.47 446.7 594.85 462.92 589.82 479.14 586.69 495.35 585.67 511.57 583.03 535.02 568.76 539.37 558.52 536.73 548.45 535.72 538.49 537.56 528.56 543.09 518.6 552.71 508.53 566.27 498.31 583.1 487.86 602.12 477.15 621.89 466.13 640.89 454.76 657.65 443.03 670.99 430.9 680.12 418.38 684.82 402.31 669.16 386.11 650.66 369.83 630.74 353.54 610.97 337.27 592.85 321.09 577.68 305.03 566.33 289.13 559.16 273.44 556.02 257.97 556.19 242.75 558.59 227.8 561.83 213.11 564.46 198.7 565.14 184.56 562.79 170.68 556.76 169.67 540.29 169.31 523.82 169.63 507.34 170.6 490.87 172.17 474.4 174.22 457.93 176.65 441.46 179.28 424.99 181.96 408.51 184.51 392.04 186.78 375.57 188.62 359.1 189.91 342.62 190.58 326.15 190.57 309.68 189.9 293.21 203.72 283.51 217.29 271.5 230.6 257.76 243.63 243.11 256.39 228.41 268.86 214.55 281.06 202.26 293.01 192.05 304.73 184.14 316.25 178.45 327.6 174.62 338.83 172.06 349.98 170.03 361.1 167.76 377.86 162.14 383.47 159.76" stroke-dasharray="9 0" transform="rotate(24.24, 400, 400)" opacity="0.96"></path><path d="M386.86 172.88Q401.86 182.3 417.17 189.86 432.76 195.5 448.61 199.37 464.67 201.85 480.91 203.51 497.28 205.03 513.73 207.12 530.2 210.46 546.65 215.58 563.01 222.83 579.22 232.32 595.22 243.86 610.96 257.06 626.38 271.27 641.43 285.73 642.7 300.99 642.05 316.26 639.52 331.52 635.24 346.78 629.47 362.04 622.53 377.3 614.82 392.56 606.77 407.82 598.85 423.08 591.51 438.34 585.17 453.6 580.19 468.86 576.85 484.12 575.34 499.38 571.59 521.04 557.13 524.88 547.09 523.41 537.26 524.13 527.58 527.87 517.99 535.15 508.43 546.06 498.84 560.27 489.16 577.05 479.35 595.35 469.36 613.92 459.15 631.47 448.67 646.79 437.91 658.93 426.83 667.28 415.42 671.69 399.87 656.99 384.27 639.71 368.67 621.03 353.11 602.26 337.64 584.72 322.29 569.55 307.09 557.59 292.09 549.3 277.3 544.7 262.74 543.39 248.43 544.58 234.37 547.22 220.57 550.08 207.02 551.97 193.72 551.79 180.66 548.74 179.88 533.12 179.75 517.5 180.25 501.88 181.36 486.26 183.03 470.64 185.15 455.01 187.6 439.39 190.24 423.77 192.93 408.15 195.51 392.53 197.82 376.91 199.75 361.29 201.18 345.67 202.03 330.04 202.24 314.42 201.82 298.8 215.08 287.77 228.12 274.98 240.92 261.1 253.46 246.88 265.75 233.13 277.77 220.54 289.52 209.66 301.03 200.84 312.3 194.15 323.35 189.44 334.21 186.31 344.91 184.21 355.48 182.46 365.97 180.38 381.64 175.12 386.86 172.88" stroke-dasharray="1 10" transform="rotate(28.28, 400, 400)" opacity="0.38"></path><path d="M390.79 186.01Q405.34 195.02 420.13 202.33 435.13 207.85 450.3 211.7 465.61 214.19 481.03 215.78 496.5 217.03 511.98 218.57 527.43 221.01 542.8 224.89 558.04 230.58 573.1 238.31 587.93 248.07 602.49 259.62 616.73 272.55 630.62 286.27 631.1 300.58 629.88 314.88 627.04 329.19 622.7 343.49 617.1 357.8 610.53 372.1 603.31 386.4 595.81 400.71 588.43 415.01 581.54 429.32 575.49 443.62 570.6 457.93 567.1 472.23 565.2 486.54 560.49 506.83 545.9 511.21 536.07 511.3 526.47 513.86 517.05 519.42 507.75 528.2 498.54 540.09 489.36 554.63 480.15 571.09 470.89 588.5 461.52 605.8 452 621.9 442.3 635.83 432.39 646.83 422.24 654.44 411.82 658.57 396.92 644.8 382.04 628.71 367.21 611.26 352.47 593.55 337.85 576.69 323.39 561.69 309.11 549.32 295.04 540.11 281.17 534.2 267.54 531.41 254.15 531.24 241 532.9 228.08 535.46 215.4 537.87 202.94 539.15 190.69 538.42 190.17 523.69 190.25 508.96 190.93 494.23 192.18 479.5 193.93 464.77 196.1 450.04 198.56 435.31 201.2 420.58 203.88 405.85 206.47 391.12 208.82 376.38 210.82 361.65 212.38 346.92 213.39 332.19 213.83 317.46 213.66 302.73 226.35 290.77 238.86 277.66 251.15 264.05 263.2 250.64 275.02 238.06 286.6 226.87 297.92 217.45 309.01 209.99 319.85 204.46 330.48 200.65 340.89 198.15 351.13 196.44 361.2 194.93 371.15 193.03 385.89 188.1 390.79 186.01" stroke-dasharray="7 2" transform="rotate(32.32, 400, 400)" opacity="0.11"></path><path d="M395.09 199.14Q409.08 207.74 423.24 214.78 437.53 220.18 451.92 224.03 466.39 226.55 480.9 228.11 495.4 229.19 509.87 230.32 524.25 232.03 538.52 234.82 552.62 239.11 566.53 245.16 580.2 253.09 593.6 262.83 606.69 274.14 619.45 286.63 619.24 299.99 617.56 313.36 614.48 326.72 610.14 340.09 604.75 353.45 598.54 366.82 591.81 380.18 584.85 393.55 578 406.91 571.55 420.28 565.81 433.64 561.04 447.01 557.46 460.37 555.23 473.74 549.7 493.02 535.08 498.75 525.48 500.6 516.1 504.98 506.93 512.16 497.91 522.15 489 534.68 480.18 549.25 471.38 565.15 462.59 581.54 453.75 597.5 444.83 612.16 435.8 624.74 426.63 634.66 417.28 641.58 407.75 645.43 393.6 632.59 379.53 617.65 365.56 601.42 351.71 584.8 338.01 568.72 324.49 554.04 311.16 541.48 298.03 531.56 285.12 524.51 272.43 520.33 259.96 518.73 247.71 519.18 235.68 520.98 223.86 523.31 206.39 518.84 200.84 498.55 201.69 484.74 203.06 470.93 204.88 457.11 207.08 443.3 209.54 429.48 212.17 415.67 214.82 401.86 217.4 388.05 219.77 374.23 221.84 360.42 223.49 346.61 224.67 332.79 225.32 318.98 225.4 305.17 237.53 292.77 249.49 279.82 261.26 266.89 272.83 254.58 284.18 243.37 295.31 233.67 306.21 225.7 316.88 219.54 327.32 215.08 337.55 212.07 347.56 210.12 357.38 208.75 367.02 207.45 376.5 205.7 390.47 201.09 395.09 199.14" stroke-dasharray="3 0" transform="rotate(36.36, 400, 400)" opacity="0.79"></path><path d="M399.58 212.27Q412.9 220.45 426.31 227.21 439.8 232.49 453.33 236.32 466.88 238.89 480.41 240.48 493.9 241.48 507.3 242.32 520.6 243.46 533.74 245.36 546.72 248.41 559.48 252.92 572.02 259.08 584.29 266.95 596.27 276.43 607.95 287.3 607.15 299.75 605.09 312.2 601.85 324.66 597.56 337.11 592.4 349.56 586.57 362.01 580.32 374.47 573.89 386.92 567.55 399.37 561.55 411.82 556.13 424.28 551.52 436.73 547.9 449.18 545.42 461.64 539.24 480.21 524.68 487.83 515.32 491.48 506.19 497.53 497.26 506.05 488.5 516.9 479.89 529.74 471.38 544.05 462.95 559.19 454.56 574.43 446.17 589.02 437.77 602.27 429.31 613.56 420.78 622.47 412.13 628.73 403.36 632.31 390.07 620.36 376.9 606.56 363.85 591.53 350.95 576.03 338.22 560.81 325.67 546.6 313.31 534.04 301.15 523.63 289.19 515.65 277.44 510.22 265.89 507.21 254.55 506.31 243.4 507.03 232.44 508.77 216.33 505.24 211.51 486.76 212.52 473.88 214 460.99 215.88 448.11 218.09 435.23 220.54 422.34 223.13 409.46 225.75 396.58 228.3 383.7 230.68 370.82 232.78 357.93 234.53 345.05 235.85 332.17 236.69 319.29 237.02 306.41 248.58 294.1 259.98 281.76 271.23 269.87 282.29 258.89 293.17 249.19 303.85 241 314.32 234.44 324.59 229.5 334.64 226.01 344.48 223.7 354.11 222.22 363.55 221.13 372.8 219.99 381.88 218.38 395.19 214.08 399.58 212.27" stroke-dasharray="4 5" transform="rotate(40.400000000000006, 400, 400)" opacity="0.33"></path><path d="M404.1 225.39Q416.63 233.14 429.21 239.62 441.81 244.76 454.4 248.58 466.97 251.21 479.48 252.87 491.91 253.86 504.24 254.53 516.43 255.27 528.46 256.47 540.32 258.49 551.97 261.65 563.39 266.18 574.57 272.21 585.48 279.77 596.12 288.78 594.83 300.35 592.48 311.93 589.16 323.5 584.97 335.08 580.07 346.65 574.63 358.23 568.85 369.8 562.93 381.38 557.08 392.96 551.52 404.53 546.44 416.11 542.02 427.68 538.41 439.26 535.76 450.84 529.09 468.91 514.69 478.66 505.6 483.97 496.73 491.43 488.06 500.96 479.58 512.31 471.24 525.13 463.03 538.92 454.93 553.12 446.9 567.12 438.91 580.33 430.95 592.2 422.99 602.28 415 610.22 406.95 615.86 398.84 619.18 386.49 608.12 374.27 595.41 362.2 581.57 350.3 567.2 338.56 552.9 327 539.3 315.62 526.94 304.43 516.26 293.44 507.59 282.63 501.09 272 496.78 261.55 494.5 251.27 493.95 241.15 494.71 226.38 491.2 222.28 474.18 223.43 462.23 225 450.27 226.92 438.32 229.13 426.37 231.55 414.42 234.09 402.46 236.66 390.51 239.17 378.56 241.53 366.61 243.66 354.66 245.48 342.7 246.93 330.75 247.95 318.8 248.51 306.85 259.48 295.14 270.32 283.81 281.02 273.26 291.58 263.78 301.97 255.63 312.19 248.93 322.22 243.71 332.07 239.87 341.73 237.23 351.19 235.54 360.46 234.44 369.54 233.58 378.43 232.58 387.15 231.07 399.9 227.08 404.1 225.39" stroke-dasharray="3 8" transform="rotate(44.44, 400, 400)" opacity="0.16"></path><path d="M408.44 238.51Q420.11 245.83 431.77 252.01 443.42 257 455.02 260.79 466.56 263.49 478.02 265.24 489.38 266.29 500.62 266.9 511.72 267.38 522.65 268.08 533.41 269.29 543.97 271.33 554.32 274.42 564.45 278.76 574.35 284.44 583.99 291.49 582.32 302.23 579.77 312.96 576.42 323.7 572.37 334.44 567.75 345.18 562.71 355.91 557.39 366.65 551.97 377.39 546.61 388.13 541.48 398.86 536.74 409.6 532.53 420.34 529 431.08 526.23 441.81 524.33 452.55 523.35 463.29 514.11 466.42 505.1 471.33 496.32 478.07 487.75 486.6 479.36 496.75 471.16 508.25 463.11 520.73 455.19 533.77 447.4 546.89 439.7 559.59 432.07 571.43 424.5 581.97 416.97 590.88 409.45 597.93 401.92 602.99 394.36 606.06 383.01 595.86 371.81 584.21 360.75 571.54 349.86 558.3 339.13 545 328.57 532.11 318.18 520.12 307.96 509.4 297.91 500.27 288.03 492.95 278.31 487.5 268.74 483.91 259.32 482.02 250.03 481.57 236.57 477.36 233.16 461.48 234.43 450.44 236.07 439.4 238.01 428.37 240.2 417.33 242.57 406.3 245.05 395.26 247.55 384.22 250.01 373.19 252.34 362.15 254.48 351.12 256.35 340.08 257.9 329.05 259.07 318.01 259.85 306.98 270.21 296.31 280.47 286.33 290.62 277.29 300.64 269.41 310.53 262.8 320.27 257.52 329.85 253.51 339.27 250.65 348.52 248.75 357.6 247.55 375.15 245.98 392.17 243.79 404.41 240.07 408.44 238.51" stroke-dasharray="9 3" transform="rotate(48.48, 400, 400)" opacity="0.41"></path><path d="M412.45 251.64Q423.17 258.51 433.87 264.38 444.51 269.19 455.09 272.95 465.58 275.7 475.98 277.57 486.27 278.72 496.42 279.36 506.44 279.73 516.3 280.1 526 280.73 535.51 281.89 544.83 283.8 553.96 286.67 566.26 298.17 566.96 315.65 563.64 325.59 559.77 335.53 555.46 345.46 550.81 355.4 545.95 365.34 541.01 375.28 536.12 385.22 531.42 395.15 527.03 405.09 523.06 415.03 519.63 424.97 516.83 434.91 514.72 444.85 513.38 454.78 504.54 459.52 495.91 465.82 487.48 473.64 479.23 482.84 471.16 493.24 463.26 504.54 455.51 516.42 447.9 528.51 440.41 540.44 433.03 551.82 425.74 562.3 418.53 571.57 411.38 579.4 404.27 585.6 397.19 590.11 390.11 592.94 379.8 583.57 369.63 572.97 359.61 561.44 349.74 549.34 340.02 537.06 330.45 525 321.04 513.53 311.78 502.98 302.66 493.65 293.69 485.74 284.86 479.4 276.15 474.65 259.15 470.32 242.45 469.59 243.11 459.45 244.14 449.3 245.52 439.16 247.2 429.02 249.15 418.88 251.3 408.73 253.61 398.59 256.01 388.45 258.43 378.31 260.82 368.17 263.1 358.02 265.22 347.88 267.12 337.74 268.74 327.6 270.06 317.46 271.02 307.32 280.76 298.03 290.43 289.6 300 282.19 309.47 275.89 318.83 270.76 328.07 266.78 337.17 263.84 346.14 261.83 363.57 259.86 380.54 258.64 404.59 253.9 412.45 251.64" stroke-dasharray="9 2" transform="rotate(52.52, 400, 400)" opacity="0.55"></path><path d="M415.95 264.76Q425.69 271.18 435.37 276.72 444.99 281.35 454.52 285.05 463.97 287.85 473.31 289.83 482.53 291.12 491.63 291.86 509.34 292.47 526.6 293.25 543.03 296.33 558.93 301.84 556.78 311.01 554.06 320.19 550.84 329.36 547.18 338.53 543.18 347.71 538.93 356.88 534.51 366.05 530.04 375.23 525.62 384.4 521.34 393.57 517.3 402.75 513.6 411.92 510.32 421.09 507.53 430.26 505.3 439.44 503.68 448.61 495.29 454.67 487.08 462 479.05 470.48 471.17 479.95 463.46 490.21 455.9 501 448.48 512.05 441.19 523.05 434.02 533.72 426.96 543.77 420 552.93 413.13 561 399.62 572.51 386.27 579.81 377.01 571.27 367.88 561.67 358.88 551.25 350.03 540.29 341.31 529.07 332.72 517.91 324.26 507.1 315.94 496.92 307.73 487.63 299.65 479.41 291.67 472.42 283.81 466.75 268.4 460 253.25 456.83 254.09 447.55 255.25 438.27 256.7 428.99 258.41 419.72 260.34 410.44 262.44 401.16 264.67 391.88 266.97 382.6 269.3 373.33 271.59 364.05 273.81 354.77 275.89 345.49 277.79 336.21 279.47 326.93 280.89 317.65 282.01 308.37 291.11 300.7 300.16 293.92 309.14 288.12 318.03 283.34 326.84 279.56 335.55 276.72 352.58 273.64 369.26 272.08 385.3 271.09 400.94 269.25 412.23 266.07 415.95 264.76" stroke-dasharray="11 1" transform="rotate(56.56, 400, 400)" opacity="0.89"></path><path d="M418.8 277.9Q436.19 289.04 453.27 297.07 469.97 302 486.24 304.33 502.02 305.01 517.27 305.26 531.95 306.43 546.05 309.76 541.09 326.63 534.6 343.5 527.08 360.37 519.08 377.23 511.24 394.1 504.13 410.97 498.32 427.84 494.24 444.7 478.61 459.61 463.56 477.67 449.06 497.47 435.07 517.3 421.52 535.41 408.37 550.26 395.55 560.81 382.97 566.68 366.66 550.32 350.82 531.13 335.43 510.8 320.48 491.14 305.93 473.84 291.74 460.17 277.86 450.81 264.23 445.77 266.48 428.88 269.69 411.99 273.6 395.09 277.93 378.2 282.34 361.31 286.49 344.41 290.07 327.52 292.8 310.63 309.66 299.49 326.31 291.81 342.68 287.33 358.73 285.27 374.4 284.55 389.66 283.88 411.64 279.95 418.8 277.9" stroke-dasharray="9 9" transform="rotate(60.599999999999994, 400, 400)" opacity="0.61"></path><path d="M420.9 291.02Q436.24 301.33 451.28 309.01 465.96 314.03 480.25 316.7 494.12 317.64 507.54 317.73 520.49 317.98 532.97 319.42 528.08 334.85 522.05 350.28 515.25 365.71 508.12 381.13 501.11 396.56 494.66 411.99 489.18 427.41 485.02 442.84 470.45 458.34 456.36 475.72 442.73 493.78 429.54 511.21 416.75 526.75 404.32 539.36 392.21 548.36 380.37 553.55 366.08 538.93 352.17 521.89 338.64 503.65 325.44 485.56 312.56 468.93 299.96 454.84 287.59 444.02 275.4 436.79 277.84 421.5 281.03 406.2 284.8 390.91 288.89 375.61 293.05 360.31 297.02 345.02 300.54 329.72 303.4 314.43 318.92 306.44 334.28 301.29 349.45 298.54 364.38 297.46 379.02 297.12 393.34 296.53 414.1 292.89 420.9 291.02" stroke-dasharray="7 8" transform="rotate(64.64, 400, 400)" opacity="0.29"></path><path d="M422.14 304.15Q435.49 313.58 448.55 320.86 461.29 325.91 473.7 328.9 485.76 330.23 497.46 330.46 511.91 337.46 509.51 358.59 503.45 372.6 497.16 386.6 490.97 400.6 485.18 414.6 480.11 428.6 476 442.61 462.59 457.79 449.55 473.82 436.9 489.77 424.59 504.7 412.64 517.76 401 528.29 389.65 535.88 378.57 540.43 366.2 527.48 354.14 512.52 342.37 496.4 330.85 480.08 319.57 464.52 308.48 450.59 297.57 438.96 286.78 430.06 289.32 416.31 292.46 402.55 296.03 388.8 299.85 375.04 303.74 361.29 307.48 347.54 310.89 333.78 313.79 320.03 327.92 314.82 341.95 311.74 355.85 310.31 369.58 309.9 383.1 309.78 396.38 309.21 415.77 305.83 422.14 304.15" stroke-dasharray="10 10" transform="rotate(68.68, 400, 400)" opacity="0.96"></path><path d="M422.49 317.27Q433.91 325.81 445.08 332.61 455.99 337.61 466.63 340.87 476.99 342.63 487.06 343.23 499.41 349.31 497.01 368.04 491.68 380.61 486.2 393.18 480.8 405.75 475.68 418.33 471.07 430.9 467.14 443.47 454.97 457.52 443.1 471.68 431.51 485.28 420.21 497.71 409.18 508.44 398.42 517.07 387.9 523.37 377.63 527.3 367.08 515.99 356.77 503.04 346.65 489.04 336.72 474.63 326.95 460.48 317.32 447.25 307.81 435.47 298.38 425.58 300.94 413.32 303.95 401.07 307.29 388.81 310.81 376.56 314.39 364.3 317.87 352.05 321.1 339.79 323.97 327.54 336.67 324.58 349.31 323.05 361.87 322.54 374.31 322.53 386.62 322.48 398.77 321.89 416.61 318.77 422.49 317.27" stroke-dasharray="10 5" transform="rotate(72.72, 400, 400)" opacity="0.82"></path><path d="M421.93 330.4Q431.51 338 440.91 344.26 450.09 349.1 459.07 352.56 476.29 355.4 492.9 355.86 488.9 366.97 484.53 378.09 479.93 389.21 475.24 400.33 470.6 411.45 466.16 422.57 462.06 433.69 458.42 444.81 447.58 457.09 436.95 469.02 426.53 480.19 416.33 490.21 406.34 498.78 396.56 505.69 386.98 510.82 377.59 514.18 368.75 504.44 360.05 493.43 351.5 481.51 343.06 469.1 334.73 456.63 326.48 444.55 318.31 433.28 310.18 423.15 312.69 412.37 315.52 401.58 318.58 390.8 321.78 380.02 325.01 369.24 328.18 358.46 331.19 347.68 333.95 336.9 345.17 335.59 356.37 335.11 367.51 335.13 378.6 335.29 389.6 335.21 400.5 334.56 416.6 331.72 421.93 330.4" stroke-dasharray="2 8" transform="rotate(76.76, 400, 400)" opacity="0.36"></path><path d="M420.47 343.52Q428.35 350.15 436.08 355.79 451.02 363.38 465.51 367.97 474.17 373.65 472.1 388.19 468.21 397.82 464.28 407.46 460.38 417.09 456.61 426.72 453.06 436.35 449.8 445.99 440.36 456.09 431.06 465.63 421.92 474.39 412.93 482.16 404.09 488.78 395.4 494.16 379.02 495.55 364 483.69 356.89 473.8 349.85 463.41 342.88 452.81 335.95 442.26 329.07 432.05 322.2 422.41 324.57 413.09 327.16 403.78 329.9 394.47 332.74 385.15 335.6 375.84 338.42 366.52 347.28 352.41 363.12 347.72 372.79 347.96 382.44 348.11 392.04 347.93 401.59 347.23 415.77 344.66 420.47 343.52" stroke-dasharray="3 11" transform="rotate(80.80000000000001, 400, 400)" opacity="0.60"></path><path d="M418.19 356.66Q430.67 367.2 442.76 374.82 454.46 379.48 465.79 381.53 459.7 397.75 453.32 413.96 447.04 430.17 441.26 446.37 425.4 461.3 409.93 473.55 394.87 482.49 380.22 487.92 368.56 473.81 357.09 457.5 345.73 440.1 334.44 422.86 338.87 407.19 343.7 391.51 348.6 375.84 353.28 360.16 369.58 360.67 385.87 360.92 410.14 358.26 418.19 356.66" stroke-dasharray="2 2" transform="rotate(84.84, 400, 400)" opacity="0.85"></path><path d="M415.17 369.78Q424.78 378.49 434.15 385.31 445.33 398.2 442.36 419.3 437.42 432.37 432.75 445.43 419.9 455.88 407.27 464.36 394.89 470.68 382.76 474.79 373.71 463.79 364.74 451.28 355.8 437.79 346.88 423.93 350.66 411.25 354.66 398.58 358.71 385.9 362.65 373.22 375.78 373.73 388.93 373.65 408.62 371.12 415.17 369.78" stroke-dasharray="11 5" transform="rotate(88.88, 400, 400)" opacity="0.99"></path><path d="M411.54 382.91Q425.28 394.77 438.68 403.31 435.06 413.17 431.4 423.02 427.77 432.88 424.25 442.74 414.51 449.27 404.88 454.62 387.38 456.19 372.76 444.7 366.14 435.07 359.52 424.98 362.52 415.37 365.62 405.76 375.24 391.4 391.66 386.22 406.57 383.96 411.54 382.91" stroke-dasharray="1 7" transform="rotate(92.92, 400, 400)" opacity="0.49"></path><path d="M407.44 396.03Q416.41 404.83 425.2 411.66 420.44 424.83 415.73 438.02 402.68 444.34 389.82 448.54 381.1 437.7 372.35 425.41 376.58 412.46 380.87 399.52 400.78 397.29 407.44 396.03" stroke-dasharray="5 6" transform="rotate(96.96, 400, 400)" opacity="0.26"></path></g></svg>