<svg xmlns="http://www.w3.org/2000/svg" version="1.1" xmlns:xlink="http://www.w3.org/1999/xlink" xmlns:svgjs="http://svgjs.dev/svgjs" viewBox="0 0 800 800"><defs><linearGradient x1="50%" y1="0%" x2="50%" y2="100%" id="ccchaos-grad"><stop stop-color="hsl(173.4, 100%, 42%)" stop-opacity="1" offset="0%"></stop><stop stop-color="hsl(173.4, 10%, 42%)" stop-opacity="1" offset="100%"></stop></linearGradient></defs><g stroke-width="2" stroke="url(#ccchaos-grad)" fill="none" stroke-linecap="round"><path d="M120.28 105.21Q129.64 107.54 139.01 110.12 148.37 112.85 157.73 115.62 167.09 118.32 176.45 120.87 185.81 123.16 195.17 125.1 204.54 126.62 213.9 127.67 223.26 128.2 232.62 128.2 241.98 127.67 251.34 126.62 260.7 125.09 270.06 123.15 279.43 120.86 288.79 118.32 298.15 115.61 307.51 112.84 316.87 110.12 326.23 107.54 335.59 105.2 344.96 103.19 354.32 101.6 363.68 100.46 373.04 99.84 382.4 99.75 391.76 100.2 401.12 101.16 410.48 102.61 419.85 104.48 429.21 106.72 438.57 109.23 447.93 111.91 457.29 114.68 466.65 117.42 476.01 120.03 485.38 122.42 494.74 124.48 504.1 126.16 513.46 127.37 522.82 128.08 532.18 128.26 541.54 127.91 550.9 127.03 560.27 125.66 569.63 123.85 578.99 121.67 588.35 119.2 597.71 116.54 607.07 113.78 616.43 111.03 625.79 108.39 635.16 105.96 644.52 103.83 653.88 102.09 663.24 100.79 672.6 99.99 681.96 99.72 691.32 99.99 700.69 100.78 716.72 107.29 723.31 121.2 719.18 129.9 711.44 138.6 700.95 147.3 688.83 155.99 676.4 164.69 665.01 173.39 655.9 182.09 650.06 190.79 648.12 199.49 650.3 208.18 656.34 216.88 665.61 225.58 677.09 234.28 689.54 242.98 701.6 251.68 711.97 260.37 719.52 269.07 723.43 277.77 723.27 286.47 719.07 295.17 711.27 303.87 700.73 312.56 688.59 321.26 676.17 329.96 664.82 338.66 655.76 347.36 650.18 364.75 656.49 382.15 665.81 390.85 677.32 399.55 689.77 408.24 701.81 416.94 712.14 425.64 719.63 434.34 723.46 443.04 723.23 451.74 718.95 460.43 711.1 469.13 700.52 477.83 688.36 486.53 675.95 495.23 664.63 503.93 655.62 512.62 649.92 521.32 648.13 530.02 650.46 538.72 656.64 547.42 666.01 556.12 677.55 564.81 690 573.51 702.03 582.21 712.31 590.91 719.73 599.61 723.49 608.3 723.18 617 718.84 625.7 710.92 634.4 700.3 643.1 688.13 651.8 675.72 660.49 666.92 656.14 658.11 652.92 649.3 650.93 640.49 650.27 631.69 650.95 622.88 652.95 614.07 656.19 605.27 660.56 596.46 665.88 587.65 671.96 578.84 678.57 570.04 685.45 561.23 692.36 552.42 699.03 543.61 705.21 534.81 710.66 526 715.18 517.19 718.61 508.39 720.81 499.58 721.7 490.77 721.25 481.96 719.47 473.16 716.43 464.35 712.24 455.54 707.07 446.74 701.1 437.93 694.57 429.12 687.71 420.31 680.79 411.51 674.06 402.7 667.79 393.89 662.19 385.09 657.5 376.28 653.87 367.47 651.46 358.66 650.34 349.86 650.57 341.05 652.13 332.24 654.96 323.43 658.96 314.63 663.98 305.82 669.83 297.01 676.29 288.21 683.11 279.4 690.04 270.59 696.81 261.78 703.18 252.98 708.91 244.17 713.77 235.36 717.58 226.56 720.21 217.75 721.55 208.94 721.55 200.13 720.22 191.33 717.59 182.52 713.78 173.71 708.92 164.91 703.2 156.1 696.83 147.29 690.05 138.48 683.12 129.68 676.3 117.63 662.56 116.69 646.54 118.69 637.8 120.18 629.07 120.67 611.61 118.95 594.15 117.01 585.42 114.75 576.69 112.41 567.96 110.23 559.22 108.47 550.49 107.31 541.76 106.87 533.03 107.21 524.3 108.28 515.57 109.97 506.84 112.1 498.11 114.44 489.37 116.73 480.64 118.72 471.91 120.62 454.45 120.32 436.99 118.92 428.26 116.97 419.53 114.71 410.79 112.36 402.06 110.2 393.33 108.44 384.6 107.26 367.14 108.31 349.68 110.01 340.95 112.15 332.21 114.48 323.48 116.77 314.75 118.75 306.02 120.22 297.29 120.66 279.83 118.88 262.37 116.93 253.63 114.66 244.9 112.32 236.17 110.16 227.44 108.41 218.71 107.28 209.98 106.87 201.25 107.23 192.52 108.33 183.79 110.05 175.05 112.19 166.32 114.53 157.59 116.81 148.86 118.78 140.13 120.64 122.67 120.28 105.21" stroke-dasharray="9 4" transform="rotate(0, 400, 400)" opacity="0.05"></path><path d="M132.69 118.95Q150.8 124.25 168.9 129.66 187.01 134.42 205.12 137.88 223.23 139.56 241.34 139.24 259.44 136.94 277.55 133 295.66 127.96 313.77 122.5 331.88 117.39 349.99 113.33 368.09 110.88 386.2 110.37 404.31 111.89 422.42 115.21 440.53 119.88 458.63 125.26 476.74 130.6 494.85 135.17 512.96 138.33 531.07 139.66 549.18 138.96 567.28 136.33 585.39 132.14 603.5 126.96 621.61 121.51 639.72 116.55 657.82 112.74 675.93 110.63 694.04 110.5 712.15 112.37 706.7 129.01 688.84 145.64 665.55 162.27 645.96 178.91 637.75 195.54 644.12 212.17 662.59 228.81 685.92 245.44 704.97 262.08 712.28 278.71 704.98 295.34 685.94 311.98 662.61 328.61 644.13 345.24 637.75 361.88 645.95 378.51 665.53 395.14 688.82 411.78 706.7 428.41 712.15 445.04 703.05 461.68 682.96 478.31 659.75 494.95 642.51 511.58 638 528.21 647.98 544.85 668.54 561.48 691.63 578.11 708.21 594.75 711.77 611.38 700.93 628.01 679.93 644.65 662.62 640.15 645.31 640.46 628 645.54 610.69 654.68 593.38 666.62 576.07 679.72 558.76 692.17 541.45 702.25 524.14 708.56 506.83 710.25 489.52 707.07 472.21 699.46 454.9 688.48 437.59 675.64 420.28 662.7 402.97 651.47 385.66 643.48 368.35 639.84 351.04 641.05 333.73 646.95 316.42 656.71 299.11 669 281.8 682.12 264.49 694.25 247.18 703.72 229.88 709.24 212.57 710.02 195.26 705.98 177.95 697.66 160.64 686.21 143.33 673.21 126.02 660.46 130.36 643.54 132.61 626.62 131.87 609.69 128.44 592.77 123.66 575.85 119.4 558.93 117.34 542.01 118.27 525.08 121.84 508.16 126.64 491.24 130.8 474.32 132.69 457.39 131.56 440.47 127.86 423.55 123.04 406.63 118.98 389.71 117.28 372.78 118.6 355.86 122.43 338.94 127.26 322.02 131.2 305.09 132.71 288.17 131.2 271.25 127.26 254.33 122.43 237.41 118.6 220.48 117.28 203.56 118.98 186.64 123.04 169.72 127.86 152.79 131.56 135.87 132.69 118.95" stroke-dasharray="2 6" transform="rotate(4.04, 400, 400)" opacity="0.09"></path><path d="M143.87 133.22Q161.21 138.6 178.55 143.66 195.89 147.74 213.23 150.32 230.57 151.08 247.91 149.92 265.25 146.99 282.6 142.66 299.94 137.48 317.28 132.11 334.62 127.23 351.96 123.47 369.3 121.31 386.64 121.01 403.98 122.62 421.32 125.94 438.66 130.53 456 135.82 473.34 141.13 490.68 145.79 508.02 149.2 525.36 150.93 542.7 150.76 560.04 148.71 577.38 145.04 594.73 140.22 612.07 134.86 629.41 129.65 646.75 125.24 664.09 122.21 683.59 129.2 664.87 153.38 643.67 169.28 629.82 185.19 628.34 201.1 639.77 217.01 659.97 232.92 681.62 248.83 696.89 264.73 700.26 280.64 690.5 296.55 671.14 312.46 649.2 328.37 632.61 344.28 627.39 360.19 635.41 376.09 653.78 392 675.85 407.91 693.63 423.82 700.68 439.73 694.45 455.64 677.2 471.54 655.17 487.45 636.33 503.36 627.51 519.27 631.9 535.18 647.9 551.09 669.73 567 689.49 582.9 700.01 598.81 697.5 614.72 682.86 630.63 665.91 629.16 648.95 632.13 632 639.15 615.04 649.33 598.08 661.38 581.13 673.77 564.17 684.91 547.21 693.38 530.26 698.12 513.3 698.51 496.35 694.51 479.39 686.63 462.43 675.86 445.48 663.59 428.52 651.36 411.57 640.74 394.61 633.09 377.65 629.36 360.7 630.05 343.74 635.06 326.79 643.75 309.83 655.01 292.87 667.42 275.92 679.4 258.96 689.41 242.01 696.19 225.05 698.87 208.09 697.11 191.14 691.14 174.18 681.71 157.22 670.02 140.27 657.57 143.58 641.19 144.15 624.8 141.77 608.41 137.29 592.03 132.35 575.64 128.72 559.26 127.73 542.87 129.73 526.48 134 510.1 138.99 493.71 142.89 477.33 144.3 460.94 142.71 444.55 138.68 428.17 133.68 411.78 129.52 395.39 127.7 379.01 128.89 362.62 132.64 346.24 137.61 329.85 142 313.46 144.21 297.08 143.45 280.69 139.99 264.31 135.08 247.92 130.51 231.53 127.92 215.15 128.25 198.76 131.39 182.37 136.19 165.99 140.92 149.6 143.87 133.22" stroke-dasharray="0 9" transform="rotate(8.08, 400, 400)" opacity="0.13"></path><path d="M153.62 147.83Q170.06 153 186.51 157.47 202.95 160.71 219.39 162.35 235.84 162.19 252.28 160.25 268.73 156.76 285.17 152.13 301.62 146.9 318.06 141.68 334.51 137.08 350.95 133.64 367.4 131.76 383.84 131.67 400.29 133.37 416.73 136.66 433.18 141.16 449.62 146.35 466.06 151.61 482.51 156.33 498.95 159.96 515.4 162.07 531.84 162.42 548.29 160.96 564.73 157.87 581.18 153.51 597.62 148.38 614.07 143.09 630.51 138.26 646.96 134.45 662.72 139.42 641.21 161.95 624.31 177.17 616.98 192.39 621.64 207.61 636.76 222.83 657.29 238.05 676.38 253.27 687.68 268.49 687.42 283.71 675.69 298.94 656.39 314.16 635.96 329.38 621.21 344.6 617.05 359.82 624.87 375.04 642.07 390.26 662.91 405.48 680.44 420.7 688.83 435.92 685.27 451.14 670.96 466.36 650.66 481.58 631.14 496.8 618.9 512.02 618.03 527.24 628.81 542.46 647.65 557.68 668.28 572.9 683.81 588.13 689.07 603.35 682.31 618.57 665.8 619.9 649.3 625.11 632.8 633.58 616.3 644.32 599.79 656.08 583.29 667.47 566.79 677.17 550.29 684.05 533.78 687.29 517.28 686.52 500.78 681.82 484.28 673.75 467.77 663.26 451.27 651.56 434.77 640.03 418.26 630.02 401.76 622.7 385.26 618.92 368.76 619.13 352.25 623.3 335.75 630.94 319.25 641.17 302.75 652.78 286.24 664.42 269.74 674.71 253.24 682.47 236.74 686.78 220.23 687.14 203.73 683.5 187.23 676.29 170.73 666.36 154.22 654.86 155.89 639.01 154.59 623.17 150.76 607.32 145.68 591.48 141.03 575.64 138.37 559.79 138.59 543.95 141.6 528.1 146.42 512.26 151.42 496.41 154.95 480.57 155.83 464.72 153.76 448.88 149.44 433.03 144.3 417.19 140.06 401.35 138.13 385.5 139.16 369.66 142.79 353.81 147.83 337.97 152.59 322.12 155.48 306.28 155.55 290.43 152.76 274.59 148.05 258.74 142.99 242.9 139.26 227.06 138.11 211.21 139.92 195.37 144.09 179.52 149.22 163.68 153.62 147.83" stroke-dasharray="3 0" transform="rotate(12.12, 400, 400)" opacity="0.16"></path><path d="M161.96 162.6Q177.43 167.27 192.89 170.96 208.36 173.25 223.82 173.91 239.29 172.86 254.75 170.22 270.22 166.27 285.68 161.44 301.15 156.23 316.61 151.22 332.08 146.93 347.54 143.82 363.01 142.24 378.47 142.34 393.94 144.12 409.4 147.39 424.87 151.79 440.33 156.86 455.8 162.05 471.26 166.8 486.73 170.62 502.19 173.08 517.66 173.92 533.12 173.06 548.59 170.58 564.05 166.76 579.52 161.99 594.98 156.8 610.45 151.74 625.91 147.34 639.4 150.49 619.42 171.46 608.31 186.03 607.49 200.6 617.23 215.16 634.53 229.73 654.12 244.3 670 258.87 677.32 273.43 673.84 288 660.63 302.57 641.72 317.13 622.9 331.7 609.91 346.27 606.73 360.83 614.33 375.4 630.39 389.97 649.99 404.54 667.15 419.1 676.62 433.67 675.51 448.24 664.15 462.8 646.01 477.37 626.65 491.94 611.98 506.51 606.49 521.07 611.85 535.64 626.42 550.21 645.75 564.77 663.94 579.34 675.42 593.91 676.68 608.47 660.76 612.25 644.84 619.21 628.92 628.61 613 639.44 597.08 650.55 581.16 660.75 565.24 668.93 549.33 674.23 533.41 676.07 517.49 674.26 501.57 669 485.65 660.84 469.73 650.67 453.81 639.56 437.89 628.72 421.97 619.29 406.05 612.3 390.13 608.5 374.22 608.28 358.3 611.67 342.38 618.31 326.46 627.49 310.54 638.23 294.62 649.36 278.7 659.71 262.78 668.16 246.86 673.81 230.94 676.05 215.02 674.64 199.11 669.73 183.19 661.85 167.27 651.84 166.93 636.55 163.86 621.27 159 605.98 153.83 590.69 149.93 575.4 148.5 560.11 149.97 544.82 153.89 529.53 159.07 514.24 163.92 498.95 166.95 483.66 167.25 468.38 164.72 453.09 160.13 437.8 154.89 422.51 150.6 407.22 148.57 391.93 149.42 376.64 152.89 361.35 157.92 346.06 162.98 330.78 166.51 315.49 167.44 300.2 165.48 284.91 161.24 269.62 156 254.33 151.37 239.04 148.77 223.75 148.99 208.46 151.96 193.18 156.78 177.89 161.96 162.6" stroke-dasharray="9 5" transform="rotate(16.16, 400, 400)" opacity="0.20"></path><path d="M169.24 177.29Q183.69 181.23 198.15 183.97 212.6 185.26 227.06 184.95 241.52 183.08 255.97 179.84 270.43 175.54 284.88 170.6 299.34 165.5 313.8 160.75 328.25 156.79 342.71 154.04 357.17 152.74 371.62 153.03 386.08 154.88 400.53 158.11 414.99 162.4 429.45 167.34 443.9 172.44 458.36 177.2 472.81 181.16 487.27 183.93 501.73 185.25 516.18 184.97 530.64 183.13 545.09 179.92 559.55 175.63 574.01 170.7 588.46 165.6 602.92 160.83 615.65 162.44 600.79 181.96 596.08 195.91 601.12 209.85 614.5 223.79 632.49 237.73 650.06 251.68 662.3 265.62 665.81 279.56 659.6 293.51 645.4 307.45 627.18 321.39 610.02 335.34 598.72 349.28 596.43 363.22 603.79 377.17 618.75 391.11 637.12 405.05 653.78 418.99 664.08 432.94 665.15 446.88 656.68 460.82 641.04 474.77 622.59 488.71 606.49 502.65 597.24 516.6 597.4 530.54 606.95 544.48 623.21 558.43 641.64 572.37 657.1 586.31 665.27 600.26 650.07 605.99 634.87 614.17 619.67 624 604.48 634.5 589.28 644.67 574.08 653.5 558.88 660.13 543.68 663.91 528.48 664.48 513.28 661.78 498.08 656.07 482.88 647.91 467.68 638.09 452.48 627.59 437.28 617.41 422.08 608.57 406.88 601.91 391.68 598.1 376.49 597.5 361.29 600.17 346.09 605.86 330.89 614 315.69 623.8 300.49 634.3 285.29 644.48 270.09 653.35 254.89 660.03 239.69 663.87 224.49 664.5 209.29 661.86 194.09 656.2 178.89 648.08 176.53 633.37 172.07 618.66 166.75 603.94 162.05 589.23 159.29 574.52 159.25 559.81 161.92 545.09 166.57 530.38 171.89 515.67 176.41 500.96 178.86 486.24 178.55 471.53 175.58 456.82 170.76 442.11 165.46 427.4 161.14 412.68 159.01 397.97 159.68 383.26 162.94 368.55 167.89 353.83 173.15 339.12 177.25 324.41 179.05 309.7 178.04 294.99 174.5 280.27 169.43 265.56 164.23 250.85 160.37 236.14 158.91 221.42 160.27 206.71 164.07 192 169.24 177.29" stroke-dasharray="0 1" transform="rotate(20.200000000000003, 400, 400)" opacity="0.24"></path><path d="M176 191.67Q189.47 194.69 202.95 196.41 216.42 196.67 229.89 195.45 243.37 192.86 256.84 189.13 270.32 184.59 283.79 179.64 297.26 174.72 310.74 170.28 324.21 166.69 337.68 164.28 351.16 163.27 364.63 163.74 378.1 165.65 391.58 168.84 405.05 173.01 418.52 177.8 432 182.79 445.47 187.53 458.94 191.6 472.42 194.64 485.89 196.39 499.36 196.68 512.84 195.49 526.31 192.92 539.78 189.21 553.26 184.68 566.73 179.74 580.21 174.82 593.47 175.23 586.16 193.44 587.64 206.78 597.33 220.12 612.78 233.46 630.05 246.81 644.78 260.15 653.21 273.49 653.22 286.83 644.79 300.17 630.07 313.52 612.79 326.86 597.34 340.2 587.64 353.54 586.16 366.89 593.25 380.23 607.14 393.57 624.29 406.91 640.35 420.26 651.24 433.6 654.2 446.94 648.49 460.28 635.54 473.62 618.65 486.97 602.09 500.31 590.09 513.65 585.67 526.99 589.96 540.34 601.88 553.68 618.39 567.02 635.31 580.36 648.34 593.71 633.98 600.87 619.62 609.72 605.26 619.49 590.9 629.3 576.54 638.29 562.18 645.66 547.82 650.74 533.46 653.11 519.1 652.53 504.74 649.07 490.38 643.03 476.02 634.95 461.66 625.54 447.3 615.64 432.94 606.13 418.58 597.84 404.22 591.52 389.86 587.73 375.5 586.8 361.14 588.81 346.78 593.58 332.42 600.7 318.06 609.53 303.69 619.29 289.33 629.11 274.97 638.12 260.61 645.53 246.25 650.67 231.89 653.09 217.53 652.57 203.17 649.17 188.81 643.18 184.76 629.07 179.5 614.96 174.36 600.85 170.66 586.74 169.32 572.63 170.69 558.52 174.43 544.41 179.58 530.3 184.83 516.19 188.86 502.08 190.63 487.97 189.71 473.86 186.32 459.75 181.33 445.64 176 431.53 171.68 417.42 169.47 403.31 169.93 389.21 172.95 375.1 177.76 360.99 183.13 346.88 187.71 332.77 190.33 318.66 190.33 304.55 187.7 290.44 183.12 276.33 177.75 262.22 172.95 248.11 169.93 234 169.47 219.89 171.68 205.78 176 191.67" stroke-dasharray="9 6" transform="rotate(24.24, 400, 400)" opacity="0.28"></path><path d="M182.98 205.53Q195.55 207.51 208.11 208.16 220.67 207.43 233.24 205.39 245.8 202.2 258.36 198.11 270.93 193.44 283.49 188.59 296.05 183.92 308.62 179.83 321.18 176.62 333.74 174.57 346.31 173.83 358.87 174.47 371.43 176.43 384 179.56 396.56 183.6 409.12 188.24 421.69 193.1 434.25 197.78 446.81 201.93 459.38 205.2 471.94 207.33 484.5 208.15 497.07 207.6 509.63 205.72 522.19 202.66 534.76 198.66 547.32 194.05 559.88 189.2 574.59 188.77 575.85 205.81 582.58 218.57 595.38 231.33 611.3 244.09 626.69 256.84 638.02 269.6 642.68 282.36 639.62 295.12 629.53 307.87 614.72 320.63 598.6 333.39 584.87 346.14 576.67 358.9 575.89 371.66 582.71 384.42 595.57 397.17 611.5 409.93 626.86 422.69 638.12 435.45 642.69 448.2 639.53 460.96 629.36 473.72 614.51 486.47 598.4 499.23 584.72 511.99 576.61 524.75 575.93 537.5 582.85 550.26 595.76 563.02 611.71 575.78 627.04 588.53 613.6 596.55 600.16 605.56 586.73 614.85 573.29 623.66 559.85 631.31 546.41 637.16 532.97 640.76 519.54 641.82 506.1 640.25 492.66 636.17 479.22 629.92 465.78 621.99 452.34 613.02 438.91 603.72 425.47 594.86 412.03 587.12 398.59 581.13 385.15 577.38 371.72 576.16 358.28 577.57 344.84 581.49 331.4 587.62 317.96 595.46 304.53 604.39 291.09 613.68 277.65 622.6 264.21 630.43 250.77 636.54 237.34 640.45 223.9 641.83 210.46 640.59 197.02 636.81 191.9 623.34 186.57 609.86 182.26 596.38 179.95 582.9 180.18 569.43 182.89 555.95 187.46 542.47 192.84 528.99 197.8 515.52 201.19 502.04 202.25 488.56 200.72 475.08 196.96 461.61 191.83 448.13 186.51 434.65 182.22 421.17 179.94 407.7 180.2 394.22 182.94 380.74 187.52 367.26 192.91 353.79 197.85 340.31 201.22 326.83 202.25 313.35 200.69 299.88 196.9 286.4 191.76 272.92 186.45 259.44 182.17 245.97 179.93 232.49 180.22 219.01 182.98 205.53" stroke-dasharray="7 0" transform="rotate(28.28, 400, 400)" opacity="0.32"></path><path d="M190.95 218.67Q202.71 219.55 214.46 219.16 226.22 217.54 237.97 214.79 249.73 211.13 261.48 206.81 273.24 202.15 284.99 197.47 296.75 193.12 308.51 189.41 320.26 186.6 332.02 184.9 343.77 184.43 355.53 185.22 367.28 187.22 379.04 190.29 390.79 194.19 402.55 198.66 414.3 203.36 426.06 207.97 437.82 212.15 449.57 215.6 461.33 218.07 473.08 219.38 484.84 219.44 496.59 218.25 508.35 215.89 520.1 212.53 531.86 208.41 543.61 203.83 560.17 202.95 569.64 218.97 580.16 231.15 594.36 243.33 609.31 255.51 621.92 267.69 629.6 279.87 630.75 292.05 625.14 304.23 613.93 316.41 599.43 328.59 584.63 340.77 572.59 352.95 565.79 365.13 565.65 377.31 572.18 389.49 584.03 401.67 598.77 413.85 613.35 426.03 624.76 438.21 630.65 450.39 629.79 462.57 622.37 474.75 609.92 486.93 595.01 499.11 580.71 511.29 569.98 523.47 565.04 535.65 566.89 547.83 575.17 560.01 588.16 572.19 603.18 584.37 590.7 592.68 578.22 601.37 565.74 609.82 553.26 617.42 540.78 623.62 528.3 627.98 515.82 630.18 503.35 630.07 490.87 627.64 478.39 623.09 465.91 616.73 453.43 609.02 440.95 600.52 428.47 591.84 415.99 583.6 403.51 576.39 391.03 570.74 378.55 567.05 366.08 565.59 353.6 566.46 341.12 569.59 328.64 574.77 316.16 581.62 303.68 589.65 291.2 598.28 278.72 606.89 266.24 614.85 253.76 621.61 241.29 626.67 228.81 629.66 216.33 630.38 203.85 628.76 198.48 615.95 193.83 603.13 190.87 590.32 190.2 577.5 191.97 564.69 195.81 551.87 200.93 539.06 206.26 526.24 210.72 513.42 213.37 500.61 213.68 487.79 211.57 474.98 207.49 462.16 202.27 449.35 197 436.53 192.76 423.72 190.42 410.9 190.47 398.09 192.91 385.27 197.21 372.46 202.51 359.64 207.7 346.83 211.71 334.01 213.71 321.19 213.3 308.38 210.56 295.56 206.04 282.75 200.69 269.93 195.61 257.12 191.85 244.3 190.18 231.49 190.95 218.67" stroke-dasharray="2 3" transform="rotate(32.32, 400, 400)" opacity="0.35"></path><path d="M200.55 230.92Q211.61 230.72 222.67 229.37 233.73 226.98 244.79 223.69 255.85 219.71 266.91 215.3 277.97 210.74 289.03 206.33 300.09 202.34 311.15 199.04 322.21 196.64 333.27 195.28 344.33 195.06 355.39 196 366.45 198.02 377.51 201.01 388.57 204.77 399.63 209.05 410.69 213.59 421.75 218.09 432.81 222.26 443.87 225.84 454.93 228.59 465.99 230.34 477.05 230.98 488.11 230.46 499.17 228.82 510.22 226.17 521.28 222.67 532.34 218.54 543.4 214.07 554.46 209.52 557.94 221.12 566.78 232.72 579.34 244.33 593.32 255.93 606.13 267.53 615.41 279.14 619.45 290.74 617.5 302.34 609.93 313.94 598.12 325.55 584.26 337.15 570.91 348.75 560.52 360.35 555.02 371.96 555.41 383.56 561.64 395.16 572.54 406.77 586.1 418.37 599.83 429.97 611.2 441.57 618.1 453.18 619.26 464.78 614.47 476.38 604.61 487.99 591.5 499.59 577.56 511.19 565.36 522.79 557.16 534.4 554.45 546 557.75 557.6 566.44 569.2 578.93 580.81 567.4 588.9 555.87 596.87 544.33 604.21 532.8 610.44 521.27 615.17 509.74 618.08 498.21 619 486.67 617.87 475.14 614.75 463.61 609.85 452.08 603.49 440.55 596.06 429.02 588.05 417.48 579.98 405.95 572.35 394.42 565.67 382.89 560.35 371.36 556.75 359.82 555.08 348.29 555.47 336.76 557.88 325.23 562.16 313.7 568.03 302.16 575.13 290.63 582.98 279.1 591.09 267.57 598.94 256.04 606.02 244.51 611.88 232.97 616.14 221.44 618.53 209.91 618.9 205.14 606.78 201.81 594.65 200.55 582.53 201.58 570.4 204.72 558.28 209.39 546.15 214.72 534.03 219.73 521.91 223.5 509.78 225.33 497.66 224.89 485.53 222.25 473.41 217.91 461.28 212.65 449.16 207.47 437.04 203.3 424.91 200.92 412.79 200.77 400.66 202.87 388.54 206.84 376.41 211.95 364.29 217.25 352.17 221.76 340.04 224.66 327.92 225.41 315.79 223.86 303.67 220.31 291.54 215.41 279.42 210.07 267.3 205.26 255.17 201.88 243.05 200.55 230.92" stroke-dasharray="10 5" transform="rotate(36.36, 400, 400)" opacity="0.39"></path><path d="M212.21 242.17Q222.68 240.97 233.14 238.8 243.61 235.8 254.07 232.12 264.54 227.97 275 223.61 285.47 219.26 295.94 215.18 306.4 211.61 316.87 208.74 327.33 206.74 337.8 205.72 348.26 205.74 358.73 206.8 369.19 208.84 379.66 211.74 390.13 215.34 400.59 219.43 411.06 223.78 421.52 228.14 431.99 232.27 442.45 235.93 452.92 238.91 463.39 241.04 473.85 242.19 484.32 242.32 494.78 241.4 505.25 239.49 515.71 236.7 526.18 233.18 536.65 229.15 547.11 224.82 554.9 235.83 566.13 246.85 578.99 257.87 591.35 268.89 601.2 279.91 606.92 290.93 607.58 301.94 603.07 312.96 594.13 323.98 582.22 335 569.29 346.02 557.46 357.04 548.66 368.06 544.34 379.07 545.19 390.09 551.1 401.11 561.07 412.13 573.49 423.15 586.32 434.17 597.46 445.18 605.09 456.2 607.95 467.22 605.58 478.24 598.37 489.26 587.49 500.28 574.74 511.29 562.19 522.31 551.9 533.33 545.55 544.35 544.19 555.37 548.03 566.39 556.45 577.4 545.82 584.84 535.18 591.78 524.54 597.81 513.9 602.61 503.26 605.88 492.62 607.46 481.99 607.25 471.35 605.26 460.71 601.6 450.07 596.49 439.43 590.21 428.79 583.12 418.15 575.62 407.52 568.15 396.88 561.12 386.24 554.94 375.6 549.96 364.96 546.46 354.32 544.64 343.68 544.6 333.05 546.35 322.41 549.79 311.77 554.72 301.13 560.86 290.49 567.86 279.85 575.33 269.22 582.83 258.58 589.94 247.94 596.26 237.3 601.43 219.62 600.47 211.02 584.39 211.57 572.98 214.16 561.58 218.36 550.17 223.48 538.76 228.69 527.35 233.12 515.95 236.07 504.54 237.03 493.13 235.86 481.72 232.75 470.32 228.21 458.91 222.97 447.5 217.91 436.09 213.84 424.69 211.43 413.28 211.08 401.87 212.84 390.46 216.43 379.06 221.26 367.65 226.53 356.24 231.39 344.83 235.04 333.43 236.88 322.02 236.61 310.61 234.28 299.21 230.26 287.8 225.22 276.39 219.97 264.98 215.39 253.58 212.21 242.17" stroke-dasharray="1 3" transform="rotate(40.400000000000006, 400, 400)" opacity="0.43"></path><path d="M226 252.35Q235.94 250.3 245.89 247.49 255.84 244.05 265.78 240.15 275.73 236 285.68 231.8 295.62 227.76 305.57 224.08 315.51 220.95 325.46 218.52 335.41 216.91 345.35 216.21 355.3 216.45 365.25 217.62 375.19 219.66 385.14 222.46 395.09 225.89 405.03 229.78 414.98 233.93 424.93 238.13 434.87 242.18 444.82 245.86 454.77 249.01 464.71 251.45 474.66 253.06 484.61 253.78 494.55 253.55 504.5 252.39 514.45 250.37 524.39 247.57 534.34 244.15 544.29 240.26 554.56 250.68 566.34 261.1 577.92 271.52 587.64 281.94 594.1 292.37 596.36 302.79 594.11 313.21 587.65 323.63 577.93 334.05 566.35 344.47 554.57 354.89 544.3 365.31 537 375.73 533.74 386.15 534.99 396.57 540.56 406.99 549.65 417.41 560.95 427.84 572.84 438.26 583.59 448.68 591.67 459.1 595.9 469.52 595.68 479.94 591.03 490.36 582.64 500.78 571.7 511.2 559.79 521.62 548.64 532.04 539.84 542.46 534.67 552.88 533.87 563.31 537.55 573.73 527.72 580.16 517.9 585.84 508.07 590.48 498.24 593.84 488.41 595.75 478.59 596.13 468.76 594.95 458.93 592.27 449.1 588.22 439.28 583.01 429.45 576.9 419.62 570.2 409.79 563.23 399.96 556.35 390.14 549.91 380.31 544.22 370.48 539.57 360.65 536.19 350.83 534.25 341 533.85 331.17 535.02 321.34 537.68 311.52 541.71 301.69 546.9 291.86 553 282.03 559.7 272.21 566.66 262.38 573.55 252.55 580 242.72 585.7 227.18 586.73 221.82 572.43 224.06 561.76 227.89 551.09 232.73 540.42 237.91 529.75 242.66 519.08 246.31 508.41 248.33 497.74 248.42 487.07 246.59 476.4 243.08 465.73 238.4 455.07 233.24 444.4 228.33 433.73 224.38 423.06 221.96 412.39 221.41 401.72 222.83 391.05 226 380.38 230.47 369.71 235.58 359.04 240.62 348.37 244.84 337.7 247.65 327.03 248.63 316.36 247.64 305.7 244.84 295.03 240.61 284.36 235.58 273.69 230.46 263.02 226 252.35" stroke-dasharray="3 6" transform="rotate(44.44, 400, 400)" opacity="0.47"></path><path d="M241.61 261.47Q251.07 258.76 260.54 255.5 270 251.82 279.47 247.88 288.93 243.87 298.4 239.95 307.86 236.29 317.33 233.05 326.8 230.38 336.26 228.39 345.73 227.17 355.19 226.77 364.66 227.21 374.12 228.47 383.59 230.49 393.05 233.19 402.52 236.44 411.98 240.12 421.45 244.05 430.91 248.06 440.38 251.99 449.84 255.65 459.31 258.89 468.78 261.57 478.24 263.57 487.71 264.81 497.17 265.22 506.64 264.79 516.1 263.55 525.57 261.54 535.03 258.85 544.5 255.6 555.31 265.4 565.96 275.21 575.1 285.01 581.59 294.82 584.61 304.62 583.78 314.43 579.21 324.23 571.46 334.04 561.52 343.84 550.63 353.65 540.17 363.45 531.44 373.26 525.55 383.06 523.24 392.87 524.79 402.67 530.02 412.48 538.26 422.28 548.48 432.09 559.39 441.9 569.63 451.7 577.9 461.51 583.16 471.31 584.76 481.12 582.49 490.92 576.63 500.73 567.93 510.53 557.48 520.34 546.59 530.14 536.63 539.95 528.85 549.75 524.24 559.56 523.37 569.36 514.26 574.57 505.15 578.87 496.04 582.09 486.93 584.09 477.81 584.77 468.7 584.11 459.59 582.14 450.48 578.93 441.37 574.64 432.26 569.45 423.15 563.59 414.04 557.31 404.93 550.88 395.82 544.59 386.71 538.71 377.6 533.49 368.49 529.17 359.38 525.93 350.27 523.92 341.16 523.22 332.05 523.86 322.94 525.82 313.83 529 304.72 533.28 295.61 538.46 286.5 544.31 277.39 550.59 268.28 557.02 259.17 563.31 250.06 569.2 237.28 560.33 242.57 539.1 247.61 529.19 252.44 519.27 256.46 509.35 259.16 499.44 260.21 489.52 259.47 479.61 257.04 469.69 253.22 459.78 248.49 449.86 243.45 439.95 238.72 430.03 234.91 420.12 232.5 410.2 231.78 400.28 232.85 390.37 235.57 380.45 239.6 370.54 244.44 360.62 249.47 350.71 254.07 340.79 257.65 330.88 259.76 320.96 260.14 311.04 258.75 301.13 255.75 291.21 251.52 281.3 246.6 271.38 241.61 261.47" stroke-dasharray="2 6" transform="rotate(48.48, 400, 400)" opacity="0.51"></path><path d="M258.38 269.59Q267.36 266.44 276.35 262.94 285.33 259.22 294.31 255.41 303.29 251.66 312.28 248.11 321.26 244.9 330.24 242.14 339.22 239.94 348.21 238.38 357.19 237.52 366.17 237.4 375.15 238.01 384.14 239.34 393.12 241.33 402.1 243.91 411.08 246.99 420.07 250.44 429.05 254.13 438.03 257.94 447.01 261.71 456 265.3 464.98 268.58 473.96 271.42 482.94 273.72 491.93 275.39 500.91 276.37 509.89 276.62 518.87 276.13 527.86 274.92 536.84 273.04 545.82 270.55 555.43 279.72 563.7 288.89 569.71 298.06 572.83 307.23 572.7 316.4 569.35 325.57 563.14 334.73 554.74 343.9 545.07 353.07 535.17 362.24 526.12 371.41 518.9 380.58 514.3 389.75 512.81 398.92 514.6 408.09 519.48 417.25 526.91 426.42 536.08 435.59 546.01 444.76 555.6 453.93 563.83 463.1 569.8 472.27 572.86 481.44 572.67 490.61 569.26 499.77 563 508.94 554.57 518.11 544.88 527.28 534.99 536.45 525.96 545.62 518.79 554.79 514.24 563.96 505.76 567.8 497.28 570.72 480.32 572.77 463.36 571.44 454.88 568.86 446.4 565.3 437.92 560.91 429.44 555.84 420.96 550.28 412.48 544.45 404 538.57 395.52 532.85 387.04 527.52 378.56 522.77 370.08 518.78 361.6 515.7 344.64 513.27 327.68 514.21 319.2 516.62 310.72 520.02 302.24 524.29 293.76 529.26 285.28 534.74 276.8 540.54 268.32 546.43 259.84 552.19 250.65 545.23 257.92 525.86 262.68 516.71 266.81 507.55 269.89 498.4 271.56 489.25 271.65 480.1 270.15 470.94 267.22 461.79 263.18 452.64 258.47 443.49 253.6 434.33 249.1 425.18 245.45 416.03 243.06 406.88 242.18 397.72 242.91 388.57 245.17 379.42 248.71 370.27 253.15 361.11 258.01 351.96 262.76 342.81 266.88 333.66 269.93 324.5 271.57 315.35 271.64 306.2 270.11 297.05 267.16 287.89 263.1 278.74 258.38 269.59" stroke-dasharray="7 5" transform="rotate(52.52, 400, 400)" opacity="0.54"></path><path d="M275.4 276.84Q292.32 269.96 309.25 262.83 326.17 256.36 343.1 251.37 360.03 248.49 376.95 248.1 393.88 250.24 410.8 254.64 427.73 260.74 444.66 267.76 461.58 274.81 478.51 281 495.44 285.53 512.36 287.83 529.29 287.6 546.21 284.88 558.53 301.9 561.25 318.92 553.37 335.94 537.76 352.96 520.06 369.98 506.68 387.01 502.47 404.03 508.94 421.05 523.76 438.07 541.56 455.09 555.9 472.11 561.58 489.13 556.56 506.15 542.64 523.17 524.87 540.19 509.68 557.22 493.85 561.28 478.02 561.62 462.19 558.19 446.35 551.42 430.52 542.18 414.69 531.64 398.86 521.15 383.03 512.04 367.2 505.47 351.37 502.28 335.54 502.86 319.7 507.16 303.87 514.62 288.04 524.29 268.25 531.69 273.54 511.67 280.78 494.89 283.4 478.12 280.44 461.35 272.97 444.57 263.71 427.8 255.99 411.03 252.62 394.26 254.82 377.48 261.78 360.71 271 343.94 279.12 327.16 283.22 310.39 281.81 293.62 275.4 276.84" stroke-dasharray="5 4" transform="rotate(56.56, 400, 400)" opacity="0.58"></path><path d="M291.61 283.42Q307.38 276.73 323.14 270.29 338.91 264.77 354.67 260.78 370.44 258.75 386.21 258.88 401.97 261.17 417.74 265.36 433.5 271.02 449.27 277.53 465.04 284.2 480.8 290.31 496.57 295.21 512.34 298.37 528.1 299.46 543.87 298.35 549.85 314.01 547.01 329.67 536.22 345.33 520.77 361 505.4 376.66 494.79 392.32 492.19 407.98 498.4 423.64 511.52 439.3 527.53 454.96 541.54 470.63 549.28 486.29 548.37 501.95 539.09 517.61 524.28 533.27 508.46 548.93 493.69 550.53 478.92 548.97 464.14 544.4 449.37 537.33 434.6 528.51 419.82 518.88 405.05 509.48 390.27 501.32 375.5 495.26 360.73 491.96 345.95 491.77 331.18 494.71 316.41 500.47 301.63 508.42 283.83 514.93 288.97 496.89 294.09 481.64 294.59 466.39 290.33 451.14 282.6 435.9 273.77 420.65 266.53 405.4 263.11 390.15 264.54 374.91 270.39 359.66 278.87 344.41 287.39 329.16 293.34 313.92 294.91 298.67 291.61 283.42" stroke-dasharray="9 3" transform="rotate(60.599999999999994, 400, 400)" opacity="0.62"></path><path d="M306.05 289.55Q320.51 283.43 334.98 277.88 349.44 273.41 363.91 270.41 378.37 269.15 392.84 269.74 407.3 272.12 421.77 276.09 436.23 281.29 450.7 287.26 465.16 293.48 479.63 299.38 494.09 304.46 508.56 308.25 523.02 310.42 537.49 310.78 537.49 325.05 530.52 339.31 518.33 353.57 504.03 367.84 491.25 382.1 483.22 396.36 481.98 410.63 487.86 424.89 499.35 439.15 513.55 453.42 526.84 467.68 535.86 481.94 538.31 496.21 533.58 510.47 522.86 524.74 508.88 539 495.16 538.5 481.44 535.46 467.71 530.17 453.99 523.1 440.27 514.85 426.55 506.18 412.83 497.85 399.11 490.59 385.39 485.06 371.67 481.73 357.95 480.91 344.23 482.68 330.51 486.86 316.78 493.1 300.28 498.24 303.76 481.9 306.53 468.16 305.09 454.42 299.83 440.68 292.07 426.94 283.78 413.21 277.07 399.47 273.64 385.73 274.36 371.99 279.05 358.25 286.51 344.51 294.86 330.77 301.98 317.03 306.05 303.29 306.05 289.55" stroke-dasharray="6 7" transform="rotate(64.64, 400, 400)" opacity="0.66"></path><path d="M317.97 295.52Q331.01 290.25 344.04 285.75 357.07 282.35 370.1 280.29 383.14 279.72 396.17 280.68 409.2 283.1 422.23 286.81 435.27 291.54 448.3 296.95 461.33 302.65 474.36 308.23 487.4 313.29 500.43 317.47 517.62 327.67 512.37 347.72 500.2 360.55 487.77 373.39 477.67 386.22 471.96 399.05 471.84 411.89 477.32 424.72 487.28 437.56 499.65 450.39 511.89 463.22 521.47 476.06 526.4 488.89 525.69 501.73 519.46 514.56 509.01 527.39 496.39 525.25 483.78 521.22 471.16 515.58 458.55 508.76 445.93 501.23 433.32 493.54 420.71 486.25 408.09 479.87 395.48 474.86 382.86 471.6 370.25 470.3 357.63 471.07 345.02 473.84 332.4 478.43 316.71 481.92 317.48 467.09 317.92 454.84 314.87 442.58 308.96 430.33 301.4 418.07 293.76 405.82 287.61 393.56 284.23 381.31 284.3 369.05 287.83 356.79 294.07 344.54 301.74 332.28 309.25 320.03 315.07 307.77 317.97 295.52" stroke-dasharray="5 5" transform="rotate(68.68, 400, 400)" opacity="0.70"></path><path d="M327.05 301.6Q338.55 297.39 350.05 294 361.55 291.64 373.05 290.44 384.56 290.46 396.06 291.71 407.56 294.12 419.06 297.54 430.56 301.78 442.06 306.61 453.56 311.74 465.06 316.89 476.56 321.76 488.06 326.07 501.51 336.53 493.3 354.86 482.28 366.24 472.2 377.62 464.7 389 461.02 400.38 461.75 411.77 466.78 423.15 475.28 434.53 485.86 445.91 496.79 457.29 506.28 468.68 512.78 480.06 515.22 491.44 504.42 506.87 484.23 506.35 472.82 500.72 461.4 494.37 449.99 487.66 438.57 480.97 427.16 474.68 415.75 469.14 404.33 464.68 392.92 461.54 381.5 459.91 370.09 459.88 358.68 461.45 347.26 464.53 332.15 466.29 329.76 452.84 328.17 442.03 323.93 431.23 317.74 420.43 310.6 409.63 303.7 398.82 298.15 388.02 294.87 377.22 294.39 366.42 296.8 355.61 301.69 344.81 308.27 334.01 315.46 323.21 322.08 312.4 327.05 301.6" stroke-dasharray="3 7" transform="rotate(72.72, 400, 400)" opacity="0.73"></path><path d="M333.41 308.11Q343.33 305.04 353.25 302.75 363.17 301.34 373.09 300.88 383.01 301.39 392.93 302.83 402.84 305.16 412.76 308.26 422.68 312.01 432.6 316.24 442.52 320.76 452.44 325.37 462.36 329.89 472.27 334.1 482.85 344.33 474.08 360.75 465.02 370.67 457.47 380.58 452.37 390.5 450.37 400.42 451.72 410.34 456.24 420.25 463.38 430.17 472.22 440.09 481.67 450.01 490.53 459.92 497.68 469.84 502.24 479.76 497.59 492.69 481.45 491 471.34 485.69 461.24 480 451.14 474.17 441.03 468.47 430.93 463.14 420.82 458.42 410.72 454.5 400.62 451.57 390.51 449.74 380.41 449.11 370.3 449.69 360.2 451.46 345.72 451.59 340.39 439.46 337.25 430.07 332.32 420.69 326.22 411.31 319.7 401.93 313.61 392.55 308.69 383.16 305.57 373.78 304.65 364.4 306.03 355.02 309.54 345.64 314.74 336.25 320.99 326.87 327.48 317.49 333.41 308.11" stroke-dasharray="4 1" transform="rotate(76.76, 400, 400)" opacity="0.77"></path><path d="M337.69 315.32Q354.36 312.09 371.03 311.64 387.7 314.05 404.38 318.99 421.05 325.84 437.72 333.73 454.39 341.65 471.07 348.6 455.49 365.5 443.72 382.41 440.01 399.31 445.7 416.21 458.75 433.11 474.41 450.01 480.84 471.12 457.26 465.67 439.88 456.05 422.49 447.69 405.1 441.66 387.72 438.73 370.33 439.27 352.94 443.21 349.3 427.23 340.12 411.24 328.72 395.25 319.23 379.26 315.08 363.28 317.78 347.29 326.35 331.3 337.69 315.32" stroke-dasharray="5 5" transform="rotate(80.80000000000001, 400, 400)" opacity="0.81"></path><path d="M340.89 323.48Q354.49 322.09 368.08 322.74 381.68 325.35 395.27 329.71 408.87 335.43 422.46 341.99 436.06 348.82 449.65 355.31 438.2 369.29 431 383.28 429.9 397.26 435.16 411.24 445.46 425.22 458.18 439.2 466.92 456.35 449.32 451.45 434.9 443.71 420.48 436.97 406.05 431.82 391.63 428.73 377.21 427.97 362.78 429.61 356.58 416.34 347.44 403.08 337.68 389.81 329.77 376.55 325.73 363.28 326.58 350.01 332.1 336.75 340.89 323.48" stroke-dasharray="0 10" transform="rotate(84.84, 400, 400)" opacity="0.85"></path><path d="M344.32 332.8Q354.97 332.83 365.63 334.17 376.29 336.76 386.94 340.44 397.6 345.01 408.26 350.2 418.91 355.72 429.57 361.26 422.73 372.35 419.36 383.45 420.03 394.54 424.62 405.63 432.39 416.72 442.05 427.82 438.58 436.37 415.11 426.24 403.71 422.04 392.31 419.09 380.92 417.55 369.52 417.52 362.5 406.93 354.42 396.34 346.59 385.75 340.31 375.16 336.59 364.57 336.05 353.98 338.77 343.39 344.32 332.8" stroke-dasharray="11 2" transform="rotate(88.88, 400, 400)" opacity="0.89"></path><path d="M349.27 343.42Q365.01 345.95 380.75 351.16 396.49 358.39 412.23 366.72 408.77 383.21 414.08 399.7 425.15 419.85 407.27 415.52 390.48 409.76 373.69 406.96 361.23 391.07 350.85 375.19 346.31 359.3 349.27 343.42" stroke-dasharray="5 7" transform="rotate(92.92, 400, 400)" opacity="0.92"></path><path d="M356.88 355.4Q367.29 358.08 377.71 361.89 388.12 366.62 398.53 371.99 399.17 382.89 403.55 393.79 398.67 403.99 376.33 397.86 368.04 387.24 361.39 376.63 357.45 366.01 356.88 355.4" stroke-dasharray="3 4" transform="rotate(96.96, 400, 400)" opacity="0.96"></path></g></svg>