<svg xmlns="http://www.w3.org/2000/svg" version="1.1" xmlns:xlink="http://www.w3.org/1999/xlink" xmlns:svgjs="http://svgjs.dev/svgjs" viewBox="0 0 800 800"><defs><linearGradient x1="50%" y1="0%" x2="50%" y2="100%" id="ccchaos-grad"><stop stop-color="hsl(161, 100%, 42%)" stop-opacity="1" offset="0%"></stop><stop stop-color="hsl(161, 10%, 40%)" stop-opacity="1" offset="100%"></stop></linearGradient></defs><g stroke-width="2" stroke="url(#ccchaos-grad)" fill="none" stroke-linecap="round"><path d="M392.25 65.58Q405.61 67.41 419.31 69.77 433.14 72.92 446.89 77.04 460.35 82.25 473.29 88.59 485.53 95.97 496.88 104.26 507.2 113.19 516.4 122.48 524.43 131.79 531.28 140.76 541.28 155.86 548.72 167.58 566.2 176.19 580.67 179.32 589.08 182.12 598.97 186.26 610.33 191.86 623.1 198.9 637.16 207.27 652.31 216.72 668.3 226.92 684.86 237.45 700.14 247.82 713.05 258.2 721.41 268.57 723.82 278.94 719.88 289.32 710.24 299.69 696.53 310.06 681.05 320.44 666.4 330.81 655.05 341.18 648.89 351.56 648.96 361.93 655.26 372.3 666.72 382.68 681.42 393.05 696.89 403.42 710.52 413.8 720.04 424.17 723.84 434.54 721.27 444.92 712.79 455.29 699.79 465.67 684.49 476.04 669.43 486.41 657.16 496.79 649.73 507.16 648.4 517.53 653.38 527.91 663.84 538.28 678.03 548.65 686.47 560.39 665.99 563.73 653.92 570.23 640.65 579.33 626.4 590.73 611.42 603.92 595.98 618.28 580.39 633.04 564.92 647.42 549.85 660.63 535.43 672.01 521.88 681 509.37 687.27 498.02 690.69 479.59 688.75 464.69 681.41 448.39 670.64 438.42 673.1 434.25 680.43 429.58 690.63 424.24 703.31 418.1 717.88 405.72 723.27 392.87 728.7 379.73 733.3 366.49 736.27 353.36 736.97 340.51 734.93 328.09 729.92 316.25 721.98 305.07 711.35 294.62 698.51 284.94 684.13 276.01 668.97 267.8 653.86 260.24 639.63 253.22 627.01 246.63 616.6 234.22 605.17 221.9 601.78 208.5 607.98 193.92 616.06 185.81 619.29 177.23 620.93 168.17 620.46 158.71 617.5 148.88 611.91 138.78 603.75 128.48 593.3 118.09 581.03 115.41 570.51 112.49 560 109.82 549.48 107.85 538.96 106.91 528.44 107.16 517.92 108.56 507.41 110.87 496.89 113.7 486.37 116.58 475.85 119.03 465.33 120.62 454.82 121.11 444.3 120.39 433.78 118.6 423.26 116.03 412.74 113.12 402.23 110.36 391.71 108.2 381.19 107.02 370.67 107 360.16 108.16 349.64 110.3 339.12 113.06 328.6 115.97 318.08 118.55 307.57 120.36 297.05 121.1 286.53 120.65 276.01 119.08 265.5 118.89 249.17 128.39 241.06 135.62 237.35 142.9 232.13 150.35 225.45 158.06 217.46 166.11 208.43 174.58 198.68 183.54 188.62 193.03 178.65 203.05 169.17 213.59 160.52 224.62 152.97 236.06 146.69 247.83 141.73 259.8 138.06 271.84 135.52 283.82 133.87 295.57 132.79 306.97 131.94 317.86 130.96 328.13 129.5 337.69 127.28 346.47 124.08 354.42 119.75 361.57 114.26 367.95 107.68 373.64 100.14 378.75 91.87 383.44 83.15 390.06 69.93 392.25 65.58" stroke-dasharray="10 6" transform="rotate(0, 400, 400)" opacity="0.24"></path><path d="M403.5 78.12Q416.57 79.76 429.49 81.9 442.09 84.77 454.18 88.56 465.6 93.39 476.2 99.3 485.88 106.23 494.55 114.06 502.17 122.6 508.76 131.58 514.35 140.69 519.04 149.63 526.04 165.22 531.84 177.87 544.26 186.7 556.98 188.99 564.53 189.33 573.38 190.12 583.55 191.71 595.03 194.37 607.73 198.3 621.51 203.61 636.19 210.31 651.55 218.27 667.34 227.31 683.28 237.12 696.69 246.96 706.72 256.8 711.82 266.64 711.2 276.49 704.95 286.33 694.03 296.17 680.16 306.02 665.49 315.86 652.29 325.7 642.62 335.55 637.99 345.39 639.11 355.23 645.81 365.08 657.05 374.92 671.08 384.76 685.72 394.61 698.69 404.45 707.97 414.29 712.13 424.14 710.51 433.98 703.37 443.82 691.82 453.67 677.65 463.51 663.07 473.35 650.34 483.2 641.45 493.04 637.77 502.88 639.88 512.73 647.45 522.57 659.31 532.41 672.65 548.84 657.94 557.99 648.35 566.63 637.48 577.39 625.45 589.82 612.43 603.39 598.62 617.45 584.24 631.29 569.55 644.23 554.79 655.65 540.21 665.03 526.04 672.02 512.48 676.42 499.73 678.26 487.9 677.75 477.11 675.28 467.42 671.4 458.82 666.78 437.42 658.05 425.64 661.81 421.78 669.2 417.89 679.19 413.8 691.41 409.32 705.34 396.4 710.39 383.46 715.5 370.68 719.91 358.21 722.92 346.21 723.92 334.79 722.49 324.03 718.39 314 711.57 304.71 702.21 296.17 690.66 288.34 677.45 281.14 663.23 274.49 648.71 268.28 634.62 262.39 621.66 256.7 610.4 245.26 596.01 233.28 589.1 219.51 592.63 204.35 599.54 195.92 603.36 187.04 606.32 177.74 607.84 168.11 607.44 158.2 604.8 148.1 599.77 137.91 592.37 127.7 582.83 124.7 572.61 121.74 562.4 119.28 552.19 117.72 541.97 117.28 531.76 118.04 521.55 119.88 511.33 122.52 501.12 125.53 490.91 128.47 480.7 130.86 470.48 132.34 460.27 132.67 450.06 131.81 439.84 129.89 429.63 127.2 419.42 124.17 409.21 121.27 398.99 118.94 388.78 117.56 378.57 117.32 368.36 118.28 358.14 120.28 347.93 123.02 337.72 126.05 327.51 128.93 317.29 131.19 307.08 132.48 296.87 132.61 286.66 131.55 276.44 131.63 259.92 140.69 249.82 147.46 244.61 154.2 238.02 160.99 230.2 167.91 221.39 175.08 211.91 182.57 202.11 190.45 192.37 198.81 183.05 207.67 174.47 217.07 166.89 227 160.48 237.44 155.34 248.34 151.45 259.63 148.69 271.21 146.88 282.96 145.76 294.77 145 306.49 144.3 317.98 143.32 329.1 141.77 339.74 139.39 349.76 136.02 359.1 131.56 367.67 126 375.44 119.41 382.42 111.94 388.63 103.81 394.15 95.28 401.28 82.37 403.5 78.12" stroke-dasharray="1 3" transform="rotate(4.04, 400, 400)" opacity="0.65"></path><path d="M413.87 90.66Q425.56 92.11 436.73 94.04 447.25 96.65 457.02 100.12 465.94 104.57 473.95 110.04 481.05 116.5 487.23 123.87 492.54 131.97 497.07 140.58 500.94 149.44 504.27 158.26 510.08 174.2 515.99 187.67 524.06 195.68 534.51 200.42 550.16 201.43 569.31 201.84 580.89 202.51 593.49 203.93 606.99 206.36 621.21 209.98 635.94 214.9 650.96 221.14 666.02 228.6 680.87 237.13 691.78 246.46 698.7 255.8 700.64 265.13 697.32 274.46 689.22 283.8 677.51 293.13 663.85 302.46 650.22 311.8 638.56 321.13 630.55 330.46 627.34 339.8 629.39 349.13 636.4 358.46 647.37 367.8 660.73 377.13 674.55 386.46 686.87 395.8 695.89 405.13 700.35 414.46 699.59 423.8 693.72 433.13 683.59 442.46 670.64 451.8 656.75 461.13 643.89 470.46 633.92 479.8 628.26 489.13 627.73 498.46 632.4 507.79 641.6 517.13 660.79 533.21 657.63 540.1 652.79 546.34 646.78 554.72 639.54 565 631.08 576.81 621.43 589.67 610.68 603.02 598.94 616.25 586.37 628.76 573.15 640.01 559.48 649.5 545.57 656.89 531.63 661.97 517.87 664.69 504.49 665.17 491.66 663.69 479.54 660.68 468.24 656.66 457.85 652.25 440.44 645.57 425.83 643.2 415.15 651.82 406.08 667.76 402.1 679.51 398.18 692.79 385.83 697.51 373.86 702.31 362.39 706.53 351.52 709.54 341.32 710.81 331.83 709.92 323.08 706.64 315.05 700.88 307.7 692.73 300.96 682.46 294.75 670.48 288.97 657.31 283.51 643.55 278.24 629.84 273.04 616.8 267.8 605.02 262.39 594.96 256.72 586.99 244.04 579.04 230.02 577.54 222.16 579.82 213.82 583.11 205.05 586.83 195.89 590.38 186.41 593.17 176.68 594.7 166.78 594.53 156.79 592.35 146.79 588.02 136.86 581.52 133.73 571.65 130.91 561.79 128.83 551.92 127.77 542.06 127.89 532.19 129.17 522.33 131.43 512.46 134.34 502.6 137.49 492.73 140.42 482.87 142.72 473 144.05 463.14 144.22 453.27 143.21 443.41 141.16 433.54 138.38 423.68 135.25 413.81 132.22 403.95 129.74 394.08 128.15 384.22 127.68 374.35 128.41 364.49 130.22 354.62 132.86 344.76 135.95 334.89 139.05 325.03 141.7 315.16 143.53 305.3 144.28 295.43 143.84 285.57 144.5 268.79 153.38 256.56 159.83 249.97 166.16 242.24 172.42 233.61 178.72 224.36 185.12 214.83 191.72 205.34 198.62 196.24 205.87 187.82 213.56 180.31 221.74 173.9 230.43 168.68 239.66 164.66 249.41 161.75 259.66 159.8 270.35 158.61 281.41 157.89 292.74 157.36 304.25 156.72 315.8 155.67 327.27 153.97 338.52 151.42 349.44 147.88 359.89 143.29 369.78 137.66 379 131.08 387.5 123.7 395.24 115.72 402.19 107.38 411.13 94.8 413.87 90.66" stroke-dasharray="10 10" transform="rotate(8.08, 400, 400)" opacity="0.93"></path><path d="M420.74 103.21Q438.76 106.52 454.5 111.72 466.26 121.31 475.85 133.7 479.57 141.34 482.87 149.54 485.89 158.08 488.79 166.7 495.12 182.82 502.62 196.95 513.58 206.2 527.32 212.22 535.96 213.53 545.64 214.14 556.34 214.29 567.98 214.25 580.46 214.34 593.64 214.84 607.36 216.03 621.44 218.14 635.67 221.36 649.84 225.79 663.73 231.46 677.13 238.31 685.13 247.17 688.88 256.03 687.91 264.88 682.33 273.74 672.88 282.59 660.81 291.45 647.71 300.3 635.3 309.16 625.23 318.01 618.82 326.87 616.92 335.73 619.78 344.58 627.01 353.44 637.67 362.29 650.35 371.15 663.38 380 675.04 388.86 683.8 397.71 688.49 406.57 688.5 415.42 683.83 424.28 675.09 433.13 663.44 441.99 650.41 450.84 637.72 459.7 627.05 468.55 619.8 477.41 616.92 486.27 618.8 495.12 625.19 503.98 641.79 523.27 640.27 535.33 636.97 543.58 632.78 553.52 627.6 564.81 621.36 577.04 614.02 589.71 605.6 602.3 596.15 614.29 585.74 625.18 574.48 634.55 562.5 642.08 549.97 647.55 537.06 650.87 523.94 652.12 510.79 651.48 497.79 649.28 485.11 645.93 472.9 641.94 461.29 637.86 450.38 634.26 440.26 631.67 422.97 632.4 408.18 639.4 402.14 646.81 396.76 656.31 391.91 667.6 387.49 680.24 376.69 684.64 366.52 689.13 348.58 695.38 332.74 697.21 320.04 688.79 308.81 673.89 303.8 663.15 298.96 651.11 294.19 638.26 289.37 625.13 284.39 612.3 279.15 600.27 273.59 589.54 267.63 580.48 254.1 569.39 239.13 564.46 230.83 565.22 222.13 567.34 213.07 570.36 203.72 573.8 194.15 577.12 184.44 579.83 174.66 581.47 164.89 581.63 148.91 573.54 140.13 557.58 138.55 548.11 138.09 538.64 138.8 529.16 140.59 519.69 143.22 510.22 146.35 500.75 149.56 491.28 152.43 481.81 154.59 472.34 155.74 462.87 155.74 453.4 154.58 443.92 152.42 434.45 149.55 424.98 146.33 415.51 143.21 406.04 140.58 396.57 138.79 387.1 138.09 377.63 138.56 368.15 140.14 358.68 142.62 349.21 145.68 339.74 148.91 330.27 151.89 320.8 154.22 311.33 155.59 301.85 155.83 292.38 157.34 275.42 166.3 261.25 172.57 253.55 178.63 245.05 184.54 236.01 190.36 226.74 196.17 217.55 202.05 208.72 208.09 200.53 214.37 193.2 228.18 182.27 243.3 174.66 251.74 172.63 260.7 171.38 270.17 170.67 280.13 170.24 290.53 169.83 301.28 169.16 312.32 167.99 323.53 166.11 334.81 163.36 346.04 159.65 357.09 154.94 367.85 149.25 378.2 142.7 388.03 135.41 397.26 127.59 405.82 119.46 417.2 107.24 420.74 103.21" stroke-dasharray="6 5" transform="rotate(12.12, 400, 400)" opacity="0.53"></path><path d="M422.36 115.76Q436.02 118.38 446.9 123.35 455.38 131.66 462.13 143.56 468.13 158.45 474.5 174.97 482.39 191.32 492.8 205.68 506.49 216.61 523.82 223.47 544.71 226.54 568.61 227.03 594.59 226.83 621.36 228.03 647.51 232.49 671.61 241.34 677.27 258.17 666.4 275.01 644.1 291.85 620.81 308.68 607.45 325.52 610.27 342.36 627.95 359.19 652.21 376.03 671.69 392.87 677.25 409.7 666.3 426.54 643.96 443.38 620.7 460.21 607.41 477.05 610.33 493.89 628.08 510.72 625.02 518.47 621.62 533.27 616.5 553.85 608.54 577.52 597.01 600.82 581.65 620.31 562.68 633.36 540.76 638.83 516.86 637.32 492.15 631.13 467.82 623.68 444.97 618.75 424.43 619.64 406.73 628.29 391.99 644.88 379.97 667.7 363.35 675.98 349.4 682.73 337.78 684.38 327.89 678.63 318.96 664.93 310.15 644.58 300.67 620.39 289.9 596.02 277.39 575.09 263 560.36 246.82 553.09 229.17 552.79 210.54 557.36 191.48 563.64 172.56 568.1 154.26 567.74 149.52 549.67 148.74 531.6 152.29 513.53 158.51 495.46 164.48 477.39 167.41 459.31 165.92 441.24 160.72 423.17 154.23 405.1 149.5 387.03 148.75 368.96 152.32 350.88 158.55 332.81 164.51 314.74 167.42 296.67 165.9 278.6 179.24 264.04 191.39 246.81 202.63 228.94 213.4 212.57 224.27 199.4 235.87 190.34 248.78 185.33 263.44 183.35 280.12 182.74 298.79 181.58 319.17 178.14 340.72 171.3 362.67 160.75 384.16 147.07 404.31 131.52 422.36 115.76 422.36 115.76 422.36 115.76" stroke-dasharray="0 8" transform="rotate(16.16, 400, 400)" opacity="0.61"></path><path d="M418.33 128.3Q427.95 130.58 435.66 135.01 442.13 142.54 448.23 153.46 454.9 167.34 463.1 183.09 473.63 199.16 487.08 213.87 503.74 225.78 523.52 234.02 545.96 238.47 570.28 239.84 595.43 239.56 620.22 239.44 643.45 241.32 664.02 246.67 663.95 262.72 649.76 278.76 627.53 294.81 606.78 310.86 596.41 326.91 600.85 342.95 618.21 359 641.04 375.05 659.57 391.09 665.86 407.14 657.21 423.19 637.33 439.23 614.73 455.28 599.11 471.33 597.14 487.37 609.68 503.42 605.71 515.56 602.46 533.4 598.66 555.03 593.17 577.64 585.1 598.19 573.85 613.99 559.25 623.35 541.47 625.92 521.04 622.81 498.77 616.37 475.62 609.72 452.59 606.09 430.62 608.11 410.49 617.24 392.71 633.44 377.51 655.16 365.28 662.85 355.11 669.31 346.37 671.44 338.33 667.1 330.23 655.57 321.35 637.64 311.14 615.48 299.23 592.08 285.48 570.64 269.97 553.91 253 543.56 235 539.89 216.48 541.79 197.98 546.98 179.97 552.54 162.83 555.53 159.21 538.4 159.78 521.27 164.29 504.14 170.81 487 176.55 469.87 179.05 452.74 177.24 435.61 171.89 418.47 165.29 401.34 160.28 384.21 159 367.07 161.99 349.94 167.98 332.81 174.4 315.67 178.5 298.54 178.52 281.41 191.98 265.34 204.17 248.03 215.25 231.41 225.51 217.2 235.39 206.56 245.45 199.86 256.27 196.62 268.36 195.65 282.16 195.32 297.91 193.93 315.61 190.04 335.03 182.83 355.72 172.16 377.03 158.68 398.17 143.56 418.33 128.3 418.33 128.3 418.33 128.3" stroke-dasharray="8 1" transform="rotate(20.200000000000003, 400, 400)" opacity="0.46"></path><path d="M409.68 140.84Q422.96 148.14 436.29 163.42 444.91 176.25 455.72 191.12 469.16 206.72 485.41 221.55 504.34 234.24 525.56 243.76 548.39 249.7 571.97 252.34 595.3 252.63 617.37 251.98 637.26 252.09 654.22 254.5 649.1 269.83 632.63 285.17 611.23 300.5 593.25 315.84 585.7 331.17 591.52 346.5 608.45 361.84 629.87 377.17 647.45 392.5 654.32 407.84 647.8 423.17 630.45 438.5 609.01 453.83 591.86 469.17 585.68 484.5 592.88 499.83 587.47 515.42 583.56 534.98 580.09 556.32 576.03 576.84 570.43 594.07 562.56 606.13 551.93 612.11 538.36 612.28 521.98 608.04 503.2 601.71 482.64 596.03 461.09 593.68 439.37 596.73 418.3 606.24 398.58 622 380.72 642.61 364.62 654.07 349.67 655.31 341.22 645.79 331.38 630.26 319.85 610.29 306.55 588.26 291.56 566.93 275.16 548.84 257.74 535.9 239.78 528.96 221.78 527.72 204.18 530.78 187.35 535.95 171.55 540.67 169.31 524.52 171.24 508.37 176.57 492.22 183.24 476.07 188.63 459.92 190.66 443.77 188.52 427.62 183.06 411.47 176.39 395.32 171.13 379.17 169.32 363.02 171.67 346.87 177.26 330.72 183.91 314.57 189.04 298.42 190.63 282.27 204.27 265.7 216.69 249.27 227.88 234.58 238.02 222.88 247.4 214.8 256.45 210.26 265.69 208.48 275.63 208.21 286.78 207.93 299.53 206.17 314.13 201.8 330.63 194.23 348.88 183.49 368.52 170.24 389.01 155.57 409.68 140.84 409.68 140.84 409.68 140.84" stroke-dasharray="0 4" transform="rotate(24.24, 400, 400)" opacity="0.24"></path><path d="M398.57 153.38Q404.78 155.04 411.34 158.47 418.91 164.49 428.07 173.46 439.3 185.21 452.87 199.09 468.87 214.04 487.15 228.76 507.32 241.97 528.8 252.61 550.87 260.04 572.69 264.19 593.43 265.56 612.31 265.18 630.83 271.89 615.25 294.06 595.34 308.74 580.25 323.42 575.31 338.1 582.26 352.78 598.66 367.46 618.7 382.14 635.32 396.81 642.64 411.49 638.08 426.17 623.25 440.85 603.39 455.53 585.51 470.21 575.92 484.89 578 499.57 570.83 517.3 565.66 537.16 561.68 556.99 558.04 574.64 553.86 588.26 548.37 596.72 540.95 599.74 531.16 598.04 518.84 593.16 504.03 587.24 487.02 582.64 468.28 581.54 448.42 585.51 428.1 595.29 408.02 610.56 388.81 630.07 375.33 640.95 360.22 643.27 350.53 635.6 339.18 622.39 326.13 604.7 311.5 584.39 295.56 563.71 278.67 544.95 261.28 530.04 243.82 520.17 226.74 515.66 210.36 515.88 187.45 514.26 183.14 493.95 189.11 478.8 195.75 463.65 200.7 448.5 202.22 433.34 199.78 418.19 194.23 403.04 187.53 387.89 182.06 372.74 179.73 357.58 181.38 342.43 186.42 327.28 193.07 312.13 198.99 296.97 202.07 281.82 215.92 265.83 228.65 251.11 240.16 238.85 250.49 229.82 259.81 224.17 268.41 221.48 276.68 220.82 285.07 220.94 294.08 220.49 304.16 218.26 315.69 213.39 328.93 205.49 344 194.72 360.82 181.74 379.15 167.57 398.57 153.38 398.57 153.38 398.57 153.38" stroke-dasharray="6 10" transform="rotate(28.28, 400, 400)" opacity="0.50"></path><path d="M387.83 165.93Q394.86 167.29 403.06 170.27 412.87 175.57 424.59 183.58 438.39 194.23 454.25 207.04 471.97 221.18 491.2 235.55 511.42 249.01 532.01 260.52 552.3 269.32 571.58 275.07 589.24 277.91 604.75 278.45 616.78 284.29 597.86 304.96 579.96 319.02 567.78 333.08 565.21 347.14 573.06 361.2 588.84 375.26 607.53 389.32 623.18 403.38 630.83 417.44 628.04 431.5 615.7 445.57 597.73 459.63 579.84 473.69 567.73 487.75 565.23 501.81 556.21 520.22 549.41 539.03 544.29 556.4 540.2 570.67 531.73 583.53 520.22 583.38 511.45 578.28 500.51 573.03 487.39 569.58 472.26 569.66 455.44 574.44 437.39 584.38 418.62 599.12 399.71 617.53 385.86 627.8 368.44 630.99 357.06 625.01 344.09 613.99 329.68 598.64 314.09 580.29 297.69 560.76 280.86 541.99 264.02 525.79 247.54 513.54 231.74 505.95 216.85 503.01 197.09 498.69 195.49 479.22 201.89 465.05 208.32 450.89 212.73 436.72 213.73 422.56 211 408.39 205.4 394.22 198.71 380.06 193.07 365.89 190.26 351.73 191.18 337.56 195.53 323.4 201.94 309.23 208.36 295.07 212.75 280.9 226.75 266.45 239.79 254.08 251.73 244.53 262.48 238.11 280.37 234.06 296.17 233.73 303.74 232.93 311.77 230.16 320.68 224.78 330.86 216.59 342.57 205.86 355.98 193.2 371.11 179.54 387.83 165.93 387.83 165.93 387.83 165.93" stroke-dasharray="3 2" transform="rotate(32.32, 400, 400)" opacity="0.54"></path><path d="M380.16 178.48Q389.12 179.58 399.64 182.12 411.9 186.74 425.94 193.81 441.67 203.35 458.87 215.04 477.19 228.22 496.17 242.02 515.29 255.44 533.99 267.52 551.72 277.46 567.98 284.75 582.36 289.25 594.58 291.2 601.26 297.45 580.71 317.13 565.18 330.58 555.87 344.03 555.4 357.49 563.92 370.94 579 384.39 596.36 397.84 611.05 411.29 618.9 424.75 617.68 438.2 607.73 451.65 591.88 465.1 574.64 478.56 560.92 492.01 554.61 505.46 543.83 523.11 535.28 539.76 528.63 553.98 523.45 564.67 507.75 567.64 492.59 559.12 483.11 556.86 471.76 558.04 458.59 563.51 443.81 573.51 427.71 587.66 410.7 604.98 403.47 610.49 394.89 615.63 384.82 618.74 373.23 618.48 360.19 614 345.89 605.04 330.6 591.99 314.66 575.79 298.42 557.81 282.25 539.64 266.47 522.89 251.37 508.93 237.16 498.71 223.95 492.67 207.4 484.63 208.26 465.42 214.85 452.21 220.91 438.99 224.72 425.78 225.19 412.56 222.18 399.35 216.57 386.13 209.93 372.92 204.16 359.7 200.9 346.49 201.08 333.27 204.64 320.06 210.58 306.84 217.2 293.63 222.62 280.41 236.64 268.27 249.92 258.62 262.27 251.81 273.55 247.78 292.27 246.25 308.18 246.48 321.98 240.58 336.62 227.56 345.35 216.91 355.4 204.61 366.97 191.5 380.16 178.48 380.16 178.48 380.16 178.48" stroke-dasharray="2 7" transform="rotate(36.36, 400, 400)" opacity="0.65"></path><path d="M377.5 191.02Q388.75 191.88 401.5 194.01 415.72 197.98 431.25 204.15 447.86 212.59 465.22 223.1 482.91 235.21 500.52 248.22 517.59 261.32 533.69 273.65 548.43 284.43 561.5 293.07 572.71 299.22 581.95 302.86 584.6 310.55 563.99 329.66 551.1 342.49 544.49 355.32 545.85 368.14 554.82 380.97 569.13 393.8 585.19 406.63 598.92 419.46 606.86 432.29 607 445.12 599.31 457.94 585.73 470.77 569.69 483.6 555.24 496.43 546.04 509.26 533.79 524.92 523.57 538.61 509.28 554.72 498.87 560.18 490.62 553.31 480.99 545.6 474.41 544.51 466.39 546.69 456.81 552.72 445.64 562.69 432.97 576.21 418.98 592.43 409.84 597.45 399.27 602.23 387.32 605.39 374.13 605.78 359.9 602.62 344.9 595.54 329.45 584.72 313.86 570.74 298.45 554.62 283.49 537.59 269.22 520.99 255.82 506.08 243.38 493.9 231.93 485.12 218.47 472.99 221.41 453.67 227.96 441.35 233.5 429.03 236.63 416.71 236.58 404.4 233.34 392.08 227.74 379.76 221.19 367.45 215.34 355.13 211.68 342.82 211.13 330.5 213.83 318.18 219.09 305.87 225.59 293.55 231.68 281.23 245.54 271.85 258.9 265.03 271.57 260.76 283.35 258.74 294.12 258.37 303.82 258.88 319.77 258.29 333.42 253.21 339.51 246.92 345.67 238.36 352.24 227.85 359.54 215.97 372.69 197.23 377.5 191.02" stroke-dasharray="7 6" transform="rotate(40.400000000000006, 400, 400)" opacity="0.70"></path><path d="M380.52 203.56Q393.64 204.2 407.89 205.95 423.07 209.31 438.94 214.62 455.2 221.98 471.52 231.3 487.53 242.24 502.89 254.29 517.27 266.79 530.39 279.02 542.03 290.28 552.05 299.95 566.44 311.85 576.55 317.24 561.89 329.41 547.92 341.58 537.76 353.75 533.65 365.91 536.53 378.08 545.74 390.25 559.24 402.42 574.02 414.59 586.79 426.76 594.71 438.93 596.01 451.1 590.41 463.27 579.15 475.44 564.74 487.6 550.38 499.77 539.28 511.94 525.97 524.74 514.38 535.04 497.02 544.87 483.97 545.89 468.77 535.62 456.73 535.59 450.09 542.05 442.2 551.9 432.99 564.75 422.46 579.89 411.28 584.43 398.92 588.84 385.57 591.98 371.45 592.89 356.81 590.85 341.94 585.48 327.1 576.75 312.57 565.02 298.57 550.96 285.28 535.49 272.84 519.68 261.31 504.59 250.71 491.22 241 480.34 232.08 472.46 223.81 467.75 228.64 456.27 234.87 444.79 241.14 433.31 246.03 421.83 248.46 410.35 247.9 398.87 244.45 387.4 238.91 375.92 232.48 364.44 226.62 352.96 222.62 341.48 221.37 330.01 223.15 318.53 227.57 307.05 233.64 295.57 240.01 284.09 253.49 277.6 266.72 273.43 279.49 271.32 291.63 270.82 302.95 271.3 313.35 272.04 330.7 270.58 345.28 264.31 351.27 257.64 356.85 248.99 362.27 238.7 367.83 227.28 377.17 209.45 380.52 203.56" stroke-dasharray="6 9" transform="rotate(44.44, 400, 400)" opacity="0.22"></path><path d="M388.47 216.11Q402.47 216.54 417.05 217.94 431.96 220.74 446.95 225.23 461.73 231.55 476.04 239.67 489.6 249.38 502.19 260.32 513.62 271.97 523.74 283.77 532.48 295.12 539.84 305.44 550.25 320.19 557.78 329.05 544.27 340.51 532.66 351.97 525.19 363.43 523.33 374.89 527.42 386.35 536.68 397.81 549.31 409.27 562.85 420.73 574.66 432.19 582.46 443.65 584.73 455.11 581.02 466.57 572.05 478.03 559.58 489.49 546.02 500.95 534.01 512.41 520.13 521.88 507.58 528.76 496.46 532.88 486.8 534.36 472.12 530.51 460.73 523.9 445.91 526.26 433.99 541.14 427.64 553.29 420.26 567.35 407.58 571.43 394.19 575.46 380.32 578.54 366.2 579.84 352.07 578.74 338.16 574.86 324.67 568.06 311.78 558.51 299.62 546.62 288.29 533.03 277.81 518.53 268.2 503.98 259.39 490.24 251.3 478.07 243.8 468.08 236.75 460.66 242.3 449.96 248.56 439.27 254.33 428.57 258.47 417.87 260.19 407.17 259.14 396.47 255.54 385.77 250.08 375.07 243.82 364.37 237.99 353.67 233.71 342.97 231.81 332.27 232.68 321.58 236.13 310.88 241.49 300.18 247.73 289.48 260.6 285.69 273.44 283.74 286.06 283.26 298.3 283.74 309.98 284.59 320.95 285.18 331.1 284.95 340.35 283.39 348.68 280.16 356.1 275.07 362.67 268.12 368.52 259.47 373.81 249.46 378.74 238.54 386 221.67 388.47 216.11" stroke-dasharray="4 8" transform="rotate(48.48, 400, 400)" opacity="0.56"></path><path d="M399.32 228.65Q412.97 228.91 426.63 229.99 440.11 232.26 453.19 235.99 465.66 241.31 477.35 248.26 488.11 256.71 497.8 266.42 506.38 277.02 513.8 288.09 520.09 299.13 525.34 309.66 532.98 326.58 539.06 338.71 527.38 349.41 518.33 360.11 513.42 370.8 513.48 381.5 518.5 392.2 527.63 402.89 539.35 413.59 551.68 424.29 562.55 434.98 570.13 445.68 573.16 456.38 571.11 467.07 564.35 477.77 553.99 488.47 541.79 499.17 529.79 509.86 515.86 515.97 502.86 519.73 490.94 521.25 480.18 520.78 462.83 515.65 448.81 509.67 432.84 514.94 422.55 530.41 418.03 541.81 412.95 554.81 399.78 558.45 386.41 562.11 373.06 565.06 359.91 566.64 347.14 566.32 334.89 563.71 323.29 558.65 312.42 551.15 302.34 541.44 293.04 529.92 284.52 517.13 276.71 503.73 269.52 490.39 262.85 477.79 256.55 466.53 250.5 457.09 256.39 447.12 262.38 437.15 267.46 427.18 270.78 417.21 271.79 407.24 270.3 397.27 266.58 387.3 261.25 377.33 255.2 367.36 249.45 357.39 244.96 347.42 242.5 337.45 242.47 327.48 244.88 317.51 249.32 307.54 255.05 297.57 267.08 296.01 279.25 295.71 291.42 296.26 303.45 297.18 315.17 297.95 326.44 298.09 337.13 297.19 347.12 294.9 356.33 291.02 364.71 285.48 372.24 278.33 378.94 269.78 384.88 260.12 390.16 249.74 397.12 233.88 399.32 228.65" stroke-dasharray="0 3" transform="rotate(52.52, 400, 400)" opacity="0.90"></path><path d="M410.35 241.19Q422.47 241.29 434.21 242.09 445.41 243.89 455.95 246.91 465.72 251.3 474.62 257.12 482.61 264.3 489.65 272.72 495.77 282.12 501.02 292.19 505.47 302.56 509.24 312.85 515.3 331.01 520.89 345.76 511.48 355.65 505.02 365.53 502.43 375.41 504.08 385.29 509.74 395.17 518.59 405.06 529.36 414.94 540.51 424.82 550.44 434.7 557.73 444.58 561.32 454.46 560.7 464.35 555.97 474.23 547.8 484.11 537.36 493.99 526.15 503.87 512.68 506.97 499.77 508.2 487.56 507.79 476.19 506.09 465.74 503.54 456.26 500.65 440.7 496.6 427.83 496.12 418.38 504.84 410.13 519.7 406.3 530.33 402.37 542.26 389.87 545.49 377.61 548.78 365.73 551.57 354.34 553.32 343.54 553.59 333.4 552.06 323.97 548.51 315.25 542.88 307.24 535.26 299.89 525.87 293.14 515.06 286.9 503.28 281.08 491.02 275.56 478.81 270.22 467.19 264.94 456.61 270.78 447.34 276.21 438.06 280.46 428.79 282.93 419.51 283.25 410.24 281.38 400.96 277.59 391.69 272.42 382.41 266.61 373.14 261.01 363.86 256.4 354.58 253.45 345.31 252.59 336.03 253.94 326.76 257.31 317.48 262.2 308.2 273.17 308.22 284.42 308.91 295.84 309.89 307.31 310.74 318.71 311.08 329.91 310.56 340.78 308.89 351.2 305.88 361.07 301.42 370.3 295.53 378.82 288.3 386.59 279.92 393.6 270.68 399.86 260.91 407.88 246.07 410.35 241.19" stroke-dasharray="8 10" transform="rotate(56.56, 400, 400)" opacity="0.80"></path><path d="M418.76 253.74Q437.79 254.26 454.21 258 467.68 266.27 478.2 279.33 486.18 296.3 492.37 315.33 497.81 334.05 503.69 350.07 492.77 368.11 495.08 386.16 509.52 404.21 529.34 422.26 545.25 440.3 549.8 458.35 540.85 476.39 522.61 494.44 497.71 494.6 474.33 490.77 453.38 485.83 435.42 482.98 420.61 485.02 408.73 493.64 399.19 509.01 391.18 529.71 370.05 535.48 351.12 539.89 334.7 539.93 320.74 533.68 308.93 520.69 298.67 502.11 289.24 480.33 279.87 458.45 289.94 441.26 294.87 424.07 292.36 406.88 283.59 389.68 272.66 372.49 264.69 355.29 263.42 338.1 269.44 320.91 289.3 322.79 310.28 324.04 331.69 322.38 352.72 316.25 372.56 305.21 390.48 289.92 405.96 272.03 418.76 253.74 418.76 253.74 418.76 253.74" stroke-dasharray="7 9" transform="rotate(60.599999999999994, 400, 400)" opacity="0.96"></path><path d="M422.43 266.29Q436.31 266.47 447.83 269.26 457.07 275.76 464.37 286.35 470.3 300.63 475.62 317.46 481.18 335.14 487.86 351.8 481.61 368.08 486.43 384.36 500.44 400.64 518.17 416.92 532.72 433.2 538.41 449.47 533.02 465.75 518.65 482.03 496.02 479.62 473.88 475.37 453.03 471.65 434.13 470.75 417.58 474.46 403.52 483.7 391.86 498.34 382.22 517.17 365.75 522.21 351.48 526.38 339.32 527.39 328.97 523.57 319.96 514.24 311.71 499.77 303.6 481.53 295.04 461.57 303.42 445.74 306.57 429.91 303.25 414.07 294.76 398.24 284.4 382.4 276.23 366.57 273.41 350.73 277.06 334.9 294.3 336.68 312.88 336.66 332.35 333.35 352.18 325.97 371.72 314.5 390.32 299.75 407.37 283.1 422.43 266.29 422.43 266.29 422.43 266.29" stroke-dasharray="6 2" transform="rotate(64.64, 400, 400)" opacity="0.83"></path><path d="M420.43 278.83Q436.88 282.17 449.39 293.89 454.49 305.45 459.82 319.66 466.01 335.46 473.63 351.5 471.48 365.99 478.07 380.48 491.31 394.97 507 409.46 520.14 423.96 526.56 438.45 524.22 452.94 513.86 467.43 494.07 464.01 474.03 460.41 454.39 458.36 435.71 459.35 418.47 464.41 402.98 473.95 389.41 487.68 377.75 504.63 365.98 508.97 355.91 512.82 339.91 510.45 325.59 495.89 318.25 481.61 310.16 464.77 316.56 450.33 318 435.89 314.04 421.45 305.93 407.01 296.24 392.57 288.06 378.13 283.99 363.69 285.32 349.25 299.82 349.96 315.66 348.26 332.63 343.37 350.41 335 368.57 323.43 386.62 309.43 404.07 294.13 420.43 278.83 420.43 278.83 420.43 278.83" stroke-dasharray="9 2" transform="rotate(68.68, 400, 400)" opacity="0.88"></path><path d="M413.27 291.37Q424.66 293.45 434.66 302.02 439.81 310.94 445.7 322.33 452.71 335.62 461.16 349.97 462.31 362.69 469.95 375.4 482.15 388.12 495.83 400.84 507.52 413.55 514.29 426.27 514.41 438.99 507.86 451.71 491.22 448.59 473.93 446.37 456.4 446.17 439.09 448.82 422.38 454.86 406.62 464.38 392.07 477.03 378.91 492.08 364.48 498.51 352.01 500.81 346.07 497.23 339.76 490.21 332.79 479.9 324.95 466.85 329.22 453.86 329.14 440.88 324.73 427.89 317.1 414.91 308.17 401.92 300.21 388.94 295.22 375.95 294.47 362.97 306.25 361.99 319.22 358.55 333.33 352.31 348.43 343.33 364.28 332 380.61 318.97 397.06 305.11 413.27 291.37 413.27 291.37 413.27 291.37" stroke-dasharray="4 10" transform="rotate(72.72, 400, 400)" opacity="0.95"></path><path d="M402.76 303.91Q411.88 304.95 421.46 310.81 427.17 317.3 433.78 325.89 441.5 336.33 450.45 348.18 454 359.16 462.01 370.14 472.94 381.12 484.66 392.1 494.88 403.09 501.63 414.07 495.29 429.6 472.77 433.66 458 435.2 442.95 439.18 427.91 445.78 413.14 454.96 398.9 466.39 385.38 479.54 367.45 485.95 353.61 482.62 346.78 475.93 339.1 466.8 341.32 455.34 339.97 443.87 335.31 432.41 328.27 420.95 320.19 409.48 312.66 398.02 310.52 379.42 324.08 367.31 335.23 360.15 347.32 351 360.28 340.24 373.96 328.38 388.19 316.06 402.76 303.91 402.76 303.91 402.76 303.91" stroke-dasharray="4 7" transform="rotate(76.76, 400, 400)" opacity="0.49"></path><path d="M391.55 316.46Q400.51 316.7 410.87 320.3 417.2 324.67 424.36 330.66 432.42 338.21 441.43 347.14 446.4 356.45 454.19 365.75 463.68 375.05 473.49 384.36 482.23 393.66 488.64 402.96 486.38 416.8 469.88 422.58 458.17 425.55 445.96 430.39 433.43 437.14 420.74 445.67 408.06 455.74 395.55 467 379.94 473.39 366.56 473.13 356.29 461.72 350.46 444.13 345.8 434.26 339.44 424.38 332.3 414.51 325.4 404.63 321.39 387.62 330.66 374.46 339 366.91 348.09 358.04 357.94 348.17 368.51 337.68 385.64 321.71 391.55 316.46" stroke-dasharray="8 7" transform="rotate(80.80000000000001, 400, 400)" opacity="0.08"></path><path d="M382.47 329.01Q392 328.3 403.54 330.53 417.46 336.89 433.88 347.82 446.43 363.19 462.32 378.55 475.36 393.92 480.45 409.28 464.79 413.32 446.92 422.43 427.38 436.5 406.85 454.44 399.01 458.45 389.52 461.63 378.06 461.89 364.53 457.7 360.62 441.24 350.61 424.77 338.41 408.3 328.77 391.83 339.21 380 351.49 364.5 365.88 346.86 382.47 329.01 382.47 329.01 382.47 329.01" stroke-dasharray="7 4" transform="rotate(84.84, 400, 400)" opacity="0.85"></path><path d="M377.82 341.55Q387.99 340.65 399.66 341.48 412.86 344.77 427.52 350.95 438.66 363.19 451.15 375.42 461.83 387.66 468.01 399.89 457.27 405.93 444.97 415.22 431.27 427.44 416.41 441.9 408.22 444.93 398.67 447.73 387.71 449.17 375.43 448.32 370.43 435.2 361.78 422.07 351.67 408.95 342.64 395.83 349.79 384.08 357.88 370.48 367.16 355.96 377.82 341.55 377.82 341.55 377.82 341.55" stroke-dasharray="10 8" transform="rotate(88.88, 400, 400)" opacity="0.65"></path><path d="M378.77 354.09Q388.44 353.18 398.91 353.14 410.12 354.32 421.99 357 430.83 366.17 439.98 375.35 447.72 392.43 439.67 408.66 431.15 418.44 421.82 429.36 413.76 431.48 404.9 433.64 395.29 435.34 385 436.15 379.9 426.39 372.95 416.62 365.14 406.86 357.59 397.09 362.24 386.92 367.23 376.06 375.74 359.53 378.77 354.09" stroke-dasharray="10 10" transform="rotate(92.92, 400, 400)" opacity="0.69"></path><path d="M385.09 366.64Q400.53 365.44 416.91 366.06 428.8 378.34 438.98 390.64 431.07 402.64 421.72 416.82 408.03 419.52 393.28 421.98 384.11 409.1 373.41 396.22 382.07 374.01 385.09 366.64" stroke-dasharray="5 0" transform="rotate(96.96, 400, 400)" opacity="0.74"></path></g></svg>