<svg xmlns="http://www.w3.org/2000/svg" version="1.1" xmlns:xlink="http://www.w3.org/1999/xlink" xmlns:svgjs="http://svgjs.dev/svgjs" viewBox="0 0 800 800"><defs><linearGradient x1="50%" y1="0%" x2="50%" y2="100%" id="ccchaos-grad"><stop stop-color="hsl(173.4, 100%, 42%)" stop-opacity="1" offset="0%"></stop><stop stop-color="hsl(173.4, 10%, 42%)" stop-opacity="1" offset="100%"></stop></linearGradient></defs><g stroke-width="2" stroke="url(#ccchaos-grad)" fill="none" stroke-linecap="round"><path d="M377.74 57.73Q385.97 63.61 394.46 69.91 403.21 76.58 412.23 83.59 421.55 90.89 431.16 98.41 441.06 106.08 451.26 113.81 461.75 121.51 472.52 129.1 483.55 136.5 494.84 143.61 506.35 150.38 518.06 156.72 529.96 162.59 541.99 167.96 554.14 172.8 566.37 177.11 578.63 180.92 590.89 184.24 603.11 187.14 615.25 189.69 627.27 191.95 639.12 194.03 650.77 196.02 662.18 198.03 673.31 200.18 684.13 202.55 694.61 205.26 704.72 208.4 718.35 219.1 719.19 236.11 714.65 246.04 708.84 255.98 702.02 265.92 694.49 275.85 686.59 285.79 678.66 295.73 671.05 305.66 664.11 315.6 658.13 325.54 653.38 335.48 650.08 345.41 648.36 355.35 648.31 365.29 649.92 375.22 653.12 385.16 657.78 395.1 663.69 405.03 670.58 414.97 678.15 424.91 686.07 434.84 693.99 444.78 701.55 454.72 708.43 464.66 714.31 474.59 718.94 484.53 722.12 494.47 723.7 504.4 723.61 514.34 721.86 524.28 718.53 534.22 706.99 540.48 695.18 547.75 683.13 555.98 670.9 565.06 658.52 574.89 646.04 585.31 633.5 596.15 620.95 607.23 608.42 618.35 595.97 629.32 583.62 639.93 571.41 650.01 559.39 659.37 547.58 667.87 536 675.39 524.69 681.84 513.66 687.16 502.93 691.33 492.51 694.38 482.41 696.36 472.64 697.37 463.19 697.54 445.38 695.84 428.46 693.25 412.87 691.3 397.93 691.01 390.78 692.29 383.77 694.62 373.67 688.18 363.81 682.98 354.22 678.99 344.87 676.17 335.78 674.44 326.92 673.66 309.99 674.53 293.64 676.65 278.09 678.76 262.89 679.63 248.01 676.71 233.2 670.78 225.77 665.9 218.29 659.9 210.75 652.82 203.13 644.75 195.4 635.78 187.57 626.05 179.61 615.73 171.52 604.99 163.3 594.02 154.93 583.02 146.43 572.18 137.79 561.69 129.01 551.71 120.11 542.41 120.73 532.37 121.06 522.33 121.08 512.29 120.78 502.25 120.19 492.22 119.31 482.18 118.21 472.14 116.91 462.1 115.49 452.06 114 442.02 112.51 431.98 111.08 421.94 109.79 411.91 108.68 401.87 107.8 391.83 107.2 381.79 106.89 371.75 106.9 361.71 107.23 351.67 107.85 341.64 108.74 331.6 109.87 321.56 111.17 311.52 112.6 301.48 114.1 291.44 115.58 281.4 117 271.37 118.28 261.33 119.38 251.29 120.23 241.25 125.67 224.95 139.88 216.52 149.13 214.56 158.26 212.68 167.27 210.79 176.14 208.77 184.86 206.52 193.43 203.95 201.83 200.98 210.08 197.54 218.18 193.6 226.11 189.11 233.9 184.08 241.56 178.5 249.08 172.41 256.5 165.84 263.81 158.87 271.05 151.54 278.24 143.96 285.39 136.21 292.54 128.36 299.69 120.53 306.89 112.79 314.16 105.24 321.52 97.94 329.01 90.96 336.63 84.36 344.43 78.16 352.42 72.4 360.62 67.08 373.4 59.96 377.74 57.73" stroke-dasharray="0 10" transform="rotate(0, 400, 400)" opacity="0.05"></path><path d="M377.64 69.97Q386.15 75.66 394.91 81.73 403.92 88.17 413.2 94.94 422.75 101.99 432.55 109.26 442.61 116.69 452.92 124.2 463.46 131.7 474.23 139.13 485.2 146.4 496.35 153.43 507.66 160.15 519.11 166.5 530.66 172.43 542.29 177.9 553.96 182.87 565.65 187.34 577.3 191.31 588.9 194.8 600.4 197.85 611.77 200.51 622.97 202.83 633.97 204.91 644.75 206.81 655.26 208.65 665.48 210.5 675.39 212.47 684.95 214.66 694.16 217.16 706.07 226.51 705.43 242.55 700.48 252.13 694.49 261.7 687.7 271.28 680.39 280.85 672.86 290.43 665.42 300 658.37 309.58 652 319.15 646.56 328.73 642.29 338.3 639.36 347.88 637.89 357.45 637.93 367.03 639.48 376.6 642.49 386.18 646.82 395.76 652.31 405.33 658.73 414.91 665.81 424.48 673.26 434.06 680.79 443.63 688.08 453.21 694.83 462.78 700.77 472.36 705.66 481.94 709.3 491.51 711.54 501.09 712.28 510.66 711.49 520.24 709.22 529.81 698.55 536.97 687.6 544.98 676.4 553.76 664.98 563.2 653.38 573.17 641.63 583.52 629.78 594.09 617.85 604.71 605.9 615.19 593.95 625.38 582.05 635.1 570.22 644.2 558.5 652.55 546.92 660.03 535.51 666.56 524.3 672.07 513.31 676.54 502.56 679.97 492.06 682.39 481.83 683.89 471.88 684.54 462.21 684.48 452.84 683.86 443.75 682.84 426.55 680.41 410.15 678.48 394.93 679.17 380.32 682.38 371.15 676.18 362.22 671.11 345.18 664.77 328.8 661.41 313.37 661.8 298.41 663.51 284.02 665.57 269.85 666.74 255.81 664.83 241.73 660.34 234.61 656.4 227.42 651.43 220.15 645.45 212.77 638.5 205.29 630.65 197.68 622 189.95 612.68 182.08 602.81 174.08 592.57 165.94 582.11 157.66 571.61 149.25 561.24 140.72 551.16 132.07 541.52 132.54 531.81 132.7 522.09 132.55 512.37 132.09 502.66 131.33 492.94 130.32 483.23 129.09 473.51 127.69 463.79 126.18 454.08 124.63 444.36 123.08 434.64 121.62 424.93 120.29 415.21 119.15 405.49 118.26 395.78 117.63 386.06 117.31 376.35 117.3 366.63 117.61 356.91 118.22 347.2 119.1 337.48 120.22 327.77 121.54 318.05 123 308.33 124.54 298.62 126.1 288.9 127.62 279.19 129.02 269.47 130.26 259.75 131.29 250.04 136.88 234.48 150.81 226.85 159.83 225.14 168.75 223.39 177.55 221.52 186.22 219.43 194.76 217.04 203.16 214.27 211.41 211.06 219.5 207.38 227.44 203.18 235.23 198.46 242.86 193.23 250.35 187.49 257.69 181.29 264.91 174.68 272.01 167.71 279.01 160.45 285.93 152.99 292.77 145.4 299.57 137.77 306.33 130.18 313.1 122.72 319.88 115.45 326.7 108.44 333.59 101.75 340.57 95.43 347.66 89.51 354.9 84 362.29 78.92 373.75 72.11 377.64 69.97" stroke-dasharray="6 9" transform="rotate(4.04, 400, 400)" opacity="0.09"></path><path d="M379.03 82.22Q387.77 87.7 396.75 93.55 405.96 99.75 415.4 106.27 425.06 113.07 434.95 120.08 445.04 127.26 455.32 134.53 465.79 141.82 476.42 149.07 487.18 156.19 498.07 163.11 509.05 169.78 520.1 176.12 531.19 182.08 542.3 187.62 553.39 192.72 564.43 197.34 575.39 201.48 586.25 205.15 596.97 208.38 607.52 211.19 617.88 213.64 628.01 215.79 637.9 217.7 647.52 219.45 656.85 221.13 665.87 222.83 682.75 226.75 698.58 231.5 695.57 240.73 691.36 249.96 686.13 259.19 680.05 268.42 673.38 277.65 666.35 286.88 659.23 296.1 652.29 305.33 645.79 314.56 639.98 323.79 635.07 333.02 631.26 342.25 628.67 351.48 627.42 360.71 627.55 369.94 629.05 379.17 631.86 388.39 635.89 397.62 640.97 406.85 646.93 416.08 653.52 425.31 660.51 434.54 667.63 443.77 674.62 453 681.2 462.23 687.14 471.45 692.2 480.68 696.2 489.91 698.99 499.14 700.46 508.37 700.56 517.6 699.27 526.83 689.47 534.67 679.37 543.19 669.02 552.29 658.43 561.84 647.63 571.73 636.66 581.81 625.54 591.92 614.31 601.91 603.01 611.64 591.65 620.96 580.29 629.73 568.94 637.84 557.64 645.18 546.41 651.66 535.29 657.24 524.31 661.88 513.48 665.56 502.82 668.32 492.36 670.2 482.12 671.27 472.11 671.63 462.33 671.4 452.8 670.71 443.53 669.72 425.87 667.56 408.96 665.97 393.25 666.89 378.18 670.13 369.94 664.18 361.91 659.25 346.56 652.87 331.76 649.23 317.7 649.17 303.96 650.45 290.59 652.38 277.3 653.74 263.96 652.67 250.49 649.43 236.65 641.85 222.5 631.51 215.22 624.77 207.82 617.23 200.29 608.96 192.63 600.08 184.83 590.7 176.91 580.97 168.85 571.03 160.67 561.02 152.38 551.1 143.97 541.41 144.27 532.02 144.24 522.62 143.91 513.22 143.28 503.82 142.37 494.42 141.23 485.02 139.88 475.63 138.39 466.23 136.81 456.83 135.2 447.43 133.61 438.03 132.12 428.63 130.77 419.23 129.62 409.84 128.71 400.44 128.07 391.04 127.73 381.64 127.7 372.24 127.99 362.84 128.57 353.44 129.44 344.05 130.55 334.65 131.86 325.25 133.33 315.85 134.91 306.45 136.52 297.05 138.11 287.65 139.62 278.25 141 268.86 142.18 259.46 147.93 244.55 161.58 237.48 170.36 235.87 179.06 234.13 187.65 232.17 196.13 229.92 204.49 227.31 212.73 224.3 220.82 220.82 228.77 216.87 236.57 212.43 244.22 207.49 251.72 202.07 259.07 196.21 266.28 189.93 273.35 183.3 280.29 176.37 287.1 169.21 293.81 161.9 300.42 154.5 306.95 147.11 313.41 139.78 319.83 132.6 326.23 125.63 332.62 118.92 339.02 112.54 352.01 101.05 365.24 90.75 375.54 84.26 379.03 82.22" stroke-dasharray="9 3" transform="rotate(8.08, 400, 400)" opacity="0.13"></path><path d="M381.82 94.48Q390.72 99.75 399.82 105.38 409.12 111.34 418.61 117.6 428.27 124.13 438.11 130.88 448.1 137.8 458.22 144.82 468.47 151.89 478.82 158.93 489.25 165.89 499.74 172.69 510.27 179.27 520.81 185.57 531.33 191.54 541.81 197.15 552.23 202.34 562.56 207.1 572.77 211.41 582.83 215.27 592.74 218.69 602.45 221.7 611.95 224.31 621.21 226.59 630.23 228.58 638.97 230.35 655.45 233.51 671.02 236.67 679.93 243.91 677.02 258.26 671.62 267.15 665.57 276.05 659.08 284.94 652.38 293.83 645.71 302.73 639.29 311.62 633.34 320.51 628.07 329.41 623.66 338.3 620.27 347.19 618.02 356.09 616.97 364.98 617.17 373.87 618.61 382.77 621.24 391.66 624.97 400.55 629.67 409.45 635.17 418.34 641.3 427.23 647.82 436.13 654.53 445.02 661.19 453.91 667.56 462.8 673.42 471.7 678.58 480.59 682.86 489.48 686.1 498.38 688.19 507.27 689.07 516.16 688.7 525.06 679.73 533.34 670.47 542.13 660.96 551.3 651.2 560.75 641.23 570.34 631.05 579.95 620.71 589.44 610.23 598.69 599.63 607.57 588.94 615.96 578.19 623.75 567.41 630.86 556.62 637.21 545.86 642.75 535.14 647.44 524.5 651.27 513.95 654.25 503.52 656.41 493.23 657.81 483.09 658.53 473.13 658.65 463.36 658.29 453.79 657.57 444.42 656.62 435.28 655.6 426.36 654.64 409.3 653.73 392.92 654.26 377.62 653.92 362.96 647.39 349.16 640.99 335.77 637.12 322.9 636.62 310.22 637.46 297.69 639.2 285.14 640.63 272.39 640.23 259.43 638.05 246.01 632.14 232.25 623.74 225.16 618.08 217.95 611.63 210.6 604.45 203.13 596.62 195.53 588.21 187.81 579.35 179.96 570.15 172.01 560.73 163.95 551.22 155.79 541.75 155.88 532.67 155.66 523.59 155.15 514.51 154.35 505.43 153.29 496.35 152.02 487.27 150.58 478.18 149 469.1 147.36 460.02 145.71 450.94 144.1 441.86 142.59 432.78 141.23 423.7 140.07 414.62 139.15 405.54 138.51 396.46 138.15 387.38 138.1 378.3 138.36 369.22 138.92 360.14 139.75 351.06 140.84 341.98 142.14 332.89 143.6 323.81 145.19 314.73 146.83 305.65 148.49 296.57 150.08 287.49 151.58 278.41 152.91 269.33 158.8 254.99 172.16 248.25 189.12 244.61 205.83 240.14 222.01 233.74 237.83 226 245.5 221.32 253.03 216.18 260.41 210.61 267.65 204.65 274.75 198.33 281.7 191.72 288.51 184.87 295.19 177.84 301.75 170.7 308.19 163.53 314.53 156.39 320.77 149.35 326.94 142.47 333.04 135.8 345.13 123.5 357.18 112.21 375.61 98.63 381.82 94.48" stroke-dasharray="10 5" transform="rotate(12.12, 400, 400)" opacity="0.16"></path><path d="M385.83 106.72Q403.88 117.19 422.55 128.91 441.73 141.65 461.31 155.06 481.15 168.71 501.11 182.13 521 194.84 540.65 206.44 559.89 216.59 578.56 225.1 596.49 231.94 613.54 237.22 629.62 241.22 644.63 244.37 658.53 247.17 671.31 250.19 662.48 267.32 651.07 284.45 638.52 301.58 626.41 318.71 616.26 335.84 609.34 352.97 606.53 370.1 608.17 387.23 614.07 404.36 623.47 421.49 635.21 438.62 647.8 455.75 659.65 472.88 669.29 490.01 675.5 507.14 677.5 524.27 660.89 541.56 643.27 559.69 624.75 577.78 605.49 594.94 585.67 610.32 565.46 623.27 545.06 633.32 524.64 640.28 504.4 644.28 484.5 645.69 465.07 645.18 446.24 643.58 428.1 641.87 410.72 641.05 394.12 642.04 378.32 645.63 365.34 635.54 352.85 628.78 340.73 625.09 328.84 623.94 317.05 624.58 305.22 626.09 293.24 627.49 281.01 627.83 268.42 626.28 255.41 622.19 241.94 615.2 227.97 605.18 213.51 592.32 198.58 577.07 183.22 560.1 167.48 542.2 166.94 524.68 165.28 507.17 162.71 489.65 159.54 472.13 156.17 454.61 153.03 437.09 150.52 419.58 148.94 402.06 148.5 384.54 149.26 367.02 151.11 349.5 153.82 331.98 157.06 314.46 160.41 296.95 163.46 279.43 165.82 261.91 182.52 258.96 199.03 255.12 215.27 249.97 231.15 243.21 246.6 234.71 261.55 224.51 275.97 212.81 289.83 199.94 303.14 186.34 315.91 172.49 328.21 158.88 340.1 145.96 351.69 134.11 363.08 123.56 380.12 110.58 385.83 106.72" stroke-dasharray="10 3" transform="rotate(16.16, 400, 400)" opacity="0.20"></path><path d="M390.78 118.97Q408.63 128.99 426.9 140.2 445.5 152.39 464.29 165.25 483.14 178.41 501.92 191.45 520.48 203.94 538.66 215.5 556.33 225.79 573.35 234.61 589.61 241.86 605.02 247.58 619.49 251.95 632.99 255.27 645.5 257.96 657.04 260.5 647.78 276.98 636.6 293.46 624.78 309.94 613.67 326.42 604.55 342.9 598.46 359.38 596.1 375.86 597.73 392.34 603.19 408.82 611.83 425.3 622.66 441.78 634.46 458.25 645.85 474.73 655.54 491.21 662.42 507.69 665.7 524.17 650.64 541.19 634.61 558.44 617.7 575.13 600.03 590.53 581.73 604 562.94 615.04 543.82 623.37 524.54 628.94 505.24 631.94 486.08 632.78 467.2 632.08 448.73 630.59 430.75 629.16 413.37 628.65 396.64 629.84 380.59 633.38 368.95 623.7 357.62 617.02 346.48 613.13 335.41 611.6 324.29 611.82 313.01 613.01 301.48 614.34 289.62 614.97 277.36 614.16 264.66 611.28 251.49 605.91 237.84 597.84 223.73 587.1 209.19 573.95 194.26 558.85 179.01 542.43 178.06 525.57 176.07 508.71 173.28 491.85 169.98 474.99 166.58 458.13 163.45 441.27 160.95 424.41 159.38 407.55 158.91 390.69 159.59 373.83 161.35 356.97 163.98 340.11 167.19 323.25 170.6 306.39 173.83 289.53 176.51 272.67 192.63 269.43 208.63 265.09 224.41 259.32 239.91 251.96 255.03 242.98 269.73 232.48 283.94 220.7 297.63 207.97 310.79 194.72 323.42 181.38 335.54 168.38 347.2 156.11 358.46 144.89 369.41 134.91 385.46 122.63 390.78 118.97" stroke-dasharray="6 0" transform="rotate(20.200000000000003, 400, 400)" opacity="0.24"></path><path d="M396.35 131.22Q413.73 140.79 431.34 151.48 449.1 163.1 466.87 175.4 484.54 188.04 501.99 200.66 519.09 212.87 535.73 224.33 551.8 234.71 567.19 243.79 581.84 251.43 595.67 257.6 608.65 262.42 620.76 266.07 632.01 268.88 642.43 271.22 632.99 287.05 622.19 302.87 611.17 318.7 601.07 334.53 592.94 350.35 587.62 366.18 585.67 382 587.3 397.83 592.33 413.65 600.23 429.48 610.2 445.3 621.18 461.13 632.04 476.95 641.65 492.78 649 508.6 653.33 524.43 639.73 540.74 625.23 556.75 609.89 571.83 593.79 585.39 577.04 596.94 559.73 606.18 542.01 612.94 523.99 617.27 505.81 619.42 487.61 619.81 469.5 618.99 451.62 617.65 434.06 616.5 416.91 616.28 400.26 617.64 384.15 621.14 373.61 611.87 363.21 605.29 352.84 601.23 342.4 599.36 331.78 599.17 320.92 600.01 309.73 601.19 298.16 601.99 286.16 601.74 273.73 599.86 260.84 595.9 247.5 589.61 233.74 580.88 219.6 569.84 205.11 556.76 190.35 542.09 189 525.92 186.72 509.74 183.73 493.56 180.35 477.38 176.94 461.2 173.84 445.02 171.38 428.85 169.82 412.67 169.31 396.49 169.92 380.31 171.57 364.13 174.1 347.95 177.24 331.77 180.67 315.59 184.02 299.41 186.96 283.23 202.49 279.51 217.94 274.54 233.24 268.13 248.32 260.2 263.09 250.8 277.5 240.09 291.49 228.33 305.01 215.84 318.04 203.01 330.56 190.22 342.58 177.86 354.11 166.26 365.18 155.67 375.87 146.27 391.29 134.67 396.35 131.22" stroke-dasharray="3 1" transform="rotate(24.24, 400, 400)" opacity="0.28"></path><path d="M402.16 143.46Q418.8 152.58 435.52 162.75 452.21 173.8 468.78 185.51 485.12 197.61 501.13 209.76 516.72 221.64 531.79 232.93 546.26 243.32 560.08 252.59 573.19 260.58 585.55 267.22 597.15 272.52 608 276.62 618.12 279.73 627.55 282.14 618.15 297.3 607.88 312.46 597.72 327.62 588.61 342.78 581.43 357.94 576.83 373.1 575.26 388.27 576.86 403.43 581.48 418.59 588.69 433.75 597.81 448.91 607.97 464.07 618.24 479.23 627.63 494.39 635.27 509.55 640.45 524.71 628.2 539.92 615.14 554.45 601.3 567.76 586.74 579.44 571.52 589.15 555.73 596.69 539.46 602.04 522.81 605.31 505.89 606.76 488.81 606.8 471.68 605.94 454.61 604.77 437.7 603.91 421.04 603.95 404.71 605.46 388.78 608.89 379.09 600.05 369.38 593.59 359.58 589.41 349.58 587.23 339.33 586.64 328.76 587.12 317.82 588.08 306.48 588.94 294.72 589.08 282.53 587.99 269.91 585.24 256.89 580.51 243.49 573.65 229.76 564.64 215.74 553.64 201.49 540.91 199.76 525.44 197.21 509.97 194.07 494.5 190.64 479.03 187.25 463.56 184.2 448.09 181.8 432.62 180.25 417.15 179.72 401.67 180.24 386.2 181.78 370.73 184.18 355.26 187.22 339.79 190.61 324.32 194.04 308.85 197.18 293.37 212.09 289.02 226.96 283.37 241.73 276.33 256.34 267.89 270.72 258.18 284.81 247.36 298.54 235.71 311.87 223.55 324.77 211.2 337.2 199.02 349.14 187.33 360.61 176.41 371.6 166.46 382.16 157.64 397.25 146.72 402.16 143.46" stroke-dasharray="6 5" transform="rotate(28.28, 400, 400)" opacity="0.32"></path><path d="M407.83 155.71Q423.5 164.37 439.11 174 454.57 184.47 469.8 195.58 484.7 207.1 499.22 218.75 513.26 230.25 526.78 241.29 539.72 251.63 552.04 261.02 563.71 269.29 574.72 276.35 585.08 282.16 594.8 286.77 603.93 290.32 612.5 293.02 603.32 307.49 593.69 321.97 584.42 336.45 576.3 350.93 570.02 365.41 566.09 379.89 564.86 394.37 566.42 408.85 570.66 423.33 577.2 437.81 585.49 452.29 594.85 466.77 604.46 481.25 613.54 495.72 621.3 510.2 627.09 524.68 616.09 538.5 604.37 551.34 591.96 562.82 578.87 572.65 565.15 580.61 550.87 586.63 536.07 590.73 520.85 593.09 505.29 593.98 489.47 593.78 473.48 592.94 457.42 591.96 441.38 591.37 425.43 591.66 409.67 593.29 394.15 596.64 385.07 588.23 375.85 581.93 366.43 577.66 356.74 575.21 346.73 574.24 336.37 574.36 325.63 575.06 314.48 575.87 302.93 576.26 290.98 575.76 278.65 573.99 265.95 570.6 252.94 565.41 239.64 558.31 226.11 549.34 212.39 538.64 210.32 523.9 207.55 509.17 204.3 494.43 200.86 479.7 197.51 464.96 194.54 450.23 192.2 435.49 190.69 420.76 190.13 406.02 190.57 391.29 191.98 376.56 194.23 361.82 197.13 347.09 200.45 332.35 203.89 317.62 207.17 302.88 221.42 297.82 235.67 291.49 249.88 283.87 263.98 275.03 277.91 265.1 291.62 254.3 305.05 242.87 318.15 231.12 330.87 219.32 343.19 207.79 355.07 196.8 366.5 186.56 377.48 177.26 388.01 169.01 402.97 158.77 407.83 155.71" stroke-dasharray="7 5" transform="rotate(32.32, 400, 400)" opacity="0.35"></path><path d="M412.98 167.96Q427.49 176.17 441.84 185.26 455.94 195.14 469.73 205.63 483.16 216.55 496.17 227.66 508.7 238.71 520.73 249.45 532.21 259.64 543.14 269.06 553.49 277.55 563.29 284.97 572.53 291.25 581.26 296.4 589.03 308.94 579.66 331.18 571.31 344.95 564.14 358.73 558.7 372.5 555.39 386.28 554.46 400.05 555.99 413.83 559.85 427.61 565.76 441.38 573.27 455.16 581.81 468.93 590.74 482.71 599.4 496.49 607.11 510.26 613.32 524.04 603.45 536.23 592.98 547.29 581.89 556.94 570.19 564.99 557.92 571.35 545.09 576 531.77 579.04 518 580.66 503.85 581.12 489.38 580.76 474.66 579.99 459.76 579.22 444.77 578.88 429.75 579.4 414.78 581.13 399.92 584.39 391.23 576.41 382.32 570.29 373.14 565.97 363.64 563.28 353.8 561.98 343.59 561.73 333.01 562.14 322.05 562.81 310.71 563.31 299.01 563.24 286.99 562.22 274.65 559.95 262.05 556.2 249.22 550.82 236.2 543.77 223.05 535.08 220.68 521.11 217.73 507.15 214.42 493.18 211 479.21 207.73 465.24 204.86 451.27 202.6 437.3 201.13 423.33 200.54 409.37 200.9 395.4 202.16 381.43 204.25 367.46 206.99 353.49 210.18 339.53 213.58 325.56 216.94 311.59 230.49 305.81 244.08 298.85 257.68 290.75 271.21 281.62 284.64 271.62 297.91 260.95 310.97 249.85 323.78 238.58 336.28 227.4 348.44 216.56 360.22 206.27 371.61 196.74 382.58 188.08 393.13 180.4 408.12 170.83 412.98 167.96" stroke-dasharray="10 10" transform="rotate(36.36, 400, 400)" opacity="0.39"></path><path d="M417.25 180.21Q430.47 187.95 443.45 196.5 456.13 205.78 468.47 215.65 480.42 225.94 491.96 236.47 503.05 247.03 513.67 257.39 523.8 267.35 533.46 276.72 542.63 285.32 551.34 293.01 559.6 299.72 567.47 305.39 574.44 318.42 565.8 339.83 558.38 352.88 552.13 365.93 547.48 378.97 544.73 392.02 544.07 405.07 545.55 418.12 549.06 431.16 554.37 444.21 561.12 457.26 568.87 470.31 577.1 483.35 585.25 496.4 592.78 509.45 599.19 522.5 590.36 532.95 581.01 542.19 571.14 550.07 560.74 556.49 549.82 561.41 538.4 564.88 526.51 567.03 514.18 568.06 501.45 568.2 488.37 567.77 474.99 567.11 461.38 566.55 447.58 566.47 433.66 567.18 419.67 568.99 405.69 572.14 397.23 564.6 388.49 558.68 379.44 554.35 370.07 551.48 360.34 549.87 350.27 549.26 339.84 549.36 329.07 549.84 317.98 550.33 306.57 550.5 294.88 550.04 282.95 548.65 270.8 546.1 258.47 542.22 246.01 536.9 233.45 530.13 230.83 516.95 227.76 503.78 224.43 490.61 221.08 477.43 217.92 464.26 215.16 451.09 213 437.91 211.56 424.74 210.96 411.57 211.23 398.39 212.35 385.22 214.25 372.05 216.8 358.87 219.83 345.7 223.13 332.53 226.5 319.35 239.32 312.9 252.21 305.41 265.14 296.96 278.05 287.68 290.92 277.74 303.68 267.32 316.3 256.65 328.74 245.95 340.94 235.43 352.88 225.31 364.51 215.76 375.81 206.92 386.74 198.91 397.3 191.78 412.36 182.89 417.25 180.21" stroke-dasharray="9 4" transform="rotate(40.400000000000006, 400, 400)" opacity="0.43"></path><path d="M420.38 192.46Q432.22 199.73 443.78 207.74 455.03 216.41 465.93 225.64 476.46 235.29 486.61 245.21 496.34 255.22 505.67 265.14 514.59 274.79 523.1 284 531.23 292.61 538.99 300.49 546.41 307.53 553.52 313.66 559.89 327.16 552.15 347.74 545.64 360.03 540.27 372.33 536.35 384.62 534.12 396.91 533.69 409.2 535.11 421.49 538.29 433.79 543.03 446.08 549.07 458.37 556.04 470.66 563.54 482.96 571.12 495.25 578.34 507.54 584.78 519.83 576.87 528.5 568.55 535.99 559.78 542.22 550.57 547.16 540.91 550.83 530.81 553.31 520.28 554.75 509.33 555.32 498.01 555.26 486.33 554.83 474.33 554.3 462.06 553.97 449.55 554.11 436.85 554.99 424.01 556.86 411.08 559.9 402.72 552.8 394.07 547.11 385.11 542.8 375.82 539.78 366.21 537.9 356.27 536.96 346.03 536.74 335.49 536.97 324.67 537.36 313.6 537.64 302.31 537.54 290.82 536.8 279.17 535.2 267.39 532.57 255.51 528.77 243.58 523.73 240.79 511.37 237.65 499.02 234.35 486.67 231.09 474.31 228.06 461.96 225.44 449.61 223.38 437.25 222 424.9 221.38 412.55 221.57 400.19 222.54 387.84 224.24 375.49 226.58 363.14 229.4 350.78 232.56 338.43 235.86 326.08 247.92 319.07 260.07 311.19 272.28 302.54 284.52 293.27 296.76 283.52 308.95 273.48 321.05 263.33 333.03 253.27 344.85 243.46 356.48 234.08 367.87 225.26 379 217.13 389.84 209.75 400.36 203.18 415.46 194.94 420.38 192.46" stroke-dasharray="4 5" transform="rotate(44.44, 400, 400)" opacity="0.47"></path><path d="M422.14 204.7Q432.59 211.5 442.75 218.97 452.61 227.03 462.14 235.62 471.33 244.61 480.19 253.89 488.7 263.31 496.86 272.72 504.7 281.98 512.21 290.93 519.42 299.44 526.36 307.37 533.05 314.63 539.52 321.14 545.48 335.03 538.73 354.73 533.11 366.24 528.56 377.75 525.32 389.26 523.54 400.77 523.32 412.28 524.68 423.79 527.53 435.3 531.75 446.81 537.1 458.33 543.32 469.84 550.08 481.35 557.05 492.86 563.86 504.37 570.16 515.88 563.07 522.82 555.66 528.67 547.89 533.42 539.75 537.07 531.24 539.68 522.36 541.37 513.1 542.25 503.47 542.51 493.49 542.34 483.18 541.95 472.55 541.58 461.63 541.46 450.46 541.81 439.06 542.84 427.47 544.74 415.72 547.65 407.42 541 398.82 535.56 389.92 531.31 380.73 528.19 371.26 526.08 361.5 524.84 351.49 524.3 341.24 524.25 330.76 524.47 320.09 524.74 309.24 524.83 298.25 524.53 287.15 523.64 275.96 522 264.72 519.45 253.45 515.91 250.54 504.4 247.4 492.88 244.18 481.37 241.05 469.86 238.18 458.35 235.7 446.84 233.76 435.32 232.44 423.81 231.81 412.3 231.91 400.79 232.73 389.28 234.23 377.77 236.33 366.26 238.93 354.74 241.89 343.23 245.06 331.72 256.32 324.31 267.69 316.21 279.14 307.53 290.65 298.42 302.19 289.01 313.73 279.46 325.24 269.92 336.68 260.55 348.03 251.49 359.24 242.87 370.29 234.8 381.15 227.36 391.79 220.62 402.18 214.6 417.22 207 422.14 204.7" stroke-dasharray="7 1" transform="rotate(48.48, 400, 400)" opacity="0.51"></path><path d="M422.42 216.95Q431.52 223.27 440.34 230.19 448.89 237.64 457.15 245.57 465.13 253.89 472.82 262.5 480.24 271.29 487.38 280.14 494.27 288.93 500.92 297.53 507.35 305.82 513.59 313.69 525.52 327.46 537.15 339.25 531.08 349.95 525.55 360.66 520.78 371.36 517 382.07 514.37 392.78 513 403.48 512.96 414.19 514.24 424.89 516.8 435.6 520.51 446.31 525.22 457.01 530.71 467.72 536.75 478.43 543.06 489.13 549.2 507.86 542.43 520.26 528.23 525.89 513.12 529.12 496.47 529.53 478.89 529.16 469.58 528.96 460 529.05 450.16 529.58 440.09 530.73 429.8 532.63 419.32 535.4 411.05 529.21 402.52 524.04 393.72 519.89 384.68 516.71 375.4 514.42 365.89 512.92 356.18 512.07 346.28 511.73 336.22 511.72 326.01 511.88 315.68 512.02 305.25 511.97 294.75 511.56 284.2 510.64 273.64 509.08 263.07 506.76 260.11 496.11 257.02 485.45 253.92 474.8 250.96 464.15 248.26 453.49 245.95 442.84 244.13 432.18 242.87 421.53 242.24 410.87 242.26 400.22 242.94 389.57 244.23 378.91 246.09 368.26 248.42 357.61 251.14 346.95 254.12 336.3 264.55 328.66 275.11 320.53 285.76 312 296.49 303.21 307.28 294.27 318.1 285.31 328.93 276.45 339.74 267.83 350.51 259.55 361.21 251.7 371.81 244.38 382.28 237.63 392.6 231.5 402.75 226.02 417.56 219.06 422.42 216.95" stroke-dasharray="6 10" transform="rotate(52.52, 400, 400)" opacity="0.54"></path><path d="M421.21 229.2Q429.03 235.04 436.62 241.41 443.98 248.25 451.1 255.53 458 263.16 464.67 271.08 471.13 279.21 477.4 287.44 483.47 295.68 489.38 303.83 495.15 311.79 500.78 319.47 511.74 333.36 522.56 345.7 517.32 355.59 512.63 365.47 508.67 375.35 505.59 385.23 503.5 395.11 502.49 404.99 502.59 414.87 503.8 424.75 506.08 434.63 509.32 444.51 513.43 454.4 518.23 464.28 523.55 474.16 529.19 484.04 528.88 507.01 516.54 514.92 503.08 516.44 488.86 516.81 473.37 516.54 457.12 516.72 448.57 517.41 439.8 518.65 430.81 520.53 421.63 523.16 413.44 517.42 405.03 512.54 396.41 508.52 387.59 505.33 378.59 502.91 369.41 501.18 360.09 500.06 350.62 499.43 341.05 499.16 331.38 499.14 321.63 499.22 311.82 499.26 301.98 499.12 292.13 498.69 275.89 492.26 266.52 476.89 263.59 467.1 260.82 457.31 258.32 447.53 256.18 437.74 254.49 427.96 253.31 418.17 252.68 408.38 252.63 398.6 253.16 388.81 254.24 379.02 255.84 369.23 257.9 359.45 260.34 349.66 263.07 339.87 272.66 332.23 282.37 324.26 292.18 316.06 302.09 307.73 312.07 299.37 322.11 291.09 332.18 282.99 342.28 275.15 352.38 267.66 362.45 260.59 372.49 254 382.45 247.93 392.33 242.42 402.09 237.46 416.47 231.13 421.21 229.2" stroke-dasharray="4 6" transform="rotate(56.56, 400, 400)" opacity="0.58"></path><path d="M418.57 241.45Q431.73 252.63 444.16 265.48 455.92 279.64 467.08 294.64 477.75 309.89 488.07 324.77 498.18 338.67 508.27 351.06 499.97 369.13 494.32 387.21 492.02 405.29 493.37 423.36 498.18 441.44 505.87 459.52 515.45 477.59 525.73 495.67 515.33 500.46 504.36 503.05 492.71 504 480.29 504 467.07 503.88 453.01 504.47 438.14 506.59 422.49 510.9 406.28 501.06 389.44 494.05 372.07 489.64 354.28 487.38 336.22 486.6 318 486.52 299.75 486.32 281.6 485.2 275.93 467.37 270.64 449.55 266.4 431.72 263.75 413.89 263.01 396.06 264.27 378.24 267.39 360.41 271.96 342.58 289.53 327.51 307.51 312.07 325.84 296.87 344.41 282.53 363.1 269.55 381.78 258.29 400.32 248.92 418.57 241.45 418.57 241.45 418.57 241.45" stroke-dasharray="10 8" transform="rotate(60.599999999999994, 400, 400)" opacity="0.62"></path><path d="M414.7 253.7Q425.9 263.85 436.57 275.43 446.79 288.18 456.63 301.76 466.19 315.73 475.57 329.63 484.91 342.97 494.33 355.31 487.6 371.69 483.2 388.06 481.59 404.43 482.93 420.8 487.09 437.17 493.64 453.54 501.88 469.92 510.97 486.29 501.65 489.32 491.94 490.84 481.77 491.3 471.05 491.29 459.73 491.43 447.76 492.33 435.13 494.58 421.85 498.65 406.27 489.61 390.25 482.88 373.9 478.32 357.31 475.62 340.59 474.34 323.82 473.92 307.12 473.77 290.56 473.27 285.25 457.18 280.43 441.09 276.61 425.01 274.18 408.92 273.4 392.83 274.34 376.74 276.91 360.65 280.84 344.56 296.64 330.43 312.84 316.31 329.4 302.69 346.24 290 363.29 278.59 380.45 268.68 397.62 260.39 414.7 253.7 414.7 253.7 414.7 253.7" stroke-dasharray="11 4" transform="rotate(64.64, 400, 400)" opacity="0.66"></path><path d="M409.84 265.94Q419.37 275.06 428.57 285.38 437.5 296.72 446.23 308.84 454.83 321.43 463.4 334.15 472.02 346.65 480.79 358.56 475.51 373.22 472.21 387.88 471.18 402.53 472.49 417.19 476.04 431.85 481.53 446.51 488.25 469.37 479.42 478.38 470.54 478.61 461.29 478.71 451.63 479.12 441.5 480.28 430.88 482.6 419.75 486.41 405.06 478.19 390.12 471.81 375.01 467.2 359.79 464.16 344.55 462.41 329.35 461.57 314.26 461.23 299.35 460.95 294.5 446.58 290.2 432.22 286.81 417.85 284.62 403.49 283.81 389.13 284.45 374.76 286.48 360.4 289.74 346.04 303.77 333.16 318.16 320.59 332.88 308.64 347.91 297.61 363.18 287.72 378.64 279.12 402.03 268.91 409.84 265.94" stroke-dasharray="8 3" transform="rotate(68.68, 400, 400)" opacity="0.70"></path><path d="M404.33 278.19Q412.48 286.28 420.45 295.35 428.29 305.28 436.06 315.9 443.83 327.03 451.64 338.41 459.56 349.8 467.66 360.95 463.7 373.89 461.36 386.83 460.8 399.78 462.06 412.72 465.05 425.66 469.57 438.61 467.02 462.26 451.19 466.3 442.97 466.97 434.43 468.33 425.56 470.66 416.32 474.16 402.81 466.79 389.19 460.85 375.5 456.3 361.82 453.04 348.18 450.87 334.64 449.59 321.24 448.91 308.02 448.54 303.72 435.88 299.96 423.21 297.01 410.55 295.06 397.89 294.24 385.23 294.6 372.57 296.13 359.91 298.72 347.25 310.97 335.89 323.54 324.99 336.41 314.75 349.57 305.36 362.97 296.96 376.6 289.62 397.36 280.78 404.33 278.19" stroke-dasharray="8 7" transform="rotate(72.72, 400, 400)" opacity="0.73"></path><path d="M398.52 290.44Q405.53 297.5 412.47 305.33 419.38 313.87 426.31 323 433.29 332.6 440.37 342.52 447.59 352.6 454.98 362.65 452.17 373.89 450.63 385.13 450.45 396.37 451.62 407.61 454.09 418.85 457.74 430.09 454.76 450.39 440.93 454.08 426.68 456.86 411.81 461.92 399.72 455.4 387.62 449.97 375.54 445.6 363.51 442.24 351.58 439.78 339.77 438.08 328.11 437 316.61 436.35 312.9 425.36 309.71 414.37 307.2 403.39 305.49 392.4 304.69 381.41 304.82 370.42 305.88 359.44 307.81 348.45 318.31 338.79 329.07 329.63 340.09 321.11 351.35 313.31 362.85 306.33 374.56 300.18 392.49 292.67 398.52 290.44" stroke-dasharray="7 9" transform="rotate(76.76, 400, 400)" opacity="0.77"></path><path d="M392.82 302.68Q398.85 308.72 404.89 315.34 410.97 322.5 417.11 330.15 423.33 338.21 429.66 346.59 436.13 355.18 442.75 363.9 440.92 373.45 440.03 383.01 440.12 392.57 441.18 402.13 443.18 411.68 446.04 421.24 442.69 438.56 430.69 442.09 418.76 445.01 406.51 449.67 396.05 444.03 385.63 439.19 375.28 435.11 365.02 431.79 354.86 429.16 344.82 427.15 328.51 420.51 319.47 405.98 317.39 396.64 315.93 387.29 315.16 377.95 315.09 368.6 315.74 359.26 317.07 349.91 325.86 342.03 334.85 334.62 344.04 327.75 353.42 321.48 363 315.82 372.77 310.81 387.77 304.56 392.82 302.68" stroke-dasharray="1 11" transform="rotate(80.80000000000001, 400, 400)" opacity="0.81"></path><path d="M387.59 314.94Q397.97 325.38 408.6 337.4 419.56 350.71 430.99 364.93 429.54 380.73 430.75 396.53 434.47 412.32 440.34 428.11 430.46 428.89 420.65 430.36 410.79 433.05 400.77 437.41 383.47 428.49 366.49 421.68 349.89 416.87 333.73 413.75 329.23 398.28 326.37 382.82 325.44 367.35 326.55 351.88 340.94 340.04 355.92 329.88 371.47 321.51 387.59 314.94 387.59 314.94 387.59 314.94" stroke-dasharray="8 2" transform="rotate(84.84, 400, 400)" opacity="0.85"></path><path d="M383.19 327.19Q391.91 335.45 400.86 344.77 410.1 355.03 419.67 366.03 419.16 378.57 420.31 391.1 421.03 410.43 410.98 418.91 402.98 421.49 394.98 425.17 381.39 417.87 368.07 411.92 355.05 407.27 342.36 403.81 339.02 391.51 336.81 379.2 335.88 366.9 336.29 354.59 347.44 345.99 358.97 338.54 377.04 329.74 383.19 327.19" stroke-dasharray="1 1" transform="rotate(88.88, 400, 400)" opacity="0.89"></path><path d="M379.92 339.43Q386.86 345.56 393.98 352.31 401.29 359.63 408.8 367.46 408.88 376.79 409.87 386.12 402.77 405.38 389.53 412.92 379.63 407.34 369.92 402.51 354.62 392.12 347.24 376.63 350.4 359.98 362.68 347.49 375.55 341.28 379.92 339.43" stroke-dasharray="10 10" transform="rotate(92.92, 400, 400)" opacity="0.92"></path><path d="M377.99 351.68Q387.98 360.03 398.34 369.48 396.37 389.37 384.77 400.67 372.2 393.42 360.02 387.47 357.68 375.23 356.69 363 372.57 354.21 377.99 351.68" stroke-dasharray="8 4" transform="rotate(96.96, 400, 400)" opacity="0.96"></path></g></svg>