<svg xmlns="http://www.w3.org/2000/svg" version="1.1" xmlns:xlink="http://www.w3.org/1999/xlink" xmlns:svgjs="http://svgjs.dev/svgjs" viewBox="0 0 800 800"><defs><linearGradient x1="50%" y1="0%" x2="50%" y2="100%" id="ccchaos-grad"><stop stop-color="hsl(173.4, 100%, 42%)" stop-opacity="1" offset="0%"></stop><stop stop-color="hsl(173.4, 10%, 42%)" stop-opacity="1" offset="100%"></stop></linearGradient></defs><g stroke-width="2" stroke="url(#ccchaos-grad)" fill="none" stroke-linecap="round"><path d="M404.98 107.11C410.56 93.82 430.89 94.6 439.53 108.48Q441.48 117.26 441 126.16 438.57 135.17 434.91 144.31 430.9 153.55 427.48 162.91 425.51 172.38 425.74 181.95 428.66 191.62 434.45 201.38 442.99 211.22 453.83 221.14 466.24 231.12 479.31 241.16 492.03 251.23 503.43 261.34 512.64 271.47 519.06 281.61 522.4 291.73 522.68 301.84 520.32 311.91 516.01 321.93 510.7 331.89 505.45 341.77 501.34 351.56 499.35 361.25 500.21 370.82 504.33 380.27 511.79 389.57 522.25 398.73 535.05 407.73 549.23 416.57 563.67 425.23 577.2 433.71 588.75 442.01 597.44 450.13 602.73 465.69 598.34 480.69 592.15 487.87 585.33 494.87 576.13 508.31 575.06 521.29 580.8 527.55 590.23 533.69 602.8 539.74 617.59 545.71 633.42 551.61 648.98 557.46 662.96 563.29 674.23 569.1 683.65 580.81 681.53 592.66 675.02 598.73 667.03 604.9 653.39 617.73 647.13 631.04C653.43 641.16 656.31 657.52 643.22 663.37Q627.09 673.08 610.95 684.53 594.82 696.45 578.69 707.51 562.55 716.49 546.42 722.4 530.28 724.57 514.15 722.77 498.02 717.19 481.88 708.46 465.75 697.54 449.61 685.65 433.48 674.1 417.35 664.17 401.21 656.97 385.08 653.3 368.94 653.55 352.81 657.71 336.68 665.31 320.54 675.51 304.41 687.18 288.28 699.02 272.14 709.72 256.01 718.1 239.87 723.22 223.74 724.51 207.61 721.84 191.47 715.5 175.34 706.19 159.21 694.95 143.07 683.02 126.94 671.72C113.85 663.89 103.25 645.91 108.84 636.78Q119.76 624.61 132.58 612.76 146.08 601.23 158.17 589.76 165.76 578.2 170.38 566.48 172.16 554.31 174.31 541.77 180.56 528.49 190.51 514.7 197.56 507.49 205.43 500.09 213.74 492.5 222.01 484.71 229.77 476.73 236.57 468.55 242.09 460.17 246.12 451.61 248.64 442.86 249.77 433.94 249.84 424.84 249.28 415.59 248.63 406.18 248.43 396.64 249.23 386.96 251.42 377.17 255.3 367.28 260.93 357.3 268.21 347.24 276.83 337.12 286.3 326.95 296.05 316.75 305.44 306.54 313.85 296.32 320.77 286.11 325.85 275.92 328.94 265.77 330.11 255.66 329.65 245.62 328.07 235.65 326 225.75 324.15 215.95 323.21 206.25 323.8 196.64 326.37 187.15 331.15 177.78 338.12 168.52 347.01 159.38 357.32 150.37 368.38 141.48 379.42 132.71 389.65 124.06 401.66 111.32 404.98 107.11" stroke-dasharray="11 10" transform="rotate(0, 400, 400)" opacity="0.05"></path><path d="M402.41 117.39C412.65 104.63 432.28 105.41 435.38 118.74Q434.47 127.19 431.91 135.74 428.37 144.4 424.63 153.18 421.53 162.06 419.81 171.05 420.11 180.14 422.87 189.33 428.26 198.62 436.18 207.99 446.26 217.45 457.9 226.98 470.31 236.57 482.62 246.23 493.95 255.93 503.52 265.66 510.7 275.42 515.12 285.2 516.7 294.98 515.65 304.74 512.46 314.49 507.87 324.2 502.76 333.87 498.09 343.47 494.78 353 493.64 362.45 495.25 371.8 499.88 381.05 507.54 390.17 517.87 399.17 530.26 408.04 543.84 416.75 557.62 425.32 570.58 433.72 581.75 441.95 590.36 450.02 596.56 465.54 593.66 480.52 588.19 487.7 581.8 494.72 571.69 508.16 568.02 521.13 571.61 527.36 578.71 533.46 589.01 539.45 601.91 545.33 616.5 551.12 631.68 556.83 646.28 562.47 659.19 568.07 674.48 579.2 679.09 590.35 668.58 601.69 654.01 613.26 647.29 619.23 642.75 625.31C641.83 634.33 636.34 651.21 623.94 658.19Q608.65 668.55 593.36 679.84 578.07 690.9 562.78 700.6 547.49 707.95 532.19 712.18 516.9 712.87 501.61 709.94 486.32 703.7 471.03 694.78 455.74 684.11 440.45 672.77 425.16 661.93 409.87 652.7 394.58 646.03 379.29 642.6 364 642.77 348.71 646.52 333.41 653.46 318.12 662.88 302.83 673.81 287.54 685.14 272.25 695.7 256.96 704.4 241.67 710.36 226.38 712.96 211.09 711.93 195.8 707.39 180.5 699.79 165.21 689.91 149.92 678.78 134.63 667.53C122.23 659.11 113.63 640.9 120.44 632.64Q132.58 621.47 145.84 610.44 158.24 599.49 168.53 588.46 174.1 577.15 177.14 565.58 178.58 553.43 181.12 540.86 188.32 527.5 199.09 513.63 206.32 506.38 214.2 498.95 222.33 491.33 230.28 483.53 237.62 475.55 243.98 467.39 249.06 459.05 252.73 450.54 254.96 441.87 255.91 433.04 255.86 424.07 255.22 414.96 254.48 405.72 254.14 396.36 254.68 386.9 256.5 377.34 259.86 367.7 264.89 357.99 271.51 348.22 279.51 338.41 288.48 328.57 297.92 318.72 307.27 308.86 315.96 299 323.48 289.17 329.41 279.36 333.52 269.6 335.76 259.9 336.26 250.25 335.37 240.68 333.56 231.19 331.46 221.79 329.68 212.49 328.87 203.28 329.56 194.18 332.13 185.19 336.78 176.32 343.5 167.56 352.03 158.91 361.93 150.38 372.62 141.97 383.4 133.67 397.98 121.44 402.41 117.39" stroke-dasharray="7 7" transform="rotate(4.04, 400, 400)" opacity="0.09"></path><path d="M396.54 127.69C410.37 115.44 429.09 116.21 427.68 129.02Q421.54 145.33 415.4 162.05 414.6 179.19 422.61 196.71 439.61 214.6 462.34 232.8 485.22 251.27 502.43 269.94 510.16 288.73 508.1 307.57 499.7 326.37 490.95 345.03 488.16 363.47 495.54 381.6 513.5 399.34 538.44 416.61 563.95 433.35 583.23 449.49 591.7 465.01 588.77 479.88 578.21 494.08 566.81 507.62 561.87 520.54 568.4 532.87 587.14 544.68 614.19 556.05 642.36 567.06 663.87 577.82 673.29 588.45 669.68 599.06 657.06 609.79 642.99 620.77C636.68 628.89 623.18 646.03 611.33 653.7Q596.71 664.2 582.1 674.93 567.49 684.86 552.87 693.05 538.26 698.73 523.65 701.37 509.03 700.71 494.42 696.81 479.81 690.05 465.19 681.06 450.58 670.7 435.97 659.94 421.35 649.8 406.74 641.25 392.13 635.09 377.51 631.9 362.9 631.99 348.29 635.35 333.67 641.66 319.06 650.32 304.45 660.52 289.83 671.28 275.22 681.6 260.6 690.48 245.99 697.1 231.38 700.83 216.76 701.31 202.15 698.5 187.54 692.66 172.92 684.35 158.31 674.35 143.69 663.61C131.84 655.05 125.37 636.91 133.35 629.31Q146.11 618.85 159.12 608.4 170.27 597.82 178.03 587.02 182.06 575.86 183.55 564.25 184.76 552.12 188.24 539.39 195.86 526.02 207.94 511.97 223.07 497.24 238.55 481.82 251.35 465.75 259.31 449.05 262.04 431.79 261.19 414.02 259.9 395.84 261.65 377.31 268.96 358.53 282.25 339.6 299.69 320.61 317.7 301.64 332.31 282.78 340.69 264.12 342.29 245.71 339.18 227.63 335.34 209.92 335.2 192.62 341.97 175.74 356.31 159.29 375.96 143.28 396.54 127.69 396.54 127.69 396.54 127.69" stroke-dasharray="4 6" transform="rotate(8.08, 400, 400)" opacity="0.13"></path><path d="M388.52 137.97C404.24 126.25 421.91 127.01 417.75 139.28Q411.43 154.9 408.34 170.92 412.31 187.31 424.78 204.08 444.24 221.19 466.65 238.61 486.79 256.3 500.1 274.19 504.26 292.22 500.16 310.33 491.6 328.43 484.09 346.45 482.92 364.31 491.3 381.93 509.14 399.24 533.04 416.15 557.33 432.6 576.08 448.55 585.13 463.93 583.66 478.73 574.51 492.91 563.31 506.47 556.57 519.43 559.37 531.8 573.56 543.62 597.04 554.94 624.37 565.84 648.63 576.4 663.81 586.7 666.98 596.84 659.33 606.94 645.93 617.1C636.72 624.52 617.07 641.66 605.64 649.59Q591.55 659.79 577.45 669.61 563.35 678.19 549.26 684.79 535.16 688.84 521.06 689.98 506.97 688.12 492.87 683.41 478.78 676.27 464.68 667.32 450.58 657.33 436.49 647.18 422.39 637.74 408.29 629.84 394.2 624.17 380.1 621.21 366.01 621.23 351.91 624.23 337.81 629.94 323.72 637.86 309.62 647.31 295.52 657.47 281.43 667.45 267.33 676.38 253.23 683.5 239.14 688.16 225.04 689.99 210.94 688.8 196.85 684.71 182.75 678.08 168.65 669.47 154.56 659.65C143.13 651.37 138.59 633.58 147.34 626.43Q160.16 616.45 171.96 606.32 181.04 595.93 186.57 585.19 188.94 574.02 189.75 562.35 191.29 550.11 195.75 537.27 204.38 523.8 217.02 509.69 232.03 494.94 246.81 479.58 258.68 463.63 265.86 447.15 268.17 430.18 267.16 412.8 265.68 395.09 266.88 377.11 273.13 358.95 285.09 340.7 301.39 322.43 319.08 304.24 334.53 286.18 344.78 268.33 348.58 250.74 346.92 233.47 342.82 216.56 340.25 200.04 342.83 183.91 352.47 168.2 368.66 152.89 388.52 137.97 388.52 137.97 388.52 137.97" stroke-dasharray="3 10" transform="rotate(12.12, 400, 400)" opacity="0.16"></path><path d="M379.94 148.25C395.55 137.07 412.09 137.81 407.26 149.54Q403.04 164.48 404.24 179.77 412.97 195.43 428.91 211.44 449.43 227.77 470.31 244.4 487.07 261.29 496.47 278.4 497.54 295.65 491.96 313.01 483.67 330.4 477.54 347.75 477.92 364.99 487.15 382.06 504.78 398.87 527.62 415.37 550.71 431.49 568.88 447.17 578.42 462.37 578.32 477.05 570.65 491.18 559.99 504.73 552 517.72 551.59 530.13 561.38 542 580.72 553.36 605.88 564.24 631.17 574.72 650.71 584.85 660.35 594.72 659.05 604.41 649.26 614.01C639.85 620.92 616.89 637.76 605.78 645.56Q592.07 655.05 578.37 663.68 564.67 670.77 550.97 675.76 537.27 678.24 523.57 678.02 509.86 675.11 496.16 669.75 482.46 662.37 468.76 653.55 455.06 644 441.36 634.47 427.65 625.72 413.95 618.45 400.25 613.25 386.55 610.52 372.85 610.47 359.15 613.13 345.45 618.26 331.74 625.47 318.04 634.18 304.34 643.7 290.64 653.27 276.94 662.12 263.24 669.56 249.54 674.98 235.83 677.97 222.13 678.27 208.43 675.87 194.73 670.96 181.03 663.93 167.33 655.33C156.22 647.68 153.06 630.54 162.02 623.66Q174.02 613.93 183.96 603.93 190.73 593.58 194.19 582.8 195.32 571.53 195.93 559.74 198.16 547.37 203.71 534.42 213.29 520.88 226.34 506.75 241.06 492.04 255.05 476.79 265.96 461.04 272.38 444.84 274.28 428.24 273.13 411.31 271.49 394.12 272.18 376.74 277.43 359.25 288.04 341.71 303.09 324.2 320.19 306.8 336.14 289.55 347.98 272.52 354 255.76 354.3 239.31 350.86 223.21 346.97 207.46 346.18 192.09 351.17 177.11 362.84 162.5 379.94 148.25 379.94 148.25 379.94 148.25" stroke-dasharray="7 6" transform="rotate(16.16, 400, 400)" opacity="0.20"></path><path d="M372.43 158.55C386.11 147.87 401.52 148.61 397.99 159.81Q397.52 174.06 403.49 188.64 416.3 203.56 434.39 218.8 454.55 234.35 472.88 250.19 485.9 266.28 491.6 282.59 490.1 299.06 483.62 315.64 475.95 332.29 471.31 348.94 473.15 365.52 483.1 381.99 500.43 398.26 522.19 414.29 544.09 430.01 561.65 445.38 571.57 460.33 572.74 474.84 566.6 488.86 556.76 502.37 548.04 515.35 545.02 527.8 550.72 539.73 565.64 551.15 587.6 562.08 612.26 572.57 634.42 582.65 649.48 592.4 654.85 601.87 650.72 611.14C643.48 617.72 620.39 634 609.55 641.31Q596.18 649.77 582.8 657.02 569.43 662.54 556.06 665.93 542.69 666.95 529.32 665.52 515.95 661.75 502.58 655.9 489.2 648.4 475.83 639.81 462.46 630.73 449.09 621.84 435.72 613.77 422.35 607.11 408.98 602.35 395.6 599.83 382.23 599.73 368.86 602.06 355.49 606.66 342.12 613.18 328.75 621.16 315.38 630.01 302.01 639.09 288.63 647.75 275.26 655.36 261.89 661.35 248.52 665.3 235.15 666.93 221.78 666.1 208.41 662.89 195.04 657.53 181.67 650.4C170.82 643.67 168.28 627.4 176.76 620.64Q187.13 610.99 194.78 600.97 199.24 590.54 201 579.64 201.4 568.24 202.29 556.31 205.47 543.83 212.16 530.81 222.59 517.24 235.85 503.14 250.14 488.55 263.24 473.49 273.19 458 278.87 442.15 280.39 425.99 279.12 409.57 277.33 392.97 277.57 376.24 281.86 359.45 291.13 342.66 304.84 325.94 321.09 309.34 337.17 292.92 350.28 276.73 358.41 260.8 360.96 245.17 358.97 229.86 354.88 214.9 351.82 200.29 352.77 186.03 366 165.34 372.43 158.55" stroke-dasharray="9 5" transform="rotate(20.200000000000003, 400, 400)" opacity="0.24"></path><path d="M367.5 168.84C377.85 158.69 392.2 159.41 391.49 170.07Q395.62 183.62 405.97 197.49 421.68 211.67 440.4 226.15 458.93 240.92 473.99 255.97 483.18 271.25 485.59 286.75 482.12 302.42 475.27 318.22 468.53 334.11 465.42 350.02 468.62 365.92 479.14 381.74 496.07 397.43 516.76 412.93 537.48 428.2 554.39 443.18 564.6 457.82 566.93 472.09 562.3 485.94 553.52 499.34 544.56 512.28 539.56 524.74 541.65 536.71 552.16 548.19 570.18 559.2 592.78 569.75 615.71 579.88 634.59 589.62 645.98 599.02 648.41 608.13C645.02 614.54 624.72 630.01 614.15 636.55Q601.11 643.72 588.07 649.47 575.03 653.41 561.99 655.29 548.95 654.98 535.91 652.51 522.87 648.04 509.83 641.85 496.8 634.37 483.76 626.08 470.72 617.52 457.68 609.27 444.64 601.86 431.6 595.79 418.56 591.45 405.52 589.13 392.48 588.98 379.44 591.02 366.41 595.1 353.37 600.96 340.33 608.22 327.29 616.39 314.25 624.93 301.21 633.29 288.17 640.92 275.13 647.3 262.09 652.02 249.05 654.78 236.01 655.38 222.97 653.79 209.93 650.11 196.9 644.58C186.32 638.99 183.5 623.82 190.85 617.05Q199 607.33 204.21 597.2 206.63 586.63 207.21 575.58 207.44 564.04 209.01 551.99 213.34 539.44 221.14 526.39 232.24 512.86 245.51 498.88 259.22 484.47 271.38 469.68 280.36 454.55 285.32 439.12 286.48 423.46 285.11 407.62 283.2 391.65 283.02 375.61 286.42 359.56 294.39 343.56 306.67 327.64 321.87 311.87 337.72 296.29 351.69 280.93 361.68 265.84 366.58 251.02 366.62 236.52 363.35 222.33 359.29 208.48 357.24 194.94 363.53 175.29 367.5 168.84" stroke-dasharray="10 1" transform="rotate(24.24, 400, 400)" opacity="0.28"></path><path d="M366.15 179.14C372.49 169.5 385.94 170.2 388.83 180.33Q397.46 193.2 411.17 206.35 428.26 219.79 446.15 233.51 462 247.5 473.39 261.74 478.92 276.22 478.57 290.91 473.76 305.77 467.04 320.77 461.46 335.87 459.9 351.03 464.31 366.2 475.26 381.34 491.72 396.4 511.33 411.32 530.88 426.07 547.11 440.6 557.49 454.87 560.86 468.82 557.72 482.43 550.17 495.67 541.42 508.5 535.05 520.91 534.13 532.88 540.48 544.4 554.2 555.48 573.59 566.12 595.56 576.33 616.33 586.13 632.32 595.57 641.05 604.66C642.33 611.02 626.93 625.5 616.68 631.03Q604.03 636.76 591.39 640.95 578.74 643.37 566.1 643.86 553.45 642.39 540.81 639.06 528.16 634.05 515.52 627.68 502.87 620.32 490.23 612.4 477.58 604.39 464.94 596.79 452.29 590.02 439.65 584.51 427 580.57 414.36 578.44 401.71 578.25 389.06 580.01 376.42 583.61 363.77 588.84 351.13 595.39 338.48 602.87 325.84 610.84 313.19 618.81 300.55 626.32 287.9 632.92 275.25 638.21 262.61 641.88 249.96 643.72 237.32 643.62 224.67 641.57 212.03 637.7C201.78 633.39 197.94 619.44 203.67 612.59Q209.31 602.72 212.25 592.44 213.12 581.7 213.11 570.51 213.7 558.85 216.29 546.74 221.84 534.17 230.66 521.17 242.22 507.77 255.31 493.98 268.28 479.85 279.44 465.41 287.46 450.7 291.74 435.78 292.57 420.69 291.1 405.48 289.11 390.2 288.55 374.9 291.13 359.62 297.83 344.42 308.66 329.34 322.61 314.41 337.89 299.67 352.3 285.16 363.78 270.89 370.91 256.9 373.31 243.2 371.72 229.79 367.89 216.68 364.17 203.87 364.56 185.25 366.15 179.14" stroke-dasharray="8 9" transform="rotate(28.28, 400, 400)" opacity="0.32"></path><path d="M368.75 189.43C371.18 180.32 383.87 181 390.35 190.59Q402.57 202.76 418.14 215.2 435.02 227.9 450.81 240.86 463.3 254.07 470.95 267.52 473.22 281.19 470.75 295.05 465.22 309.1 459.04 323.28 454.8 337.58 454.73 351.96 460.21 366.38 471.44 380.8 487.37 395.18 505.89 409.48 524.28 423.66 539.8 437.67 550.26 451.49 554.53 465.06 552.82 478.35 546.62 491.34 538.46 504 531.33 516.29 528.07 528.2 530.73 539.72 540.1 550.83 555.55 561.53 575.09 571.83 595.81 581.74 614.48 591.26 628.27 600.43C634.09 606.81 624.61 620.13 614.76 624.53Q602.61 628.73 590.46 631.4 578.32 632.39 566.17 631.64 554.02 629.19 541.87 625.18 529.73 619.82 517.58 613.39 505.43 606.24 493.29 598.76 481.14 591.33 468.99 584.37 456.85 578.23 444.7 573.25 432.55 569.69 420.41 567.74 408.26 567.52 396.11 569.02 383.96 572.17 371.82 576.81 359.67 582.67 347.52 589.46 335.38 596.8 323.23 604.31 311.08 611.59 298.93 618.24 286.79 623.9 274.64 628.29 262.49 631.16 250.35 632.36 238.2 631.82 226.05 629.58C216.19 626.59 210.85 613.98 214.73 607.01Q217.94 596.97 219.06 586.52 219.02 575.65 219.06 564.35 220.47 552.65 224.28 540.54 231.05 528.04 240.69 515.18 252.48 501.99 265.19 488.49 277.31 474.72 287.43 460.71 294.5 446.52 298.13 432.17 298.65 417.71 297.11 403.19 295.05 388.64 294.17 374.11 295.99 359.64 301.48 345.27 310.84 331.03 323.41 316.95 337.81 303.07 352.21 289.4 364.73 275.97 373.81 262.79 378.64 249.88 379.29 237.24 376.75 224.88 372.77 212.8 369.09 195.2 368.75 189.43" stroke-dasharray="5 9" transform="rotate(32.32, 400, 400)" opacity="0.35"></path><path d="M374.97 199.73C374.26 191.14 386.34 191.8 395.67 200.85Q409.99 212.34 425.75 224.06 440.96 236.02 453.72 248.22 462.55 260.65 466.68 273.3 466.27 286.15 462.36 299.2 456.69 312.42 451.4 325.78 448.59 339.26 449.93 352.84 456.32 366.48 467.69 380.15 483.01 393.81 500.43 407.43 517.69 420.98 532.46 434.42 542.91 447.71 547.95 460.83 547.58 473.73 542.8 486.39 535.54 498.78 528.21 510.88 523.3 522.65 522.89 534.09 528.19 545.18 539.36 555.91 555.39 566.27 574.33 576.26 593.61 585.89 610.56 595.16C619.99 601.62 616.27 613.68 606.91 616.87Q595.38 619.56 583.86 620.79 572.33 620.5 560.8 618.69 549.28 615.45 537.75 610.95 526.22 605.39 514.7 599.04 503.17 592.19 491.64 585.19 480.12 578.36 468.59 572.02 457.07 566.49 445.54 562.01 434.01 558.81 422.49 557.05 410.96 556.79 399.43 558.06 387.91 560.79 376.38 564.86 364.85 570.07 353.33 576.17 341.8 582.87 330.28 589.86 318.75 596.79 307.22 603.34 295.7 609.2 284.17 614.08 272.65 617.76 261.12 620.06 249.59 620.86 238.07 620.14C228.71 618.45 221.73 607.22 223.81 600.12Q225.03 589.93 224.99 579.35 224.75 568.4 225.41 557.08 227.97 545.41 233.1 533.39 240.96 521.07 251.21 508.45 262.98 495.56 275.09 482.44 286.26 469.13 295.31 455.64 301.46 442.03 304.48 428.32 304.72 414.56 303.12 400.77 301.01 387 299.86 373.28 301 359.64 305.36 346.12 313.27 332.73 324.35 319.51 337.6 306.48 351.58 293.66 364.63 281.06 375.23 268.7 382.32 256.59 385.47 244.72 385.01 233.11 382.02 221.74 376.52 205.17 374.97 199.73" stroke-dasharray="8 1" transform="rotate(36.36, 400, 400)" opacity="0.39"></path><path d="M383.79 210.02C381.21 201.95 392.75 202.58 403.67 211.11Q418.35 221.9 432.72 232.91 445.17 244.13 454.4 255.58 459.62 267.23 460.73 279.08 458.33 291.12 453.66 303.35 448.35 315.73 444.21 328.26 442.86 340.92 445.49 353.68 452.62 366.51 464 379.4 478.64 392.31 494.97 405.21 511.09 418.08 525.11 430.88 535.44 443.59 541.12 456.17 541.97 468.6 538.63 480.85 532.49 492.89 525.45 504.7 519.58 516.25 516.82 527.53 518.58 538.52 525.54 549.19 537.47 559.55 553.29 569.59 571.24 579.29 589.14 588.67C600.76 595.21 601.64 605.97 592.89 607.95Q582.09 609.21 571.3 609.15 560.51 607.75 549.72 605.09 538.92 601.26 528.13 596.45 517.34 590.83 506.55 584.67 495.75 578.21 484.96 571.72 474.17 565.49 463.37 559.77 452.58 554.81 441.79 550.82 431 547.96 420.2 546.36 409.41 546.08 398.62 547.13 387.83 549.48 377.03 553.02 366.24 557.6 355.45 563.03 344.66 569.08 333.86 575.49 323.07 581.99 312.28 588.32 301.49 594.19 290.7 599.36 279.9 603.62 269.11 606.79 258.32 608.72 247.53 609.35C238.77 608.87 230.41 599 231.06 591.8Q230.99 581.52 230.58 570.89 230.8 559.95 232.53 548.71 236.44 537.17 242.83 525.36 251.57 513.3 262.14 501.03 273.63 488.56 284.99 475.92 295.11 463.14 303.09 450.26 308.35 437.3 310.79 424.29 310.78 411.27 309.15 398.27 307.01 385.31 305.63 372.43 306.17 359.64 309.49 346.97 315.98 334.46 325.52 322.1 337.42 309.93 350.59 297.95 363.65 286.18 375.25 274.63 384.2 263.31 389.79 252.2 391.83 241.33 390.79 230.68 385.72 215.13 383.79 210.02" stroke-dasharray="4 11" transform="rotate(40.400000000000006, 400, 400)" opacity="0.43"></path><path d="M393.73 220.32C390.72 212.78 401.79 213.38 412.81 221.36Q426.17 231.46 437.92 241.76 446.95 252.25 452.58 262.94 454.6 273.81 453.37 284.87 449.73 296.1 444.92 307.5 440.39 319.05 437.57 330.75 437.65 342.57 441.42 354.49 449.1 366.5 460.35 378.58 474.26 390.7 489.5 402.85 504.51 414.99 517.73 427.1 527.87 439.16 534.04 451.14 535.98 463.02 534.05 474.77 529.2 486.38 522.84 497.8 516.65 509.04 512.31 520.06 511.24 530.85 514.39 541.38 522.09 551.66 533.98 561.66 549.07 571.37 565.84 580.8C577.95 587.4 581.68 596.85 573.59 597.69Q563.62 597.67 553.64 596.49 543.67 594.2 533.69 590.89 523.72 586.67 513.75 581.71 503.77 576.18 493.8 570.3 483.82 564.28 473.85 558.34 463.87 552.71 453.9 547.6 443.92 543.19 433.95 539.65 423.98 537.11 414 535.66 404.03 535.36 394.05 536.22 384.08 538.21 374.1 541.26 364.13 545.24 354.15 550.02 344.18 555.41 334.2 561.21 324.23 567.22 314.25 573.2 304.28 578.93 294.3 584.21 284.33 588.83 274.36 592.62 264.38 595.45 254.41 597.21C246.31 597.79 237.17 589.24 236.95 582.01Q236.43 571.72 236.4 561.16 237.63 550.34 240.71 539.28 245.99 528 253.46 516.51 262.81 504.84 273.39 493.01 284.37 481.05 294.81 468.98 303.83 456.83 310.74 444.62 315.15 432.38 317.06 420.13 316.83 407.91 315.17 395.72 313.04 383.61 311.48 371.58 311.5 359.66 313.86 347.87 319.02 336.22 327.01 324.73 337.4 313.41 349.43 302.28 362.02 291.34 374.01 280.59 384.29 270.04 391.98 259.7 396.58 249.56 398.04 239.62 395.27 225.1 393.73 220.32" stroke-dasharray="1 1" transform="rotate(44.44, 400, 400)" opacity="0.47"></path><path d="M403.14 230.63C400.98 223.6 411.56 224.18 421.32 231.62Q432.07 241.04 440.46 250.62 445.93 260.38 448.29 270.31 447.76 280.41 444.95 290.68 440.8 301.1 436.41 311.68 432.96 322.4 431.54 333.25 432.95 344.22 437.68 355.3 445.75 366.48 456.75 377.73 469.88 389.03 484.02 400.38 497.93 411.75 510.34 423.13 520.19 434.48 526.72 445.79 529.6 457.05 528.99 468.23 525.5 479.3 520.14 490.26 514.19 501.07 509.02 511.73 505.92 522.21 505.95 532.5 509.73 542.59 517.43 552.45 528.69 562.09 542.68 571.48C553.75 578.09 558.36 586.29 550.96 586.11Q541.85 584.99 532.73 582.92 523.61 579.95 514.49 576.2 505.37 571.77 496.25 566.82 487.14 561.5 478.02 555.98 468.9 550.45 459.78 545.08 450.66 540.05 441.55 535.51 432.43 531.63 423.31 528.51 414.19 526.27 405.07 524.97 395.96 524.66 386.84 525.35 377.72 527.01 368.6 529.6 359.48 533.02 350.37 537.17 341.25 541.91 332.13 547.09 323.01 552.55 313.9 558.09 304.78 563.55 295.66 568.76 286.54 573.53 277.43 577.71 268.31 581.18 259.19 583.81C251.79 585.28 242.67 577.93 242.25 570.76Q242.12 560.59 243.09 550.22 245.68 539.65 250.19 528.9 256.68 517.99 264.96 506.94 274.57 495.77 284.87 484.49 295.11 473.13 304.51 461.72 312.39 450.27 318.26 438.8 321.88 427.34 323.3 415.9 322.87 404.5 321.21 393.17 319.1 381.92 317.41 370.76 316.98 359.72 318.5 348.81 322.42 338.04 328.88 327.41 337.68 316.95 348.31 306.65 359.99 296.53 371.8 286.58 382.76 276.81 392 267.23 398.84 257.82 402.92 248.58 403.68 235.08 403.14 230.63" stroke-dasharray="8 6" transform="rotate(48.48, 400, 400)" opacity="0.51"></path><path d="M410.39 240.93C410.01 234.42 420.05 234.97 427.54 241.87Q434.94 250.6 439.81 259.48 442.04 268.51 441.78 277.69 439.52 287.02 435.94 296.5 431.91 306.12 428.37 315.87 426.21 325.76 426.17 335.77 428.78 345.9 434.28 356.13 442.55 366.45 453.18 376.86 465.48 387.33 478.54 397.86 491.35 408.42 502.94 419.01 512.42 429.61 519.16 440.2 522.83 450.76 523.42 461.29 521.3 471.75 517.14 482.14 511.88 492.44 506.56 502.63 502.28 512.7 500.01 522.64 500.54 532.41 504.31 542.03 511.42 551.47 521.6 560.71C530.47 567.25 534.16 574.27 527.45 573.24Q510.92 568.51 494.38 561.1 477.84 551.83 461.31 541.74 444.77 531.93 428.24 523.51 411.7 517.4 395.16 514.27 378.63 514.49 362.09 518.02 345.55 524.47 329.02 533.13 312.48 543.03 295.94 553.08 279.41 562.17 262.87 569.28C256.16 571.41 247.88 565.16 247.88 558.14Q248.81 548.24 251.18 538.19 255.24 528 261.05 517.69 268.49 507.28 277.21 496.77 286.73 486.2 296.46 475.57 305.76 464.91 314.03 454.23 320.76 443.54 325.64 432.87 328.52 422.23 329.5 411.64 328.91 401.1 327.26 390.65 325.19 380.28 323.41 370.01 322.61 359.86 323.4 349.82 326.2 339.92 331.21 330.16 338.39 320.54 347.45 311.07 357.87 301.76 368.96 292.6 379.94 283.6 390.02 274.76 398.52 266.08 404.9 257.55 409.63 245.05 410.39 240.93" stroke-dasharray="10 7" transform="rotate(52.52, 400, 400)" opacity="0.54"></path><path d="M414.31 251.25C416.12 245.24 425.49 245.76 430.24 252.13Q435.9 268.35 433.56 285.08 426.8 302.34 421.04 320.1 421.5 338.33 431.18 356.99 449.64 376 473.05 395.3 495.53 414.8 511.39 434.41 517.31 454.03 513.67 473.55 504.53 492.87 496.19 511.88 494.84 530.48 504.16 548.57C510.19 554.95 511.7 560.89 505.65 559.22Q490.72 553.42 475.79 545.71 460.85 536.83 445.92 527.61 430.98 518.92 416.05 511.59 401.12 506.31 386.18 503.58 371.25 503.65 356.32 506.53 341.38 511.94 326.45 519.37 311.51 528.11 296.58 537.34 281.65 546.18 266.71 553.79C260.66 556.36 253.89 551.08 254.78 544.31Q261.05 525.22 273.28 505.8 290.02 486.15 308.01 466.38 323.31 446.59 332.85 426.9 335.65 407.41 333.3 388.19 329.47 369.34 328.57 350.92 334.05 332.97 347.06 315.55 365.87 298.66 386.44 282.33 403.87 266.53 414.31 251.25 414.31 251.25 414.31 251.25" stroke-dasharray="7 9" transform="rotate(56.56, 400, 400)" opacity="0.58"></path><path d="M414.26 261.56C418.13 256.07 426.76 256.56 428.84 262.38Q429.14 277.21 424.3 292.48 418.03 308.21 414.61 324.36 417.54 340.93 428.37 357.88 446.12 375.17 467.54 392.75 488.1 410.55 503.4 428.51 510.64 446.55 509.51 464.6 502.46 482.57 493.87 500.37 488.78 517.94 491.22 535.17C494.36 541.29 493.16 546.3 487.7 544.18Q474.22 537.79 460.75 530.15 447.27 521.88 433.8 513.63 420.32 506.06 406.84 499.76 393.37 495.26 379.89 492.89 366.42 492.85 352.94 495.15 339.46 499.59 325.99 505.84 312.51 513.38 299.04 521.62 285.56 529.9 272.08 537.57C266.62 540.36 261.75 535.87 263.77 529.47Q272.91 511.52 286.72 493.41 303.21 475.21 319.41 457.02 332.33 438.91 339.92 420.97 341.77 403.25 339.36 385.84 335.61 368.77 334 352.1 337.44 335.87 347.32 320.08 362.97 304.76 381.81 289.91 400.13 275.51 414.26 261.56 414.26 261.56 414.26 261.56" stroke-dasharray="7 1" transform="rotate(60.599999999999994, 400, 400)" opacity="0.62"></path><path d="M410.37 271.87C415.73 266.89 423.53 267.34 423.49 272.63Q420.29 286.08 414.77 299.9 410.07 314.1 409.22 328.66 414.29 343.59 425.81 358.84 442.6 374.41 462.03 390.25 480.67 406.32 495.22 422.57 503.4 438.95 504.56 455.4 499.94 471.87 492.36 488.29 485.5 504.59 482.96 520.72C483.62 526.47 479.86 530.68 474.92 528.33Q462.74 521.78 450.56 514.52 438.39 507.04 426.21 499.81 414.03 493.33 401.85 488.02 389.68 484.22 377.5 482.19 365.32 482.06 353.14 483.84 340.96 487.41 328.79 492.54 316.61 498.89 304.43 506.04 292.25 513.52 280.07 520.84C275.13 523.65 272.23 519.82 275.31 513.88Q286.67 497.32 301.08 480.71 316.49 464.13 330.51 447.64 341.03 431.29 346.81 415.14 347.85 399.24 345.43 383.63 341.81 368.34 339.68 353.41 341.4 338.85 348.38 324.68 360.64 310.9 376.81 297.51 394.37 284.51 410.37 271.87 410.37 271.87 410.37 271.87" stroke-dasharray="7 10" transform="rotate(64.64, 400, 400)" opacity="0.66"></path><path d="M403.44 282.19C409.45 277.72 416.37 278.14 415.04 282.9Q410.43 294.96 405.76 307.34 403.31 320.03 404.96 333.02 411.7 346.31 423.48 359.89 439.09 373.74 456.51 387.84 473.23 402.15 486.86 416.66 495.6 431.31 498.69 446.08 496.59 460.92 490.9 475.79 484.04 490.65 478.74 505.44C477.7 510.74 472.05 514.28 467.58 511.88Q456.57 505.56 445.55 498.94 434.54 492.37 423.53 486.21 412.51 480.78 401.5 476.37 390.48 473.22 379.47 471.5 368.46 471.3 357.44 472.63 346.43 475.42 335.41 479.52 324.4 484.71 313.38 490.71 302.37 497.21 291.35 503.85C286.89 506.51 285.66 503.22 289.52 497.82Q302.03 482.83 315.97 467.9 329.6 453.05 341.18 438.35 349.38 423.82 353.54 409.49 353.89 395.41 351.5 381.59 348.08 368.07 345.61 354.84 345.94 341.94 350.36 329.35 359.28 317.09 372.15 305.15 387.55 293.52 403.44 282.19 403.44 282.19 403.44 282.19" stroke-dasharray="6 7" transform="rotate(68.68, 400, 400)" opacity="0.70"></path><path d="M394.84 292.51C400.63 288.55 406.63 288.92 404.93 293.15Q400.77 303.84 398.01 314.79 398.06 325.98 401.86 337.42 409.75 349.11 421.33 361.03 435.58 373.18 450.98 385.54 465.79 398.1 478.33 410.84 487.25 423.73 491.84 436.76 492.09 449.89 488.77 463.09 483.25 476.34 477.34 489.61C475.48 494.39 468.95 497.36 464.93 495.08Q454.99 489.3 445.05 483.5 435.11 477.93 425.18 472.81 415.24 468.37 405.3 464.8 395.37 462.24 385.43 460.8 375.49 460.55 365.55 461.5 355.62 463.6 345.68 466.76 335.74 470.86 325.8 475.72 315.86 481.13 305.93 486.87C301.9 489.23 301.79 486.39 306 481.58Q318.4 468.33 330.92 455.17 342.26 442.14 351.32 429.27 357.34 416.58 360.09 404.08 359.89 391.81 357.58 379.76 354.4 367.96 351.77 356.41 351.06 345.12 353.34 334.09 359.17 323.32 368.55 312.81 387.83 297.53 394.84 292.51" stroke-dasharray="9 4" transform="rotate(72.72, 400, 400)" opacity="0.73"></path><path d="M386.22 302.84C391.05 299.38 396.18 299.72 394.85 303.41Q392.46 312.74 392.11 322.26 394.48 331.98 399.91 341.89 408.35 351.99 419.33 362.28 432.05 372.76 445.45 383.41 458.36 394.23 469.65 405.2 478.4 416.32 483.99 427.57 486.22 438.93 485.33 450.38 481.97 461.92 477.13 473.51C475.26 477.69 468.88 480.23 465.27 478.19Q456.39 473.18 447.51 468.32 438.62 463.77 429.74 459.66 420.86 456.14 411.97 453.32 403.09 451.29 394.21 450.12 385.32 449.84 376.44 450.46 367.56 451.96 358.67 454.3 349.79 457.4 340.9 461.16 332.02 465.45 323.14 470.14C319.53 472.13 319.94 469.62 323.96 465.47Q335.07 454.04 345.42 442.73 354.2 431.56 360.8 420.53 364.9 409.67 366.47 398.98 365.85 388.48 363.67 378.17 360.78 368.05 358.14 358.14 356.73 348.43 357.34 338.92 360.55 329.61 366.59 320.5 380.77 307.21 386.22 302.84" stroke-dasharray="3 9" transform="rotate(76.76, 400, 400)" opacity="0.77"></path><path d="M379.28 313.17C382.72 310.22 387.03 310.51 386.54 313.67Q388.46 329.75 399.03 346.42 417.46 363.66 439.9 381.46 460.85 399.8 475.16 418.62 480.07 437.85 476.35 457.43C475.04 460.98 469.66 463.15 466.5 461.45Q450.9 453.48 435.31 446.76 419.71 441.92 404.12 439.42 388.52 439.49 372.92 442.13 357.33 447.09 341.73 453.9C338.57 455.45 338.92 453.24 342.32 449.76Q359 430.75 369.57 412.22 372.67 394.24 369.76 376.83 364.7 360.03 362.34 343.82 366.68 328.22 379.28 313.17 379.28 313.17 379.28 313.17" stroke-dasharray="11 10" transform="rotate(80.80000000000001, 400, 400)" opacity="0.81"></path><path d="M375.38 323.5C377.36 321.05 380.91 321.3 381.36 323.92Q387.22 337.27 399.08 351.01 415.65 365.17 434.35 379.74 451.94 394.69 465.38 410.02 472.68 425.69 473.43 441.67C472.94 444.57 469.02 446.4 466.33 445.08Q453.05 439.07 439.78 434.13 426.5 430.61 413.23 428.72 399.95 428.6 386.67 430.25 373.4 433.57 360.12 438.33C357.43 439.45 357.33 437.52 359.82 434.72Q371.22 419.38 377.57 404.43 378.69 389.89 375.85 375.78 371.42 362.08 368.28 348.82 372.21 329.73 375.38 323.5" stroke-dasharray="7 7" transform="rotate(84.84, 400, 400)" opacity="0.85"></path><path d="M375.35 333.85C376.13 331.89 378.94 332.09 380.13 334.19Q388.31 344.81 399.91 355.7 413.89 366.85 428.79 378.26 442.94 389.94 454.76 401.88 463.04 414.06 467.16 426.47C467.46 428.74 465.06 430.26 462.89 429.33Q452.11 425.16 441.32 421.79 430.54 419.38 419.76 418.03 408.98 417.8 398.19 418.69 387.41 420.66 376.63 423.64C374.45 424.36 373.79 422.72 375.31 420.56Q381.79 408.76 384.78 397.24 384.56 386 381.97 375.03 378.29 364.34 375.03 353.91 374.5 338.8 375.35 333.85" stroke-dasharray="0 2" transform="rotate(88.88, 400, 400)" opacity="0.89"></path><path d="M379.32 344.19C379.34 342.73 381.47 342.88 382.94 344.45Q401.29 360.45 423.22 377.06 443.4 394.27 456.97 412.07C457.76 413.71 456.65 414.92 455 414.34Q438.73 409.72 422.46 407.34 406.19 407.4 389.91 409.92C388.26 410.31 387.21 408.99 387.9 407.44Q391.22 390.7 388.08 374.59 380.88 351.64 379.32 344.19" stroke-dasharray="1 1" transform="rotate(92.92, 400, 400)" opacity="0.92"></path><path d="M386.71 354.54C386.43 353.57 387.88 353.67 389.17 354.72Q403.01 365.3 417.64 376.14 431.46 387.27 442.93 398.66C443.8 399.71 443.51 400.58 442.42 400.29Q431.61 397.96 420.8 396.65 409.99 396.42 399.18 397.28C398.09 397.43 397 396.47 397.13 395.49Q396.92 384.85 394.2 374.48 388.5 359.46 386.71 354.54" stroke-dasharray="7 7" transform="rotate(96.96, 400, 400)" opacity="0.96"></path></g></svg>