<svg xmlns="http://www.w3.org/2000/svg" version="1.1" xmlns:xlink="http://www.w3.org/1999/xlink" xmlns:svgjs="http://svgjs.dev/svgjs" viewBox="0 0 800 800"><defs><linearGradient x1="50%" y1="0%" x2="50%" y2="100%" id="ccchaos-grad"><stop stop-color="hsl(161, 100%, 42%)" stop-opacity="1" offset="0%"></stop><stop stop-color="hsl(161, 10%, 40%)" stop-opacity="1" offset="100%"></stop></linearGradient></defs><g stroke-width="2" stroke="url(#ccchaos-grad)" fill="none" stroke-linecap="round"><path d="M381.97 95.82C380.67 87.8 385.19 82.73 392.08 81.35 398.97 80.09 408.39 82.51 417.27 89.07Q428.43 97.27 439.22 105.52 449.12 113.81 457.66 122.16 464.5 130.58 469.4 139.08 472.47 156.38 470.68 173.98 467.97 182.96 465.06 192.06 462.55 201.27 461.02 210.61 460.98 220.07 462.83 229.65 466.82 239.36 473.02 249.2 481.34 259.16 491.5 269.24 503.08 279.44 515.53 289.75 528.2 300.18 540.46 310.71 551.64 321.33 561.21 332.04 568.71 342.83 573.87 353.69 576.6 364.61 577 375.58 575.37 386.59 572.18 397.62 568.03 408.67 563.6 419.71 559.62 430.74 556.78 441.75 555.69 452.71 556.84 463.62 560.53 474.46 566.87 485.23 575.74 495.89 586.83 506.46 599.64 516.9 613.52 527.21 627.71 537.38 641.45 547.4 653.97 557.25 664.61 566.94 672.85 576.45 678.34 585.77 680.97 594.91 680.85 603.85 678.33 612.59 673.93 621.14 668.36 629.49 662.41 637.63 653.74 653.25 650.93 668.3 654.25 675.51 660.65 682.56 670 689.46 681.96 696.21C702.56 705.7 711.58 726.83 696.78 734.57Q687.66 738.62 678.55 742.01 669.43 744.65 660.31 746.48 651.2 747.45 642.08 747.55 632.96 746.76 623.85 745.11 614.73 742.64 605.61 739.41 596.5 735.49 587.38 730.99 578.26 725.99 569.15 720.64 560.03 715.06 550.91 709.37 541.8 703.72 532.68 698.25 523.56 693.08 514.44 688.35 505.33 684.16 496.21 680.61 487.09 677.79 477.98 675.77 468.86 674.6 459.74 674.31 450.63 674.89 441.51 676.35 432.39 678.63 423.28 681.7 414.16 685.47 405.04 689.85 395.93 694.74 386.81 700.03 377.69 705.57 368.57 711.25 359.46 716.91 350.34 722.44 341.22 727.69 332.11 732.53 322.99 736.86 313.87 740.56 304.76 743.55 295.64 745.75 286.52 747.12 277.4 747.61 268.29 747.23 259.17 745.97 250.05 743.87 240.94 740.97 231.82 737.35 222.7 733.1 213.59 728.31 204.47 723.11 195.35 717.61 186.23 711.96 177.12 706.28 168 700.71 158.88 695.39 149.77 690.44 140.65 685.99 131.53 682.13 122.41 678.98 113.3 676.59C98.5 674.49 86.14 659.59 90.33 646.96Q93.45 638.44 96.9 630.13 100.8 622.01 105.23 614.08 110.25 606.32 115.84 598.73 121.95 591.29 128.48 583.98 135.26 576.79 142.13 569.71 148.88 562.72 155.31 555.81 166.17 542.17 174.83 528.63 179.87 515.07 183.4 501.43 186.6 487.49 191.07 473.3 194.59 466.03 199.07 458.65 204.55 451.15 210.99 443.51 218.26 435.73 226.16 427.81 234.44 419.75 242.79 411.53 250.9 403.16 258.47 394.64 265.21 385.97 270.92 377.14 275.45 368.16 278.78 359.04 280.96 349.78 282.13 340.37 282.56 330.84 282.55 321.18 282.45 311.4 282.65 301.52 283.51 291.53 285.35 281.45 288.42 271.29 292.86 261.06 298.73 250.77 305.94 240.43 314.32 230.04 323.57 219.63 333.34 209.19 343.19 198.75 352.7 188.31 361.44 177.88 369.06 167.46 375.26 157.08 379.87 146.73 382.84 136.43 384.27 126.18 384.37 115.99 382.71 100.84 381.97 95.82" stroke-dasharray="2 8" transform="rotate(0, 400, 400)" opacity="0.18"></path><path d="M389.71 106.26C387.25 90.8 407.23 86.96 424.35 99.56Q434.57 107.44 443.91 115.36 451.98 123.33 458.45 131.36 465.13 147.65 466.65 164.17 464.98 172.58 462.53 181.09 459.8 189.7 457.32 198.42 455.61 207.25 455.14 216.19 456.3 225.25 459.37 234.42 464.46 243.72 471.55 253.13 480.48 262.66 490.93 272.31 502.46 282.07 514.54 291.94 526.61 301.92 538.06 312.01 548.37 322.19 557.05 332.46 563.76 342.81 568.28 353.24 570.56 363.74 570.74 374.29 569.08 384.9 566.01 395.54 562.08 406.2 557.89 416.88 554.09 427.56 551.29 438.24 550.06 448.89 550.83 459.52 553.9 470.09 559.4 480.61 567.29 491.06 577.32 501.42 589.1 511.7 602.09 521.86 615.66 531.92 629.11 541.84 641.76 551.63 652.98 561.27 662.22 570.76 669.08 580.09 673.35 589.25 674.99 598.24 674.18 607.05 671.27 615.67 666.79 624.11 661.36 632.36 655.73 640.43 650.64 648.3 646.05 663.42 648.46 677.99 654.45 684.99 663.18 691.82C679.93 701.39 687.45 721.32 673.45 727.72Q656.19 733.31 638.93 735.93 621.67 735.33 604.41 731.57 587.15 724.99 569.89 716.17 552.62 705.89 535.36 695.07 518.1 684.68 500.84 675.65 483.58 668.76 466.32 664.64 449.06 663.66 431.8 665.9 414.54 671.17 397.28 678.99 380.01 688.66 362.75 699.33 345.49 710.05 328.23 719.86 310.97 727.88 293.71 733.41 276.45 735.95 259.19 735.28 241.93 731.44 224.67 724.8 207.41 715.93 190.15 705.63 172.89 694.82 155.63 684.45 138.36 675.45 121.1 668.63C107.11 665.11 95.26 649.66 99.48 638.2Q106.83 622.97 115.72 608.21 121.14 601.09 127.06 594.09 133.39 587.2 139.99 580.42 146.7 573.72 153.33 567.09 165.35 554 175.65 541 182.37 528 187.07 514.92 189.84 501.59 192.7 488.03 197.92 473.99 205.61 459.62 211.08 452.22 217.45 444.68 224.6 437.01 232.33 429.2 240.4 421.25 248.54 413.15 256.47 404.91 263.88 396.53 270.54 388 276.24 379.33 280.84 370.52 284.29 361.57 286.63 352.5 287.97 343.3 288.52 333.99 288.54 324.56 288.35 315.03 288.29 305.4 288.7 295.68 289.89 285.88 292.14 276.01 295.62 266.08 300.43 256.1 306.58 246.07 313.96 236.01 322.37 225.93 331.52 215.84 341.08 205.73 350.64 195.64 359.81 185.55 368.22 175.49 375.54 165.45 381.51 155.46 385.98 145.5 388.91 135.6 390.36 125.76 390.12 111.12 389.71 106.26" stroke-dasharray="7 2" transform="rotate(3.7407407407407405, 400, 400)" opacity="0.81"></path><path d="M396.72 116.7C395.29 101.78 414.89 97.97 430.6 110.06Q439.32 117.62 446.81 125.23 456.33 140.6 460.92 156.16 458.71 172.07 454.32 188.24 450.69 204.87 450.13 221.81 452.5 230.47 456.71 239.23 462.77 248.11 470.6 257.1 479.97 266.21 490.54 275.42 501.87 284.74 513.49 294.18 524.86 303.71 535.5 313.35 544.92 323.08 552.74 332.91 558.69 342.82 562.62 352.81 564.49 362.87 564.46 373 562.79 383.18 559.85 393.4 556.13 403.67 552.18 413.96 548.56 424.28 545.82 434.59 544.46 444.91 544.88 455.21 547.38 465.49 552.11 475.72 559.05 485.92 568.04 496.05 578.78 506.11 590.83 516.09 603.65 525.98 616.66 535.77 629.24 545.45 640.79 555.01 650.78 564.44 658.8 573.73 664.54 582.88 667.86 591.87 668.8 600.71 667.54 609.38 664.45 617.89 660.01 626.22 654.81 634.38 649.48 642.37 641.97 657.72 639.55 672.56 642.34 679.67 647.74 686.63C659.93 696.35 664.28 714.96 651.03 719.91Q634.71 723.65 618.39 724.51 602.06 722.41 585.74 717.53 569.41 710.27 553.09 701.24 536.76 691.17 520.44 680.9 504.11 671.28 487.79 663.1 471.47 657.04 455.14 653.6 438.82 653.07 422.49 655.48 406.17 660.64 389.84 668.13 373.52 677.31 357.2 687.44 340.87 697.68 324.55 707.18 308.22 715.16 291.9 720.95 275.57 724.09 259.25 724.3 242.93 721.58 226.6 716.14 210.28 708.44 193.95 699.11 177.63 688.93 161.31 678.73 144.98 669.36 128.66 661.59C115.42 656.91 104.43 641.03 108.96 630.63Q117.11 616.73 126.86 603.2 132.62 596.62 138.77 590.14 145.2 583.73 151.74 577.39 164.3 564.86 175.73 552.4 184.09 539.95 190.33 527.42 193.69 514.66 196.18 501.7 199.29 488.3 203.98 474.59 207.64 467.53 212.19 460.36 217.65 453.06 223.94 445.63 230.95 438.06 238.5 430.37 246.37 422.53 254.29 414.56 262.01 406.45 269.28 398.21 275.84 389.84 281.52 381.33 286.17 372.7 289.75 363.95 292.25 355.08 293.77 346.1 294.47 337.01 294.57 327.83 294.34 318.55 294.1 309.19 294.16 299.74 294.81 290.24 296.32 280.66 298.9 271.04 302.69 261.38 307.76 251.67 314.06 241.95 321.49 232.2 329.83 222.45 338.82 212.69 348.13 202.94 357.4 193.21 366.28 183.49 374.42 173.81 381.53 164.17 387.38 154.57 391.82 145.01 394.8 135.52 396.55 121.39 396.72 116.7" stroke-dasharray="3 2" transform="rotate(7.481481481481481, 400, 400)" opacity="0.56"></path><path d="M402.29 127.13C402.73 112.76 421.91 108.97 435.26 120.56Q446.76 135.11 453.83 149.8 453.91 164.75 450.99 179.9 446.64 195.44 443.81 211.24 446.89 227.51 454.83 244.08 461.72 252.55 470.11 261.12 479.73 269.8 490.26 278.58 501.27 287.47 512.32 296.46 522.96 305.55 532.74 314.74 541.29 324.03 548.29 333.4 553.53 342.86 556.89 352.4 558.4 362.02 558.19 371.71 556.51 381.46 553.7 391.26 550.2 401.11 546.48 410.99 543.03 420.91 540.36 430.85 538.9 440.8 539.02 450.75 541 460.69 544.99 470.62 551.04 480.52 559.02 490.38 568.72 500.19 579.78 509.94 591.77 519.63 604.19 529.24 616.5 538.76 628.15 548.19 638.66 557.51 647.57 566.72 654.57 575.81 659.42 584.77 661.54 602.2 657.93 619.19 653.64 627.42 648.69 635.49 639.63 651.06 633.69 666.13 633.72 673.38 635.99 680.47C643.42 690.39 643.48 707.57 630.94 711.04Q615.48 712.98 600.02 712.22 584.56 708.82 569.11 703.04 553.65 695.31 538.19 686.23 522.74 676.5 507.28 666.85 491.82 658.03 476.36 650.7 460.91 645.44 445.45 642.63 429.99 642.5 414.54 645.06 399.08 650.1 383.62 657.25 368.16 665.96 352.71 675.56 337.25 685.32 321.79 694.49 306.33 702.37 290.88 708.37 275.42 712.01 259.96 713.03 244.5 711.34 229.05 707.07 213.59 700.56 198.13 692.29 182.67 682.9 167.21 673.11 151.76 663.67 136.3 655.29C123.76 649.73 113.95 633.58 119.02 624.11Q128.08 611.37 138.63 598.9 150.94 586.76 163.57 574.75 175.24 562.85 185.49 550.95 192.56 538.92 197.65 526.77 200.34 514.3 202.49 501.58 205.65 488.39 210.49 474.88 219.23 460.78 230.45 446.32 237.32 438.87 244.68 431.29 252.32 423.58 260.03 415.74 267.54 407.78 274.64 399.69 281.1 391.48 286.75 383.16 291.45 374.72 295.13 366.17 297.8 357.51 299.5 348.76 300.37 339.91 300.6 330.98 300.41 321.97 300.06 312.88 299.86 303.72 300.06 294.51 300.94 285.25 302.71 275.94 305.55 266.59 309.55 257.22 314.76 247.83 321.1 238.43 328.47 229.02 336.67 219.61 345.43 210.21 354.47 200.83 363.46 191.47 372.08 182.15 380.01 172.86 387 163.61 392.82 154.41 397.33 145.26 401.38 131.65 402.29 127.13" stroke-dasharray="4 9" transform="rotate(11.222222222222221, 400, 400)" opacity="0.80"></path><path d="M405.88 137.56C408.72 123.72 427.36 119.98 437.72 131.08Q445.9 144.98 448.61 159.04 446.85 173.3 442.74 187.81 439 202.59 438.38 217.7 442.97 233.16 453.67 248.98 469.98 265.2 490.02 281.8 511 298.81 529.78 316.19 543.69 333.95 551.1 352.05 551.9 370.45 547.54 389.12 540.75 408 534.89 427.03 533.21 446.17 538.04 465.33 550.25 484.45 568.97 503.46 591.77 522.28 615.17 540.85 635.49 559.09 649.67 576.95 656.03 594.36 654.7 611.28 647.63 627.65 638.19 643.45 630.37 658.65 627.88 673.24C630.88 683.35 626.15 699.06 614.24 701.07Q599.56 701.33 584.88 699.13 570.2 694.64 555.52 688.17 540.84 680.17 526.16 671.21 511.48 661.92 496.79 652.95 482.11 644.95 467.43 638.46 452.75 633.95 438.07 631.73 423.39 631.97 408.71 634.64 394.03 639.56 379.35 646.38 364.66 654.62 349.98 663.7 335.3 672.98 320.62 681.8 305.94 689.55 291.26 695.67 276.58 699.74 261.9 701.47 247.21 700.73 232.53 697.59 217.85 692.26 203.17 685.11 188.49 676.65 173.81 667.48 159.13 658.24 144.45 649.59C132.53 643.42 124.1 627.18 129.88 618.51Q139.6 606.72 150.99 595.16 163.27 583.74 175.38 572.38 186.21 561 194.89 549.52 200.99 537.87 204.72 525.97 206.9 513.78 208.78 501.23 211.76 488.28 217.08 474.9 225.48 461.06 236.99 446.75 250.87 431.95 265.76 416.69 279.99 400.96 291.94 384.8 300.46 368.23 305.18 351.29 306.63 334.02 306.16 316.48 305.64 298.72 307.06 280.78 312.03 262.73 321.36 244.62 334.87 226.5 351.34 208.44 368.82 190.47 384.99 172.64 397.8 154.99 405.88 137.56 405.88 137.56 405.88 137.56" stroke-dasharray="9 8" transform="rotate(14.962962962962962, 400, 400)" opacity="0.51"></path><path d="M407.12 147.97C412.55 134.68 430.57 131 437.69 141.59Q442.03 154.87 441.87 168.29 438.71 181.89 434.75 195.72 432.47 209.81 434.03 224.19 440.84 238.89 453.18 253.93 470.14 269.33 489.78 285.09 509.5 301.22 526.62 317.72 538.93 334.57 545.24 351.75 545.6 369.25 541.39 387.01 535.02 405.01 529.43 423.19 527.46 441.51 531.26 459.91 541.76 478.33 558.46 496.7 579.48 514.97 601.98 533.06 622.7 550.92 638.7 568.49 648 585.7 650.02 602.51 645.77 618.86 637.63 634.72 628.89 650.06 623.04 664.84C622.31 675.13 612.98 689.38 601.62 690Q587.62 688.74 573.61 685.32 559.61 679.96 545.6 673.02 531.6 664.93 517.59 656.23 503.59 647.48 489.58 639.24 475.58 632.06 461.57 626.38 447.56 622.58 433.56 620.92 419.55 621.48 405.55 624.25 391.54 629.03 377.54 635.52 363.53 643.3 349.52 651.87 335.52 660.67 321.51 669.12 307.51 676.69 293.5 682.89 279.5 687.3 265.49 689.65 251.48 689.79 237.48 687.69 223.47 683.51 209.47 677.51 195.46 670.08 181.45 661.7 167.45 652.92 153.44 644.29C142.09 637.8 135.13 621.64 141.63 613.64Q152.13 602.68 163.8 591.81 175.76 580.99 187 570.12 196.56 559.14 203.85 548 208.71 536.62 211.55 524.95 213.26 512.95 215.06 500.58 218.2 487.81 223.72 474.61 232.19 460.97 243.55 446.89 257.06 432.36 271.49 417.4 285.32 402.02 297.08 386.26 305.71 370.13 310.78 353.69 312.62 336.96 312.32 320 311.49 302.85 311.91 285.56 315.19 268.19 322.36 250.77 333.63 233.37 348.33 216.02 364.97 198.77 381.61 181.65 396.22 164.71 407.12 147.97 407.12 147.97 407.12 147.97" stroke-dasharray="1 2" transform="rotate(18.703703703703702, 400, 400)" opacity="0.42"></path><path d="M405.97 158.37C413.81 145.64 431.08 142.02 435.08 152.11Q436.21 164.76 434.09 177.55 430.46 190.51 427.42 203.66 427.01 217.06 430.82 230.72 439.64 244.67 453.25 258.92 470.5 273.51 489.45 288.44 507.79 303.71 523.23 319.32 534.03 335.26 539.32 351.53 539.3 368.11 535.25 384.95 529.29 402.05 523.96 419.35 521.77 436.81 524.64 454.4 533.53 472.05 548.24 489.72 567.39 507.35 588.67 524.88 609.31 542.26 626.59 559.43 638.39 576.33 643.66 592.93 642.59 609.15 636.68 624.98 628.4 640.35 620.75 655.25C617.31 665.67 604.1 678.48 593.21 677.84Q579.79 675.25 566.36 670.83 552.93 664.84 539.51 657.63 526.08 649.64 512.66 641.32 499.23 633.19 485.8 625.71 472.38 619.34 458.95 614.45 445.53 611.33 432.1 610.16 418.68 611.02 405.25 613.85 391.82 618.49 378.4 624.65 364.97 631.99 351.55 640.05 338.12 648.37 324.69 656.45 311.27 663.8 297.84 670.01 284.42 674.69 270.99 677.57 257.57 678.47 244.14 677.36 230.71 674.28 217.29 669.43 203.86 663.09 190.44 655.64 177.01 647.52 163.59 639.2C152.7 632.66 147.19 616.77 154.31 609.31Q165.3 599 176.9 588.69 188.19 578.31 198.28 567.82 206.45 557.16 212.35 546.27 216.07 535.1 218.16 523.62 219.55 511.79 221.36 499.59 224.71 486.99 230.44 473.98 238.96 460.56 250.14 446.73 263.26 432.49 277.21 417.86 290.62 402.87 302.18 387.53 310.89 371.88 316.28 355.95 318.54 339.78 318.52 323.42 317.55 306.91 317.22 290.28 319.05 273.6 324.19 256.89 333.17 240.2 345.75 223.57 360.96 207.04 377.26 190.65 392.85 174.41 405.97 158.37 405.97 158.37 405.97 158.37" stroke-dasharray="11 3" transform="rotate(22.444444444444443, 400, 400)" opacity="0.63"></path><path d="M402.59 168.78C412.38 156.59 428.8 153.04 430.12 162.64Q428.91 174.68 425.82 186.83 422.6 199.14 421.06 211.64 422.78 224.34 428.77 237.28 439.29 250.49 453.79 263.98 470.97 277.77 489 291.86 505.84 306.28 519.63 321.01 528.99 336.06 533.35 351.41 533 367.06 529.11 382.98 523.55 399.15 518.5 415.54 516.13 432.12 518.17 448.84 525.58 465.68 538.37 482.58 555.57 499.49 575.39 516.38 595.51 533.18 613.5 549.85 627.29 566.34 635.48 582.61 637.71 598.59 634.66 614.26 628 629.57 620.09 644.48C615.1 654.95 599.15 666.4 588.67 664.66Q575.74 660.98 562.82 655.8 549.89 649.41 536.96 642.13 524.03 634.38 511.11 626.56 498.18 619.1 485.25 612.4 472.33 606.83 459.4 602.69 446.47 600.19 433.54 599.48 420.62 600.59 407.69 603.47 394.76 607.95 381.84 613.79 368.91 620.69 355.98 628.26 343.06 636.1 330.13 643.79 317.2 650.9 304.28 657.06 291.35 661.93 278.42 665.25 265.5 666.83 252.57 666.6 239.64 664.57 226.72 660.84 213.79 655.62 200.86 649.19 187.94 641.9 175.01 634.13C164.52 627.78 160.27 612.33 167.82 605.3Q178.93 595.48 190.04 585.59 200.34 575.56 209.08 565.35 215.81 554.92 220.39 544.23 223.1 533.23 224.6 521.91 225.79 510.24 227.71 498.21 231.3 485.79 237.23 472.99 245.78 459.82 256.75 446.26 269.47 432.35 282.93 418.08 295.9 403.5 307.23 388.62 315.98 373.47 321.68 358.09 324.38 342.51 324.73 326.77 323.79 310.91 322.94 294.96 323.58 278.97 326.9 262.97 333.62 247.01 343.89 231.11 357.19 215.31 372.41 199.64 388.09 184.12 402.59 168.78 402.59 168.78 402.59 168.78" stroke-dasharray="6 8" transform="rotate(26.185185185185183, 400, 400)" opacity="0.47"></path><path d="M397.45 179.16C408.49 167.54 423.96 164.07 423.3 173.18Q420.76 184.6 417.67 196.13 415.59 207.79 415.97 219.62 419.87 231.65 427.83 243.89 439.7 256.36 454.68 269.09 471.45 282.08 488.34 295.36 503.62 308.93 515.79 322.79 523.82 336.95 527.33 351.39 526.69 366.11 522.99 381.1 517.8 396.34 513.03 411.8 510.54 427.47 511.84 443.3 517.89 459.27 528.85 475.35 544.09 491.48 562.25 507.64 581.46 523.78 599.63 539.86 614.81 555.83 625.48 571.64 630.85 587.27 630.99 602.66 626.82 617.77 620.01 632.58C614.65 643.03 597.31 653.19 587.18 650.54Q574.7 646.01 562.21 640.32 549.73 633.73 537.25 626.57 524.77 619.19 512.28 611.95 499.8 605.22 487.32 599.31 474.83 594.52 462.35 591.08 449.87 589.16 437.38 588.86 424.9 590.19 412.42 593.08 399.93 597.39 387.45 602.92 374.97 609.39 362.48 616.48 350 623.85 337.51 631.13 325.03 637.97 312.55 644.03 300.06 649.02 287.58 652.68 275.1 654.85 262.61 655.41 250.13 654.34 237.65 651.69 225.16 647.59 212.68 642.24 200.2 635.9 187.71 628.88C177.58 622.93 174.25 608.1 181.93 601.37Q192.73 591.93 202.98 582.34 212.01 572.56 219.28 562.57 224.57 552.31 227.94 541.78 229.82 530.93 230.89 519.76 232.03 508.25 234.13 496.4 237.98 484.19 244.1 471.63 252.65 458.72 263.39 445.48 275.69 431.92 288.64 418.06 301.16 403.92 312.22 389.53 320.98 374.91 326.96 360.1 330.11 345.13 330.88 330.03 330.13 314.83 329 299.58 328.73 284.3 330.49 269.02 335.11 253.79 343.02 238.62 354.07 223.55 367.6 208.61 382.52 193.8 397.45 179.16 397.45 179.16 397.45 179.16" stroke-dasharray="0 5" transform="rotate(29.925925925925924, 400, 400)" opacity="0.24"></path><path d="M391.16 189.56C402.64 178.48 417.12 175.1 415.31 183.73Q412.48 194.53 410.23 205.44 409.84 216.47 412.33 227.65 418.32 238.99 427.93 250.53 440.73 262.28 455.8 274.26 471.86 286.48 487.45 298.95 501.13 311.68 511.73 324.69 518.51 337.96 521.25 351.5 520.39 365.3 516.86 379.35 512.05 393.65 507.57 408.17 504.99 422.9 505.66 437.82 510.48 452.89 519.71 468.09 532.99 483.39 549.35 498.75 567.32 514.15 585.16 529.53 601.13 544.88 613.71 560.14 621.87 575.29 625.22 590.27 624.07 605.07 619.41 619.63C614.73 629.95 597.39 638.97 587.61 635.61Q575.55 630.49 563.48 624.51 551.41 617.93 539.35 611.04 527.28 604.16 515.21 597.57 503.15 591.58 491.08 586.45 479.01 582.41 466.95 579.63 454.88 578.25 442.81 578.31 430.75 579.82 418.68 582.71 406.61 586.85 394.55 592.06 382.48 598.11 370.41 604.73 358.35 611.63 346.28 618.5 334.21 625.04 322.14 630.96 310.08 636 298.01 639.92 285.94 642.57 273.88 643.82 261.81 643.62 249.74 641.97 237.68 638.96 225.61 634.7 213.54 629.4 201.47 623.28C191.69 617.91 188.89 603.82 196.38 597.32Q206.42 588.14 215.48 578.77 223.04 569.18 228.81 559.34 232.73 549.24 235.06 538.84 236.28 528.14 237.09 517.13 238.29 505.79 240.64 494.14 244.76 482.16 251.05 469.87 259.57 457.27 270.05 444.38 281.91 431.22 294.33 417.79 306.39 404.13 317.16 390.26 325.89 376.21 332.11 361.99 335.7 347.65 336.95 333.21 336.51 318.7 335.31 304.15 334.43 289.59 334.92 275.05 337.69 260.55 343.31 246.12 351.96 231.79 363.34 217.57 376.75 203.49 391.16 189.56 391.16 189.56 391.16 189.56" stroke-dasharray="0 10" transform="rotate(33.666666666666664, 400, 400)" opacity="0.77"></path><path d="M384.5 199.93C395.58 189.42 409.06 186.14 406.98 194.28Q404.78 204.48 404.03 214.76 405.64 225.16 410.24 235.69 418.07 246.37 428.93 257.22 442.23 268.25 457.01 279.49 472.1 290.94 486.26 302.62 498.34 314.53 507.44 326.69 513.06 339.09 515.13 351.73 514.07 364.62 510.74 377.75 506.29 391.11 502.09 404.68 499.47 418.47 499.61 432.44 503.31 446.58 510.94 460.87 522.33 475.28 536.8 489.79 553.27 504.37 570.33 518.99 586.49 533.62 600.35 548.22 610.78 562.77 617.08 577.23 619.11 591.58 617.3 605.76C614.13 615.86 598.08 623.85 588.63 619.99Q576.99 614.53 565.34 608.48 553.7 602.09 542.05 595.62 530.4 589.31 518.76 583.43 507.11 578.2 495.47 573.83 483.82 570.5 472.17 568.34 460.53 567.43 448.88 567.81 437.24 569.46 425.59 572.33 413.94 576.29 402.3 581.19 390.65 586.83 379.01 593 367.36 599.43 355.71 605.89 344.07 612.1 332.42 617.84 320.78 622.85 309.13 626.96 297.48 629.99 285.84 631.82 274.19 632.39 262.55 631.66 250.9 629.67 239.25 626.5 227.61 622.27 215.96 617.15C206.51 612.48 203.83 599.28 210.77 592.93Q219.67 583.94 227.29 574.73 233.3 565.28 237.61 555.58 240.32 545.6 241.79 535.35 242.56 524.8 243.27 513.97 244.63 502.84 247.27 491.41 251.67 479.71 258.1 467.72 266.55 455.48 276.74 442.98 288.14 430.24 300.03 417.29 311.6 404.15 322.06 390.83 330.72 377.36 337.13 363.77 341.14 350.08 342.9 336.32 342.87 322.51 341.8 308.67 340.57 294.84 340.13 281.03 341.35 267.28 344.9 253.59 351.14 240 360.12 226.51 371.46 213.15 384.5 199.93 384.5 199.93 384.5 199.93" stroke-dasharray="5 8" transform="rotate(37.407407407407405, 400, 400)" opacity="0.39"></path><path d="M378.28 210.31C388.23 200.36 400.73 197.18 399.15 204.84Q398.32 214.44 399.47 224.11 403.17 233.88 409.69 243.76 418.99 253.78 430.67 263.95 444.03 274.28 458.18 284.79 472.08 295.49 484.73 306.38 495.23 317.49 502.93 328.81 507.49 340.35 508.97 352.11 507.77 364.1 504.62 376.31 500.53 388.73 496.61 401.36 494 414.19 493.68 427.21 496.41 440.4 502.56 453.75 512.13 467.24 524.7 480.85 539.46 494.55 555.37 508.33 571.18 522.17 585.66 536.02 597.72 549.87 606.5 563.69 611.56 577.46 612.88 591.14C611.74 600.91 597.97 608 588.88 603.86Q577.69 598.28 566.49 592.37 555.3 586.33 544.1 580.38 532.91 574.72 521.71 569.57 510.52 565.09 499.32 561.46 488.13 558.79 476.94 557.19 465.74 556.71 454.55 557.37 443.35 559.14 432.16 561.96 420.97 565.73 409.77 570.32 398.58 575.57 387.38 581.28 376.19 587.26 365 593.3 353.8 599.17 342.61 604.68 331.41 609.62 320.22 613.82 309.03 617.14 297.83 619.45 286.64 620.67 275.44 620.76 264.25 619.72 253.06 617.58 241.86 614.42 230.67 610.35C221.58 606.48 218.62 594.25 224.71 588.01Q232.17 579.15 238.21 570.07 242.69 560.74 245.66 551.17 247.36 541.33 248.2 531.23 248.71 520.87 249.47 510.24 251.08 499.35 254.04 488.21 258.7 476.81 265.24 465.18 273.58 453.33 283.46 441.26 294.38 429 305.72 416.56 316.79 403.97 326.89 391.24 335.44 378.39 342.01 365.44 346.4 352.43 348.67 339.36 349.14 326.26 348.36 313.15 347.05 300.06 346.01 287 346.03 273.99 347.8 261.05 351.82 248.2 358.32 235.45 372.77 216.56 378.28 210.31" stroke-dasharray="0 4" transform="rotate(41.148148148148145, 400, 400)" opacity="0.89"></path><path d="M373.26 220.67C381.54 211.28 393.09 208.22 392.63 215.41Q393.63 224.4 396.83 233.46 402.48 242.61 410.6 251.86 420.91 261.23 432.93 270.72 445.95 280.36 459.17 290.15 471.73 300.1 482.83 310.23 491.8 320.55 498.19 331.05 501.81 341.75 502.77 352.65 501.46 363.74 498.51 375.04 494.76 386.54 491.12 398.23 488.54 410.11 487.86 422.17 489.74 434.4 494.56 446.79 502.42 459.33 513.1 472 526.05 484.79 540.49 497.67 555.47 510.64 569.95 523.66 582.94 536.73 593.57 549.81 601.22 562.88 605.58 575.92C606.68 585.29 595.81 591.62 587.14 587.4Q576.44 581.92 565.75 576.32 555.06 570.75 544.37 565.41 533.68 560.44 522.99 556.03 512.3 552.29 501.61 549.35 490.91 547.3 480.22 546.2 469.53 546.1 458.84 546.99 448.15 548.84 437.46 551.6 426.77 555.18 416.08 559.46 405.39 564.32 394.69 569.6 384 575.13 373.31 580.74 362.62 586.26 351.93 591.51 341.24 596.32 330.55 600.55 319.86 604.06 309.17 606.74 298.48 608.5 287.79 609.3 277.1 609.11 266.4 607.92 255.71 605.79 245.02 602.78C236.35 599.75 232.79 588.54 237.82 582.38Q243.68 573.64 248.13 564.68 251.19 555.48 253.03 546.05 253.95 536.38 254.39 526.47 254.82 516.32 255.76 505.94 257.69 495.34 260.97 484.51 265.88 473.48 272.48 462.25 280.68 450.83 290.2 439.24 300.62 427.5 311.41 415.61 321.95 403.6 331.68 391.49 340.08 379.28 346.74 367.01 351.46 354.68 354.23 342.32 355.25 329.95 354.9 317.58 353.73 305.23 352.4 292.92 351.6 280.67 351.97 268.48 354.06 256.37 358.24 244.36 368.96 226.56 373.26 220.67" stroke-dasharray="10 9" transform="rotate(44.888888888888886, 400, 400)" opacity="0.96"></path><path d="M370.07 231.02C376.35 222.21 387.03 219.28 388.06 225.98Q391.07 234.38 396.21 242.83 403.5 251.37 412.75 259.98 423.59 268.7 435.5 277.53 447.82 286.49 459.88 295.57 470.99 304.8 480.53 314.18 488.04 323.72 493.23 333.42 496.02 343.29 496.54 353.34 495.15 363.57 492.41 373.97 488.98 384.56 485.63 395.32 483.12 406.25 482.15 417.36 483.3 428.63 486.94 440.05 493.23 451.62 502.08 463.33 513.16 475.17 525.93 487.12 539.68 499.16 553.6 511.29 566.83 523.49 578.58 535.74 588.18 548.03 595.16 560.33C598.4 569.18 590.66 574.89 582.45 570.76Q572.33 565.57 562.2 560.41 552.08 555.42 541.96 550.74 531.83 546.5 521.71 542.81 511.59 539.78 501.46 537.49 491.34 536 481.22 535.35 471.09 535.57 460.97 536.65 450.84 538.55 440.72 541.23 430.6 544.61 420.47 548.59 410.35 553.07 400.23 557.92 390.1 563.02 379.98 568.21 369.85 573.35 359.73 578.31 349.61 582.95 339.48 587.13 329.36 590.74 319.23 593.69 309.11 595.89 298.99 597.28 288.86 597.81 278.74 597.49 268.61 596.31 258.49 594.31C250.28 592.12 245.93 581.99 249.77 575.91Q254.01 567.29 256.98 558.46 258.83 549.41 259.79 540.16 260.19 530.69 260.44 521.02 260.97 511.14 262.19 501.06 264.47 490.79 268.09 480.35 273.19 469.73 279.81 458.94 287.83 448.01 296.97 436.95 306.87 425.76 317.08 414.46 327.1 403.06 336.42 391.59 344.61 380.06 351.31 368.48 356.32 356.86 359.56 345.23 361.13 333.59 361.3 321.97 360.48 310.38 359.15 298.83 357.89 287.33 357.28 275.89 357.83 264.53 359.98 253.26 367.05 236.56 370.07 231.02" stroke-dasharray="6 7" transform="rotate(48.629629629629626, 400, 400)" opacity="0.41"></path><path d="M369.15 241.38C373.36 233.14 383.25 230.33 385.87 236.57Q390.79 244.37 397.56 252.23 406.02 260.15 415.9 268.15 426.77 276.23 438.15 284.4 449.47 292.68 460.19 301.07 469.78 309.59 477.81 318.23 483.97 327.01 488.07 335.93 490.12 345 490.27 354.21 488.85 363.59 486.3 373.12 483.19 382.81 480.12 392.65 477.71 402.66 476.53 412.82 477.07 423.13 479.68 433.58 484.54 444.18 491.68 454.92 500.91 465.78 511.88 476.76 524.11 487.85 536.97 499.04 549.81 510.32 561.94 521.67 572.73 533.08 581.66 544.54C586.7 552.81 581.98 558.03 574.28 554.14Q564.78 549.39 555.29 544.79 545.8 540.45 536.31 536.46 526.82 532.94 517.33 529.95 507.84 527.59 498.34 525.89 488.85 524.9 479.36 524.65 469.87 525.15 460.38 526.37 450.89 528.3 441.4 530.87 431.91 534.04 422.42 537.73 412.92 541.85 403.43 546.29 393.94 550.95 384.45 555.72 374.96 560.49 365.47 565.13 355.98 569.55 346.49 573.62 337 577.26 327.51 580.37 318.01 582.88 308.52 584.74 299.03 585.89 289.54 586.3 280.05 585.98 270.56 584.92C262.86 583.54 257.71 574.46 260.36 568.48Q263.1 560.01 264.82 551.35 265.72 542.51 266.08 533.48 266.23 524.27 266.5 514.88 267.27 505.33 268.84 495.61 271.49 485.74 275.41 475.72 280.67 465.56 287.26 455.28 295.03 444.88 303.77 434.38 313.13 423.79 322.75 413.11 332.21 402.37 341.1 391.57 349.04 380.73 355.73 369.86 360.95 358.97 364.61 348.08 366.73 337.2 367.49 326.33 367.14 315.5 366.07 304.71 364.7 293.97 363.52 283.29 362.99 272.69 363.53 262.16 367.33 246.55 369.15 241.38" stroke-dasharray="2 0" transform="rotate(52.37037037037037, 400, 400)" opacity="0.38"></path><path d="M370.67 251.72C372.98 244.05 382.15 241.39 386.23 247.16Q392.72 254.37 400.63 261.63 409.73 268.95 419.69 276.33 430.14 283.78 440.63 291.31 450.72 298.93 460 306.64 468.07 314.46 474.66 322.38 481.85 338.64 483.98 355.27 482.55 363.81 480.21 372.49 477.4 381.3 474.6 390.26 472.31 399.35 470.99 408.58 471.03 417.94 472.76 427.44 476.37 437.08 481.94 446.84 489.39 456.72 498.52 466.72 509.03 476.83 520.48 487.05 532.37 497.36 544.19 507.76 555.38 518.23 565.46 528.78C571.77 536.4 569.61 541.22 562.46 537.7Q544.87 529.54 527.27 522.6 509.68 517.45 492.08 514.54 474.48 514.08 456.89 516.13 439.29 520.51 421.69 526.86 404.1 534.66 386.5 543.26 368.9 551.95 351.31 560.01 333.71 566.79 316.11 571.71 298.52 574.37 280.92 574.55C273.78 573.9 267.92 565.88 269.51 560.03Q271.51 543.25 272.09 525.99 272.21 517.1 272.68 508.07 273.78 498.9 275.75 489.6 278.77 480.19 282.94 470.65 288.3 461.02 294.8 451.28 302.3 441.47 310.59 431.57 319.4 421.61 328.42 411.59 337.31 401.53 345.73 391.43 353.37 381.3 359.97 371.17 365.34 361.02 369.35 350.88 372 340.76 373.35 330.66 373.59 320.59 372.95 310.57 371.78 300.59 370.42 290.67 369.27 280.82 368.7 271.04 369.87 256.53 370.67 251.72" stroke-dasharray="1 7" transform="rotate(56.111111111111114, 400, 400)" opacity="0.18"></path><path d="M374.55 262.06C375.31 254.96 383.81 252.46 389.02 257.76Q405.03 271.07 423.77 284.55 442.73 298.27 459.22 312.29 471.08 326.63 477.16 341.36 477.66 356.5 474.12 372.09 469.08 388.14 465.53 404.66 466.19 421.66 472.87 439.14 486 457.07 504.49 475.42 525.94 494.16 547.19 513.25C554.15 520.2 553.88 524.67 547.35 521.62Q531.23 514.76 515.1 509.2 498.98 505.33 482.86 503.43 466.74 503.63 450.62 505.93 434.5 510.14 418.38 515.99 402.26 523.05 386.13 530.83 370.01 538.79 353.89 546.35 337.77 552.99 321.65 558.24 305.53 561.73 289.4 563.21C282.87 563.21 276.54 556.21 277.28 550.52Q277.99 534.37 277.98 517.72 279.09 500.61 282.98 483.08 290.69 465.18 302.44 446.98 317.43 428.54 334.07 409.92 350.3 391.18 364.05 372.4 373.77 353.64 378.81 334.95 379.62 316.41 377.67 298.04 375.18 279.91 374.55 262.06 374.55 262.06 374.55 262.06" stroke-dasharray="4 9" transform="rotate(59.85185185185185, 400, 400)" opacity="0.66"></path><path d="M380.42 272.38C380.11 265.88 387.99 263.53 393.86 268.37Q410.28 280.5 427.75 292.79 444.23 305.28 457.79 318 467.05 330.99 471.44 344.28 471.33 357.92 468.04 371.92 463.54 386.31 460.12 401.09 459.91 416.28 464.45 431.88 474.4 447.88 489.32 464.27 507.79 481.03 527.62 498.13C534.62 504.36 535.52 508.58 529.6 506.05Q515.01 500.53 500.42 496.29 485.83 493.59 471.24 492.58 456.65 493.32 442.06 495.77 427.46 499.79 412.87 505.13 398.28 511.48 383.69 518.46 369.1 525.66 354.51 532.66 339.92 539.03 325.32 544.4 310.73 548.45 296.14 550.95C290.22 551.48 283.76 545.41 283.93 539.95Q283.83 524.52 284.01 508.7 285.88 492.53 290.57 476.06 298.69 459.33 310.19 442.4 324.31 425.3 339.73 408.1 354.83 390.84 367.97 373.57 377.86 356.35 383.79 339.22 385.86 322.22 384.93 305.39 381.45 280.58 380.42 272.38" stroke-dasharray="1 4" transform="rotate(63.592592592592595, 400, 400)" opacity="0.24"></path><path d="M387.71 282.7C386.84 276.78 394.12 274.6 400.13 278.98Q415.81 289.96 431.25 301.07 444.96 312.33 455.68 323.78 462.61 335.44 465.55 347.35 464.98 359.53 461.96 372 457.99 384.78 454.76 397.89 453.91 411.33 456.69 425.11 463.81 439.23 475.27 453.69 490.34 468.48 507.69 483.59C514.16 489.1 515.51 493.09 510.22 491.1Q497.17 486.9 484.12 483.89 471.07 482.22 458.02 481.95 444.97 483.11 431.93 485.64 418.88 489.42 405.83 494.26 392.78 499.92 379.73 506.12 366.68 512.57 353.63 518.94 340.58 524.93 327.53 530.23 314.48 534.6 301.44 537.8C296.14 538.74 289.92 533.55 289.81 528.38Q289.6 513.82 290.38 498.98 293.14 483.9 298.56 468.62 306.93 453.16 318.04 437.58 331.2 421.9 345.37 406.16 359.3 390.42 371.72 374.7 381.58 359.03 388.23 343.46 391.51 328.02 391.84 312.73 388.93 290.16 387.71 282.7" stroke-dasharray="1 1" transform="rotate(67.33333333333333, 400, 400)" opacity="0.79"></path><path d="M395.69 293.02C394.74 287.68 401.42 285.68 407.07 289.61Q421.04 299.45 433.94 309.38 444.79 319.44 452.85 329.64 457.75 340.01 459.52 350.57 458.62 361.34 455.88 372.33 452.41 383.57 449.44 395.06 448.14 406.82 449.53 418.85 454.24 431.16 462.51 443.76 474.09 456.63 488.27 469.78C493.8 474.57 495 478.35 490.33 476.89Q478.8 473.94 467.27 472.03 455.74 471.22 444.21 471.56 432.68 473.02 421.15 475.56 409.62 479.06 398.09 483.4 386.56 488.39 375.03 493.84 363.5 499.54 351.98 505.25 340.45 510.75 328.92 515.82 317.39 520.26 305.86 523.89C301.18 525.1 295.53 520.69 295.42 515.88Q295.68 502.36 297.33 488.65 300.98 474.79 306.99 460.8 315.42 446.72 325.99 432.56 338.12 418.36 351.01 404.14 363.72 389.94 375.31 375.79 384.95 361.69 392.08 347.7 396.42 333.81 398.1 320.06 396.64 299.74 395.69 293.02" stroke-dasharray="7 10" transform="rotate(71.07407407407408, 400, 400)" opacity="0.85"></path><path d="M403.53 303.33C402.88 298.57 408.92 296.76 413.83 300.24Q425.41 308.94 435.52 317.72 443.61 326.59 449.31 335.57 452.51 344.68 453.36 353.93 452.25 363.33 449.81 372.91 446.83 382.66 444.14 392.61 442.6 402.77 442.93 413.13 445.69 423.71 451.19 434.52 459.44 445.55 470.17 456.8C474.56 460.92 475.16 464.45 471.09 463.48Q461.02 461.65 450.96 460.67 440.9 460.57 430.83 461.37 420.77 463.02 410.71 465.49 400.64 468.69 390.58 472.53 380.51 476.87 370.45 481.6 360.39 486.55 350.32 491.57 340.26 496.51 330.19 501.2 320.13 505.51 310.06 509.29C305.99 510.65 301.19 506.96 301.31 502.55Q302.42 490.22 305.03 477.79 309.47 465.27 315.87 452.68 324.16 440.04 334.05 427.37 345.07 414.7 356.65 402.04 368.1 389.41 378.74 376.84 387.97 364.33 395.31 351.9 400.48 339.58 403.42 327.37 403.91 309.31 403.53 303.33" stroke-dasharray="2 6" transform="rotate(74.81481481481481, 400, 400)" opacity="0.57"></path><path d="M410.45 313.64C410.32 309.47 415.7 307.85 419.59 310.88Q428.44 318.46 435.79 326.1 444.15 341.63 447.08 357.43 443.55 373.79 438.87 390.55 437.23 399.18 436.84 407.96 438.11 416.91 441.34 426.02 446.67 435.3 454.07 444.75C457.21 448.2 457.06 451.49 453.53 450.95Q436.2 450.16 418.86 451.38 410.2 453.12 401.53 455.46 392.86 458.33 384.19 461.67 375.52 465.39 366.86 469.41 358.19 473.64 349.52 477.96 340.85 482.27 332.18 486.48 323.51 490.47 314.84 494.16C311.32 495.55 307.56 492.48 308.02 488.54Q310.13 477.55 313.64 466.51 318.67 455.43 325.21 444.32 333.13 433.2 342.19 422.08 352.04 410.97 362.27 399.9 372.42 388.86 382.01 377.88 390.63 366.96 397.91 356.11 403.6 345.35 407.55 334.68 410.12 318.87 410.45 313.64" stroke-dasharray="10 7" transform="rotate(78.55555555555556, 400, 400)" opacity="0.16"></path><path d="M415.72 323.94C416.19 320.36 420.86 318.94 423.65 321.53Q434.61 334.5 440.2 347.66 440.71 361.07 437.7 374.78 433.6 388.86 431.18 403.33 432.91 418.26 440.36 433.66C442.35 436.49 441.44 439.48 438.46 439.29Q423.77 439.47 409.07 441.57 394.38 445.44 379.68 450.8 364.99 457.27 350.29 464.41 335.6 471.7 320.9 478.63C317.93 479.95 315.24 477.43 316.07 474Q323.29 454.92 335 435.8 350.43 416.71 367.89 397.73 385.14 378.91 399.89 360.3 410.36 341.97 415.72 323.94 415.72 323.94 415.72 323.94" stroke-dasharray="7 4" transform="rotate(82.29629629629629, 400, 400)" opacity="0.77"></path><path d="M418.84 334.22C419.82 331.24 423.74 330.03 425.49 332.18Q431.96 342.93 434.71 353.8 434.27 364.84 431.66 376.07 428.32 387.53 425.87 399.24 425.79 411.24 429.24 423.55C430.28 425.8 428.79 428.44 426.32 428.5Q414.14 429.58 401.96 431.93 389.78 435.44 377.6 439.93 365.42 445.18 353.24 450.94 341.06 456.93 328.88 462.85C326.41 464.01 324.71 461.99 325.83 459.12Q334.02 443.14 345.22 427.19 358.75 411.32 373.51 395.56 388.14 379.94 401.29 364.5 415.31 341.74 418.84 334.22" stroke-dasharray="3 9" transform="rotate(86.03703703703704, 400, 400)" opacity="0.90"></path><path d="M419.53 344.52C420.81 342.12 423.94 341.14 424.84 342.85Q427.81 360.08 425.61 377.59 423.02 386.55 420.81 395.66 419.77 404.93 420.58 414.38C420.97 416.11 419.2 418.34 417.22 418.56Q407.47 420.12 397.71 422.44 387.95 425.46 378.19 429.07 368.43 433.16 358.67 437.6 348.91 442.26 339.14 446.99C337.17 447.94 336.26 446.36 337.54 444.05Q345.83 431.29 355.85 418.59 367.16 405.96 379.11 393.43 391.01 381 402.13 368.7 415.66 350.53 419.53 344.52" stroke-dasharray="2 2" transform="rotate(89.77777777777777, 400, 400)" opacity="0.20"></path><path d="M417.75 354.79C419.07 353 421.41 352.25 421.72 353.52Q422.28 366.32 419.57 379.31 415.94 392.55 414.08 406.11C414.08 407.35 412.38 409.11 410.88 409.39Q396.13 413.08 381.37 418.2 366.62 424.38 351.86 431.19C350.36 431.9 350 430.72 351.24 429Q366.86 410.05 384.72 391.33 402.48 372.9 417.75 354.79 417.75 354.79 417.75 354.79" stroke-dasharray="7 4" transform="rotate(93.51851851851852, 400, 400)" opacity="0.51"></path><path d="M413.79 365.07C414.86 363.87 416.41 363.36 416.41 364.21Q415.53 372.68 413.53 381.23 411.16 389.87 409.19 398.63C409.05 399.43 407.73 400.66 406.72 400.92Q396.75 403.84 386.78 407.34 376.81 411.3 366.83 415.61C365.82 416.06 365.77 415.26 366.74 414.13Q378.17 401.66 390.31 389.32 408.11 371.1 413.79 365.07" stroke-dasharray="0 10" transform="rotate(97.25925925925925, 400, 400)" opacity="0.23"></path></g></svg>