<svg xmlns="http://www.w3.org/2000/svg" version="1.1" xmlns:xlink="http://www.w3.org/1999/xlink" xmlns:svgjs="http://svgjs.dev/svgjs" viewBox="0 0 800 800"><defs><linearGradient x1="50%" y1="0%" x2="50%" y2="100%" id="ccchaos-grad"><stop stop-color="hsl(173.4, 100%, 42%)" stop-opacity="1" offset="0%"></stop><stop stop-color="hsl(173.4, 10%, 42%)" stop-opacity="1" offset="100%"></stop></linearGradient></defs><g stroke-width="2" stroke="url(#ccchaos-grad)" fill="none" stroke-linecap="round"><path d="M112.99 128.1Q121.86 127.97 130.73 126.07 139.6 122.64 148.47 118.12 157.34 113.08 166.21 108.15 175.08 103.96 183.95 101.04 192.82 99.76 201.69 100.28 210.56 102.53 219.43 106.23 228.3 110.92 237.17 115.99 246.03 120.81 254.9 124.77 263.77 127.36 272.64 128.27 281.51 127.37 290.38 124.78 299.25 120.82 308.12 116.01 316.99 110.93 325.86 106.25 334.73 102.54 343.6 100.28 352.47 99.76 361.34 101.04 370.21 103.95 379.08 108.14 387.95 113.06 396.82 118.1 405.69 122.63 414.56 126.06 423.43 127.97 432.3 128.11 441.17 126.46 450.04 123.24 458.91 118.85 467.78 113.85 476.65 108.86 485.52 104.52 494.39 101.39 503.26 99.84 512.13 100.09 521 102.09 529.87 105.6 538.74 110.17 547.6 115.23 556.47 120.12 565.34 124.25 574.21 127.08 583.08 128.25 591.95 127.62 600.82 125.27 609.69 121.49 618.56 116.76 627.43 111.69 636.3 106.91 645.17 103.02 654.04 100.52 662.91 99.72 671.78 100.73 680.65 103.42 689.53 112.11 698.22 120.8 706.24 129.49 713.14 138.18 718.55 146.87 722.16 155.55 723.79 164.24 723.33 172.93 720.81 181.62 716.38 190.31 710.28 199 702.84 207.69 694.47 216.38 685.63 225.07 676.82 233.76 668.51 242.45 661.16 251.14 655.18 259.82 650.9 268.51 648.55 277.2 648.26 285.89 650.05 294.58 653.82 303.27 659.36 311.96 666.37 320.65 674.45 329.34 683.18 338.03 692.06 346.72 700.6 355.41 708.34 364.1 714.85 372.78 719.77 381.47 722.82 398.85 719.73 416.23 714.8 424.92 708.27 433.61 700.52 442.3 691.97 450.99 683.09 459.68 674.37 468.37 666.29 477.05 659.3 485.74 653.77 494.43 650.02 503.12 648.25 511.81 648.56 520.5 650.93 529.19 655.23 537.88 661.23 546.57 668.58 555.26 676.9 563.95 685.72 572.64 694.55 581.33 702.91 590.01 710.34 598.7 716.43 607.39 720.85 616.08 723.34 624.77 723.78 633.46 722.14 642.15 711.15 651.82 694.52 650.28 685.24 652.27 675.96 658.52 666.68 668.25 657.4 680.22 648.11 692.93 638.83 704.75 629.55 714.21 620.27 720.09 610.99 721.67 601.71 718.73 592.43 711.66 583.15 701.34 573.87 689.08 564.58 676.43 555.3 664.99 546.02 656.2 536.74 651.19 527.46 650.57 518.18 654.44 508.9 662.29 499.62 673.14 490.34 685.62 481.05 698.15 471.77 709.13 462.49 717.2 453.21 721.31 443.93 720.96 434.65 716.19 425.37 707.6 416.09 696.28 406.81 683.66 397.53 671.33 388.24 660.86 378.96 653.56 369.68 650.37 360.4 651.68 351.12 657.33 341.84 666.61 332.56 678.33 323.28 691.03 314 703.09 304.71 712.98 295.43 719.47 286.15 721.72 276.87 719.45 267.59 712.96 258.31 703.05 249.03 690.99 239.75 678.29 230.47 666.57 221.18 657.31 211.9 651.67 202.62 650.37 193.34 653.58 184.06 660.89 174.78 671.37 165.5 683.7 156.22 696.32 146.94 707.63 137.65 716.21 124.24 716.5 120.8 702.77 121.11 693.5 121.02 684.23 120.55 674.96 119.72 665.69 118.58 656.42 117.18 647.16 115.61 637.89 113.94 628.62 112.28 619.35 110.72 610.08 109.33 600.81 108.21 591.54 107.4 582.27 106.95 573.01 106.89 563.74 107.23 554.47 107.93 545.2 108.97 535.93 110.29 526.66 111.81 517.39 113.45 508.12 115.12 498.86 116.73 489.59 118.19 480.32 119.42 471.05 120.34 461.78 120.92 452.51 121.12 443.24 120.93 433.97 120.35 424.71 119.43 415.44 118.2 406.17 116.74 396.9 115.14 387.63 113.46 378.36 111.82 369.09 110.3 359.82 108.98 350.56 107.94 341.29 107.23 332.02 106.89 322.75 106.95 313.48 107.39 304.21 108.2 294.94 109.32 285.67 110.7 276.4 112.27 267.14 113.93 257.87 115.59 248.6 117.16 239.33 118.56 230.06 119.71 220.79 120.55 211.52 121.02 202.25 121.11 192.99 120.8 183.72 120.12 174.45 119.1 165.18 117.81 155.91 116.3 146.64 114.66 137.37 112.99 128.1" stroke-dasharray="10 8" transform="rotate(0, 400, 400)" opacity="0.05"></path><path d="M126.13 139.08Q143.46 133.24 160.78 123.65 178.1 114.67 195.43 110.39 212.75 112.74 230.07 120.66 247.4 130.55 264.72 137.92 282.04 139.41 299.37 134.36 316.69 125.05 334.02 115.72 351.34 110.6 368.66 112.02 385.99 119.34 403.31 129.22 420.63 137.19 437.96 139.61 455.28 135.4 472.6 126.45 489.93 116.85 507.25 110.94 524.58 111.42 541.9 118.07 559.22 127.86 576.55 136.35 593.87 139.68 611.19 136.34 628.52 127.84 645.84 118.05 663.16 111.42 680.49 110.95 696.05 127.52 707.38 144.09 712.2 160.66 709.53 177.23 699.92 193.8 685.29 210.37 668.6 226.95 653.19 243.52 642.17 260.09 637.75 276.66 640.82 293.23 650.76 309.8 665.58 326.37 682.29 342.94 697.53 359.51 708.25 376.09 712.27 392.66 708.8 409.23 698.53 425.8 683.52 442.37 666.81 458.94 651.73 475.51 641.34 492.08 637.71 508.65 641.59 525.23 652.18 541.8 667.36 558.37 684.07 574.94 698.96 591.51 709.03 608.08 712.26 624.65 707.99 641.22 689.98 642.35 671.98 658.31 653.97 681.85 635.97 702.27 617.96 710.31 599.96 702.3 581.95 681.88 563.95 658.34 545.94 642.36 527.94 641.21 509.93 655.41 491.93 678.5 473.92 700.01 455.92 710.14 437.91 704.31 419.91 685.16 401.9 661.39 383.9 643.8 365.89 640.38 347.89 652.69 329.88 675.13 311.88 697.51 293.87 709.66 275.87 706.06 257.86 688.35 239.86 664.57 221.85 645.53 203.85 639.87 185.84 650.18 167.84 671.76 149.83 694.81 131.83 708.86 132.71 691.05 132.04 673.25 129.96 655.44 126.87 637.63 123.41 619.83 120.27 602.02 118.08 584.22 117.28 566.41 118.03 548.61 120.18 530.8 123.3 513 126.76 495.19 129.87 477.38 131.99 459.58 132.71 441.77 131.88 423.97 129.66 406.16 126.51 388.36 123.05 370.55 119.98 352.75 117.92 334.94 117.28 317.13 118.2 299.33 120.48 281.52 123.67 263.72 127.13 245.91 130.16 228.11 132.14 210.3 132.7 192.5 131.7 174.69 129.35 156.88 126.13 139.08" stroke-dasharray="3 6" transform="rotate(4.04, 400, 400)" opacity="0.09"></path><path d="M139.51 147.27Q156.39 138.75 173.27 129.06 190.14 122.29 207.02 121.28 223.89 126.44 240.77 135.62 257.64 144.95 274.52 150.53 291.4 149.99 308.27 143.58 325.15 133.98 342.02 125.23 358.9 121 375.77 123.07 392.65 130.56 409.52 140.34 426.4 148.3 443.28 151.08 460.15 147.53 477.03 139.14 493.9 129.42 510.78 122.47 527.65 121.19 544.53 126.14 561.41 135.22 578.28 144.63 595.16 150.41 612.03 150.14 628.91 143.92 645.78 134.38 662.66 125.51 679.53 121.05 692.08 136.94 699.4 152.83 700.16 168.71 694.21 184.6 682.64 200.49 667.62 216.38 651.92 232.26 638.47 248.15 629.75 264.04 627.39 279.93 631.82 295.81 642.22 311.7 656.67 327.59 672.47 343.48 686.7 359.36 696.72 375.25 700.66 391.14 697.8 407.03 688.66 422.91 674.95 438.8 659.2 454.69 644.34 470.58 633.13 486.47 627.65 502.35 628.91 518.24 636.69 534.13 649.53 550.02 665.05 565.9 680.38 581.79 692.67 597.68 699.64 613.57 699.99 629.45 682.62 639.77 665.25 660.26 647.88 682.32 630.51 696.68 613.14 697.32 595.77 683.96 578.4 662.21 561.03 641.22 543.66 629.79 526.29 632.73 508.92 648.8 491.55 671.26 474.18 690.66 456.81 698.87 439.44 692.42 422.07 674.04 404.7 651.44 387.33 634.11 369.96 629.33 352.59 639.11 335.22 659.35 317.85 681.53 300.48 696.35 283.11 697.58 265.74 684.7 248.37 663.13 231 641.92 213.63 629.98 196.26 632.33 178.89 647.98 161.52 670.35 144.15 690.06 144.07 673.1 142.49 656.13 139.71 639.17 136.23 622.21 132.72 605.25 129.81 588.28 128.05 571.32 127.76 554.36 129 537.4 131.54 520.44 134.91 503.47 138.48 486.51 141.58 469.55 143.65 452.59 144.3 435.63 143.41 418.66 141.14 401.7 137.91 384.74 134.34 367.78 131.06 350.82 128.71 333.85 127.7 316.89 128.24 299.93 130.21 282.97 133.26 266.01 136.82 249.04 140.22 232.08 142.84 215.12 144.19 198.16 144.01 181.2 142.35 164.23 139.51 147.27" stroke-dasharray="0 10" transform="rotate(8.08, 400, 400)" opacity="0.13"></path><path d="M152.91 153.08Q169.29 143.47 185.66 135.22 202.04 131.53 218.42 133.82 234.8 141.21 251.17 150.84 267.55 158.98 283.93 162.48 300.31 160 316.68 152.48 333.06 142.84 349.44 134.81 365.81 131.49 382.19 134.17 398.57 141.82 414.95 151.46 431.32 159.38 447.7 162.51 464.08 159.63 480.46 151.87 496.83 142.22 513.21 134.42 529.59 131.48 545.96 134.55 562.34 142.43 578.72 152.08 595.1 159.76 611.47 162.5 627.85 159.24 644.23 151.25 660.61 141.61 676.98 134.05 685.84 149.37 689.09 164.68 686.18 180 677.61 195.32 664.83 210.64 650.04 225.96 635.75 241.27 624.4 256.59 617.94 271.91 617.45 287.23 623.03 302.54 633.73 317.86 647.71 333.18 662.6 348.5 675.85 363.81 685.19 379.13 689.04 394.45 686.74 409.77 678.68 425.09 666.24 440.4 651.53 455.72 637.08 471.04 625.34 486.36 618.32 501.67 617.22 516.99 622.23 532.31 632.48 547.63 646.24 562.94 661.15 578.26 674.67 593.58 684.49 608.9 688.93 624.21 672.27 641.02 655.62 662.45 638.96 680.23 622.3 687.47 605.64 681.37 588.98 664.3 572.32 642.85 555.66 625.33 539 618.51 522.35 625.03 505.69 642.38 489.03 663.83 472.37 681.09 455.71 687.48 439.05 680.53 422.39 662.92 405.74 641.48 389.08 624.49 372.42 618.53 355.76 625.9 339.1 643.76 322.44 665.19 305.78 681.9 289.13 687.43 272.47 679.64 255.81 661.53 239.15 640.13 222.49 623.7 205.83 618.61 189.17 626.82 172.52 645.16 155.86 666.53 154.76 650.48 152.34 634.44 149.01 618.39 145.33 602.35 141.94 586.3 139.41 570.26 138.17 554.21 138.45 538.16 140.18 522.12 143.07 506.07 146.63 490.03 150.26 473.98 153.33 457.94 155.32 441.89 155.88 425.85 154.93 409.8 152.63 393.76 149.36 377.71 145.69 361.67 142.24 345.62 139.61 329.58 138.23 313.53 138.35 297.49 139.94 281.44 142.74 265.4 146.27 249.35 149.91 233.31 153.06 217.26 155.18 201.22 155.9 185.17 155.09 169.13 152.91 153.08" stroke-dasharray="7 4" transform="rotate(12.12, 400, 400)" opacity="0.16"></path><path d="M166.07 157.41Q181.88 148.46 197.7 142.9 213.51 142.69 229.33 147.92 245.15 156.73 260.96 165.98 276.78 172.4 292.59 173.71 308.41 169.43 324.23 161.1 340.04 151.67 355.86 144.48 371.68 142.09 387.49 145.34 403.31 153.09 419.12 162.58 434.94 170.44 450.76 173.88 466.57 171.68 482.39 164.63 498.2 155.22 514.02 146.79 529.84 142.34 545.65 143.45 561.47 149.72 577.29 158.93 593.1 167.81 608.92 173.2 624.73 173.19 640.55 167.79 656.37 158.91 672.18 149.71 677.07 164.54 676.47 179.37 670.48 194.2 660.04 209.03 646.78 223.86 632.77 238.69 620.2 253.52 611.04 268.35 606.72 283.18 607.91 298.01 614.43 312.84 625.27 327.67 638.71 342.5 652.67 357.33 664.96 372.16 673.66 386.99 677.41 401.82 675.62 416.65 668.58 431.48 657.37 446.31 643.77 461.14 629.88 475.97 617.89 490.8 609.67 505.63 606.5 520.46 608.88 535.28 616.44 550.11 627.99 564.94 641.74 579.77 655.52 594.6 667.19 609.43 674.92 624.26 659.04 643.96 643.16 662.96 627.28 674.52 611.4 674.53 595.52 662.99 579.64 644 563.77 624.3 547.89 610.88 532.01 608.5 516.13 618.02 500.25 636.05 484.37 656.19 468.49 671.29 452.61 675.99 436.73 668.62 420.86 651.81 404.98 631.5 389.1 614.93 373.22 607.96 357.34 613.07 341.46 628.46 325.58 648.64 309.7 666.47 293.83 675.61 277.95 672.82 262.07 659.08 246.19 639.28 230.31 620.44 214.43 609.26 198.55 609.69 182.67 621.6 166.8 640.74 164.73 625.64 161.61 610.53 157.93 595.43 154.25 580.32 151.16 565.22 149.14 550.12 148.51 535.01 149.35 519.91 151.55 504.8 154.76 489.7 158.47 474.6 162.11 459.49 165.1 444.39 166.99 429.28 167.46 414.18 166.46 399.07 164.14 383.97 160.85 368.87 157.12 353.76 153.52 338.66 150.63 323.55 148.88 308.45 148.56 293.35 149.72 278.24 152.17 263.14 155.53 248.03 159.27 232.93 162.82 217.83 165.61 202.72 167.21 187.62 167.37 172.51 166.07 157.41" stroke-dasharray="3 8" transform="rotate(16.16, 400, 400)" opacity="0.20"></path><path d="M178.73 161.5Q193.91 154.79 209.1 152.69 224.29 155.88 239.47 163.32 254.66 172.6 269.85 180.72 285.03 185.03 300.22 184.14 315.4 178.34 330.59 169.51 345.78 160.51 360.96 154.26 376.15 152.8 391.34 156.58 406.52 164.39 421.71 173.7 436.9 181.48 452.08 185.21 467.27 183.68 482.46 177.39 497.64 168.38 512.83 159.56 528.01 153.81 543.2 152.98 558.39 157.35 573.57 165.49 588.76 174.77 603.95 182.18 619.13 185.31 634.32 183.15 657.59 179.01 661.72 196.01 653.38 210.38 641.85 224.76 628.77 239.14 616 253.52 605.38 267.9 598.41 282.28 596.08 296.66 598.74 311.04 605.99 325.42 616.81 339.8 629.66 354.18 642.69 368.56 654.06 382.94 662.14 397.32 665.77 411.7 664.45 426.08 658.35 440.46 648.35 454.84 635.88 469.22 622.71 483.6 610.72 497.98 601.62 512.35 596.72 526.73 596.7 541.11 601.57 555.49 610.64 569.87 622.61 584.25 635.78 598.63 648.26 613.01 658.29 627.39 643.24 646.25 628.2 660.16 613.15 664.61 598.11 658.16 583.07 642.9 568.02 623.78 552.98 607 537.93 598 522.89 599.71 507.85 611.56 492.8 629.72 477.76 648.29 462.71 661.25 447.67 664.4 432.63 656.71 417.58 640.69 402.54 621.52 387.49 605.42 372.45 597.62 357.41 600.64 342.36 613.51 327.32 632.05 312.27 650.25 297.23 662.2 282.19 664.03 267.14 655.15 252.1 638.43 237.05 619.3 222.01 603.96 206.97 597.4 191.92 601.72 176.88 615.55 173.98 601.36 170.38 587.17 166.57 572.98 163.12 558.79 160.5 544.6 159.09 530.41 159.1 516.22 160.51 502.03 163.14 487.84 166.6 473.66 170.41 459.47 174.01 445.28 176.9 431.09 178.66 416.9 179.04 402.71 177.99 388.52 175.66 374.33 172.37 360.14 168.61 345.95 164.9 331.77 161.77 317.58 159.68 303.39 158.91 289.2 159.58 275.01 161.6 260.82 164.67 246.63 168.35 232.44 172.13 218.25 175.46 204.06 177.87 189.87 179.01 175.69 178.73 161.5" stroke-dasharray="4 7" transform="rotate(20.200000000000003, 400, 400)" opacity="0.24"></path><path d="M190.67 166.7Q205.16 163.34 219.64 164.88 234.13 170.89 248.62 179.58 263.11 188.39 277.6 194.73 292.09 196.72 306.58 193.78 321.07 186.77 335.56 177.76 350.04 169.42 364.53 164.19 379.02 163.62 393.51 167.89 408 175.72 422.49 184.82 436.98 192.49 451.47 196.48 465.95 195.6 480.44 190.13 494.93 181.66 509.42 172.7 523.91 165.9 538.4 163.25 552.89 165.54 567.38 172.1 581.87 180.98 596.35 189.57 610.84 195.34 625.33 196.59 645.81 196.16 645.15 213.3 635.26 227.22 623.39 241.14 611.08 255.06 599.92 268.98 591.36 282.9 586.52 296.81 586 310.73 589.89 324.65 597.68 338.57 608.36 352.49 620.54 366.41 632.66 380.32 643.13 394.24 650.61 408.16 654.12 422.08 653.22 436 648.01 449.92 639.17 463.83 627.85 477.75 615.51 491.67 603.75 505.59 594.1 519.51 587.8 533.43 585.67 547.35 587.99 561.26 594.45 575.18 604.21 589.1 616.03 603.02 628.35 616.94 639.6 630.86 625.43 645.68 611.25 652.93 597.08 650.46 582.91 639.01 568.74 621.95 554.57 604.31 540.39 591.3 526.22 586.75 512.05 592.01 497.88 605.52 483.7 623.3 469.53 640.11 455.36 650.98 441.19 652.72 427.02 644.8 412.84 629.57 398.67 611.51 384.5 595.96 370.33 587.5 356.16 588.62 341.98 598.99 327.81 615.57 313.64 633.44 299.47 647.35 285.3 653.2 271.12 649.24 256.95 636.67 242.78 619.17 228.61 601.92 214.44 590 200.26 586.92 186.09 593.61 182.59 580.26 178.76 566.92 175.09 553.58 172.05 540.24 170.04 526.9 169.32 513.56 169.98 500.22 171.94 486.88 174.94 473.54 178.6 460.2 182.44 446.86 185.96 433.52 188.71 420.18 190.33 406.83 190.61 393.49 189.52 380.15 187.19 366.81 183.93 353.47 180.17 340.13 176.38 326.79 173.06 313.45 170.63 300.11 169.42 286.77 169.58 273.43 171.09 260.09 173.75 246.75 177.22 233.4 181.05 220.06 184.74 206.72 187.82 193.38 189.88 180.04 190.67 166.7" stroke-dasharray="4 6" transform="rotate(24.24, 400, 400)" opacity="0.28"></path><path d="M201.71 174.22Q215.44 174.64 229.17 179.43 242.9 187.3 256.63 196.15 270.36 203.63 284.09 207.74 297.82 207.38 311.55 202.65 325.28 194.81 339.01 185.95 352.74 178.43 366.47 174.27 380.2 174.58 393.93 179.26 407.67 187.07 421.4 195.94 435.13 203.48 448.86 207.69 462.59 207.45 476.32 202.81 490.05 195.03 503.78 186.16 517.51 178.59 531.24 174.33 544.97 174.51 558.7 179.1 572.43 186.85 586.16 195.72 599.89 203.32 613.62 207.64 631.52 211.95 627.18 229.79 616.54 243.19 605.02 256.59 593.96 270 584.66 283.4 578.21 296.81 575.36 310.21 576.45 323.62 581.34 337.02 589.47 350.43 599.88 363.83 611.36 377.23 622.57 390.64 632.18 404.04 639.08 417.45 642.46 430.85 641.93 444.26 637.54 457.66 629.81 471.07 619.65 484.47 608.24 497.87 596.92 511.28 587.01 524.68 579.67 538.09 575.77 551.49 575.75 564.9 579.62 578.3 586.93 591.71 596.82 605.11 608.14 618.51 619.55 631.92 606.27 640.59 592.99 640.84 579.71 632.58 566.42 618.03 553.14 601.07 539.86 586.23 526.58 577.46 513.3 577.1 500.01 585.26 486.73 599.75 473.45 616.71 460.17 631.61 446.88 640.47 433.6 640.94 420.32 632.88 407.04 618.45 393.76 601.49 380.47 586.54 367.19 577.58 353.91 577 340.63 584.96 327.34 599.33 314.06 616.29 300.78 631.29 287.5 640.35 274.21 641.04 260.93 633.18 247.65 618.86 234.37 601.92 221.09 586.86 207.8 577.71 194.52 576.91 190.71 564.32 186.93 551.74 183.63 539.15 181.19 526.57 179.89 513.99 179.9 501.4 181.2 488.82 183.65 476.24 186.96 463.65 190.74 451.07 194.55 438.48 197.95 425.9 200.53 413.32 201.99 400.73 202.17 388.15 201.04 375.57 198.74 362.98 195.53 350.4 191.79 337.81 187.95 325.23 184.47 312.65 181.76 300.06 180.13 287.48 179.76 274.89 180.71 262.31 182.87 249.73 185.97 237.14 189.67 224.56 193.52 211.98 197.07 199.39 199.91 186.81 201.71 174.22" stroke-dasharray="5 5" transform="rotate(28.28, 400, 400)" opacity="0.32"></path><path d="M211.76 184.87Q224.68 188.79 237.6 195.89 250.53 204.45 263.45 212.42 276.37 217.89 289.29 219.54 302.22 216.98 315.14 210.82 328.06 202.55 340.99 194.14 353.91 187.61 366.83 184.54 379.75 185.66 392.68 190.7 405.6 198.45 418.52 207.05 431.44 214.44 444.37 218.84 457.29 219.2 470.21 215.42 483.14 208.42 496.06 199.88 508.98 191.85 521.9 186.25 534.83 184.43 547.75 186.83 560.67 192.87 573.59 201.1 586.52 209.54 599.44 216.18 615.1 225.34 608.3 244.07 597.68 256.88 587.09 269.69 577.65 282.5 570.35 295.31 565.95 308.12 564.93 320.93 567.38 333.74 573.04 346.55 581.33 359.36 591.38 372.17 602.11 384.98 612.42 397.79 621.21 410.6 627.55 423.41 630.8 436.22 630.59 449.03 626.96 461.84 620.28 474.65 611.26 487.46 600.85 500.27 590.13 513.08 580.24 525.89 572.22 538.7 566.91 551.51 564.87 564.32 566.3 577.13 571.07 589.93 578.67 602.74 574.6 617.38 549.38 596.34 536.98 581.15 524.59 570.01 512.19 565.59 499.8 568.95 487.4 579.28 475.01 594.1 462.62 609.86 450.22 622.77 437.83 629.73 425.43 629.08 413.04 620.96 400.64 607.33 388.25 591.46 375.86 577.16 363.46 567.86 351.07 565.79 338.67 571.46 326.28 583.49 313.89 599.01 301.49 614.29 289.1 625.65 276.7 630.37 264.31 627.32 251.91 617.23 239.52 602.53 227.13 586.73 214.73 573.64 202.34 566.39 198.53 554.47 195.08 542.55 192.36 530.63 190.66 518.7 190.14 506.78 190.87 494.86 192.77 482.94 195.64 471.01 199.18 459.09 203.01 447.17 206.74 435.24 209.97 423.32 212.36 411.4 213.66 399.48 213.73 387.55 212.57 375.63 210.3 363.71 207.15 351.79 203.47 339.86 199.63 327.94 196.03 316.02 193.07 304.09 191.04 292.17 190.16 280.25 190.53 268.33 192.1 256.4 194.72 244.48 198.09 232.56 201.88 220.64 205.68 208.71 209.09 196.79 211.76 184.87" stroke-dasharray="3 3" transform="rotate(32.32, 400, 400)" opacity="0.35"></path><path d="M220.8 198.85Q232.88 205.38 244.97 213.54 257.05 221.58 269.13 227.78 281.21 230.81 293.29 230.02 305.37 225.57 317.45 218.42 329.54 210.11 341.62 202.42 353.7 197 365.78 195.01 377.86 196.88 389.94 202.21 402.02 209.86 414.11 218.17 426.19 225.38 438.27 229.93 450.35 230.84 462.43 227.93 474.51 221.81 486.6 213.8 498.68 205.61 510.76 199.01 522.84 195.41 534.92 195.59 547 199.5 559.08 206.3 571.17 214.55 583.25 222.46 597.05 235.69 589.04 255.17 579.11 267.3 569.92 279.42 562.33 291.54 557.06 303.67 554.59 315.79 555.17 327.92 558.74 340.04 564.95 352.17 573.24 364.29 582.82 376.41 592.79 388.54 602.21 400.66 610.21 412.79 616.03 424.91 619.12 437.04 619.2 449.16 616.26 461.28 610.57 473.41 602.66 485.53 593.29 497.66 583.33 509.78 573.71 521.91 565.34 534.03 559 546.15 555.28 558.28 554.55 570.4 556.86 582.53 562 594.65 568.28 610.54 555.56 603.83 544.03 589.76 532.51 575.09 520.98 562.97 509.45 556.01 497.93 555.7 486.4 562.11 474.88 573.86 463.35 588.42 451.83 602.68 440.3 613.57 428.77 618.76 417.25 617.13 405.72 609.04 394.2 596.21 382.67 581.41 371.15 567.8 359.62 558.31 348.1 554.98 336.57 558.52 325.04 568.17 313.52 581.86 301.99 596.65 290.47 609.37 278.94 617.29 267.42 618.7 255.89 613.31 244.36 602.28 232.84 587.96 221.31 573.44 209.79 561.82 206.3 550.48 203.43 539.14 201.47 527.8 200.59 516.45 200.87 505.11 202.29 493.77 204.71 482.42 207.91 471.08 211.59 459.74 215.4 448.4 218.99 437.05 222.01 425.71 224.19 414.37 225.31 403.02 225.28 391.68 224.1 380.34 221.87 368.99 218.81 357.65 215.21 346.31 211.4 334.97 207.73 323.62 204.57 312.28 202.19 300.94 200.82 289.59 200.6 278.25 201.55 266.91 203.56 255.57 206.46 244.22 209.98 232.88 213.78 221.54 217.5 210.19 220.8 198.85" stroke-dasharray="0 6" transform="rotate(36.36, 400, 400)" opacity="0.39"></path><path d="M228.93 215.75Q240.16 223.54 251.38 231.42 262.61 237.88 273.83 241.7 285.05 242.15 296.28 239.14 307.5 233.24 318.73 225.58 329.95 217.62 341.17 210.88 352.4 206.63 363.62 205.69 374.85 208.24 386.07 213.79 397.29 221.28 408.52 229.29 419.74 236.29 430.96 240.95 442.19 242.38 453.41 240.31 464.64 235.12 475.86 227.82 487.08 219.79 498.31 212.56 509.53 207.51 520.76 205.6 531.98 207.19 543.2 211.99 554.43 219.07 565.65 227.09 576.88 234.52 588.1 239.95 579.15 251.3 569.94 262.66 561.24 274.02 553.76 285.38 548.13 296.73 544.82 308.09 544.11 319.45 546.05 330.81 550.48 342.16 557.03 353.52 565.16 364.88 574.19 376.24 583.38 387.59 591.95 398.95 599.19 410.31 604.5 421.67 607.44 433.02 607.76 444.38 605.44 455.74 600.67 467.1 593.85 478.45 585.54 489.81 576.43 501.17 567.29 512.53 558.88 523.88 551.89 535.24 546.9 546.6 544.34 557.96 544.4 569.31 547.1 580.67 550.4 593.05 537.91 581.31 527.22 567.53 516.52 555.37 505.83 547.14 495.14 544.4 484.45 547.68 473.76 556.36 463.07 568.78 452.38 582.57 441.69 595.11 431 604.01 420.31 607.57 409.62 605.12 398.92 597.12 388.23 585.09 377.54 571.34 366.85 558.47 356.16 548.94 345.47 544.56 334.78 546.17 324.09 553.47 313.4 565.05 302.71 578.72 292.01 591.87 281.32 602 270.63 607.17 259.94 606.4 249.25 599.84 238.56 588.74 227.87 575.21 217.18 561.83 214.29 551.02 212.21 540.2 211.11 529.39 211.08 518.57 212.12 507.76 214.16 496.94 217.01 486.13 220.44 475.31 224.17 464.5 227.89 453.68 231.28 442.86 234.06 432.05 236.01 421.23 236.96 410.42 236.82 399.6 235.63 388.79 233.46 377.97 230.5 367.16 227.01 356.34 223.26 345.53 219.57 334.71 216.26 323.9 213.58 313.08 211.78 302.27 210.98 291.45 211.28 280.64 212.63 269.82 214.92 259.01 217.97 248.19 221.53 237.38 225.28 226.56 228.93 215.75" stroke-dasharray="10 3" transform="rotate(40.400000000000006, 400, 400)" opacity="0.43"></path><path d="M236.34 234.53Q246.71 242.11 257.08 248.49 267.44 252.61 277.81 253.78 288.18 251.79 298.55 246.99 308.91 240.17 319.28 232.49 329.65 225.22 340.01 219.6 350.38 216.56 360.75 216.61 371.12 219.74 381.48 225.44 391.85 232.73 402.22 240.41 412.59 247.18 422.95 251.9 433.32 253.79 443.69 252.53 454.05 248.32 464.42 241.88 474.79 234.28 485.16 226.8 495.52 220.7 505.89 217 516.26 216.31 526.63 218.76 536.99 223.93 547.36 230.96 557.73 238.67 568.09 245.75 559.61 256.29 551.53 266.82 544.43 277.36 538.83 287.89 535.15 298.42 533.65 308.96 534.45 319.49 537.49 330.02 542.53 340.56 549.23 351.09 557.07 361.62 565.5 372.16 573.89 382.69 581.63 393.23 588.15 403.76 592.97 414.29 595.75 424.83 596.28 435.36 594.52 445.89 590.59 456.43 584.8 466.96 577.55 477.5 569.38 488.03 560.9 498.56 552.71 509.1 545.42 519.63 539.57 530.16 535.57 540.7 533.73 551.23 534.18 561.76 534.32 571.69 521.85 558.31 511.95 546.66 502.05 538.08 492.15 534.02 482.25 535.16 472.35 541.3 462.45 551.42 452.55 563.81 442.65 576.41 432.75 587.08 422.85 594.06 412.95 596.16 403.05 593.03 393.15 585.19 383.25 573.97 373.35 561.25 363.45 549.15 353.55 539.71 343.65 534.51 333.75 534.43 323.85 539.47 313.95 548.8 304.05 560.84 294.15 573.58 284.25 584.88 274.35 592.84 264.45 596.14 254.55 594.2 244.65 587.37 234.75 576.79 224.85 564.22 222.78 553.92 221.61 543.62 221.41 533.31 222.21 523.01 223.95 512.71 226.49 502.4 229.66 492.1 233.21 481.8 236.9 471.5 240.45 461.19 243.6 450.89 246.12 440.59 247.82 430.28 248.59 419.98 248.36 409.68 247.15 399.38 245.06 389.07 242.22 378.77 238.86 368.47 235.21 358.16 231.55 347.86 228.14 337.56 225.23 327.26 223.04 316.95 221.72 306.65 221.38 296.35 222.03 286.04 223.62 275.74 226.06 265.44 229.14 255.13 232.66 244.83 236.34 234.53" stroke-dasharray="1 3" transform="rotate(44.44, 400, 400)" opacity="0.47"></path><path d="M243.3 253.75Q252.83 259.79 262.36 263.81 271.88 265.22 281.41 263.82 290.94 259.8 300.46 253.77 309.99 246.6 319.52 239.34 329.05 233.05 338.57 228.66 348.1 226.81 357.63 227.76 367.15 231.39 376.68 237.15 386.21 244.21 395.73 251.53 405.26 258.04 414.79 262.79 424.32 265.07 433.84 264.57 443.37 261.34 452.9 255.87 462.42 248.95 471.95 241.6 481.48 234.9 491.01 229.81 500.53 227.1 510.06 227.15 519.59 229.96 529.11 235.12 539.71 250.39 534.24 268.6 528.95 278.28 525.27 287.97 523.42 297.65 523.52 307.34 525.56 317.03 529.42 326.71 534.85 336.4 541.5 346.08 548.94 355.77 556.71 365.45 564.31 375.14 571.25 384.82 577.08 394.51 581.45 404.2 584.06 413.88 584.75 423.57 583.48 433.25 580.33 442.94 575.5 452.62 569.3 462.31 562.12 472 554.42 481.68 546.69 491.37 539.43 501.05 533.1 510.74 528.11 520.42 524.76 530.11 523.28 539.8 520.39 548.44 507.86 536.59 498.7 528.33 489.54 523.83 480.39 523.75 471.23 528.09 462.07 536.23 452.91 546.97 443.76 558.73 434.6 569.81 425.44 578.56 416.28 583.73 407.13 584.53 397.97 580.87 388.81 573.28 379.66 562.86 370.5 551.14 361.34 539.84 352.18 530.61 343.03 524.81 333.87 523.28 324.71 526.25 315.55 533.27 306.4 543.34 297.24 554.96 288.08 566.44 278.92 576.1 269.77 582.52 260.61 584.77 251.45 582.51 242.3 576.08 233.14 566.41 232.02 556.64 231.8 546.87 232.49 537.1 234.03 527.33 236.34 517.56 239.27 507.79 242.62 498.02 246.19 488.24 249.75 478.47 253.07 468.7 255.93 458.93 258.17 449.16 259.62 439.39 260.21 429.62 259.89 419.85 258.68 410.08 256.66 400.31 253.97 390.54 250.76 380.77 247.25 371 243.66 361.23 240.22 351.46 237.15 341.69 234.64 331.92 232.86 322.14 231.91 312.37 231.86 302.6 232.72 292.83 234.42 283.06 236.86 273.29 239.89 263.52 243.3 253.75" stroke-dasharray="10 7" transform="rotate(48.48, 400, 400)" opacity="0.51"></path><path d="M250.15 271.82Q267.59 275.39 285.02 271.83 293.73 266.39 302.45 259.76 311.16 252.78 319.88 246.34 328.6 241.24 337.31 238.13 346.03 237.41 354.74 239.17 363.46 243.18 372.17 248.93 380.89 255.71 389.61 262.65 398.32 268.87 407.04 273.59 415.75 276.22 424.47 276.41 433.18 274.15 441.9 269.71 450.62 263.67 459.33 256.79 468.05 249.93 476.76 243.97 485.48 239.65 494.19 237.52 502.91 237.86 511.62 240.62 521.77 253.02 518.43 269.43 515.02 278.28 513.15 287.13 512.92 295.97 514.34 304.82 517.35 313.67 521.76 322.52 527.35 331.36 533.8 340.21 540.75 349.06 547.83 357.91 554.64 366.76 560.81 375.6 566 384.45 569.92 393.3 572.36 402.15 573.18 410.99 572.34 419.84 569.89 428.69 565.95 437.54 560.75 446.39 554.57 455.23 547.76 464.08 540.68 472.93 533.73 481.78 527.29 490.62 521.72 499.47 517.31 508.32 514.32 517.17 508.8 525.58 496.23 517.68 479.31 514.79 462.38 522.85 453.92 532.07 445.46 542.68 436.99 553.32 428.53 562.66 411.61 571.11 394.68 568.66 386.22 561.36 377.76 551.74 369.29 541.01 360.83 530.53 352.37 521.63 343.9 515.43 335.44 512.72 326.98 513.83 318.52 518.64 310.05 526.52 301.59 536.48 293.13 547.27 284.67 557.52 276.2 565.93 259.28 571.44 242.35 565.91 242.23 556.72 242.92 547.53 244.39 538.34 246.55 529.15 249.29 519.96 252.45 510.77 255.86 501.58 259.33 492.39 262.68 483.2 265.71 474.01 268.26 464.82 270.19 455.62 271.4 446.43 271.81 437.24 271.4 428.05 270.21 418.86 268.28 409.67 265.74 400.48 262.71 391.29 259.37 382.1 255.89 372.91 252.48 363.72 249.32 354.53 246.58 345.34 244.41 336.15 242.93 326.96 242.23 317.77 242.35 308.58 243.27 299.39 244.94 290.2 247.28 281.01 250.15 271.82" stroke-dasharray="4 1" transform="rotate(52.52, 400, 400)" opacity="0.54"></path><path d="M257.28 287.29Q273.16 286.58 289.04 278.07 304.93 265.32 320.81 253.7 336.69 248.08 352.57 250.83 368.46 260.78 384.34 273.77 400.22 284.33 416.11 288.03 431.99 283.31 447.87 272.17 463.76 259.27 479.64 250.03 495.52 248.34 511.4 254.91 504.37 271 502.47 287.1 506.04 303.2 514.43 319.29 526.08 335.39 538.83 351.49 550.31 367.58 558.39 383.68 561.57 399.77 559.26 415.87 551.89 431.97 540.83 448.06 528.13 464.16 516.14 480.25 507.1 496.35 502.68 512.45 487.06 502.64 471.44 505.16 455.81 518.96 440.19 538.23 424.57 554.88 408.95 561.92 393.33 556.39 377.71 540.62 362.08 521.22 346.46 506.35 330.84 502.25 315.22 510.64 299.6 528 283.98 547.04 261.7 551.74 259.74 526.62 265.98 509.53 272.59 492.43 278.35 475.34 282.19 458.24 283.39 441.15 281.73 424.05 277.53 406.96 271.55 389.86 264.92 372.77 258.85 355.67 254.49 338.57 252.62 321.48 253.62 304.38 257.28 287.29" stroke-dasharray="1 0" transform="rotate(56.56, 400, 400)" opacity="0.58"></path><path d="M265.05 299.18Q279.47 293.69 293.88 282.99 308.3 270.86 322.71 261.63 337.13 258.56 351.55 262.74 365.96 272.7 380.38 284.89 394.8 294.99 409.21 299.41 423.63 296.59 438.04 287.52 452.46 275.42 466.88 264.6 481.29 258.88 495.71 260.31 492.18 274.92 493.15 289.52 498.48 304.13 507.33 318.74 518.31 333.34 529.72 347.95 539.76 362.56 546.86 377.16 549.93 391.77 548.46 406.38 542.71 420.99 533.56 435.59 522.44 450.2 511.1 464.81 501.31 479.41 494.59 494.02 480.21 491.96 465.82 500.21 451.44 515.84 437.05 533.3 422.67 546.39 408.28 550.46 393.9 544.08 379.51 529.5 365.13 511.9 350.74 497.53 336.36 491.49 321.97 495.92 307.59 509.26 293.2 526.76 273.48 538.33 273.54 518.77 279.79 503.08 285.92 487.4 290.97 471.71 294.14 456.03 294.95 440.34 293.26 424.66 289.34 408.97 283.81 393.29 277.52 377.6 271.46 361.92 266.58 346.24 263.64 330.55 263.1 314.87 265.05 299.18" stroke-dasharray="11 9" transform="rotate(60.599999999999994, 400, 400)" opacity="0.62"></path><path d="M273.82 307.17Q286.85 298.44 299.87 287.21 312.9 276.81 325.93 270.3 338.96 269.59 351.99 274.9 365.02 284.67 378.05 296 391.08 305.57 404.11 310.54 417.14 309.45 430.17 302.62 443.19 292.07 456.22 280.91 475.56 277.39 485.08 295.59 491.52 308.83 500.36 322.06 510.45 335.3 520.48 348.53 529.15 361.77 535.34 375 538.24 388.23 537.49 401.47 533.18 414.7 525.87 427.94 516.5 441.17 506.28 454.41 496.55 467.64 488.56 480.88 475.37 485.48 462.18 497.31 448.98 512.89 435.79 527.61 422.6 537.14 409.41 538.66 396.21 531.72 383.02 518.38 369.83 502.56 356.64 488.94 343.44 481.53 330.25 482.51 317.06 491.6 303.87 506.11 290.1 506.11 299.26 477.26 303.53 463.09 306.05 448.91 306.49 434.74 304.79 420.57 301.18 406.39 296.11 392.22 290.26 378.04 284.37 363.87 279.21 349.69 275.45 335.52 273.57 321.35 273.82 307.17" stroke-dasharray="6 6" transform="rotate(64.64, 400, 400)" opacity="0.66"></path><path d="M283.85 311.69Q295.57 301.66 307.28 291.48 318.99 283.57 330.7 279.85 342.41 281.21 354.12 287.31 365.83 296.7 377.55 307.12 389.26 316.07 400.97 321.4 412.68 321.83 424.39 317.26 436.1 308.78 447.81 298.44 466.41 291.29 478.05 305.84 485.01 317.8 493.44 329.76 502.45 341.72 511.1 353.68 518.48 365.64 523.81 377.6 526.53 389.56 526.36 401.52 523.31 413.48 517.7 425.43 510.13 437.39 501.39 449.35 492.39 461.31 484.09 473.27 472.08 482.42 460.06 495.55 448.04 509.5 436.02 520.93 424 527.1 411.98 526.52 399.96 519.33 387.94 507.26 375.93 493.21 363.91 480.54 351.89 472.31 339.87 470.48 327.85 475.5 315.83 486.15 304.12 487.97 312.55 462.99 316.01 450.38 317.89 437.77 318 425.16 316.32 412.55 313.03 399.95 308.47 387.34 303.13 374.73 297.56 362.12 292.36 349.51 288.06 336.91 285.12 324.3 283.85 311.69" stroke-dasharray="5 7" transform="rotate(68.68, 400, 400)" opacity="0.70"></path><path d="M295.34 313.87Q305.79 304.48 316.23 296.53 326.68 291.52 337.13 290.41 347.57 293.41 358.02 299.96 368.46 308.8 378.91 318.24 389.36 326.5 399.8 331.99 410.25 333.68 420.69 331.23 431.14 325.12 441.59 316.51 459.14 308.15 471.84 320 478.76 330.74 486.46 341.49 494.29 352.23 501.59 362.97 507.76 373.72 512.28 384.46 514.79 395.21 515.06 405.95 513.08 416.69 509.02 427.44 503.21 438.18 496.13 448.92 488.37 459.67 480.58 470.41 469.74 481.53 458.9 493.88 448.06 505.11 437.23 513.08 426.39 516.27 415.55 514.07 404.71 506.91 393.87 496.14 383.03 483.82 372.19 472.3 361.35 463.76 350.51 459.84 339.67 461.29 328.84 467.82 318.52 468.06 325.72 446.29 328.37 435.26 329.66 424.22 329.48 413.19 327.84 402.15 324.89 391.12 320.86 380.08 316.1 369.04 310.99 358.01 305.97 346.97 301.45 335.94 297.81 324.9 295.34 313.87" stroke-dasharray="6 10" transform="rotate(72.72, 400, 400)" opacity="0.73"></path><path d="M308.33 315.34Q317.55 308.11 326.76 303.06 335.97 300.93 345.18 302.02 354.39 306.19 363.61 312.82 372.82 320.94 382.03 329.36 391.24 336.85 400.45 342.31 409.66 344.94 418.88 344.36 428.09 340.65 437.3 334.36 453.47 326.94 466.18 337.03 472.62 346.57 479.35 356.11 485.92 365.66 491.93 375.2 496.98 384.74 500.75 394.28 503.01 403.83 503.62 413.37 502.52 422.91 499.79 432.45 495.61 442 490.24 451.54 484.02 461.08 477.36 470.63 467.73 481.29 458.1 491.32 448.46 499.26 438.83 503.94 429.2 504.67 419.57 501.35 409.94 494.47 400.3 485.02 390.67 474.41 381.04 464.17 371.41 455.81 361.78 450.55 352.14 449.16 342.51 451.85 333.09 448.43 338.71 429.34 340.59 419.84 341.34 410.34 340.93 400.84 339.37 391.34 336.77 381.84 333.29 372.34 329.15 362.84 324.62 353.34 319.98 343.84 315.54 334.34 311.57 324.84 308.33 315.34" stroke-dasharray="8 8" transform="rotate(76.76, 400, 400)" opacity="0.77"></path><path d="M322.75 317.94Q338.72 311.62 354.7 314.71 370.67 325.89 386.64 340.48 402.62 352.34 418.59 356.5 434.56 351.21 450.54 338.68 460.79 355.31 472.01 371.94 482.12 388.57 489.23 405.2 492.03 421.82 489.99 438.45 483.51 455.08 473.77 471.71 457.01 486.99 440.24 493.45 423.48 488.38 406.71 473.91 389.95 456.11 373.18 442.47 356.42 438.71 339.65 446.41 346.74 430.35 351.46 414.29 352.94 398.23 350.9 382.17 345.72 366.11 338.37 350.05 330.21 334 322.75 317.94" stroke-dasharray="1 8" transform="rotate(80.80000000000001, 400, 400)" opacity="0.81"></path><path d="M338.37 323.35Q351.87 322.58 365.37 328.41 378.87 339.14 392.37 351.6 405.87 362.11 419.37 367.57 432.87 366.37 446.37 358.87 455.4 372.93 464.39 386.99 472.15 401.05 477.7 415.12 480.3 429.18 479.63 443.24 475.77 457.3 469.21 471.36 455.05 480.21 440.89 481.63 426.73 475.18 412.56 462.79 398.4 448.09 384.24 435.43 370.07 428.54 355.91 429.46 360.94 416.19 363.91 402.93 364.43 389.67 362.43 376.4 358.17 363.14 352.21 349.88 345.31 336.61 338.37 323.35" stroke-dasharray="3 7" transform="rotate(84.84, 400, 400)" opacity="0.85"></path><path d="M354.86 332.77Q365.83 336 376.79 343.04 387.76 352.55 398.73 362.72 409.69 371.6 420.66 377.51 431.63 379.33 442.59 376.69 449.74 388.06 456.41 399.42 462.04 410.79 466.17 422.16 468.46 433.52 468.71 444.89 466.91 456.25 463.19 467.62 451.74 470.62 440.28 468.55 428.82 461.81 417.37 451.67 405.91 440.07 394.45 429.21 383 421.18 371.54 417.49 374.55 406.9 376.01 396.31 375.81 385.72 373.95 375.13 370.61 364.54 366.04 353.95 360.65 343.36 354.86 332.77" stroke-dasharray="0 2" transform="rotate(88.88, 400, 400)" opacity="0.89"></path><path d="M371.78 346.65Q388.49 358.45 405.19 373.84 421.9 386.35 438.6 390.74 448.02 407.86 454.64 424.97 457.25 442.09 455.36 459.21 438.04 454.37 420.73 440.55 403.41 423.56 386.09 410.53 387.71 394.56 385.48 378.59 379.82 362.62 371.78 346.65" stroke-dasharray="1 2" transform="rotate(92.92, 400, 400)" opacity="0.92"></path><path d="M388.64 364.59Q399.93 374.43 411.23 384.96 422.52 394.15 433.82 400.27 439.18 411.65 443.12 423.03 439.62 436.83 422.36 429.43 410.77 418.19 399.18 407.67 398.97 396.9 397.01 386.13 393.47 375.36 388.64 364.59" stroke-dasharray="4 4" transform="rotate(96.96, 400, 400)" opacity="0.96"></path></g></svg>