<svg xmlns="http://www.w3.org/2000/svg" version="1.1" xmlns:xlink="http://www.w3.org/1999/xlink" xmlns:svgjs="http://svgjs.dev/svgjs" viewBox="0 0 800 800"><defs><linearGradient x1="50%" y1="0%" x2="50%" y2="100%" id="vvvortex-grad"><stop stop-color="hsl(173.4, 100%, 42%)" stop-opacity="1" offset="0%"></stop><stop stop-color="hsl(173.4, 10%, 42%)" stop-opacity="1" offset="100%"></stop></linearGradient></defs><g stroke="url(#vvvortex-grad)" fill="none" stroke-linecap="round"><circle r="412.5" cx="400" cy="400" stroke-width="8" stroke-dasharray="33 28" stroke-dashoffset="25" transform="rotate(69, 400, 400)" opacity="0.05"></circle><circle r="396" cx="400" cy="400" stroke-width="8" stroke-dasharray="26 47" stroke-dashoffset="25" transform="rotate(47, 400, 400)" opacity="0.09"></circle><circle r="379.5" cx="400" cy="400" stroke-width="8" stroke-dasharray="32 38" stroke-dashoffset="25" transform="rotate(146, 400, 400)" opacity="0.13"></circle><circle r="363" cx="400" cy="400" stroke-width="7" stroke-dasharray="54 40" stroke-dashoffset="25" transform="rotate(327, 400, 400)" opacity="0.17"></circle><circle r="346.5" cx="400" cy="400" stroke-width="7" stroke-dasharray="28 33" stroke-dashoffset="25" transform="rotate(142, 400, 400)" opacity="0.21"></circle><circle r="330" cx="400" cy="400" stroke-width="7" stroke-dasharray="16 28" stroke-dashoffset="25" transform="rotate(337, 400, 400)" opacity="0.25"></circle><circle r="313.5" cx="400" cy="400" stroke-width="7" stroke-dasharray="23 46" stroke-dashoffset="25" transform="rotate(255, 400, 400)" opacity="0.29"></circle><circle r="297" cx="400" cy="400" stroke-width="6" stroke-dasharray="35 46" stroke-dashoffset="25" transform="rotate(93, 400, 400)" opacity="0.33"></circle><circle r="280.5" cx="400" cy="400" stroke-width="6" stroke-dasharray="21 15" stroke-dashoffset="25" transform="rotate(281, 400, 400)" opacity="0.37"></circle><circle r="264" cx="400" cy="400" stroke-width="6" stroke-dasharray="38 35" stroke-dashoffset="25" transform="rotate(313, 400, 400)" opacity="0.41"></circle><circle r="247.5" cx="400" cy="400" stroke-width="6" stroke-dasharray="50 26" stroke-dashoffset="25" transform="rotate(99, 400, 400)" opacity="0.45"></circle><circle r="231" cx="400" cy="400" stroke-width="5" stroke-dasharray="21 40" stroke-dashoffset="25" transform="rotate(117, 400, 400)" opacity="0.49"></circle><circle r="214.5" cx="400" cy="400" stroke-width="5" stroke-dasharray="48 30" stroke-dashoffset="25" transform="rotate(202, 400, 400)" opacity="0.53"></circle><circle r="198" cx="400" cy="400" stroke-width="5" stroke-dasharray="14 20" stroke-dashoffset="25" transform="rotate(266, 400, 400)" opacity="0.56"></circle><circle r="181.5" cx="400" cy="400" stroke-width="5" stroke-dasharray="48 31" stroke-dashoffset="25" transform="rotate(212, 400, 400)" opacity="0.60"></circle><circle r="165" cx="400" cy="400" stroke-width="4" stroke-dasharray="26 32" stroke-dashoffset="25" transform="rotate(62, 400, 400)" opacity="0.64"></circle><circle r="148.5" cx="400" cy="400" stroke-width="4" stroke-dasharray="52 29" stroke-dashoffset="25" transform="rotate(52, 400, 400)" opacity="0.68"></circle><circle r="132" cx="400" cy="400" stroke-width="4" stroke-dasharray="32 47" stroke-dashoffset="25" transform="rotate(32, 400, 400)" opacity="0.72"></circle><circle r="115.5" cx="400" cy="400" stroke-width="4" stroke-dasharray="18 45" stroke-dashoffset="25" transform="rotate(276, 400, 400)" opacity="0.76"></circle><circle r="99" cx="400" cy="400" stroke-width="3" stroke-dasharray="24 29" stroke-dashoffset="25" transform="rotate(130, 400, 400)" opacity="0.80"></circle><circle r="82.5" cx="400" cy="400" stroke-width="3" stroke-dasharray="27 22" stroke-dashoffset="25" transform="rotate(350, 400, 400)" opacity="0.84"></circle><circle r="66" cx="400" cy="400" stroke-width="3" stroke-dasharray="12 16" stroke-dashoffset="25" transform="rotate(206, 400, 400)" opacity="0.88"></circle><circle r="49.5" cx="400" cy="400" stroke-width="3" stroke-dasharray="18 15" stroke-dashoffset="25" transform="rotate(319, 400, 400)" opacity="0.92"></circle><circle r="33" cx="400" cy="400" stroke-width="2" stroke-dasharray="43 41" stroke-dashoffset="25" transform="rotate(126, 400, 400)" opacity="0.96"></circle><circle r="16.5" cx="400" cy="400" stroke-width="2" stroke-dasharray="31 17" stroke-dashoffset="25" transform="rotate(228, 400, 400)" opacity="1.00"></circle></g></svg>